<?xml version="1.0" encoding="utf-8"?>
<svg xmlns="http://www.w3.org/2000/svg" xmlns:xlink="http://www.w3.org/1999/xlink" width="600" height="400" viewBox="0 0 2400 1600">
<defs>
  <clipPath id="clip870">
    <rect x="0" y="0" width="2400" height="1600"/>
  </clipPath>
</defs>
<path clip-path="url(#clip870)" d="
M0 1600 L2400 1600 L2400 0 L0 0  Z
  " fill="#ffffff" fill-rule="evenodd" fill-opacity="1"/>
<defs>
  <clipPath id="clip871">
    <rect x="480" y="0" width="1681" height="1600"/>
  </clipPath>
</defs>
<path clip-path="url(#clip870)" d="
M223.008 1410.22 L2352.76 1410.22 L2352.76 47.2441 L223.008 47.2441  Z
  " fill="#ffffff" fill-rule="evenodd" fill-opacity="1"/>
<defs>
  <clipPath id="clip872">
    <rect x="223" y="47" width="2131" height="1364"/>
  </clipPath>
</defs>
<polyline clip-path="url(#clip872)" style="stroke:#222255; stroke-width:4; stroke-opacity:0.1; fill:none" stroke-dasharray="16, 10" points="
  506.528,1410.22 506.528,47.2441 
  "/>
<polyline clip-path="url(#clip872)" style="stroke:#222255; stroke-width:4; stroke-opacity:0.1; fill:none" stroke-dasharray="16, 10" points="
  953.016,1410.22 953.016,47.2441 
  "/>
<polyline clip-path="url(#clip872)" style="stroke:#222255; stroke-width:4; stroke-opacity:0.1; fill:none" stroke-dasharray="16, 10" points="
  1399.5,1410.22 1399.5,47.2441 
  "/>
<polyline clip-path="url(#clip872)" style="stroke:#222255; stroke-width:4; stroke-opacity:0.1; fill:none" stroke-dasharray="16, 10" points="
  1845.99,1410.22 1845.99,47.2441 
  "/>
<polyline clip-path="url(#clip872)" style="stroke:#222255; stroke-width:4; stroke-opacity:0.1; fill:none" stroke-dasharray="16, 10" points="
  2292.48,1410.22 2292.48,47.2441 
  "/>
<polyline clip-path="url(#clip872)" style="stroke:#222255; stroke-width:2; stroke-opacity:0.05; fill:none" points="
  238.636,1410.22 238.636,47.2441 
  "/>
<polyline clip-path="url(#clip872)" style="stroke:#222255; stroke-width:2; stroke-opacity:0.05; fill:none" points="
  327.933,1410.22 327.933,47.2441 
  "/>
<polyline clip-path="url(#clip872)" style="stroke:#222255; stroke-width:2; stroke-opacity:0.05; fill:none" points="
  417.231,1410.22 417.231,47.2441 
  "/>
<polyline clip-path="url(#clip872)" style="stroke:#222255; stroke-width:2; stroke-opacity:0.05; fill:none" points="
  595.826,1410.22 595.826,47.2441 
  "/>
<polyline clip-path="url(#clip872)" style="stroke:#222255; stroke-width:2; stroke-opacity:0.05; fill:none" points="
  685.123,1410.22 685.123,47.2441 
  "/>
<polyline clip-path="url(#clip872)" style="stroke:#222255; stroke-width:2; stroke-opacity:0.05; fill:none" points="
  774.421,1410.22 774.421,47.2441 
  "/>
<polyline clip-path="url(#clip872)" style="stroke:#222255; stroke-width:2; stroke-opacity:0.05; fill:none" points="
  863.719,1410.22 863.719,47.2441 
  "/>
<polyline clip-path="url(#clip872)" style="stroke:#222255; stroke-width:2; stroke-opacity:0.05; fill:none" points="
  1042.31,1410.22 1042.31,47.2441 
  "/>
<polyline clip-path="url(#clip872)" style="stroke:#222255; stroke-width:2; stroke-opacity:0.05; fill:none" points="
  1131.61,1410.22 1131.61,47.2441 
  "/>
<polyline clip-path="url(#clip872)" style="stroke:#222255; stroke-width:2; stroke-opacity:0.05; fill:none" points="
  1220.91,1410.22 1220.91,47.2441 
  "/>
<polyline clip-path="url(#clip872)" style="stroke:#222255; stroke-width:2; stroke-opacity:0.05; fill:none" points="
  1310.21,1410.22 1310.21,47.2441 
  "/>
<polyline clip-path="url(#clip872)" style="stroke:#222255; stroke-width:2; stroke-opacity:0.05; fill:none" points="
  1488.8,1410.22 1488.8,47.2441 
  "/>
<polyline clip-path="url(#clip872)" style="stroke:#222255; stroke-width:2; stroke-opacity:0.05; fill:none" points="
  1578.1,1410.22 1578.1,47.2441 
  "/>
<polyline clip-path="url(#clip872)" style="stroke:#222255; stroke-width:2; stroke-opacity:0.05; fill:none" points="
  1667.4,1410.22 1667.4,47.2441 
  "/>
<polyline clip-path="url(#clip872)" style="stroke:#222255; stroke-width:2; stroke-opacity:0.05; fill:none" points="
  1756.69,1410.22 1756.69,47.2441 
  "/>
<polyline clip-path="url(#clip872)" style="stroke:#222255; stroke-width:2; stroke-opacity:0.05; fill:none" points="
  1935.29,1410.22 1935.29,47.2441 
  "/>
<polyline clip-path="url(#clip872)" style="stroke:#222255; stroke-width:2; stroke-opacity:0.05; fill:none" points="
  2024.59,1410.22 2024.59,47.2441 
  "/>
<polyline clip-path="url(#clip872)" style="stroke:#222255; stroke-width:2; stroke-opacity:0.05; fill:none" points="
  2113.88,1410.22 2113.88,47.2441 
  "/>
<polyline clip-path="url(#clip872)" style="stroke:#222255; stroke-width:2; stroke-opacity:0.05; fill:none" points="
  2203.18,1410.22 2203.18,47.2441 
  "/>
<polyline clip-path="url(#clip870)" style="stroke:#000000; stroke-width:4; stroke-opacity:1; fill:none" points="
  223.008,1410.22 2352.76,1410.22 
  "/>
<polyline clip-path="url(#clip870)" style="stroke:#000000; stroke-width:4; stroke-opacity:1; fill:none" points="
  223.008,47.2441 2352.76,47.2441 
  "/>
<polyline clip-path="url(#clip870)" style="stroke:#000000; stroke-width:4; stroke-opacity:1; fill:none" points="
  506.528,1410.22 506.528,1393.86 
  "/>
<polyline clip-path="url(#clip870)" style="stroke:#000000; stroke-width:4; stroke-opacity:1; fill:none" points="
  953.016,1410.22 953.016,1393.86 
  "/>
<polyline clip-path="url(#clip870)" style="stroke:#000000; stroke-width:4; stroke-opacity:1; fill:none" points="
  1399.5,1410.22 1399.5,1393.86 
  "/>
<polyline clip-path="url(#clip870)" style="stroke:#000000; stroke-width:4; stroke-opacity:1; fill:none" points="
  1845.99,1410.22 1845.99,1393.86 
  "/>
<polyline clip-path="url(#clip870)" style="stroke:#000000; stroke-width:4; stroke-opacity:1; fill:none" points="
  2292.48,1410.22 2292.48,1393.86 
  "/>
<polyline clip-path="url(#clip870)" style="stroke:#000000; stroke-width:4; stroke-opacity:1; fill:none" points="
  238.636,1410.22 238.636,1402.04 
  "/>
<polyline clip-path="url(#clip870)" style="stroke:#000000; stroke-width:4; stroke-opacity:1; fill:none" points="
  327.933,1410.22 327.933,1402.04 
  "/>
<polyline clip-path="url(#clip870)" style="stroke:#000000; stroke-width:4; stroke-opacity:1; fill:none" points="
  417.231,1410.22 417.231,1402.04 
  "/>
<polyline clip-path="url(#clip870)" style="stroke:#000000; stroke-width:4; stroke-opacity:1; fill:none" points="
  595.826,1410.22 595.826,1402.04 
  "/>
<polyline clip-path="url(#clip870)" style="stroke:#000000; stroke-width:4; stroke-opacity:1; fill:none" points="
  685.123,1410.22 685.123,1402.04 
  "/>
<polyline clip-path="url(#clip870)" style="stroke:#000000; stroke-width:4; stroke-opacity:1; fill:none" points="
  774.421,1410.22 774.421,1402.04 
  "/>
<polyline clip-path="url(#clip870)" style="stroke:#000000; stroke-width:4; stroke-opacity:1; fill:none" points="
  863.719,1410.22 863.719,1402.04 
  "/>
<polyline clip-path="url(#clip870)" style="stroke:#000000; stroke-width:4; stroke-opacity:1; fill:none" points="
  1042.31,1410.22 1042.31,1402.04 
  "/>
<polyline clip-path="url(#clip870)" style="stroke:#000000; stroke-width:4; stroke-opacity:1; fill:none" points="
  1131.61,1410.22 1131.61,1402.04 
  "/>
<polyline clip-path="url(#clip870)" style="stroke:#000000; stroke-width:4; stroke-opacity:1; fill:none" points="
  1220.91,1410.22 1220.91,1402.04 
  "/>
<polyline clip-path="url(#clip870)" style="stroke:#000000; stroke-width:4; stroke-opacity:1; fill:none" points="
  1310.21,1410.22 1310.21,1402.04 
  "/>
<polyline clip-path="url(#clip870)" style="stroke:#000000; stroke-width:4; stroke-opacity:1; fill:none" points="
  1488.8,1410.22 1488.8,1402.04 
  "/>
<polyline clip-path="url(#clip870)" style="stroke:#000000; stroke-width:4; stroke-opacity:1; fill:none" points="
  1578.1,1410.22 1578.1,1402.04 
  "/>
<polyline clip-path="url(#clip870)" style="stroke:#000000; stroke-width:4; stroke-opacity:1; fill:none" points="
  1667.4,1410.22 1667.4,1402.04 
  "/>
<polyline clip-path="url(#clip870)" style="stroke:#000000; stroke-width:4; stroke-opacity:1; fill:none" points="
  1756.69,1410.22 1756.69,1402.04 
  "/>
<polyline clip-path="url(#clip870)" style="stroke:#000000; stroke-width:4; stroke-opacity:1; fill:none" points="
  1935.29,1410.22 1935.29,1402.04 
  "/>
<polyline clip-path="url(#clip870)" style="stroke:#000000; stroke-width:4; stroke-opacity:1; fill:none" points="
  2024.59,1410.22 2024.59,1402.04 
  "/>
<polyline clip-path="url(#clip870)" style="stroke:#000000; stroke-width:4; stroke-opacity:1; fill:none" points="
  2113.88,1410.22 2113.88,1402.04 
  "/>
<polyline clip-path="url(#clip870)" style="stroke:#000000; stroke-width:4; stroke-opacity:1; fill:none" points="
  2203.18,1410.22 2203.18,1402.04 
  "/>
<path clip-path="url(#clip870)" d="M 0 0 M493.899 1481.26 Q493.899 1480.12 493.991 1479.78 Q494.115 1479.44 494.609 1478.91 L506.744 1465.39 Q513.383 1457.92 513.383 1451.4 Q513.383 1447.17 511.16 1444.14 Q508.968 1441.12 504.923 1441.12 Q502.143 1441.12 499.797 1442.82 Q497.45 1444.51 496.369 1447.54 Q496.554 1447.48 497.203 1447.48 Q498.778 1447.48 499.642 1448.47 Q500.538 1449.45 500.538 1450.78 Q500.538 1452.48 499.426 1453.31 Q498.345 1454.12 497.265 1454.12 Q496.832 1454.12 496.246 1454.02 Q495.69 1453.93 494.794 1453.07 Q493.899 1452.17 493.899 1450.6 Q493.899 1446.18 497.234 1442.66 Q500.599 1439.14 505.725 1439.14 Q511.531 1439.14 515.329 1442.6 Q519.158 1446.03 519.158 1451.4 Q519.158 1453.28 518.571 1455.01 Q518.015 1456.71 517.243 1458.04 Q516.502 1459.37 514.464 1461.5 Q512.426 1463.63 510.79 1465.14 Q509.153 1466.65 505.478 1469.87 L498.778 1476.38 L510.172 1476.38 Q515.73 1476.38 516.163 1475.89 Q516.78 1474.99 517.552 1470.27 L519.158 1470.27 L517.367 1481.26 L493.899 1481.26 Z" fill="#808080" fill-rule="evenodd" fill-opacity="1" /><path clip-path="url(#clip870)" d="M 0 0 M938.997 1470.82 L938.997 1468.88 L958.42 1439.2 Q958.914 1438.43 959.686 1438.46 Q960.396 1438.46 960.551 1438.74 Q960.705 1439.02 960.705 1440.1 L960.705 1468.88 L967.035 1468.88 L967.035 1470.82 L960.705 1470.82 L960.705 1476.32 Q960.705 1478.14 961.446 1478.73 Q962.218 1479.31 965.491 1479.31 L966.819 1479.31 L966.819 1481.26 Q964.225 1481.07 958.235 1481.07 Q952.275 1481.07 949.681 1481.26 L949.681 1479.31 L951.009 1479.31 Q954.282 1479.31 955.054 1478.76 Q955.826 1478.17 955.826 1476.32 L955.826 1470.82 L938.997 1470.82 M940.788 1468.88 L956.197 1468.88 L956.197 1445.29 L940.788 1468.88 Z" fill="#808080" fill-rule="evenodd" fill-opacity="1" /><path clip-path="url(#clip870)" d="M 0 0 M1386.38 1461.28 Q1386.38 1451.34 1391.44 1445.25 Q1396.51 1439.14 1403.02 1439.14 Q1406.82 1439.14 1408.92 1441.09 Q1411.05 1443 1411.05 1445.96 Q1411.05 1447.6 1410.1 1448.31 Q1409.14 1449.02 1408.15 1449.02 Q1407.01 1449.02 1406.11 1448.25 Q1405.22 1447.48 1405.22 1446.09 Q1405.22 1443.25 1408.71 1443.25 Q1407.07 1440.72 1403.15 1440.72 Q1401.94 1440.72 1400.71 1441.09 Q1399.47 1441.43 1397.87 1442.6 Q1396.26 1443.77 1395.03 1445.63 Q1393.79 1447.48 1392.93 1450.97 Q1392.06 1454.46 1392.06 1459 L1392.06 1460.51 Q1394.66 1454.24 1399.97 1454.27 Q1405.28 1454.27 1408.95 1458.32 Q1412.63 1462.36 1412.63 1468.35 Q1412.63 1474.5 1408.8 1478.57 Q1404.97 1482.65 1399.6 1482.65 Q1397.19 1482.65 1395 1481.63 Q1392.83 1480.64 1390.8 1478.36 Q1388.79 1476.07 1387.58 1471.69 Q1386.38 1467.3 1386.38 1461.28 M1392.19 1466.96 Q1392.19 1473.17 1393.33 1476.13 Q1393.51 1476.63 1393.92 1477.31 Q1394.35 1477.99 1395.06 1478.88 Q1395.8 1479.75 1397 1480.33 Q1398.21 1480.89 1399.6 1480.89 Q1403.83 1480.89 1405.87 1476.78 Q1406.95 1474.5 1406.95 1468.29 Q1406.95 1461.96 1405.8 1459.64 Q1403.86 1455.72 1399.91 1455.72 Q1397.25 1455.72 1395.4 1457.54 Q1393.58 1459.37 1392.87 1461.81 Q1392.19 1464.25 1392.19 1466.96 Z" fill="#808080" fill-rule="evenodd" fill-opacity="1" /><path clip-path="url(#clip870)" d="M 0 0 M1832.87 1471.72 Q1832.87 1464.65 1841.98 1460.08 Q1838.06 1457.42 1837.35 1456.65 Q1834.57 1453.56 1834.57 1449.7 Q1834.57 1445.29 1837.9 1442.23 Q1841.27 1439.14 1846.02 1439.14 Q1850.56 1439.14 1853.99 1441.77 Q1857.42 1444.39 1857.42 1448.56 Q1857.42 1454.43 1849.76 1458.38 Q1854.82 1461.53 1856.03 1462.86 Q1859.12 1466.28 1859.12 1470.64 Q1859.12 1475.7 1855.22 1479.19 Q1851.33 1482.65 1845.96 1482.65 Q1840.71 1482.65 1836.79 1479.59 Q1832.87 1476.54 1832.87 1471.72 M1836.02 1471.72 Q1836.02 1475.64 1838.95 1478.26 Q1841.92 1480.89 1846.02 1480.89 Q1850.01 1480.89 1852.97 1478.6 Q1855.97 1476.32 1855.97 1472.92 Q1855.97 1471.59 1855.5 1470.45 Q1855.07 1469.31 1854.18 1468.41 Q1853.31 1467.49 1852.75 1467.09 Q1852.23 1466.65 1851.21 1465.94 L1843.43 1461.03 Q1836.02 1465.14 1836.02 1471.72 M1837.35 1447.23 Q1837.35 1450.26 1840.53 1452.36 L1848.37 1457.42 Q1854.64 1453.75 1854.64 1448.56 Q1854.64 1445.19 1852.08 1442.97 Q1849.51 1440.72 1845.96 1440.72 Q1842.47 1440.72 1839.91 1442.57 Q1837.35 1444.39 1837.35 1447.23 Z" fill="#808080" fill-rule="evenodd" fill-opacity="1" /><path clip-path="url(#clip870)" d="M 0 0 M2267.5 1445.16 L2267.5 1443.19 Q2275.1 1443.19 2279.02 1439.14 Q2280.1 1439.14 2280.28 1439.39 Q2280.47 1439.63 2280.47 1440.78 L2280.47 1476.26 Q2280.47 1478.14 2281.39 1478.73 Q2282.32 1479.31 2286.37 1479.31 L2288.37 1479.31 L2288.37 1481.26 Q2286.15 1481.07 2278.12 1481.07 Q2270.09 1481.07 2267.9 1481.26 L2267.9 1479.31 L2269.91 1479.31 Q2273.89 1479.31 2274.85 1478.76 Q2275.81 1478.17 2275.81 1476.26 L2275.81 1443.49 Q2272.5 1445.16 2267.5 1445.16 Z" fill="#808080" fill-rule="evenodd" fill-opacity="1" /><path clip-path="url(#clip870)" d="M 0 0 M2290.84 1461.03 Q2290.84 1451.74 2293.19 1446.68 Q2296.46 1439.14 2304.18 1439.14 Q2305.82 1439.14 2307.52 1439.6 Q2309.25 1440.04 2311.41 1441.73 Q2313.6 1443.43 2314.93 1446.21 Q2317.46 1451.58 2317.46 1461.03 Q2317.46 1470.27 2315.11 1475.3 Q2311.69 1482.65 2304.12 1482.65 Q2301.28 1482.65 2298.38 1481.2 Q2295.51 1479.75 2293.68 1476.26 Q2290.84 1471.04 2290.84 1461.03 M2296.09 1460.26 Q2296.09 1469.8 2296.77 1473.6 Q2297.54 1477.71 2299.64 1479.5 Q2301.77 1481.26 2304.12 1481.26 Q2306.65 1481.26 2308.75 1479.38 Q2310.88 1477.46 2311.53 1473.35 Q2312.24 1469.31 2312.21 1460.26 Q2312.21 1451.46 2311.59 1447.94 Q2310.76 1443.83 2308.54 1442.2 Q2306.34 1440.53 2304.12 1440.53 Q2303.29 1440.53 2302.39 1440.78 Q2301.53 1441.02 2300.26 1441.73 Q2299 1442.44 2298.01 1444.2 Q2297.05 1445.96 2296.59 1448.62 Q2296.09 1452.05 2296.09 1460.26 Z" fill="#808080" fill-rule="evenodd" fill-opacity="1" /><path clip-path="url(#clip870)" d="M 0 0 M1268.76 1573.23 L1268.76 1570.89 Q1274.69 1570.89 1278.47 1566.34 Q1278.47 1566.34 1285.58 1557.29 L1278.06 1547.51 Q1275.39 1544.1 1274.21 1543.51 Q1273.06 1542.88 1269.13 1542.88 L1269.13 1540.51 Q1272.24 1540.73 1276.32 1540.73 Q1278.58 1540.73 1284.55 1540.51 L1284.55 1542.88 Q1281.88 1543.03 1281.88 1544.77 Q1281.88 1545.36 1282.55 1546.14 L1288.48 1553.81 L1293.18 1547.88 Q1294.33 1546.51 1294.33 1545.21 Q1294.33 1543.1 1292.11 1542.88 L1292.11 1540.51 Q1295.07 1540.73 1299.41 1540.73 Q1302.67 1540.73 1305.63 1540.51 L1305.63 1542.88 Q1299.85 1543.03 1296.59 1546.81 Q1295.14 1548.4 1289.62 1555.4 L1299.78 1568.52 Q1301 1570.12 1302.37 1570.52 Q1303.74 1570.89 1307 1570.89 L1307 1573.23 Q1303.59 1573.01 1299.7 1573.01 Q1298.33 1573.01 1291.51 1573.23 L1291.51 1570.89 Q1292.88 1570.82 1293.55 1570.23 Q1294.26 1569.6 1294.26 1568.97 Q1294.26 1568.67 1292.66 1566.48 L1286.88 1558.89 Q1281.1 1565.71 1280.36 1567.3 Q1280.06 1567.97 1280.06 1568.52 Q1280.06 1570.56 1282.25 1570.89 L1282.25 1573.23 Q1276.8 1573.01 1275.06 1573.01 Q1271.73 1573.01 1268.76 1573.23 Z" fill="#000000" fill-rule="evenodd" fill-opacity="1" /><polyline clip-path="url(#clip872)" style="stroke:#222255; stroke-width:4; stroke-opacity:0.1; fill:none" stroke-dasharray="16, 10" points="
  223.008,1296.92 2352.76,1296.92 
  "/>
<polyline clip-path="url(#clip872)" style="stroke:#222255; stroke-width:4; stroke-opacity:0.1; fill:none" stroke-dasharray="16, 10" points="
  223.008,981.494 2352.76,981.494 
  "/>
<polyline clip-path="url(#clip872)" style="stroke:#222255; stroke-width:4; stroke-opacity:0.1; fill:none" stroke-dasharray="16, 10" points="
  223.008,666.066 2352.76,666.066 
  "/>
<polyline clip-path="url(#clip872)" style="stroke:#222255; stroke-width:4; stroke-opacity:0.1; fill:none" stroke-dasharray="16, 10" points="
  223.008,350.638 2352.76,350.638 
  "/>
<polyline clip-path="url(#clip872)" style="stroke:#222255; stroke-width:2; stroke-opacity:0.05; fill:none" points="
  223.008,1360.01 2352.76,1360.01 
  "/>
<polyline clip-path="url(#clip872)" style="stroke:#222255; stroke-width:2; stroke-opacity:0.05; fill:none" points="
  223.008,1233.84 2352.76,1233.84 
  "/>
<polyline clip-path="url(#clip872)" style="stroke:#222255; stroke-width:2; stroke-opacity:0.05; fill:none" points="
  223.008,1170.75 2352.76,1170.75 
  "/>
<polyline clip-path="url(#clip872)" style="stroke:#222255; stroke-width:2; stroke-opacity:0.05; fill:none" points="
  223.008,1107.66 2352.76,1107.66 
  "/>
<polyline clip-path="url(#clip872)" style="stroke:#222255; stroke-width:2; stroke-opacity:0.05; fill:none" points="
  223.008,1044.58 2352.76,1044.58 
  "/>
<polyline clip-path="url(#clip872)" style="stroke:#222255; stroke-width:2; stroke-opacity:0.05; fill:none" points="
  223.008,918.408 2352.76,918.408 
  "/>
<polyline clip-path="url(#clip872)" style="stroke:#222255; stroke-width:2; stroke-opacity:0.05; fill:none" points="
  223.008,855.323 2352.76,855.323 
  "/>
<polyline clip-path="url(#clip872)" style="stroke:#222255; stroke-width:2; stroke-opacity:0.05; fill:none" points="
  223.008,792.237 2352.76,792.237 
  "/>
<polyline clip-path="url(#clip872)" style="stroke:#222255; stroke-width:2; stroke-opacity:0.05; fill:none" points="
  223.008,729.151 2352.76,729.151 
  "/>
<polyline clip-path="url(#clip872)" style="stroke:#222255; stroke-width:2; stroke-opacity:0.05; fill:none" points="
  223.008,602.98 2352.76,602.98 
  "/>
<polyline clip-path="url(#clip872)" style="stroke:#222255; stroke-width:2; stroke-opacity:0.05; fill:none" points="
  223.008,539.895 2352.76,539.895 
  "/>
<polyline clip-path="url(#clip872)" style="stroke:#222255; stroke-width:2; stroke-opacity:0.05; fill:none" points="
  223.008,476.809 2352.76,476.809 
  "/>
<polyline clip-path="url(#clip872)" style="stroke:#222255; stroke-width:2; stroke-opacity:0.05; fill:none" points="
  223.008,413.724 2352.76,413.724 
  "/>
<polyline clip-path="url(#clip872)" style="stroke:#222255; stroke-width:2; stroke-opacity:0.05; fill:none" points="
  223.008,287.553 2352.76,287.553 
  "/>
<polyline clip-path="url(#clip872)" style="stroke:#222255; stroke-width:2; stroke-opacity:0.05; fill:none" points="
  223.008,224.467 2352.76,224.467 
  "/>
<polyline clip-path="url(#clip872)" style="stroke:#222255; stroke-width:2; stroke-opacity:0.05; fill:none" points="
  223.008,161.382 2352.76,161.382 
  "/>
<polyline clip-path="url(#clip872)" style="stroke:#222255; stroke-width:2; stroke-opacity:0.05; fill:none" points="
  223.008,98.2961 2352.76,98.2961 
  "/>
<polyline clip-path="url(#clip870)" style="stroke:#000000; stroke-width:4; stroke-opacity:1; fill:none" points="
  223.008,1410.22 223.008,47.2441 
  "/>
<polyline clip-path="url(#clip870)" style="stroke:#000000; stroke-width:4; stroke-opacity:1; fill:none" points="
  2352.76,1410.22 2352.76,47.2441 
  "/>
<polyline clip-path="url(#clip870)" style="stroke:#000000; stroke-width:4; stroke-opacity:1; fill:none" points="
  223.008,1296.92 248.565,1296.92 
  "/>
<polyline clip-path="url(#clip870)" style="stroke:#000000; stroke-width:4; stroke-opacity:1; fill:none" points="
  223.008,981.494 248.565,981.494 
  "/>
<polyline clip-path="url(#clip870)" style="stroke:#000000; stroke-width:4; stroke-opacity:1; fill:none" points="
  223.008,666.066 248.565,666.066 
  "/>
<polyline clip-path="url(#clip870)" style="stroke:#000000; stroke-width:4; stroke-opacity:1; fill:none" points="
  223.008,350.638 248.565,350.638 
  "/>
<polyline clip-path="url(#clip870)" style="stroke:#000000; stroke-width:4; stroke-opacity:1; fill:none" points="
  223.008,1360.01 235.787,1360.01 
  "/>
<polyline clip-path="url(#clip870)" style="stroke:#000000; stroke-width:4; stroke-opacity:1; fill:none" points="
  223.008,1233.84 235.787,1233.84 
  "/>
<polyline clip-path="url(#clip870)" style="stroke:#000000; stroke-width:4; stroke-opacity:1; fill:none" points="
  223.008,1170.75 235.787,1170.75 
  "/>
<polyline clip-path="url(#clip870)" style="stroke:#000000; stroke-width:4; stroke-opacity:1; fill:none" points="
  223.008,1107.66 235.787,1107.66 
  "/>
<polyline clip-path="url(#clip870)" style="stroke:#000000; stroke-width:4; stroke-opacity:1; fill:none" points="
  223.008,1044.58 235.787,1044.58 
  "/>
<polyline clip-path="url(#clip870)" style="stroke:#000000; stroke-width:4; stroke-opacity:1; fill:none" points="
  223.008,918.408 235.787,918.408 
  "/>
<polyline clip-path="url(#clip870)" style="stroke:#000000; stroke-width:4; stroke-opacity:1; fill:none" points="
  223.008,855.323 235.787,855.323 
  "/>
<polyline clip-path="url(#clip870)" style="stroke:#000000; stroke-width:4; stroke-opacity:1; fill:none" points="
  223.008,792.237 235.787,792.237 
  "/>
<polyline clip-path="url(#clip870)" style="stroke:#000000; stroke-width:4; stroke-opacity:1; fill:none" points="
  223.008,729.151 235.787,729.151 
  "/>
<polyline clip-path="url(#clip870)" style="stroke:#000000; stroke-width:4; stroke-opacity:1; fill:none" points="
  223.008,602.98 235.787,602.98 
  "/>
<polyline clip-path="url(#clip870)" style="stroke:#000000; stroke-width:4; stroke-opacity:1; fill:none" points="
  223.008,539.895 235.787,539.895 
  "/>
<polyline clip-path="url(#clip870)" style="stroke:#000000; stroke-width:4; stroke-opacity:1; fill:none" points="
  223.008,476.809 235.787,476.809 
  "/>
<polyline clip-path="url(#clip870)" style="stroke:#000000; stroke-width:4; stroke-opacity:1; fill:none" points="
  223.008,413.724 235.787,413.724 
  "/>
<polyline clip-path="url(#clip870)" style="stroke:#000000; stroke-width:4; stroke-opacity:1; fill:none" points="
  223.008,287.553 235.787,287.553 
  "/>
<polyline clip-path="url(#clip870)" style="stroke:#000000; stroke-width:4; stroke-opacity:1; fill:none" points="
  223.008,224.467 235.787,224.467 
  "/>
<polyline clip-path="url(#clip870)" style="stroke:#000000; stroke-width:4; stroke-opacity:1; fill:none" points="
  223.008,161.382 235.787,161.382 
  "/>
<polyline clip-path="url(#clip870)" style="stroke:#000000; stroke-width:4; stroke-opacity:1; fill:none" points="
  223.008,98.2961 235.787,98.2961 
  "/>
<path clip-path="url(#clip870)" d="M 0 0 M119.97 1298.3 Q119.97 1289 122.317 1283.94 Q125.59 1276.4 133.31 1276.4 Q134.946 1276.4 136.644 1276.87 Q138.374 1277.3 140.535 1279 Q142.728 1280.69 144.055 1283.47 Q146.588 1288.85 146.588 1298.3 Q146.588 1307.53 144.241 1312.56 Q140.813 1319.91 133.248 1319.91 Q130.407 1319.91 127.504 1318.46 Q124.632 1317.01 122.811 1313.52 Q119.97 1308.3 119.97 1298.3 M125.219 1297.52 Q125.219 1307.07 125.899 1310.86 Q126.671 1314.97 128.77 1316.76 Q130.901 1318.52 133.248 1318.52 Q135.78 1318.52 137.88 1316.64 Q140.01 1314.72 140.659 1310.62 Q141.369 1306.57 141.338 1297.52 Q141.338 1288.72 140.721 1285.2 Q139.887 1281.1 137.664 1279.46 Q135.471 1277.79 133.248 1277.79 Q132.414 1277.79 131.519 1278.04 Q130.654 1278.29 129.388 1279 Q128.122 1279.71 127.134 1281.47 Q126.176 1283.23 125.713 1285.88 Q125.219 1289.31 125.219 1297.52 Z" fill="#808080" fill-rule="evenodd" fill-opacity="1" /><path clip-path="url(#clip870)" d="M 0 0 M152.918 1317.5 Q151.961 1316.48 151.961 1315.16 Q151.961 1313.83 152.918 1312.87 Q153.875 1311.88 155.326 1311.88 Q156.716 1311.88 157.642 1312.81 Q158.6 1313.7 158.6 1315.19 Q158.6 1316.64 157.581 1317.59 Q156.592 1318.52 155.326 1318.52 Q153.875 1318.52 152.918 1317.5 Z" fill="#808080" fill-rule="evenodd" fill-opacity="1" /><path clip-path="url(#clip870)" d="M 0 0 M161.749 1318.52 Q161.749 1317.38 161.842 1317.04 Q161.965 1316.7 162.459 1316.17 L174.595 1302.65 Q181.234 1295.18 181.234 1288.66 Q181.234 1284.43 179.011 1281.4 Q176.818 1278.38 172.773 1278.38 Q169.994 1278.38 167.647 1280.08 Q165.3 1281.77 164.22 1284.8 Q164.405 1284.74 165.053 1284.74 Q166.628 1284.74 167.493 1285.73 Q168.388 1286.72 168.388 1288.04 Q168.388 1289.74 167.277 1290.58 Q166.196 1291.38 165.115 1291.38 Q164.683 1291.38 164.096 1291.29 Q163.54 1291.19 162.645 1290.33 Q161.749 1289.43 161.749 1287.86 Q161.749 1283.44 165.084 1279.92 Q168.45 1276.4 173.576 1276.4 Q179.381 1276.4 183.179 1279.86 Q187.008 1283.29 187.008 1288.66 Q187.008 1290.54 186.422 1292.27 Q185.866 1293.97 185.094 1295.3 Q184.353 1296.63 182.315 1298.76 Q180.277 1300.89 178.64 1302.4 Q177.004 1303.92 173.329 1307.13 L166.628 1313.64 L178.023 1313.64 Q183.581 1313.64 184.013 1313.15 Q184.631 1312.25 185.403 1307.53 L187.008 1307.53 L185.217 1318.52 L161.749 1318.52 Z" fill="#808080" fill-rule="evenodd" fill-opacity="1" /><path clip-path="url(#clip870)" d="M 0 0 M118.58 982.868 Q118.58 973.573 120.927 968.509 Q124.2 960.974 131.92 960.974 Q133.557 960.974 135.255 961.438 Q136.984 961.87 139.146 963.568 Q141.338 965.267 142.666 968.046 Q145.198 973.419 145.198 982.868 Q145.198 992.101 142.851 997.134 Q139.424 1004.48 131.858 1004.48 Q129.017 1004.48 126.115 1003.03 Q123.243 1001.58 121.421 998.091 Q118.58 992.873 118.58 982.868 M123.83 982.096 Q123.83 991.637 124.509 995.436 Q125.281 999.542 127.381 1001.33 Q129.511 1003.09 131.858 1003.09 Q134.39 1003.09 136.49 1001.21 Q138.621 999.295 139.269 995.188 Q139.979 991.143 139.949 982.096 Q139.949 973.295 139.331 969.775 Q138.497 965.668 136.274 964.031 Q134.082 962.364 131.858 962.364 Q131.024 962.364 130.129 962.611 Q129.264 962.858 127.998 963.568 Q126.732 964.278 125.744 966.039 Q124.787 967.799 124.324 970.454 Q123.83 973.882 123.83 982.096 Z" fill="#808080" fill-rule="evenodd" fill-opacity="1" /><path clip-path="url(#clip870)" d="M 0 0 M151.528 1002.07 Q150.571 1001.06 150.571 999.728 Q150.571 998.4 151.528 997.443 Q152.486 996.455 153.937 996.455 Q155.326 996.455 156.253 997.381 Q157.21 998.276 157.21 999.759 Q157.21 1001.21 156.191 1002.17 Q155.203 1003.09 153.937 1003.09 Q152.486 1003.09 151.528 1002.07 Z" fill="#808080" fill-rule="evenodd" fill-opacity="1" /><path clip-path="url(#clip870)" d="M 0 0 M158.97 992.656 L158.97 990.711 L178.393 961.036 Q178.887 960.264 179.659 960.295 Q180.369 960.295 180.524 960.573 Q180.678 960.851 180.678 961.932 L180.678 990.711 L187.008 990.711 L187.008 992.656 L180.678 992.656 L180.678 998.153 Q180.678 999.975 181.419 1000.56 Q182.191 1001.15 185.465 1001.15 L186.792 1001.15 L186.792 1003.09 Q184.198 1002.91 178.208 1002.91 Q172.248 1002.91 169.654 1003.09 L169.654 1001.15 L170.982 1001.15 Q174.255 1001.15 175.027 1000.59 Q175.799 1000.01 175.799 998.153 L175.799 992.656 L158.97 992.656 M160.761 990.711 L176.17 990.711 L176.17 967.119 L160.761 990.711 Z" fill="#808080" fill-rule="evenodd" fill-opacity="1" /><path clip-path="url(#clip870)" d="M 0 0 M119.476 667.44 Q119.476 658.145 121.822 653.081 Q125.096 645.547 132.815 645.547 Q134.452 645.547 136.15 646.01 Q137.88 646.442 140.041 648.141 Q142.234 649.839 143.561 652.618 Q146.094 657.991 146.094 667.44 Q146.094 676.673 143.747 681.706 Q140.319 689.055 132.754 689.055 Q129.913 689.055 127.01 687.604 Q124.138 686.153 122.317 682.663 Q119.476 677.445 119.476 667.44 M124.725 666.668 Q124.725 676.21 125.404 680.008 Q126.176 684.115 128.276 685.906 Q130.407 687.666 132.754 687.666 Q135.286 687.666 137.386 685.782 Q139.516 683.868 140.165 679.761 Q140.875 675.716 140.844 666.668 Q140.844 657.867 140.226 654.347 Q139.393 650.24 137.169 648.604 Q134.977 646.936 132.754 646.936 Q131.92 646.936 131.024 647.183 Q130.16 647.43 128.894 648.141 Q127.628 648.851 126.64 650.611 Q125.682 652.371 125.219 655.027 Q124.725 658.454 124.725 666.668 Z" fill="#808080" fill-rule="evenodd" fill-opacity="1" /><path clip-path="url(#clip870)" d="M 0 0 M152.424 686.647 Q151.467 685.628 151.467 684.3 Q151.467 682.972 152.424 682.015 Q153.381 681.027 154.832 681.027 Q156.222 681.027 157.148 681.953 Q158.106 682.849 158.106 684.331 Q158.106 685.782 157.087 686.74 Q156.098 687.666 154.832 687.666 Q153.381 687.666 152.424 686.647 Z" fill="#808080" fill-rule="evenodd" fill-opacity="1" /><path clip-path="url(#clip870)" d="M 0 0 M160.761 667.687 Q160.761 657.744 165.825 651.661 Q170.89 645.547 177.405 645.547 Q181.203 645.547 183.303 647.492 Q185.434 649.407 185.434 652.371 Q185.434 654.008 184.476 654.718 Q183.519 655.428 182.531 655.428 Q181.388 655.428 180.493 654.656 Q179.597 653.884 179.597 652.495 Q179.597 649.654 183.087 649.654 Q181.45 647.122 177.529 647.122 Q176.324 647.122 175.089 647.492 Q173.854 647.832 172.248 649.005 Q170.642 650.179 169.407 652.031 Q168.172 653.884 167.308 657.373 Q166.443 660.863 166.443 665.402 L166.443 666.915 Q169.037 660.647 174.348 660.677 Q179.659 660.677 183.334 664.723 Q187.008 668.768 187.008 674.758 Q187.008 680.903 183.179 684.979 Q179.35 689.055 173.977 689.055 Q171.569 689.055 169.376 688.036 Q167.215 687.048 165.177 684.763 Q163.17 682.478 161.965 678.093 Q160.761 673.709 160.761 667.687 M166.566 673.369 Q166.566 679.576 167.709 682.54 Q167.894 683.034 168.296 683.713 Q168.728 684.393 169.438 685.288 Q170.179 686.153 171.384 686.74 Q172.588 687.295 173.977 687.295 Q178.208 687.295 180.246 683.188 Q181.327 680.903 181.327 674.697 Q181.327 668.366 180.184 666.05 Q178.239 662.129 174.286 662.129 Q171.631 662.129 169.778 663.951 Q167.956 665.773 167.246 668.212 Q166.566 670.651 166.566 673.369 Z" fill="#808080" fill-rule="evenodd" fill-opacity="1" /><path clip-path="url(#clip870)" d="M 0 0 M119.476 352.012 Q119.476 342.718 121.822 337.654 Q125.096 330.119 132.815 330.119 Q134.452 330.119 136.15 330.582 Q137.88 331.015 140.041 332.713 Q142.234 334.411 143.561 337.19 Q146.094 342.563 146.094 352.012 Q146.094 361.245 143.747 366.279 Q140.319 373.628 132.754 373.628 Q129.913 373.628 127.01 372.177 Q124.138 370.725 122.317 367.236 Q119.476 362.017 119.476 352.012 M124.725 351.24 Q124.725 360.782 125.404 364.58 Q126.176 368.687 128.276 370.478 Q130.407 372.238 132.754 372.238 Q135.286 372.238 137.386 370.355 Q139.516 368.44 140.165 364.333 Q140.875 360.288 140.844 351.24 Q140.844 342.44 140.226 338.92 Q139.393 334.813 137.169 333.176 Q134.977 331.509 132.754 331.509 Q131.92 331.509 131.024 331.756 Q130.16 332.003 128.894 332.713 Q127.628 333.423 126.64 335.183 Q125.682 336.943 125.219 339.599 Q124.725 343.027 124.725 351.24 Z" fill="#808080" fill-rule="evenodd" fill-opacity="1" /><path clip-path="url(#clip870)" d="M 0 0 M152.424 371.219 Q151.467 370.2 151.467 368.872 Q151.467 367.545 152.424 366.587 Q153.381 365.599 154.832 365.599 Q156.222 365.599 157.148 366.526 Q158.106 367.421 158.106 368.903 Q158.106 370.355 157.087 371.312 Q156.098 372.238 154.832 372.238 Q153.381 372.238 152.424 371.219 Z" fill="#808080" fill-rule="evenodd" fill-opacity="1" /><path clip-path="url(#clip870)" d="M 0 0 M160.761 362.697 Q160.761 355.625 169.871 351.055 Q165.949 348.4 165.239 347.628 Q162.459 344.54 162.459 340.68 Q162.459 336.264 165.794 333.207 Q169.16 330.119 173.916 330.119 Q178.455 330.119 181.883 332.744 Q185.31 335.369 185.31 339.537 Q185.31 345.404 177.652 349.357 Q182.716 352.506 183.921 353.834 Q187.008 357.262 187.008 361.616 Q187.008 366.68 183.118 370.169 Q179.227 373.628 173.854 373.628 Q168.604 373.628 164.683 370.571 Q160.761 367.514 160.761 362.697 M163.911 362.697 Q163.911 366.618 166.844 369.243 Q169.809 371.868 173.916 371.868 Q177.899 371.868 180.864 369.583 Q183.859 367.298 183.859 363.901 Q183.859 362.573 183.396 361.431 Q182.963 360.288 182.068 359.393 Q181.203 358.466 180.647 358.065 Q180.122 357.632 179.103 356.922 L171.322 352.012 Q163.911 356.119 163.911 362.697 M165.239 338.209 Q165.239 341.236 168.419 343.335 L176.263 348.4 Q182.531 344.725 182.531 339.537 Q182.531 336.171 179.968 333.948 Q177.405 331.694 173.854 331.694 Q170.365 331.694 167.802 333.547 Q165.239 335.369 165.239 338.209 Z" fill="#808080" fill-rule="evenodd" fill-opacity="1" /><path clip-path="url(#clip870)" d="M 0 0 M67.0282 747.852 L64.6937 747.852 Q64.6937 741.924 60.1359 738.144 Q60.1359 738.144 51.0945 731.029 L41.312 738.552 Q37.9029 741.22 37.31 742.405 Q36.6801 743.554 36.6801 747.482 L34.3086 747.482 Q34.5309 744.369 34.5309 740.293 Q34.5309 738.033 34.3086 732.067 L36.6801 732.067 Q36.8283 734.735 38.5699 734.735 Q39.1628 734.735 39.9409 734.068 L47.6113 728.139 L41.6825 723.433 Q40.3115 722.284 39.0145 722.284 Q36.9024 722.284 36.6801 724.508 L34.3086 724.508 Q34.5309 721.543 34.5309 717.208 Q34.5309 713.947 34.3086 710.983 L36.6801 710.983 Q36.8283 716.763 40.6079 720.024 Q42.2013 721.469 49.2047 726.99 L62.3222 716.837 Q63.9155 715.614 64.3231 714.243 Q64.6937 712.872 64.6937 709.612 L67.0282 709.612 Q66.8058 713.021 66.8058 716.911 Q66.8058 718.282 67.0282 725.101 L64.6937 725.101 Q64.6196 723.73 64.0267 723.063 Q63.3968 722.359 62.7668 722.359 Q62.4704 722.359 60.2841 723.952 L52.6879 729.732 Q59.506 735.513 61.0994 736.254 Q61.7663 736.551 62.3222 736.551 Q64.3602 736.551 64.6937 734.364 L67.0282 734.364 Q66.8058 739.811 66.8058 741.553 Q66.8058 744.888 67.0282 747.852 Z" fill="#000000" fill-rule="evenodd" fill-opacity="1" /><polyline clip-path="url(#clip872)" style="stroke:#4477aa; stroke-width:4.8; stroke-opacity:1; fill:none" points="
  283.284,683.004 506.528,198.462 729.772,1371.65 953.016,85.8189 1176.26,916.985 1399.5,591.396 1622.75,303.343 1845.99,320.835 2069.24,704.807 2292.48,203.932 
  
  "/>
<path clip-path="url(#clip870)" d="
M1976.24 274.117 L2281.76 274.117 L2281.76 92.6766 L1976.24 92.6766  Z
  " fill="#ffffff" fill-rule="evenodd" fill-opacity="0.9"/>
<polyline clip-path="url(#clip870)" style="stroke:#222255; stroke-width:4; stroke-opacity:0.1; fill:none" points="
  1976.24,274.117 2281.76,274.117 2281.76,92.6766 1976.24,92.6766 1976.24,274.117 
  "/>
<polyline clip-path="url(#clip870)" style="stroke:#4477aa; stroke-width:6; stroke-opacity:1; fill:none" points="
  1999.9,183.397 2141.89,183.397 
  "/>
<path clip-path="url(#clip870)" d="M 0 0 M2165.55 218.729 Q2165.55 217.135 2166.48 216.283 Q2167.44 215.468 2168.74 215.468 Q2170.11 215.468 2171 216.32 Q2171.92 217.209 2171.92 218.654 Q2171.92 221.471 2168.96 221.841 Q2170.41 223.212 2172.52 223.212 Q2174.78 223.212 2176.59 221.545 Q2178.45 219.877 2179.22 218.284 Q2180.04 216.691 2181.19 213.8 Q2182.26 211.54 2183.08 209.317 L2171.7 181.599 Q2170.96 179.784 2169.81 179.376 Q2168.66 178.969 2165.55 178.969 L2165.55 176.597 Q2168.96 176.819 2172.93 176.819 Q2175.26 176.819 2181.19 176.597 L2181.19 178.969 Q2176.93 178.969 2176.93 180.932 Q2176.93 181.155 2177.37 182.303 L2185.82 202.721 L2193.49 184.045 Q2193.94 182.97 2193.94 182.229 Q2193.94 179.117 2190.38 178.969 L2190.38 176.597 Q2195.38 176.819 2196.97 176.819 Q2200.09 176.819 2202.64 176.597 L2202.64 178.969 Q2197.57 178.969 2195.6 183.823 L2182.23 216.209 Q2178.59 224.843 2172.52 224.88 Q2169.63 224.88 2167.59 223.101 Q2165.55 221.322 2165.55 218.729 Z" fill="#000000" fill-rule="evenodd" fill-opacity="1" /><path clip-path="url(#clip870)" d="M 0 0 M2209.39 165.999 L2209.39 163.628 Q2218.5 163.628 2223.21 158.774 Q2224.51 158.774 2224.73 159.07 Q2224.95 159.366 2224.95 160.737 L2224.95 203.314 Q2224.95 205.574 2226.06 206.278 Q2227.17 206.982 2232.03 206.982 L2234.44 206.982 L2234.44 209.317 Q2231.77 209.094 2222.13 209.094 Q2212.5 209.094 2209.87 209.317 L2209.87 206.982 L2212.28 206.982 Q2217.06 206.982 2218.21 206.315 Q2219.36 205.611 2219.36 203.314 L2219.36 163.998 Q2215.39 165.999 2209.39 165.999 Z" fill="#000000" fill-rule="evenodd" fill-opacity="1" /></svg>
