<?xml version="1.0" encoding="utf-8"?>
<svg xmlns="http://www.w3.org/2000/svg" xmlns:xlink="http://www.w3.org/1999/xlink" width="600" height="400" viewBox="0 0 2400 1600">
<defs>
  <clipPath id="clip900">
    <rect x="0" y="0" width="2400" height="1600"/>
  </clipPath>
</defs>
<path clip-path="url(#clip900)" d="
M0 1600 L2400 1600 L2400 0 L0 0  Z
  " fill="#ffffff" fill-rule="evenodd" fill-opacity="1"/>
<defs>
  <clipPath id="clip901">
    <rect x="480" y="0" width="1681" height="1600"/>
  </clipPath>
</defs>
<path clip-path="url(#clip900)" d="
M223.008 1410.22 L2352.76 1410.22 L2352.76 47.2441 L223.008 47.2441  Z
  " fill="#ffffff" fill-rule="evenodd" fill-opacity="1"/>
<defs>
  <clipPath id="clip902">
    <rect x="223" y="47" width="2131" height="1364"/>
  </clipPath>
</defs>
<polyline clip-path="url(#clip902)" style="stroke:#222255; stroke-width:4; stroke-opacity:0.1; fill:none" stroke-dasharray="16, 10" points="
  506.528,1410.22 506.528,47.2441 
  "/>
<polyline clip-path="url(#clip902)" style="stroke:#222255; stroke-width:4; stroke-opacity:0.1; fill:none" stroke-dasharray="16, 10" points="
  953.016,1410.22 953.016,47.2441 
  "/>
<polyline clip-path="url(#clip902)" style="stroke:#222255; stroke-width:4; stroke-opacity:0.1; fill:none" stroke-dasharray="16, 10" points="
  1399.5,1410.22 1399.5,47.2441 
  "/>
<polyline clip-path="url(#clip902)" style="stroke:#222255; stroke-width:4; stroke-opacity:0.1; fill:none" stroke-dasharray="16, 10" points="
  1845.99,1410.22 1845.99,47.2441 
  "/>
<polyline clip-path="url(#clip902)" style="stroke:#222255; stroke-width:4; stroke-opacity:0.1; fill:none" stroke-dasharray="16, 10" points="
  2292.48,1410.22 2292.48,47.2441 
  "/>
<polyline clip-path="url(#clip902)" style="stroke:#222255; stroke-width:2; stroke-opacity:0.05; fill:none" points="
  238.636,1410.22 238.636,47.2441 
  "/>
<polyline clip-path="url(#clip902)" style="stroke:#222255; stroke-width:2; stroke-opacity:0.05; fill:none" points="
  327.933,1410.22 327.933,47.2441 
  "/>
<polyline clip-path="url(#clip902)" style="stroke:#222255; stroke-width:2; stroke-opacity:0.05; fill:none" points="
  417.231,1410.22 417.231,47.2441 
  "/>
<polyline clip-path="url(#clip902)" style="stroke:#222255; stroke-width:2; stroke-opacity:0.05; fill:none" points="
  595.826,1410.22 595.826,47.2441 
  "/>
<polyline clip-path="url(#clip902)" style="stroke:#222255; stroke-width:2; stroke-opacity:0.05; fill:none" points="
  685.123,1410.22 685.123,47.2441 
  "/>
<polyline clip-path="url(#clip902)" style="stroke:#222255; stroke-width:2; stroke-opacity:0.05; fill:none" points="
  774.421,1410.22 774.421,47.2441 
  "/>
<polyline clip-path="url(#clip902)" style="stroke:#222255; stroke-width:2; stroke-opacity:0.05; fill:none" points="
  863.719,1410.22 863.719,47.2441 
  "/>
<polyline clip-path="url(#clip902)" style="stroke:#222255; stroke-width:2; stroke-opacity:0.05; fill:none" points="
  1042.31,1410.22 1042.31,47.2441 
  "/>
<polyline clip-path="url(#clip902)" style="stroke:#222255; stroke-width:2; stroke-opacity:0.05; fill:none" points="
  1131.61,1410.22 1131.61,47.2441 
  "/>
<polyline clip-path="url(#clip902)" style="stroke:#222255; stroke-width:2; stroke-opacity:0.05; fill:none" points="
  1220.91,1410.22 1220.91,47.2441 
  "/>
<polyline clip-path="url(#clip902)" style="stroke:#222255; stroke-width:2; stroke-opacity:0.05; fill:none" points="
  1310.21,1410.22 1310.21,47.2441 
  "/>
<polyline clip-path="url(#clip902)" style="stroke:#222255; stroke-width:2; stroke-opacity:0.05; fill:none" points="
  1488.8,1410.22 1488.8,47.2441 
  "/>
<polyline clip-path="url(#clip902)" style="stroke:#222255; stroke-width:2; stroke-opacity:0.05; fill:none" points="
  1578.1,1410.22 1578.1,47.2441 
  "/>
<polyline clip-path="url(#clip902)" style="stroke:#222255; stroke-width:2; stroke-opacity:0.05; fill:none" points="
  1667.4,1410.22 1667.4,47.2441 
  "/>
<polyline clip-path="url(#clip902)" style="stroke:#222255; stroke-width:2; stroke-opacity:0.05; fill:none" points="
  1756.69,1410.22 1756.69,47.2441 
  "/>
<polyline clip-path="url(#clip902)" style="stroke:#222255; stroke-width:2; stroke-opacity:0.05; fill:none" points="
  1935.29,1410.22 1935.29,47.2441 
  "/>
<polyline clip-path="url(#clip902)" style="stroke:#222255; stroke-width:2; stroke-opacity:0.05; fill:none" points="
  2024.59,1410.22 2024.59,47.2441 
  "/>
<polyline clip-path="url(#clip902)" style="stroke:#222255; stroke-width:2; stroke-opacity:0.05; fill:none" points="
  2113.88,1410.22 2113.88,47.2441 
  "/>
<polyline clip-path="url(#clip902)" style="stroke:#222255; stroke-width:2; stroke-opacity:0.05; fill:none" points="
  2203.18,1410.22 2203.18,47.2441 
  "/>
<polyline clip-path="url(#clip900)" style="stroke:#000000; stroke-width:4; stroke-opacity:1; fill:none" points="
  223.008,1410.22 2352.76,1410.22 
  "/>
<polyline clip-path="url(#clip900)" style="stroke:#000000; stroke-width:4; stroke-opacity:1; fill:none" points="
  223.008,47.2441 2352.76,47.2441 
  "/>
<polyline clip-path="url(#clip900)" style="stroke:#000000; stroke-width:4; stroke-opacity:1; fill:none" points="
  506.528,1410.22 506.528,1393.86 
  "/>
<polyline clip-path="url(#clip900)" style="stroke:#000000; stroke-width:4; stroke-opacity:1; fill:none" points="
  953.016,1410.22 953.016,1393.86 
  "/>
<polyline clip-path="url(#clip900)" style="stroke:#000000; stroke-width:4; stroke-opacity:1; fill:none" points="
  1399.5,1410.22 1399.5,1393.86 
  "/>
<polyline clip-path="url(#clip900)" style="stroke:#000000; stroke-width:4; stroke-opacity:1; fill:none" points="
  1845.99,1410.22 1845.99,1393.86 
  "/>
<polyline clip-path="url(#clip900)" style="stroke:#000000; stroke-width:4; stroke-opacity:1; fill:none" points="
  2292.48,1410.22 2292.48,1393.86 
  "/>
<polyline clip-path="url(#clip900)" style="stroke:#000000; stroke-width:4; stroke-opacity:1; fill:none" points="
  238.636,1410.22 238.636,1402.04 
  "/>
<polyline clip-path="url(#clip900)" style="stroke:#000000; stroke-width:4; stroke-opacity:1; fill:none" points="
  327.933,1410.22 327.933,1402.04 
  "/>
<polyline clip-path="url(#clip900)" style="stroke:#000000; stroke-width:4; stroke-opacity:1; fill:none" points="
  417.231,1410.22 417.231,1402.04 
  "/>
<polyline clip-path="url(#clip900)" style="stroke:#000000; stroke-width:4; stroke-opacity:1; fill:none" points="
  595.826,1410.22 595.826,1402.04 
  "/>
<polyline clip-path="url(#clip900)" style="stroke:#000000; stroke-width:4; stroke-opacity:1; fill:none" points="
  685.123,1410.22 685.123,1402.04 
  "/>
<polyline clip-path="url(#clip900)" style="stroke:#000000; stroke-width:4; stroke-opacity:1; fill:none" points="
  774.421,1410.22 774.421,1402.04 
  "/>
<polyline clip-path="url(#clip900)" style="stroke:#000000; stroke-width:4; stroke-opacity:1; fill:none" points="
  863.719,1410.22 863.719,1402.04 
  "/>
<polyline clip-path="url(#clip900)" style="stroke:#000000; stroke-width:4; stroke-opacity:1; fill:none" points="
  1042.31,1410.22 1042.31,1402.04 
  "/>
<polyline clip-path="url(#clip900)" style="stroke:#000000; stroke-width:4; stroke-opacity:1; fill:none" points="
  1131.61,1410.22 1131.61,1402.04 
  "/>
<polyline clip-path="url(#clip900)" style="stroke:#000000; stroke-width:4; stroke-opacity:1; fill:none" points="
  1220.91,1410.22 1220.91,1402.04 
  "/>
<polyline clip-path="url(#clip900)" style="stroke:#000000; stroke-width:4; stroke-opacity:1; fill:none" points="
  1310.21,1410.22 1310.21,1402.04 
  "/>
<polyline clip-path="url(#clip900)" style="stroke:#000000; stroke-width:4; stroke-opacity:1; fill:none" points="
  1488.8,1410.22 1488.8,1402.04 
  "/>
<polyline clip-path="url(#clip900)" style="stroke:#000000; stroke-width:4; stroke-opacity:1; fill:none" points="
  1578.1,1410.22 1578.1,1402.04 
  "/>
<polyline clip-path="url(#clip900)" style="stroke:#000000; stroke-width:4; stroke-opacity:1; fill:none" points="
  1667.4,1410.22 1667.4,1402.04 
  "/>
<polyline clip-path="url(#clip900)" style="stroke:#000000; stroke-width:4; stroke-opacity:1; fill:none" points="
  1756.69,1410.22 1756.69,1402.04 
  "/>
<polyline clip-path="url(#clip900)" style="stroke:#000000; stroke-width:4; stroke-opacity:1; fill:none" points="
  1935.29,1410.22 1935.29,1402.04 
  "/>
<polyline clip-path="url(#clip900)" style="stroke:#000000; stroke-width:4; stroke-opacity:1; fill:none" points="
  2024.59,1410.22 2024.59,1402.04 
  "/>
<polyline clip-path="url(#clip900)" style="stroke:#000000; stroke-width:4; stroke-opacity:1; fill:none" points="
  2113.88,1410.22 2113.88,1402.04 
  "/>
<polyline clip-path="url(#clip900)" style="stroke:#000000; stroke-width:4; stroke-opacity:1; fill:none" points="
  2203.18,1410.22 2203.18,1402.04 
  "/>
<path clip-path="url(#clip900)" d="M 0 0 M493.899 1481.26 Q493.899 1480.12 493.991 1479.78 Q494.115 1479.44 494.609 1478.91 L506.744 1465.39 Q513.383 1457.92 513.383 1451.4 Q513.383 1447.17 511.16 1444.14 Q508.968 1441.12 504.923 1441.12 Q502.143 1441.12 499.797 1442.82 Q497.45 1444.51 496.369 1447.54 Q496.554 1447.48 497.203 1447.48 Q498.778 1447.48 499.642 1448.47 Q500.538 1449.45 500.538 1450.78 Q500.538 1452.48 499.426 1453.31 Q498.345 1454.12 497.265 1454.12 Q496.832 1454.12 496.246 1454.02 Q495.69 1453.93 494.794 1453.07 Q493.899 1452.17 493.899 1450.6 Q493.899 1446.18 497.234 1442.66 Q500.599 1439.14 505.725 1439.14 Q511.531 1439.14 515.329 1442.6 Q519.158 1446.03 519.158 1451.4 Q519.158 1453.28 518.571 1455.01 Q518.015 1456.71 517.243 1458.04 Q516.502 1459.37 514.464 1461.5 Q512.426 1463.63 510.79 1465.14 Q509.153 1466.65 505.478 1469.87 L498.778 1476.38 L510.172 1476.38 Q515.73 1476.38 516.163 1475.89 Q516.78 1474.99 517.552 1470.27 L519.158 1470.27 L517.367 1481.26 L493.899 1481.26 Z" fill="#808080" fill-rule="evenodd" fill-opacity="1" /><path clip-path="url(#clip900)" d="M 0 0 M938.997 1470.82 L938.997 1468.88 L958.42 1439.2 Q958.914 1438.43 959.686 1438.46 Q960.396 1438.46 960.551 1438.74 Q960.705 1439.02 960.705 1440.1 L960.705 1468.88 L967.035 1468.88 L967.035 1470.82 L960.705 1470.82 L960.705 1476.32 Q960.705 1478.14 961.446 1478.73 Q962.218 1479.31 965.491 1479.31 L966.819 1479.31 L966.819 1481.26 Q964.225 1481.07 958.235 1481.07 Q952.275 1481.07 949.681 1481.26 L949.681 1479.31 L951.009 1479.31 Q954.282 1479.31 955.054 1478.76 Q955.826 1478.17 955.826 1476.32 L955.826 1470.82 L938.997 1470.82 M940.788 1468.88 L956.197 1468.88 L956.197 1445.29 L940.788 1468.88 Z" fill="#808080" fill-rule="evenodd" fill-opacity="1" /><path clip-path="url(#clip900)" d="M 0 0 M1386.38 1461.28 Q1386.38 1451.34 1391.44 1445.25 Q1396.51 1439.14 1403.02 1439.14 Q1406.82 1439.14 1408.92 1441.09 Q1411.05 1443 1411.05 1445.96 Q1411.05 1447.6 1410.1 1448.31 Q1409.14 1449.02 1408.15 1449.02 Q1407.01 1449.02 1406.11 1448.25 Q1405.22 1447.48 1405.22 1446.09 Q1405.22 1443.25 1408.71 1443.25 Q1407.07 1440.72 1403.15 1440.72 Q1401.94 1440.72 1400.71 1441.09 Q1399.47 1441.43 1397.87 1442.6 Q1396.26 1443.77 1395.03 1445.63 Q1393.79 1447.48 1392.93 1450.97 Q1392.06 1454.46 1392.06 1459 L1392.06 1460.51 Q1394.66 1454.24 1399.97 1454.27 Q1405.28 1454.27 1408.95 1458.32 Q1412.63 1462.36 1412.63 1468.35 Q1412.63 1474.5 1408.8 1478.57 Q1404.97 1482.65 1399.6 1482.65 Q1397.19 1482.65 1395 1481.63 Q1392.83 1480.64 1390.8 1478.36 Q1388.79 1476.07 1387.58 1471.69 Q1386.38 1467.3 1386.38 1461.28 M1392.19 1466.96 Q1392.19 1473.17 1393.33 1476.13 Q1393.51 1476.63 1393.92 1477.31 Q1394.35 1477.99 1395.06 1478.88 Q1395.8 1479.75 1397 1480.33 Q1398.21 1480.89 1399.6 1480.89 Q1403.83 1480.89 1405.87 1476.78 Q1406.95 1474.5 1406.95 1468.29 Q1406.95 1461.96 1405.8 1459.64 Q1403.86 1455.72 1399.91 1455.72 Q1397.25 1455.72 1395.4 1457.54 Q1393.58 1459.37 1392.87 1461.81 Q1392.19 1464.25 1392.19 1466.96 Z" fill="#808080" fill-rule="evenodd" fill-opacity="1" /><path clip-path="url(#clip900)" d="M 0 0 M1832.87 1471.72 Q1832.87 1464.65 1841.98 1460.08 Q1838.06 1457.42 1837.35 1456.65 Q1834.57 1453.56 1834.57 1449.7 Q1834.57 1445.29 1837.9 1442.23 Q1841.27 1439.14 1846.02 1439.14 Q1850.56 1439.14 1853.99 1441.77 Q1857.42 1444.39 1857.42 1448.56 Q1857.42 1454.43 1849.76 1458.38 Q1854.82 1461.53 1856.03 1462.86 Q1859.12 1466.28 1859.12 1470.64 Q1859.12 1475.7 1855.22 1479.19 Q1851.33 1482.65 1845.96 1482.65 Q1840.71 1482.65 1836.79 1479.59 Q1832.87 1476.54 1832.87 1471.72 M1836.02 1471.72 Q1836.02 1475.64 1838.95 1478.26 Q1841.92 1480.89 1846.02 1480.89 Q1850.01 1480.89 1852.97 1478.6 Q1855.97 1476.32 1855.97 1472.92 Q1855.97 1471.59 1855.5 1470.45 Q1855.07 1469.31 1854.18 1468.41 Q1853.31 1467.49 1852.75 1467.09 Q1852.23 1466.65 1851.21 1465.94 L1843.43 1461.03 Q1836.02 1465.14 1836.02 1471.72 M1837.35 1447.23 Q1837.35 1450.26 1840.53 1452.36 L1848.37 1457.42 Q1854.64 1453.75 1854.64 1448.56 Q1854.64 1445.19 1852.08 1442.97 Q1849.51 1440.72 1845.96 1440.72 Q1842.47 1440.72 1839.91 1442.57 Q1837.35 1444.39 1837.35 1447.23 Z" fill="#808080" fill-rule="evenodd" fill-opacity="1" /><path clip-path="url(#clip900)" d="M 0 0 M2267.5 1445.16 L2267.5 1443.19 Q2275.1 1443.19 2279.02 1439.14 Q2280.1 1439.14 2280.28 1439.39 Q2280.47 1439.63 2280.47 1440.78 L2280.47 1476.26 Q2280.47 1478.14 2281.39 1478.73 Q2282.32 1479.31 2286.37 1479.31 L2288.37 1479.31 L2288.37 1481.26 Q2286.15 1481.07 2278.12 1481.07 Q2270.09 1481.07 2267.9 1481.26 L2267.9 1479.31 L2269.91 1479.31 Q2273.89 1479.31 2274.85 1478.76 Q2275.81 1478.17 2275.81 1476.26 L2275.81 1443.49 Q2272.5 1445.16 2267.5 1445.16 Z" fill="#808080" fill-rule="evenodd" fill-opacity="1" /><path clip-path="url(#clip900)" d="M 0 0 M2290.84 1461.03 Q2290.84 1451.74 2293.19 1446.68 Q2296.46 1439.14 2304.18 1439.14 Q2305.82 1439.14 2307.52 1439.6 Q2309.25 1440.04 2311.41 1441.73 Q2313.6 1443.43 2314.93 1446.21 Q2317.46 1451.58 2317.46 1461.03 Q2317.46 1470.27 2315.11 1475.3 Q2311.69 1482.65 2304.12 1482.65 Q2301.28 1482.65 2298.38 1481.2 Q2295.51 1479.75 2293.68 1476.26 Q2290.84 1471.04 2290.84 1461.03 M2296.09 1460.26 Q2296.09 1469.8 2296.77 1473.6 Q2297.54 1477.71 2299.64 1479.5 Q2301.77 1481.26 2304.12 1481.26 Q2306.65 1481.26 2308.75 1479.38 Q2310.88 1477.46 2311.53 1473.35 Q2312.24 1469.31 2312.21 1460.26 Q2312.21 1451.46 2311.59 1447.94 Q2310.76 1443.83 2308.54 1442.2 Q2306.34 1440.53 2304.12 1440.53 Q2303.29 1440.53 2302.39 1440.78 Q2301.53 1441.02 2300.26 1441.73 Q2299 1442.44 2298.01 1444.2 Q2297.05 1445.96 2296.59 1448.62 Q2296.09 1452.05 2296.09 1460.26 Z" fill="#808080" fill-rule="evenodd" fill-opacity="1" /><path clip-path="url(#clip900)" d="M 0 0 M1268.76 1573.23 L1268.76 1570.89 Q1274.69 1570.89 1278.47 1566.34 Q1278.47 1566.34 1285.58 1557.29 L1278.06 1547.51 Q1275.39 1544.1 1274.21 1543.51 Q1273.06 1542.88 1269.13 1542.88 L1269.13 1540.51 Q1272.24 1540.73 1276.32 1540.73 Q1278.58 1540.73 1284.55 1540.51 L1284.55 1542.88 Q1281.88 1543.03 1281.88 1544.77 Q1281.88 1545.36 1282.55 1546.14 L1288.48 1553.81 L1293.18 1547.88 Q1294.33 1546.51 1294.33 1545.21 Q1294.33 1543.1 1292.11 1542.88 L1292.11 1540.51 Q1295.07 1540.73 1299.41 1540.73 Q1302.67 1540.73 1305.63 1540.51 L1305.63 1542.88 Q1299.85 1543.03 1296.59 1546.81 Q1295.14 1548.4 1289.62 1555.4 L1299.78 1568.52 Q1301 1570.12 1302.37 1570.52 Q1303.74 1570.89 1307 1570.89 L1307 1573.23 Q1303.59 1573.01 1299.7 1573.01 Q1298.33 1573.01 1291.51 1573.23 L1291.51 1570.89 Q1292.88 1570.82 1293.55 1570.23 Q1294.26 1569.6 1294.26 1568.97 Q1294.26 1568.67 1292.66 1566.48 L1286.88 1558.89 Q1281.1 1565.71 1280.36 1567.3 Q1280.06 1567.97 1280.06 1568.52 Q1280.06 1570.56 1282.25 1570.89 L1282.25 1573.23 Q1276.8 1573.01 1275.06 1573.01 Q1271.73 1573.01 1268.76 1573.23 Z" fill="#000000" fill-rule="evenodd" fill-opacity="1" /><polyline clip-path="url(#clip902)" style="stroke:#222255; stroke-width:4; stroke-opacity:0.1; fill:none" stroke-dasharray="16, 10" points="
  223.008,1374.63 2352.76,1374.63 
  "/>
<polyline clip-path="url(#clip902)" style="stroke:#222255; stroke-width:4; stroke-opacity:0.1; fill:none" stroke-dasharray="16, 10" points="
  223.008,1105.94 2352.76,1105.94 
  "/>
<polyline clip-path="url(#clip902)" style="stroke:#222255; stroke-width:4; stroke-opacity:0.1; fill:none" stroke-dasharray="16, 10" points="
  223.008,837.246 2352.76,837.246 
  "/>
<polyline clip-path="url(#clip902)" style="stroke:#222255; stroke-width:4; stroke-opacity:0.1; fill:none" stroke-dasharray="16, 10" points="
  223.008,568.555 2352.76,568.555 
  "/>
<polyline clip-path="url(#clip902)" style="stroke:#222255; stroke-width:4; stroke-opacity:0.1; fill:none" stroke-dasharray="16, 10" points="
  223.008,299.863 2352.76,299.863 
  "/>
<polyline clip-path="url(#clip902)" style="stroke:#222255; stroke-width:2; stroke-opacity:0.05; fill:none" points="
  223.008,1320.89 2352.76,1320.89 
  "/>
<polyline clip-path="url(#clip902)" style="stroke:#222255; stroke-width:2; stroke-opacity:0.05; fill:none" points="
  223.008,1267.15 2352.76,1267.15 
  "/>
<polyline clip-path="url(#clip902)" style="stroke:#222255; stroke-width:2; stroke-opacity:0.05; fill:none" points="
  223.008,1213.41 2352.76,1213.41 
  "/>
<polyline clip-path="url(#clip902)" style="stroke:#222255; stroke-width:2; stroke-opacity:0.05; fill:none" points="
  223.008,1159.68 2352.76,1159.68 
  "/>
<polyline clip-path="url(#clip902)" style="stroke:#222255; stroke-width:2; stroke-opacity:0.05; fill:none" points="
  223.008,1052.2 2352.76,1052.2 
  "/>
<polyline clip-path="url(#clip902)" style="stroke:#222255; stroke-width:2; stroke-opacity:0.05; fill:none" points="
  223.008,998.461 2352.76,998.461 
  "/>
<polyline clip-path="url(#clip902)" style="stroke:#222255; stroke-width:2; stroke-opacity:0.05; fill:none" points="
  223.008,944.723 2352.76,944.723 
  "/>
<polyline clip-path="url(#clip902)" style="stroke:#222255; stroke-width:2; stroke-opacity:0.05; fill:none" points="
  223.008,890.985 2352.76,890.985 
  "/>
<polyline clip-path="url(#clip902)" style="stroke:#222255; stroke-width:2; stroke-opacity:0.05; fill:none" points="
  223.008,783.508 2352.76,783.508 
  "/>
<polyline clip-path="url(#clip902)" style="stroke:#222255; stroke-width:2; stroke-opacity:0.05; fill:none" points="
  223.008,729.77 2352.76,729.77 
  "/>
<polyline clip-path="url(#clip902)" style="stroke:#222255; stroke-width:2; stroke-opacity:0.05; fill:none" points="
  223.008,676.032 2352.76,676.032 
  "/>
<polyline clip-path="url(#clip902)" style="stroke:#222255; stroke-width:2; stroke-opacity:0.05; fill:none" points="
  223.008,622.293 2352.76,622.293 
  "/>
<polyline clip-path="url(#clip902)" style="stroke:#222255; stroke-width:2; stroke-opacity:0.05; fill:none" points="
  223.008,514.817 2352.76,514.817 
  "/>
<polyline clip-path="url(#clip902)" style="stroke:#222255; stroke-width:2; stroke-opacity:0.05; fill:none" points="
  223.008,461.078 2352.76,461.078 
  "/>
<polyline clip-path="url(#clip902)" style="stroke:#222255; stroke-width:2; stroke-opacity:0.05; fill:none" points="
  223.008,407.34 2352.76,407.34 
  "/>
<polyline clip-path="url(#clip902)" style="stroke:#222255; stroke-width:2; stroke-opacity:0.05; fill:none" points="
  223.008,353.602 2352.76,353.602 
  "/>
<polyline clip-path="url(#clip902)" style="stroke:#222255; stroke-width:2; stroke-opacity:0.05; fill:none" points="
  223.008,246.125 2352.76,246.125 
  "/>
<polyline clip-path="url(#clip902)" style="stroke:#222255; stroke-width:2; stroke-opacity:0.05; fill:none" points="
  223.008,192.387 2352.76,192.387 
  "/>
<polyline clip-path="url(#clip902)" style="stroke:#222255; stroke-width:2; stroke-opacity:0.05; fill:none" points="
  223.008,138.649 2352.76,138.649 
  "/>
<polyline clip-path="url(#clip902)" style="stroke:#222255; stroke-width:2; stroke-opacity:0.05; fill:none" points="
  223.008,84.9103 2352.76,84.9103 
  "/>
<polyline clip-path="url(#clip900)" style="stroke:#000000; stroke-width:4; stroke-opacity:1; fill:none" points="
  223.008,1410.22 223.008,47.2441 
  "/>
<polyline clip-path="url(#clip900)" style="stroke:#000000; stroke-width:4; stroke-opacity:1; fill:none" points="
  2352.76,1410.22 2352.76,47.2441 
  "/>
<polyline clip-path="url(#clip900)" style="stroke:#000000; stroke-width:4; stroke-opacity:1; fill:none" points="
  223.008,1374.63 248.565,1374.63 
  "/>
<polyline clip-path="url(#clip900)" style="stroke:#000000; stroke-width:4; stroke-opacity:1; fill:none" points="
  223.008,1105.94 248.565,1105.94 
  "/>
<polyline clip-path="url(#clip900)" style="stroke:#000000; stroke-width:4; stroke-opacity:1; fill:none" points="
  223.008,837.246 248.565,837.246 
  "/>
<polyline clip-path="url(#clip900)" style="stroke:#000000; stroke-width:4; stroke-opacity:1; fill:none" points="
  223.008,568.555 248.565,568.555 
  "/>
<polyline clip-path="url(#clip900)" style="stroke:#000000; stroke-width:4; stroke-opacity:1; fill:none" points="
  223.008,299.863 248.565,299.863 
  "/>
<polyline clip-path="url(#clip900)" style="stroke:#000000; stroke-width:4; stroke-opacity:1; fill:none" points="
  223.008,1320.89 235.787,1320.89 
  "/>
<polyline clip-path="url(#clip900)" style="stroke:#000000; stroke-width:4; stroke-opacity:1; fill:none" points="
  223.008,1267.15 235.787,1267.15 
  "/>
<polyline clip-path="url(#clip900)" style="stroke:#000000; stroke-width:4; stroke-opacity:1; fill:none" points="
  223.008,1213.41 235.787,1213.41 
  "/>
<polyline clip-path="url(#clip900)" style="stroke:#000000; stroke-width:4; stroke-opacity:1; fill:none" points="
  223.008,1159.68 235.787,1159.68 
  "/>
<polyline clip-path="url(#clip900)" style="stroke:#000000; stroke-width:4; stroke-opacity:1; fill:none" points="
  223.008,1052.2 235.787,1052.2 
  "/>
<polyline clip-path="url(#clip900)" style="stroke:#000000; stroke-width:4; stroke-opacity:1; fill:none" points="
  223.008,998.461 235.787,998.461 
  "/>
<polyline clip-path="url(#clip900)" style="stroke:#000000; stroke-width:4; stroke-opacity:1; fill:none" points="
  223.008,944.723 235.787,944.723 
  "/>
<polyline clip-path="url(#clip900)" style="stroke:#000000; stroke-width:4; stroke-opacity:1; fill:none" points="
  223.008,890.985 235.787,890.985 
  "/>
<polyline clip-path="url(#clip900)" style="stroke:#000000; stroke-width:4; stroke-opacity:1; fill:none" points="
  223.008,783.508 235.787,783.508 
  "/>
<polyline clip-path="url(#clip900)" style="stroke:#000000; stroke-width:4; stroke-opacity:1; fill:none" points="
  223.008,729.77 235.787,729.77 
  "/>
<polyline clip-path="url(#clip900)" style="stroke:#000000; stroke-width:4; stroke-opacity:1; fill:none" points="
  223.008,676.032 235.787,676.032 
  "/>
<polyline clip-path="url(#clip900)" style="stroke:#000000; stroke-width:4; stroke-opacity:1; fill:none" points="
  223.008,622.293 235.787,622.293 
  "/>
<polyline clip-path="url(#clip900)" style="stroke:#000000; stroke-width:4; stroke-opacity:1; fill:none" points="
  223.008,514.817 235.787,514.817 
  "/>
<polyline clip-path="url(#clip900)" style="stroke:#000000; stroke-width:4; stroke-opacity:1; fill:none" points="
  223.008,461.078 235.787,461.078 
  "/>
<polyline clip-path="url(#clip900)" style="stroke:#000000; stroke-width:4; stroke-opacity:1; fill:none" points="
  223.008,407.34 235.787,407.34 
  "/>
<polyline clip-path="url(#clip900)" style="stroke:#000000; stroke-width:4; stroke-opacity:1; fill:none" points="
  223.008,353.602 235.787,353.602 
  "/>
<polyline clip-path="url(#clip900)" style="stroke:#000000; stroke-width:4; stroke-opacity:1; fill:none" points="
  223.008,246.125 235.787,246.125 
  "/>
<polyline clip-path="url(#clip900)" style="stroke:#000000; stroke-width:4; stroke-opacity:1; fill:none" points="
  223.008,192.387 235.787,192.387 
  "/>
<polyline clip-path="url(#clip900)" style="stroke:#000000; stroke-width:4; stroke-opacity:1; fill:none" points="
  223.008,138.649 235.787,138.649 
  "/>
<polyline clip-path="url(#clip900)" style="stroke:#000000; stroke-width:4; stroke-opacity:1; fill:none" points="
  223.008,84.9103 235.787,84.9103 
  "/>
<path clip-path="url(#clip900)" d="M 0 0 M119.29 1376 Q119.29 1366.71 121.637 1361.64 Q124.91 1354.11 132.63 1354.11 Q134.267 1354.11 135.965 1354.57 Q137.694 1355.01 139.856 1356.7 Q142.048 1358.4 143.376 1361.18 Q145.908 1366.55 145.908 1376 Q145.908 1385.24 143.561 1390.27 Q140.134 1397.62 132.568 1397.62 Q129.728 1397.62 126.825 1396.17 Q123.953 1394.72 122.131 1391.23 Q119.29 1386.01 119.29 1376 M124.54 1375.23 Q124.54 1384.77 125.219 1388.57 Q125.991 1392.68 128.091 1394.47 Q130.222 1396.23 132.568 1396.23 Q135.101 1396.23 137.2 1394.35 Q139.331 1392.43 139.979 1388.32 Q140.69 1384.28 140.659 1375.23 Q140.659 1366.43 140.041 1362.91 Q139.207 1358.8 136.984 1357.17 Q134.792 1355.5 132.568 1355.5 Q131.735 1355.5 130.839 1355.75 Q129.975 1355.99 128.709 1356.7 Q127.442 1357.41 126.454 1359.17 Q125.497 1360.93 125.034 1363.59 Q124.54 1367.02 124.54 1375.23 Z" fill="#808080" fill-rule="evenodd" fill-opacity="1" /><path clip-path="url(#clip900)" d="M 0 0 M152.238 1395.21 Q151.281 1394.19 151.281 1392.86 Q151.281 1391.54 152.238 1390.58 Q153.196 1389.59 154.647 1389.59 Q156.037 1389.59 156.963 1390.52 Q157.92 1391.41 157.92 1392.89 Q157.92 1394.35 156.901 1395.3 Q155.913 1396.23 154.647 1396.23 Q153.196 1396.23 152.238 1395.21 Z" fill="#808080" fill-rule="evenodd" fill-opacity="1" /><path clip-path="url(#clip900)" d="M 0 0 M160.391 1376 Q160.391 1366.71 162.737 1361.64 Q166.011 1354.11 173.73 1354.11 Q175.367 1354.11 177.065 1354.57 Q178.795 1355.01 180.956 1356.7 Q183.149 1358.4 184.476 1361.18 Q187.008 1366.55 187.008 1376 Q187.008 1385.24 184.662 1390.27 Q181.234 1397.62 173.669 1397.62 Q170.828 1397.62 167.925 1396.17 Q165.053 1394.72 163.231 1391.23 Q160.391 1386.01 160.391 1376 M165.64 1375.23 Q165.64 1384.77 166.319 1388.57 Q167.091 1392.68 169.191 1394.47 Q171.322 1396.23 173.669 1396.23 Q176.201 1396.23 178.301 1394.35 Q180.431 1392.43 181.08 1388.32 Q181.79 1384.28 181.759 1375.23 Q181.759 1366.43 181.141 1362.91 Q180.308 1358.8 178.084 1357.17 Q175.892 1355.5 173.669 1355.5 Q172.835 1355.5 171.939 1355.75 Q171.075 1355.99 169.809 1356.7 Q168.543 1357.41 167.555 1359.17 Q166.597 1360.93 166.134 1363.59 Q165.64 1367.02 165.64 1375.23 Z" fill="#808080" fill-rule="evenodd" fill-opacity="1" /><path clip-path="url(#clip900)" d="M 0 0 M119.97 1107.31 Q119.97 1098.02 122.317 1092.95 Q125.59 1085.42 133.31 1085.42 Q134.946 1085.42 136.644 1085.88 Q138.374 1086.31 140.535 1088.01 Q142.728 1089.71 144.055 1092.49 Q146.588 1097.86 146.588 1107.31 Q146.588 1116.54 144.241 1121.58 Q140.813 1128.93 133.248 1128.93 Q130.407 1128.93 127.504 1127.48 Q124.632 1126.02 122.811 1122.54 Q119.97 1117.32 119.97 1107.31 M125.219 1106.54 Q125.219 1116.08 125.899 1119.88 Q126.671 1123.99 128.77 1125.78 Q130.901 1127.54 133.248 1127.54 Q135.78 1127.54 137.88 1125.65 Q140.01 1123.74 140.659 1119.63 Q141.369 1115.59 141.338 1106.54 Q141.338 1097.74 140.721 1094.22 Q139.887 1090.11 137.664 1088.48 Q135.471 1086.81 133.248 1086.81 Q132.414 1086.81 131.519 1087.06 Q130.654 1087.3 129.388 1088.01 Q128.122 1088.72 127.134 1090.48 Q126.176 1092.24 125.713 1094.9 Q125.219 1098.33 125.219 1106.54 Z" fill="#808080" fill-rule="evenodd" fill-opacity="1" /><path clip-path="url(#clip900)" d="M 0 0 M152.918 1126.52 Q151.961 1125.5 151.961 1124.17 Q151.961 1122.84 152.918 1121.89 Q153.875 1120.9 155.326 1120.9 Q156.716 1120.9 157.642 1121.83 Q158.6 1122.72 158.6 1124.2 Q158.6 1125.65 157.581 1126.61 Q156.592 1127.54 155.326 1127.54 Q153.875 1127.54 152.918 1126.52 Z" fill="#808080" fill-rule="evenodd" fill-opacity="1" /><path clip-path="url(#clip900)" d="M 0 0 M161.749 1127.54 Q161.749 1126.4 161.842 1126.06 Q161.965 1125.72 162.459 1125.19 L174.595 1111.67 Q181.234 1104.19 181.234 1097.68 Q181.234 1093.45 179.011 1090.42 Q176.818 1087.4 172.773 1087.4 Q169.994 1087.4 167.647 1089.09 Q165.3 1090.79 164.22 1093.82 Q164.405 1093.76 165.053 1093.76 Q166.628 1093.76 167.493 1094.74 Q168.388 1095.73 168.388 1097.06 Q168.388 1098.76 167.277 1099.59 Q166.196 1100.4 165.115 1100.4 Q164.683 1100.4 164.096 1100.3 Q163.54 1100.21 162.645 1099.35 Q161.749 1098.45 161.749 1096.87 Q161.749 1092.46 165.084 1088.94 Q168.45 1085.42 173.576 1085.42 Q179.381 1085.42 183.179 1088.88 Q187.008 1092.3 187.008 1097.68 Q187.008 1099.56 186.422 1101.29 Q185.866 1102.99 185.094 1104.32 Q184.353 1105.64 182.315 1107.78 Q180.277 1109.91 178.64 1111.42 Q177.004 1112.93 173.329 1116.14 L166.628 1122.66 L178.023 1122.66 Q183.581 1122.66 184.013 1122.17 Q184.631 1121.27 185.403 1116.54 L187.008 1116.54 L185.217 1127.54 L161.749 1127.54 Z" fill="#808080" fill-rule="evenodd" fill-opacity="1" /><path clip-path="url(#clip900)" d="M 0 0 M118.58 838.621 Q118.58 829.326 120.927 824.262 Q124.2 816.727 131.92 816.727 Q133.557 816.727 135.255 817.19 Q136.984 817.623 139.146 819.321 Q141.338 821.019 142.666 823.799 Q145.198 829.172 145.198 838.621 Q145.198 847.853 142.851 852.887 Q139.424 860.236 131.858 860.236 Q129.017 860.236 126.115 858.785 Q123.243 857.333 121.421 853.844 Q118.58 848.625 118.58 838.621 M123.83 837.849 Q123.83 847.39 124.509 851.188 Q125.281 855.295 127.381 857.086 Q129.511 858.846 131.858 858.846 Q134.39 858.846 136.49 856.963 Q138.621 855.048 139.269 850.941 Q139.979 846.896 139.949 837.849 Q139.949 829.048 139.331 825.528 Q138.497 821.421 136.274 819.784 Q134.082 818.117 131.858 818.117 Q131.024 818.117 130.129 818.364 Q129.264 818.611 127.998 819.321 Q126.732 820.031 125.744 821.791 Q124.787 823.552 124.324 826.207 Q123.83 829.635 123.83 837.849 Z" fill="#808080" fill-rule="evenodd" fill-opacity="1" /><path clip-path="url(#clip900)" d="M 0 0 M151.528 857.827 Q150.571 856.808 150.571 855.481 Q150.571 854.153 151.528 853.196 Q152.486 852.207 153.937 852.207 Q155.326 852.207 156.253 853.134 Q157.21 854.029 157.21 855.512 Q157.21 856.963 156.191 857.92 Q155.203 858.846 153.937 858.846 Q152.486 858.846 151.528 857.827 Z" fill="#808080" fill-rule="evenodd" fill-opacity="1" /><path clip-path="url(#clip900)" d="M 0 0 M158.97 848.409 L158.97 846.464 L178.393 816.789 Q178.887 816.017 179.659 816.048 Q180.369 816.048 180.524 816.326 Q180.678 816.604 180.678 817.685 L180.678 846.464 L187.008 846.464 L187.008 848.409 L180.678 848.409 L180.678 853.906 Q180.678 855.728 181.419 856.314 Q182.191 856.901 185.465 856.901 L186.792 856.901 L186.792 858.846 Q184.198 858.661 178.208 858.661 Q172.248 858.661 169.654 858.846 L169.654 856.901 L170.982 856.901 Q174.255 856.901 175.027 856.345 Q175.799 855.759 175.799 853.906 L175.799 848.409 L158.97 848.409 M160.761 846.464 L176.17 846.464 L176.17 822.872 L160.761 846.464 Z" fill="#808080" fill-rule="evenodd" fill-opacity="1" /><path clip-path="url(#clip900)" d="M 0 0 M119.476 569.929 Q119.476 560.634 121.822 555.57 Q125.096 548.036 132.815 548.036 Q134.452 548.036 136.15 548.499 Q137.88 548.931 140.041 550.63 Q142.234 552.328 143.561 555.107 Q146.094 560.48 146.094 569.929 Q146.094 579.162 143.747 584.195 Q140.319 591.545 132.754 591.545 Q129.913 591.545 127.01 590.093 Q124.138 588.642 122.317 585.153 Q119.476 579.934 119.476 569.929 M124.725 569.157 Q124.725 578.699 125.404 582.497 Q126.176 586.604 128.276 588.395 Q130.407 590.155 132.754 590.155 Q135.286 590.155 137.386 588.271 Q139.516 586.357 140.165 582.25 Q140.875 578.205 140.844 569.157 Q140.844 560.357 140.226 556.836 Q139.393 552.729 137.169 551.093 Q134.977 549.425 132.754 549.425 Q131.92 549.425 131.024 549.672 Q130.16 549.919 128.894 550.63 Q127.628 551.34 126.64 553.1 Q125.682 554.86 125.219 557.516 Q124.725 560.943 124.725 569.157 Z" fill="#808080" fill-rule="evenodd" fill-opacity="1" /><path clip-path="url(#clip900)" d="M 0 0 M152.424 589.136 Q151.467 588.117 151.467 586.789 Q151.467 585.461 152.424 584.504 Q153.381 583.516 154.832 583.516 Q156.222 583.516 157.148 584.442 Q158.106 585.338 158.106 586.82 Q158.106 588.271 157.087 589.229 Q156.098 590.155 154.832 590.155 Q153.381 590.155 152.424 589.136 Z" fill="#808080" fill-rule="evenodd" fill-opacity="1" /><path clip-path="url(#clip900)" d="M 0 0 M160.761 570.176 Q160.761 560.233 165.825 554.15 Q170.89 548.036 177.405 548.036 Q181.203 548.036 183.303 549.981 Q185.434 551.896 185.434 554.86 Q185.434 556.497 184.476 557.207 Q183.519 557.917 182.531 557.917 Q181.388 557.917 180.493 557.145 Q179.597 556.373 179.597 554.984 Q179.597 552.143 183.087 552.143 Q181.45 549.611 177.529 549.611 Q176.324 549.611 175.089 549.981 Q173.854 550.321 172.248 551.494 Q170.642 552.668 169.407 554.52 Q168.172 556.373 167.308 559.862 Q166.443 563.352 166.443 567.891 L166.443 569.404 Q169.037 563.136 174.348 563.167 Q179.659 563.167 183.334 567.212 Q187.008 571.257 187.008 577.247 Q187.008 583.392 183.179 587.468 Q179.35 591.545 173.977 591.545 Q171.569 591.545 169.376 590.526 Q167.215 589.537 165.177 587.252 Q163.17 584.967 161.965 580.582 Q160.761 576.198 160.761 570.176 M166.566 575.858 Q166.566 582.065 167.709 585.029 Q167.894 585.523 168.296 586.202 Q168.728 586.882 169.438 587.777 Q170.179 588.642 171.384 589.229 Q172.588 589.784 173.977 589.784 Q178.208 589.784 180.246 585.677 Q181.327 583.392 181.327 577.186 Q181.327 570.855 180.184 568.54 Q178.239 564.618 174.286 564.618 Q171.631 564.618 169.778 566.44 Q167.956 568.262 167.246 570.701 Q166.566 573.141 166.566 575.858 Z" fill="#808080" fill-rule="evenodd" fill-opacity="1" /><path clip-path="url(#clip900)" d="M 0 0 M119.476 301.238 Q119.476 291.943 121.822 286.879 Q125.096 279.344 132.815 279.344 Q134.452 279.344 136.15 279.807 Q137.88 280.24 140.041 281.938 Q142.234 283.636 143.561 286.416 Q146.094 291.789 146.094 301.238 Q146.094 310.47 143.747 315.504 Q140.319 322.853 132.754 322.853 Q129.913 322.853 127.01 321.402 Q124.138 319.95 122.317 316.461 Q119.476 311.242 119.476 301.238 M124.725 300.466 Q124.725 310.007 125.404 313.805 Q126.176 317.912 128.276 319.703 Q130.407 321.463 132.754 321.463 Q135.286 321.463 137.386 319.58 Q139.516 317.665 140.165 313.558 Q140.875 309.513 140.844 300.466 Q140.844 291.665 140.226 288.145 Q139.393 284.038 137.169 282.401 Q134.977 280.734 132.754 280.734 Q131.92 280.734 131.024 280.981 Q130.16 281.228 128.894 281.938 Q127.628 282.648 126.64 284.408 Q125.682 286.169 125.219 288.824 Q124.725 292.252 124.725 300.466 Z" fill="#808080" fill-rule="evenodd" fill-opacity="1" /><path clip-path="url(#clip900)" d="M 0 0 M152.424 320.444 Q151.467 319.425 151.467 318.098 Q151.467 316.77 152.424 315.813 Q153.381 314.824 154.832 314.824 Q156.222 314.824 157.148 315.751 Q158.106 316.646 158.106 318.129 Q158.106 319.58 157.087 320.537 Q156.098 321.463 154.832 321.463 Q153.381 321.463 152.424 320.444 Z" fill="#808080" fill-rule="evenodd" fill-opacity="1" /><path clip-path="url(#clip900)" d="M 0 0 M160.761 311.922 Q160.761 304.85 169.871 300.28 Q165.949 297.625 165.239 296.853 Q162.459 293.765 162.459 289.905 Q162.459 285.489 165.794 282.432 Q169.16 279.344 173.916 279.344 Q178.455 279.344 181.883 281.969 Q185.31 284.594 185.31 288.762 Q185.31 294.629 177.652 298.582 Q182.716 301.732 183.921 303.059 Q187.008 306.487 187.008 310.841 Q187.008 315.905 183.118 319.395 Q179.227 322.853 173.854 322.853 Q168.604 322.853 164.683 319.796 Q160.761 316.739 160.761 311.922 M163.911 311.922 Q163.911 315.843 166.844 318.468 Q169.809 321.093 173.916 321.093 Q177.899 321.093 180.864 318.808 Q183.859 316.523 183.859 313.126 Q183.859 311.798 183.396 310.656 Q182.963 309.513 182.068 308.618 Q181.203 307.691 180.647 307.29 Q180.122 306.858 179.103 306.147 L171.322 301.238 Q163.911 305.345 163.911 311.922 M165.239 287.435 Q165.239 290.461 168.419 292.561 L176.263 297.625 Q182.531 293.95 182.531 288.762 Q182.531 285.397 179.968 283.173 Q177.405 280.919 173.854 280.919 Q170.365 280.919 167.802 282.772 Q165.239 284.594 165.239 287.435 Z" fill="#808080" fill-rule="evenodd" fill-opacity="1" /><path clip-path="url(#clip900)" d="M 0 0 M67.0282 747.852 L64.6937 747.852 Q64.6937 741.924 60.1359 738.144 Q60.1359 738.144 51.0945 731.029 L41.312 738.552 Q37.9029 741.22 37.31 742.405 Q36.6801 743.554 36.6801 747.482 L34.3086 747.482 Q34.5309 744.369 34.5309 740.293 Q34.5309 738.033 34.3086 732.067 L36.6801 732.067 Q36.8283 734.735 38.5699 734.735 Q39.1628 734.735 39.9409 734.068 L47.6113 728.139 L41.6825 723.433 Q40.3115 722.284 39.0145 722.284 Q36.9024 722.284 36.6801 724.508 L34.3086 724.508 Q34.5309 721.543 34.5309 717.208 Q34.5309 713.947 34.3086 710.983 L36.6801 710.983 Q36.8283 716.763 40.6079 720.024 Q42.2013 721.469 49.2047 726.99 L62.3222 716.837 Q63.9155 715.614 64.3231 714.243 Q64.6937 712.872 64.6937 709.612 L67.0282 709.612 Q66.8058 713.021 66.8058 716.911 Q66.8058 718.282 67.0282 725.101 L64.6937 725.101 Q64.6196 723.73 64.0267 723.063 Q63.3968 722.359 62.7668 722.359 Q62.4704 722.359 60.2841 723.952 L52.6879 729.732 Q59.506 735.513 61.0994 736.254 Q61.7663 736.551 62.3222 736.551 Q64.3602 736.551 64.6937 734.364 L67.0282 734.364 Q66.8058 739.811 66.8058 741.553 Q66.8058 744.888 67.0282 747.852 Z" fill="#000000" fill-rule="evenodd" fill-opacity="1" /><polyline clip-path="url(#clip902)" style="stroke:#4477aa; stroke-width:4.8; stroke-opacity:1; fill:none" points="
  283.284,1279.61 506.528,819.018 729.772,481.599 953.016,895.27 1176.26,987.326 1399.5,1364.18 1622.75,85.8189 1845.99,965.385 2069.24,299.615 2292.48,1371.65 
  
  "/>
<path clip-path="url(#clip900)" d="
M1976.24 274.117 L2281.76 274.117 L2281.76 92.6766 L1976.24 92.6766  Z
  " fill="#ffffff" fill-rule="evenodd" fill-opacity="0.9"/>
<polyline clip-path="url(#clip900)" style="stroke:#222255; stroke-width:4; stroke-opacity:0.1; fill:none" points="
  1976.24,274.117 2281.76,274.117 2281.76,92.6766 1976.24,92.6766 1976.24,274.117 
  "/>
<polyline clip-path="url(#clip900)" style="stroke:#4477aa; stroke-width:6; stroke-opacity:1; fill:none" points="
  1999.9,183.397 2141.89,183.397 
  "/>
<path clip-path="url(#clip900)" d="M 0 0 M2165.55 218.729 Q2165.55 217.135 2166.48 216.283 Q2167.44 215.468 2168.74 215.468 Q2170.11 215.468 2171 216.32 Q2171.92 217.209 2171.92 218.654 Q2171.92 221.471 2168.96 221.841 Q2170.41 223.212 2172.52 223.212 Q2174.78 223.212 2176.59 221.545 Q2178.45 219.877 2179.22 218.284 Q2180.04 216.691 2181.19 213.8 Q2182.26 211.54 2183.08 209.317 L2171.7 181.599 Q2170.96 179.784 2169.81 179.376 Q2168.66 178.969 2165.55 178.969 L2165.55 176.597 Q2168.96 176.819 2172.93 176.819 Q2175.26 176.819 2181.19 176.597 L2181.19 178.969 Q2176.93 178.969 2176.93 180.932 Q2176.93 181.155 2177.37 182.303 L2185.82 202.721 L2193.49 184.045 Q2193.94 182.97 2193.94 182.229 Q2193.94 179.117 2190.38 178.969 L2190.38 176.597 Q2195.38 176.819 2196.97 176.819 Q2200.09 176.819 2202.64 176.597 L2202.64 178.969 Q2197.57 178.969 2195.6 183.823 L2182.23 216.209 Q2178.59 224.843 2172.52 224.88 Q2169.63 224.88 2167.59 223.101 Q2165.55 221.322 2165.55 218.729 Z" fill="#000000" fill-rule="evenodd" fill-opacity="1" /><path clip-path="url(#clip900)" d="M 0 0 M2209.39 165.999 L2209.39 163.628 Q2218.5 163.628 2223.21 158.774 Q2224.51 158.774 2224.73 159.07 Q2224.95 159.366 2224.95 160.737 L2224.95 203.314 Q2224.95 205.574 2226.06 206.278 Q2227.17 206.982 2232.03 206.982 L2234.44 206.982 L2234.44 209.317 Q2231.77 209.094 2222.13 209.094 Q2212.5 209.094 2209.87 209.317 L2209.87 206.982 L2212.28 206.982 Q2217.06 206.982 2218.21 206.315 Q2219.36 205.611 2219.36 203.314 L2219.36 163.998 Q2215.39 165.999 2209.39 165.999 Z" fill="#000000" fill-rule="evenodd" fill-opacity="1" /></svg>
