<?xml version="1.0" encoding="utf-8"?>
<svg xmlns="http://www.w3.org/2000/svg" xmlns:xlink="http://www.w3.org/1999/xlink" width="600" height="400" viewBox="0 0 2400 1600">
<defs>
  <clipPath id="clip170">
    <rect x="0" y="0" width="2400" height="1600"/>
  </clipPath>
</defs>
<path clip-path="url(#clip170)" d="
M0 1600 L2400 1600 L2400 0 L0 0  Z
  " fill="#ffffff" fill-rule="evenodd" fill-opacity="1"/>
<defs>
  <clipPath id="clip171">
    <rect x="480" y="0" width="1681" height="1600"/>
  </clipPath>
</defs>
<path clip-path="url(#clip170)" d="
M226.498 1410.22 L2352.76 1410.22 L2352.76 106.192 L226.498 106.192  Z
  " fill="#ffffff" fill-rule="evenodd" fill-opacity="1"/>
<defs>
  <clipPath id="clip172">
    <rect x="226" y="106" width="2127" height="1305"/>
  </clipPath>
</defs>
<polyline clip-path="url(#clip172)" style="stroke:#222255; stroke-width:4; stroke-opacity:0.1; fill:none" stroke-dasharray="16, 10" points="
  548.315,1410.22 548.315,106.192 
  "/>
<polyline clip-path="url(#clip172)" style="stroke:#222255; stroke-width:4; stroke-opacity:0.1; fill:none" stroke-dasharray="16, 10" points="
  984.381,1410.22 984.381,106.192 
  "/>
<polyline clip-path="url(#clip172)" style="stroke:#222255; stroke-width:4; stroke-opacity:0.1; fill:none" stroke-dasharray="16, 10" points="
  1420.45,1410.22 1420.45,106.192 
  "/>
<polyline clip-path="url(#clip172)" style="stroke:#222255; stroke-width:4; stroke-opacity:0.1; fill:none" stroke-dasharray="16, 10" points="
  1856.51,1410.22 1856.51,106.192 
  "/>
<polyline clip-path="url(#clip172)" style="stroke:#222255; stroke-width:4; stroke-opacity:0.1; fill:none" stroke-dasharray="16, 10" points="
  2292.58,1410.22 2292.58,106.192 
  "/>
<polyline clip-path="url(#clip172)" style="stroke:#222255; stroke-width:2; stroke-opacity:0.05; fill:none" points="
  286.675,1410.22 286.675,106.192 
  "/>
<polyline clip-path="url(#clip172)" style="stroke:#222255; stroke-width:2; stroke-opacity:0.05; fill:none" points="
  373.888,1410.22 373.888,106.192 
  "/>
<polyline clip-path="url(#clip172)" style="stroke:#222255; stroke-width:2; stroke-opacity:0.05; fill:none" points="
  461.101,1410.22 461.101,106.192 
  "/>
<polyline clip-path="url(#clip172)" style="stroke:#222255; stroke-width:2; stroke-opacity:0.05; fill:none" points="
  635.528,1410.22 635.528,106.192 
  "/>
<polyline clip-path="url(#clip172)" style="stroke:#222255; stroke-width:2; stroke-opacity:0.05; fill:none" points="
  722.741,1410.22 722.741,106.192 
  "/>
<polyline clip-path="url(#clip172)" style="stroke:#222255; stroke-width:2; stroke-opacity:0.05; fill:none" points="
  809.954,1410.22 809.954,106.192 
  "/>
<polyline clip-path="url(#clip172)" style="stroke:#222255; stroke-width:2; stroke-opacity:0.05; fill:none" points="
  897.167,1410.22 897.167,106.192 
  "/>
<polyline clip-path="url(#clip172)" style="stroke:#222255; stroke-width:2; stroke-opacity:0.05; fill:none" points="
  1071.59,1410.22 1071.59,106.192 
  "/>
<polyline clip-path="url(#clip172)" style="stroke:#222255; stroke-width:2; stroke-opacity:0.05; fill:none" points="
  1158.81,1410.22 1158.81,106.192 
  "/>
<polyline clip-path="url(#clip172)" style="stroke:#222255; stroke-width:2; stroke-opacity:0.05; fill:none" points="
  1246.02,1410.22 1246.02,106.192 
  "/>
<polyline clip-path="url(#clip172)" style="stroke:#222255; stroke-width:2; stroke-opacity:0.05; fill:none" points="
  1333.23,1410.22 1333.23,106.192 
  "/>
<polyline clip-path="url(#clip172)" style="stroke:#222255; stroke-width:2; stroke-opacity:0.05; fill:none" points="
  1507.66,1410.22 1507.66,106.192 
  "/>
<polyline clip-path="url(#clip172)" style="stroke:#222255; stroke-width:2; stroke-opacity:0.05; fill:none" points="
  1594.87,1410.22 1594.87,106.192 
  "/>
<polyline clip-path="url(#clip172)" style="stroke:#222255; stroke-width:2; stroke-opacity:0.05; fill:none" points="
  1682.09,1410.22 1682.09,106.192 
  "/>
<polyline clip-path="url(#clip172)" style="stroke:#222255; stroke-width:2; stroke-opacity:0.05; fill:none" points="
  1769.3,1410.22 1769.3,106.192 
  "/>
<polyline clip-path="url(#clip172)" style="stroke:#222255; stroke-width:2; stroke-opacity:0.05; fill:none" points="
  1943.73,1410.22 1943.73,106.192 
  "/>
<polyline clip-path="url(#clip172)" style="stroke:#222255; stroke-width:2; stroke-opacity:0.05; fill:none" points="
  2030.94,1410.22 2030.94,106.192 
  "/>
<polyline clip-path="url(#clip172)" style="stroke:#222255; stroke-width:2; stroke-opacity:0.05; fill:none" points="
  2118.15,1410.22 2118.15,106.192 
  "/>
<polyline clip-path="url(#clip172)" style="stroke:#222255; stroke-width:2; stroke-opacity:0.05; fill:none" points="
  2205.37,1410.22 2205.37,106.192 
  "/>
<polyline clip-path="url(#clip170)" style="stroke:#000000; stroke-width:4; stroke-opacity:1; fill:none" points="
  226.498,1410.22 2352.76,1410.22 
  "/>
<polyline clip-path="url(#clip170)" style="stroke:#000000; stroke-width:4; stroke-opacity:1; fill:none" points="
  226.498,106.192 2352.76,106.192 
  "/>
<polyline clip-path="url(#clip170)" style="stroke:#000000; stroke-width:4; stroke-opacity:1; fill:none" points="
  548.315,1410.22 548.315,1394.57 
  "/>
<polyline clip-path="url(#clip170)" style="stroke:#000000; stroke-width:4; stroke-opacity:1; fill:none" points="
  984.381,1410.22 984.381,1394.57 
  "/>
<polyline clip-path="url(#clip170)" style="stroke:#000000; stroke-width:4; stroke-opacity:1; fill:none" points="
  1420.45,1410.22 1420.45,1394.57 
  "/>
<polyline clip-path="url(#clip170)" style="stroke:#000000; stroke-width:4; stroke-opacity:1; fill:none" points="
  1856.51,1410.22 1856.51,1394.57 
  "/>
<polyline clip-path="url(#clip170)" style="stroke:#000000; stroke-width:4; stroke-opacity:1; fill:none" points="
  2292.58,1410.22 2292.58,1394.57 
  "/>
<polyline clip-path="url(#clip170)" style="stroke:#000000; stroke-width:4; stroke-opacity:1; fill:none" points="
  286.675,1410.22 286.675,1402.4 
  "/>
<polyline clip-path="url(#clip170)" style="stroke:#000000; stroke-width:4; stroke-opacity:1; fill:none" points="
  373.888,1410.22 373.888,1402.4 
  "/>
<polyline clip-path="url(#clip170)" style="stroke:#000000; stroke-width:4; stroke-opacity:1; fill:none" points="
  461.101,1410.22 461.101,1402.4 
  "/>
<polyline clip-path="url(#clip170)" style="stroke:#000000; stroke-width:4; stroke-opacity:1; fill:none" points="
  635.528,1410.22 635.528,1402.4 
  "/>
<polyline clip-path="url(#clip170)" style="stroke:#000000; stroke-width:4; stroke-opacity:1; fill:none" points="
  722.741,1410.22 722.741,1402.4 
  "/>
<polyline clip-path="url(#clip170)" style="stroke:#000000; stroke-width:4; stroke-opacity:1; fill:none" points="
  809.954,1410.22 809.954,1402.4 
  "/>
<polyline clip-path="url(#clip170)" style="stroke:#000000; stroke-width:4; stroke-opacity:1; fill:none" points="
  897.167,1410.22 897.167,1402.4 
  "/>
<polyline clip-path="url(#clip170)" style="stroke:#000000; stroke-width:4; stroke-opacity:1; fill:none" points="
  1071.59,1410.22 1071.59,1402.4 
  "/>
<polyline clip-path="url(#clip170)" style="stroke:#000000; stroke-width:4; stroke-opacity:1; fill:none" points="
  1158.81,1410.22 1158.81,1402.4 
  "/>
<polyline clip-path="url(#clip170)" style="stroke:#000000; stroke-width:4; stroke-opacity:1; fill:none" points="
  1246.02,1410.22 1246.02,1402.4 
  "/>
<polyline clip-path="url(#clip170)" style="stroke:#000000; stroke-width:4; stroke-opacity:1; fill:none" points="
  1333.23,1410.22 1333.23,1402.4 
  "/>
<polyline clip-path="url(#clip170)" style="stroke:#000000; stroke-width:4; stroke-opacity:1; fill:none" points="
  1507.66,1410.22 1507.66,1402.4 
  "/>
<polyline clip-path="url(#clip170)" style="stroke:#000000; stroke-width:4; stroke-opacity:1; fill:none" points="
  1594.87,1410.22 1594.87,1402.4 
  "/>
<polyline clip-path="url(#clip170)" style="stroke:#000000; stroke-width:4; stroke-opacity:1; fill:none" points="
  1682.09,1410.22 1682.09,1402.4 
  "/>
<polyline clip-path="url(#clip170)" style="stroke:#000000; stroke-width:4; stroke-opacity:1; fill:none" points="
  1769.3,1410.22 1769.3,1402.4 
  "/>
<polyline clip-path="url(#clip170)" style="stroke:#000000; stroke-width:4; stroke-opacity:1; fill:none" points="
  1943.73,1410.22 1943.73,1402.4 
  "/>
<polyline clip-path="url(#clip170)" style="stroke:#000000; stroke-width:4; stroke-opacity:1; fill:none" points="
  2030.94,1410.22 2030.94,1402.4 
  "/>
<polyline clip-path="url(#clip170)" style="stroke:#000000; stroke-width:4; stroke-opacity:1; fill:none" points="
  2118.15,1410.22 2118.15,1402.4 
  "/>
<polyline clip-path="url(#clip170)" style="stroke:#000000; stroke-width:4; stroke-opacity:1; fill:none" points="
  2205.37,1410.22 2205.37,1402.4 
  "/>
<path clip-path="url(#clip170)" d="M 0 0 M537.877 1445.16 L537.877 1443.19 Q545.474 1443.19 549.395 1439.14 Q550.476 1439.14 550.661 1439.39 Q550.847 1439.63 550.847 1440.78 L550.847 1476.26 Q550.847 1478.14 551.773 1478.73 Q552.699 1479.31 556.745 1479.31 L558.752 1479.31 L558.752 1481.26 Q556.528 1481.07 548.5 1481.07 Q540.471 1481.07 538.279 1481.26 L538.279 1479.31 L540.286 1479.31 Q544.269 1479.31 545.227 1478.76 Q546.184 1478.17 546.184 1476.26 L546.184 1443.49 Q542.88 1445.16 537.877 1445.16 Z" fill="#808080" fill-rule="evenodd" fill-opacity="1" /><path clip-path="url(#clip170)" d="M 0 0 M971.751 1481.26 Q971.751 1480.12 971.844 1479.78 Q971.967 1479.44 972.461 1478.91 L984.597 1465.39 Q991.236 1457.92 991.236 1451.4 Q991.236 1447.17 989.012 1444.14 Q986.82 1441.12 982.775 1441.12 Q979.996 1441.12 977.649 1442.82 Q975.302 1444.51 974.221 1447.54 Q974.407 1447.48 975.055 1447.48 Q976.63 1447.48 977.495 1448.47 Q978.39 1449.45 978.39 1450.78 Q978.39 1452.48 977.278 1453.31 Q976.198 1454.12 975.117 1454.12 Q974.685 1454.12 974.098 1454.02 Q973.542 1453.93 972.647 1453.07 Q971.751 1452.17 971.751 1450.6 Q971.751 1446.18 975.086 1442.66 Q978.452 1439.14 983.578 1439.14 Q989.383 1439.14 993.181 1442.6 Q997.01 1446.03 997.01 1451.4 Q997.01 1453.28 996.424 1455.01 Q995.868 1456.71 995.096 1458.04 Q994.355 1459.37 992.317 1461.5 Q990.279 1463.63 988.642 1465.14 Q987.005 1466.65 983.331 1469.87 L976.63 1476.38 L988.024 1476.38 Q993.583 1476.38 994.015 1475.89 Q994.633 1474.99 995.404 1470.27 L997.01 1470.27 L995.219 1481.26 L971.751 1481.26 Z" fill="#808080" fill-rule="evenodd" fill-opacity="1" /><path clip-path="url(#clip170)" d="M 0 0 M1407.32 1472.74 Q1407.32 1470.85 1408.4 1469.96 Q1409.48 1469.06 1410.87 1469.06 Q1412.33 1469.06 1413.34 1470.02 Q1414.39 1470.95 1414.39 1472.58 Q1414.39 1474.34 1413.16 1475.33 Q1411.95 1476.32 1410.23 1476.07 Q1411.74 1478.6 1414.52 1479.75 Q1417.33 1480.89 1419.92 1480.89 Q1422.64 1480.89 1424.83 1478.54 Q1427.05 1476.2 1427.05 1470.45 Q1427.05 1465.57 1425.14 1462.76 Q1423.26 1459.95 1419.52 1459.95 L1416.74 1459.95 Q1415.78 1459.95 1415.51 1459.86 Q1415.23 1459.77 1415.23 1459.24 Q1415.23 1458.63 1416.19 1458.5 Q1417.14 1458.5 1418.66 1458.32 Q1422.33 1458.19 1424.28 1455.01 Q1426.04 1452.05 1426.04 1447.82 Q1426.04 1443.96 1424.18 1442.35 Q1422.36 1440.72 1419.98 1440.72 Q1417.76 1440.72 1415.32 1441.64 Q1412.88 1442.57 1411.55 1444.64 Q1415.48 1444.64 1415.48 1447.82 Q1415.48 1449.21 1414.58 1450.13 Q1413.72 1451.03 1412.26 1451.03 Q1410.87 1451.03 1409.95 1450.16 Q1409.02 1449.27 1409.02 1447.76 Q1409.02 1444.14 1412.23 1441.64 Q1415.48 1439.14 1420.23 1439.14 Q1424.92 1439.14 1428.38 1441.61 Q1431.87 1444.08 1431.87 1447.88 Q1431.87 1451.62 1429.4 1454.67 Q1426.93 1457.73 1423.01 1459 Q1427.83 1459.95 1430.7 1463.23 Q1433.57 1466.47 1433.57 1470.45 Q1433.57 1475.39 1429.68 1479.04 Q1425.79 1482.65 1420.11 1482.65 Q1414.86 1482.65 1411.09 1479.81 Q1407.32 1476.97 1407.32 1472.74 Z" fill="#808080" fill-rule="evenodd" fill-opacity="1" /><path clip-path="url(#clip170)" d="M 0 0 M1842.49 1470.82 L1842.49 1468.88 L1861.92 1439.2 Q1862.41 1438.43 1863.18 1438.46 Q1863.89 1438.46 1864.05 1438.74 Q1864.2 1439.02 1864.2 1440.1 L1864.2 1468.88 L1870.53 1468.88 L1870.53 1470.82 L1864.2 1470.82 L1864.2 1476.32 Q1864.2 1478.14 1864.94 1478.73 Q1865.71 1479.31 1868.99 1479.31 L1870.32 1479.31 L1870.32 1481.26 Q1867.72 1481.07 1861.73 1481.07 Q1855.77 1481.07 1853.18 1481.26 L1853.18 1479.31 L1854.51 1479.31 Q1857.78 1479.31 1858.55 1478.76 Q1859.32 1478.17 1859.32 1476.32 L1859.32 1470.82 L1842.49 1470.82 M1844.28 1468.88 L1859.69 1468.88 L1859.69 1445.29 L1844.28 1468.88 Z" fill="#808080" fill-rule="evenodd" fill-opacity="1" /><path clip-path="url(#clip170)" d="M 0 0 M2279.95 1471.07 Q2279.95 1469.19 2280.97 1468.48 Q2281.99 1467.73 2283.07 1467.73 Q2284.52 1467.73 2285.35 1468.66 Q2286.22 1469.56 2286.22 1470.82 Q2286.22 1472.09 2285.35 1473.02 Q2284.52 1473.91 2283.07 1473.91 Q2282.36 1473.91 2281.99 1473.79 Q2282.82 1476.69 2285.35 1478.79 Q2287.92 1480.89 2291.28 1480.89 Q2295.51 1480.89 2298.04 1476.78 Q2299.56 1474.13 2299.56 1468.11 Q2299.56 1462.79 2298.41 1460.14 Q2296.65 1456.09 2293.04 1456.09 Q2287.92 1456.09 2284.89 1460.51 Q2284.52 1461.06 2284.09 1461.1 Q2283.47 1461.1 2283.32 1460.76 Q2283.19 1460.39 2283.19 1459.43 L2283.19 1440.72 Q2283.19 1439.2 2283.81 1439.2 Q2284.06 1439.2 2284.58 1439.39 Q2288.56 1441.15 2292.98 1441.18 Q2297.52 1441.18 2301.6 1439.33 Q2301.9 1439.14 2302.09 1439.14 Q2302.71 1439.14 2302.74 1439.85 Q2302.74 1440.1 2302.21 1440.84 Q2301.72 1441.55 2300.64 1442.51 Q2299.56 1443.43 2298.17 1444.33 Q2296.78 1445.22 2294.74 1445.84 Q2292.73 1446.43 2290.51 1446.43 Q2287.85 1446.43 2285.14 1445.59 L2285.14 1457.92 Q2288.41 1454.7 2293.17 1454.7 Q2298.23 1454.7 2301.72 1458.78 Q2305.21 1462.86 2305.21 1468.54 Q2305.21 1474.5 2301.07 1478.57 Q2296.96 1482.65 2291.41 1482.65 Q2286.34 1482.65 2283.13 1479.04 Q2279.95 1475.42 2279.95 1471.07 Z" fill="#808080" fill-rule="evenodd" fill-opacity="1" /><path clip-path="url(#clip170)" d="M 0 0 M1229.23 1573.23 L1229.23 1570.89 Q1231.97 1570.89 1233.71 1570.37 Q1235.45 1569.82 1236.08 1568.82 Q1236.75 1567.78 1236.9 1567.11 Q1237.05 1566.41 1237.05 1565.26 L1237.05 1527.32 Q1237.05 1525.13 1236.08 1524.46 Q1235.16 1523.76 1231.04 1523.76 L1229.23 1523.76 L1229.23 1521.39 L1242.05 1521.39 Q1243.42 1521.39 1243.79 1521.65 Q1244.16 1521.87 1244.72 1523.06 L1261.17 1565.56 L1277.77 1522.83 Q1278.14 1521.76 1278.47 1521.57 Q1278.84 1521.39 1280.29 1521.39 L1293.11 1521.39 L1293.11 1523.76 L1291.29 1523.76 Q1287.18 1523.76 1286.22 1524.46 Q1285.29 1525.13 1285.29 1527.32 L1285.29 1567.3 Q1285.29 1569.49 1286.22 1570.19 Q1287.18 1570.89 1291.29 1570.89 L1293.11 1570.89 L1293.11 1573.23 Q1290.29 1573.01 1282.25 1573.01 Q1274.14 1573.01 1271.32 1573.23 L1271.32 1570.89 L1273.17 1570.89 Q1277.29 1570.89 1278.21 1570.23 Q1279.14 1569.52 1279.14 1567.3 L1279.14 1523.76 L1279.07 1523.76 L1260.43 1571.78 Q1259.91 1573.23 1259.06 1573.23 Q1258.13 1573.23 1257.54 1571.56 L1239.23 1524.35 L1239.16 1524.35 L1239.16 1565.26 Q1239.16 1566.41 1239.31 1567.11 Q1239.45 1567.78 1240.08 1568.82 Q1240.75 1569.82 1242.49 1570.37 Q1244.23 1570.89 1246.98 1570.89 L1246.98 1573.23 Q1239.01 1573.01 1238.08 1573.01 Q1237.19 1573.01 1229.23 1573.23 Z" fill="#000000" fill-rule="evenodd" fill-opacity="1" /><path clip-path="url(#clip170)" d="M 0 0 M1293.85 1572.49 L1293.85 1515.16 L1350.03 1515.16 L1350.03 1572.49 L1293.85 1572.49 M1298.41 1564.74 L1319.38 1543.77 L1298.41 1522.91 L1298.41 1564.74 M1301.08 1567.93 L1342.8 1567.93 L1321.94 1546.96 L1301.08 1567.93 M1301.08 1519.72 L1321.94 1540.66 L1342.8 1519.72 L1301.08 1519.72 M1324.53 1543.77 L1345.47 1564.74 L1345.47 1522.91 L1324.53 1543.77 Z" fill="#000000" fill-rule="evenodd" fill-opacity="1" /><polyline clip-path="url(#clip172)" style="stroke:#222255; stroke-width:4; stroke-opacity:0.1; fill:none" stroke-dasharray="16, 10" points="
  226.498,1389.55 2352.76,1389.55 
  "/>
<polyline clip-path="url(#clip172)" style="stroke:#222255; stroke-width:4; stroke-opacity:0.1; fill:none" stroke-dasharray="16, 10" points="
  226.498,1083.46 2352.76,1083.46 
  "/>
<polyline clip-path="url(#clip172)" style="stroke:#222255; stroke-width:4; stroke-opacity:0.1; fill:none" stroke-dasharray="16, 10" points="
  226.498,777.36 2352.76,777.36 
  "/>
<polyline clip-path="url(#clip172)" style="stroke:#222255; stroke-width:4; stroke-opacity:0.1; fill:none" stroke-dasharray="16, 10" points="
  226.498,471.264 2352.76,471.264 
  "/>
<polyline clip-path="url(#clip172)" style="stroke:#222255; stroke-width:4; stroke-opacity:0.1; fill:none" stroke-dasharray="16, 10" points="
  226.498,165.169 2352.76,165.169 
  "/>
<polyline clip-path="url(#clip172)" style="stroke:#222255; stroke-width:2; stroke-opacity:0.05; fill:none" points="
  226.498,1328.33 2352.76,1328.33 
  "/>
<polyline clip-path="url(#clip172)" style="stroke:#222255; stroke-width:2; stroke-opacity:0.05; fill:none" points="
  226.498,1267.11 2352.76,1267.11 
  "/>
<polyline clip-path="url(#clip172)" style="stroke:#222255; stroke-width:2; stroke-opacity:0.05; fill:none" points="
  226.498,1205.89 2352.76,1205.89 
  "/>
<polyline clip-path="url(#clip172)" style="stroke:#222255; stroke-width:2; stroke-opacity:0.05; fill:none" points="
  226.498,1144.67 2352.76,1144.67 
  "/>
<polyline clip-path="url(#clip172)" style="stroke:#222255; stroke-width:2; stroke-opacity:0.05; fill:none" points="
  226.498,1022.24 2352.76,1022.24 
  "/>
<polyline clip-path="url(#clip172)" style="stroke:#222255; stroke-width:2; stroke-opacity:0.05; fill:none" points="
  226.498,961.017 2352.76,961.017 
  "/>
<polyline clip-path="url(#clip172)" style="stroke:#222255; stroke-width:2; stroke-opacity:0.05; fill:none" points="
  226.498,899.798 2352.76,899.798 
  "/>
<polyline clip-path="url(#clip172)" style="stroke:#222255; stroke-width:2; stroke-opacity:0.05; fill:none" points="
  226.498,838.579 2352.76,838.579 
  "/>
<polyline clip-path="url(#clip172)" style="stroke:#222255; stroke-width:2; stroke-opacity:0.05; fill:none" points="
  226.498,716.141 2352.76,716.141 
  "/>
<polyline clip-path="url(#clip172)" style="stroke:#222255; stroke-width:2; stroke-opacity:0.05; fill:none" points="
  226.498,654.922 2352.76,654.922 
  "/>
<polyline clip-path="url(#clip172)" style="stroke:#222255; stroke-width:2; stroke-opacity:0.05; fill:none" points="
  226.498,593.703 2352.76,593.703 
  "/>
<polyline clip-path="url(#clip172)" style="stroke:#222255; stroke-width:2; stroke-opacity:0.05; fill:none" points="
  226.498,532.483 2352.76,532.483 
  "/>
<polyline clip-path="url(#clip172)" style="stroke:#222255; stroke-width:2; stroke-opacity:0.05; fill:none" points="
  226.498,410.045 2352.76,410.045 
  "/>
<polyline clip-path="url(#clip172)" style="stroke:#222255; stroke-width:2; stroke-opacity:0.05; fill:none" points="
  226.498,348.826 2352.76,348.826 
  "/>
<polyline clip-path="url(#clip172)" style="stroke:#222255; stroke-width:2; stroke-opacity:0.05; fill:none" points="
  226.498,287.607 2352.76,287.607 
  "/>
<polyline clip-path="url(#clip172)" style="stroke:#222255; stroke-width:2; stroke-opacity:0.05; fill:none" points="
  226.498,226.388 2352.76,226.388 
  "/>
<polyline clip-path="url(#clip170)" style="stroke:#000000; stroke-width:4; stroke-opacity:1; fill:none" points="
  226.498,1410.22 226.498,106.192 
  "/>
<polyline clip-path="url(#clip170)" style="stroke:#000000; stroke-width:4; stroke-opacity:1; fill:none" points="
  2352.76,1410.22 2352.76,106.192 
  "/>
<polyline clip-path="url(#clip170)" style="stroke:#000000; stroke-width:4; stroke-opacity:1; fill:none" points="
  226.498,1389.55 252.013,1389.55 
  "/>
<polyline clip-path="url(#clip170)" style="stroke:#000000; stroke-width:4; stroke-opacity:1; fill:none" points="
  226.498,1083.46 252.013,1083.46 
  "/>
<polyline clip-path="url(#clip170)" style="stroke:#000000; stroke-width:4; stroke-opacity:1; fill:none" points="
  226.498,777.36 252.013,777.36 
  "/>
<polyline clip-path="url(#clip170)" style="stroke:#000000; stroke-width:4; stroke-opacity:1; fill:none" points="
  226.498,471.264 252.013,471.264 
  "/>
<polyline clip-path="url(#clip170)" style="stroke:#000000; stroke-width:4; stroke-opacity:1; fill:none" points="
  226.498,165.169 252.013,165.169 
  "/>
<polyline clip-path="url(#clip170)" style="stroke:#000000; stroke-width:4; stroke-opacity:1; fill:none" points="
  226.498,1328.33 239.255,1328.33 
  "/>
<polyline clip-path="url(#clip170)" style="stroke:#000000; stroke-width:4; stroke-opacity:1; fill:none" points="
  226.498,1267.11 239.255,1267.11 
  "/>
<polyline clip-path="url(#clip170)" style="stroke:#000000; stroke-width:4; stroke-opacity:1; fill:none" points="
  226.498,1205.89 239.255,1205.89 
  "/>
<polyline clip-path="url(#clip170)" style="stroke:#000000; stroke-width:4; stroke-opacity:1; fill:none" points="
  226.498,1144.67 239.255,1144.67 
  "/>
<polyline clip-path="url(#clip170)" style="stroke:#000000; stroke-width:4; stroke-opacity:1; fill:none" points="
  226.498,1022.24 239.255,1022.24 
  "/>
<polyline clip-path="url(#clip170)" style="stroke:#000000; stroke-width:4; stroke-opacity:1; fill:none" points="
  226.498,961.017 239.255,961.017 
  "/>
<polyline clip-path="url(#clip170)" style="stroke:#000000; stroke-width:4; stroke-opacity:1; fill:none" points="
  226.498,899.798 239.255,899.798 
  "/>
<polyline clip-path="url(#clip170)" style="stroke:#000000; stroke-width:4; stroke-opacity:1; fill:none" points="
  226.498,838.579 239.255,838.579 
  "/>
<polyline clip-path="url(#clip170)" style="stroke:#000000; stroke-width:4; stroke-opacity:1; fill:none" points="
  226.498,716.141 239.255,716.141 
  "/>
<polyline clip-path="url(#clip170)" style="stroke:#000000; stroke-width:4; stroke-opacity:1; fill:none" points="
  226.498,654.922 239.255,654.922 
  "/>
<polyline clip-path="url(#clip170)" style="stroke:#000000; stroke-width:4; stroke-opacity:1; fill:none" points="
  226.498,593.703 239.255,593.703 
  "/>
<polyline clip-path="url(#clip170)" style="stroke:#000000; stroke-width:4; stroke-opacity:1; fill:none" points="
  226.498,532.483 239.255,532.483 
  "/>
<polyline clip-path="url(#clip170)" style="stroke:#000000; stroke-width:4; stroke-opacity:1; fill:none" points="
  226.498,410.045 239.255,410.045 
  "/>
<polyline clip-path="url(#clip170)" style="stroke:#000000; stroke-width:4; stroke-opacity:1; fill:none" points="
  226.498,348.826 239.255,348.826 
  "/>
<polyline clip-path="url(#clip170)" style="stroke:#000000; stroke-width:4; stroke-opacity:1; fill:none" points="
  226.498,287.607 239.255,287.607 
  "/>
<polyline clip-path="url(#clip170)" style="stroke:#000000; stroke-width:4; stroke-opacity:1; fill:none" points="
  226.498,226.388 239.255,226.388 
  "/>
<path clip-path="url(#clip170)" d="M 0 0 M160.329 1394.45 Q160.699 1394.82 160.699 1395.34 Q160.699 1395.87 160.329 1396.24 Q159.958 1396.61 159.433 1396.61 L119.846 1396.61 Q119.321 1396.61 118.951 1396.24 Q118.58 1395.87 118.58 1395.34 Q118.58 1394.82 118.951 1394.45 Q119.321 1394.08 119.846 1394.08 L159.433 1394.08 Q159.958 1394.08 160.329 1394.45 Z" fill="#808080" fill-rule="evenodd" fill-opacity="1" /><path clip-path="url(#clip170)" d="M 0 0 M162.459 1400.71 L162.459 1398.77 L181.883 1369.09 Q182.377 1368.32 183.149 1368.35 Q183.859 1368.35 184.013 1368.63 Q184.168 1368.91 184.168 1369.99 L184.168 1398.77 L190.498 1398.77 L190.498 1400.71 L184.168 1400.71 L184.168 1406.21 Q184.168 1408.03 184.909 1408.62 Q185.681 1409.21 188.954 1409.21 L190.282 1409.21 L190.282 1411.15 Q187.688 1410.97 181.697 1410.97 Q175.738 1410.97 173.144 1411.15 L173.144 1409.21 L174.472 1409.21 Q177.745 1409.21 178.517 1408.65 Q179.289 1408.06 179.289 1406.21 L179.289 1400.71 L162.459 1400.71 M164.25 1398.77 L179.659 1398.77 L179.659 1375.18 L164.25 1398.77 Z" fill="#808080" fill-rule="evenodd" fill-opacity="1" /><path clip-path="url(#clip170)" d="M 0 0 M161.718 1088.35 Q162.089 1088.72 162.089 1089.25 Q162.089 1089.77 161.718 1090.14 Q161.348 1090.51 160.823 1090.51 L121.236 1090.51 Q120.711 1090.51 120.34 1090.14 Q119.97 1089.77 119.97 1089.25 Q119.97 1088.72 120.34 1088.35 Q120.711 1087.98 121.236 1087.98 L160.823 1087.98 Q161.348 1087.98 161.718 1088.35 Z" fill="#808080" fill-rule="evenodd" fill-opacity="1" /><path clip-path="url(#clip170)" d="M 0 0 M165.239 1105.06 Q165.239 1103.91 165.331 1103.57 Q165.455 1103.23 165.949 1102.71 L178.084 1089.18 Q184.723 1081.71 184.723 1075.2 Q184.723 1070.97 182.5 1067.94 Q180.308 1064.91 176.263 1064.91 Q173.483 1064.91 171.137 1066.61 Q168.79 1068.31 167.709 1071.34 Q167.894 1071.27 168.543 1071.27 Q170.118 1071.27 170.982 1072.26 Q171.878 1073.25 171.878 1074.58 Q171.878 1076.28 170.766 1077.11 Q169.685 1077.91 168.604 1077.91 Q168.172 1077.91 167.585 1077.82 Q167.03 1077.73 166.134 1076.86 Q165.239 1075.97 165.239 1074.39 Q165.239 1069.98 168.574 1066.46 Q171.939 1062.94 177.065 1062.94 Q182.871 1062.94 186.669 1066.39 Q190.498 1069.82 190.498 1075.2 Q190.498 1077.08 189.911 1078.81 Q189.355 1080.51 188.583 1081.83 Q187.842 1083.16 185.804 1085.29 Q183.766 1087.42 182.13 1088.94 Q180.493 1090.45 176.818 1093.66 L170.118 1100.18 L181.512 1100.18 Q187.07 1100.18 187.503 1099.68 Q188.12 1098.79 188.892 1094.06 L190.498 1094.06 L188.707 1105.06 L165.239 1105.06 Z" fill="#808080" fill-rule="evenodd" fill-opacity="1" /><path clip-path="url(#clip170)" d="M 0 0 M163.88 778.734 Q163.88 769.439 166.227 764.375 Q169.5 756.841 177.22 756.841 Q178.856 756.841 180.555 757.304 Q182.284 757.736 184.445 759.435 Q186.638 761.133 187.966 763.912 Q190.498 769.285 190.498 778.734 Q190.498 787.967 188.151 793 Q184.723 800.35 177.158 800.35 Q174.317 800.35 171.414 798.898 Q168.543 797.447 166.721 793.958 Q163.88 788.739 163.88 778.734 M169.129 777.962 Q169.129 787.504 169.809 791.302 Q170.581 795.409 172.681 797.2 Q174.811 798.96 177.158 798.96 Q179.69 798.96 181.79 797.076 Q183.921 795.162 184.569 791.055 Q185.279 787.01 185.248 777.962 Q185.248 769.162 184.631 765.641 Q183.797 761.534 181.574 759.898 Q179.381 758.23 177.158 758.23 Q176.324 758.23 175.429 758.477 Q174.564 758.724 173.298 759.435 Q172.032 760.145 171.044 761.905 Q170.087 763.665 169.623 766.321 Q169.129 769.748 169.129 777.962 Z" fill="#808080" fill-rule="evenodd" fill-opacity="1" /><path clip-path="url(#clip170)" d="M 0 0 M165.239 492.864 Q165.239 491.722 165.331 491.382 Q165.455 491.042 165.949 490.517 L178.084 476.992 Q184.723 469.52 184.723 463.004 Q184.723 458.774 182.5 455.747 Q180.308 452.721 176.263 452.721 Q173.483 452.721 171.137 454.42 Q168.79 456.118 167.709 459.144 Q167.894 459.082 168.543 459.082 Q170.118 459.082 170.982 460.071 Q171.878 461.059 171.878 462.387 Q171.878 464.085 170.766 464.919 Q169.685 465.721 168.604 465.721 Q168.172 465.721 167.585 465.629 Q167.03 465.536 166.134 464.672 Q165.239 463.776 165.239 462.201 Q165.239 457.786 168.574 454.265 Q171.939 450.745 177.065 450.745 Q182.871 450.745 186.669 454.204 Q190.498 457.631 190.498 463.004 Q190.498 464.888 189.911 466.617 Q189.355 468.315 188.583 469.643 Q187.842 470.971 185.804 473.102 Q183.766 475.232 182.13 476.745 Q180.493 478.258 176.818 481.47 L170.118 487.985 L181.512 487.985 Q187.07 487.985 187.503 487.491 Q188.12 486.596 188.892 481.871 L190.498 481.871 L188.707 492.864 L165.239 492.864 Z" fill="#808080" fill-rule="evenodd" fill-opacity="1" /><path clip-path="url(#clip170)" d="M 0 0 M162.459 176.331 L162.459 174.386 L181.883 144.711 Q182.377 143.939 183.149 143.97 Q183.859 143.97 184.013 144.248 Q184.168 144.526 184.168 145.607 L184.168 174.386 L190.498 174.386 L190.498 176.331 L184.168 176.331 L184.168 181.828 Q184.168 183.65 184.909 184.236 Q185.681 184.823 188.954 184.823 L190.282 184.823 L190.282 186.769 Q187.688 186.583 181.697 186.583 Q175.738 186.583 173.144 186.769 L173.144 184.823 L174.472 184.823 Q177.745 184.823 178.517 184.267 Q179.289 183.681 179.289 181.828 L179.289 176.331 L162.459 176.331 M164.25 174.386 L179.659 174.386 L179.659 150.794 L164.25 174.386 Z" fill="#808080" fill-rule="evenodd" fill-opacity="1" /><path clip-path="url(#clip170)" d="M 0 0 M66.2871 865.517 Q65.9906 865.517 64.0638 864.517 Q62.0998 863.516 55.0964 859.996 Q48.056 856.476 40.682 852.845 L14.3729 839.764 Q12.7055 838.838 12.7055 837.652 Q12.7055 836.577 13.3725 836.096 Q14.0395 835.614 18.5231 833.391 Q20.7094 832.242 22.1174 831.575 L65.0642 810.12 Q65.9906 809.75 66.2871 809.712 Q67.0282 809.712 67.0282 811.009 L67.0282 863.516 Q67.0282 865.517 66.2871 865.517 M61.2476 860.515 L61.2476 819.68 L20.2647 840.098 L61.2476 860.515 Z" fill="#000000" fill-rule="evenodd" fill-opacity="1" /><path clip-path="url(#clip170)" d="M 0 0 M66.0277 807.193 L56.0228 807.193 Q55.1705 807.193 54.8741 807.156 Q54.5777 807.119 54.3553 806.896 Q54.133 806.674 54.133 806.229 Q54.133 805.711 54.3553 805.525 Q54.5777 805.303 55.4299 805.155 Q60.6547 804.006 63.4338 801.56 Q66.1759 799.078 66.1759 794.594 Q66.1759 790.333 64.2861 788.184 Q62.3963 786.034 59.2837 786.034 Q53.7254 786.034 52.3173 793.927 Q51.3909 798.485 50.7981 800.375 Q50.1681 802.264 48.7971 803.932 Q46.1291 807.193 42.3495 807.193 Q38.5699 807.193 35.7908 804.34 Q33.0116 801.449 33.0116 795.076 Q33.0116 790.814 35.1608 787.924 Q34.4938 787.072 33.938 786.627 Q33.0116 785.627 33.0116 785.108 Q33.0116 784.515 33.4192 784.404 Q33.7898 784.293 34.8644 784.293 L42.4977 784.293 Q43.35 784.293 43.6464 784.33 Q43.9429 784.367 44.1652 784.589 Q44.3505 784.812 44.3505 785.293 Q44.3505 786.145 43.6464 786.183 Q34.4568 786.775 34.4568 795.076 Q34.4568 799.559 36.1984 801.56 Q37.9029 803.561 40.2374 803.561 Q41.5343 803.561 42.5348 802.968 Q43.4982 802.339 44.0911 801.56 Q44.6469 800.745 45.2027 799.263 Q45.7215 797.781 45.9068 796.891 Q46.0921 795.965 46.4626 794.223 Q47.6113 788.146 50.094 785.59 Q53.2807 782.403 57.3197 782.403 Q61.8034 782.403 64.8419 785.441 Q67.8804 788.48 67.8804 794.594 Q67.8804 799.522 64.5825 802.968 Q65.0272 803.413 65.4348 803.747 Q65.8053 804.08 65.9536 804.228 Q66.1018 804.34 66.2129 804.377 Q66.2871 804.414 66.3612 804.488 Q67.8804 806.007 67.8804 806.378 Q67.8804 806.97 67.4728 807.082 Q67.1023 807.193 66.0277 807.193 Z" fill="#000000" fill-rule="evenodd" fill-opacity="1" /><path clip-path="url(#clip170)" d="M 0 0 M17.5597 780.291 L15.1882 780.291 L14.3729 769.36 L38.4217 769.36 Q33.4933 764.95 33.4933 758.947 Q33.4933 752.425 38.4958 747.645 Q43.4982 742.865 50.6498 742.865 Q57.8756 742.865 62.878 747.868 Q67.8804 752.87 67.8804 759.799 Q67.8804 766.099 62.3222 769.73 Q66.954 772.398 67.0282 772.472 L67.0282 774.362 L21.784 774.362 Q18.9678 774.362 18.2637 775.362 Q17.5597 776.363 17.5597 780.291 M58.3943 769.137 Q59.9877 769.137 61.5811 768.063 Q66.1759 765.061 66.1759 760.17 Q66.1759 760.133 66.1759 760.096 Q66.1759 754.797 61.3217 751.499 Q57.6903 749.165 50.5757 749.165 Q43.5353 749.165 40.015 751.351 Q35.1608 754.389 35.1608 759.318 Q35.1608 764.876 40.015 768.285 Q41.2379 769.137 42.7571 769.137 L58.3943 769.137 Z" fill="#000000" fill-rule="evenodd" fill-opacity="1" /><path clip-path="url(#clip170)" d="M 0 0 M76.4401 743.532 Q74.8468 743.532 73.9945 742.606 Q73.1793 741.642 73.1793 740.345 Q73.1793 738.974 74.0316 738.085 Q74.9209 737.159 76.366 737.159 Q79.1822 737.159 79.5528 740.123 Q80.9238 738.678 80.9238 736.566 Q80.9238 734.305 79.2563 732.49 Q77.5888 730.637 75.9955 729.859 Q74.4021 729.044 71.5118 727.895 Q69.2515 726.82 67.0282 726.005 L39.311 737.381 Q37.4953 738.122 37.0877 739.271 Q36.6801 740.42 36.6801 743.532 L34.3086 743.532 Q34.5309 740.123 34.5309 736.158 Q34.5309 733.824 34.3086 727.895 L36.6801 727.895 Q36.6801 732.156 38.644 732.156 Q38.8663 732.156 40.015 731.712 L60.4324 723.263 L41.7566 715.593 Q40.682 715.148 39.9409 715.148 Q36.8283 715.148 36.6801 718.705 L34.3086 718.705 Q34.5309 713.703 34.5309 712.11 Q34.5309 708.997 34.3086 706.44 L36.6801 706.44 Q36.6801 711.517 41.5343 713.481 L73.9204 726.857 Q82.5542 730.489 82.5913 736.566 Q82.5913 739.456 80.8126 741.494 Q79.034 743.532 76.4401 743.532 Z" fill="#000000" fill-rule="evenodd" fill-opacity="1" /><path clip-path="url(#clip170)" d="M 0 0 M67.0282 703.772 L64.6937 703.772 L64.6937 701.956 Q64.6937 697.843 64.0267 696.917 Q63.3227 695.954 61.0994 695.954 L21.117 695.954 Q18.9307 695.954 18.2637 696.917 Q17.5597 697.88 17.5597 701.956 L17.5597 703.772 L15.1882 703.772 L15.1882 679.946 Q15.1882 671.682 19.2642 665.939 Q23.3032 660.158 28.8615 660.158 Q33.1228 660.158 36.4578 663.901 Q39.7927 667.643 41.2379 673.424 Q43.8317 665.902 50.0199 664.16 L56.0969 663.197 Q58.2832 662.9 59.3948 662.715 Q60.5065 662.493 62.0257 662.159 Q63.545 661.826 64.2861 661.492 Q64.9901 661.122 65.7683 660.603 Q66.5094 660.084 66.7688 659.417 Q67.0282 658.713 67.0282 657.787 Q67.0282 656.045 65.4718 654.563 Q63.9155 653.081 60.2841 652.784 Q59.0613 652.636 59.0613 651.858 Q59.0613 650.895 60.2841 650.895 Q61.3587 650.895 62.6186 651.191 Q63.8414 651.487 65.2866 652.229 Q66.7317 652.933 67.6951 654.489 Q68.6956 656.045 68.6956 658.083 Q68.6956 664.012 65.5089 667.643 Q64.1379 669.163 62.3592 669.867 Q60.5806 670.534 59.1725 670.645 Q57.7644 670.756 54.6518 670.756 Q50.2422 670.756 48.3154 671.238 Q46.3885 671.682 44.4987 673.646 Q41.9048 676.314 41.9048 680.724 L41.9048 689.432 L61.0994 689.432 Q63.2856 689.432 63.9896 688.505 Q64.6937 687.542 64.6937 683.429 L64.6937 681.613 L67.0282 681.613 Q66.8058 684.355 66.8058 692.693 Q66.8058 701.03 67.0282 703.772 M40.2374 689.432 L40.2374 681.02 Q40.2374 676.981 39.2739 674.276 Q38.2734 671.534 36.4948 670.237 Q34.7162 668.94 32.9375 668.459 Q31.1218 667.977 28.8615 667.977 Q26.1935 667.977 24.1925 668.57 Q22.1916 669.163 21.0058 670.46 Q19.82 671.757 19.0789 673.054 Q18.3008 674.35 18.0043 676.351 Q17.7079 678.352 17.6338 679.723 Q17.5597 681.094 17.5597 683.281 Q17.5597 686.986 17.7079 687.764 Q17.782 688.617 18.1896 688.95 Q18.5972 689.284 19.0789 689.358 Q19.5236 689.432 20.5982 689.432 L40.2374 689.432 Z" fill="#000000" fill-rule="evenodd" fill-opacity="1" /><path clip-path="url(#clip170)" d="M 0 0 M887.317 51.84 L887.317 49.8946 L888.83 49.8946 Q892.258 49.8946 893.03 49.3388 Q893.833 48.7521 893.833 46.8993 L893.833 13.7659 Q893.833 11.9441 893.03 11.3882 Q892.227 10.8015 888.83 10.8015 L887.317 10.8015 L887.317 8.82528 L922.921 8.82528 L924.681 23.0606 L923.106 23.0606 Q922.674 19.4477 922.087 17.3788 Q921.531 15.279 920.142 13.6733 Q918.783 12.0676 916.529 11.45 Q914.306 10.8015 910.693 10.8015 L902.541 10.8015 Q900.379 10.8015 899.916 11.2647 Q899.453 11.697 899.453 13.3336 L899.453 28.4953 L905.135 28.4953 Q909.488 28.4953 910.724 26.9822 Q911.959 25.4692 911.959 21.1152 L913.565 21.1152 L913.565 37.8517 L911.959 37.8517 Q911.959 33.5595 910.724 32.0156 Q909.488 30.4716 905.135 30.4716 L899.453 30.4716 L899.453 47.3625 Q899.453 48.9991 899.916 49.4623 Q900.41 49.8946 902.541 49.8946 L910.971 49.8946 Q913.688 49.8946 915.664 49.5549 Q917.671 49.1844 919.061 48.3198 Q920.451 47.4243 921.377 46.4053 Q922.334 45.3862 922.983 43.5644 Q923.662 41.7116 924.033 40.0133 Q924.434 38.3149 924.866 35.5358 L926.441 35.5358 L923.786 51.84 L887.317 51.84 Z" fill="#000000" fill-rule="evenodd" fill-opacity="1" /><path clip-path="url(#clip170)" d="M 0 0 M928.479 51.84 L928.479 49.8946 Q931.845 49.8946 932.617 49.4932 Q933.389 49.0609 933.389 47.0228 L933.389 30.0702 Q933.389 27.7233 932.555 27.1366 Q931.752 26.5499 928.479 26.5499 L928.479 24.5737 L937.372 23.8943 L937.372 30.5334 Q940.337 23.8943 946.729 23.8943 Q951.484 23.8943 953.368 26.2411 Q954.757 27.816 955.035 29.5761 Q955.344 31.3362 955.344 35.9063 L955.344 47.9801 Q955.406 49.3079 956.425 49.6167 Q957.444 49.8946 960.285 49.8946 L960.285 51.84 Q953.831 51.6547 953.183 51.6547 Q952.688 51.6547 946.049 51.84 L946.049 49.8946 Q949.415 49.8946 950.187 49.4932 Q950.99 49.0609 950.99 47.0228 L950.99 32.2935 Q950.99 29.082 950.002 27.1984 Q949.014 25.2839 946.296 25.2839 Q943.023 25.2839 940.399 28.0321 Q937.774 30.7804 937.774 35.4123 L937.774 47.0228 Q937.774 49.0609 938.546 49.4932 Q939.349 49.8946 942.684 49.8946 L942.684 51.84 Q936.23 51.6547 935.612 51.6547 Q935.118 51.6547 928.479 51.84 Z" fill="#000000" fill-rule="evenodd" fill-opacity="1" /><path clip-path="url(#clip170)" d="M 0 0 M959.729 26.5499 L959.729 25.1604 Q962.632 25.0369 964.546 22.9988 Q966.491 20.9299 967.14 18.3978 Q967.819 15.8657 967.881 12.9322 L969.456 12.9322 L969.456 24.5737 L978.503 24.5737 L978.503 26.5499 L969.456 26.5499 L969.456 44.1202 Q969.456 50.9445 973.717 50.9445 Q975.539 50.9445 976.743 49.0918 Q977.948 47.2081 977.948 43.8732 L977.948 40.3838 L979.522 40.3838 L979.522 43.9967 Q979.522 47.4243 977.948 49.9872 Q976.373 52.5502 973.254 52.5502 Q972.111 52.5502 970.969 52.2414 Q969.857 51.9635 968.375 51.2224 Q966.924 50.4504 965.997 48.5977 Q965.102 46.7141 965.102 43.9967 L965.102 26.5499 L959.729 26.5499 Z" fill="#000000" fill-rule="evenodd" fill-opacity="1" /><path clip-path="url(#clip170)" d="M 0 0 M981.283 51.84 L981.283 49.8946 Q984.648 49.8946 985.42 49.4932 Q986.223 49.0609 986.223 47.0228 L986.223 30.0702 Q986.223 27.7233 985.39 27.1366 Q984.587 26.5499 981.283 26.5499 L981.283 24.5737 L990.083 23.8943 L990.083 30.8421 Q990.979 28.1248 992.862 26.025 Q994.777 23.8943 997.865 23.8943 Q999.903 23.8943 1001.2 25.0369 Q1002.53 26.1794 1002.53 27.7542 Q1002.53 29.1438 1001.66 29.854 Q1000.83 30.5334 999.81 30.5334 Q998.668 30.5334 997.865 29.8231 Q997.093 29.082 997.093 27.816 Q997.093 27.044 997.432 26.4573 Q997.803 25.8397 998.081 25.6236 Q998.359 25.4074 998.544 25.3456 Q998.421 25.2839 997.865 25.2839 Q994.375 25.2839 992.368 28.7732 Q990.392 32.2317 990.392 37.1724 L990.392 46.8993 Q990.392 48.7212 991.133 49.3079 Q991.905 49.8946 995.209 49.8946 L996.537 49.8946 L996.537 51.84 Q994.005 51.6547 988.508 51.6547 Q987.736 51.6547 986.532 51.6856 Q985.328 51.7165 983.753 51.7782 Q982.178 51.84 981.283 51.84 Z" fill="#000000" fill-rule="evenodd" fill-opacity="1" /><path clip-path="url(#clip170)" d="M 0 0 M1008.46 48.4433 Q1004.29 44.3055 1004.29 38.3149 Q1004.29 32.2935 1008.36 27.9086 Q1012.47 23.4929 1018.34 23.4929 Q1024.08 23.4929 1028.19 27.8777 Q1032.33 32.2317 1032.33 38.3149 Q1032.33 44.2746 1028.16 48.4124 Q1024.02 52.5502 1018.28 52.5502 Q1012.66 52.5502 1008.46 48.4433 M1009.54 37.79 Q1009.54 43.9349 1011.14 46.7141 Q1013.61 50.9445 1018.34 50.9445 Q1020.68 50.9445 1022.63 49.6785 Q1024.61 48.4124 1025.69 46.2817 Q1027.08 43.5026 1027.08 37.79 Q1027.08 31.7068 1025.41 29.0203 Q1022.94 24.9133 1018.28 24.9133 Q1016.24 24.9133 1014.23 25.9941 Q1012.25 27.044 1011.05 29.1438 Q1009.54 31.9229 1009.54 37.79 Z" fill="#000000" fill-rule="evenodd" fill-opacity="1" /><path clip-path="url(#clip170)" d="M 0 0 M1034.09 62.1537 Q1037.45 62.1537 1038.22 61.7213 Q1039.03 61.3199 1039.03 59.3128 L1039.03 29.6996 Q1039.03 27.5998 1038.22 27.0749 Q1037.45 26.5499 1034.09 26.5499 L1034.09 24.5737 L1043.2 23.8943 L1043.2 28.063 Q1046.99 23.8943 1052.06 23.8943 Q1057.43 23.8943 1061.35 28.063 Q1065.27 32.2317 1065.27 38.1914 Q1065.27 44.2128 1061.11 48.3815 Q1056.94 52.5502 1051.16 52.5502 Q1048.01 52.5502 1045.88 50.9445 Q1043.78 49.3079 1043.38 48.1036 L1043.38 48.6903 L1043.38 59.3128 Q1043.38 61.3508 1044.18 61.7522 Q1044.99 62.1537 1048.32 62.1537 L1048.32 64.099 Q1041.68 63.9138 1041.19 63.9138 Q1040.57 63.9138 1034.09 64.099 L1034.09 62.1537 M1043.38 44.6451 Q1043.38 45.6024 1043.5 45.9421 Q1043.66 46.2817 1044.28 47.3008 Q1046.78 51.1298 1050.85 51.1298 Q1050.88 51.1298 1050.92 51.1298 Q1054.53 51.1298 1057.28 47.4552 Q1060.02 43.7496 1060.02 38.1914 Q1060.02 32.8802 1057.52 29.1747 Q1055.02 25.4692 1051.56 25.4692 Q1049.09 25.4692 1046.93 26.797 Q1044.77 28.1248 1043.38 30.5334 L1043.38 44.6451 Z" fill="#000000" fill-rule="evenodd" fill-opacity="1" /><path clip-path="url(#clip170)" d="M 0 0 M1064.72 59.6833 Q1064.72 58.3555 1065.49 57.6453 Q1066.29 56.9659 1067.37 56.9659 Q1068.52 56.9659 1069.26 57.6762 Q1070.03 58.4173 1070.03 59.6216 Q1070.03 61.9684 1067.56 62.2772 Q1068.76 63.4197 1070.52 63.4197 Q1072.41 63.4197 1073.92 62.0301 Q1075.46 60.6406 1076.11 59.3128 Q1076.79 57.985 1077.75 55.5764 Q1078.64 53.6928 1079.32 51.84 L1069.84 28.7424 Q1069.23 27.2293 1068.27 26.8896 Q1067.31 26.5499 1064.72 26.5499 L1064.72 24.5737 Q1067.56 24.7589 1070.86 24.7589 Q1072.81 24.7589 1077.75 24.5737 L1077.75 26.5499 Q1074.2 26.5499 1074.2 28.1865 Q1074.2 28.3718 1074.57 29.3291 L1081.61 46.3435 L1088 30.7804 Q1088.37 29.8849 1088.37 29.2673 Q1088.37 26.6735 1085.41 26.5499 L1085.41 24.5737 Q1089.58 24.7589 1090.9 24.7589 Q1093.5 24.7589 1095.63 24.5737 L1095.63 26.5499 Q1091.4 26.5499 1089.76 30.5951 L1078.61 57.5835 Q1075.59 64.7784 1070.52 64.8093 Q1068.11 64.8093 1066.42 63.3271 Q1064.72 61.8449 1064.72 59.6833 Z" fill="#000000" fill-rule="evenodd" fill-opacity="1" /><path clip-path="url(#clip170)" d="M 0 0 M1122.83 48.3815 Q1118.82 44.182 1118.82 38.1914 Q1118.82 32.1699 1122.77 27.8469 Q1126.72 23.4929 1132.53 23.4929 Q1136.39 23.4929 1139.29 25.3456 Q1142.19 27.1675 1142.19 30.2863 Q1142.19 31.6759 1141.36 32.4787 Q1140.56 33.2507 1139.29 33.2507 Q1137.96 33.2507 1137.16 32.4479 Q1136.39 31.6141 1136.39 30.3481 Q1136.39 29.7923 1136.57 29.2364 Q1136.76 28.6806 1137.44 28.0939 Q1138.15 27.5072 1139.35 27.4146 Q1137.1 25.0986 1132.71 25.0986 Q1132.65 25.0986 1132.59 25.0986 Q1129.38 25.0986 1126.72 28.1248 Q1124.07 31.1509 1124.07 38.0679 Q1124.07 41.6807 1124.93 44.3364 Q1125.83 46.9611 1127.28 48.3198 Q1128.73 49.6785 1130.15 50.3269 Q1131.57 50.9445 1132.96 50.9445 Q1139.17 50.9445 1141.27 44.3055 Q1141.45 43.6879 1142.07 43.6879 Q1142.9 43.6879 1142.9 44.3055 Q1142.9 44.6143 1142.66 45.4171 Q1142.41 46.22 1141.64 47.486 Q1140.87 48.7521 1139.75 49.8637 Q1138.67 50.9445 1136.73 51.7474 Q1134.81 52.5502 1132.41 52.5502 Q1126.85 52.5502 1122.83 48.3815 Z" fill="#000000" fill-rule="evenodd" fill-opacity="1" /><path clip-path="url(#clip170)" d="M 0 0 M1143.18 51.84 L1143.18 49.8946 Q1146.55 49.8946 1147.32 49.4932 Q1148.09 49.0609 1148.09 47.0228 L1148.09 14.1365 Q1148.09 11.7897 1147.26 11.203 Q1146.46 10.6163 1143.18 10.6163 L1143.18 8.64 L1152.26 7.96066 L1152.26 29.9466 L1152.32 29.9466 Q1153.34 27.6616 1155.63 25.778 Q1157.91 23.8943 1161.43 23.8943 Q1166.19 23.8943 1168.07 26.2411 Q1169.46 27.816 1169.74 29.5761 Q1170.05 31.3362 1170.05 35.9063 L1170.05 47.9801 Q1170.11 49.3079 1171.13 49.6167 Q1172.15 49.8946 1174.99 49.8946 L1174.99 51.84 Q1168.53 51.6547 1167.89 51.6547 Q1167.39 51.6547 1160.75 51.84 L1160.75 49.8946 Q1164.12 49.8946 1164.89 49.4932 Q1165.69 49.0609 1165.69 47.0228 L1165.69 32.2935 Q1165.69 29.082 1164.71 27.1984 Q1163.72 25.2839 1161 25.2839 Q1157.73 25.2839 1155.1 28.0321 Q1152.48 30.7804 1152.48 35.4123 L1152.48 47.0228 Q1152.48 49.0609 1153.25 49.4932 Q1154.05 49.8946 1157.39 49.8946 L1157.39 51.84 Q1150.93 51.6547 1150.32 51.6547 Q1149.82 51.6547 1143.18 51.84 Z" fill="#000000" fill-rule="evenodd" fill-opacity="1" /><path clip-path="url(#clip170)" d="M 0 0 M1177.64 45.8186 Q1177.64 40.4456 1183.97 37.6047 Q1187.77 35.7828 1195.62 35.3196 L1195.62 33.0037 Q1195.62 29.082 1193.55 27.0131 Q1191.51 24.9133 1188.91 24.9133 Q1184.28 24.9133 1182.06 27.816 Q1183.94 27.8777 1184.62 28.835 Q1185.3 29.7614 1185.3 30.7186 Q1185.3 31.9847 1184.5 32.8184 Q1183.73 33.6213 1182.4 33.6213 Q1181.13 33.6213 1180.3 32.8493 Q1179.47 32.0464 1179.47 30.6569 Q1179.47 27.5689 1182.24 25.5309 Q1185.05 23.4929 1189.04 23.4929 Q1194.23 23.4929 1197.68 26.9822 Q1198.76 28.063 1199.29 29.4526 Q1199.85 30.8421 1199.91 31.7685 Q1199.97 32.664 1199.97 34.455 L1199.97 47.0846 Q1199.97 47.4552 1200.09 48.0727 Q1200.22 48.6903 1200.77 49.4932 Q1201.36 50.2652 1202.32 50.2652 Q1204.6 50.2652 1204.57 46.22 L1204.57 42.6689 L1206.18 42.6689 L1206.18 46.22 Q1206.18 49.5858 1204.38 50.9136 Q1202.62 52.2106 1200.99 52.2106 Q1198.89 52.2106 1197.56 50.6666 Q1196.23 49.1226 1196.05 47.0228 Q1195.09 49.4314 1192.9 51.0063 Q1190.74 52.5502 1187.77 52.5502 Q1185.49 52.5502 1183.33 51.9635 Q1181.19 51.4077 1179.4 49.8329 Q1177.64 48.2271 1177.64 45.8186 M1182.52 45.7568 Q1182.52 48.1036 1184.19 49.6167 Q1185.86 51.1298 1188.2 51.1298 Q1190.86 51.1298 1193.24 49.0918 Q1195.62 47.0228 1195.62 42.9777 L1195.62 36.6474 Q1188.61 36.8945 1185.55 39.7045 Q1182.52 42.4836 1182.52 45.7568 Z" fill="#000000" fill-rule="evenodd" fill-opacity="1" /><path clip-path="url(#clip170)" d="M 0 0 M1208.21 51.84 L1208.21 49.8946 Q1211.58 49.8946 1212.35 49.4932 Q1213.12 49.0609 1213.12 47.0228 L1213.12 30.0702 Q1213.12 27.7233 1212.29 27.1366 Q1211.49 26.5499 1208.21 26.5499 L1208.21 24.5737 L1217.11 23.8943 L1217.11 30.5334 Q1220.07 23.8943 1226.46 23.8943 Q1231.22 23.8943 1233.1 26.2411 Q1234.49 27.816 1234.77 29.5761 Q1235.08 31.3362 1235.08 35.9063 L1235.08 47.9801 Q1235.14 49.3079 1236.16 49.6167 Q1237.18 49.8946 1240.02 49.8946 L1240.02 51.84 Q1233.57 51.6547 1232.92 51.6547 Q1232.42 51.6547 1225.78 51.84 L1225.78 49.8946 Q1229.15 49.8946 1229.92 49.4932 Q1230.72 49.0609 1230.72 47.0228 L1230.72 32.2935 Q1230.72 29.082 1229.74 27.1984 Q1228.75 25.2839 1226.03 25.2839 Q1222.76 25.2839 1220.13 28.0321 Q1217.51 30.7804 1217.51 35.4123 L1217.51 47.0228 Q1217.51 49.0609 1218.28 49.4932 Q1219.08 49.8946 1222.42 49.8946 L1222.42 51.84 Q1215.96 51.6547 1215.35 51.6547 Q1214.85 51.6547 1208.21 51.84 Z" fill="#000000" fill-rule="evenodd" fill-opacity="1" /><path clip-path="url(#clip170)" d="M 0 0 M1241.78 56.8424 Q1241.78 54.8044 1243.32 53.0443 Q1244.9 51.2842 1247.62 50.5122 Q1244.84 48.7521 1244.84 44.8922 Q1244.84 41.9278 1246.78 39.6427 Q1243.82 37.1724 1243.82 33.1272 Q1243.82 29.3908 1246.78 26.6426 Q1249.75 23.8943 1254.07 23.8943 Q1257.87 23.8943 1260.77 26.1794 Q1263.8 23.215 1267.47 23.1841 Q1269.11 23.1841 1269.88 24.2031 Q1270.68 25.2221 1270.68 26.3029 Q1270.68 27.2602 1270.06 27.7233 Q1269.48 28.1865 1268.86 28.1865 Q1268.09 28.1865 1267.53 27.6925 Q1267.01 27.1675 1267.01 26.3647 Q1267.01 25.0369 1268.03 24.6354 Q1267.84 24.5737 1267.41 24.5737 Q1264.32 24.5737 1261.7 27.044 Q1264.29 29.4526 1264.29 33.189 Q1264.29 36.9253 1261.33 39.6736 Q1258.36 42.4218 1254.07 42.4218 Q1250.52 42.4218 1247.8 40.4456 Q1246.72 41.7116 1246.72 43.4409 Q1246.72 45.0157 1247.68 46.2509 Q1248.63 47.486 1250.09 47.6713 Q1250.52 47.7331 1254.81 47.7331 Q1257.34 47.7331 1258.73 47.7948 Q1260.12 47.8566 1262.1 48.2889 Q1264.11 48.6903 1265.68 49.4932 Q1269.79 51.7782 1269.82 56.7189 Q1269.82 60.3318 1265.65 62.586 Q1261.51 64.871 1255.77 64.871 Q1249.96 64.871 1245.86 62.5551 Q1241.78 60.27 1241.78 56.8424 M1245.08 56.8424 Q1245.08 59.4363 1248.14 61.4126 Q1251.2 63.4197 1255.83 63.4197 Q1260.37 63.4197 1263.43 61.4434 Q1266.51 59.498 1266.51 56.8424 Q1266.51 54.9588 1265.43 53.7545 Q1264.35 52.5502 1262.13 52.0562 Q1259.94 51.593 1258.39 51.5003 Q1256.85 51.4077 1254.01 51.4077 L1250.27 51.4077 Q1248.11 51.5312 1246.6 53.106 Q1245.08 54.6809 1245.08 56.8424 M1248.54 33.189 Q1248.54 40.9705 1254.07 40.9705 Q1256.85 40.9705 1258.55 38.4384 Q1259.57 36.7401 1259.57 33.1272 Q1259.57 25.3456 1254.07 25.3456 Q1251.29 25.3456 1249.56 27.8777 Q1248.54 29.5761 1248.54 33.189 Z" fill="#000000" fill-rule="evenodd" fill-opacity="1" /><path clip-path="url(#clip170)" d="M 0 0 M1272.44 37.9135 Q1272.44 31.9538 1276.27 27.7233 Q1280.1 23.4929 1285.6 23.4929 Q1291.16 23.4929 1294.03 27.1058 Q1296.93 30.7186 1296.93 35.9063 Q1296.93 36.8636 1296.68 37.0489 Q1296.44 37.2341 1295.35 37.2341 L1277.69 37.2341 Q1277.69 43.6879 1279.61 46.7141 Q1282.26 50.9445 1286.74 50.9445 Q1287.36 50.9445 1288.1 50.821 Q1288.84 50.6975 1290.35 50.1725 Q1291.87 49.6167 1293.19 48.1654 Q1294.52 46.7141 1295.29 44.429 Q1295.48 43.5335 1296.1 43.5644 Q1296.93 43.5644 1296.93 44.3055 Q1296.93 44.8613 1296.31 46.1273 Q1295.73 47.3625 1294.58 48.8447 Q1293.44 50.3269 1291.22 51.4386 Q1289.02 52.5502 1286.37 52.5502 Q1280.81 52.5502 1276.61 48.3507 Q1272.44 44.1202 1272.44 37.9135 M1277.75 35.9063 L1292.76 35.9063 Q1292.76 34.5785 1292.51 33.0963 Q1292.3 31.6141 1291.62 29.5761 Q1290.97 27.5072 1289.43 26.2103 Q1287.88 24.9133 1285.6 24.9133 Q1284.58 24.9133 1283.47 25.3456 Q1282.39 25.778 1281.06 26.8278 Q1279.73 27.8777 1278.8 30.2554 Q1277.88 32.6331 1277.75 35.9063 Z" fill="#000000" fill-rule="evenodd" fill-opacity="1" /><path clip-path="url(#clip170)" d="M 0 0 M1320.61 45.8186 Q1320.61 40.4456 1326.94 37.6047 Q1330.74 35.7828 1338.59 35.3196 L1338.59 33.0037 Q1338.59 29.082 1336.52 27.0131 Q1334.48 24.9133 1331.89 24.9133 Q1327.25 24.9133 1325.03 27.816 Q1326.91 27.8777 1327.59 28.835 Q1328.27 29.7614 1328.27 30.7186 Q1328.27 31.9847 1327.47 32.8184 Q1326.7 33.6213 1325.37 33.6213 Q1324.1 33.6213 1323.27 32.8493 Q1322.44 32.0464 1322.44 30.6569 Q1322.44 27.5689 1325.22 25.5309 Q1328.03 23.4929 1332.01 23.4929 Q1337.2 23.4929 1340.65 26.9822 Q1341.74 28.063 1342.26 29.4526 Q1342.82 30.8421 1342.88 31.7685 Q1342.94 32.664 1342.94 34.455 L1342.94 47.0846 Q1342.94 47.4552 1343.06 48.0727 Q1343.19 48.6903 1343.74 49.4932 Q1344.33 50.2652 1345.29 50.2652 Q1347.57 50.2652 1347.54 46.22 L1347.54 42.6689 L1349.15 42.6689 L1349.15 46.22 Q1349.15 49.5858 1347.36 50.9136 Q1345.6 52.2106 1343.96 52.2106 Q1341.86 52.2106 1340.53 50.6666 Q1339.2 49.1226 1339.02 47.0228 Q1338.06 49.4314 1335.87 51.0063 Q1333.71 52.5502 1330.74 52.5502 Q1328.46 52.5502 1326.3 51.9635 Q1324.17 51.4077 1322.37 49.8329 Q1320.61 48.2271 1320.61 45.8186 M1325.49 45.7568 Q1325.49 48.1036 1327.16 49.6167 Q1328.83 51.1298 1331.17 51.1298 Q1333.83 51.1298 1336.21 49.0918 Q1338.59 47.0228 1338.59 42.9777 L1338.59 36.6474 Q1331.58 36.8945 1328.52 39.7045 Q1325.49 42.4836 1325.49 45.7568 Z" fill="#000000" fill-rule="evenodd" fill-opacity="1" /><path clip-path="url(#clip170)" d="M 0 0 M1355.32 48.3815 Q1351.31 44.182 1351.31 38.1914 Q1351.31 32.1699 1355.26 27.8469 Q1359.21 23.4929 1365.02 23.4929 Q1368.88 23.4929 1371.78 25.3456 Q1374.68 27.1675 1374.68 30.2863 Q1374.68 31.6759 1373.85 32.4787 Q1373.05 33.2507 1371.78 33.2507 Q1370.45 33.2507 1369.65 32.4479 Q1368.88 31.6141 1368.88 30.3481 Q1368.88 29.7923 1369.06 29.2364 Q1369.25 28.6806 1369.93 28.0939 Q1370.64 27.5072 1371.84 27.4146 Q1369.59 25.0986 1365.2 25.0986 Q1365.14 25.0986 1365.08 25.0986 Q1361.87 25.0986 1359.21 28.1248 Q1356.56 31.1509 1356.56 38.0679 Q1356.56 41.6807 1357.42 44.3364 Q1358.32 46.9611 1359.77 48.3198 Q1361.22 49.6785 1362.64 50.3269 Q1364.06 50.9445 1365.45 50.9445 Q1371.66 50.9445 1373.76 44.3055 Q1373.94 43.6879 1374.56 43.6879 Q1375.39 43.6879 1375.39 44.3055 Q1375.39 44.6143 1375.15 45.4171 Q1374.9 46.22 1374.13 47.486 Q1373.36 48.7521 1372.24 49.8637 Q1371.16 50.9445 1369.22 51.7474 Q1367.3 52.5502 1364.89 52.5502 Q1359.34 52.5502 1355.32 48.3815 Z" fill="#000000" fill-rule="evenodd" fill-opacity="1" /><path clip-path="url(#clip170)" d="M 0 0 M1377.15 51.84 L1377.15 49.8946 Q1380.52 49.8946 1381.29 49.4932 Q1382.09 49.0609 1382.09 47.0228 L1382.09 30.0702 Q1382.09 27.7233 1381.26 27.1366 Q1380.46 26.5499 1377.15 26.5499 L1377.15 24.5737 L1385.95 23.8943 L1385.95 30.8421 Q1386.85 28.1248 1388.73 26.025 Q1390.65 23.8943 1393.74 23.8943 Q1395.77 23.8943 1397.07 25.0369 Q1398.4 26.1794 1398.4 27.7542 Q1398.4 29.1438 1397.53 29.854 Q1396.7 30.5334 1395.68 30.5334 Q1394.54 30.5334 1393.74 29.8231 Q1392.96 29.082 1392.96 27.816 Q1392.96 27.044 1393.3 26.4573 Q1393.67 25.8397 1393.95 25.6236 Q1394.23 25.4074 1394.42 25.3456 Q1394.29 25.2839 1393.74 25.2839 Q1390.25 25.2839 1388.24 28.7732 Q1386.26 32.2317 1386.26 37.1724 L1386.26 46.8993 Q1386.26 48.7212 1387 49.3079 Q1387.78 49.8946 1391.08 49.8946 L1392.41 49.8946 L1392.41 51.84 Q1389.88 51.6547 1384.38 51.6547 Q1383.61 51.6547 1382.4 51.6856 Q1381.2 51.7165 1379.62 51.7782 Q1378.05 51.84 1377.15 51.84 Z" fill="#000000" fill-rule="evenodd" fill-opacity="1" /><path clip-path="url(#clip170)" d="M 0 0 M1404.33 48.4433 Q1400.16 44.3055 1400.16 38.3149 Q1400.16 32.2935 1404.24 27.9086 Q1408.34 23.4929 1414.21 23.4929 Q1419.95 23.4929 1424.06 27.8777 Q1428.2 32.2317 1428.2 38.3149 Q1428.2 44.2746 1424.03 48.4124 Q1419.89 52.5502 1414.15 52.5502 Q1408.53 52.5502 1404.33 48.4433 M1405.41 37.79 Q1405.41 43.9349 1407.01 46.7141 Q1409.48 50.9445 1414.21 50.9445 Q1416.56 50.9445 1418.5 49.6785 Q1420.48 48.4124 1421.56 46.2817 Q1422.95 43.5026 1422.95 37.79 Q1422.95 31.7068 1421.28 29.0203 Q1418.81 24.9133 1414.15 24.9133 Q1412.11 24.9133 1410.1 25.9941 Q1408.13 27.044 1406.92 29.1438 Q1405.41 31.9229 1405.41 37.79 Z" fill="#000000" fill-rule="evenodd" fill-opacity="1" /><path clip-path="url(#clip170)" d="M 0 0 M1430.3 51.0063 L1430.3 42.6689 Q1430.3 41.9587 1430.33 41.7116 Q1430.36 41.4646 1430.54 41.2793 Q1430.73 41.094 1431.1 41.094 Q1431.53 41.094 1431.69 41.2793 Q1431.87 41.4646 1432 42.1748 Q1432.95 46.5288 1434.99 48.8447 Q1437.06 51.1298 1440.8 51.1298 Q1444.35 51.1298 1446.14 49.5549 Q1447.93 47.9801 1447.93 45.3862 Q1447.93 40.7544 1441.35 39.581 Q1437.55 38.809 1435.98 38.3149 Q1434.4 37.79 1433.01 36.6474 Q1430.3 34.4241 1430.3 31.2745 Q1430.3 28.1248 1432.67 25.8088 Q1435.08 23.4929 1440.39 23.4929 Q1443.95 23.4929 1446.35 25.2839 Q1447.06 24.7281 1447.44 24.2649 Q1448.27 23.4929 1448.7 23.4929 Q1449.2 23.4929 1449.29 23.8326 Q1449.38 24.1414 1449.38 25.0369 L1449.38 31.398 Q1449.38 32.1082 1449.35 32.3552 Q1449.32 32.6023 1449.13 32.7875 Q1448.95 32.9419 1448.55 32.9419 Q1447.84 32.9419 1447.81 32.3552 Q1447.31 24.6972 1440.39 24.6972 Q1436.66 24.6972 1434.99 26.1485 Q1433.32 27.5689 1433.32 29.5143 Q1433.32 30.5951 1433.82 31.4288 Q1434.34 32.2317 1434.99 32.7258 Q1435.67 33.189 1436.91 33.6522 Q1438.14 34.0845 1438.88 34.2389 Q1439.65 34.3933 1441.1 34.702 Q1446.17 35.6593 1448.3 37.7282 Q1450.96 40.3838 1450.96 43.7496 Q1450.96 47.486 1448.42 50.0181 Q1445.89 52.5502 1440.8 52.5502 Q1436.69 52.5502 1433.82 49.802 Q1433.45 50.1725 1433.17 50.5122 Q1432.89 50.821 1432.77 50.9445 Q1432.67 51.068 1432.64 51.1607 Q1432.61 51.2224 1432.55 51.2842 Q1431.29 52.5502 1430.98 52.5502 Q1430.48 52.5502 1430.39 52.2106 Q1430.3 51.9018 1430.3 51.0063 Z" fill="#000000" fill-rule="evenodd" fill-opacity="1" /><path clip-path="url(#clip170)" d="M 0 0 M1453.06 51.0063 L1453.06 42.6689 Q1453.06 41.9587 1453.09 41.7116 Q1453.12 41.4646 1453.3 41.2793 Q1453.49 41.094 1453.86 41.094 Q1454.29 41.094 1454.44 41.2793 Q1454.63 41.4646 1454.75 42.1748 Q1455.71 46.5288 1457.75 48.8447 Q1459.82 51.1298 1463.55 51.1298 Q1467.11 51.1298 1468.9 49.5549 Q1470.69 47.9801 1470.69 45.3862 Q1470.69 40.7544 1464.11 39.581 Q1460.31 38.809 1458.74 38.3149 Q1457.16 37.79 1455.77 36.6474 Q1453.06 34.4241 1453.06 31.2745 Q1453.06 28.1248 1455.43 25.8088 Q1457.84 23.4929 1463.15 23.4929 Q1466.7 23.4929 1469.11 25.2839 Q1469.82 24.7281 1470.19 24.2649 Q1471.03 23.4929 1471.46 23.4929 Q1471.95 23.4929 1472.05 23.8326 Q1472.14 24.1414 1472.14 25.0369 L1472.14 31.398 Q1472.14 32.1082 1472.11 32.3552 Q1472.08 32.6023 1471.89 32.7875 Q1471.71 32.9419 1471.3 32.9419 Q1470.59 32.9419 1470.56 32.3552 Q1470.07 24.6972 1463.15 24.6972 Q1459.42 24.6972 1457.75 26.1485 Q1456.08 27.5689 1456.08 29.5143 Q1456.08 30.5951 1456.58 31.4288 Q1457.1 32.2317 1457.75 32.7258 Q1458.43 33.189 1459.66 33.6522 Q1460.9 34.0845 1461.64 34.2389 Q1462.41 34.3933 1463.86 34.702 Q1468.93 35.6593 1471.06 37.7282 Q1473.71 40.3838 1473.71 43.7496 Q1473.71 47.486 1471.18 50.0181 Q1468.65 52.5502 1463.55 52.5502 Q1459.45 52.5502 1456.58 49.802 Q1456.2 50.1725 1455.93 50.5122 Q1455.65 50.821 1455.53 50.9445 Q1455.43 51.068 1455.4 51.1607 Q1455.37 51.2224 1455.31 51.2842 Q1454.04 52.5502 1453.73 52.5502 Q1453.24 52.5502 1453.15 52.2106 Q1453.06 51.9018 1453.06 51.0063 Z" fill="#000000" fill-rule="evenodd" fill-opacity="1" /><path clip-path="url(#clip170)" d="M 0 0 M1497.4 45.8186 Q1497.4 40.4456 1503.73 37.6047 Q1507.53 35.7828 1515.37 35.3196 L1515.37 33.0037 Q1515.37 29.082 1513.3 27.0131 Q1511.26 24.9133 1508.67 24.9133 Q1504.04 24.9133 1501.81 27.816 Q1503.7 27.8777 1504.38 28.835 Q1505.06 29.7614 1505.06 30.7186 Q1505.06 31.9847 1504.25 32.8184 Q1503.48 33.6213 1502.15 33.6213 Q1500.89 33.6213 1500.05 32.8493 Q1499.22 32.0464 1499.22 30.6569 Q1499.22 27.5689 1502 25.5309 Q1504.81 23.4929 1508.79 23.4929 Q1513.98 23.4929 1517.44 26.9822 Q1518.52 28.063 1519.04 29.4526 Q1519.6 30.8421 1519.66 31.7685 Q1519.72 32.664 1519.72 34.455 L1519.72 47.0846 Q1519.72 47.4552 1519.85 48.0727 Q1519.97 48.6903 1520.53 49.4932 Q1521.11 50.2652 1522.07 50.2652 Q1524.36 50.2652 1524.32 46.22 L1524.32 42.6689 L1525.93 42.6689 L1525.93 46.22 Q1525.93 49.5858 1524.14 50.9136 Q1522.38 52.2106 1520.74 52.2106 Q1518.64 52.2106 1517.31 50.6666 Q1515.99 49.1226 1515.8 47.0228 Q1514.84 49.4314 1512.65 51.0063 Q1510.49 52.5502 1507.53 52.5502 Q1505.24 52.5502 1503.08 51.9635 Q1500.95 51.4077 1499.16 49.8329 Q1497.4 48.2271 1497.4 45.8186 M1502.28 45.7568 Q1502.28 48.1036 1503.94 49.6167 Q1505.61 51.1298 1507.96 51.1298 Q1510.61 51.1298 1512.99 49.0918 Q1515.37 47.0228 1515.37 42.9777 L1515.37 36.6474 Q1508.36 36.8945 1505.3 39.7045 Q1502.28 42.4836 1502.28 45.7568 Z" fill="#000000" fill-rule="evenodd" fill-opacity="1" /><path clip-path="url(#clip170)" d="M 0 0 M1549.06 51.0063 L1549.06 42.6689 Q1549.06 41.9587 1549.09 41.7116 Q1549.12 41.4646 1549.31 41.2793 Q1549.49 41.094 1549.86 41.094 Q1550.29 41.094 1550.45 41.2793 Q1550.63 41.4646 1550.76 42.1748 Q1551.71 46.5288 1553.75 48.8447 Q1555.82 51.1298 1559.56 51.1298 Q1563.11 51.1298 1564.9 49.5549 Q1566.69 47.9801 1566.69 45.3862 Q1566.69 40.7544 1560.11 39.581 Q1556.32 38.809 1554.74 38.3149 Q1553.17 37.79 1551.78 36.6474 Q1549.06 34.4241 1549.06 31.2745 Q1549.06 28.1248 1551.44 25.8088 Q1553.84 23.4929 1559.16 23.4929 Q1562.71 23.4929 1565.12 25.2839 Q1565.83 24.7281 1566.2 24.2649 Q1567.03 23.4929 1567.46 23.4929 Q1567.96 23.4929 1568.05 23.8326 Q1568.14 24.1414 1568.14 25.0369 L1568.14 31.398 Q1568.14 32.1082 1568.11 32.3552 Q1568.08 32.6023 1567.89 32.7875 Q1567.71 32.9419 1567.31 32.9419 Q1566.6 32.9419 1566.57 32.3552 Q1566.07 24.6972 1559.16 24.6972 Q1555.42 24.6972 1553.75 26.1485 Q1552.08 27.5689 1552.08 29.5143 Q1552.08 30.5951 1552.58 31.4288 Q1553.1 32.2317 1553.75 32.7258 Q1554.43 33.189 1555.67 33.6522 Q1556.9 34.0845 1557.64 34.2389 Q1558.41 34.3933 1559.87 34.702 Q1564.93 35.6593 1567.06 37.7282 Q1569.72 40.3838 1569.72 43.7496 Q1569.72 47.486 1567.18 50.0181 Q1564.65 52.5502 1559.56 52.5502 Q1555.45 52.5502 1552.58 49.802 Q1552.21 50.1725 1551.93 50.5122 Q1551.65 50.821 1551.53 50.9445 Q1551.44 51.068 1551.41 51.1607 Q1551.37 51.2224 1551.31 51.2842 Q1550.05 52.5502 1549.74 52.5502 Q1549.24 52.5502 1549.15 52.2106 Q1549.06 51.9018 1549.06 51.0063 Z" fill="#000000" fill-rule="evenodd" fill-opacity="1" /><path clip-path="url(#clip170)" d="M 0 0 M1571.75 51.84 L1571.75 49.8946 Q1575.12 49.8946 1575.89 49.4932 Q1576.66 49.0609 1576.66 47.0228 L1576.66 14.1365 Q1576.66 11.7897 1575.83 11.203 Q1575.03 10.6163 1571.75 10.6163 L1571.75 8.64 L1580.83 7.96066 L1580.83 29.9466 L1580.89 29.9466 Q1581.91 27.6616 1584.2 25.778 Q1586.48 23.8943 1590 23.8943 Q1594.76 23.8943 1596.64 26.2411 Q1598.03 27.816 1598.31 29.5761 Q1598.62 31.3362 1598.62 35.9063 L1598.62 47.9801 Q1598.68 49.3079 1599.7 49.6167 Q1600.72 49.8946 1603.56 49.8946 L1603.56 51.84 Q1597.11 51.6547 1596.46 51.6547 Q1595.96 51.6547 1589.32 51.84 L1589.32 49.8946 Q1592.69 49.8946 1593.46 49.4932 Q1594.27 49.0609 1594.27 47.0228 L1594.27 32.2935 Q1594.27 29.082 1593.28 27.1984 Q1592.29 25.2839 1589.57 25.2839 Q1586.3 25.2839 1583.67 28.0321 Q1581.05 30.7804 1581.05 35.4123 L1581.05 47.0228 Q1581.05 49.0609 1581.82 49.4932 Q1582.62 49.8946 1585.96 49.8946 L1585.96 51.84 Q1579.51 51.6547 1578.89 51.6547 Q1578.39 51.6547 1571.75 51.84 Z" fill="#000000" fill-rule="evenodd" fill-opacity="1" /><path clip-path="url(#clip170)" d="M 0 0 M1609.49 48.4433 Q1605.32 44.3055 1605.32 38.3149 Q1605.32 32.2935 1609.4 27.9086 Q1613.5 23.4929 1619.37 23.4929 Q1625.11 23.4929 1629.22 27.8777 Q1633.36 32.2317 1633.36 38.3149 Q1633.36 44.2746 1629.19 48.4124 Q1625.05 52.5502 1619.31 52.5502 Q1613.69 52.5502 1609.49 48.4433 M1610.57 37.79 Q1610.57 43.9349 1612.18 46.7141 Q1614.65 50.9445 1619.37 50.9445 Q1621.72 50.9445 1623.66 49.6785 Q1625.64 48.4124 1626.72 46.2817 Q1628.11 43.5026 1628.11 37.79 Q1628.11 31.7068 1626.44 29.0203 Q1623.97 24.9133 1619.31 24.9133 Q1617.27 24.9133 1615.26 25.9941 Q1613.29 27.044 1612.08 29.1438 Q1610.57 31.9229 1610.57 37.79 Z" fill="#000000" fill-rule="evenodd" fill-opacity="1" /><path clip-path="url(#clip170)" d="M 0 0 M1641.29 48.3815 Q1637.28 44.182 1637.28 38.1914 Q1637.28 32.1699 1641.23 27.8469 Q1645.19 23.4929 1650.99 23.4929 Q1654.85 23.4929 1657.75 25.3456 Q1660.66 27.1675 1660.66 30.2863 Q1660.66 31.6759 1659.82 32.4787 Q1659.02 33.2507 1657.75 33.2507 Q1656.43 33.2507 1655.62 32.4479 Q1654.85 31.6141 1654.85 30.3481 Q1654.85 29.7923 1655.04 29.2364 Q1655.22 28.6806 1655.9 28.0939 Q1656.61 27.5072 1657.81 27.4146 Q1655.56 25.0986 1651.18 25.0986 Q1651.11 25.0986 1651.05 25.0986 Q1647.84 25.0986 1645.19 28.1248 Q1642.53 31.1509 1642.53 38.0679 Q1642.53 41.6807 1643.39 44.3364 Q1644.29 46.9611 1645.74 48.3198 Q1647.19 49.6785 1648.61 50.3269 Q1650.03 50.9445 1651.42 50.9445 Q1657.63 50.9445 1659.73 44.3055 Q1659.91 43.6879 1660.53 43.6879 Q1661.37 43.6879 1661.37 44.3055 Q1661.37 44.6143 1661.12 45.4171 Q1660.87 46.22 1660.1 47.486 Q1659.33 48.7521 1658.22 49.8637 Q1657.14 50.9445 1655.19 51.7474 Q1653.28 52.5502 1650.87 52.5502 Q1645.31 52.5502 1641.29 48.3815 Z" fill="#000000" fill-rule="evenodd" fill-opacity="1" /><path clip-path="url(#clip170)" d="M 0 0 M1661.37 51.84 L1661.37 49.8946 Q1664.73 49.8946 1665.5 49.4932 Q1666.31 49.0609 1666.31 47.0228 L1666.31 14.1365 Q1666.31 11.7897 1665.47 11.203 Q1664.67 10.6163 1661.37 10.6163 L1661.37 8.64 L1670.48 7.96066 L1670.48 38.3149 L1679.4 30.5951 Q1680.79 29.3908 1680.79 28.1248 Q1680.79 26.6735 1678.97 26.5499 L1678.97 24.5737 Q1681.62 24.7589 1686.04 24.7589 Q1688.63 24.7589 1690.45 24.5737 L1690.45 26.5499 Q1686.47 26.7352 1682.49 29.9466 Q1681.59 30.6569 1679.46 32.5096 Q1677.36 34.3315 1677.36 34.5168 Q1677.36 34.5785 1677.42 34.7329 Q1677.52 34.8873 1677.64 35.0108 Q1677.76 35.1344 1677.76 35.1961 L1685.79 46.5288 Q1687.43 48.8138 1688.63 49.3697 Q1689.84 49.8946 1691.94 49.8946 L1691.94 51.84 Q1689.22 51.6547 1686.41 51.6547 Q1684.9 51.6547 1679.58 51.84 L1679.58 49.8946 Q1681.87 49.8946 1681.87 48.4124 Q1681.87 47.3934 1676.74 40.3221 Q1676.37 39.828 1675.54 38.7472 Q1674.77 37.6047 1674.34 37.0489 L1670.29 40.5073 L1670.29 47.0228 Q1670.29 49.0609 1671.06 49.4932 Q1671.87 49.8946 1675.23 49.8946 L1675.23 51.84 Q1671.43 51.6547 1668.28 51.6547 Q1667.63 51.6547 1661.37 51.84 Z" fill="#000000" fill-rule="evenodd" fill-opacity="1" /><polyline clip-path="url(#clip172)" style="stroke:#4477aa; stroke-width:4.8; stroke-opacity:1; fill:none" points="
  487.396,778.097 596.248,777.158 688.281,773.93 738.268,770.211 788.255,765.181 834.339,759.512 880.422,752.987 979.235,736.698 1093.72,715.058 1195.46,694.324 
  1284.68,675.512 1381.95,654.713 1479.8,633.761 1587.98,610.801 1690.91,589.311 1797.94,567.442 1888.04,549.457 1998.03,528.061 2101.43,508.526 2267.09,478.4 
  2292.58,473.89 
  "/>
<polyline clip-path="url(#clip172)" style="stroke:#ee6677; stroke-width:4.8; stroke-opacity:1; fill:none" points="
  286.675,1373.31 289.124,1298.17 291.572,1238.95 294.021,1190.61 296.47,1150.15 298.918,1115.65 301.367,1085.82 302.591,1072.35 303.816,1059.73 305.04,1047.86 
  306.264,1036.69 311.925,992.505 317.585,957.745 323.245,929.769 328.906,906.87 340.226,871.975 351.547,847.124 362.868,828.995 374.188,815.563 385.509,805.515 
  396.83,797.961 419.471,788.004 442.113,782.46 464.754,779.517 487.396,778.094 541.822,777.361 596.248,777.146 642.265,776.012 688.281,773.574 788.255,763.447 
  880.422,748.759 979.235,728.435 1093.72,700.499 1195.46,672.928 1284.68,647.341 1381.95,618.5 1479.8,588.932 1587.98,556.002 1690.91,524.736 1797.94,492.524 
  1888.04,465.764 1998.03,433.639 2101.43,404.058 2267.09,358.022 2292.58,351.09 
  "/>
<polyline clip-path="url(#clip172)" style="stroke:#228833; stroke-width:4.8; stroke-opacity:1; fill:none" points="
  286.675,1066.24 289.124,1047.56 291.572,1030.34 294.021,1014.44 296.47,999.707 298.918,986.045 301.367,973.351 303.816,961.538 306.264,950.529 317.585,908.307 
  328.906,876.966 340.226,853.321 351.547,835.277 374.188,810.689 396.83,795.985 419.471,787.252 442.113,782.207 464.754,779.448 487.396,778.082 541.822,777.361 
  596.248,777.136 642.265,775.924 688.281,773.254 788.255,761.725 880.422,744.257 979.235,719.074 1093.72,682.959 1195.46,645.883 1284.68,610.364 1381.95,569.166 
  1479.8,525.763 1587.98,476.153 1690.91,427.904 1797.94,377.12 1888.04,334.157 1998.03,281.719 2101.43,232.657 2267.09,154.936 2292.58,143.099 
  "/>
<path clip-path="url(#clip170)" d="
M1788.17 512.54 L2281.88 512.54 L2281.88 149.66 L1788.17 149.66  Z
  " fill="#ffffff" fill-rule="evenodd" fill-opacity="0.9"/>
<polyline clip-path="url(#clip170)" style="stroke:#222255; stroke-width:4; stroke-opacity:0.1; fill:none" points="
  1788.17,512.54 2281.88,512.54 2281.88,149.66 1788.17,149.66 1788.17,512.54 
  "/>
<polyline clip-path="url(#clip170)" style="stroke:#4477aa; stroke-width:6; stroke-opacity:1; fill:none" points="
  1811.8,240.38 1953.55,240.38 
  "/>
<path clip-path="url(#clip170)" d="M 0 0 M1977.17 239.879 Q1977.17 238.657 1977.58 237.212 Q1978.02 235.729 1979.4 234.284 Q1980.77 232.839 1982.8 232.839 Q1986.73 232.839 1989.81 238.36 Q1992.88 243.844 1996.22 256.147 Q1997.74 250.774 2000.04 244.993 Q2000.96 242.733 2001.63 241.325 Q2002.3 239.879 2003.7 237.582 Q2005.11 235.248 2006.85 234.062 Q2008.59 232.839 2010.63 232.839 Q2012.23 232.839 2013.12 233.802 Q2014 234.729 2014 235.952 Q2014 237.767 2012.49 238.694 Q2011.97 238.99 2010.71 239.175 Q2009.45 239.361 2008.41 239.657 Q2007.37 239.954 2005.78 241.695 Q2004.19 243.4 2002.67 246.586 Q2000.78 250.514 1999.11 255.331 Q1997.44 260.149 1997.44 261.297 Q1997.44 261.816 1997.81 263.965 Q1998.22 266.077 1998.59 269.783 Q1998.96 273.525 1998.96 277.75 Q1998.96 278.676 1998.89 279.121 Q1998.74 280.121 1997.96 280.751 Q1997.22 281.418 1996.14 281.418 Q1993.25 281.418 1993.25 277.676 L1993.25 277.305 Q1993.25 274.044 1993.66 270.153 Q1994.11 266.3 1994.55 263.706 L1994.96 261.223 Q1994.96 259.63 1992.55 252.775 Q1990.18 245.882 1988.18 242.918 Q1985.73 239.212 1982.43 239.212 Q1980.91 239.212 1980.17 239.546 Q1979.47 239.879 1979.1 240.435 Q1978.77 240.954 1978.62 241.028 Q1978.17 241.325 1977.65 240.991 Q1977.17 240.621 1977.17 239.879 Z" fill="#000000" fill-rule="evenodd" fill-opacity="1" /><path clip-path="url(#clip170)" d="M 0 0 M2043.57 254.776 Q2043.65 253.849 2045.09 253.849 L2091.6 253.849 Q2093.78 253.849 2093.82 254.701 Q2093.82 255.628 2091.75 255.591 L2045.61 255.591 Q2043.57 255.628 2043.57 254.776 M2043.57 239.954 Q2043.57 239.027 2045.17 239.064 L2091.52 239.064 Q2093.78 239.064 2093.82 239.954 Q2093.82 240.806 2091.89 240.806 L2045.09 240.806 Q2043.57 240.806 2043.57 239.954 Z" fill="#000000" fill-rule="evenodd" fill-opacity="1" /><path clip-path="url(#clip170)" d="M 0 0 M2125.8 222.982 L2125.8 220.611 Q2134.92 220.611 2139.62 215.757 Q2140.92 215.757 2141.14 216.053 Q2141.36 216.35 2141.36 217.721 L2141.36 260.297 Q2141.36 262.557 2142.47 263.261 Q2143.59 263.965 2148.44 263.965 L2150.85 263.965 L2150.85 266.3 Q2148.18 266.077 2138.55 266.077 Q2128.91 266.077 2126.28 266.3 L2126.28 263.965 L2128.69 263.965 Q2133.47 263.965 2134.62 263.298 Q2135.77 262.594 2135.77 260.297 L2135.77 220.981 Q2131.8 222.982 2125.8 222.982 Z" fill="#000000" fill-rule="evenodd" fill-opacity="1" /><path clip-path="url(#clip170)" d="M 0 0 M2158.45 265.077 Q2157.3 263.854 2157.3 262.261 Q2157.3 260.667 2158.45 259.519 Q2159.59 258.333 2161.34 258.333 Q2163 258.333 2164.11 259.445 Q2165.26 260.519 2165.26 262.298 Q2165.26 264.039 2164.04 265.188 Q2162.85 266.3 2161.34 266.3 Q2159.59 266.3 2158.45 265.077 Z" fill="#000000" fill-rule="evenodd" fill-opacity="1" /><path clip-path="url(#clip170)" d="M 0 0 M2168.45 242.325 Q2168.45 230.393 2174.53 223.094 Q2180.6 215.757 2188.42 215.757 Q2192.98 215.757 2195.5 218.091 Q2198.06 220.389 2198.06 223.946 Q2198.06 225.91 2196.91 226.762 Q2195.76 227.614 2194.57 227.614 Q2193.2 227.614 2192.13 226.688 Q2191.05 225.762 2191.05 224.094 Q2191.05 220.685 2195.24 220.685 Q2193.28 217.646 2188.57 217.646 Q2187.13 217.646 2185.64 218.091 Q2184.16 218.499 2182.23 219.907 Q2180.31 221.315 2178.83 223.538 Q2177.34 225.762 2176.31 229.949 Q2175.27 234.136 2175.27 239.583 L2175.27 241.399 Q2178.38 233.877 2184.75 233.914 Q2191.13 233.914 2195.54 238.768 Q2199.95 243.622 2199.95 250.811 Q2199.95 258.185 2195.35 263.076 Q2190.76 267.967 2184.31 267.967 Q2181.42 267.967 2178.79 266.744 Q2176.19 265.559 2173.75 262.817 Q2171.34 260.074 2169.9 254.813 Q2168.45 249.551 2168.45 242.325 M2175.42 249.143 Q2175.42 256.591 2176.79 260.149 Q2177.01 260.741 2177.49 261.557 Q2178.01 262.372 2178.86 263.446 Q2179.75 264.484 2181.2 265.188 Q2182.64 265.855 2184.31 265.855 Q2189.39 265.855 2191.83 260.927 Q2193.13 258.185 2193.13 250.737 Q2193.13 243.14 2191.76 240.361 Q2189.42 235.655 2184.68 235.655 Q2181.49 235.655 2179.27 237.841 Q2177.08 240.028 2176.23 242.955 Q2175.42 245.882 2175.42 249.143 Z" fill="#000000" fill-rule="evenodd" fill-opacity="1" /><path clip-path="url(#clip170)" d="M 0 0 M2203.13 242.325 Q2203.13 230.393 2209.21 223.094 Q2215.29 215.757 2223.11 215.757 Q2227.66 215.757 2230.18 218.091 Q2232.74 220.389 2232.74 223.946 Q2232.74 225.91 2231.59 226.762 Q2230.44 227.614 2229.26 227.614 Q2227.89 227.614 2226.81 226.688 Q2225.74 225.762 2225.74 224.094 Q2225.74 220.685 2229.92 220.685 Q2227.96 217.646 2223.25 217.646 Q2221.81 217.646 2220.33 218.091 Q2218.85 218.499 2216.92 219.907 Q2214.99 221.315 2213.51 223.538 Q2212.03 225.762 2210.99 229.949 Q2209.95 234.136 2209.95 239.583 L2209.95 241.399 Q2213.06 233.877 2219.44 233.914 Q2225.81 233.914 2230.22 238.768 Q2234.63 243.622 2234.63 250.811 Q2234.63 258.185 2230.04 263.076 Q2225.44 267.967 2218.99 267.967 Q2216.1 267.967 2213.47 266.744 Q2210.88 265.559 2208.43 262.817 Q2206.02 260.074 2204.58 254.813 Q2203.13 249.551 2203.13 242.325 M2210.1 249.143 Q2210.1 256.591 2211.47 260.149 Q2211.69 260.741 2212.18 261.557 Q2212.69 262.372 2213.55 263.446 Q2214.44 264.484 2215.88 265.188 Q2217.33 265.855 2218.99 265.855 Q2224.07 265.855 2226.52 260.927 Q2227.81 258.185 2227.81 250.737 Q2227.81 243.14 2226.44 240.361 Q2224.11 235.655 2219.36 235.655 Q2216.18 235.655 2213.95 237.841 Q2211.77 240.028 2210.92 242.955 Q2210.1 245.882 2210.1 249.143 Z" fill="#000000" fill-rule="evenodd" fill-opacity="1" /><polyline clip-path="url(#clip170)" style="stroke:#ee6677; stroke-width:6; stroke-opacity:1; fill:none" points="
  1811.8,331.1 1953.55,331.1 
  "/>
<path clip-path="url(#clip170)" d="M 0 0 M1977.17 330.599 Q1977.17 329.377 1977.58 327.932 Q1978.02 326.449 1979.4 325.004 Q1980.77 323.559 1982.8 323.559 Q1986.73 323.559 1989.81 329.08 Q1992.88 334.564 1996.22 346.867 Q1997.74 341.494 2000.04 335.713 Q2000.96 333.453 2001.63 332.045 Q2002.3 330.599 2003.7 328.302 Q2005.11 325.968 2006.85 324.782 Q2008.59 323.559 2010.63 323.559 Q2012.23 323.559 2013.12 324.522 Q2014 325.449 2014 326.672 Q2014 328.487 2012.49 329.414 Q2011.97 329.71 2010.71 329.895 Q2009.45 330.081 2008.41 330.377 Q2007.37 330.674 2005.78 332.415 Q2004.19 334.12 2002.67 337.306 Q2000.78 341.234 1999.11 346.051 Q1997.44 350.869 1997.44 352.017 Q1997.44 352.536 1997.81 354.685 Q1998.22 356.797 1998.59 360.503 Q1998.96 364.245 1998.96 368.47 Q1998.96 369.396 1998.89 369.841 Q1998.74 370.841 1997.96 371.471 Q1997.22 372.138 1996.14 372.138 Q1993.25 372.138 1993.25 368.396 L1993.25 368.025 Q1993.25 364.764 1993.66 360.873 Q1994.11 357.02 1994.55 354.426 L1994.96 351.943 Q1994.96 350.35 1992.55 343.495 Q1990.18 336.602 1988.18 333.638 Q1985.73 329.932 1982.43 329.932 Q1980.91 329.932 1980.17 330.266 Q1979.47 330.599 1979.1 331.155 Q1978.77 331.674 1978.62 331.748 Q1978.17 332.045 1977.65 331.711 Q1977.17 331.341 1977.17 330.599 Z" fill="#000000" fill-rule="evenodd" fill-opacity="1" /><path clip-path="url(#clip170)" d="M 0 0 M2043.57 345.496 Q2043.65 344.569 2045.09 344.569 L2091.6 344.569 Q2093.78 344.569 2093.82 345.421 Q2093.82 346.348 2091.75 346.311 L2045.61 346.311 Q2043.57 346.348 2043.57 345.496 M2043.57 330.674 Q2043.57 329.747 2045.17 329.784 L2091.52 329.784 Q2093.78 329.784 2093.82 330.674 Q2093.82 331.526 2091.89 331.526 L2045.09 331.526 Q2043.57 331.526 2043.57 330.674 Z" fill="#000000" fill-rule="evenodd" fill-opacity="1" /><path clip-path="url(#clip170)" d="M 0 0 M2125.8 313.702 L2125.8 311.331 Q2134.92 311.331 2139.62 306.477 Q2140.92 306.477 2141.14 306.773 Q2141.36 307.07 2141.36 308.441 L2141.36 351.017 Q2141.36 353.277 2142.47 353.981 Q2143.59 354.685 2148.44 354.685 L2150.85 354.685 L2150.85 357.02 Q2148.18 356.797 2138.55 356.797 Q2128.91 356.797 2126.28 357.02 L2126.28 354.685 L2128.69 354.685 Q2133.47 354.685 2134.62 354.018 Q2135.77 353.314 2135.77 351.017 L2135.77 311.701 Q2131.8 313.702 2125.8 313.702 Z" fill="#000000" fill-rule="evenodd" fill-opacity="1" /><path clip-path="url(#clip170)" d="M 0 0 M2158.45 355.797 Q2157.3 354.574 2157.3 352.981 Q2157.3 351.387 2158.45 350.239 Q2159.59 349.053 2161.34 349.053 Q2163 349.053 2164.11 350.165 Q2165.26 351.239 2165.26 353.018 Q2165.26 354.759 2164.04 355.908 Q2162.85 357.02 2161.34 357.02 Q2159.59 357.02 2158.45 355.797 Z" fill="#000000" fill-rule="evenodd" fill-opacity="1" /><path clip-path="url(#clip170)" d="M 0 0 M2167.38 344.495 L2167.38 342.161 L2190.68 306.551 Q2191.28 305.624 2192.2 305.661 Q2193.05 305.661 2193.24 305.995 Q2193.43 306.328 2193.43 307.625 L2193.43 342.161 L2201.02 342.161 L2201.02 344.495 L2193.43 344.495 L2193.43 351.091 Q2193.43 353.277 2194.31 353.981 Q2195.24 354.685 2199.17 354.685 L2200.76 354.685 L2200.76 357.02 Q2197.65 356.797 2190.46 356.797 Q2183.31 356.797 2180.2 357.02 L2180.2 354.685 L2181.79 354.685 Q2185.72 354.685 2186.64 354.018 Q2187.57 353.314 2187.57 351.091 L2187.57 344.495 L2167.38 344.495 M2169.52 342.161 L2188.02 342.161 L2188.02 313.851 L2169.52 342.161 Z" fill="#000000" fill-rule="evenodd" fill-opacity="1" /><polyline clip-path="url(#clip170)" style="stroke:#228833; stroke-width:6; stroke-opacity:1; fill:none" points="
  1811.8,421.82 1953.55,421.82 
  "/>
<path clip-path="url(#clip170)" d="M 0 0 M1977.17 421.319 Q1977.17 420.097 1977.58 418.652 Q1978.02 417.169 1979.4 415.724 Q1980.77 414.279 1982.8 414.279 Q1986.73 414.279 1989.81 419.8 Q1992.88 425.284 1996.22 437.587 Q1997.74 432.214 2000.04 426.433 Q2000.96 424.173 2001.63 422.765 Q2002.3 421.319 2003.7 419.022 Q2005.11 416.688 2006.85 415.502 Q2008.59 414.279 2010.63 414.279 Q2012.23 414.279 2013.12 415.242 Q2014 416.169 2014 417.392 Q2014 419.207 2012.49 420.134 Q2011.97 420.43 2010.71 420.615 Q2009.45 420.801 2008.41 421.097 Q2007.37 421.394 2005.78 423.135 Q2004.19 424.84 2002.67 428.026 Q2000.78 431.954 1999.11 436.771 Q1997.44 441.589 1997.44 442.737 Q1997.44 443.256 1997.81 445.405 Q1998.22 447.517 1998.59 451.223 Q1998.96 454.965 1998.96 459.19 Q1998.96 460.116 1998.89 460.561 Q1998.74 461.561 1997.96 462.191 Q1997.22 462.858 1996.14 462.858 Q1993.25 462.858 1993.25 459.116 L1993.25 458.745 Q1993.25 455.484 1993.66 451.593 Q1994.11 447.74 1994.55 445.146 L1994.96 442.663 Q1994.96 441.07 1992.55 434.215 Q1990.18 427.322 1988.18 424.358 Q1985.73 420.652 1982.43 420.652 Q1980.91 420.652 1980.17 420.986 Q1979.47 421.319 1979.1 421.875 Q1978.77 422.394 1978.62 422.468 Q1978.17 422.765 1977.65 422.431 Q1977.17 422.061 1977.17 421.319 Z" fill="#000000" fill-rule="evenodd" fill-opacity="1" /><path clip-path="url(#clip170)" d="M 0 0 M2043.57 436.216 Q2043.65 435.289 2045.09 435.289 L2091.6 435.289 Q2093.78 435.289 2093.82 436.141 Q2093.82 437.068 2091.75 437.031 L2045.61 437.031 Q2043.57 437.068 2043.57 436.216 M2043.57 421.394 Q2043.57 420.467 2045.17 420.504 L2091.52 420.504 Q2093.78 420.504 2093.82 421.394 Q2093.82 422.246 2091.89 422.246 L2045.09 422.246 Q2043.57 422.246 2043.57 421.394 Z" fill="#000000" fill-rule="evenodd" fill-opacity="1" /><path clip-path="url(#clip170)" d="M 0 0 M2125.8 404.422 L2125.8 402.051 Q2134.92 402.051 2139.62 397.197 Q2140.92 397.197 2141.14 397.493 Q2141.36 397.79 2141.36 399.161 L2141.36 441.737 Q2141.36 443.997 2142.47 444.701 Q2143.59 445.405 2148.44 445.405 L2150.85 445.405 L2150.85 447.74 Q2148.18 447.517 2138.55 447.517 Q2128.91 447.517 2126.28 447.74 L2126.28 445.405 L2128.69 445.405 Q2133.47 445.405 2134.62 444.738 Q2135.77 444.034 2135.77 441.737 L2135.77 402.421 Q2131.8 404.422 2125.8 404.422 Z" fill="#000000" fill-rule="evenodd" fill-opacity="1" /><path clip-path="url(#clip170)" d="M 0 0 M2158.45 446.517 Q2157.3 445.294 2157.3 443.701 Q2157.3 442.107 2158.45 440.959 Q2159.59 439.773 2161.34 439.773 Q2163 439.773 2164.11 440.885 Q2165.26 441.959 2165.26 443.738 Q2165.26 445.479 2164.04 446.628 Q2162.85 447.74 2161.34 447.74 Q2159.59 447.74 2158.45 446.517 Z" fill="#000000" fill-rule="evenodd" fill-opacity="1" /><path clip-path="url(#clip170)" d="M 0 0 M2169.04 447.74 Q2169.04 446.369 2169.15 445.961 Q2169.3 445.553 2169.9 444.924 L2184.46 428.693 Q2192.42 419.726 2192.42 411.907 Q2192.42 406.831 2189.76 403.2 Q2187.13 399.568 2182.27 399.568 Q2178.94 399.568 2176.12 401.606 Q2173.3 403.644 2172.01 407.276 Q2172.23 407.202 2173.01 407.202 Q2174.9 407.202 2175.94 408.387 Q2177.01 409.573 2177.01 411.166 Q2177.01 413.204 2175.68 414.205 Q2174.38 415.168 2173.08 415.168 Q2172.56 415.168 2171.86 415.057 Q2171.19 414.946 2170.12 413.908 Q2169.04 412.834 2169.04 410.944 Q2169.04 405.645 2173.04 401.421 Q2177.08 397.197 2183.24 397.197 Q2190.2 397.197 2194.76 401.347 Q2199.35 405.46 2199.35 411.907 Q2199.35 414.168 2198.65 416.243 Q2197.98 418.281 2197.06 419.874 Q2196.17 421.468 2193.72 424.024 Q2191.28 426.581 2189.31 428.397 Q2187.35 430.213 2182.94 434.066 L2174.9 441.885 L2188.57 441.885 Q2195.24 441.885 2195.76 441.292 Q2196.5 440.218 2197.43 434.548 L2199.35 434.548 L2197.2 447.74 L2169.04 447.74 Z" fill="#000000" fill-rule="evenodd" fill-opacity="1" /></svg>
