<?xml version="1.0" encoding="utf-8"?>
<svg xmlns="http://www.w3.org/2000/svg" xmlns:xlink="http://www.w3.org/1999/xlink" width="600" height="400" viewBox="0 0 2400 1600">
<defs>
  <clipPath id="clip890">
    <rect x="0" y="0" width="2400" height="1600"/>
  </clipPath>
</defs>
<path clip-path="url(#clip890)" d="
M0 1600 L2400 1600 L2400 0 L0 0  Z
  " fill="#ffffff" fill-rule="evenodd" fill-opacity="1"/>
<defs>
  <clipPath id="clip891">
    <rect x="480" y="0" width="1681" height="1600"/>
  </clipPath>
</defs>
<path clip-path="url(#clip890)" d="
M223.008 1410.22 L2352.76 1410.22 L2352.76 106.192 L223.008 106.192  Z
  " fill="#ffffff" fill-rule="evenodd" fill-opacity="1"/>
<defs>
  <clipPath id="clip892">
    <rect x="223" y="106" width="2131" height="1305"/>
  </clipPath>
</defs>
<polyline clip-path="url(#clip892)" style="stroke:#222255; stroke-width:4; stroke-opacity:0.1; fill:none" stroke-dasharray="16, 10" points="
  506.528,1410.22 506.528,106.192 
  "/>
<polyline clip-path="url(#clip892)" style="stroke:#222255; stroke-width:4; stroke-opacity:0.1; fill:none" stroke-dasharray="16, 10" points="
  953.016,1410.22 953.016,106.192 
  "/>
<polyline clip-path="url(#clip892)" style="stroke:#222255; stroke-width:4; stroke-opacity:0.1; fill:none" stroke-dasharray="16, 10" points="
  1399.5,1410.22 1399.5,106.192 
  "/>
<polyline clip-path="url(#clip892)" style="stroke:#222255; stroke-width:4; stroke-opacity:0.1; fill:none" stroke-dasharray="16, 10" points="
  1845.99,1410.22 1845.99,106.192 
  "/>
<polyline clip-path="url(#clip892)" style="stroke:#222255; stroke-width:4; stroke-opacity:0.1; fill:none" stroke-dasharray="16, 10" points="
  2292.48,1410.22 2292.48,106.192 
  "/>
<polyline clip-path="url(#clip892)" style="stroke:#222255; stroke-width:2; stroke-opacity:0.05; fill:none" points="
  238.636,1410.22 238.636,106.192 
  "/>
<polyline clip-path="url(#clip892)" style="stroke:#222255; stroke-width:2; stroke-opacity:0.05; fill:none" points="
  327.933,1410.22 327.933,106.192 
  "/>
<polyline clip-path="url(#clip892)" style="stroke:#222255; stroke-width:2; stroke-opacity:0.05; fill:none" points="
  417.231,1410.22 417.231,106.192 
  "/>
<polyline clip-path="url(#clip892)" style="stroke:#222255; stroke-width:2; stroke-opacity:0.05; fill:none" points="
  595.826,1410.22 595.826,106.192 
  "/>
<polyline clip-path="url(#clip892)" style="stroke:#222255; stroke-width:2; stroke-opacity:0.05; fill:none" points="
  685.123,1410.22 685.123,106.192 
  "/>
<polyline clip-path="url(#clip892)" style="stroke:#222255; stroke-width:2; stroke-opacity:0.05; fill:none" points="
  774.421,1410.22 774.421,106.192 
  "/>
<polyline clip-path="url(#clip892)" style="stroke:#222255; stroke-width:2; stroke-opacity:0.05; fill:none" points="
  863.719,1410.22 863.719,106.192 
  "/>
<polyline clip-path="url(#clip892)" style="stroke:#222255; stroke-width:2; stroke-opacity:0.05; fill:none" points="
  1042.31,1410.22 1042.31,106.192 
  "/>
<polyline clip-path="url(#clip892)" style="stroke:#222255; stroke-width:2; stroke-opacity:0.05; fill:none" points="
  1131.61,1410.22 1131.61,106.192 
  "/>
<polyline clip-path="url(#clip892)" style="stroke:#222255; stroke-width:2; stroke-opacity:0.05; fill:none" points="
  1220.91,1410.22 1220.91,106.192 
  "/>
<polyline clip-path="url(#clip892)" style="stroke:#222255; stroke-width:2; stroke-opacity:0.05; fill:none" points="
  1310.21,1410.22 1310.21,106.192 
  "/>
<polyline clip-path="url(#clip892)" style="stroke:#222255; stroke-width:2; stroke-opacity:0.05; fill:none" points="
  1488.8,1410.22 1488.8,106.192 
  "/>
<polyline clip-path="url(#clip892)" style="stroke:#222255; stroke-width:2; stroke-opacity:0.05; fill:none" points="
  1578.1,1410.22 1578.1,106.192 
  "/>
<polyline clip-path="url(#clip892)" style="stroke:#222255; stroke-width:2; stroke-opacity:0.05; fill:none" points="
  1667.4,1410.22 1667.4,106.192 
  "/>
<polyline clip-path="url(#clip892)" style="stroke:#222255; stroke-width:2; stroke-opacity:0.05; fill:none" points="
  1756.69,1410.22 1756.69,106.192 
  "/>
<polyline clip-path="url(#clip892)" style="stroke:#222255; stroke-width:2; stroke-opacity:0.05; fill:none" points="
  1935.29,1410.22 1935.29,106.192 
  "/>
<polyline clip-path="url(#clip892)" style="stroke:#222255; stroke-width:2; stroke-opacity:0.05; fill:none" points="
  2024.59,1410.22 2024.59,106.192 
  "/>
<polyline clip-path="url(#clip892)" style="stroke:#222255; stroke-width:2; stroke-opacity:0.05; fill:none" points="
  2113.88,1410.22 2113.88,106.192 
  "/>
<polyline clip-path="url(#clip892)" style="stroke:#222255; stroke-width:2; stroke-opacity:0.05; fill:none" points="
  2203.18,1410.22 2203.18,106.192 
  "/>
<polyline clip-path="url(#clip890)" style="stroke:#000000; stroke-width:4; stroke-opacity:1; fill:none" points="
  223.008,1410.22 2352.76,1410.22 
  "/>
<polyline clip-path="url(#clip890)" style="stroke:#000000; stroke-width:4; stroke-opacity:1; fill:none" points="
  223.008,106.192 2352.76,106.192 
  "/>
<polyline clip-path="url(#clip890)" style="stroke:#000000; stroke-width:4; stroke-opacity:1; fill:none" points="
  506.528,1410.22 506.528,1394.57 
  "/>
<polyline clip-path="url(#clip890)" style="stroke:#000000; stroke-width:4; stroke-opacity:1; fill:none" points="
  953.016,1410.22 953.016,1394.57 
  "/>
<polyline clip-path="url(#clip890)" style="stroke:#000000; stroke-width:4; stroke-opacity:1; fill:none" points="
  1399.5,1410.22 1399.5,1394.57 
  "/>
<polyline clip-path="url(#clip890)" style="stroke:#000000; stroke-width:4; stroke-opacity:1; fill:none" points="
  1845.99,1410.22 1845.99,1394.57 
  "/>
<polyline clip-path="url(#clip890)" style="stroke:#000000; stroke-width:4; stroke-opacity:1; fill:none" points="
  2292.48,1410.22 2292.48,1394.57 
  "/>
<polyline clip-path="url(#clip890)" style="stroke:#000000; stroke-width:4; stroke-opacity:1; fill:none" points="
  238.636,1410.22 238.636,1402.4 
  "/>
<polyline clip-path="url(#clip890)" style="stroke:#000000; stroke-width:4; stroke-opacity:1; fill:none" points="
  327.933,1410.22 327.933,1402.4 
  "/>
<polyline clip-path="url(#clip890)" style="stroke:#000000; stroke-width:4; stroke-opacity:1; fill:none" points="
  417.231,1410.22 417.231,1402.4 
  "/>
<polyline clip-path="url(#clip890)" style="stroke:#000000; stroke-width:4; stroke-opacity:1; fill:none" points="
  595.826,1410.22 595.826,1402.4 
  "/>
<polyline clip-path="url(#clip890)" style="stroke:#000000; stroke-width:4; stroke-opacity:1; fill:none" points="
  685.123,1410.22 685.123,1402.4 
  "/>
<polyline clip-path="url(#clip890)" style="stroke:#000000; stroke-width:4; stroke-opacity:1; fill:none" points="
  774.421,1410.22 774.421,1402.4 
  "/>
<polyline clip-path="url(#clip890)" style="stroke:#000000; stroke-width:4; stroke-opacity:1; fill:none" points="
  863.719,1410.22 863.719,1402.4 
  "/>
<polyline clip-path="url(#clip890)" style="stroke:#000000; stroke-width:4; stroke-opacity:1; fill:none" points="
  1042.31,1410.22 1042.31,1402.4 
  "/>
<polyline clip-path="url(#clip890)" style="stroke:#000000; stroke-width:4; stroke-opacity:1; fill:none" points="
  1131.61,1410.22 1131.61,1402.4 
  "/>
<polyline clip-path="url(#clip890)" style="stroke:#000000; stroke-width:4; stroke-opacity:1; fill:none" points="
  1220.91,1410.22 1220.91,1402.4 
  "/>
<polyline clip-path="url(#clip890)" style="stroke:#000000; stroke-width:4; stroke-opacity:1; fill:none" points="
  1310.21,1410.22 1310.21,1402.4 
  "/>
<polyline clip-path="url(#clip890)" style="stroke:#000000; stroke-width:4; stroke-opacity:1; fill:none" points="
  1488.8,1410.22 1488.8,1402.4 
  "/>
<polyline clip-path="url(#clip890)" style="stroke:#000000; stroke-width:4; stroke-opacity:1; fill:none" points="
  1578.1,1410.22 1578.1,1402.4 
  "/>
<polyline clip-path="url(#clip890)" style="stroke:#000000; stroke-width:4; stroke-opacity:1; fill:none" points="
  1667.4,1410.22 1667.4,1402.4 
  "/>
<polyline clip-path="url(#clip890)" style="stroke:#000000; stroke-width:4; stroke-opacity:1; fill:none" points="
  1756.69,1410.22 1756.69,1402.4 
  "/>
<polyline clip-path="url(#clip890)" style="stroke:#000000; stroke-width:4; stroke-opacity:1; fill:none" points="
  1935.29,1410.22 1935.29,1402.4 
  "/>
<polyline clip-path="url(#clip890)" style="stroke:#000000; stroke-width:4; stroke-opacity:1; fill:none" points="
  2024.59,1410.22 2024.59,1402.4 
  "/>
<polyline clip-path="url(#clip890)" style="stroke:#000000; stroke-width:4; stroke-opacity:1; fill:none" points="
  2113.88,1410.22 2113.88,1402.4 
  "/>
<polyline clip-path="url(#clip890)" style="stroke:#000000; stroke-width:4; stroke-opacity:1; fill:none" points="
  2203.18,1410.22 2203.18,1402.4 
  "/>
<path clip-path="url(#clip890)" d="M 0 0 M493.899 1481.26 Q493.899 1480.12 493.991 1479.78 Q494.115 1479.44 494.609 1478.91 L506.744 1465.39 Q513.383 1457.92 513.383 1451.4 Q513.383 1447.17 511.16 1444.14 Q508.968 1441.12 504.923 1441.12 Q502.143 1441.12 499.797 1442.82 Q497.45 1444.51 496.369 1447.54 Q496.554 1447.48 497.203 1447.48 Q498.778 1447.48 499.642 1448.47 Q500.538 1449.45 500.538 1450.78 Q500.538 1452.48 499.426 1453.31 Q498.345 1454.12 497.265 1454.12 Q496.832 1454.12 496.246 1454.02 Q495.69 1453.93 494.794 1453.07 Q493.899 1452.17 493.899 1450.6 Q493.899 1446.18 497.234 1442.66 Q500.599 1439.14 505.725 1439.14 Q511.531 1439.14 515.329 1442.6 Q519.158 1446.03 519.158 1451.4 Q519.158 1453.28 518.571 1455.01 Q518.015 1456.71 517.243 1458.04 Q516.502 1459.37 514.464 1461.5 Q512.426 1463.63 510.79 1465.14 Q509.153 1466.65 505.478 1469.87 L498.778 1476.38 L510.172 1476.38 Q515.73 1476.38 516.163 1475.89 Q516.78 1474.99 517.552 1470.27 L519.158 1470.27 L517.367 1481.26 L493.899 1481.26 Z" fill="#808080" fill-rule="evenodd" fill-opacity="1" /><path clip-path="url(#clip890)" d="M 0 0 M938.997 1470.82 L938.997 1468.88 L958.42 1439.2 Q958.914 1438.43 959.686 1438.46 Q960.396 1438.46 960.551 1438.74 Q960.705 1439.02 960.705 1440.1 L960.705 1468.88 L967.035 1468.88 L967.035 1470.82 L960.705 1470.82 L960.705 1476.32 Q960.705 1478.14 961.446 1478.73 Q962.218 1479.31 965.491 1479.31 L966.819 1479.31 L966.819 1481.26 Q964.225 1481.07 958.235 1481.07 Q952.275 1481.07 949.681 1481.26 L949.681 1479.31 L951.009 1479.31 Q954.282 1479.31 955.054 1478.76 Q955.826 1478.17 955.826 1476.32 L955.826 1470.82 L938.997 1470.82 M940.788 1468.88 L956.197 1468.88 L956.197 1445.29 L940.788 1468.88 Z" fill="#808080" fill-rule="evenodd" fill-opacity="1" /><path clip-path="url(#clip890)" d="M 0 0 M1386.38 1461.28 Q1386.38 1451.34 1391.44 1445.25 Q1396.51 1439.14 1403.02 1439.14 Q1406.82 1439.14 1408.92 1441.09 Q1411.05 1443 1411.05 1445.96 Q1411.05 1447.6 1410.1 1448.31 Q1409.14 1449.02 1408.15 1449.02 Q1407.01 1449.02 1406.11 1448.25 Q1405.22 1447.48 1405.22 1446.09 Q1405.22 1443.25 1408.71 1443.25 Q1407.07 1440.72 1403.15 1440.72 Q1401.94 1440.72 1400.71 1441.09 Q1399.47 1441.43 1397.87 1442.6 Q1396.26 1443.77 1395.03 1445.63 Q1393.79 1447.48 1392.93 1450.97 Q1392.06 1454.46 1392.06 1459 L1392.06 1460.51 Q1394.66 1454.24 1399.97 1454.27 Q1405.28 1454.27 1408.95 1458.32 Q1412.63 1462.36 1412.63 1468.35 Q1412.63 1474.5 1408.8 1478.57 Q1404.97 1482.65 1399.6 1482.65 Q1397.19 1482.65 1395 1481.63 Q1392.83 1480.64 1390.8 1478.36 Q1388.79 1476.07 1387.58 1471.69 Q1386.38 1467.3 1386.38 1461.28 M1392.19 1466.96 Q1392.19 1473.17 1393.33 1476.13 Q1393.51 1476.63 1393.92 1477.31 Q1394.35 1477.99 1395.06 1478.88 Q1395.8 1479.75 1397 1480.33 Q1398.21 1480.89 1399.6 1480.89 Q1403.83 1480.89 1405.87 1476.78 Q1406.95 1474.5 1406.95 1468.29 Q1406.95 1461.96 1405.8 1459.64 Q1403.86 1455.72 1399.91 1455.72 Q1397.25 1455.72 1395.4 1457.54 Q1393.58 1459.37 1392.87 1461.81 Q1392.19 1464.25 1392.19 1466.96 Z" fill="#808080" fill-rule="evenodd" fill-opacity="1" /><path clip-path="url(#clip890)" d="M 0 0 M1832.87 1471.72 Q1832.87 1464.65 1841.98 1460.08 Q1838.06 1457.42 1837.35 1456.65 Q1834.57 1453.56 1834.57 1449.7 Q1834.57 1445.29 1837.9 1442.23 Q1841.27 1439.14 1846.02 1439.14 Q1850.56 1439.14 1853.99 1441.77 Q1857.42 1444.39 1857.42 1448.56 Q1857.42 1454.43 1849.76 1458.38 Q1854.82 1461.53 1856.03 1462.86 Q1859.12 1466.28 1859.12 1470.64 Q1859.12 1475.7 1855.22 1479.19 Q1851.33 1482.65 1845.96 1482.65 Q1840.71 1482.65 1836.79 1479.59 Q1832.87 1476.54 1832.87 1471.72 M1836.02 1471.72 Q1836.02 1475.64 1838.95 1478.26 Q1841.92 1480.89 1846.02 1480.89 Q1850.01 1480.89 1852.97 1478.6 Q1855.97 1476.32 1855.97 1472.92 Q1855.97 1471.59 1855.5 1470.45 Q1855.07 1469.31 1854.18 1468.41 Q1853.31 1467.49 1852.75 1467.09 Q1852.23 1466.65 1851.21 1465.94 L1843.43 1461.03 Q1836.02 1465.14 1836.02 1471.72 M1837.35 1447.23 Q1837.35 1450.26 1840.53 1452.36 L1848.37 1457.42 Q1854.64 1453.75 1854.64 1448.56 Q1854.64 1445.19 1852.08 1442.97 Q1849.51 1440.72 1845.96 1440.72 Q1842.47 1440.72 1839.91 1442.57 Q1837.35 1444.39 1837.35 1447.23 Z" fill="#808080" fill-rule="evenodd" fill-opacity="1" /><path clip-path="url(#clip890)" d="M 0 0 M2267.5 1445.16 L2267.5 1443.19 Q2275.1 1443.19 2279.02 1439.14 Q2280.1 1439.14 2280.28 1439.39 Q2280.47 1439.63 2280.47 1440.78 L2280.47 1476.26 Q2280.47 1478.14 2281.39 1478.73 Q2282.32 1479.31 2286.37 1479.31 L2288.37 1479.31 L2288.37 1481.26 Q2286.15 1481.07 2278.12 1481.07 Q2270.09 1481.07 2267.9 1481.26 L2267.9 1479.31 L2269.91 1479.31 Q2273.89 1479.31 2274.85 1478.76 Q2275.81 1478.17 2275.81 1476.26 L2275.81 1443.49 Q2272.5 1445.16 2267.5 1445.16 Z" fill="#808080" fill-rule="evenodd" fill-opacity="1" /><path clip-path="url(#clip890)" d="M 0 0 M2290.84 1461.03 Q2290.84 1451.74 2293.19 1446.68 Q2296.46 1439.14 2304.18 1439.14 Q2305.82 1439.14 2307.52 1439.6 Q2309.25 1440.04 2311.41 1441.73 Q2313.6 1443.43 2314.93 1446.21 Q2317.46 1451.58 2317.46 1461.03 Q2317.46 1470.27 2315.11 1475.3 Q2311.69 1482.65 2304.12 1482.65 Q2301.28 1482.65 2298.38 1481.2 Q2295.51 1479.75 2293.68 1476.26 Q2290.84 1471.04 2290.84 1461.03 M2296.09 1460.26 Q2296.09 1469.8 2296.77 1473.6 Q2297.54 1477.71 2299.64 1479.5 Q2301.77 1481.26 2304.12 1481.26 Q2306.65 1481.26 2308.75 1479.38 Q2310.88 1477.46 2311.53 1473.35 Q2312.24 1469.31 2312.21 1460.26 Q2312.21 1451.46 2311.59 1447.94 Q2310.76 1443.83 2308.54 1442.2 Q2306.34 1440.53 2304.12 1440.53 Q2303.29 1440.53 2302.39 1440.78 Q2301.53 1441.02 2300.26 1441.73 Q2299 1442.44 2298.01 1444.2 Q2297.05 1445.96 2296.59 1448.62 Q2296.09 1452.05 2296.09 1460.26 Z" fill="#808080" fill-rule="evenodd" fill-opacity="1" /><path clip-path="url(#clip890)" d="M 0 0 M1227.48 1573.23 L1227.48 1570.89 Q1230.22 1570.89 1231.97 1570.37 Q1233.71 1569.82 1234.34 1568.82 Q1235 1567.78 1235.15 1567.11 Q1235.3 1566.41 1235.3 1565.26 L1235.3 1527.32 Q1235.3 1525.13 1234.34 1524.46 Q1233.41 1523.76 1229.3 1523.76 L1227.48 1523.76 L1227.48 1521.39 L1240.3 1521.39 Q1241.67 1521.39 1242.05 1521.65 Q1242.42 1521.87 1242.97 1523.06 L1259.42 1565.56 L1276.02 1522.83 Q1276.4 1521.76 1276.73 1521.57 Q1277.1 1521.39 1278.54 1521.39 L1291.37 1521.39 L1291.37 1523.76 L1289.55 1523.76 Q1285.44 1523.76 1284.47 1524.46 Q1283.55 1525.13 1283.55 1527.32 L1283.55 1567.3 Q1283.55 1569.49 1284.47 1570.19 Q1285.44 1570.89 1289.55 1570.89 L1291.37 1570.89 L1291.37 1573.23 Q1288.55 1573.01 1280.51 1573.01 Q1272.39 1573.01 1269.58 1573.23 L1269.58 1570.89 L1271.43 1570.89 Q1275.54 1570.89 1276.47 1570.23 Q1277.4 1569.52 1277.4 1567.3 L1277.4 1523.76 L1277.32 1523.76 L1258.68 1571.78 Q1258.16 1573.23 1257.31 1573.23 Q1256.39 1573.23 1255.79 1571.56 L1237.49 1524.35 L1237.41 1524.35 L1237.41 1565.26 Q1237.41 1566.41 1237.56 1567.11 Q1237.71 1567.78 1238.34 1568.82 Q1239.01 1569.82 1240.75 1570.37 Q1242.49 1570.89 1245.23 1570.89 L1245.23 1573.23 Q1237.27 1573.01 1236.34 1573.01 Q1235.45 1573.01 1227.48 1573.23 Z" fill="#000000" fill-rule="evenodd" fill-opacity="1" /><path clip-path="url(#clip890)" d="M 0 0 M1292.11 1572.49 L1292.11 1515.16 L1348.28 1515.16 L1348.28 1572.49 L1292.11 1572.49 M1296.66 1564.74 L1317.64 1543.77 L1296.66 1522.91 L1296.66 1564.74 M1299.33 1567.93 L1341.06 1567.93 L1320.19 1546.96 L1299.33 1567.93 M1299.33 1519.72 L1320.19 1540.66 L1341.06 1519.72 L1299.33 1519.72 M1322.79 1543.77 L1343.72 1564.74 L1343.72 1522.91 L1322.79 1543.77 Z" fill="#000000" fill-rule="evenodd" fill-opacity="1" /><polyline clip-path="url(#clip892)" style="stroke:#222255; stroke-width:4; stroke-opacity:0.1; fill:none" stroke-dasharray="16, 10" points="
  223.008,1201.94 2352.76,1201.94 
  "/>
<polyline clip-path="url(#clip892)" style="stroke:#222255; stroke-width:4; stroke-opacity:0.1; fill:none" stroke-dasharray="16, 10" points="
  223.008,848.994 2352.76,848.994 
  "/>
<polyline clip-path="url(#clip892)" style="stroke:#222255; stroke-width:4; stroke-opacity:0.1; fill:none" stroke-dasharray="16, 10" points="
  223.008,496.046 2352.76,496.046 
  "/>
<polyline clip-path="url(#clip892)" style="stroke:#222255; stroke-width:4; stroke-opacity:0.1; fill:none" stroke-dasharray="16, 10" points="
  223.008,143.099 2352.76,143.099 
  "/>
<polyline clip-path="url(#clip892)" style="stroke:#222255; stroke-width:2; stroke-opacity:0.05; fill:none" points="
  223.008,1343.12 2352.76,1343.12 
  "/>
<polyline clip-path="url(#clip892)" style="stroke:#222255; stroke-width:2; stroke-opacity:0.05; fill:none" points="
  223.008,1272.53 2352.76,1272.53 
  "/>
<polyline clip-path="url(#clip892)" style="stroke:#222255; stroke-width:2; stroke-opacity:0.05; fill:none" points="
  223.008,1131.35 2352.76,1131.35 
  "/>
<polyline clip-path="url(#clip892)" style="stroke:#222255; stroke-width:2; stroke-opacity:0.05; fill:none" points="
  223.008,1060.76 2352.76,1060.76 
  "/>
<polyline clip-path="url(#clip892)" style="stroke:#222255; stroke-width:2; stroke-opacity:0.05; fill:none" points="
  223.008,990.173 2352.76,990.173 
  "/>
<polyline clip-path="url(#clip892)" style="stroke:#222255; stroke-width:2; stroke-opacity:0.05; fill:none" points="
  223.008,919.584 2352.76,919.584 
  "/>
<polyline clip-path="url(#clip892)" style="stroke:#222255; stroke-width:2; stroke-opacity:0.05; fill:none" points="
  223.008,778.405 2352.76,778.405 
  "/>
<polyline clip-path="url(#clip892)" style="stroke:#222255; stroke-width:2; stroke-opacity:0.05; fill:none" points="
  223.008,707.815 2352.76,707.815 
  "/>
<polyline clip-path="url(#clip892)" style="stroke:#222255; stroke-width:2; stroke-opacity:0.05; fill:none" points="
  223.008,637.225 2352.76,637.225 
  "/>
<polyline clip-path="url(#clip892)" style="stroke:#222255; stroke-width:2; stroke-opacity:0.05; fill:none" points="
  223.008,566.636 2352.76,566.636 
  "/>
<polyline clip-path="url(#clip892)" style="stroke:#222255; stroke-width:2; stroke-opacity:0.05; fill:none" points="
  223.008,425.457 2352.76,425.457 
  "/>
<polyline clip-path="url(#clip892)" style="stroke:#222255; stroke-width:2; stroke-opacity:0.05; fill:none" points="
  223.008,354.867 2352.76,354.867 
  "/>
<polyline clip-path="url(#clip892)" style="stroke:#222255; stroke-width:2; stroke-opacity:0.05; fill:none" points="
  223.008,284.278 2352.76,284.278 
  "/>
<polyline clip-path="url(#clip892)" style="stroke:#222255; stroke-width:2; stroke-opacity:0.05; fill:none" points="
  223.008,213.688 2352.76,213.688 
  "/>
<polyline clip-path="url(#clip890)" style="stroke:#000000; stroke-width:4; stroke-opacity:1; fill:none" points="
  223.008,1410.22 223.008,106.192 
  "/>
<polyline clip-path="url(#clip890)" style="stroke:#000000; stroke-width:4; stroke-opacity:1; fill:none" points="
  2352.76,1410.22 2352.76,106.192 
  "/>
<polyline clip-path="url(#clip890)" style="stroke:#000000; stroke-width:4; stroke-opacity:1; fill:none" points="
  223.008,1201.94 248.565,1201.94 
  "/>
<polyline clip-path="url(#clip890)" style="stroke:#000000; stroke-width:4; stroke-opacity:1; fill:none" points="
  223.008,848.994 248.565,848.994 
  "/>
<polyline clip-path="url(#clip890)" style="stroke:#000000; stroke-width:4; stroke-opacity:1; fill:none" points="
  223.008,496.046 248.565,496.046 
  "/>
<polyline clip-path="url(#clip890)" style="stroke:#000000; stroke-width:4; stroke-opacity:1; fill:none" points="
  223.008,143.099 248.565,143.099 
  "/>
<polyline clip-path="url(#clip890)" style="stroke:#000000; stroke-width:4; stroke-opacity:1; fill:none" points="
  223.008,1343.12 235.787,1343.12 
  "/>
<polyline clip-path="url(#clip890)" style="stroke:#000000; stroke-width:4; stroke-opacity:1; fill:none" points="
  223.008,1272.53 235.787,1272.53 
  "/>
<polyline clip-path="url(#clip890)" style="stroke:#000000; stroke-width:4; stroke-opacity:1; fill:none" points="
  223.008,1131.35 235.787,1131.35 
  "/>
<polyline clip-path="url(#clip890)" style="stroke:#000000; stroke-width:4; stroke-opacity:1; fill:none" points="
  223.008,1060.76 235.787,1060.76 
  "/>
<polyline clip-path="url(#clip890)" style="stroke:#000000; stroke-width:4; stroke-opacity:1; fill:none" points="
  223.008,990.173 235.787,990.173 
  "/>
<polyline clip-path="url(#clip890)" style="stroke:#000000; stroke-width:4; stroke-opacity:1; fill:none" points="
  223.008,919.584 235.787,919.584 
  "/>
<polyline clip-path="url(#clip890)" style="stroke:#000000; stroke-width:4; stroke-opacity:1; fill:none" points="
  223.008,778.405 235.787,778.405 
  "/>
<polyline clip-path="url(#clip890)" style="stroke:#000000; stroke-width:4; stroke-opacity:1; fill:none" points="
  223.008,707.815 235.787,707.815 
  "/>
<polyline clip-path="url(#clip890)" style="stroke:#000000; stroke-width:4; stroke-opacity:1; fill:none" points="
  223.008,637.225 235.787,637.225 
  "/>
<polyline clip-path="url(#clip890)" style="stroke:#000000; stroke-width:4; stroke-opacity:1; fill:none" points="
  223.008,566.636 235.787,566.636 
  "/>
<polyline clip-path="url(#clip890)" style="stroke:#000000; stroke-width:4; stroke-opacity:1; fill:none" points="
  223.008,425.457 235.787,425.457 
  "/>
<polyline clip-path="url(#clip890)" style="stroke:#000000; stroke-width:4; stroke-opacity:1; fill:none" points="
  223.008,354.867 235.787,354.867 
  "/>
<polyline clip-path="url(#clip890)" style="stroke:#000000; stroke-width:4; stroke-opacity:1; fill:none" points="
  223.008,284.278 235.787,284.278 
  "/>
<polyline clip-path="url(#clip890)" style="stroke:#000000; stroke-width:4; stroke-opacity:1; fill:none" points="
  223.008,213.688 235.787,213.688 
  "/>
<path clip-path="url(#clip890)" d="M 0 0 M118.58 1203.32 Q118.58 1194.02 120.927 1188.96 Q124.2 1181.42 131.92 1181.42 Q133.557 1181.42 135.255 1181.89 Q136.984 1182.32 139.146 1184.02 Q141.338 1185.71 142.666 1188.49 Q145.198 1193.87 145.198 1203.32 Q145.198 1212.55 142.851 1217.58 Q139.424 1224.93 131.858 1224.93 Q129.017 1224.93 126.115 1223.48 Q123.243 1222.03 121.421 1218.54 Q118.58 1213.32 118.58 1203.32 M123.83 1202.54 Q123.83 1212.09 124.509 1215.88 Q125.281 1219.99 127.381 1221.78 Q129.511 1223.54 131.858 1223.54 Q134.39 1223.54 136.49 1221.66 Q138.621 1219.74 139.269 1215.64 Q139.979 1211.59 139.949 1202.54 Q139.949 1193.74 139.331 1190.22 Q138.497 1186.12 136.274 1184.48 Q134.082 1182.81 131.858 1182.81 Q131.024 1182.81 130.129 1183.06 Q129.264 1183.31 127.998 1184.02 Q126.732 1184.73 125.744 1186.49 Q124.787 1188.25 124.324 1190.9 Q123.83 1194.33 123.83 1202.54 Z" fill="#808080" fill-rule="evenodd" fill-opacity="1" /><path clip-path="url(#clip890)" d="M 0 0 M151.528 1222.52 Q150.571 1221.5 150.571 1220.18 Q150.571 1218.85 151.528 1217.89 Q152.486 1216.9 153.937 1216.9 Q155.326 1216.9 156.253 1217.83 Q157.21 1218.72 157.21 1220.21 Q157.21 1221.66 156.191 1222.62 Q155.203 1223.54 153.937 1223.54 Q152.486 1223.54 151.528 1222.52 Z" fill="#808080" fill-rule="evenodd" fill-opacity="1" /><path clip-path="url(#clip890)" d="M 0 0 M158.97 1213.1 L158.97 1211.16 L178.393 1181.48 Q178.887 1180.71 179.659 1180.74 Q180.369 1180.74 180.524 1181.02 Q180.678 1181.3 180.678 1182.38 L180.678 1211.16 L187.008 1211.16 L187.008 1213.1 L180.678 1213.1 L180.678 1218.6 Q180.678 1220.42 181.419 1221.01 Q182.191 1221.6 185.465 1221.6 L186.792 1221.6 L186.792 1223.54 Q184.198 1223.36 178.208 1223.36 Q172.248 1223.36 169.654 1223.54 L169.654 1221.6 L170.982 1221.6 Q174.255 1221.6 175.027 1221.04 Q175.799 1220.45 175.799 1218.6 L175.799 1213.1 L158.97 1213.1 M160.761 1211.16 L176.17 1211.16 L176.17 1187.57 L160.761 1211.16 Z" fill="#808080" fill-rule="evenodd" fill-opacity="1" /><path clip-path="url(#clip890)" d="M 0 0 M119.476 850.368 Q119.476 841.074 121.822 836.009 Q125.096 828.475 132.815 828.475 Q134.452 828.475 136.15 828.938 Q137.88 829.37 140.041 831.069 Q142.234 832.767 143.561 835.546 Q146.094 840.919 146.094 850.368 Q146.094 859.601 143.747 864.634 Q140.319 871.984 132.754 871.984 Q129.913 871.984 127.01 870.532 Q124.138 869.081 122.317 865.592 Q119.476 860.373 119.476 850.368 M124.725 849.596 Q124.725 859.138 125.404 862.936 Q126.176 867.043 128.276 868.834 Q130.407 870.594 132.754 870.594 Q135.286 870.594 137.386 868.71 Q139.516 866.796 140.165 862.689 Q140.875 858.644 140.844 849.596 Q140.844 840.796 140.226 837.275 Q139.393 833.168 137.169 831.532 Q134.977 829.864 132.754 829.864 Q131.92 829.864 131.024 830.111 Q130.16 830.358 128.894 831.069 Q127.628 831.779 126.64 833.539 Q125.682 835.299 125.219 837.955 Q124.725 841.382 124.725 849.596 Z" fill="#808080" fill-rule="evenodd" fill-opacity="1" /><path clip-path="url(#clip890)" d="M 0 0 M152.424 869.575 Q151.467 868.556 151.467 867.228 Q151.467 865.9 152.424 864.943 Q153.381 863.955 154.832 863.955 Q156.222 863.955 157.148 864.881 Q158.106 865.777 158.106 867.259 Q158.106 868.71 157.087 869.668 Q156.098 870.594 154.832 870.594 Q153.381 870.594 152.424 869.575 Z" fill="#808080" fill-rule="evenodd" fill-opacity="1" /><path clip-path="url(#clip890)" d="M 0 0 M160.761 850.615 Q160.761 840.672 165.825 834.589 Q170.89 828.475 177.405 828.475 Q181.203 828.475 183.303 830.42 Q185.434 832.335 185.434 835.299 Q185.434 836.936 184.476 837.646 Q183.519 838.356 182.531 838.356 Q181.388 838.356 180.493 837.584 Q179.597 836.812 179.597 835.423 Q179.597 832.582 183.087 832.582 Q181.45 830.05 177.529 830.05 Q176.324 830.05 175.089 830.42 Q173.854 830.76 172.248 831.933 Q170.642 833.107 169.407 834.959 Q168.172 836.812 167.308 840.302 Q166.443 843.791 166.443 848.33 L166.443 849.843 Q169.037 843.575 174.348 843.606 Q179.659 843.606 183.334 847.651 Q187.008 851.696 187.008 857.687 Q187.008 863.832 183.179 867.908 Q179.35 871.984 173.977 871.984 Q171.569 871.984 169.376 870.965 Q167.215 869.977 165.177 867.691 Q163.17 865.406 161.965 861.022 Q160.761 856.637 160.761 850.615 M166.566 856.297 Q166.566 862.504 167.709 865.468 Q167.894 865.962 168.296 866.642 Q168.728 867.321 169.438 868.216 Q170.179 869.081 171.384 869.668 Q172.588 870.224 173.977 870.224 Q178.208 870.224 180.246 866.117 Q181.327 863.832 181.327 857.625 Q181.327 851.295 180.184 848.979 Q178.239 845.057 174.286 845.057 Q171.631 845.057 169.778 846.879 Q167.956 848.701 167.246 851.14 Q166.566 853.58 166.566 856.297 Z" fill="#808080" fill-rule="evenodd" fill-opacity="1" /><path clip-path="url(#clip890)" d="M 0 0 M119.476 497.42 Q119.476 488.126 121.822 483.062 Q125.096 475.527 132.815 475.527 Q134.452 475.527 136.15 475.99 Q137.88 476.423 140.041 478.121 Q142.234 479.819 143.561 482.598 Q146.094 487.971 146.094 497.42 Q146.094 506.653 143.747 511.687 Q140.319 519.036 132.754 519.036 Q129.913 519.036 127.01 517.585 Q124.138 516.133 122.317 512.644 Q119.476 507.425 119.476 497.42 M124.725 496.648 Q124.725 506.19 125.404 509.988 Q126.176 514.095 128.276 515.886 Q130.407 517.646 132.754 517.646 Q135.286 517.646 137.386 515.763 Q139.516 513.848 140.165 509.741 Q140.875 505.696 140.844 496.648 Q140.844 487.848 140.226 484.328 Q139.393 480.221 137.169 478.584 Q134.977 476.917 132.754 476.917 Q131.92 476.917 131.024 477.164 Q130.16 477.411 128.894 478.121 Q127.628 478.831 126.64 480.591 Q125.682 482.351 125.219 485.007 Q124.725 488.435 124.725 496.648 Z" fill="#808080" fill-rule="evenodd" fill-opacity="1" /><path clip-path="url(#clip890)" d="M 0 0 M152.424 516.627 Q151.467 515.608 151.467 514.28 Q151.467 512.953 152.424 511.995 Q153.381 511.007 154.832 511.007 Q156.222 511.007 157.148 511.934 Q158.106 512.829 158.106 514.311 Q158.106 515.763 157.087 516.72 Q156.098 517.646 154.832 517.646 Q153.381 517.646 152.424 516.627 Z" fill="#808080" fill-rule="evenodd" fill-opacity="1" /><path clip-path="url(#clip890)" d="M 0 0 M160.761 508.105 Q160.761 501.033 169.871 496.463 Q165.949 493.808 165.239 493.036 Q162.459 489.948 162.459 486.088 Q162.459 481.672 165.794 478.615 Q169.16 475.527 173.916 475.527 Q178.455 475.527 181.883 478.152 Q185.31 480.777 185.31 484.945 Q185.31 490.812 177.652 494.765 Q182.716 497.915 183.921 499.242 Q187.008 502.67 187.008 507.024 Q187.008 512.088 183.118 515.577 Q179.227 519.036 173.854 519.036 Q168.604 519.036 164.683 515.979 Q160.761 512.922 160.761 508.105 M163.911 508.105 Q163.911 512.026 166.844 514.651 Q169.809 517.276 173.916 517.276 Q177.899 517.276 180.864 514.991 Q183.859 512.706 183.859 509.309 Q183.859 507.981 183.396 506.839 Q182.963 505.696 182.068 504.801 Q181.203 503.874 180.647 503.473 Q180.122 503.04 179.103 502.33 L171.322 497.42 Q163.911 501.527 163.911 508.105 M165.239 483.617 Q165.239 486.644 168.419 488.743 L176.263 493.808 Q182.531 490.133 182.531 484.945 Q182.531 481.579 179.968 479.356 Q177.405 477.102 173.854 477.102 Q170.365 477.102 167.802 478.955 Q165.239 480.777 165.239 483.617 Z" fill="#808080" fill-rule="evenodd" fill-opacity="1" /><path clip-path="url(#clip890)" d="M 0 0 M125.034 128.601 L125.034 126.625 Q132.63 126.625 136.552 122.579 Q137.633 122.579 137.818 122.826 Q138.003 123.073 138.003 124.216 L138.003 159.696 Q138.003 161.58 138.93 162.166 Q139.856 162.753 143.901 162.753 L145.908 162.753 L145.908 164.699 Q143.685 164.513 135.656 164.513 Q127.628 164.513 125.435 164.699 L125.435 162.753 L127.442 162.753 Q131.426 162.753 132.383 162.197 Q133.34 161.611 133.34 159.696 L133.34 126.933 Q130.036 128.601 125.034 128.601 Z" fill="#808080" fill-rule="evenodd" fill-opacity="1" /><path clip-path="url(#clip890)" d="M 0 0 M152.238 163.68 Q151.281 162.661 151.281 161.333 Q151.281 160.005 152.238 159.048 Q153.196 158.06 154.647 158.06 Q156.037 158.06 156.963 158.986 Q157.92 159.881 157.92 161.364 Q157.92 162.815 156.901 163.772 Q155.913 164.699 154.647 164.699 Q153.196 164.699 152.238 163.68 Z" fill="#808080" fill-rule="evenodd" fill-opacity="1" /><path clip-path="url(#clip890)" d="M 0 0 M160.391 144.473 Q160.391 135.178 162.737 130.114 Q166.011 122.579 173.73 122.579 Q175.367 122.579 177.065 123.043 Q178.795 123.475 180.956 125.173 Q183.149 126.872 184.476 129.651 Q187.008 135.024 187.008 144.473 Q187.008 153.706 184.662 158.739 Q181.234 166.088 173.669 166.088 Q170.828 166.088 167.925 164.637 Q165.053 163.185 163.231 159.696 Q160.391 154.478 160.391 144.473 M165.64 143.701 Q165.64 153.242 166.319 157.041 Q167.091 161.147 169.191 162.938 Q171.322 164.699 173.669 164.699 Q176.201 164.699 178.301 162.815 Q180.431 160.9 181.08 156.793 Q181.79 152.748 181.759 143.701 Q181.759 134.9 181.141 131.38 Q180.308 127.273 178.084 125.636 Q175.892 123.969 173.669 123.969 Q172.835 123.969 171.939 124.216 Q171.075 124.463 169.809 125.173 Q168.543 125.883 167.555 127.644 Q166.597 129.404 166.134 132.059 Q165.64 135.487 165.64 143.701 Z" fill="#808080" fill-rule="evenodd" fill-opacity="1" /><path clip-path="url(#clip890)" d="M 0 0 M67.0282 818.606 L64.6937 818.606 Q64.6937 815.864 64.1749 814.122 Q63.6191 812.38 62.6186 811.751 Q61.5811 811.084 60.9141 810.935 Q60.21 810.787 59.0613 810.787 L21.117 810.787 Q18.9307 810.787 18.2637 811.751 Q17.5597 812.677 17.5597 816.79 L17.5597 818.606 L15.1882 818.606 L15.1882 805.785 Q15.1882 804.414 15.4475 804.043 Q15.6699 803.673 16.8556 803.117 L59.3578 786.664 L16.6333 770.064 Q15.5587 769.693 15.3734 769.36 Q15.1882 768.989 15.1882 767.544 L15.1882 754.723 L17.5597 754.723 L17.5597 756.539 Q17.5597 760.652 18.2637 761.615 Q18.9307 762.541 21.117 762.541 L61.0994 762.541 Q63.2856 762.541 63.9896 761.615 Q64.6937 760.652 64.6937 756.539 L64.6937 754.723 L67.0282 754.723 Q66.8058 757.539 66.8058 765.58 Q66.8058 773.695 67.0282 776.511 L64.6937 776.511 L64.6937 774.658 Q64.6937 770.545 64.0267 769.619 Q63.3227 768.693 61.0994 768.693 L17.5597 768.693 L17.5597 768.767 L65.583 787.405 Q67.0282 787.924 67.0282 788.776 Q67.0282 789.703 65.3607 790.296 L18.1526 808.601 L18.1526 808.675 L59.0613 808.675 Q60.21 808.675 60.9141 808.527 Q61.5811 808.379 62.6186 807.749 Q63.6191 807.082 64.1749 805.34 Q64.6937 803.598 64.6937 800.856 L67.0282 800.856 Q66.8058 808.823 66.8058 809.75 Q66.8058 810.639 67.0282 818.606 Z" fill="#000000" fill-rule="evenodd" fill-opacity="1" /><path clip-path="url(#clip890)" d="M 0 0 M66.2871 753.982 L8.96291 753.982 L8.96291 697.806 L66.2871 697.806 L66.2871 753.982 M58.5426 749.424 L37.5694 728.451 L16.7074 749.424 L58.5426 749.424 M61.7293 746.756 L61.7293 705.032 L40.7561 725.894 L61.7293 746.756 M13.5207 746.756 L34.4568 725.894 L13.5207 705.032 L13.5207 746.756 M37.5694 723.3 L58.5426 702.364 L16.7074 702.364 L37.5694 723.3 Z" fill="#000000" fill-rule="evenodd" fill-opacity="1" /><path clip-path="url(#clip890)" d="M 0 0 M918.351 51.84 L918.351 49.8946 Q920.636 49.8946 922.087 49.4623 Q923.539 48.9991 924.063 48.1654 Q924.619 47.3008 924.743 46.7449 Q924.866 46.1582 924.866 45.201 L924.866 13.5807 Q924.866 11.7588 924.063 11.203 Q923.291 10.6163 919.864 10.6163 L918.351 10.6163 L918.351 8.64 L929.035 8.64 Q930.178 8.64 930.486 8.85615 Q930.795 9.04143 931.258 10.0296 L944.969 45.448 L958.803 9.84429 Q959.111 8.94879 959.389 8.7944 Q959.698 8.64 960.902 8.64 L971.587 8.64 L971.587 10.6163 L970.073 10.6163 Q966.646 10.6163 965.843 11.203 Q965.071 11.7588 965.071 13.5807 L965.071 46.8993 Q965.071 48.7212 965.843 49.3079 Q966.646 49.8946 970.073 49.8946 L971.587 49.8946 L971.587 51.84 Q969.24 51.6547 962.539 51.6547 Q955.776 51.6547 953.43 51.84 L953.43 49.8946 L954.974 49.8946 Q958.401 49.8946 959.173 49.3388 Q959.945 48.7521 959.945 46.8993 L959.945 10.6163 L959.883 10.6163 L944.351 50.6357 Q943.919 51.84 943.209 51.84 Q942.437 51.84 941.943 50.4504 L926.688 11.1103 L926.626 11.1103 L926.626 45.201 Q926.626 46.1582 926.75 46.7449 Q926.873 47.3008 927.398 48.1654 Q927.954 48.9991 929.406 49.4623 Q930.857 49.8946 933.142 49.8946 L933.142 51.84 Q926.503 51.6547 925.731 51.6547 Q924.99 51.6547 918.351 51.84 Z" fill="#000000" fill-rule="evenodd" fill-opacity="1" /><path clip-path="url(#clip890)" d="M 0 0 M974.242 45.8186 Q974.242 40.4456 980.572 37.6047 Q984.371 35.7828 992.214 35.3196 L992.214 33.0037 Q992.214 29.082 990.145 27.0131 Q988.107 24.9133 985.513 24.9133 Q980.881 24.9133 978.658 27.816 Q980.542 27.8777 981.221 28.835 Q981.9 29.7614 981.9 30.7186 Q981.9 31.9847 981.097 32.8184 Q980.325 33.6213 978.998 33.6213 Q977.732 33.6213 976.898 32.8493 Q976.064 32.0464 976.064 30.6569 Q976.064 27.5689 978.843 25.5309 Q981.653 23.4929 985.637 23.4929 Q990.824 23.4929 994.283 26.9822 Q995.364 28.063 995.888 29.4526 Q996.444 30.8421 996.506 31.7685 Q996.568 32.664 996.568 34.455 L996.568 47.0846 Q996.568 47.4552 996.691 48.0727 Q996.815 48.6903 997.371 49.4932 Q997.957 50.2652 998.915 50.2652 Q1001.2 50.2652 1001.17 46.22 L1001.17 42.6689 L1002.77 42.6689 L1002.77 46.22 Q1002.77 49.5858 1000.98 50.9136 Q999.223 52.2106 997.587 52.2106 Q995.487 52.2106 994.159 50.6666 Q992.831 49.1226 992.646 47.0228 Q991.689 49.4314 989.496 51.0063 Q987.335 52.5502 984.371 52.5502 Q982.085 52.5502 979.924 51.9635 Q977.793 51.4077 976.002 49.8329 Q974.242 48.2271 974.242 45.8186 M979.121 45.7568 Q979.121 48.1036 980.789 49.6167 Q982.456 51.1298 984.803 51.1298 Q987.458 51.1298 989.836 49.0918 Q992.214 47.0228 992.214 42.9777 L992.214 36.6474 Q985.204 36.8945 982.147 39.7045 Q979.121 42.4836 979.121 45.7568 Z" fill="#000000" fill-rule="evenodd" fill-opacity="1" /><path clip-path="url(#clip890)" d="M 0 0 M1008.95 48.3815 Q1004.94 44.182 1004.94 38.1914 Q1004.94 32.1699 1008.89 27.8469 Q1012.84 23.4929 1018.65 23.4929 Q1022.51 23.4929 1025.41 25.3456 Q1028.31 27.1675 1028.31 30.2863 Q1028.31 31.6759 1027.48 32.4787 Q1026.68 33.2507 1025.41 33.2507 Q1024.08 33.2507 1023.28 32.4479 Q1022.51 31.6141 1022.51 30.3481 Q1022.51 29.7923 1022.69 29.2364 Q1022.88 28.6806 1023.56 28.0939 Q1024.27 27.5072 1025.47 27.4146 Q1023.22 25.0986 1018.83 25.0986 Q1018.77 25.0986 1018.71 25.0986 Q1015.5 25.0986 1012.84 28.1248 Q1010.19 31.1509 1010.19 38.0679 Q1010.19 41.6807 1011.05 44.3364 Q1011.95 46.9611 1013.4 48.3198 Q1014.85 49.6785 1016.27 50.3269 Q1017.69 50.9445 1019.08 50.9445 Q1025.29 50.9445 1027.39 44.3055 Q1027.57 43.6879 1028.19 43.6879 Q1029.02 43.6879 1029.02 44.3055 Q1029.02 44.6143 1028.77 45.4171 Q1028.53 46.22 1027.76 47.486 Q1026.98 48.7521 1025.87 49.8637 Q1024.79 50.9445 1022.85 51.7474 Q1020.93 52.5502 1018.52 52.5502 Q1012.96 52.5502 1008.95 48.3815 Z" fill="#000000" fill-rule="evenodd" fill-opacity="1" /><path clip-path="url(#clip890)" d="M 0 0 M1029.3 51.84 L1029.3 49.8946 Q1032.67 49.8946 1033.44 49.4932 Q1034.21 49.0609 1034.21 47.0228 L1034.21 14.1365 Q1034.21 11.7897 1033.38 11.203 Q1032.57 10.6163 1029.3 10.6163 L1029.3 8.64 L1038.38 7.96066 L1038.38 29.9466 L1038.44 29.9466 Q1039.46 27.6616 1041.74 25.778 Q1044.03 23.8943 1047.55 23.8943 Q1052.3 23.8943 1054.19 26.2411 Q1055.58 27.816 1055.86 29.5761 Q1056.16 31.3362 1056.16 35.9063 L1056.16 47.9801 Q1056.23 49.3079 1057.25 49.6167 Q1058.26 49.8946 1061.11 49.8946 L1061.11 51.84 Q1054.65 51.6547 1054 51.6547 Q1053.51 51.6547 1046.87 51.84 L1046.87 49.8946 Q1050.24 49.8946 1051.01 49.4932 Q1051.81 49.0609 1051.81 47.0228 L1051.81 32.2935 Q1051.81 29.082 1050.82 27.1984 Q1049.83 25.2839 1047.12 25.2839 Q1043.84 25.2839 1041.22 28.0321 Q1038.59 30.7804 1038.59 35.4123 L1038.59 47.0228 Q1038.59 49.0609 1039.37 49.4932 Q1040.17 49.8946 1043.5 49.8946 L1043.5 51.84 Q1037.05 51.6547 1036.43 51.6547 Q1035.94 51.6547 1029.3 51.84 Z" fill="#000000" fill-rule="evenodd" fill-opacity="1" /><path clip-path="url(#clip890)" d="M 0 0 M1088.31 48.3815 Q1084.3 44.182 1084.3 38.1914 Q1084.3 32.1699 1088.25 27.8469 Q1092.2 23.4929 1098.01 23.4929 Q1101.87 23.4929 1104.77 25.3456 Q1107.67 27.1675 1107.67 30.2863 Q1107.67 31.6759 1106.84 32.4787 Q1106.03 33.2507 1104.77 33.2507 Q1103.44 33.2507 1102.64 32.4479 Q1101.87 31.6141 1101.87 30.3481 Q1101.87 29.7923 1102.05 29.2364 Q1102.24 28.6806 1102.92 28.0939 Q1103.63 27.5072 1104.83 27.4146 Q1102.58 25.0986 1098.19 25.0986 Q1098.13 25.0986 1098.07 25.0986 Q1094.86 25.0986 1092.2 28.1248 Q1089.55 31.1509 1089.55 38.0679 Q1089.55 41.6807 1090.41 44.3364 Q1091.31 46.9611 1092.76 48.3198 Q1094.21 49.6785 1095.63 50.3269 Q1097.05 50.9445 1098.44 50.9445 Q1104.65 50.9445 1106.74 44.3055 Q1106.93 43.6879 1107.55 43.6879 Q1108.38 43.6879 1108.38 44.3055 Q1108.38 44.6143 1108.13 45.4171 Q1107.89 46.22 1107.12 47.486 Q1106.34 48.7521 1105.23 49.8637 Q1104.15 50.9445 1102.21 51.7474 Q1100.29 52.5502 1097.88 52.5502 Q1092.32 52.5502 1088.31 48.3815 Z" fill="#000000" fill-rule="evenodd" fill-opacity="1" /><path clip-path="url(#clip890)" d="M 0 0 M1108.66 51.84 L1108.66 49.8946 Q1112.03 49.8946 1112.8 49.4932 Q1113.57 49.0609 1113.57 47.0228 L1113.57 14.1365 Q1113.57 11.7897 1112.74 11.203 Q1111.93 10.6163 1108.66 10.6163 L1108.66 8.64 L1117.74 7.96066 L1117.74 29.9466 L1117.8 29.9466 Q1118.82 27.6616 1121.1 25.778 Q1123.39 23.8943 1126.91 23.8943 Q1131.66 23.8943 1133.55 26.2411 Q1134.94 27.816 1135.22 29.5761 Q1135.52 31.3362 1135.52 35.9063 L1135.52 47.9801 Q1135.59 49.3079 1136.6 49.6167 Q1137.62 49.8946 1140.46 49.8946 L1140.46 51.84 Q1134.01 51.6547 1133.36 51.6547 Q1132.87 51.6547 1126.23 51.84 L1126.23 49.8946 Q1129.6 49.8946 1130.37 49.4932 Q1131.17 49.0609 1131.17 47.0228 L1131.17 32.2935 Q1131.17 29.082 1130.18 27.1984 Q1129.19 25.2839 1126.48 25.2839 Q1123.2 25.2839 1120.58 28.0321 Q1117.95 30.7804 1117.95 35.4123 L1117.95 47.0228 Q1117.95 49.0609 1118.73 49.4932 Q1119.53 49.8946 1122.86 49.8946 L1122.86 51.84 Q1116.41 51.6547 1115.79 51.6547 Q1115.3 51.6547 1108.66 51.84 Z" fill="#000000" fill-rule="evenodd" fill-opacity="1" /><path clip-path="url(#clip890)" d="M 0 0 M1143.12 45.8186 Q1143.12 40.4456 1149.45 37.6047 Q1153.25 35.7828 1161.09 35.3196 L1161.09 33.0037 Q1161.09 29.082 1159.02 27.0131 Q1156.99 24.9133 1154.39 24.9133 Q1149.76 24.9133 1147.54 27.816 Q1149.42 27.8777 1150.1 28.835 Q1150.78 29.7614 1150.78 30.7186 Q1150.78 31.9847 1149.98 32.8184 Q1149.2 33.6213 1147.88 33.6213 Q1146.61 33.6213 1145.78 32.8493 Q1144.94 32.0464 1144.94 30.6569 Q1144.94 27.5689 1147.72 25.5309 Q1150.53 23.4929 1154.51 23.4929 Q1159.7 23.4929 1163.16 26.9822 Q1164.24 28.063 1164.77 29.4526 Q1165.32 30.8421 1165.38 31.7685 Q1165.45 32.664 1165.45 34.455 L1165.45 47.0846 Q1165.45 47.4552 1165.57 48.0727 Q1165.69 48.6903 1166.25 49.4932 Q1166.84 50.2652 1167.79 50.2652 Q1170.08 50.2652 1170.05 46.22 L1170.05 42.6689 L1171.65 42.6689 L1171.65 46.22 Q1171.65 49.5858 1169.86 50.9136 Q1168.1 52.2106 1166.47 52.2106 Q1164.37 52.2106 1163.04 50.6666 Q1161.71 49.1226 1161.52 47.0228 Q1160.57 49.4314 1158.37 51.0063 Q1156.21 52.5502 1153.25 52.5502 Q1150.96 52.5502 1148.8 51.9635 Q1146.67 51.4077 1144.88 49.8329 Q1143.12 48.2271 1143.12 45.8186 M1148 45.7568 Q1148 48.1036 1149.67 49.6167 Q1151.33 51.1298 1153.68 51.1298 Q1156.34 51.1298 1158.71 49.0918 Q1161.09 47.0228 1161.09 42.9777 L1161.09 36.6474 Q1154.08 36.8945 1151.03 39.7045 Q1148 42.4836 1148 45.7568 Z" fill="#000000" fill-rule="evenodd" fill-opacity="1" /><path clip-path="url(#clip890)" d="M 0 0 M1173.69 51.84 L1173.69 49.8946 Q1177.06 49.8946 1177.83 49.4932 Q1178.6 49.0609 1178.6 47.0228 L1178.6 30.0702 Q1178.6 27.7233 1177.77 27.1366 Q1176.96 26.5499 1173.69 26.5499 L1173.69 24.5737 L1182.58 23.8943 L1182.58 30.5334 Q1185.55 23.8943 1191.94 23.8943 Q1196.7 23.8943 1198.58 26.2411 Q1199.97 27.816 1200.25 29.5761 Q1200.56 31.3362 1200.56 35.9063 L1200.56 47.9801 Q1200.62 49.3079 1201.64 49.6167 Q1202.66 49.8946 1205.5 49.8946 L1205.5 51.84 Q1199.04 51.6547 1198.39 51.6547 Q1197.9 51.6547 1191.26 51.84 L1191.26 49.8946 Q1194.63 49.8946 1195.4 49.4932 Q1196.2 49.0609 1196.2 47.0228 L1196.2 32.2935 Q1196.2 29.082 1195.21 27.1984 Q1194.23 25.2839 1191.51 25.2839 Q1188.24 25.2839 1185.61 28.0321 Q1182.99 30.7804 1182.99 35.4123 L1182.99 47.0228 Q1182.99 49.0609 1183.76 49.4932 Q1184.56 49.8946 1187.9 49.8946 L1187.9 51.84 Q1181.44 51.6547 1180.82 51.6547 Q1180.33 51.6547 1173.69 51.84 Z" fill="#000000" fill-rule="evenodd" fill-opacity="1" /><path clip-path="url(#clip890)" d="M 0 0 M1207.26 56.8424 Q1207.26 54.8044 1208.8 53.0443 Q1210.38 51.2842 1213.09 50.5122 Q1210.31 48.7521 1210.31 44.8922 Q1210.31 41.9278 1212.26 39.6427 Q1209.29 37.1724 1209.29 33.1272 Q1209.29 29.3908 1212.26 26.6426 Q1215.22 23.8943 1219.55 23.8943 Q1223.34 23.8943 1226.25 26.1794 Q1229.27 23.215 1232.95 23.1841 Q1234.58 23.1841 1235.36 24.2031 Q1236.16 25.2221 1236.16 26.3029 Q1236.16 27.2602 1235.54 27.7233 Q1234.96 28.1865 1234.34 28.1865 Q1233.57 28.1865 1233.01 27.6925 Q1232.48 27.1675 1232.48 26.3647 Q1232.48 25.0369 1233.5 24.6354 Q1233.32 24.5737 1232.89 24.5737 Q1229.8 24.5737 1227.17 27.044 Q1229.77 29.4526 1229.77 33.189 Q1229.77 36.9253 1226.8 39.6736 Q1223.84 42.4218 1219.55 42.4218 Q1216 42.4218 1213.28 40.4456 Q1212.2 41.7116 1212.2 43.4409 Q1212.2 45.0157 1213.15 46.2509 Q1214.11 47.486 1215.56 47.6713 Q1216 47.7331 1220.29 47.7331 Q1222.82 47.7331 1224.21 47.7948 Q1225.6 47.8566 1227.58 48.2889 Q1229.58 48.6903 1231.16 49.4932 Q1235.26 51.7782 1235.29 56.7189 Q1235.29 60.3318 1231.13 62.586 Q1226.99 64.871 1221.24 64.871 Q1215.44 64.871 1211.33 62.5551 Q1207.26 60.27 1207.26 56.8424 M1210.56 56.8424 Q1210.56 59.4363 1213.62 61.4126 Q1216.67 63.4197 1221.31 63.4197 Q1225.85 63.4197 1228.9 61.4434 Q1231.99 59.498 1231.99 56.8424 Q1231.99 54.9588 1230.91 53.7545 Q1229.83 52.5502 1227.61 52.0562 Q1225.41 51.593 1223.87 51.5003 Q1222.33 51.4077 1219.48 51.4077 L1215.75 51.4077 Q1213.59 51.5312 1212.07 53.106 Q1210.56 54.6809 1210.56 56.8424 M1214.02 33.189 Q1214.02 40.9705 1219.55 40.9705 Q1222.33 40.9705 1224.02 38.4384 Q1225.04 36.7401 1225.04 33.1272 Q1225.04 25.3456 1219.55 25.3456 Q1216.77 25.3456 1215.04 27.8777 Q1214.02 29.5761 1214.02 33.189 Z" fill="#000000" fill-rule="evenodd" fill-opacity="1" /><path clip-path="url(#clip890)" d="M 0 0 M1237.92 37.9135 Q1237.92 31.9538 1241.75 27.7233 Q1245.58 23.4929 1251.07 23.4929 Q1256.63 23.4929 1259.5 27.1058 Q1262.41 30.7186 1262.41 35.9063 Q1262.41 36.8636 1262.16 37.0489 Q1261.91 37.2341 1260.83 37.2341 L1243.17 37.2341 Q1243.17 43.6879 1245.08 46.7141 Q1247.74 50.9445 1252.22 50.9445 Q1252.83 50.9445 1253.58 50.821 Q1254.32 50.6975 1255.83 50.1725 Q1257.34 49.6167 1258.67 48.1654 Q1260 46.7141 1260.77 44.429 Q1260.96 43.5335 1261.57 43.5644 Q1262.41 43.5644 1262.41 44.3055 Q1262.41 44.8613 1261.79 46.1273 Q1261.2 47.3625 1260.06 48.8447 Q1258.92 50.3269 1256.69 51.4386 Q1254.5 52.5502 1251.85 52.5502 Q1246.29 52.5502 1242.09 48.3507 Q1237.92 44.1202 1237.92 37.9135 M1243.23 35.9063 L1258.24 35.9063 Q1258.24 34.5785 1257.99 33.0963 Q1257.77 31.6141 1257.1 29.5761 Q1256.45 27.5072 1254.9 26.2103 Q1253.36 24.9133 1251.07 24.9133 Q1250.06 24.9133 1248.94 25.3456 Q1247.86 25.778 1246.53 26.8278 Q1245.21 27.8777 1244.28 30.2554 Q1243.35 32.6331 1243.23 35.9063 Z" fill="#000000" fill-rule="evenodd" fill-opacity="1" /><path clip-path="url(#clip890)" d="M 0 0 M1286.09 45.8186 Q1286.09 40.4456 1292.42 37.6047 Q1296.22 35.7828 1304.06 35.3196 L1304.06 33.0037 Q1304.06 29.082 1301.99 27.0131 Q1299.96 24.9133 1297.36 24.9133 Q1292.73 24.9133 1290.51 27.816 Q1292.39 27.8777 1293.07 28.835 Q1293.75 29.7614 1293.75 30.7186 Q1293.75 31.9847 1292.95 32.8184 Q1292.17 33.6213 1290.85 33.6213 Q1289.58 33.6213 1288.75 32.8493 Q1287.91 32.0464 1287.91 30.6569 Q1287.91 27.5689 1290.69 25.5309 Q1293.5 23.4929 1297.49 23.4929 Q1302.67 23.4929 1306.13 26.9822 Q1307.21 28.063 1307.74 29.4526 Q1308.29 30.8421 1308.36 31.7685 Q1308.42 32.664 1308.42 34.455 L1308.42 47.0846 Q1308.42 47.4552 1308.54 48.0727 Q1308.66 48.6903 1309.22 49.4932 Q1309.81 50.2652 1310.76 50.2652 Q1313.05 50.2652 1313.02 46.22 L1313.02 42.6689 L1314.62 42.6689 L1314.62 46.22 Q1314.62 49.5858 1312.83 50.9136 Q1311.07 52.2106 1309.44 52.2106 Q1307.34 52.2106 1306.01 50.6666 Q1304.68 49.1226 1304.5 47.0228 Q1303.54 49.4314 1301.35 51.0063 Q1299.18 52.5502 1296.22 52.5502 Q1293.93 52.5502 1291.77 51.9635 Q1289.64 51.4077 1287.85 49.8329 Q1286.09 48.2271 1286.09 45.8186 M1290.97 45.7568 Q1290.97 48.1036 1292.64 49.6167 Q1294.31 51.1298 1296.65 51.1298 Q1299.31 51.1298 1301.69 49.0918 Q1304.06 47.0228 1304.06 42.9777 L1304.06 36.6474 Q1297.05 36.8945 1294 39.7045 Q1290.97 42.4836 1290.97 45.7568 Z" fill="#000000" fill-rule="evenodd" fill-opacity="1" /><path clip-path="url(#clip890)" d="M 0 0 M1320.8 48.3815 Q1316.79 44.182 1316.79 38.1914 Q1316.79 32.1699 1320.74 27.8469 Q1324.69 23.4929 1330.5 23.4929 Q1334.36 23.4929 1337.26 25.3456 Q1340.16 27.1675 1340.16 30.2863 Q1340.16 31.6759 1339.33 32.4787 Q1338.52 33.2507 1337.26 33.2507 Q1335.93 33.2507 1335.13 32.4479 Q1334.36 31.6141 1334.36 30.3481 Q1334.36 29.7923 1334.54 29.2364 Q1334.73 28.6806 1335.41 28.0939 Q1336.12 27.5072 1337.32 27.4146 Q1335.07 25.0986 1330.68 25.0986 Q1330.62 25.0986 1330.56 25.0986 Q1327.35 25.0986 1324.69 28.1248 Q1322.03 31.1509 1322.03 38.0679 Q1322.03 41.6807 1322.9 44.3364 Q1323.79 46.9611 1325.25 48.3198 Q1326.7 49.6785 1328.12 50.3269 Q1329.54 50.9445 1330.93 50.9445 Q1337.13 50.9445 1339.23 44.3055 Q1339.42 43.6879 1340.04 43.6879 Q1340.87 43.6879 1340.87 44.3055 Q1340.87 44.6143 1340.62 45.4171 Q1340.38 46.22 1339.6 47.486 Q1338.83 48.7521 1337.72 49.8637 Q1336.64 50.9445 1334.7 51.7474 Q1332.78 52.5502 1330.37 52.5502 Q1324.81 52.5502 1320.8 48.3815 Z" fill="#000000" fill-rule="evenodd" fill-opacity="1" /><path clip-path="url(#clip890)" d="M 0 0 M1342.63 51.84 L1342.63 49.8946 Q1346 49.8946 1346.77 49.4932 Q1347.57 49.0609 1347.57 47.0228 L1347.57 30.0702 Q1347.57 27.7233 1346.74 27.1366 Q1345.94 26.5499 1342.63 26.5499 L1342.63 24.5737 L1351.43 23.8943 L1351.43 30.8421 Q1352.33 28.1248 1354.21 26.025 Q1356.13 23.8943 1359.21 23.8943 Q1361.25 23.8943 1362.55 25.0369 Q1363.88 26.1794 1363.88 27.7542 Q1363.88 29.1438 1363.01 29.854 Q1362.18 30.5334 1361.16 30.5334 Q1360.02 30.5334 1359.21 29.8231 Q1358.44 29.082 1358.44 27.816 Q1358.44 27.044 1358.78 26.4573 Q1359.15 25.8397 1359.43 25.6236 Q1359.71 25.4074 1359.89 25.3456 Q1359.77 25.2839 1359.21 25.2839 Q1355.72 25.2839 1353.72 28.7732 Q1351.74 32.2317 1351.74 37.1724 L1351.74 46.8993 Q1351.74 48.7212 1352.48 49.3079 Q1353.25 49.8946 1356.56 49.8946 L1357.89 49.8946 L1357.89 51.84 Q1355.35 51.6547 1349.86 51.6547 Q1349.08 51.6547 1347.88 51.6856 Q1346.68 51.7165 1345.1 51.7782 Q1343.53 51.84 1342.63 51.84 Z" fill="#000000" fill-rule="evenodd" fill-opacity="1" /><path clip-path="url(#clip890)" d="M 0 0 M1369.8 48.4433 Q1365.64 44.3055 1365.64 38.3149 Q1365.64 32.2935 1369.71 27.9086 Q1373.82 23.4929 1379.69 23.4929 Q1385.43 23.4929 1389.54 27.8777 Q1393.67 32.2317 1393.67 38.3149 Q1393.67 44.2746 1389.51 48.4124 Q1385.37 52.5502 1379.62 52.5502 Q1374 52.5502 1369.8 48.4433 M1370.89 37.79 Q1370.89 43.9349 1372.49 46.7141 Q1374.96 50.9445 1379.69 50.9445 Q1382.03 50.9445 1383.98 49.6785 Q1385.95 48.4124 1387.04 46.2817 Q1388.42 43.5026 1388.42 37.79 Q1388.42 31.7068 1386.76 29.0203 Q1384.29 24.9133 1379.62 24.9133 Q1377.59 24.9133 1375.58 25.9941 Q1373.6 27.044 1372.4 29.1438 Q1370.89 31.9229 1370.89 37.79 Z" fill="#000000" fill-rule="evenodd" fill-opacity="1" /><path clip-path="url(#clip890)" d="M 0 0 M1395.77 51.0063 L1395.77 42.6689 Q1395.77 41.9587 1395.8 41.7116 Q1395.84 41.4646 1396.02 41.2793 Q1396.21 41.094 1396.58 41.094 Q1397.01 41.094 1397.16 41.2793 Q1397.35 41.4646 1397.47 42.1748 Q1398.43 46.5288 1400.47 48.8447 Q1402.54 51.1298 1406.27 51.1298 Q1409.82 51.1298 1411.62 49.5549 Q1413.41 47.9801 1413.41 45.3862 Q1413.41 40.7544 1406.83 39.581 Q1403.03 38.809 1401.46 38.3149 Q1399.88 37.79 1398.49 36.6474 Q1395.77 34.4241 1395.77 31.2745 Q1395.77 28.1248 1398.15 25.8088 Q1400.56 23.4929 1405.87 23.4929 Q1409.42 23.4929 1411.83 25.2839 Q1412.54 24.7281 1412.91 24.2649 Q1413.75 23.4929 1414.18 23.4929 Q1414.67 23.4929 1414.76 23.8326 Q1414.86 24.1414 1414.86 25.0369 L1414.86 31.398 Q1414.86 32.1082 1414.83 32.3552 Q1414.8 32.6023 1414.61 32.7875 Q1414.43 32.9419 1414.02 32.9419 Q1413.31 32.9419 1413.28 32.3552 Q1412.79 24.6972 1405.87 24.6972 Q1402.14 24.6972 1400.47 26.1485 Q1398.8 27.5689 1398.8 29.5143 Q1398.8 30.5951 1399.29 31.4288 Q1399.82 32.2317 1400.47 32.7258 Q1401.15 33.189 1402.38 33.6522 Q1403.62 34.0845 1404.36 34.2389 Q1405.13 34.3933 1406.58 34.702 Q1411.65 35.6593 1413.78 37.7282 Q1416.43 40.3838 1416.43 43.7496 Q1416.43 47.486 1413.9 50.0181 Q1411.37 52.5502 1406.27 52.5502 Q1402.17 52.5502 1399.29 49.802 Q1398.92 50.1725 1398.65 50.5122 Q1398.37 50.821 1398.24 50.9445 Q1398.15 51.068 1398.12 51.1607 Q1398.09 51.2224 1398.03 51.2842 Q1396.76 52.5502 1396.45 52.5502 Q1395.96 52.5502 1395.87 52.2106 Q1395.77 51.9018 1395.77 51.0063 Z" fill="#000000" fill-rule="evenodd" fill-opacity="1" /><path clip-path="url(#clip890)" d="M 0 0 M1418.53 51.0063 L1418.53 42.6689 Q1418.53 41.9587 1418.56 41.7116 Q1418.59 41.4646 1418.78 41.2793 Q1418.96 41.094 1419.33 41.094 Q1419.77 41.094 1419.92 41.2793 Q1420.11 41.4646 1420.23 42.1748 Q1421.19 46.5288 1423.23 48.8447 Q1425.29 51.1298 1429.03 51.1298 Q1432.58 51.1298 1434.37 49.5549 Q1436.16 47.9801 1436.16 45.3862 Q1436.16 40.7544 1429.59 39.581 Q1425.79 38.809 1424.21 38.3149 Q1422.64 37.79 1421.25 36.6474 Q1418.53 34.4241 1418.53 31.2745 Q1418.53 28.1248 1420.91 25.8088 Q1423.32 23.4929 1428.63 23.4929 Q1432.18 23.4929 1434.59 25.2839 Q1435.3 24.7281 1435.67 24.2649 Q1436.5 23.4929 1436.94 23.4929 Q1437.43 23.4929 1437.52 23.8326 Q1437.62 24.1414 1437.62 25.0369 L1437.62 31.398 Q1437.62 32.1082 1437.58 32.3552 Q1437.55 32.6023 1437.37 32.7875 Q1437.18 32.9419 1436.78 32.9419 Q1436.07 32.9419 1436.04 32.3552 Q1435.55 24.6972 1428.63 24.6972 Q1424.89 24.6972 1423.23 26.1485 Q1421.56 27.5689 1421.56 29.5143 Q1421.56 30.5951 1422.05 31.4288 Q1422.58 32.2317 1423.23 32.7258 Q1423.91 33.189 1425.14 33.6522 Q1426.38 34.0845 1427.12 34.2389 Q1427.89 34.3933 1429.34 34.702 Q1434.4 35.6593 1436.53 37.7282 Q1439.19 40.3838 1439.19 43.7496 Q1439.19 47.486 1436.66 50.0181 Q1434.13 52.5502 1429.03 52.5502 Q1424.92 52.5502 1422.05 49.802 Q1421.68 50.1725 1421.4 50.5122 Q1421.13 50.821 1421 50.9445 Q1420.91 51.068 1420.88 51.1607 Q1420.85 51.2224 1420.79 51.2842 Q1419.52 52.5502 1419.21 52.5502 Q1418.72 52.5502 1418.62 52.2106 Q1418.53 51.9018 1418.53 51.0063 Z" fill="#000000" fill-rule="evenodd" fill-opacity="1" /><path clip-path="url(#clip890)" d="M 0 0 M1462.87 45.8186 Q1462.87 40.4456 1469.2 37.6047 Q1473 35.7828 1480.85 35.3196 L1480.85 33.0037 Q1480.85 29.082 1478.78 27.0131 Q1476.74 24.9133 1474.15 24.9133 Q1469.51 24.9133 1467.29 27.816 Q1469.17 27.8777 1469.85 28.835 Q1470.53 29.7614 1470.53 30.7186 Q1470.53 31.9847 1469.73 32.8184 Q1468.96 33.6213 1467.63 33.6213 Q1466.36 33.6213 1465.53 32.8493 Q1464.7 32.0464 1464.7 30.6569 Q1464.7 27.5689 1467.48 25.5309 Q1470.29 23.4929 1474.27 23.4929 Q1479.46 23.4929 1482.92 26.9822 Q1484 28.063 1484.52 29.4526 Q1485.08 30.8421 1485.14 31.7685 Q1485.2 32.664 1485.2 34.455 L1485.2 47.0846 Q1485.2 47.4552 1485.32 48.0727 Q1485.45 48.6903 1486 49.4932 Q1486.59 50.2652 1487.55 50.2652 Q1489.83 50.2652 1489.8 46.22 L1489.8 42.6689 L1491.41 42.6689 L1491.41 46.22 Q1491.41 49.5858 1489.62 50.9136 Q1487.86 52.2106 1486.22 52.2106 Q1484.12 52.2106 1482.79 50.6666 Q1481.46 49.1226 1481.28 47.0228 Q1480.32 49.4314 1478.13 51.0063 Q1475.97 52.5502 1473 52.5502 Q1470.72 52.5502 1468.56 51.9635 Q1466.43 51.4077 1464.63 49.8329 Q1462.87 48.2271 1462.87 45.8186 M1467.75 45.7568 Q1467.75 48.1036 1469.42 49.6167 Q1471.09 51.1298 1473.44 51.1298 Q1476.09 51.1298 1478.47 49.0918 Q1480.85 47.0228 1480.85 42.9777 L1480.85 36.6474 Q1473.84 36.8945 1470.78 39.7045 Q1467.75 42.4836 1467.75 45.7568 Z" fill="#000000" fill-rule="evenodd" fill-opacity="1" /><path clip-path="url(#clip890)" d="M 0 0 M1514.54 51.0063 L1514.54 42.6689 Q1514.54 41.9587 1514.57 41.7116 Q1514.6 41.4646 1514.78 41.2793 Q1514.97 41.094 1515.34 41.094 Q1515.77 41.094 1515.93 41.2793 Q1516.11 41.4646 1516.23 42.1748 Q1517.19 46.5288 1519.23 48.8447 Q1521.3 51.1298 1525.03 51.1298 Q1528.59 51.1298 1530.38 49.5549 Q1532.17 47.9801 1532.17 45.3862 Q1532.17 40.7544 1525.59 39.581 Q1521.79 38.809 1520.22 38.3149 Q1518.64 37.79 1517.25 36.6474 Q1514.54 34.4241 1514.54 31.2745 Q1514.54 28.1248 1516.91 25.8088 Q1519.32 23.4929 1524.63 23.4929 Q1528.18 23.4929 1530.59 25.2839 Q1531.3 24.7281 1531.67 24.2649 Q1532.51 23.4929 1532.94 23.4929 Q1533.43 23.4929 1533.53 23.8326 Q1533.62 24.1414 1533.62 25.0369 L1533.62 31.398 Q1533.62 32.1082 1533.59 32.3552 Q1533.56 32.6023 1533.37 32.7875 Q1533.19 32.9419 1532.79 32.9419 Q1532.07 32.9419 1532.04 32.3552 Q1531.55 24.6972 1524.63 24.6972 Q1520.9 24.6972 1519.23 26.1485 Q1517.56 27.5689 1517.56 29.5143 Q1517.56 30.5951 1518.06 31.4288 Q1518.58 32.2317 1519.23 32.7258 Q1519.91 33.189 1521.14 33.6522 Q1522.38 34.0845 1523.12 34.2389 Q1523.89 34.3933 1525.34 34.702 Q1530.41 35.6593 1532.54 37.7282 Q1535.19 40.3838 1535.19 43.7496 Q1535.19 47.486 1532.66 50.0181 Q1530.13 52.5502 1525.03 52.5502 Q1520.93 52.5502 1518.06 49.802 Q1517.69 50.1725 1517.41 50.5122 Q1517.13 50.821 1517.01 50.9445 Q1516.91 51.068 1516.88 51.1607 Q1516.85 51.2224 1516.79 51.2842 Q1515.52 52.5502 1515.21 52.5502 Q1514.72 52.5502 1514.63 52.2106 Q1514.54 51.9018 1514.54 51.0063 Z" fill="#000000" fill-rule="evenodd" fill-opacity="1" /><path clip-path="url(#clip890)" d="M 0 0 M1537.23 51.84 L1537.23 49.8946 Q1540.6 49.8946 1541.37 49.4932 Q1542.14 49.0609 1542.14 47.0228 L1542.14 14.1365 Q1542.14 11.7897 1541.31 11.203 Q1540.5 10.6163 1537.23 10.6163 L1537.23 8.64 L1546.31 7.96066 L1546.31 29.9466 L1546.37 29.9466 Q1547.39 27.6616 1549.68 25.778 Q1551.96 23.8943 1555.48 23.8943 Q1560.24 23.8943 1562.12 26.2411 Q1563.51 27.816 1563.79 29.5761 Q1564.1 31.3362 1564.1 35.9063 L1564.1 47.9801 Q1564.16 49.3079 1565.18 49.6167 Q1566.2 49.8946 1569.04 49.8946 L1569.04 51.84 Q1562.58 51.6547 1561.94 51.6547 Q1561.44 51.6547 1554.8 51.84 L1554.8 49.8946 Q1558.17 49.8946 1558.94 49.4932 Q1559.74 49.0609 1559.74 47.0228 L1559.74 32.2935 Q1559.74 29.082 1558.75 27.1984 Q1557.77 25.2839 1555.05 25.2839 Q1551.78 25.2839 1549.15 28.0321 Q1546.53 30.7804 1546.53 35.4123 L1546.53 47.0228 Q1546.53 49.0609 1547.3 49.4932 Q1548.1 49.8946 1551.44 49.8946 L1551.44 51.84 Q1544.98 51.6547 1544.36 51.6547 Q1543.87 51.6547 1537.23 51.84 Z" fill="#000000" fill-rule="evenodd" fill-opacity="1" /><path clip-path="url(#clip890)" d="M 0 0 M1574.97 48.4433 Q1570.8 44.3055 1570.8 38.3149 Q1570.8 32.2935 1574.87 27.9086 Q1578.98 23.4929 1584.85 23.4929 Q1590.59 23.4929 1594.7 27.8777 Q1598.84 32.2317 1598.84 38.3149 Q1598.84 44.2746 1594.67 48.4124 Q1590.53 52.5502 1584.79 52.5502 Q1579.17 52.5502 1574.97 48.4433 M1576.05 37.79 Q1576.05 43.9349 1577.65 46.7141 Q1580.12 50.9445 1584.85 50.9445 Q1587.19 50.9445 1589.14 49.6785 Q1591.12 48.4124 1592.2 46.2817 Q1593.59 43.5026 1593.59 37.79 Q1593.59 31.7068 1591.92 29.0203 Q1589.45 24.9133 1584.79 24.9133 Q1582.75 24.9133 1580.74 25.9941 Q1578.76 27.044 1577.56 29.1438 Q1576.05 31.9229 1576.05 37.79 Z" fill="#000000" fill-rule="evenodd" fill-opacity="1" /><path clip-path="url(#clip890)" d="M 0 0 M1606.77 48.3815 Q1602.76 44.182 1602.76 38.1914 Q1602.76 32.1699 1606.71 27.8469 Q1610.66 23.4929 1616.47 23.4929 Q1620.33 23.4929 1623.23 25.3456 Q1626.13 27.1675 1626.13 30.2863 Q1626.13 31.6759 1625.3 32.4787 Q1624.5 33.2507 1623.23 33.2507 Q1621.9 33.2507 1621.1 32.4479 Q1620.33 31.6141 1620.33 30.3481 Q1620.33 29.7923 1620.51 29.2364 Q1620.7 28.6806 1621.38 28.0939 Q1622.09 27.5072 1623.29 27.4146 Q1621.04 25.0986 1616.65 25.0986 Q1616.59 25.0986 1616.53 25.0986 Q1613.32 25.0986 1610.66 28.1248 Q1608.01 31.1509 1608.01 38.0679 Q1608.01 41.6807 1608.87 44.3364 Q1609.77 46.9611 1611.22 48.3198 Q1612.67 49.6785 1614.09 50.3269 Q1615.51 50.9445 1616.9 50.9445 Q1623.11 50.9445 1625.21 44.3055 Q1625.39 43.6879 1626.01 43.6879 Q1626.84 43.6879 1626.84 44.3055 Q1626.84 44.6143 1626.6 45.4171 Q1626.35 46.22 1625.58 47.486 Q1624.81 48.7521 1623.69 49.8637 Q1622.61 50.9445 1620.67 51.7474 Q1618.75 52.5502 1616.34 52.5502 Q1610.79 52.5502 1606.77 48.3815 Z" fill="#000000" fill-rule="evenodd" fill-opacity="1" /><path clip-path="url(#clip890)" d="M 0 0 M1626.84 51.84 L1626.84 49.8946 Q1630.21 49.8946 1630.98 49.4932 Q1631.78 49.0609 1631.78 47.0228 L1631.78 14.1365 Q1631.78 11.7897 1630.95 11.203 Q1630.15 10.6163 1626.84 10.6163 L1626.84 8.64 L1635.95 7.96066 L1635.95 38.3149 L1644.88 30.5951 Q1646.27 29.3908 1646.27 28.1248 Q1646.27 26.6735 1644.44 26.5499 L1644.44 24.5737 Q1647.1 24.7589 1651.52 24.7589 Q1654.11 24.7589 1655.93 24.5737 L1655.93 26.5499 Q1651.95 26.7352 1647.96 29.9466 Q1647.07 30.6569 1644.94 32.5096 Q1642.84 34.3315 1642.84 34.5168 Q1642.84 34.5785 1642.9 34.7329 Q1642.99 34.8873 1643.12 35.0108 Q1643.24 35.1344 1643.24 35.1961 L1651.27 46.5288 Q1652.91 48.8138 1654.11 49.3697 Q1655.31 49.8946 1657.41 49.8946 L1657.41 51.84 Q1654.7 51.6547 1651.89 51.6547 Q1650.37 51.6547 1645.06 51.84 L1645.06 49.8946 Q1647.35 49.8946 1647.35 48.4124 Q1647.35 47.3934 1642.22 40.3221 Q1641.85 39.828 1641.02 38.7472 Q1640.24 37.6047 1639.81 37.0489 L1635.77 40.5073 L1635.77 47.0228 Q1635.77 49.0609 1636.54 49.4932 Q1637.34 49.8946 1640.71 49.8946 L1640.71 51.84 Q1636.91 51.6547 1633.76 51.6547 Q1633.11 51.6547 1626.84 51.84 Z" fill="#000000" fill-rule="evenodd" fill-opacity="1" /><polyline clip-path="url(#clip892)" style="stroke:#4477aa; stroke-width:4.8; stroke-opacity:1; fill:none" points="
  283.284,143.099 288.19,180.641 293.095,215.867 298,248.982 302.906,280.17 314.245,345.738 325.584,403.488 336.924,454.703 348.263,500.398 359.602,541.386 
  370.941,578.326 382.281,611.759 393.62,642.135 416.299,695.158 438.977,739.765 461.656,777.684 484.334,810.211 511.592,843.55 538.85,871.821 566.108,896.007 
  593.365,916.86 639.458,946.117 685.55,969.556 735.619,990.094 785.688,1006.75 831.847,1019.47 878.006,1030.19 976.981,1048.17 1091.65,1063.08 1193.56,1072.82 
  1282.92,1079.48 1380.35,1085.29 1478.36,1089.99 1586.73,1094.18 1689.83,1097.43 1797.03,1100.22 1887.27,1102.21 1997.45,1104.27 2101.02,1105.91 2266.94,1108.08 
  2292.48,1108.38 
  "/>
<polyline clip-path="url(#clip892)" style="stroke:#ee6677; stroke-width:4.8; stroke-opacity:1; fill:none" points="
  283.284,143.099 288.19,180.772 293.095,216.359 298,250.028 302.906,281.929 314.245,349.616 325.584,409.944 336.924,464.025 348.263,512.753 359.602,556.86 
  370.941,596.947 382.281,633.513 393.62,666.982 416.299,725.995 438.977,776.262 461.656,819.478 484.334,856.931 511.592,895.715 538.85,928.941 566.108,957.633 
  593.365,982.581 639.458,1017.94 685.55,1046.59 735.619,1071.95 785.688,1092.71 831.847,1108.68 878.006,1122.24 976.981,1145.15 1091.65,1164.35 1193.56,1176.99 
  1282.92,1185.68 1380.35,1193.29 1478.36,1199.47 1586.73,1205 1689.83,1209.31 1797.03,1213.01 1887.27,1215.65 1997.45,1218.39 2101.02,1220.58 2266.94,1223.48 
  2292.48,1223.87 
  "/>
<polyline clip-path="url(#clip892)" style="stroke:#228833; stroke-width:4.8; stroke-opacity:1; fill:none" points="
  283.284,143.099 288.19,180.894 293.095,216.823 298,251.02 302.906,283.607 314.245,353.359 325.584,416.245 336.924,473.215 348.263,525.05 370.941,615.796 
  393.62,692.514 416.299,758.115 438.977,814.752 461.656,864.058 484.334,907.295 511.592,952.613 538.85,991.924 566.108,1026.27 593.365,1056.46 639.458,1099.84 
  685.55,1135.55 735.619,1167.63 785.688,1194.27 831.847,1215.01 878.006,1232.8 976.981,1263.31 1091.65,1289.33 1193.56,1306.71 1282.92,1318.79 1380.35,1329.46 
  1478.36,1338.2 1586.73,1346.07 1689.83,1352.23 1797.03,1357.55 1887.27,1361.36 1997.45,1365.33 2101.02,1368.52 2266.94,1372.74 2292.48,1373.31 
  "/>
<path clip-path="url(#clip890)" d="
M1787.67 512.54 L2281.76 512.54 L2281.76 149.66 L1787.67 149.66  Z
  " fill="#ffffff" fill-rule="evenodd" fill-opacity="0.9"/>
<polyline clip-path="url(#clip890)" style="stroke:#222255; stroke-width:4; stroke-opacity:0.1; fill:none" points="
  1787.67,512.54 2281.76,512.54 2281.76,149.66 1787.67,149.66 1787.67,512.54 
  "/>
<polyline clip-path="url(#clip890)" style="stroke:#4477aa; stroke-width:6; stroke-opacity:1; fill:none" points="
  1811.33,240.38 1953.31,240.38 
  "/>
<path clip-path="url(#clip890)" d="M 0 0 M1976.98 239.879 Q1976.98 238.657 1977.39 237.212 Q1977.83 235.729 1979.2 234.284 Q1980.57 232.839 1982.61 232.839 Q1986.54 232.839 1989.61 238.36 Q1992.69 243.844 1996.02 256.147 Q1997.54 250.774 1999.84 244.993 Q2000.77 242.733 2001.43 241.325 Q2002.1 239.879 2003.51 237.582 Q2004.92 235.248 2006.66 234.062 Q2008.4 232.839 2010.44 232.839 Q2012.03 232.839 2012.92 233.802 Q2013.81 234.729 2013.81 235.952 Q2013.81 237.767 2012.29 238.694 Q2011.77 238.99 2010.51 239.175 Q2009.25 239.361 2008.22 239.657 Q2007.18 239.954 2005.58 241.695 Q2003.99 243.4 2002.47 246.586 Q2000.58 250.514 1998.91 255.331 Q1997.25 260.149 1997.25 261.297 Q1997.25 261.816 1997.62 263.965 Q1998.03 266.077 1998.4 269.783 Q1998.77 273.525 1998.77 277.75 Q1998.77 278.676 1998.69 279.121 Q1998.54 280.121 1997.77 280.751 Q1997.02 281.418 1995.95 281.418 Q1993.06 281.418 1993.06 277.676 L1993.06 277.305 Q1993.06 274.044 1993.47 270.153 Q1993.91 266.3 1994.36 263.706 L1994.76 261.223 Q1994.76 259.63 1992.36 252.775 Q1989.98 245.882 1987.98 242.918 Q1985.54 239.212 1982.24 239.212 Q1980.72 239.212 1979.98 239.546 Q1979.28 239.879 1978.91 240.435 Q1978.57 240.954 1978.42 241.028 Q1977.98 241.325 1977.46 240.991 Q1976.98 240.621 1976.98 239.879 Z" fill="#000000" fill-rule="evenodd" fill-opacity="1" /><path clip-path="url(#clip890)" d="M 0 0 M2043.38 254.776 Q2043.45 253.849 2044.9 253.849 L2091.4 253.849 Q2093.59 253.849 2093.63 254.701 Q2093.63 255.628 2091.55 255.591 L2045.42 255.591 Q2043.38 255.628 2043.38 254.776 M2043.38 239.954 Q2043.38 239.027 2044.97 239.064 L2091.33 239.064 Q2093.59 239.064 2093.63 239.954 Q2093.63 240.806 2091.7 240.806 L2044.9 240.806 Q2043.38 240.806 2043.38 239.954 Z" fill="#000000" fill-rule="evenodd" fill-opacity="1" /><path clip-path="url(#clip890)" d="M 0 0 M2125.61 222.982 L2125.61 220.611 Q2134.72 220.611 2139.43 215.757 Q2140.72 215.757 2140.95 216.053 Q2141.17 216.35 2141.17 217.721 L2141.17 260.297 Q2141.17 262.557 2142.28 263.261 Q2143.39 263.965 2148.25 263.965 L2150.66 263.965 L2150.66 266.3 Q2147.99 266.077 2138.35 266.077 Q2128.72 266.077 2126.09 266.3 L2126.09 263.965 L2128.5 263.965 Q2133.28 263.965 2134.43 263.298 Q2135.57 262.594 2135.57 260.297 L2135.57 220.981 Q2131.61 222.982 2125.61 222.982 Z" fill="#000000" fill-rule="evenodd" fill-opacity="1" /><path clip-path="url(#clip890)" d="M 0 0 M2158.25 265.077 Q2157.1 263.854 2157.1 262.261 Q2157.1 260.667 2158.25 259.519 Q2159.4 258.333 2161.14 258.333 Q2162.81 258.333 2163.92 259.445 Q2165.07 260.519 2165.07 262.298 Q2165.07 264.039 2163.85 265.188 Q2162.66 266.3 2161.14 266.3 Q2159.4 266.3 2158.25 265.077 Z" fill="#000000" fill-rule="evenodd" fill-opacity="1" /><path clip-path="url(#clip890)" d="M 0 0 M2168.26 242.325 Q2168.26 230.393 2174.33 223.094 Q2180.41 215.757 2188.23 215.757 Q2192.79 215.757 2195.31 218.091 Q2197.86 220.389 2197.86 223.946 Q2197.86 225.91 2196.71 226.762 Q2195.57 227.614 2194.38 227.614 Q2193.01 227.614 2191.93 226.688 Q2190.86 225.762 2190.86 224.094 Q2190.86 220.685 2195.05 220.685 Q2193.08 217.646 2188.38 217.646 Q2186.93 217.646 2185.45 218.091 Q2183.97 218.499 2182.04 219.907 Q2180.11 221.315 2178.63 223.538 Q2177.15 225.762 2176.11 229.949 Q2175.07 234.136 2175.07 239.583 L2175.07 241.399 Q2178.19 233.877 2184.56 233.914 Q2190.93 233.914 2195.34 238.768 Q2199.75 243.622 2199.75 250.811 Q2199.75 258.185 2195.16 263.076 Q2190.56 267.967 2184.12 267.967 Q2181.23 267.967 2178.59 266.744 Q2176 265.559 2173.56 262.817 Q2171.15 260.074 2169.7 254.813 Q2168.26 249.551 2168.26 242.325 M2175.22 249.143 Q2175.22 256.591 2176.59 260.149 Q2176.82 260.741 2177.3 261.557 Q2177.82 262.372 2178.67 263.446 Q2179.56 264.484 2181 265.188 Q2182.45 265.855 2184.12 265.855 Q2189.19 265.855 2191.64 260.927 Q2192.93 258.185 2192.93 250.737 Q2192.93 243.14 2191.56 240.361 Q2189.23 235.655 2184.49 235.655 Q2181.3 235.655 2179.08 237.841 Q2176.89 240.028 2176.04 242.955 Q2175.22 245.882 2175.22 249.143 Z" fill="#000000" fill-rule="evenodd" fill-opacity="1" /><path clip-path="url(#clip890)" d="M 0 0 M2202.94 242.325 Q2202.94 230.393 2209.02 223.094 Q2215.09 215.757 2222.91 215.757 Q2227.47 215.757 2229.99 218.091 Q2232.55 220.389 2232.55 223.946 Q2232.55 225.91 2231.4 226.762 Q2230.25 227.614 2229.06 227.614 Q2227.69 227.614 2226.62 226.688 Q2225.54 225.762 2225.54 224.094 Q2225.54 220.685 2229.73 220.685 Q2227.77 217.646 2223.06 217.646 Q2221.62 217.646 2220.13 218.091 Q2218.65 218.499 2216.72 219.907 Q2214.8 221.315 2213.32 223.538 Q2211.83 225.762 2210.8 229.949 Q2209.76 234.136 2209.76 239.583 L2209.76 241.399 Q2212.87 233.877 2219.24 233.914 Q2225.62 233.914 2230.03 238.768 Q2234.44 243.622 2234.44 250.811 Q2234.44 258.185 2229.84 263.076 Q2225.25 267.967 2218.8 267.967 Q2215.91 267.967 2213.28 266.744 Q2210.68 265.559 2208.24 262.817 Q2205.83 260.074 2204.38 254.813 Q2202.94 249.551 2202.94 242.325 M2209.91 249.143 Q2209.91 256.591 2211.28 260.149 Q2211.5 260.741 2211.98 261.557 Q2212.5 262.372 2213.35 263.446 Q2214.24 264.484 2215.69 265.188 Q2217.13 265.855 2218.8 265.855 Q2223.88 265.855 2226.32 260.927 Q2227.62 258.185 2227.62 250.737 Q2227.62 243.14 2226.25 240.361 Q2223.91 235.655 2219.17 235.655 Q2215.98 235.655 2213.76 237.841 Q2211.57 240.028 2210.72 242.955 Q2209.91 245.882 2209.91 249.143 Z" fill="#000000" fill-rule="evenodd" fill-opacity="1" /><polyline clip-path="url(#clip890)" style="stroke:#ee6677; stroke-width:6; stroke-opacity:1; fill:none" points="
  1811.33,331.1 1953.31,331.1 
  "/>
<path clip-path="url(#clip890)" d="M 0 0 M1976.98 330.599 Q1976.98 329.377 1977.39 327.932 Q1977.83 326.449 1979.2 325.004 Q1980.57 323.559 1982.61 323.559 Q1986.54 323.559 1989.61 329.08 Q1992.69 334.564 1996.02 346.867 Q1997.54 341.494 1999.84 335.713 Q2000.77 333.453 2001.43 332.045 Q2002.1 330.599 2003.51 328.302 Q2004.92 325.968 2006.66 324.782 Q2008.4 323.559 2010.44 323.559 Q2012.03 323.559 2012.92 324.522 Q2013.81 325.449 2013.81 326.672 Q2013.81 328.487 2012.29 329.414 Q2011.77 329.71 2010.51 329.895 Q2009.25 330.081 2008.22 330.377 Q2007.18 330.674 2005.58 332.415 Q2003.99 334.12 2002.47 337.306 Q2000.58 341.234 1998.91 346.051 Q1997.25 350.869 1997.25 352.017 Q1997.25 352.536 1997.62 354.685 Q1998.03 356.797 1998.4 360.503 Q1998.77 364.245 1998.77 368.47 Q1998.77 369.396 1998.69 369.841 Q1998.54 370.841 1997.77 371.471 Q1997.02 372.138 1995.95 372.138 Q1993.06 372.138 1993.06 368.396 L1993.06 368.025 Q1993.06 364.764 1993.47 360.873 Q1993.91 357.02 1994.36 354.426 L1994.76 351.943 Q1994.76 350.35 1992.36 343.495 Q1989.98 336.602 1987.98 333.638 Q1985.54 329.932 1982.24 329.932 Q1980.72 329.932 1979.98 330.266 Q1979.28 330.599 1978.91 331.155 Q1978.57 331.674 1978.42 331.748 Q1977.98 332.045 1977.46 331.711 Q1976.98 331.341 1976.98 330.599 Z" fill="#000000" fill-rule="evenodd" fill-opacity="1" /><path clip-path="url(#clip890)" d="M 0 0 M2043.38 345.496 Q2043.45 344.569 2044.9 344.569 L2091.4 344.569 Q2093.59 344.569 2093.63 345.421 Q2093.63 346.348 2091.55 346.311 L2045.42 346.311 Q2043.38 346.348 2043.38 345.496 M2043.38 330.674 Q2043.38 329.747 2044.97 329.784 L2091.33 329.784 Q2093.59 329.784 2093.63 330.674 Q2093.63 331.526 2091.7 331.526 L2044.9 331.526 Q2043.38 331.526 2043.38 330.674 Z" fill="#000000" fill-rule="evenodd" fill-opacity="1" /><path clip-path="url(#clip890)" d="M 0 0 M2125.61 313.702 L2125.61 311.331 Q2134.72 311.331 2139.43 306.477 Q2140.72 306.477 2140.95 306.773 Q2141.17 307.07 2141.17 308.441 L2141.17 351.017 Q2141.17 353.277 2142.28 353.981 Q2143.39 354.685 2148.25 354.685 L2150.66 354.685 L2150.66 357.02 Q2147.99 356.797 2138.35 356.797 Q2128.72 356.797 2126.09 357.02 L2126.09 354.685 L2128.5 354.685 Q2133.28 354.685 2134.43 354.018 Q2135.57 353.314 2135.57 351.017 L2135.57 311.701 Q2131.61 313.702 2125.61 313.702 Z" fill="#000000" fill-rule="evenodd" fill-opacity="1" /><path clip-path="url(#clip890)" d="M 0 0 M2158.25 355.797 Q2157.1 354.574 2157.1 352.981 Q2157.1 351.387 2158.25 350.239 Q2159.4 349.053 2161.14 349.053 Q2162.81 349.053 2163.92 350.165 Q2165.07 351.239 2165.07 353.018 Q2165.07 354.759 2163.85 355.908 Q2162.66 357.02 2161.14 357.02 Q2159.4 357.02 2158.25 355.797 Z" fill="#000000" fill-rule="evenodd" fill-opacity="1" /><path clip-path="url(#clip890)" d="M 0 0 M2167.18 344.495 L2167.18 342.161 L2190.49 306.551 Q2191.08 305.624 2192.01 305.661 Q2192.86 305.661 2193.05 305.995 Q2193.23 306.328 2193.23 307.625 L2193.23 342.161 L2200.83 342.161 L2200.83 344.495 L2193.23 344.495 L2193.23 351.091 Q2193.23 353.277 2194.12 353.981 Q2195.05 354.685 2198.97 354.685 L2200.57 354.685 L2200.57 357.02 Q2197.46 356.797 2190.27 356.797 Q2183.12 356.797 2180 357.02 L2180 354.685 L2181.6 354.685 Q2185.52 354.685 2186.45 354.018 Q2187.38 353.314 2187.38 351.091 L2187.38 344.495 L2167.18 344.495 M2169.33 342.161 L2187.82 342.161 L2187.82 313.851 L2169.33 342.161 Z" fill="#000000" fill-rule="evenodd" fill-opacity="1" /><polyline clip-path="url(#clip890)" style="stroke:#228833; stroke-width:6; stroke-opacity:1; fill:none" points="
  1811.33,421.82 1953.31,421.82 
  "/>
<path clip-path="url(#clip890)" d="M 0 0 M1976.98 421.319 Q1976.98 420.097 1977.39 418.652 Q1977.83 417.169 1979.2 415.724 Q1980.57 414.279 1982.61 414.279 Q1986.54 414.279 1989.61 419.8 Q1992.69 425.284 1996.02 437.587 Q1997.54 432.214 1999.84 426.433 Q2000.77 424.173 2001.43 422.765 Q2002.1 421.319 2003.51 419.022 Q2004.92 416.688 2006.66 415.502 Q2008.4 414.279 2010.44 414.279 Q2012.03 414.279 2012.92 415.242 Q2013.81 416.169 2013.81 417.392 Q2013.81 419.207 2012.29 420.134 Q2011.77 420.43 2010.51 420.615 Q2009.25 420.801 2008.22 421.097 Q2007.18 421.394 2005.58 423.135 Q2003.99 424.84 2002.47 428.026 Q2000.58 431.954 1998.91 436.771 Q1997.25 441.589 1997.25 442.737 Q1997.25 443.256 1997.62 445.405 Q1998.03 447.517 1998.4 451.223 Q1998.77 454.965 1998.77 459.19 Q1998.77 460.116 1998.69 460.561 Q1998.54 461.561 1997.77 462.191 Q1997.02 462.858 1995.95 462.858 Q1993.06 462.858 1993.06 459.116 L1993.06 458.745 Q1993.06 455.484 1993.47 451.593 Q1993.91 447.74 1994.36 445.146 L1994.76 442.663 Q1994.76 441.07 1992.36 434.215 Q1989.98 427.322 1987.98 424.358 Q1985.54 420.652 1982.24 420.652 Q1980.72 420.652 1979.98 420.986 Q1979.28 421.319 1978.91 421.875 Q1978.57 422.394 1978.42 422.468 Q1977.98 422.765 1977.46 422.431 Q1976.98 422.061 1976.98 421.319 Z" fill="#000000" fill-rule="evenodd" fill-opacity="1" /><path clip-path="url(#clip890)" d="M 0 0 M2043.38 436.216 Q2043.45 435.289 2044.9 435.289 L2091.4 435.289 Q2093.59 435.289 2093.63 436.141 Q2093.63 437.068 2091.55 437.031 L2045.42 437.031 Q2043.38 437.068 2043.38 436.216 M2043.38 421.394 Q2043.38 420.467 2044.97 420.504 L2091.33 420.504 Q2093.59 420.504 2093.63 421.394 Q2093.63 422.246 2091.7 422.246 L2044.9 422.246 Q2043.38 422.246 2043.38 421.394 Z" fill="#000000" fill-rule="evenodd" fill-opacity="1" /><path clip-path="url(#clip890)" d="M 0 0 M2125.61 404.422 L2125.61 402.051 Q2134.72 402.051 2139.43 397.197 Q2140.72 397.197 2140.95 397.493 Q2141.17 397.79 2141.17 399.161 L2141.17 441.737 Q2141.17 443.997 2142.28 444.701 Q2143.39 445.405 2148.25 445.405 L2150.66 445.405 L2150.66 447.74 Q2147.99 447.517 2138.35 447.517 Q2128.72 447.517 2126.09 447.74 L2126.09 445.405 L2128.5 445.405 Q2133.28 445.405 2134.43 444.738 Q2135.57 444.034 2135.57 441.737 L2135.57 402.421 Q2131.61 404.422 2125.61 404.422 Z" fill="#000000" fill-rule="evenodd" fill-opacity="1" /><path clip-path="url(#clip890)" d="M 0 0 M2158.25 446.517 Q2157.1 445.294 2157.1 443.701 Q2157.1 442.107 2158.25 440.959 Q2159.4 439.773 2161.14 439.773 Q2162.81 439.773 2163.92 440.885 Q2165.07 441.959 2165.07 443.738 Q2165.07 445.479 2163.85 446.628 Q2162.66 447.74 2161.14 447.74 Q2159.4 447.74 2158.25 446.517 Z" fill="#000000" fill-rule="evenodd" fill-opacity="1" /><path clip-path="url(#clip890)" d="M 0 0 M2168.85 447.74 Q2168.85 446.369 2168.96 445.961 Q2169.11 445.553 2169.7 444.924 L2184.26 428.693 Q2192.23 419.726 2192.23 411.907 Q2192.23 406.831 2189.56 403.2 Q2186.93 399.568 2182.08 399.568 Q2178.74 399.568 2175.93 401.606 Q2173.11 403.644 2171.81 407.276 Q2172.04 407.202 2172.81 407.202 Q2174.7 407.202 2175.74 408.387 Q2176.82 409.573 2176.82 411.166 Q2176.82 413.204 2175.48 414.205 Q2174.19 415.168 2172.89 415.168 Q2172.37 415.168 2171.67 415.057 Q2171 414.946 2169.92 413.908 Q2168.85 412.834 2168.85 410.944 Q2168.85 405.645 2172.85 401.421 Q2176.89 397.197 2183.04 397.197 Q2190.01 397.197 2194.57 401.347 Q2199.16 405.46 2199.16 411.907 Q2199.16 414.168 2198.46 416.243 Q2197.79 418.281 2196.86 419.874 Q2195.97 421.468 2193.53 424.024 Q2191.08 426.581 2189.12 428.397 Q2187.15 430.213 2182.74 434.066 L2174.7 441.885 L2188.38 441.885 Q2195.05 441.885 2195.57 441.292 Q2196.31 440.218 2197.23 434.548 L2199.16 434.548 L2197.01 447.74 L2168.85 447.74 Z" fill="#000000" fill-rule="evenodd" fill-opacity="1" /></svg>
