<?xml version="1.0" encoding="utf-8"?>
<svg xmlns="http://www.w3.org/2000/svg" xmlns:xlink="http://www.w3.org/1999/xlink" width="600" height="400" viewBox="0 0 2400 1600">
<defs>
  <clipPath id="clip230">
    <rect x="0" y="0" width="2400" height="1600"/>
  </clipPath>
</defs>
<path clip-path="url(#clip230)" d="
M0 1600 L2400 1600 L2400 0 L0 0  Z
  " fill="#ffffff" fill-rule="evenodd" fill-opacity="1"/>
<defs>
  <clipPath id="clip231">
    <rect x="480" y="0" width="1681" height="1600"/>
  </clipPath>
</defs>
<path clip-path="url(#clip230)" d="
M209.916 1410.22 L2352.76 1410.22 L2352.76 106.192 L209.916 106.192  Z
  " fill="#ffffff" fill-rule="evenodd" fill-opacity="1"/>
<defs>
  <clipPath id="clip232">
    <rect x="209" y="106" width="2144" height="1305"/>
  </clipPath>
</defs>
<polyline clip-path="url(#clip232)" style="stroke:#222255; stroke-width:4; stroke-opacity:0.1; fill:none" stroke-dasharray="16, 10" points="
  495.178,1410.22 495.178,106.192 
  "/>
<polyline clip-path="url(#clip232)" style="stroke:#222255; stroke-width:4; stroke-opacity:0.1; fill:none" stroke-dasharray="16, 10" points="
  944.411,1410.22 944.411,106.192 
  "/>
<polyline clip-path="url(#clip232)" style="stroke:#222255; stroke-width:4; stroke-opacity:0.1; fill:none" stroke-dasharray="16, 10" points="
  1393.64,1410.22 1393.64,106.192 
  "/>
<polyline clip-path="url(#clip232)" style="stroke:#222255; stroke-width:4; stroke-opacity:0.1; fill:none" stroke-dasharray="16, 10" points="
  1842.88,1410.22 1842.88,106.192 
  "/>
<polyline clip-path="url(#clip232)" style="stroke:#222255; stroke-width:4; stroke-opacity:0.1; fill:none" stroke-dasharray="16, 10" points="
  2292.11,1410.22 2292.11,106.192 
  "/>
<polyline clip-path="url(#clip232)" style="stroke:#222255; stroke-width:2; stroke-opacity:0.05; fill:none" points="
  225.639,1410.22 225.639,106.192 
  "/>
<polyline clip-path="url(#clip232)" style="stroke:#222255; stroke-width:2; stroke-opacity:0.05; fill:none" points="
  315.485,1410.22 315.485,106.192 
  "/>
<polyline clip-path="url(#clip232)" style="stroke:#222255; stroke-width:2; stroke-opacity:0.05; fill:none" points="
  405.332,1410.22 405.332,106.192 
  "/>
<polyline clip-path="url(#clip232)" style="stroke:#222255; stroke-width:2; stroke-opacity:0.05; fill:none" points="
  585.025,1410.22 585.025,106.192 
  "/>
<polyline clip-path="url(#clip232)" style="stroke:#222255; stroke-width:2; stroke-opacity:0.05; fill:none" points="
  674.872,1410.22 674.872,106.192 
  "/>
<polyline clip-path="url(#clip232)" style="stroke:#222255; stroke-width:2; stroke-opacity:0.05; fill:none" points="
  764.718,1410.22 764.718,106.192 
  "/>
<polyline clip-path="url(#clip232)" style="stroke:#222255; stroke-width:2; stroke-opacity:0.05; fill:none" points="
  854.565,1410.22 854.565,106.192 
  "/>
<polyline clip-path="url(#clip232)" style="stroke:#222255; stroke-width:2; stroke-opacity:0.05; fill:none" points="
  1034.26,1410.22 1034.26,106.192 
  "/>
<polyline clip-path="url(#clip232)" style="stroke:#222255; stroke-width:2; stroke-opacity:0.05; fill:none" points="
  1124.1,1410.22 1124.1,106.192 
  "/>
<polyline clip-path="url(#clip232)" style="stroke:#222255; stroke-width:2; stroke-opacity:0.05; fill:none" points="
  1213.95,1410.22 1213.95,106.192 
  "/>
<polyline clip-path="url(#clip232)" style="stroke:#222255; stroke-width:2; stroke-opacity:0.05; fill:none" points="
  1303.8,1410.22 1303.8,106.192 
  "/>
<polyline clip-path="url(#clip232)" style="stroke:#222255; stroke-width:2; stroke-opacity:0.05; fill:none" points="
  1483.49,1410.22 1483.49,106.192 
  "/>
<polyline clip-path="url(#clip232)" style="stroke:#222255; stroke-width:2; stroke-opacity:0.05; fill:none" points="
  1573.34,1410.22 1573.34,106.192 
  "/>
<polyline clip-path="url(#clip232)" style="stroke:#222255; stroke-width:2; stroke-opacity:0.05; fill:none" points="
  1663.18,1410.22 1663.18,106.192 
  "/>
<polyline clip-path="url(#clip232)" style="stroke:#222255; stroke-width:2; stroke-opacity:0.05; fill:none" points="
  1753.03,1410.22 1753.03,106.192 
  "/>
<polyline clip-path="url(#clip232)" style="stroke:#222255; stroke-width:2; stroke-opacity:0.05; fill:none" points="
  1932.72,1410.22 1932.72,106.192 
  "/>
<polyline clip-path="url(#clip232)" style="stroke:#222255; stroke-width:2; stroke-opacity:0.05; fill:none" points="
  2022.57,1410.22 2022.57,106.192 
  "/>
<polyline clip-path="url(#clip232)" style="stroke:#222255; stroke-width:2; stroke-opacity:0.05; fill:none" points="
  2112.42,1410.22 2112.42,106.192 
  "/>
<polyline clip-path="url(#clip232)" style="stroke:#222255; stroke-width:2; stroke-opacity:0.05; fill:none" points="
  2202.26,1410.22 2202.26,106.192 
  "/>
<polyline clip-path="url(#clip230)" style="stroke:#000000; stroke-width:4; stroke-opacity:1; fill:none" points="
  209.916,1410.22 2352.76,1410.22 
  "/>
<polyline clip-path="url(#clip230)" style="stroke:#000000; stroke-width:4; stroke-opacity:1; fill:none" points="
  209.916,106.192 2352.76,106.192 
  "/>
<polyline clip-path="url(#clip230)" style="stroke:#000000; stroke-width:4; stroke-opacity:1; fill:none" points="
  495.178,1410.22 495.178,1394.57 
  "/>
<polyline clip-path="url(#clip230)" style="stroke:#000000; stroke-width:4; stroke-opacity:1; fill:none" points="
  944.411,1410.22 944.411,1394.57 
  "/>
<polyline clip-path="url(#clip230)" style="stroke:#000000; stroke-width:4; stroke-opacity:1; fill:none" points="
  1393.64,1410.22 1393.64,1394.57 
  "/>
<polyline clip-path="url(#clip230)" style="stroke:#000000; stroke-width:4; stroke-opacity:1; fill:none" points="
  1842.88,1410.22 1842.88,1394.57 
  "/>
<polyline clip-path="url(#clip230)" style="stroke:#000000; stroke-width:4; stroke-opacity:1; fill:none" points="
  2292.11,1410.22 2292.11,1394.57 
  "/>
<polyline clip-path="url(#clip230)" style="stroke:#000000; stroke-width:4; stroke-opacity:1; fill:none" points="
  225.639,1410.22 225.639,1402.4 
  "/>
<polyline clip-path="url(#clip230)" style="stroke:#000000; stroke-width:4; stroke-opacity:1; fill:none" points="
  315.485,1410.22 315.485,1402.4 
  "/>
<polyline clip-path="url(#clip230)" style="stroke:#000000; stroke-width:4; stroke-opacity:1; fill:none" points="
  405.332,1410.22 405.332,1402.4 
  "/>
<polyline clip-path="url(#clip230)" style="stroke:#000000; stroke-width:4; stroke-opacity:1; fill:none" points="
  585.025,1410.22 585.025,1402.4 
  "/>
<polyline clip-path="url(#clip230)" style="stroke:#000000; stroke-width:4; stroke-opacity:1; fill:none" points="
  674.872,1410.22 674.872,1402.4 
  "/>
<polyline clip-path="url(#clip230)" style="stroke:#000000; stroke-width:4; stroke-opacity:1; fill:none" points="
  764.718,1410.22 764.718,1402.4 
  "/>
<polyline clip-path="url(#clip230)" style="stroke:#000000; stroke-width:4; stroke-opacity:1; fill:none" points="
  854.565,1410.22 854.565,1402.4 
  "/>
<polyline clip-path="url(#clip230)" style="stroke:#000000; stroke-width:4; stroke-opacity:1; fill:none" points="
  1034.26,1410.22 1034.26,1402.4 
  "/>
<polyline clip-path="url(#clip230)" style="stroke:#000000; stroke-width:4; stroke-opacity:1; fill:none" points="
  1124.1,1410.22 1124.1,1402.4 
  "/>
<polyline clip-path="url(#clip230)" style="stroke:#000000; stroke-width:4; stroke-opacity:1; fill:none" points="
  1213.95,1410.22 1213.95,1402.4 
  "/>
<polyline clip-path="url(#clip230)" style="stroke:#000000; stroke-width:4; stroke-opacity:1; fill:none" points="
  1303.8,1410.22 1303.8,1402.4 
  "/>
<polyline clip-path="url(#clip230)" style="stroke:#000000; stroke-width:4; stroke-opacity:1; fill:none" points="
  1483.49,1410.22 1483.49,1402.4 
  "/>
<polyline clip-path="url(#clip230)" style="stroke:#000000; stroke-width:4; stroke-opacity:1; fill:none" points="
  1573.34,1410.22 1573.34,1402.4 
  "/>
<polyline clip-path="url(#clip230)" style="stroke:#000000; stroke-width:4; stroke-opacity:1; fill:none" points="
  1663.18,1410.22 1663.18,1402.4 
  "/>
<polyline clip-path="url(#clip230)" style="stroke:#000000; stroke-width:4; stroke-opacity:1; fill:none" points="
  1753.03,1410.22 1753.03,1402.4 
  "/>
<polyline clip-path="url(#clip230)" style="stroke:#000000; stroke-width:4; stroke-opacity:1; fill:none" points="
  1932.72,1410.22 1932.72,1402.4 
  "/>
<polyline clip-path="url(#clip230)" style="stroke:#000000; stroke-width:4; stroke-opacity:1; fill:none" points="
  2022.57,1410.22 2022.57,1402.4 
  "/>
<polyline clip-path="url(#clip230)" style="stroke:#000000; stroke-width:4; stroke-opacity:1; fill:none" points="
  2112.42,1410.22 2112.42,1402.4 
  "/>
<polyline clip-path="url(#clip230)" style="stroke:#000000; stroke-width:4; stroke-opacity:1; fill:none" points="
  2202.26,1410.22 2202.26,1402.4 
  "/>
<path clip-path="url(#clip230)" d="M 0 0 M482.549 1481.26 Q482.549 1480.12 482.642 1479.78 Q482.765 1479.44 483.259 1478.91 L495.395 1465.39 Q502.034 1457.92 502.034 1451.4 Q502.034 1447.17 499.81 1444.14 Q497.618 1441.12 493.573 1441.12 Q490.794 1441.12 488.447 1442.82 Q486.1 1444.51 485.019 1447.54 Q485.204 1447.48 485.853 1447.48 Q487.428 1447.48 488.292 1448.47 Q489.188 1449.45 489.188 1450.78 Q489.188 1452.48 488.076 1453.31 Q486.995 1454.12 485.915 1454.12 Q485.482 1454.12 484.896 1454.02 Q484.34 1453.93 483.444 1453.07 Q482.549 1452.17 482.549 1450.6 Q482.549 1446.18 485.884 1442.66 Q489.25 1439.14 494.376 1439.14 Q500.181 1439.14 503.979 1442.6 Q507.808 1446.03 507.808 1451.4 Q507.808 1453.28 507.221 1455.01 Q506.666 1456.71 505.894 1458.04 Q505.152 1459.37 503.114 1461.5 Q501.076 1463.63 499.44 1465.14 Q497.803 1466.65 494.129 1469.87 L487.428 1476.38 L498.822 1476.38 Q504.38 1476.38 504.813 1475.89 Q505.43 1474.99 506.202 1470.27 L507.808 1470.27 L506.017 1481.26 L482.549 1481.26 Z" fill="#808080" fill-rule="evenodd" fill-opacity="1" /><path clip-path="url(#clip230)" d="M 0 0 M930.392 1470.82 L930.392 1468.88 L949.815 1439.2 Q950.309 1438.43 951.081 1438.46 Q951.791 1438.46 951.946 1438.74 Q952.1 1439.02 952.1 1440.1 L952.1 1468.88 L958.43 1468.88 L958.43 1470.82 L952.1 1470.82 L952.1 1476.32 Q952.1 1478.14 952.841 1478.73 Q953.613 1479.31 956.886 1479.31 L958.214 1479.31 L958.214 1481.26 Q955.62 1481.07 949.63 1481.07 Q943.67 1481.07 941.076 1481.26 L941.076 1479.31 L942.404 1479.31 Q945.677 1479.31 946.449 1478.76 Q947.221 1478.17 947.221 1476.32 L947.221 1470.82 L930.392 1470.82 M932.183 1468.88 L947.592 1468.88 L947.592 1445.29 L932.183 1468.88 Z" fill="#808080" fill-rule="evenodd" fill-opacity="1" /><path clip-path="url(#clip230)" d="M 0 0 M1380.52 1461.28 Q1380.52 1451.34 1385.58 1445.25 Q1390.65 1439.14 1397.16 1439.14 Q1400.96 1439.14 1403.06 1441.09 Q1405.19 1443 1405.19 1445.96 Q1405.19 1447.6 1404.24 1448.31 Q1403.28 1449.02 1402.29 1449.02 Q1401.15 1449.02 1400.25 1448.25 Q1399.36 1447.48 1399.36 1446.09 Q1399.36 1443.25 1402.85 1443.25 Q1401.21 1440.72 1397.29 1440.72 Q1396.08 1440.72 1394.85 1441.09 Q1393.61 1441.43 1392.01 1442.6 Q1390.4 1443.77 1389.17 1445.63 Q1387.93 1447.48 1387.07 1450.97 Q1386.2 1454.46 1386.2 1459 L1386.2 1460.51 Q1388.8 1454.24 1394.11 1454.27 Q1399.42 1454.27 1403.09 1458.32 Q1406.77 1462.36 1406.77 1468.35 Q1406.77 1474.5 1402.94 1478.57 Q1399.11 1482.65 1393.74 1482.65 Q1391.33 1482.65 1389.14 1481.63 Q1386.97 1480.64 1384.94 1478.36 Q1382.93 1476.07 1381.72 1471.69 Q1380.52 1467.3 1380.52 1461.28 M1386.33 1466.96 Q1386.33 1473.17 1387.47 1476.13 Q1387.65 1476.63 1388.05 1477.31 Q1388.49 1477.99 1389.2 1478.88 Q1389.94 1479.75 1391.14 1480.33 Q1392.35 1480.89 1393.74 1480.89 Q1397.97 1480.89 1400.01 1476.78 Q1401.09 1474.5 1401.09 1468.29 Q1401.09 1461.96 1399.94 1459.64 Q1398 1455.72 1394.05 1455.72 Q1391.39 1455.72 1389.54 1457.54 Q1387.72 1459.37 1387 1461.81 Q1386.33 1464.25 1386.33 1466.96 Z" fill="#808080" fill-rule="evenodd" fill-opacity="1" /><path clip-path="url(#clip230)" d="M 0 0 M1829.75 1471.72 Q1829.75 1464.65 1838.86 1460.08 Q1834.94 1457.42 1834.23 1456.65 Q1831.45 1453.56 1831.45 1449.7 Q1831.45 1445.29 1834.79 1442.23 Q1838.15 1439.14 1842.91 1439.14 Q1847.45 1439.14 1850.87 1441.77 Q1854.3 1444.39 1854.3 1448.56 Q1854.3 1454.43 1846.64 1458.38 Q1851.71 1461.53 1852.91 1462.86 Q1856 1466.28 1856 1470.64 Q1856 1475.7 1852.11 1479.19 Q1848.22 1482.65 1842.85 1482.65 Q1837.6 1482.65 1833.67 1479.59 Q1829.75 1476.54 1829.75 1471.72 M1832.9 1471.72 Q1832.9 1475.64 1835.84 1478.26 Q1838.8 1480.89 1842.91 1480.89 Q1846.89 1480.89 1849.86 1478.6 Q1852.85 1476.32 1852.85 1472.92 Q1852.85 1471.59 1852.39 1470.45 Q1851.96 1469.31 1851.06 1468.41 Q1850.2 1467.49 1849.64 1467.09 Q1849.11 1466.65 1848.1 1465.94 L1840.31 1461.03 Q1832.9 1465.14 1832.9 1471.72 M1834.23 1447.23 Q1834.23 1450.26 1837.41 1452.36 L1845.25 1457.42 Q1851.52 1453.75 1851.52 1448.56 Q1851.52 1445.19 1848.96 1442.97 Q1846.4 1440.72 1842.85 1440.72 Q1839.36 1440.72 1836.79 1442.57 Q1834.23 1444.39 1834.23 1447.23 Z" fill="#808080" fill-rule="evenodd" fill-opacity="1" /><path clip-path="url(#clip230)" d="M 0 0 M2267.13 1445.16 L2267.13 1443.19 Q2274.72 1443.19 2278.65 1439.14 Q2279.73 1439.14 2279.91 1439.39 Q2280.1 1439.63 2280.1 1440.78 L2280.1 1476.26 Q2280.1 1478.14 2281.02 1478.73 Q2281.95 1479.31 2286 1479.31 L2288 1479.31 L2288 1481.26 Q2285.78 1481.07 2277.75 1481.07 Q2269.72 1481.07 2267.53 1481.26 L2267.53 1479.31 L2269.54 1479.31 Q2273.52 1479.31 2274.48 1478.76 Q2275.43 1478.17 2275.43 1476.26 L2275.43 1443.49 Q2272.13 1445.16 2267.13 1445.16 Z" fill="#808080" fill-rule="evenodd" fill-opacity="1" /><path clip-path="url(#clip230)" d="M 0 0 M2290.47 1461.03 Q2290.47 1451.74 2292.82 1446.68 Q2296.09 1439.14 2303.81 1439.14 Q2305.45 1439.14 2307.15 1439.6 Q2308.88 1440.04 2311.04 1441.73 Q2313.23 1443.43 2314.56 1446.21 Q2317.09 1451.58 2317.09 1461.03 Q2317.09 1470.27 2314.74 1475.3 Q2311.32 1482.65 2303.75 1482.65 Q2300.91 1482.65 2298.01 1481.2 Q2295.14 1479.75 2293.31 1476.26 Q2290.47 1471.04 2290.47 1461.03 M2295.72 1460.26 Q2295.72 1469.8 2296.4 1473.6 Q2297.17 1477.71 2299.27 1479.5 Q2301.4 1481.26 2303.75 1481.26 Q2306.28 1481.26 2308.38 1479.38 Q2310.51 1477.46 2311.16 1473.35 Q2311.87 1469.31 2311.84 1460.26 Q2311.84 1451.46 2311.22 1447.94 Q2310.39 1443.83 2308.17 1442.2 Q2305.97 1440.53 2303.75 1440.53 Q2302.92 1440.53 2302.02 1440.78 Q2301.16 1441.02 2299.89 1441.73 Q2298.62 1442.44 2297.64 1444.2 Q2296.68 1445.96 2296.22 1448.62 Q2295.72 1452.05 2295.72 1460.26 Z" fill="#808080" fill-rule="evenodd" fill-opacity="1" /><path clip-path="url(#clip230)" d="M 0 0 M1220.94 1573.23 L1220.94 1570.89 Q1223.68 1570.89 1225.42 1570.37 Q1227.16 1569.82 1227.79 1568.82 Q1228.46 1567.78 1228.61 1567.11 Q1228.75 1566.41 1228.75 1565.26 L1228.75 1527.32 Q1228.75 1525.13 1227.79 1524.46 Q1226.86 1523.76 1222.75 1523.76 L1220.94 1523.76 L1220.94 1521.39 L1233.76 1521.39 Q1235.13 1521.39 1235.5 1521.65 Q1235.87 1521.87 1236.43 1523.06 L1252.88 1565.56 L1269.48 1522.83 Q1269.85 1521.76 1270.18 1521.57 Q1270.55 1521.39 1272 1521.39 L1284.82 1521.39 L1284.82 1523.76 L1283 1523.76 Q1278.89 1523.76 1277.93 1524.46 Q1277 1525.13 1277 1527.32 L1277 1567.3 Q1277 1569.49 1277.93 1570.19 Q1278.89 1570.89 1283 1570.89 L1284.82 1570.89 L1284.82 1573.23 Q1282 1573.01 1273.96 1573.01 Q1265.85 1573.01 1263.03 1573.23 L1263.03 1570.89 L1264.88 1570.89 Q1269 1570.89 1269.92 1570.23 Q1270.85 1569.52 1270.85 1567.3 L1270.85 1523.76 L1270.78 1523.76 L1252.14 1571.78 Q1251.62 1573.23 1250.77 1573.23 Q1249.84 1573.23 1249.25 1571.56 L1230.94 1524.35 L1230.87 1524.35 L1230.87 1565.26 Q1230.87 1566.41 1231.02 1567.11 Q1231.16 1567.78 1231.79 1568.82 Q1232.46 1569.82 1234.2 1570.37 Q1235.94 1570.89 1238.69 1570.89 L1238.69 1573.23 Q1230.72 1573.01 1229.79 1573.01 Q1228.9 1573.01 1220.94 1573.23 Z" fill="#000000" fill-rule="evenodd" fill-opacity="1" /><path clip-path="url(#clip230)" d="M 0 0 M1285.56 1572.49 L1285.56 1515.16 L1341.74 1515.16 L1341.74 1572.49 L1285.56 1572.49 M1290.12 1564.74 L1311.09 1543.77 L1290.12 1522.91 L1290.12 1564.74 M1292.79 1567.93 L1334.51 1567.93 L1313.65 1546.96 L1292.79 1567.93 M1292.79 1519.72 L1313.65 1540.66 L1334.51 1519.72 L1292.79 1519.72 M1316.24 1543.77 L1337.18 1564.74 L1337.18 1522.91 L1316.24 1543.77 Z" fill="#000000" fill-rule="evenodd" fill-opacity="1" /><polyline clip-path="url(#clip232)" style="stroke:#222255; stroke-width:4; stroke-opacity:0.1; fill:none" stroke-dasharray="16, 10" points="
  209.916,1213.77 2352.76,1213.77 
  "/>
<polyline clip-path="url(#clip232)" style="stroke:#222255; stroke-width:4; stroke-opacity:0.1; fill:none" stroke-dasharray="16, 10" points="
  209.916,1014.34 2352.76,1014.34 
  "/>
<polyline clip-path="url(#clip232)" style="stroke:#222255; stroke-width:4; stroke-opacity:0.1; fill:none" stroke-dasharray="16, 10" points="
  209.916,814.912 2352.76,814.912 
  "/>
<polyline clip-path="url(#clip232)" style="stroke:#222255; stroke-width:4; stroke-opacity:0.1; fill:none" stroke-dasharray="16, 10" points="
  209.916,615.483 2352.76,615.483 
  "/>
<polyline clip-path="url(#clip232)" style="stroke:#222255; stroke-width:4; stroke-opacity:0.1; fill:none" stroke-dasharray="16, 10" points="
  209.916,416.053 2352.76,416.053 
  "/>
<polyline clip-path="url(#clip232)" style="stroke:#222255; stroke-width:4; stroke-opacity:0.1; fill:none" stroke-dasharray="16, 10" points="
  209.916,216.624 2352.76,216.624 
  "/>
<polyline clip-path="url(#clip232)" style="stroke:#222255; stroke-width:2; stroke-opacity:0.05; fill:none" points="
  209.916,1373.31 2352.76,1373.31 
  "/>
<polyline clip-path="url(#clip232)" style="stroke:#222255; stroke-width:2; stroke-opacity:0.05; fill:none" points="
  209.916,1333.43 2352.76,1333.43 
  "/>
<polyline clip-path="url(#clip232)" style="stroke:#222255; stroke-width:2; stroke-opacity:0.05; fill:none" points="
  209.916,1293.54 2352.76,1293.54 
  "/>
<polyline clip-path="url(#clip232)" style="stroke:#222255; stroke-width:2; stroke-opacity:0.05; fill:none" points="
  209.916,1253.66 2352.76,1253.66 
  "/>
<polyline clip-path="url(#clip232)" style="stroke:#222255; stroke-width:2; stroke-opacity:0.05; fill:none" points="
  209.916,1173.88 2352.76,1173.88 
  "/>
<polyline clip-path="url(#clip232)" style="stroke:#222255; stroke-width:2; stroke-opacity:0.05; fill:none" points="
  209.916,1134 2352.76,1134 
  "/>
<polyline clip-path="url(#clip232)" style="stroke:#222255; stroke-width:2; stroke-opacity:0.05; fill:none" points="
  209.916,1094.11 2352.76,1094.11 
  "/>
<polyline clip-path="url(#clip232)" style="stroke:#222255; stroke-width:2; stroke-opacity:0.05; fill:none" points="
  209.916,1054.23 2352.76,1054.23 
  "/>
<polyline clip-path="url(#clip232)" style="stroke:#222255; stroke-width:2; stroke-opacity:0.05; fill:none" points="
  209.916,974.455 2352.76,974.455 
  "/>
<polyline clip-path="url(#clip232)" style="stroke:#222255; stroke-width:2; stroke-opacity:0.05; fill:none" points="
  209.916,934.569 2352.76,934.569 
  "/>
<polyline clip-path="url(#clip232)" style="stroke:#222255; stroke-width:2; stroke-opacity:0.05; fill:none" points="
  209.916,894.683 2352.76,894.683 
  "/>
<polyline clip-path="url(#clip232)" style="stroke:#222255; stroke-width:2; stroke-opacity:0.05; fill:none" points="
  209.916,854.798 2352.76,854.798 
  "/>
<polyline clip-path="url(#clip232)" style="stroke:#222255; stroke-width:2; stroke-opacity:0.05; fill:none" points="
  209.916,775.026 2352.76,775.026 
  "/>
<polyline clip-path="url(#clip232)" style="stroke:#222255; stroke-width:2; stroke-opacity:0.05; fill:none" points="
  209.916,735.14 2352.76,735.14 
  "/>
<polyline clip-path="url(#clip232)" style="stroke:#222255; stroke-width:2; stroke-opacity:0.05; fill:none" points="
  209.916,695.254 2352.76,695.254 
  "/>
<polyline clip-path="url(#clip232)" style="stroke:#222255; stroke-width:2; stroke-opacity:0.05; fill:none" points="
  209.916,655.368 2352.76,655.368 
  "/>
<polyline clip-path="url(#clip232)" style="stroke:#222255; stroke-width:2; stroke-opacity:0.05; fill:none" points="
  209.916,575.597 2352.76,575.597 
  "/>
<polyline clip-path="url(#clip232)" style="stroke:#222255; stroke-width:2; stroke-opacity:0.05; fill:none" points="
  209.916,535.711 2352.76,535.711 
  "/>
<polyline clip-path="url(#clip232)" style="stroke:#222255; stroke-width:2; stroke-opacity:0.05; fill:none" points="
  209.916,495.825 2352.76,495.825 
  "/>
<polyline clip-path="url(#clip232)" style="stroke:#222255; stroke-width:2; stroke-opacity:0.05; fill:none" points="
  209.916,455.939 2352.76,455.939 
  "/>
<polyline clip-path="url(#clip232)" style="stroke:#222255; stroke-width:2; stroke-opacity:0.05; fill:none" points="
  209.916,376.168 2352.76,376.168 
  "/>
<polyline clip-path="url(#clip232)" style="stroke:#222255; stroke-width:2; stroke-opacity:0.05; fill:none" points="
  209.916,336.282 2352.76,336.282 
  "/>
<polyline clip-path="url(#clip232)" style="stroke:#222255; stroke-width:2; stroke-opacity:0.05; fill:none" points="
  209.916,296.396 2352.76,296.396 
  "/>
<polyline clip-path="url(#clip232)" style="stroke:#222255; stroke-width:2; stroke-opacity:0.05; fill:none" points="
  209.916,256.51 2352.76,256.51 
  "/>
<polyline clip-path="url(#clip232)" style="stroke:#222255; stroke-width:2; stroke-opacity:0.05; fill:none" points="
  209.916,176.738 2352.76,176.738 
  "/>
<polyline clip-path="url(#clip232)" style="stroke:#222255; stroke-width:2; stroke-opacity:0.05; fill:none" points="
  209.916,136.853 2352.76,136.853 
  "/>
<polyline clip-path="url(#clip230)" style="stroke:#000000; stroke-width:4; stroke-opacity:1; fill:none" points="
  209.916,1410.22 209.916,106.192 
  "/>
<polyline clip-path="url(#clip230)" style="stroke:#000000; stroke-width:4; stroke-opacity:1; fill:none" points="
  2352.76,1410.22 2352.76,106.192 
  "/>
<polyline clip-path="url(#clip230)" style="stroke:#000000; stroke-width:4; stroke-opacity:1; fill:none" points="
  209.916,1213.77 235.63,1213.77 
  "/>
<polyline clip-path="url(#clip230)" style="stroke:#000000; stroke-width:4; stroke-opacity:1; fill:none" points="
  209.916,1014.34 235.63,1014.34 
  "/>
<polyline clip-path="url(#clip230)" style="stroke:#000000; stroke-width:4; stroke-opacity:1; fill:none" points="
  209.916,814.912 235.63,814.912 
  "/>
<polyline clip-path="url(#clip230)" style="stroke:#000000; stroke-width:4; stroke-opacity:1; fill:none" points="
  209.916,615.483 235.63,615.483 
  "/>
<polyline clip-path="url(#clip230)" style="stroke:#000000; stroke-width:4; stroke-opacity:1; fill:none" points="
  209.916,416.053 235.63,416.053 
  "/>
<polyline clip-path="url(#clip230)" style="stroke:#000000; stroke-width:4; stroke-opacity:1; fill:none" points="
  209.916,216.624 235.63,216.624 
  "/>
<polyline clip-path="url(#clip230)" style="stroke:#000000; stroke-width:4; stroke-opacity:1; fill:none" points="
  209.916,1373.31 222.773,1373.31 
  "/>
<polyline clip-path="url(#clip230)" style="stroke:#000000; stroke-width:4; stroke-opacity:1; fill:none" points="
  209.916,1333.43 222.773,1333.43 
  "/>
<polyline clip-path="url(#clip230)" style="stroke:#000000; stroke-width:4; stroke-opacity:1; fill:none" points="
  209.916,1293.54 222.773,1293.54 
  "/>
<polyline clip-path="url(#clip230)" style="stroke:#000000; stroke-width:4; stroke-opacity:1; fill:none" points="
  209.916,1253.66 222.773,1253.66 
  "/>
<polyline clip-path="url(#clip230)" style="stroke:#000000; stroke-width:4; stroke-opacity:1; fill:none" points="
  209.916,1173.88 222.773,1173.88 
  "/>
<polyline clip-path="url(#clip230)" style="stroke:#000000; stroke-width:4; stroke-opacity:1; fill:none" points="
  209.916,1134 222.773,1134 
  "/>
<polyline clip-path="url(#clip230)" style="stroke:#000000; stroke-width:4; stroke-opacity:1; fill:none" points="
  209.916,1094.11 222.773,1094.11 
  "/>
<polyline clip-path="url(#clip230)" style="stroke:#000000; stroke-width:4; stroke-opacity:1; fill:none" points="
  209.916,1054.23 222.773,1054.23 
  "/>
<polyline clip-path="url(#clip230)" style="stroke:#000000; stroke-width:4; stroke-opacity:1; fill:none" points="
  209.916,974.455 222.773,974.455 
  "/>
<polyline clip-path="url(#clip230)" style="stroke:#000000; stroke-width:4; stroke-opacity:1; fill:none" points="
  209.916,934.569 222.773,934.569 
  "/>
<polyline clip-path="url(#clip230)" style="stroke:#000000; stroke-width:4; stroke-opacity:1; fill:none" points="
  209.916,894.683 222.773,894.683 
  "/>
<polyline clip-path="url(#clip230)" style="stroke:#000000; stroke-width:4; stroke-opacity:1; fill:none" points="
  209.916,854.798 222.773,854.798 
  "/>
<polyline clip-path="url(#clip230)" style="stroke:#000000; stroke-width:4; stroke-opacity:1; fill:none" points="
  209.916,775.026 222.773,775.026 
  "/>
<polyline clip-path="url(#clip230)" style="stroke:#000000; stroke-width:4; stroke-opacity:1; fill:none" points="
  209.916,735.14 222.773,735.14 
  "/>
<polyline clip-path="url(#clip230)" style="stroke:#000000; stroke-width:4; stroke-opacity:1; fill:none" points="
  209.916,695.254 222.773,695.254 
  "/>
<polyline clip-path="url(#clip230)" style="stroke:#000000; stroke-width:4; stroke-opacity:1; fill:none" points="
  209.916,655.368 222.773,655.368 
  "/>
<polyline clip-path="url(#clip230)" style="stroke:#000000; stroke-width:4; stroke-opacity:1; fill:none" points="
  209.916,575.597 222.773,575.597 
  "/>
<polyline clip-path="url(#clip230)" style="stroke:#000000; stroke-width:4; stroke-opacity:1; fill:none" points="
  209.916,535.711 222.773,535.711 
  "/>
<polyline clip-path="url(#clip230)" style="stroke:#000000; stroke-width:4; stroke-opacity:1; fill:none" points="
  209.916,495.825 222.773,495.825 
  "/>
<polyline clip-path="url(#clip230)" style="stroke:#000000; stroke-width:4; stroke-opacity:1; fill:none" points="
  209.916,455.939 222.773,455.939 
  "/>
<polyline clip-path="url(#clip230)" style="stroke:#000000; stroke-width:4; stroke-opacity:1; fill:none" points="
  209.916,376.168 222.773,376.168 
  "/>
<polyline clip-path="url(#clip230)" style="stroke:#000000; stroke-width:4; stroke-opacity:1; fill:none" points="
  209.916,336.282 222.773,336.282 
  "/>
<polyline clip-path="url(#clip230)" style="stroke:#000000; stroke-width:4; stroke-opacity:1; fill:none" points="
  209.916,296.396 222.773,296.396 
  "/>
<polyline clip-path="url(#clip230)" style="stroke:#000000; stroke-width:4; stroke-opacity:1; fill:none" points="
  209.916,256.51 222.773,256.51 
  "/>
<polyline clip-path="url(#clip230)" style="stroke:#000000; stroke-width:4; stroke-opacity:1; fill:none" points="
  209.916,176.738 222.773,176.738 
  "/>
<polyline clip-path="url(#clip230)" style="stroke:#000000; stroke-width:4; stroke-opacity:1; fill:none" points="
  209.916,136.853 222.773,136.853 
  "/>
<path clip-path="url(#clip230)" d="M 0 0 M148.656 1225.18 Q148.656 1223.3 149.676 1222.59 Q150.695 1221.84 151.775 1221.84 Q153.227 1221.84 154.06 1222.77 Q154.925 1223.67 154.925 1224.93 Q154.925 1226.2 154.06 1227.13 Q153.227 1228.02 151.775 1228.02 Q151.065 1228.02 150.695 1227.9 Q151.528 1230.8 154.06 1232.9 Q156.623 1235 159.989 1235 Q164.22 1235 166.752 1230.89 Q168.265 1228.24 168.265 1222.22 Q168.265 1216.9 167.122 1214.25 Q165.362 1210.2 161.749 1210.2 Q156.623 1210.2 153.597 1214.62 Q153.227 1215.18 152.794 1215.21 Q152.177 1215.21 152.022 1214.87 Q151.899 1214.5 151.899 1213.54 L151.899 1194.83 Q151.899 1193.31 152.516 1193.31 Q152.763 1193.31 153.288 1193.5 Q157.272 1195.26 161.688 1195.29 Q166.227 1195.29 170.303 1193.44 Q170.612 1193.25 170.797 1193.25 Q171.414 1193.25 171.445 1193.96 Q171.445 1194.21 170.92 1194.95 Q170.426 1195.66 169.346 1196.62 Q168.265 1197.54 166.875 1198.44 Q165.486 1199.33 163.448 1199.95 Q161.44 1200.54 159.217 1200.54 Q156.562 1200.54 153.844 1199.7 L153.844 1212.03 Q157.117 1208.81 161.873 1208.81 Q166.937 1208.81 170.426 1212.89 Q173.916 1216.97 173.916 1222.65 Q173.916 1228.61 169.778 1232.68 Q165.671 1236.76 160.113 1236.76 Q155.048 1236.76 151.837 1233.15 Q148.656 1229.53 148.656 1225.18 Z" fill="#808080" fill-rule="evenodd" fill-opacity="1" /><path clip-path="url(#clip230)" d="M 0 0 M123.953 999.843 L123.953 997.867 Q131.549 997.867 135.471 993.822 Q136.552 993.822 136.737 994.069 Q136.922 994.316 136.922 995.458 L136.922 1030.94 Q136.922 1032.82 137.849 1033.41 Q138.775 1034 142.82 1034 L144.827 1034 L144.827 1035.94 Q142.604 1035.76 134.576 1035.76 Q126.547 1035.76 124.355 1035.94 L124.355 1034 L126.362 1034 Q130.345 1034 131.302 1033.44 Q132.26 1032.85 132.26 1030.94 L132.26 998.176 Q128.956 999.843 123.953 999.843 Z" fill="#808080" fill-rule="evenodd" fill-opacity="1" /><path clip-path="url(#clip230)" d="M 0 0 M147.298 1015.72 Q147.298 1006.42 149.645 1001.36 Q152.918 993.822 160.638 993.822 Q162.274 993.822 163.973 994.285 Q165.702 994.717 167.863 996.416 Q170.056 998.114 171.384 1000.89 Q173.916 1006.27 173.916 1015.72 Q173.916 1024.95 171.569 1029.98 Q168.141 1037.33 160.576 1037.33 Q157.735 1037.33 154.832 1035.88 Q151.961 1034.43 150.139 1030.94 Q147.298 1025.72 147.298 1015.72 M152.547 1014.94 Q152.547 1024.48 153.227 1028.28 Q153.999 1032.39 156.098 1034.18 Q158.229 1035.94 160.576 1035.94 Q163.108 1035.94 165.208 1034.06 Q167.338 1032.14 167.987 1028.04 Q168.697 1023.99 168.666 1014.94 Q168.666 1006.14 168.049 1002.62 Q167.215 998.515 164.992 996.879 Q162.799 995.211 160.576 995.211 Q159.742 995.211 158.847 995.458 Q157.982 995.705 156.716 996.416 Q155.45 997.126 154.462 998.886 Q153.505 1000.65 153.041 1003.3 Q152.547 1006.73 152.547 1014.94 Z" fill="#808080" fill-rule="evenodd" fill-opacity="1" /><path clip-path="url(#clip230)" d="M 0 0 M124.632 800.414 L124.632 798.438 Q132.229 798.438 136.15 794.393 Q137.231 794.393 137.416 794.64 Q137.602 794.887 137.602 796.029 L137.602 831.509 Q137.602 833.393 138.528 833.98 Q139.454 834.566 143.5 834.566 L145.507 834.566 L145.507 836.512 Q143.284 836.327 135.255 836.327 Q127.226 836.327 125.034 836.512 L125.034 834.566 L127.041 834.566 Q131.024 834.566 131.982 834.011 Q132.939 833.424 132.939 831.509 L132.939 798.747 Q129.635 800.414 124.632 800.414 Z" fill="#808080" fill-rule="evenodd" fill-opacity="1" /><path clip-path="url(#clip230)" d="M 0 0 M148.656 826.322 Q148.656 824.438 149.676 823.728 Q150.695 822.987 151.775 822.987 Q153.227 822.987 154.06 823.913 Q154.925 824.809 154.925 826.075 Q154.925 827.341 154.06 828.267 Q153.227 829.163 151.775 829.163 Q151.065 829.163 150.695 829.039 Q151.528 831.942 154.06 834.041 Q156.623 836.141 159.989 836.141 Q164.22 836.141 166.752 832.034 Q168.265 829.379 168.265 823.357 Q168.265 818.046 167.122 815.39 Q165.362 811.345 161.749 811.345 Q156.623 811.345 153.597 815.761 Q153.227 816.317 152.794 816.348 Q152.177 816.348 152.022 816.008 Q151.899 815.637 151.899 814.68 L151.899 795.967 Q151.899 794.454 152.516 794.454 Q152.763 794.454 153.288 794.64 Q157.272 796.4 161.688 796.431 Q166.227 796.431 170.303 794.578 Q170.612 794.393 170.797 794.393 Q171.414 794.393 171.445 795.103 Q171.445 795.35 170.92 796.091 Q170.426 796.801 169.346 797.758 Q168.265 798.685 166.875 799.58 Q165.486 800.476 163.448 801.093 Q161.44 801.68 159.217 801.68 Q156.562 801.68 153.844 800.846 L153.844 813.167 Q157.117 809.956 161.873 809.956 Q166.937 809.956 170.426 814.032 Q173.916 818.108 173.916 823.79 Q173.916 829.749 169.778 833.825 Q165.671 837.901 160.113 837.901 Q155.048 837.901 151.837 834.288 Q148.656 830.676 148.656 826.322 Z" fill="#808080" fill-rule="evenodd" fill-opacity="1" /><path clip-path="url(#clip230)" d="M 0 0 M119.568 637.083 Q119.568 635.94 119.661 635.6 Q119.784 635.261 120.279 634.736 L132.414 621.211 Q139.053 613.738 139.053 607.222 Q139.053 602.992 136.83 599.966 Q134.637 596.94 130.592 596.94 Q127.813 596.94 125.466 598.638 Q123.119 600.336 122.039 603.363 Q122.224 603.301 122.872 603.301 Q124.447 603.301 125.312 604.289 Q126.207 605.277 126.207 606.605 Q126.207 608.303 125.096 609.137 Q124.015 609.94 122.934 609.94 Q122.502 609.94 121.915 609.847 Q121.359 609.755 120.464 608.89 Q119.568 607.994 119.568 606.42 Q119.568 602.004 122.903 598.484 Q126.269 594.963 131.395 594.963 Q137.2 594.963 140.998 598.422 Q144.827 601.849 144.827 607.222 Q144.827 609.106 144.241 610.835 Q143.685 612.534 142.913 613.861 Q142.172 615.189 140.134 617.32 Q138.096 619.451 136.459 620.964 Q134.823 622.477 131.148 625.688 L124.447 632.204 L135.842 632.204 Q141.4 632.204 141.832 631.71 Q142.45 630.814 143.222 626.09 L144.827 626.09 L143.036 637.083 L119.568 637.083 Z" fill="#808080" fill-rule="evenodd" fill-opacity="1" /><path clip-path="url(#clip230)" d="M 0 0 M147.298 616.857 Q147.298 607.562 149.645 602.498 Q152.918 594.963 160.638 594.963 Q162.274 594.963 163.973 595.427 Q165.702 595.859 167.863 597.557 Q170.056 599.256 171.384 602.035 Q173.916 607.408 173.916 616.857 Q173.916 626.09 171.569 631.123 Q168.141 638.472 160.576 638.472 Q157.735 638.472 154.832 637.021 Q151.961 635.57 150.139 632.08 Q147.298 626.862 147.298 616.857 M152.547 616.085 Q152.547 625.626 153.227 629.425 Q153.999 633.532 156.098 635.323 Q158.229 637.083 160.576 637.083 Q163.108 637.083 165.208 635.199 Q167.338 633.284 167.987 629.178 Q168.697 625.132 168.666 616.085 Q168.666 607.284 168.049 603.764 Q167.215 599.657 164.992 598.02 Q162.799 596.353 160.576 596.353 Q159.742 596.353 158.847 596.6 Q157.982 596.847 156.716 597.557 Q155.45 598.267 154.462 600.028 Q153.505 601.788 153.041 604.443 Q152.547 607.871 152.547 616.085 Z" fill="#808080" fill-rule="evenodd" fill-opacity="1" /><path clip-path="url(#clip230)" d="M 0 0 M120.248 437.653 Q120.248 436.511 120.34 436.171 Q120.464 435.832 120.958 435.307 L133.093 421.782 Q139.732 414.309 139.732 407.793 Q139.732 403.563 137.509 400.537 Q135.317 397.511 131.272 397.511 Q128.492 397.511 126.146 399.209 Q123.799 400.907 122.718 403.933 Q122.903 403.872 123.552 403.872 Q125.127 403.872 125.991 404.86 Q126.887 405.848 126.887 407.176 Q126.887 408.874 125.775 409.708 Q124.694 410.511 123.613 410.511 Q123.181 410.511 122.594 410.418 Q122.039 410.325 121.143 409.461 Q120.248 408.565 120.248 406.99 Q120.248 402.575 123.583 399.054 Q126.948 395.534 132.074 395.534 Q137.88 395.534 141.678 398.993 Q145.507 402.42 145.507 407.793 Q145.507 409.677 144.92 411.406 Q144.364 413.105 143.592 414.432 Q142.851 415.76 140.813 417.891 Q138.775 420.021 137.139 421.535 Q135.502 423.048 131.827 426.259 L125.127 432.775 L136.521 432.775 Q142.079 432.775 142.512 432.28 Q143.129 431.385 143.901 426.66 L145.507 426.66 L143.716 437.653 L120.248 437.653 Z" fill="#808080" fill-rule="evenodd" fill-opacity="1" /><path clip-path="url(#clip230)" d="M 0 0 M148.656 427.463 Q148.656 425.58 149.676 424.869 Q150.695 424.128 151.775 424.128 Q153.227 424.128 154.06 425.055 Q154.925 425.95 154.925 427.216 Q154.925 428.482 154.06 429.409 Q153.227 430.304 151.775 430.304 Q151.065 430.304 150.695 430.181 Q151.528 433.083 154.06 435.183 Q156.623 437.283 159.989 437.283 Q164.22 437.283 166.752 433.176 Q168.265 430.52 168.265 424.499 Q168.265 419.188 167.122 416.532 Q165.362 412.487 161.749 412.487 Q156.623 412.487 153.597 416.903 Q153.227 417.458 152.794 417.489 Q152.177 417.489 152.022 417.15 Q151.899 416.779 151.899 415.822 L151.899 397.109 Q151.899 395.596 152.516 395.596 Q152.763 395.596 153.288 395.781 Q157.272 397.541 161.688 397.572 Q166.227 397.572 170.303 395.72 Q170.612 395.534 170.797 395.534 Q171.414 395.534 171.445 396.244 Q171.445 396.492 170.92 397.233 Q170.426 397.943 169.346 398.9 Q168.265 399.826 166.875 400.722 Q165.486 401.617 163.448 402.235 Q161.44 402.822 159.217 402.822 Q156.562 402.822 153.844 401.988 L153.844 414.309 Q157.117 411.097 161.873 411.097 Q166.937 411.097 170.426 415.173 Q173.916 419.249 173.916 424.931 Q173.916 430.891 169.778 434.967 Q165.671 439.043 160.113 439.043 Q155.048 439.043 151.837 435.43 Q148.656 431.817 148.656 427.463 Z" fill="#808080" fill-rule="evenodd" fill-opacity="1" /><path clip-path="url(#clip230)" d="M 0 0 M118.58 229.702 Q118.58 227.818 119.661 226.923 Q120.742 226.027 122.131 226.027 Q123.583 226.027 124.602 226.984 Q125.651 227.911 125.651 229.547 Q125.651 231.307 124.416 232.296 Q123.212 233.284 121.483 233.037 Q122.996 235.569 125.775 236.711 Q128.585 237.854 131.179 237.854 Q133.896 237.854 136.089 235.507 Q138.312 233.16 138.312 227.417 Q138.312 222.538 136.397 219.728 Q134.514 216.918 130.777 216.918 L127.998 216.918 Q127.041 216.918 126.763 216.825 Q126.485 216.732 126.485 216.207 Q126.485 215.59 127.442 215.466 Q128.4 215.466 129.913 215.281 Q133.587 215.158 135.533 211.977 Q137.293 209.013 137.293 204.782 Q137.293 200.922 135.44 199.317 Q133.618 197.68 131.241 197.68 Q129.017 197.68 126.578 198.606 Q124.138 199.533 122.811 201.602 Q126.732 201.602 126.732 204.782 Q126.732 206.172 125.837 207.098 Q124.972 207.994 123.521 207.994 Q122.131 207.994 121.205 207.129 Q120.279 206.233 120.279 204.72 Q120.279 201.108 123.49 198.606 Q126.732 196.105 131.488 196.105 Q136.181 196.105 139.64 198.575 Q143.129 201.046 143.129 204.844 Q143.129 208.58 140.659 211.637 Q138.188 214.694 134.267 215.96 Q139.084 216.918 141.956 220.191 Q144.827 223.433 144.827 227.417 Q144.827 232.357 140.937 236.001 Q137.046 239.614 131.364 239.614 Q126.115 239.614 122.347 236.773 Q118.58 233.932 118.58 229.702 Z" fill="#808080" fill-rule="evenodd" fill-opacity="1" /><path clip-path="url(#clip230)" d="M 0 0 M147.298 217.998 Q147.298 208.704 149.645 203.64 Q152.918 196.105 160.638 196.105 Q162.274 196.105 163.973 196.568 Q165.702 197.001 167.863 198.699 Q170.056 200.397 171.384 203.176 Q173.916 208.549 173.916 217.998 Q173.916 227.231 171.569 232.265 Q168.141 239.614 160.576 239.614 Q157.735 239.614 154.832 238.163 Q151.961 236.711 150.139 233.222 Q147.298 228.003 147.298 217.998 M152.547 217.226 Q152.547 226.768 153.227 230.566 Q153.999 234.673 156.098 236.464 Q158.229 238.224 160.576 238.224 Q163.108 238.224 165.208 236.341 Q167.338 234.426 167.987 230.319 Q168.697 226.274 168.666 217.226 Q168.666 208.426 168.049 204.906 Q167.215 200.799 164.992 199.162 Q162.799 197.495 160.576 197.495 Q159.742 197.495 158.847 197.742 Q157.982 197.989 156.716 198.699 Q155.45 199.409 154.462 201.169 Q153.505 202.929 153.041 205.585 Q152.547 209.013 152.547 217.226 Z" fill="#808080" fill-rule="evenodd" fill-opacity="1" /><path clip-path="url(#clip230)" d="M 0 0 M32.7152 903.721 L15.6699 902.276 L15.6699 855.92 L32.7152 854.475 L32.7152 856.365 Q29.3061 856.661 27.3422 856.958 Q25.3783 857.217 23.5255 857.884 Q21.6357 858.514 20.7464 859.329 Q19.82 860.107 19.116 861.627 Q18.3749 863.146 18.1896 865.11 Q18.0043 867.074 18.0043 870.038 Q18.0043 873.521 18.1526 874.374 Q18.3749 875.3 19.0419 875.522 Q19.6718 875.745 21.0429 875.745 L61.0252 875.745 Q62.5445 875.745 63.1744 875.448 Q63.7673 875.115 64.249 873.373 Q64.6937 871.631 64.6937 867.778 L64.6937 864.739 L67.0282 864.739 Q66.8058 867.852 66.8058 879.154 Q66.8058 890.381 67.0282 893.494 L64.6937 893.494 L64.6937 890.455 Q64.6937 886.602 64.249 884.86 Q63.7673 883.081 63.1744 882.785 Q62.5445 882.489 61.0252 882.489 L21.0429 882.489 Q19.9683 882.489 19.5236 882.563 Q19.0789 882.637 18.7084 882.97 Q18.3008 883.304 18.1526 884.082 Q18.0043 884.823 18.0043 888.158 Q18.0043 891.122 18.1896 893.123 Q18.3749 895.087 19.116 896.607 Q19.82 898.126 20.7464 898.941 Q21.6357 899.719 23.5255 900.386 Q25.3783 901.016 27.3422 901.275 Q29.3061 901.535 32.7152 901.831 L32.7152 903.721 Z" fill="#000000" fill-rule="evenodd" fill-opacity="1" /><path clip-path="url(#clip230)" d="M 0 0 M66.2871 853.734 L8.96291 853.734 L8.96291 797.558 L66.2871 797.558 L66.2871 853.734 M58.5426 849.176 L37.5694 828.203 L16.7074 849.176 L58.5426 849.176 M61.7293 846.508 L61.7293 804.784 L40.7561 825.646 L61.7293 846.508 M13.5207 846.508 L34.4568 825.646 L13.5207 804.784 L13.5207 846.508 M37.5694 823.052 L58.5426 802.116 L16.7074 802.116 L37.5694 823.052 Z" fill="#000000" fill-rule="evenodd" fill-opacity="1" /><path clip-path="url(#clip230)" d="M 0 0 M17.5597 795.446 L15.1882 795.446 L14.3729 784.515 L38.4217 784.515 Q33.4933 780.106 33.4933 774.103 Q33.4933 767.581 38.4958 762.801 Q43.4982 758.021 50.6498 758.021 Q57.8756 758.021 62.878 763.023 Q67.8804 768.026 67.8804 774.955 Q67.8804 781.254 62.3222 784.886 Q66.954 787.554 67.0282 787.628 L67.0282 789.517 L21.784 789.517 Q18.9678 789.517 18.2637 790.518 Q17.5597 791.518 17.5597 795.446 M58.3943 784.293 Q59.9877 784.293 61.5811 783.218 Q66.1759 780.217 66.1759 775.325 Q66.1759 775.288 66.1759 775.251 Q66.1759 769.952 61.3217 766.655 Q57.6903 764.32 50.5757 764.32 Q43.5353 764.32 40.015 766.506 Q35.1608 769.545 35.1608 774.473 Q35.1608 780.031 40.015 783.44 Q41.2379 784.293 42.7571 784.293 L58.3943 784.293 Z" fill="#000000" fill-rule="evenodd" fill-opacity="1" /><path clip-path="url(#clip230)" d="M 0 0 M76.4401 758.688 Q74.8468 758.688 73.9945 757.761 Q73.1793 756.798 73.1793 755.501 Q73.1793 754.13 74.0316 753.241 Q74.9209 752.314 76.366 752.314 Q79.1822 752.314 79.5528 755.279 Q80.9238 753.833 80.9238 751.721 Q80.9238 749.461 79.2563 747.645 Q77.5888 745.793 75.9955 745.014 Q74.4021 744.199 71.5118 743.05 Q69.2515 741.976 67.0282 741.161 L39.311 752.537 Q37.4953 753.278 37.0877 754.426 Q36.6801 755.575 36.6801 758.688 L34.3086 758.688 Q34.5309 755.279 34.5309 751.314 Q34.5309 748.979 34.3086 743.05 L36.6801 743.05 Q36.6801 747.312 38.644 747.312 Q38.8663 747.312 40.015 746.867 L60.4324 738.419 L41.7566 730.748 Q40.682 730.304 39.9409 730.304 Q36.8283 730.304 36.6801 733.861 L34.3086 733.861 Q34.5309 728.858 34.5309 727.265 Q34.5309 724.152 34.3086 721.596 L36.6801 721.596 Q36.6801 726.672 41.5343 728.636 L73.9204 742.013 Q82.5542 745.644 82.5913 751.721 Q82.5913 754.612 80.8126 756.65 Q79.034 758.688 76.4401 758.688 Z" fill="#000000" fill-rule="evenodd" fill-opacity="1" /><path clip-path="url(#clip230)" d="M 0 0 M32.7152 718.854 L15.6699 717.408 L15.6699 671.053 L32.7152 669.607 L32.7152 671.497 Q29.3061 671.794 27.3422 672.09 Q25.3783 672.349 23.5255 673.016 Q21.6357 673.646 20.7464 674.462 Q19.82 675.24 19.116 676.759 Q18.3749 678.278 18.1896 680.242 Q18.0043 682.206 18.0043 685.171 Q18.0043 688.654 18.1526 689.506 Q18.3749 690.432 19.0419 690.655 Q19.6718 690.877 21.0429 690.877 L61.0252 690.877 Q62.5445 690.877 63.1744 690.581 Q63.7673 690.247 64.249 688.505 Q64.6937 686.764 64.6937 682.91 L64.6937 679.872 L67.0282 679.872 Q66.8058 682.984 66.8058 694.286 Q66.8058 705.514 67.0282 708.626 L64.6937 708.626 L64.6937 705.588 Q64.6937 701.734 64.249 699.993 Q63.7673 698.214 63.1744 697.917 Q62.5445 697.621 61.0252 697.621 L21.0429 697.621 Q19.9683 697.621 19.5236 697.695 Q19.0789 697.769 18.7084 698.103 Q18.3008 698.436 18.1526 699.214 Q18.0043 699.955 18.0043 703.29 Q18.0043 706.255 18.1896 708.256 Q18.3749 710.22 19.116 711.739 Q19.82 713.258 20.7464 714.073 Q21.6357 714.852 23.5255 715.519 Q25.3783 716.149 27.3422 716.408 Q29.3061 716.667 32.7152 716.964 L32.7152 718.854 Z" fill="#000000" fill-rule="evenodd" fill-opacity="1" /><path clip-path="url(#clip230)" d="M 0 0 M66.2871 668.866 L8.96291 668.866 L8.96291 612.691 L66.2871 612.691 L66.2871 668.866 M58.5426 664.309 L37.5694 643.335 L16.7074 664.309 L58.5426 664.309 M61.7293 661.641 L61.7293 619.917 L40.7561 640.779 L61.7293 661.641 M13.5207 661.641 L34.4568 640.779 L13.5207 619.917 L13.5207 661.641 M37.5694 638.185 L58.5426 617.249 L16.7074 617.249 L37.5694 638.185 Z" fill="#000000" fill-rule="evenodd" fill-opacity="1" /><path clip-path="url(#clip230)" d="M 0 0 M905.474 51.7165 L905.474 39.056 Q905.474 38.3458 905.505 38.0988 Q905.536 37.8517 905.721 37.6664 Q905.906 37.4812 906.277 37.4812 Q906.987 37.4812 907.049 38.1296 Q907.234 44.3981 910.971 47.8566 Q914.645 51.2842 920.945 51.2842 Q924.743 51.2842 927.09 48.5668 Q929.436 45.8186 929.436 42.2366 Q929.436 38.809 927.46 36.4004 Q926.626 35.3196 925.577 34.6403 Q924.558 33.9301 923.909 33.7139 Q923.291 33.4978 922.087 33.189 Q914.244 31.3053 913.75 31.0892 Q910.013 29.8231 907.728 26.6426 Q905.474 23.4311 905.474 19.5095 Q905.474 14.4453 909.025 10.8633 Q912.607 7.25044 917.795 7.25044 Q920.389 7.25044 922.55 8.08417 Q924.743 8.88703 925.638 9.62813 Q926.534 10.3692 927.923 11.697 L930.116 8.08417 Q930.61 7.25044 931.073 7.25044 Q931.567 7.25044 931.66 7.55923 Q931.783 7.83714 931.783 8.76352 L931.783 21.4857 Q931.783 22.196 931.752 22.443 Q931.721 22.69 931.505 22.8444 Q931.32 22.9988 930.95 22.9988 Q930.332 22.9988 930.178 22.2577 Q928.417 9.04143 917.857 9.04143 Q914.244 9.04143 911.866 11.4809 Q909.519 13.8895 909.519 17.3171 Q909.519 20.0962 911.249 22.3812 Q912.978 24.6354 915.911 25.3456 L924.002 27.291 Q928.047 28.2483 930.764 31.8303 Q933.482 35.4123 933.482 40.075 Q933.482 45.448 929.961 49.3388 Q926.472 53.2296 921.006 53.2296 Q917.085 53.2296 914.059 51.9326 Q911.032 50.6357 909.396 48.8138 Q908.13 50.9136 907.296 52.087 L907.111 52.3958 Q906.617 53.2296 906.154 53.2296 Q905.659 53.2296 905.567 52.9208 Q905.474 52.612 905.474 51.7165 Z" fill="#000000" fill-rule="evenodd" fill-opacity="1" /><path clip-path="url(#clip230)" d="M 0 0 M934.686 26.5499 L934.686 25.1604 Q937.589 25.0369 939.503 22.9988 Q941.448 20.9299 942.097 18.3978 Q942.776 15.8657 942.838 12.9322 L944.413 12.9322 L944.413 24.5737 L953.46 24.5737 L953.46 26.5499 L944.413 26.5499 L944.413 44.1202 Q944.413 50.9445 948.674 50.9445 Q950.496 50.9445 951.7 49.0918 Q952.905 47.2081 952.905 43.8732 L952.905 40.3838 L954.479 40.3838 L954.479 43.9967 Q954.479 47.4243 952.905 49.9872 Q951.33 52.5502 948.211 52.5502 Q947.068 52.5502 945.926 52.2414 Q944.814 51.9635 943.332 51.2224 Q941.881 50.4504 940.954 48.5977 Q940.059 46.7141 940.059 43.9967 L940.059 26.5499 L934.686 26.5499 Z" fill="#000000" fill-rule="evenodd" fill-opacity="1" /><path clip-path="url(#clip230)" d="M 0 0 M957.135 45.8186 Q957.135 40.4456 963.465 37.6047 Q967.263 35.7828 975.107 35.3196 L975.107 33.0037 Q975.107 29.082 973.038 27.0131 Q971 24.9133 968.406 24.9133 Q963.774 24.9133 961.551 27.816 Q963.434 27.8777 964.114 28.835 Q964.793 29.7614 964.793 30.7186 Q964.793 31.9847 963.99 32.8184 Q963.218 33.6213 961.89 33.6213 Q960.624 33.6213 959.791 32.8493 Q958.957 32.0464 958.957 30.6569 Q958.957 27.5689 961.736 25.5309 Q964.546 23.4929 968.53 23.4929 Q973.717 23.4929 977.176 26.9822 Q978.256 28.063 978.781 29.4526 Q979.337 30.8421 979.399 31.7685 Q979.461 32.664 979.461 34.455 L979.461 47.0846 Q979.461 47.4552 979.584 48.0727 Q979.708 48.6903 980.264 49.4932 Q980.85 50.2652 981.808 50.2652 Q984.093 50.2652 984.062 46.22 L984.062 42.6689 L985.667 42.6689 L985.667 46.22 Q985.667 49.5858 983.876 50.9136 Q982.116 52.2106 980.48 52.2106 Q978.38 52.2106 977.052 50.6666 Q975.724 49.1226 975.539 47.0228 Q974.582 49.4314 972.389 51.0063 Q970.228 52.5502 967.263 52.5502 Q964.978 52.5502 962.817 51.9635 Q960.686 51.4077 958.895 49.8329 Q957.135 48.2271 957.135 45.8186 M962.014 45.7568 Q962.014 48.1036 963.681 49.6167 Q965.349 51.1298 967.696 51.1298 Q970.351 51.1298 972.729 49.0918 Q975.107 47.0228 975.107 42.9777 L975.107 36.6474 Q968.097 36.8945 965.04 39.7045 Q962.014 42.4836 962.014 45.7568 Z" fill="#000000" fill-rule="evenodd" fill-opacity="1" /><path clip-path="url(#clip230)" d="M 0 0 M986.872 26.5499 L986.872 25.1604 Q989.774 25.0369 991.689 22.9988 Q993.634 20.9299 994.283 18.3978 Q994.962 15.8657 995.024 12.9322 L996.599 12.9322 L996.599 24.5737 L1005.65 24.5737 L1005.65 26.5499 L996.599 26.5499 L996.599 44.1202 Q996.599 50.9445 1000.86 50.9445 Q1002.68 50.9445 1003.89 49.0918 Q1005.09 47.2081 1005.09 43.8732 L1005.09 40.3838 L1006.67 40.3838 L1006.67 43.9967 Q1006.67 47.4243 1005.09 49.9872 Q1003.52 52.5502 1000.4 52.5502 Q999.254 52.5502 998.112 52.2414 Q997 51.9635 995.518 51.2224 Q994.067 50.4504 993.14 48.5977 Q992.245 46.7141 992.245 43.9967 L992.245 26.5499 L986.872 26.5499 Z" fill="#000000" fill-rule="evenodd" fill-opacity="1" /><path clip-path="url(#clip230)" d="M 0 0 M1008.77 51.84 L1008.77 49.8946 Q1012.13 49.8946 1012.9 49.4932 Q1013.67 49.0609 1013.67 47.0228 L1013.67 30.0084 Q1013.67 27.6616 1012.87 27.1058 Q1012.1 26.5499 1009.01 26.5499 L1009.01 24.5737 L1017.84 23.8943 L1017.84 47.0846 Q1017.84 48.9682 1018.52 49.4314 Q1019.2 49.8946 1022.29 49.8946 L1022.29 51.84 Q1015.84 51.6547 1015.71 51.6547 Q1014.85 51.6547 1008.77 51.84 M1011.42 12.8705 Q1011.42 11.6044 1012.38 10.5854 Q1013.37 9.5355 1014.76 9.5355 Q1016.15 9.5355 1017.13 10.4928 Q1018.12 11.4191 1018.12 12.9013 Q1018.12 14.3527 1017.13 15.3099 Q1016.15 16.2363 1014.76 16.2363 Q1013.3 16.2363 1012.35 15.2173 Q1011.42 14.1983 1011.42 12.8705 Z" fill="#000000" fill-rule="evenodd" fill-opacity="1" /><path clip-path="url(#clip230)" d="M 0 0 M1028.47 48.3815 Q1024.45 44.182 1024.45 38.1914 Q1024.45 32.1699 1028.4 27.8469 Q1032.36 23.4929 1038.16 23.4929 Q1042.02 23.4929 1044.92 25.3456 Q1047.83 27.1675 1047.83 30.2863 Q1047.83 31.6759 1046.99 32.4787 Q1046.19 33.2507 1044.92 33.2507 Q1043.6 33.2507 1042.79 32.4479 Q1042.02 31.6141 1042.02 30.3481 Q1042.02 29.7923 1042.21 29.2364 Q1042.39 28.6806 1043.07 28.0939 Q1043.78 27.5072 1044.99 27.4146 Q1042.73 25.0986 1038.35 25.0986 Q1038.29 25.0986 1038.22 25.0986 Q1035.01 25.0986 1032.36 28.1248 Q1029.7 31.1509 1029.7 38.0679 Q1029.7 41.6807 1030.57 44.3364 Q1031.46 46.9611 1032.91 48.3198 Q1034.36 49.6785 1035.78 50.3269 Q1037.2 50.9445 1038.59 50.9445 Q1044.8 50.9445 1046.9 44.3055 Q1047.09 43.6879 1047.7 43.6879 Q1048.54 43.6879 1048.54 44.3055 Q1048.54 44.6143 1048.29 45.4171 Q1048.04 46.22 1047.27 47.486 Q1046.5 48.7521 1045.39 49.8637 Q1044.31 50.9445 1042.36 51.7474 Q1040.45 52.5502 1038.04 52.5502 Q1032.48 52.5502 1028.47 48.3815 Z" fill="#000000" fill-rule="evenodd" fill-opacity="1" /><path clip-path="url(#clip230)" d="M 0 0 M1071.85 23.2459 L1073.06 9.04143 L1111.69 9.04143 L1112.89 23.2459 L1111.31 23.2459 Q1111.07 20.405 1110.82 18.7684 Q1110.6 17.1318 1110.05 15.5878 Q1109.52 14.013 1108.84 13.2719 Q1108.2 12.4999 1106.93 11.9132 Q1105.66 11.2956 1104.03 11.1412 Q1102.39 10.9868 1099.92 10.9868 Q1097.02 10.9868 1096.31 11.1103 Q1095.54 11.2956 1095.35 11.8514 Q1095.17 12.3764 1095.17 13.5189 L1095.17 46.8376 Q1095.17 48.1036 1095.41 48.6286 Q1095.69 49.1226 1097.14 49.5241 Q1098.59 49.8946 1101.8 49.8946 L1104.34 49.8946 L1104.34 51.84 Q1101.74 51.6547 1092.32 51.6547 Q1082.97 51.6547 1080.37 51.84 L1080.37 49.8946 L1082.91 49.8946 Q1086.12 49.8946 1087.57 49.5241 Q1089.05 49.1226 1089.3 48.6286 Q1089.55 48.1036 1089.55 46.8376 L1089.55 13.5189 Q1089.55 12.6234 1089.48 12.2529 Q1089.42 11.8823 1089.14 11.5735 Q1088.87 11.2339 1088.22 11.1103 Q1087.6 10.9868 1084.82 10.9868 Q1082.35 10.9868 1080.68 11.1412 Q1079.05 11.2956 1077.78 11.9132 Q1076.51 12.4999 1075.83 13.2719 Q1075.19 14.013 1074.63 15.5878 Q1074.11 17.1318 1073.89 18.7684 Q1073.67 20.405 1073.43 23.2459 L1071.85 23.2459 Z" fill="#000000" fill-rule="evenodd" fill-opacity="1" /><path clip-path="url(#clip230)" d="M 0 0 M1109.4 37.9135 Q1109.4 31.9538 1113.23 27.7233 Q1117.06 23.4929 1122.55 23.4929 Q1128.11 23.4929 1130.98 27.1058 Q1133.89 30.7186 1133.89 35.9063 Q1133.89 36.8636 1133.64 37.0489 Q1133.39 37.2341 1132.31 37.2341 L1114.65 37.2341 Q1114.65 43.6879 1116.56 46.7141 Q1119.22 50.9445 1123.7 50.9445 Q1124.32 50.9445 1125.06 50.821 Q1125.8 50.6975 1127.31 50.1725 Q1128.82 49.6167 1130.15 48.1654 Q1131.48 46.7141 1132.25 44.429 Q1132.44 43.5335 1133.05 43.5644 Q1133.89 43.5644 1133.89 44.3055 Q1133.89 44.8613 1133.27 46.1273 Q1132.68 47.3625 1131.54 48.8447 Q1130.4 50.3269 1128.17 51.4386 Q1125.98 52.5502 1123.33 52.5502 Q1117.77 52.5502 1113.57 48.3507 Q1109.4 44.1202 1109.4 37.9135 M1114.71 35.9063 L1129.72 35.9063 Q1129.72 34.5785 1129.47 33.0963 Q1129.26 31.6141 1128.58 29.5761 Q1127.93 27.5072 1126.38 26.2103 Q1124.84 24.9133 1122.55 24.9133 Q1121.54 24.9133 1120.42 25.3456 Q1119.34 25.778 1118.02 26.8278 Q1116.69 27.8777 1115.76 30.2554 Q1114.84 32.6331 1114.71 35.9063 Z" fill="#000000" fill-rule="evenodd" fill-opacity="1" /><path clip-path="url(#clip230)" d="M 0 0 M1135.93 51.84 L1135.93 49.8946 Q1139.29 49.8946 1140.06 49.4932 Q1140.84 49.0609 1140.84 47.0228 L1140.84 30.0702 Q1140.84 27.7233 1140 27.1366 Q1139.2 26.5499 1135.93 26.5499 L1135.93 24.5737 L1144.82 23.8943 L1144.82 30.5334 Q1147.78 23.8943 1154.18 23.8943 Q1161.59 23.8943 1162.61 30.0702 Q1163.69 27.6616 1165.94 25.778 Q1168.23 23.8943 1171.78 23.8943 Q1176.53 23.8943 1178.42 26.2411 Q1179.8 27.816 1180.08 29.5761 Q1180.36 31.3362 1180.36 35.9063 L1180.36 47.9801 Q1180.42 49.3079 1181.44 49.6167 Q1182.46 49.8946 1185.3 49.8946 L1185.3 51.84 Q1178.85 51.6547 1178.23 51.6547 Q1177.74 51.6547 1171.07 51.84 L1171.07 49.8946 Q1174.43 49.8946 1175.2 49.4932 Q1176.01 49.0609 1176.01 47.0228 L1176.01 32.2935 Q1176.01 29.082 1175.02 27.1984 Q1174.03 25.2839 1171.31 25.2839 Q1168.04 25.2839 1165.42 28.0321 Q1162.79 30.7804 1162.79 35.4123 L1162.79 47.0228 Q1162.79 49.0609 1163.56 49.4932 Q1164.37 49.8946 1167.73 49.8946 L1167.73 51.84 Q1161.28 51.6547 1160.63 51.6547 Q1160.13 51.6547 1153.5 51.84 L1153.5 49.8946 Q1156.86 49.8946 1157.63 49.4932 Q1158.44 49.0609 1158.44 47.0228 L1158.44 32.2935 Q1158.44 29.082 1157.45 27.1984 Q1156.46 25.2839 1153.74 25.2839 Q1150.47 25.2839 1147.85 28.0321 Q1145.22 30.7804 1145.22 35.4123 L1145.22 47.0228 Q1145.22 49.0609 1145.99 49.4932 Q1146.8 49.8946 1150.13 49.8946 L1150.13 51.84 Q1143.68 51.6547 1143.06 51.6547 Q1142.56 51.6547 1135.93 51.84 Z" fill="#000000" fill-rule="evenodd" fill-opacity="1" /><path clip-path="url(#clip230)" d="M 0 0 M1187.06 62.1537 Q1190.43 62.1537 1191.2 61.7213 Q1192 61.3199 1192 59.3128 L1192 29.6996 Q1192 27.5998 1191.2 27.0749 Q1190.43 26.5499 1187.06 26.5499 L1187.06 24.5737 L1196.17 23.8943 L1196.17 28.063 Q1199.97 23.8943 1205.03 23.8943 Q1210.41 23.8943 1214.33 28.063 Q1218.25 32.2317 1218.25 38.1914 Q1218.25 44.2128 1214.08 48.3815 Q1209.91 52.5502 1204.14 52.5502 Q1200.99 52.5502 1198.86 50.9445 Q1196.76 49.3079 1196.36 48.1036 L1196.36 48.6903 L1196.36 59.3128 Q1196.36 61.3508 1197.16 61.7522 Q1197.96 62.1537 1201.3 62.1537 L1201.3 64.099 Q1194.66 63.9138 1194.16 63.9138 Q1193.55 63.9138 1187.06 64.099 L1187.06 62.1537 M1196.36 44.6451 Q1196.36 45.6024 1196.48 45.9421 Q1196.63 46.2817 1197.25 47.3008 Q1199.75 51.1298 1203.83 51.1298 Q1203.86 51.1298 1203.89 51.1298 Q1207.5 51.1298 1210.25 47.4552 Q1213 43.7496 1213 38.1914 Q1213 32.8802 1210.5 29.1747 Q1208 25.4692 1204.54 25.4692 Q1202.07 25.4692 1199.91 26.797 Q1197.75 28.1248 1196.36 30.5334 L1196.36 44.6451 Z" fill="#000000" fill-rule="evenodd" fill-opacity="1" /><path clip-path="url(#clip230)" d="M 0 0 M1221.77 37.9135 Q1221.77 31.9538 1225.6 27.7233 Q1229.43 23.4929 1234.92 23.4929 Q1240.48 23.4929 1243.35 27.1058 Q1246.26 30.7186 1246.26 35.9063 Q1246.26 36.8636 1246.01 37.0489 Q1245.76 37.2341 1244.68 37.2341 L1227.02 37.2341 Q1227.02 43.6879 1228.93 46.7141 Q1231.59 50.9445 1236.07 50.9445 Q1236.68 50.9445 1237.43 50.821 Q1238.17 50.6975 1239.68 50.1725 Q1241.19 49.6167 1242.52 48.1654 Q1243.85 46.7141 1244.62 44.429 Q1244.81 43.5335 1245.42 43.5644 Q1246.26 43.5644 1246.26 44.3055 Q1246.26 44.8613 1245.64 46.1273 Q1245.05 47.3625 1243.91 48.8447 Q1242.77 50.3269 1240.54 51.4386 Q1238.35 52.5502 1235.7 52.5502 Q1230.14 52.5502 1225.94 48.3507 Q1221.77 44.1202 1221.77 37.9135 M1227.08 35.9063 L1242.09 35.9063 Q1242.09 34.5785 1241.84 33.0963 Q1241.63 31.6141 1240.95 29.5761 Q1240.3 27.5072 1238.75 26.2103 Q1237.21 24.9133 1234.92 24.9133 Q1233.91 24.9133 1232.79 25.3456 Q1231.71 25.778 1230.39 26.8278 Q1229.06 27.8777 1228.13 30.2554 Q1227.2 32.6331 1227.08 35.9063 Z" fill="#000000" fill-rule="evenodd" fill-opacity="1" /><path clip-path="url(#clip230)" d="M 0 0 M1248.02 51.84 L1248.02 49.8946 Q1251.38 49.8946 1252.15 49.4932 Q1252.96 49.0609 1252.96 47.0228 L1252.96 30.0702 Q1252.96 27.7233 1252.12 27.1366 Q1251.32 26.5499 1248.02 26.5499 L1248.02 24.5737 L1256.82 23.8943 L1256.82 30.8421 Q1257.71 28.1248 1259.6 26.025 Q1261.51 23.8943 1264.6 23.8943 Q1266.64 23.8943 1267.93 25.0369 Q1269.26 26.1794 1269.26 27.7542 Q1269.26 29.1438 1268.4 29.854 Q1267.56 30.5334 1266.54 30.5334 Q1265.4 30.5334 1264.6 29.8231 Q1263.83 29.082 1263.83 27.816 Q1263.83 27.044 1264.17 26.4573 Q1264.54 25.8397 1264.82 25.6236 Q1265.09 25.4074 1265.28 25.3456 Q1265.16 25.2839 1264.6 25.2839 Q1261.11 25.2839 1259.1 28.7732 Q1257.13 32.2317 1257.13 37.1724 L1257.13 46.8993 Q1257.13 48.7212 1257.87 49.3079 Q1258.64 49.8946 1261.94 49.8946 L1263.27 49.8946 L1263.27 51.84 Q1260.74 51.6547 1255.24 51.6547 Q1254.47 51.6547 1253.27 51.6856 Q1252.06 51.7165 1250.49 51.7782 Q1248.91 51.84 1248.02 51.84 Z" fill="#000000" fill-rule="evenodd" fill-opacity="1" /><path clip-path="url(#clip230)" d="M 0 0 M1271.92 45.8186 Q1271.92 40.4456 1278.25 37.6047 Q1282.05 35.7828 1289.89 35.3196 L1289.89 33.0037 Q1289.89 29.082 1287.82 27.0131 Q1285.78 24.9133 1283.19 24.9133 Q1278.56 24.9133 1276.33 27.816 Q1278.22 27.8777 1278.9 28.835 Q1279.58 29.7614 1279.58 30.7186 Q1279.58 31.9847 1278.77 32.8184 Q1278 33.6213 1276.67 33.6213 Q1275.41 33.6213 1274.57 32.8493 Q1273.74 32.0464 1273.74 30.6569 Q1273.74 27.5689 1276.52 25.5309 Q1279.33 23.4929 1283.31 23.4929 Q1288.5 23.4929 1291.96 26.9822 Q1293.04 28.063 1293.56 29.4526 Q1294.12 30.8421 1294.18 31.7685 Q1294.24 32.664 1294.24 34.455 L1294.24 47.0846 Q1294.24 47.4552 1294.37 48.0727 Q1294.49 48.6903 1295.05 49.4932 Q1295.63 50.2652 1296.59 50.2652 Q1298.88 50.2652 1298.84 46.22 L1298.84 42.6689 L1300.45 42.6689 L1300.45 46.22 Q1300.45 49.5858 1298.66 50.9136 Q1296.9 52.2106 1295.26 52.2106 Q1293.16 52.2106 1291.83 50.6666 Q1290.51 49.1226 1290.32 47.0228 Q1289.36 49.4314 1287.17 51.0063 Q1285.01 52.5502 1282.05 52.5502 Q1279.76 52.5502 1277.6 51.9635 Q1275.47 51.4077 1273.68 49.8329 Q1271.92 48.2271 1271.92 45.8186 M1276.8 45.7568 Q1276.8 48.1036 1278.46 49.6167 Q1280.13 51.1298 1282.48 51.1298 Q1285.13 51.1298 1287.51 49.0918 Q1289.89 47.0228 1289.89 42.9777 L1289.89 36.6474 Q1282.88 36.8945 1279.82 39.7045 Q1276.8 42.4836 1276.8 45.7568 Z" fill="#000000" fill-rule="evenodd" fill-opacity="1" /><path clip-path="url(#clip230)" d="M 0 0 M1301.65 26.5499 L1301.65 25.1604 Q1304.56 25.0369 1306.47 22.9988 Q1308.42 20.9299 1309.07 18.3978 Q1309.74 15.8657 1309.81 12.9322 L1311.38 12.9322 L1311.38 24.5737 L1320.43 24.5737 L1320.43 26.5499 L1311.38 26.5499 L1311.38 44.1202 Q1311.38 50.9445 1315.64 50.9445 Q1317.46 50.9445 1318.67 49.0918 Q1319.87 47.2081 1319.87 43.8732 L1319.87 40.3838 L1321.45 40.3838 L1321.45 43.9967 Q1321.45 47.4243 1319.87 49.9872 Q1318.3 52.5502 1315.18 52.5502 Q1314.04 52.5502 1312.89 52.2414 Q1311.78 51.9635 1310.3 51.2224 Q1308.85 50.4504 1307.92 48.5977 Q1307.03 46.7141 1307.03 43.9967 L1307.03 26.5499 L1301.65 26.5499 Z" fill="#000000" fill-rule="evenodd" fill-opacity="1" /><path clip-path="url(#clip230)" d="M 0 0 M1323.49 26.5499 L1323.49 24.5737 L1332.78 23.8943 L1332.78 44.8922 Q1332.78 46.4053 1332.9 47.3008 Q1333.03 48.1654 1333.52 49.1844 Q1334.05 50.2034 1335.22 50.6666 Q1336.42 51.1298 1338.34 51.1298 Q1341.77 51.1298 1343.87 48.3198 Q1346 45.5098 1346 41.3411 L1346 30.0702 Q1346 27.7233 1345.16 27.1366 Q1344.33 26.5499 1341.06 26.5499 L1341.06 24.5737 L1350.35 23.8943 L1350.35 46.3435 Q1350.35 48.6903 1351.15 49.3079 Q1351.99 49.8946 1355.29 49.8946 L1355.29 51.84 L1346.18 52.5502 L1346.18 46.8376 Q1343.53 52.5193 1338.03 52.5502 Q1335.25 52.5502 1333.34 51.84 Q1331.45 51.1298 1330.5 50.2652 Q1329.54 49.3697 1329.01 47.6713 Q1328.52 45.973 1328.46 44.9231 Q1328.4 43.8732 1328.4 41.8351 L1328.4 32.3552 Q1328.4 28.063 1327.78 27.3219 Q1327.16 26.5499 1323.49 26.5499 Z" fill="#000000" fill-rule="evenodd" fill-opacity="1" /><path clip-path="url(#clip230)" d="M 0 0 M1357.05 51.84 L1357.05 49.8946 Q1360.42 49.8946 1361.19 49.4932 Q1361.99 49.0609 1361.99 47.0228 L1361.99 30.0702 Q1361.99 27.7233 1361.16 27.1366 Q1360.36 26.5499 1357.05 26.5499 L1357.05 24.5737 L1365.85 23.8943 L1365.85 30.8421 Q1366.75 28.1248 1368.63 26.025 Q1370.55 23.8943 1373.63 23.8943 Q1375.67 23.8943 1376.97 25.0369 Q1378.3 26.1794 1378.3 27.7542 Q1378.3 29.1438 1377.43 29.854 Q1376.6 30.5334 1375.58 30.5334 Q1374.44 30.5334 1373.63 29.8231 Q1372.86 29.082 1372.86 27.816 Q1372.86 27.044 1373.2 26.4573 Q1373.57 25.8397 1373.85 25.6236 Q1374.13 25.4074 1374.31 25.3456 Q1374.19 25.2839 1373.63 25.2839 Q1370.14 25.2839 1368.14 28.7732 Q1366.16 32.2317 1366.16 37.1724 L1366.16 46.8993 Q1366.16 48.7212 1366.9 49.3079 Q1367.67 49.8946 1370.98 49.8946 L1372.31 49.8946 L1372.31 51.84 Q1369.77 51.6547 1364.28 51.6547 Q1363.51 51.6547 1362.3 51.6856 Q1361.1 51.7165 1359.52 51.7782 Q1357.95 51.84 1357.05 51.84 Z" fill="#000000" fill-rule="evenodd" fill-opacity="1" /><path clip-path="url(#clip230)" d="M 0 0 M1380.06 37.9135 Q1380.06 31.9538 1383.89 27.7233 Q1387.71 23.4929 1393.21 23.4929 Q1398.77 23.4929 1401.64 27.1058 Q1404.54 30.7186 1404.54 35.9063 Q1404.54 36.8636 1404.3 37.0489 Q1404.05 37.2341 1402.97 37.2341 L1385.31 37.2341 Q1385.31 43.6879 1387.22 46.7141 Q1389.88 50.9445 1394.35 50.9445 Q1394.97 50.9445 1395.71 50.821 Q1396.45 50.6975 1397.97 50.1725 Q1399.48 49.6167 1400.81 48.1654 Q1402.14 46.7141 1402.91 44.429 Q1403.09 43.5335 1403.71 43.5644 Q1404.54 43.5644 1404.54 44.3055 Q1404.54 44.8613 1403.93 46.1273 Q1403.34 47.3625 1402.2 48.8447 Q1401.05 50.3269 1398.83 51.4386 Q1396.64 52.5502 1393.98 52.5502 Q1388.42 52.5502 1384.23 48.3507 Q1380.06 44.1202 1380.06 37.9135 M1385.37 35.9063 L1400.38 35.9063 Q1400.38 34.5785 1400.13 33.0963 Q1399.91 31.6141 1399.23 29.5761 Q1398.58 27.5072 1397.04 26.2103 Q1395.5 24.9133 1393.21 24.9133 Q1392.19 24.9133 1391.08 25.3456 Q1390 25.778 1388.67 26.8278 Q1387.34 27.8777 1386.42 30.2554 Q1385.49 32.6331 1385.37 35.9063 Z" fill="#000000" fill-rule="evenodd" fill-opacity="1" /><path clip-path="url(#clip230)" d="M 0 0 M1426.78 26.5499 L1426.78 24.5737 Q1429.62 24.7589 1432.92 24.7589 Q1434.13 24.7589 1439.81 24.5737 L1439.81 26.5499 Q1436.19 26.5499 1436.19 28.1865 Q1436.19 28.4336 1436.57 29.2673 L1443.67 46.8993 L1450.12 30.7804 Q1450.49 29.6996 1450.49 29.2673 Q1450.49 28.1865 1449.75 27.4146 Q1449.04 26.6117 1447.47 26.5499 L1447.47 24.5737 Q1450.68 24.7589 1452.96 24.7589 Q1455.56 24.7589 1457.69 24.5737 L1457.69 26.5499 Q1455.8 26.5499 1454.48 27.4146 Q1453.15 28.2483 1452.72 28.9894 Q1452.31 29.6996 1451.88 30.7804 L1443.61 51.3459 Q1443.11 52.5502 1442.28 52.5502 Q1441.72 52.5502 1441.48 52.3032 Q1441.26 52.087 1440.95 51.3459 L1431.84 28.8968 Q1431.22 27.3219 1430.42 26.9514 Q1429.62 26.5499 1426.78 26.5499 Z" fill="#000000" fill-rule="evenodd" fill-opacity="1" /><path clip-path="url(#clip230)" d="M 0 0 M1458.58 45.8186 Q1458.58 40.4456 1464.91 37.6047 Q1468.71 35.7828 1476.55 35.3196 L1476.55 33.0037 Q1476.55 29.082 1474.49 27.0131 Q1472.45 24.9133 1469.85 24.9133 Q1465.22 24.9133 1463 27.816 Q1464.88 27.8777 1465.56 28.835 Q1466.24 29.7614 1466.24 30.7186 Q1466.24 31.9847 1465.44 32.8184 Q1464.67 33.6213 1463.34 33.6213 Q1462.07 33.6213 1461.24 32.8493 Q1460.4 32.0464 1460.4 30.6569 Q1460.4 27.5689 1463.18 25.5309 Q1465.99 23.4929 1469.98 23.4929 Q1475.16 23.4929 1478.62 26.9822 Q1479.7 28.063 1480.23 29.4526 Q1480.78 30.8421 1480.85 31.7685 Q1480.91 32.664 1480.91 34.455 L1480.91 47.0846 Q1480.91 47.4552 1481.03 48.0727 Q1481.16 48.6903 1481.71 49.4932 Q1482.3 50.2652 1483.25 50.2652 Q1485.54 50.2652 1485.51 46.22 L1485.51 42.6689 L1487.11 42.6689 L1487.11 46.22 Q1487.11 49.5858 1485.32 50.9136 Q1483.56 52.2106 1481.93 52.2106 Q1479.83 52.2106 1478.5 50.6666 Q1477.17 49.1226 1476.99 47.0228 Q1476.03 49.4314 1473.84 51.0063 Q1471.68 52.5502 1468.71 52.5502 Q1466.43 52.5502 1464.26 51.9635 Q1462.13 51.4077 1460.34 49.8329 Q1458.58 48.2271 1458.58 45.8186 M1463.46 45.7568 Q1463.46 48.1036 1465.13 49.6167 Q1466.8 51.1298 1469.14 51.1298 Q1471.8 51.1298 1474.18 49.0918 Q1476.55 47.0228 1476.55 42.9777 L1476.55 36.6474 Q1469.54 36.8945 1466.49 39.7045 Q1463.46 42.4836 1463.46 45.7568 Z" fill="#000000" fill-rule="evenodd" fill-opacity="1" /><path clip-path="url(#clip230)" d="M 0 0 M1488.87 51.84 L1488.87 49.8946 Q1492.24 49.8946 1493.01 49.4932 Q1493.82 49.0609 1493.82 47.0228 L1493.82 30.0702 Q1493.82 27.7233 1492.98 27.1366 Q1492.18 26.5499 1488.87 26.5499 L1488.87 24.5737 L1497.68 23.8943 L1497.68 30.8421 Q1498.57 28.1248 1500.45 26.025 Q1502.37 23.8943 1505.46 23.8943 Q1507.5 23.8943 1508.79 25.0369 Q1510.12 26.1794 1510.12 27.7542 Q1510.12 29.1438 1509.26 29.854 Q1508.42 30.5334 1507.4 30.5334 Q1506.26 30.5334 1505.46 29.8231 Q1504.69 29.082 1504.69 27.816 Q1504.69 27.044 1505.02 26.4573 Q1505.4 25.8397 1505.67 25.6236 Q1505.95 25.4074 1506.14 25.3456 Q1506.01 25.2839 1505.46 25.2839 Q1501.97 25.2839 1499.96 28.7732 Q1497.98 32.2317 1497.98 37.1724 L1497.98 46.8993 Q1497.98 48.7212 1498.73 49.3079 Q1499.5 49.8946 1502.8 49.8946 L1504.13 49.8946 L1504.13 51.84 Q1501.6 51.6547 1496.1 51.6547 Q1495.33 51.6547 1494.12 51.6856 Q1492.92 51.7165 1491.35 51.7782 Q1489.77 51.84 1488.87 51.84 Z" fill="#000000" fill-rule="evenodd" fill-opacity="1" /><path clip-path="url(#clip230)" d="M 0 0 M1512.22 51.84 L1512.22 49.8946 Q1515.59 49.8946 1516.36 49.4932 Q1517.13 49.0609 1517.13 47.0228 L1517.13 30.0084 Q1517.13 27.6616 1516.33 27.1058 Q1515.55 26.5499 1512.47 26.5499 L1512.47 24.5737 L1521.3 23.8943 L1521.3 47.0846 Q1521.3 48.9682 1521.98 49.4314 Q1522.66 49.8946 1525.74 49.8946 L1525.74 51.84 Q1519.29 51.6547 1519.17 51.6547 Q1518.3 51.6547 1512.22 51.84 M1514.88 12.8705 Q1514.88 11.6044 1515.83 10.5854 Q1516.82 9.5355 1518.21 9.5355 Q1519.6 9.5355 1520.59 10.4928 Q1521.58 11.4191 1521.58 12.9013 Q1521.58 14.3527 1520.59 15.3099 Q1519.6 16.2363 1518.21 16.2363 Q1516.76 16.2363 1515.8 15.2173 Q1514.88 14.1983 1514.88 12.8705 Z" fill="#000000" fill-rule="evenodd" fill-opacity="1" /><path clip-path="url(#clip230)" d="M 0 0 M1528.4 45.8186 Q1528.4 40.4456 1534.73 37.6047 Q1538.53 35.7828 1546.37 35.3196 L1546.37 33.0037 Q1546.37 29.082 1544.3 27.0131 Q1542.27 24.9133 1539.67 24.9133 Q1535.04 24.9133 1532.82 27.816 Q1534.7 27.8777 1535.38 28.835 Q1536.06 29.7614 1536.06 30.7186 Q1536.06 31.9847 1535.26 32.8184 Q1534.48 33.6213 1533.16 33.6213 Q1531.89 33.6213 1531.06 32.8493 Q1530.22 32.0464 1530.22 30.6569 Q1530.22 27.5689 1533 25.5309 Q1535.81 23.4929 1539.79 23.4929 Q1544.98 23.4929 1548.44 26.9822 Q1549.52 28.063 1550.05 29.4526 Q1550.6 30.8421 1550.66 31.7685 Q1550.73 32.664 1550.73 34.455 L1550.73 47.0846 Q1550.73 47.4552 1550.85 48.0727 Q1550.97 48.6903 1551.53 49.4932 Q1552.12 50.2652 1553.07 50.2652 Q1555.36 50.2652 1555.33 46.22 L1555.33 42.6689 L1556.93 42.6689 L1556.93 46.22 Q1556.93 49.5858 1555.14 50.9136 Q1553.38 52.2106 1551.74 52.2106 Q1549.65 52.2106 1548.32 50.6666 Q1546.99 49.1226 1546.8 47.0228 Q1545.85 49.4314 1543.65 51.0063 Q1541.49 52.5502 1538.53 52.5502 Q1536.24 52.5502 1534.08 51.9635 Q1531.95 51.4077 1530.16 49.8329 Q1528.4 48.2271 1528.4 45.8186 M1533.28 45.7568 Q1533.28 48.1036 1534.95 49.6167 Q1536.61 51.1298 1538.96 51.1298 Q1541.62 51.1298 1543.99 49.0918 Q1546.37 47.0228 1546.37 42.9777 L1546.37 36.6474 Q1539.36 36.8945 1536.31 39.7045 Q1533.28 42.4836 1533.28 45.7568 Z" fill="#000000" fill-rule="evenodd" fill-opacity="1" /><path clip-path="url(#clip230)" d="M 0 0 M1558.14 26.5499 L1558.14 25.1604 Q1561.04 25.0369 1562.95 22.9988 Q1564.9 20.9299 1565.55 18.3978 Q1566.23 15.8657 1566.29 12.9322 L1567.86 12.9322 L1567.86 24.5737 L1576.91 24.5737 L1576.91 26.5499 L1567.86 26.5499 L1567.86 44.1202 Q1567.86 50.9445 1572.13 50.9445 Q1573.95 50.9445 1575.15 49.0918 Q1576.36 47.2081 1576.36 43.8732 L1576.36 40.3838 L1577.93 40.3838 L1577.93 43.9967 Q1577.93 47.4243 1576.36 49.9872 Q1574.78 52.5502 1571.66 52.5502 Q1570.52 52.5502 1569.38 52.2414 Q1568.27 51.9635 1566.78 51.2224 Q1565.33 50.4504 1564.41 48.5977 Q1563.51 46.7141 1563.51 43.9967 L1563.51 26.5499 L1558.14 26.5499 Z" fill="#000000" fill-rule="evenodd" fill-opacity="1" /><path clip-path="url(#clip230)" d="M 0 0 M1580.03 51.84 L1580.03 49.8946 Q1583.4 49.8946 1584.17 49.4932 Q1584.94 49.0609 1584.94 47.0228 L1584.94 30.0084 Q1584.94 27.6616 1584.14 27.1058 Q1583.37 26.5499 1580.28 26.5499 L1580.28 24.5737 L1589.11 23.8943 L1589.11 47.0846 Q1589.11 48.9682 1589.79 49.4314 Q1590.47 49.8946 1593.56 49.8946 L1593.56 51.84 Q1587.1 51.6547 1586.98 51.6547 Q1586.11 51.6547 1580.03 51.84 M1582.69 12.8705 Q1582.69 11.6044 1583.64 10.5854 Q1584.63 9.5355 1586.02 9.5355 Q1587.41 9.5355 1588.4 10.4928 Q1589.39 11.4191 1589.39 12.9013 Q1589.39 14.3527 1588.4 15.3099 Q1587.41 16.2363 1586.02 16.2363 Q1584.57 16.2363 1583.61 15.2173 Q1582.69 14.1983 1582.69 12.8705 Z" fill="#000000" fill-rule="evenodd" fill-opacity="1" /><path clip-path="url(#clip230)" d="M 0 0 M1599.48 48.4433 Q1595.32 44.3055 1595.32 38.3149 Q1595.32 32.2935 1599.39 27.9086 Q1603.5 23.4929 1609.37 23.4929 Q1615.11 23.4929 1619.22 27.8777 Q1623.35 32.2317 1623.35 38.3149 Q1623.35 44.2746 1619.19 48.4124 Q1615.05 52.5502 1609.3 52.5502 Q1603.68 52.5502 1599.48 48.4433 M1600.56 37.79 Q1600.56 43.9349 1602.17 46.7141 Q1604.64 50.9445 1609.37 50.9445 Q1611.71 50.9445 1613.66 49.6785 Q1615.63 48.4124 1616.71 46.2817 Q1618.1 43.5026 1618.1 37.79 Q1618.1 31.7068 1616.44 29.0203 Q1613.97 24.9133 1609.3 24.9133 Q1607.27 24.9133 1605.26 25.9941 Q1603.28 27.044 1602.08 29.1438 Q1600.56 31.9229 1600.56 37.79 Z" fill="#000000" fill-rule="evenodd" fill-opacity="1" /><path clip-path="url(#clip230)" d="M 0 0 M1625.39 51.84 L1625.39 49.8946 Q1628.76 49.8946 1629.53 49.4932 Q1630.3 49.0609 1630.3 47.0228 L1630.3 30.0702 Q1630.3 27.7233 1629.47 27.1366 Q1628.67 26.5499 1625.39 26.5499 L1625.39 24.5737 L1634.29 23.8943 L1634.29 30.5334 Q1637.25 23.8943 1643.64 23.8943 Q1648.4 23.8943 1650.28 26.2411 Q1651.67 27.816 1651.95 29.5761 Q1652.26 31.3362 1652.26 35.9063 L1652.26 47.9801 Q1652.32 49.3079 1653.34 49.6167 Q1654.36 49.8946 1657.2 49.8946 L1657.2 51.84 Q1650.74 51.6547 1650.1 51.6547 Q1649.6 51.6547 1642.96 51.84 L1642.96 49.8946 Q1646.33 49.8946 1647.1 49.4932 Q1647.9 49.0609 1647.9 47.0228 L1647.9 32.2935 Q1647.9 29.082 1646.91 27.1984 Q1645.93 25.2839 1643.21 25.2839 Q1639.94 25.2839 1637.31 28.0321 Q1634.69 30.7804 1634.69 35.4123 L1634.69 47.0228 Q1634.69 49.0609 1635.46 49.4932 Q1636.26 49.8946 1639.6 49.8946 L1639.6 51.84 Q1633.14 51.6547 1632.52 51.6547 Q1632.03 51.6547 1625.39 51.84 Z" fill="#000000" fill-rule="evenodd" fill-opacity="1" /><polyline clip-path="url(#clip232)" style="stroke:#4477aa; stroke-width:4.8; stroke-opacity:1; fill:none" points="
  270.562,1373.31 290.304,1371.03 472.848,1349.05 582.549,1332.24 675.3,1315.35 776.054,1294.11 868.94,1271.82 968.523,1245.02 1083.9,1210.18 1186.43,1175.8 
  1276.35,1143 1374.38,1104.41 1472.99,1062.62 1582.02,1012.94 1685.75,962.284 1793.62,906.105 1884.41,856.043 1995.27,791.488 2099.47,727.361 2266.42,617.669 
  2292.11,600.027 
  "/>
<polyline clip-path="url(#clip232)" style="stroke:#ee6677; stroke-width:4.8; stroke-opacity:1; fill:none" points="
  270.562,1373.31 290.304,1369.89 472.848,1335.67 582.549,1309.03 675.3,1282.2 776.054,1248.42 868.94,1212.95 968.523,1170.28 1083.9,1114.81 1186.43,1060.07 
  1276.35,1007.84 1374.38,946.389 1472.99,879.836 1582.02,800.718 1685.75,720.039 1793.62,630.568 1884.41,550.838 1995.27,448.027 2099.47,345.896 2266.42,171.196 
  2292.11,143.099 
  "/>
<path clip-path="url(#clip230)" d="
M1785.78 421.82 L2281.33 421.82 L2281.33 149.66 L1785.78 149.66  Z
  " fill="#ffffff" fill-rule="evenodd" fill-opacity="0.9"/>
<polyline clip-path="url(#clip230)" style="stroke:#222255; stroke-width:4; stroke-opacity:0.1; fill:none" points="
  1785.78,421.82 2281.33,421.82 2281.33,149.66 1785.78,149.66 1785.78,421.82 
  "/>
<polyline clip-path="url(#clip230)" style="stroke:#4477aa; stroke-width:6; stroke-opacity:1; fill:none" points="
  1809.59,240.38 1952.44,240.38 
  "/>
<path clip-path="url(#clip230)" d="M 0 0 M1976.25 239.879 Q1976.25 238.657 1976.66 237.212 Q1977.1 235.729 1978.47 234.284 Q1979.85 232.839 1981.88 232.839 Q1985.81 232.839 1988.89 238.36 Q1991.96 243.844 1995.3 256.147 Q1996.82 250.774 1999.11 244.993 Q2000.04 242.733 2000.71 241.325 Q2001.37 239.879 2002.78 237.582 Q2004.19 235.248 2005.93 234.062 Q2007.67 232.839 2009.71 232.839 Q2011.3 232.839 2012.19 233.802 Q2013.08 234.729 2013.08 235.952 Q2013.08 237.767 2011.56 238.694 Q2011.05 238.99 2009.79 239.175 Q2008.53 239.361 2007.49 239.657 Q2006.45 239.954 2004.86 241.695 Q2003.26 243.4 2001.74 246.586 Q1999.85 250.514 1998.19 255.331 Q1996.52 260.149 1996.52 261.297 Q1996.52 261.816 1996.89 263.965 Q1997.3 266.077 1997.67 269.783 Q1998.04 273.525 1998.04 277.75 Q1998.04 278.676 1997.97 279.121 Q1997.82 280.121 1997.04 280.751 Q1996.3 281.418 1995.22 281.418 Q1992.33 281.418 1992.33 277.676 L1992.33 277.305 Q1992.33 274.044 1992.74 270.153 Q1993.18 266.3 1993.63 263.706 L1994.04 261.223 Q1994.04 259.63 1991.63 252.775 Q1989.26 245.882 1987.26 242.918 Q1984.81 239.212 1981.51 239.212 Q1979.99 239.212 1979.25 239.546 Q1978.55 239.879 1978.18 240.435 Q1977.84 240.954 1977.7 241.028 Q1977.25 241.325 1976.73 240.991 Q1976.25 240.621 1976.25 239.879 Z" fill="#000000" fill-rule="evenodd" fill-opacity="1" /><path clip-path="url(#clip230)" d="M 0 0 M2042.65 254.776 Q2042.73 253.849 2044.17 253.849 L2090.68 253.849 Q2092.86 253.849 2092.9 254.701 Q2092.9 255.628 2090.82 255.591 L2044.69 255.591 Q2042.65 255.628 2042.65 254.776 M2042.65 239.954 Q2042.65 239.027 2044.25 239.064 L2090.6 239.064 Q2092.86 239.064 2092.9 239.954 Q2092.9 240.806 2090.97 240.806 L2044.17 240.806 Q2042.65 240.806 2042.65 239.954 Z" fill="#000000" fill-rule="evenodd" fill-opacity="1" /><path clip-path="url(#clip230)" d="M 0 0 M2124.88 222.982 L2124.88 220.611 Q2133.99 220.611 2138.7 215.757 Q2140 215.757 2140.22 216.053 Q2140.44 216.35 2140.44 217.721 L2140.44 260.297 Q2140.44 262.557 2141.55 263.261 Q2142.66 263.965 2147.52 263.965 L2149.93 263.965 L2149.93 266.3 Q2147.26 266.077 2137.63 266.077 Q2127.99 266.077 2125.36 266.3 L2125.36 263.965 L2127.77 263.965 Q2132.55 263.965 2133.7 263.298 Q2134.85 262.594 2134.85 260.297 L2134.85 220.981 Q2130.88 222.982 2124.88 222.982 Z" fill="#000000" fill-rule="evenodd" fill-opacity="1" /><path clip-path="url(#clip230)" d="M 0 0 M2157.52 265.077 Q2156.38 263.854 2156.38 262.261 Q2156.38 260.667 2157.52 259.519 Q2158.67 258.333 2160.41 258.333 Q2162.08 258.333 2163.19 259.445 Q2164.34 260.519 2164.34 262.298 Q2164.34 264.039 2163.12 265.188 Q2161.93 266.3 2160.41 266.3 Q2158.67 266.3 2157.52 265.077 Z" fill="#000000" fill-rule="evenodd" fill-opacity="1" /><path clip-path="url(#clip230)" d="M 0 0 M2166.45 253.775 L2166.45 251.441 L2189.76 215.831 Q2190.35 214.904 2191.28 214.941 Q2192.13 214.941 2192.32 215.275 Q2192.5 215.608 2192.5 216.905 L2192.5 251.441 L2200.1 251.441 L2200.1 253.775 L2192.5 253.775 L2192.5 260.371 Q2192.5 262.557 2193.39 263.261 Q2194.32 263.965 2198.25 263.965 L2199.84 263.965 L2199.84 266.3 Q2196.73 266.077 2189.54 266.077 Q2182.39 266.077 2179.28 266.3 L2179.28 263.965 L2180.87 263.965 Q2184.8 263.965 2185.72 263.298 Q2186.65 262.594 2186.65 260.371 L2186.65 253.775 L2166.45 253.775 M2168.6 251.441 L2187.09 251.441 L2187.09 223.131 L2168.6 251.441 Z" fill="#000000" fill-rule="evenodd" fill-opacity="1" /><polyline clip-path="url(#clip230)" style="stroke:#ee6677; stroke-width:6; stroke-opacity:1; fill:none" points="
  1809.59,331.1 1952.44,331.1 
  "/>
<path clip-path="url(#clip230)" d="M 0 0 M1976.25 330.599 Q1976.25 329.377 1976.66 327.932 Q1977.1 326.449 1978.47 325.004 Q1979.85 323.559 1981.88 323.559 Q1985.81 323.559 1988.89 329.08 Q1991.96 334.564 1995.3 346.867 Q1996.82 341.494 1999.11 335.713 Q2000.04 333.453 2000.71 332.045 Q2001.37 330.599 2002.78 328.302 Q2004.19 325.968 2005.93 324.782 Q2007.67 323.559 2009.71 323.559 Q2011.3 323.559 2012.19 324.522 Q2013.08 325.449 2013.08 326.672 Q2013.08 328.487 2011.56 329.414 Q2011.05 329.71 2009.79 329.895 Q2008.53 330.081 2007.49 330.377 Q2006.45 330.674 2004.86 332.415 Q2003.26 334.12 2001.74 337.306 Q1999.85 341.234 1998.19 346.051 Q1996.52 350.869 1996.52 352.017 Q1996.52 352.536 1996.89 354.685 Q1997.3 356.797 1997.67 360.503 Q1998.04 364.245 1998.04 368.47 Q1998.04 369.396 1997.97 369.841 Q1997.82 370.841 1997.04 371.471 Q1996.3 372.138 1995.22 372.138 Q1992.33 372.138 1992.33 368.396 L1992.33 368.025 Q1992.33 364.764 1992.74 360.873 Q1993.18 357.02 1993.63 354.426 L1994.04 351.943 Q1994.04 350.35 1991.63 343.495 Q1989.26 336.602 1987.26 333.638 Q1984.81 329.932 1981.51 329.932 Q1979.99 329.932 1979.25 330.266 Q1978.55 330.599 1978.18 331.155 Q1977.84 331.674 1977.7 331.748 Q1977.25 332.045 1976.73 331.711 Q1976.25 331.341 1976.25 330.599 Z" fill="#000000" fill-rule="evenodd" fill-opacity="1" /><path clip-path="url(#clip230)" d="M 0 0 M2042.65 345.496 Q2042.73 344.569 2044.17 344.569 L2090.68 344.569 Q2092.86 344.569 2092.9 345.421 Q2092.9 346.348 2090.82 346.311 L2044.69 346.311 Q2042.65 346.348 2042.65 345.496 M2042.65 330.674 Q2042.65 329.747 2044.25 329.784 L2090.6 329.784 Q2092.86 329.784 2092.9 330.674 Q2092.9 331.526 2090.97 331.526 L2044.17 331.526 Q2042.65 331.526 2042.65 330.674 Z" fill="#000000" fill-rule="evenodd" fill-opacity="1" /><path clip-path="url(#clip230)" d="M 0 0 M2124.88 313.702 L2124.88 311.331 Q2133.99 311.331 2138.7 306.477 Q2140 306.477 2140.22 306.773 Q2140.44 307.07 2140.44 308.441 L2140.44 351.017 Q2140.44 353.277 2141.55 353.981 Q2142.66 354.685 2147.52 354.685 L2149.93 354.685 L2149.93 357.02 Q2147.26 356.797 2137.63 356.797 Q2127.99 356.797 2125.36 357.02 L2125.36 354.685 L2127.77 354.685 Q2132.55 354.685 2133.7 354.018 Q2134.85 353.314 2134.85 351.017 L2134.85 311.701 Q2130.88 313.702 2124.88 313.702 Z" fill="#000000" fill-rule="evenodd" fill-opacity="1" /><path clip-path="url(#clip230)" d="M 0 0 M2157.52 355.797 Q2156.38 354.574 2156.38 352.981 Q2156.38 351.387 2157.52 350.239 Q2158.67 349.053 2160.41 349.053 Q2162.08 349.053 2163.19 350.165 Q2164.34 351.239 2164.34 353.018 Q2164.34 354.759 2163.12 355.908 Q2161.93 357.02 2160.41 357.02 Q2158.67 357.02 2157.52 355.797 Z" fill="#000000" fill-rule="evenodd" fill-opacity="1" /><path clip-path="url(#clip230)" d="M 0 0 M2167.53 333.045 Q2167.53 321.113 2173.61 313.814 Q2179.68 306.477 2187.5 306.477 Q2192.06 306.477 2194.58 308.811 Q2197.14 311.109 2197.14 314.666 Q2197.14 316.63 2195.99 317.482 Q2194.84 318.334 2193.65 318.334 Q2192.28 318.334 2191.21 317.408 Q2190.13 316.482 2190.13 314.814 Q2190.13 311.405 2194.32 311.405 Q2192.36 308.366 2187.65 308.366 Q2186.2 308.366 2184.72 308.811 Q2183.24 309.219 2181.31 310.627 Q2179.39 312.035 2177.9 314.258 Q2176.42 316.482 2175.38 320.669 Q2174.35 324.856 2174.35 330.303 L2174.35 332.119 Q2177.46 324.597 2183.83 324.634 Q2190.21 324.634 2194.62 329.488 Q2199.03 334.342 2199.03 341.531 Q2199.03 348.905 2194.43 353.796 Q2189.84 358.687 2183.39 358.687 Q2180.5 358.687 2177.87 357.464 Q2175.27 356.279 2172.83 353.537 Q2170.42 350.794 2168.97 345.533 Q2167.53 340.271 2167.53 333.045 M2174.5 339.863 Q2174.5 347.311 2175.87 350.869 Q2176.09 351.461 2176.57 352.277 Q2177.09 353.092 2177.94 354.166 Q2178.83 355.204 2180.28 355.908 Q2181.72 356.575 2183.39 356.575 Q2188.47 356.575 2190.91 351.647 Q2192.21 348.905 2192.21 341.457 Q2192.21 333.86 2190.84 331.081 Q2188.5 326.375 2183.76 326.375 Q2180.57 326.375 2178.35 328.561 Q2176.16 330.748 2175.31 333.675 Q2174.5 336.602 2174.5 339.863 Z" fill="#000000" fill-rule="evenodd" fill-opacity="1" /><path clip-path="url(#clip230)" d="M 0 0 M2202.21 333.045 Q2202.21 321.113 2208.29 313.814 Q2214.37 306.477 2222.19 306.477 Q2226.74 306.477 2229.26 308.811 Q2231.82 311.109 2231.82 314.666 Q2231.82 316.63 2230.67 317.482 Q2229.52 318.334 2228.34 318.334 Q2226.97 318.334 2225.89 317.408 Q2224.82 316.482 2224.82 314.814 Q2224.82 311.405 2229 311.405 Q2227.04 308.366 2222.33 308.366 Q2220.89 308.366 2219.41 308.811 Q2217.92 309.219 2216 310.627 Q2214.07 312.035 2212.59 314.258 Q2211.11 316.482 2210.07 320.669 Q2209.03 324.856 2209.03 330.303 L2209.03 332.119 Q2212.14 324.597 2218.52 324.634 Q2224.89 324.634 2229.3 329.488 Q2233.71 334.342 2233.71 341.531 Q2233.71 348.905 2229.11 353.796 Q2224.52 358.687 2218.07 358.687 Q2215.18 358.687 2212.55 357.464 Q2209.96 356.279 2207.51 353.537 Q2205.1 350.794 2203.66 345.533 Q2202.21 340.271 2202.21 333.045 M2209.18 339.863 Q2209.18 347.311 2210.55 350.869 Q2210.77 351.461 2211.25 352.277 Q2211.77 353.092 2212.62 354.166 Q2213.51 355.204 2214.96 355.908 Q2216.4 356.575 2218.07 356.575 Q2223.15 356.575 2225.59 351.647 Q2226.89 348.905 2226.89 341.457 Q2226.89 333.86 2225.52 331.081 Q2223.19 326.375 2218.44 326.375 Q2215.26 326.375 2213.03 328.561 Q2210.85 330.748 2209.99 333.675 Q2209.18 336.602 2209.18 339.863 Z" fill="#000000" fill-rule="evenodd" fill-opacity="1" /></svg>
