<?xml version="1.0" encoding="utf-8"?>
<svg xmlns="http://www.w3.org/2000/svg" xmlns:xlink="http://www.w3.org/1999/xlink" width="600" height="400" viewBox="0 0 2400 1600">
<defs>
  <clipPath id="clip950">
    <rect x="0" y="0" width="2400" height="1600"/>
  </clipPath>
</defs>
<path clip-path="url(#clip950)" d="
M0 1600 L2400 1600 L2400 0 L0 0  Z
  " fill="#ffffff" fill-rule="evenodd" fill-opacity="1"/>
<defs>
  <clipPath id="clip951">
    <rect x="480" y="0" width="1681" height="1600"/>
  </clipPath>
</defs>
<path clip-path="url(#clip950)" d="
M233.631 1410.22 L2352.76 1410.22 L2352.76 106.192 L233.631 106.192  Z
  " fill="#ffffff" fill-rule="evenodd" fill-opacity="1"/>
<defs>
  <clipPath id="clip952">
    <rect x="233" y="106" width="2120" height="1305"/>
  </clipPath>
</defs>
<polyline clip-path="url(#clip952)" style="stroke:#222255; stroke-width:4; stroke-opacity:0.1; fill:none" stroke-dasharray="16, 10" points="
  515.737,1410.22 515.737,106.192 
  "/>
<polyline clip-path="url(#clip952)" style="stroke:#222255; stroke-width:4; stroke-opacity:0.1; fill:none" stroke-dasharray="16, 10" points="
  959.998,1410.22 959.998,106.192 
  "/>
<polyline clip-path="url(#clip952)" style="stroke:#222255; stroke-width:4; stroke-opacity:0.1; fill:none" stroke-dasharray="16, 10" points="
  1404.26,1410.22 1404.26,106.192 
  "/>
<polyline clip-path="url(#clip952)" style="stroke:#222255; stroke-width:4; stroke-opacity:0.1; fill:none" stroke-dasharray="16, 10" points="
  1848.52,1410.22 1848.52,106.192 
  "/>
<polyline clip-path="url(#clip952)" style="stroke:#222255; stroke-width:4; stroke-opacity:0.1; fill:none" stroke-dasharray="16, 10" points="
  2292.78,1410.22 2292.78,106.192 
  "/>
<polyline clip-path="url(#clip952)" style="stroke:#222255; stroke-width:2; stroke-opacity:0.05; fill:none" points="
  249.18,1410.22 249.18,106.192 
  "/>
<polyline clip-path="url(#clip952)" style="stroke:#222255; stroke-width:2; stroke-opacity:0.05; fill:none" points="
  338.032,1410.22 338.032,106.192 
  "/>
<polyline clip-path="url(#clip952)" style="stroke:#222255; stroke-width:2; stroke-opacity:0.05; fill:none" points="
  426.884,1410.22 426.884,106.192 
  "/>
<polyline clip-path="url(#clip952)" style="stroke:#222255; stroke-width:2; stroke-opacity:0.05; fill:none" points="
  604.589,1410.22 604.589,106.192 
  "/>
<polyline clip-path="url(#clip952)" style="stroke:#222255; stroke-width:2; stroke-opacity:0.05; fill:none" points="
  693.441,1410.22 693.441,106.192 
  "/>
<polyline clip-path="url(#clip952)" style="stroke:#222255; stroke-width:2; stroke-opacity:0.05; fill:none" points="
  782.293,1410.22 782.293,106.192 
  "/>
<polyline clip-path="url(#clip952)" style="stroke:#222255; stroke-width:2; stroke-opacity:0.05; fill:none" points="
  871.145,1410.22 871.145,106.192 
  "/>
<polyline clip-path="url(#clip952)" style="stroke:#222255; stroke-width:2; stroke-opacity:0.05; fill:none" points="
  1048.85,1410.22 1048.85,106.192 
  "/>
<polyline clip-path="url(#clip952)" style="stroke:#222255; stroke-width:2; stroke-opacity:0.05; fill:none" points="
  1137.7,1410.22 1137.7,106.192 
  "/>
<polyline clip-path="url(#clip952)" style="stroke:#222255; stroke-width:2; stroke-opacity:0.05; fill:none" points="
  1226.55,1410.22 1226.55,106.192 
  "/>
<polyline clip-path="url(#clip952)" style="stroke:#222255; stroke-width:2; stroke-opacity:0.05; fill:none" points="
  1315.41,1410.22 1315.41,106.192 
  "/>
<polyline clip-path="url(#clip952)" style="stroke:#222255; stroke-width:2; stroke-opacity:0.05; fill:none" points="
  1493.11,1410.22 1493.11,106.192 
  "/>
<polyline clip-path="url(#clip952)" style="stroke:#222255; stroke-width:2; stroke-opacity:0.05; fill:none" points="
  1581.96,1410.22 1581.96,106.192 
  "/>
<polyline clip-path="url(#clip952)" style="stroke:#222255; stroke-width:2; stroke-opacity:0.05; fill:none" points="
  1670.82,1410.22 1670.82,106.192 
  "/>
<polyline clip-path="url(#clip952)" style="stroke:#222255; stroke-width:2; stroke-opacity:0.05; fill:none" points="
  1759.67,1410.22 1759.67,106.192 
  "/>
<polyline clip-path="url(#clip952)" style="stroke:#222255; stroke-width:2; stroke-opacity:0.05; fill:none" points="
  1937.37,1410.22 1937.37,106.192 
  "/>
<polyline clip-path="url(#clip952)" style="stroke:#222255; stroke-width:2; stroke-opacity:0.05; fill:none" points="
  2026.22,1410.22 2026.22,106.192 
  "/>
<polyline clip-path="url(#clip952)" style="stroke:#222255; stroke-width:2; stroke-opacity:0.05; fill:none" points="
  2115.08,1410.22 2115.08,106.192 
  "/>
<polyline clip-path="url(#clip952)" style="stroke:#222255; stroke-width:2; stroke-opacity:0.05; fill:none" points="
  2203.93,1410.22 2203.93,106.192 
  "/>
<polyline clip-path="url(#clip950)" style="stroke:#000000; stroke-width:4; stroke-opacity:1; fill:none" points="
  233.631,1410.22 2352.76,1410.22 
  "/>
<polyline clip-path="url(#clip950)" style="stroke:#000000; stroke-width:4; stroke-opacity:1; fill:none" points="
  233.631,106.192 2352.76,106.192 
  "/>
<polyline clip-path="url(#clip950)" style="stroke:#000000; stroke-width:4; stroke-opacity:1; fill:none" points="
  515.737,1410.22 515.737,1394.57 
  "/>
<polyline clip-path="url(#clip950)" style="stroke:#000000; stroke-width:4; stroke-opacity:1; fill:none" points="
  959.998,1410.22 959.998,1394.57 
  "/>
<polyline clip-path="url(#clip950)" style="stroke:#000000; stroke-width:4; stroke-opacity:1; fill:none" points="
  1404.26,1410.22 1404.26,1394.57 
  "/>
<polyline clip-path="url(#clip950)" style="stroke:#000000; stroke-width:4; stroke-opacity:1; fill:none" points="
  1848.52,1410.22 1848.52,1394.57 
  "/>
<polyline clip-path="url(#clip950)" style="stroke:#000000; stroke-width:4; stroke-opacity:1; fill:none" points="
  2292.78,1410.22 2292.78,1394.57 
  "/>
<polyline clip-path="url(#clip950)" style="stroke:#000000; stroke-width:4; stroke-opacity:1; fill:none" points="
  249.18,1410.22 249.18,1402.4 
  "/>
<polyline clip-path="url(#clip950)" style="stroke:#000000; stroke-width:4; stroke-opacity:1; fill:none" points="
  338.032,1410.22 338.032,1402.4 
  "/>
<polyline clip-path="url(#clip950)" style="stroke:#000000; stroke-width:4; stroke-opacity:1; fill:none" points="
  426.884,1410.22 426.884,1402.4 
  "/>
<polyline clip-path="url(#clip950)" style="stroke:#000000; stroke-width:4; stroke-opacity:1; fill:none" points="
  604.589,1410.22 604.589,1402.4 
  "/>
<polyline clip-path="url(#clip950)" style="stroke:#000000; stroke-width:4; stroke-opacity:1; fill:none" points="
  693.441,1410.22 693.441,1402.4 
  "/>
<polyline clip-path="url(#clip950)" style="stroke:#000000; stroke-width:4; stroke-opacity:1; fill:none" points="
  782.293,1410.22 782.293,1402.4 
  "/>
<polyline clip-path="url(#clip950)" style="stroke:#000000; stroke-width:4; stroke-opacity:1; fill:none" points="
  871.145,1410.22 871.145,1402.4 
  "/>
<polyline clip-path="url(#clip950)" style="stroke:#000000; stroke-width:4; stroke-opacity:1; fill:none" points="
  1048.85,1410.22 1048.85,1402.4 
  "/>
<polyline clip-path="url(#clip950)" style="stroke:#000000; stroke-width:4; stroke-opacity:1; fill:none" points="
  1137.7,1410.22 1137.7,1402.4 
  "/>
<polyline clip-path="url(#clip950)" style="stroke:#000000; stroke-width:4; stroke-opacity:1; fill:none" points="
  1226.55,1410.22 1226.55,1402.4 
  "/>
<polyline clip-path="url(#clip950)" style="stroke:#000000; stroke-width:4; stroke-opacity:1; fill:none" points="
  1315.41,1410.22 1315.41,1402.4 
  "/>
<polyline clip-path="url(#clip950)" style="stroke:#000000; stroke-width:4; stroke-opacity:1; fill:none" points="
  1493.11,1410.22 1493.11,1402.4 
  "/>
<polyline clip-path="url(#clip950)" style="stroke:#000000; stroke-width:4; stroke-opacity:1; fill:none" points="
  1581.96,1410.22 1581.96,1402.4 
  "/>
<polyline clip-path="url(#clip950)" style="stroke:#000000; stroke-width:4; stroke-opacity:1; fill:none" points="
  1670.82,1410.22 1670.82,1402.4 
  "/>
<polyline clip-path="url(#clip950)" style="stroke:#000000; stroke-width:4; stroke-opacity:1; fill:none" points="
  1759.67,1410.22 1759.67,1402.4 
  "/>
<polyline clip-path="url(#clip950)" style="stroke:#000000; stroke-width:4; stroke-opacity:1; fill:none" points="
  1937.37,1410.22 1937.37,1402.4 
  "/>
<polyline clip-path="url(#clip950)" style="stroke:#000000; stroke-width:4; stroke-opacity:1; fill:none" points="
  2026.22,1410.22 2026.22,1402.4 
  "/>
<polyline clip-path="url(#clip950)" style="stroke:#000000; stroke-width:4; stroke-opacity:1; fill:none" points="
  2115.08,1410.22 2115.08,1402.4 
  "/>
<polyline clip-path="url(#clip950)" style="stroke:#000000; stroke-width:4; stroke-opacity:1; fill:none" points="
  2203.93,1410.22 2203.93,1402.4 
  "/>
<path clip-path="url(#clip950)" d="M 0 0 M503.107 1481.26 Q503.107 1480.12 503.2 1479.78 Q503.323 1479.44 503.817 1478.91 L515.953 1465.39 Q522.592 1457.92 522.592 1451.4 Q522.592 1447.17 520.369 1444.14 Q518.176 1441.12 514.131 1441.12 Q511.352 1441.12 509.005 1442.82 Q506.658 1444.51 505.577 1447.54 Q505.763 1447.48 506.411 1447.48 Q507.986 1447.48 508.851 1448.47 Q509.746 1449.45 509.746 1450.78 Q509.746 1452.48 508.634 1453.31 Q507.554 1454.12 506.473 1454.12 Q506.041 1454.12 505.454 1454.02 Q504.898 1453.93 504.003 1453.07 Q503.107 1452.17 503.107 1450.6 Q503.107 1446.18 506.442 1442.66 Q509.808 1439.14 514.934 1439.14 Q520.739 1439.14 524.537 1442.6 Q528.366 1446.03 528.366 1451.4 Q528.366 1453.28 527.78 1455.01 Q527.224 1456.71 526.452 1458.04 Q525.711 1459.37 523.673 1461.5 Q521.635 1463.63 519.998 1465.14 Q518.361 1466.65 514.687 1469.87 L507.986 1476.38 L519.38 1476.38 Q524.939 1476.38 525.371 1475.89 Q525.989 1474.99 526.761 1470.27 L528.366 1470.27 L526.575 1481.26 L503.107 1481.26 Z" fill="#808080" fill-rule="evenodd" fill-opacity="1" /><path clip-path="url(#clip950)" d="M 0 0 M945.978 1470.82 L945.978 1468.88 L965.402 1439.2 Q965.896 1438.43 966.668 1438.46 Q967.378 1438.46 967.532 1438.74 Q967.687 1439.02 967.687 1440.1 L967.687 1468.88 L974.017 1468.88 L974.017 1470.82 L967.687 1470.82 L967.687 1476.32 Q967.687 1478.14 968.428 1478.73 Q969.2 1479.31 972.473 1479.31 L973.801 1479.31 L973.801 1481.26 Q971.207 1481.07 965.216 1481.07 Q959.257 1481.07 956.663 1481.26 L956.663 1479.31 L957.991 1479.31 Q961.264 1479.31 962.036 1478.76 Q962.808 1478.17 962.808 1476.32 L962.808 1470.82 L945.978 1470.82 M947.769 1468.88 L963.178 1468.88 L963.178 1445.29 L947.769 1468.88 Z" fill="#808080" fill-rule="evenodd" fill-opacity="1" /><path clip-path="url(#clip950)" d="M 0 0 M1391.13 1461.28 Q1391.13 1451.34 1396.2 1445.25 Q1401.26 1439.14 1407.78 1439.14 Q1411.58 1439.14 1413.68 1441.09 Q1415.81 1443 1415.81 1445.96 Q1415.81 1447.6 1414.85 1448.31 Q1413.89 1449.02 1412.9 1449.02 Q1411.76 1449.02 1410.87 1448.25 Q1409.97 1447.48 1409.97 1446.09 Q1409.97 1443.25 1413.46 1443.25 Q1411.82 1440.72 1407.9 1440.72 Q1406.7 1440.72 1405.46 1441.09 Q1404.23 1441.43 1402.62 1442.6 Q1401.02 1443.77 1399.78 1445.63 Q1398.55 1447.48 1397.68 1450.97 Q1396.82 1454.46 1396.82 1459 L1396.82 1460.51 Q1399.41 1454.24 1404.72 1454.27 Q1410.03 1454.27 1413.71 1458.32 Q1417.38 1462.36 1417.38 1468.35 Q1417.38 1474.5 1413.55 1478.57 Q1409.72 1482.65 1404.35 1482.65 Q1401.94 1482.65 1399.75 1481.63 Q1397.59 1480.64 1395.55 1478.36 Q1393.54 1476.07 1392.34 1471.69 Q1391.13 1467.3 1391.13 1461.28 M1396.94 1466.96 Q1396.94 1473.17 1398.08 1476.13 Q1398.27 1476.63 1398.67 1477.31 Q1399.1 1477.99 1399.81 1478.88 Q1400.55 1479.75 1401.76 1480.33 Q1402.96 1480.89 1404.35 1480.89 Q1408.58 1480.89 1410.62 1476.78 Q1411.7 1474.5 1411.7 1468.29 Q1411.7 1461.96 1410.56 1459.64 Q1408.61 1455.72 1404.66 1455.72 Q1402 1455.72 1400.15 1457.54 Q1398.33 1459.37 1397.62 1461.81 Q1396.94 1464.25 1396.94 1466.96 Z" fill="#808080" fill-rule="evenodd" fill-opacity="1" /><path clip-path="url(#clip950)" d="M 0 0 M1835.4 1471.72 Q1835.4 1464.65 1844.51 1460.08 Q1840.58 1457.42 1839.87 1456.65 Q1837.09 1453.56 1837.09 1449.7 Q1837.09 1445.29 1840.43 1442.23 Q1843.8 1439.14 1848.55 1439.14 Q1853.09 1439.14 1856.52 1441.77 Q1859.94 1444.39 1859.94 1448.56 Q1859.94 1454.43 1852.29 1458.38 Q1857.35 1461.53 1858.56 1462.86 Q1861.64 1466.28 1861.64 1470.64 Q1861.64 1475.7 1857.75 1479.19 Q1853.86 1482.65 1848.49 1482.65 Q1843.24 1482.65 1839.32 1479.59 Q1835.4 1476.54 1835.4 1471.72 M1838.55 1471.72 Q1838.55 1475.64 1841.48 1478.26 Q1844.44 1480.89 1848.55 1480.89 Q1852.53 1480.89 1855.5 1478.6 Q1858.49 1476.32 1858.49 1472.92 Q1858.49 1471.59 1858.03 1470.45 Q1857.6 1469.31 1856.7 1468.41 Q1855.84 1467.49 1855.28 1467.09 Q1854.76 1466.65 1853.74 1465.94 L1845.96 1461.03 Q1838.55 1465.14 1838.55 1471.72 M1839.87 1447.23 Q1839.87 1450.26 1843.05 1452.36 L1850.9 1457.42 Q1857.17 1453.75 1857.17 1448.56 Q1857.17 1445.19 1854.6 1442.97 Q1852.04 1440.72 1848.49 1440.72 Q1845 1440.72 1842.44 1442.57 Q1839.87 1444.39 1839.87 1447.23 Z" fill="#808080" fill-rule="evenodd" fill-opacity="1" /><path clip-path="url(#clip950)" d="M 0 0 M2267.8 1445.16 L2267.8 1443.19 Q2275.4 1443.19 2279.32 1439.14 Q2280.4 1439.14 2280.58 1439.39 Q2280.77 1439.63 2280.77 1440.78 L2280.77 1476.26 Q2280.77 1478.14 2281.7 1478.73 Q2282.62 1479.31 2286.67 1479.31 L2288.67 1479.31 L2288.67 1481.26 Q2286.45 1481.07 2278.42 1481.07 Q2270.39 1481.07 2268.2 1481.26 L2268.2 1479.31 L2270.21 1479.31 Q2274.19 1479.31 2275.15 1478.76 Q2276.11 1478.17 2276.11 1476.26 L2276.11 1443.49 Q2272.8 1445.16 2267.8 1445.16 Z" fill="#808080" fill-rule="evenodd" fill-opacity="1" /><path clip-path="url(#clip950)" d="M 0 0 M2291.14 1461.03 Q2291.14 1451.74 2293.49 1446.68 Q2296.76 1439.14 2304.48 1439.14 Q2306.12 1439.14 2307.82 1439.6 Q2309.55 1440.04 2311.71 1441.73 Q2313.9 1443.43 2315.23 1446.21 Q2317.76 1451.58 2317.76 1461.03 Q2317.76 1470.27 2315.42 1475.3 Q2311.99 1482.65 2304.42 1482.65 Q2301.58 1482.65 2298.68 1481.2 Q2295.81 1479.75 2293.98 1476.26 Q2291.14 1471.04 2291.14 1461.03 M2296.39 1460.26 Q2296.39 1469.8 2297.07 1473.6 Q2297.84 1477.71 2299.94 1479.5 Q2302.08 1481.26 2304.42 1481.26 Q2306.95 1481.26 2309.05 1479.38 Q2311.18 1477.46 2311.83 1473.35 Q2312.54 1469.31 2312.51 1460.26 Q2312.51 1451.46 2311.89 1447.94 Q2311.06 1443.83 2308.84 1442.2 Q2306.65 1440.53 2304.42 1440.53 Q2303.59 1440.53 2302.69 1440.78 Q2301.83 1441.02 2300.56 1441.73 Q2299.3 1442.44 2298.31 1444.2 Q2297.35 1445.96 2296.89 1448.62 Q2296.39 1452.05 2296.39 1460.26 Z" fill="#808080" fill-rule="evenodd" fill-opacity="1" /><path clip-path="url(#clip950)" d="M 0 0 M1232.79 1573.23 L1232.79 1570.89 Q1235.54 1570.89 1237.28 1570.37 Q1239.02 1569.82 1239.65 1568.82 Q1240.32 1567.78 1240.46 1567.11 Q1240.61 1566.41 1240.61 1565.26 L1240.61 1527.32 Q1240.61 1525.13 1239.65 1524.46 Q1238.72 1523.76 1234.61 1523.76 L1232.79 1523.76 L1232.79 1521.39 L1245.61 1521.39 Q1246.99 1521.39 1247.36 1521.65 Q1247.73 1521.87 1248.28 1523.06 L1264.74 1565.56 L1281.34 1522.83 Q1281.71 1521.76 1282.04 1521.57 Q1282.41 1521.39 1283.86 1521.39 L1296.68 1521.39 L1296.68 1523.76 L1294.86 1523.76 Q1290.75 1523.76 1289.78 1524.46 Q1288.86 1525.13 1288.86 1527.32 L1288.86 1567.3 Q1288.86 1569.49 1289.78 1570.19 Q1290.75 1570.89 1294.86 1570.89 L1296.68 1570.89 L1296.68 1573.23 Q1293.86 1573.01 1285.82 1573.01 Q1277.7 1573.01 1274.89 1573.23 L1274.89 1570.89 L1276.74 1570.89 Q1280.85 1570.89 1281.78 1570.23 Q1282.71 1569.52 1282.71 1567.3 L1282.71 1523.76 L1282.63 1523.76 L1263.99 1571.78 Q1263.48 1573.23 1262.62 1573.23 Q1261.7 1573.23 1261.1 1571.56 L1242.8 1524.35 L1242.72 1524.35 L1242.72 1565.26 Q1242.72 1566.41 1242.87 1567.11 Q1243.02 1567.78 1243.65 1568.82 Q1244.32 1569.82 1246.06 1570.37 Q1247.8 1570.89 1250.54 1570.89 L1250.54 1573.23 Q1242.58 1573.01 1241.65 1573.01 Q1240.76 1573.01 1232.79 1573.23 Z" fill="#000000" fill-rule="evenodd" fill-opacity="1" /><path clip-path="url(#clip950)" d="M 0 0 M1297.42 1572.49 L1297.42 1515.16 L1353.59 1515.16 L1353.59 1572.49 L1297.42 1572.49 M1301.98 1564.74 L1322.95 1543.77 L1301.98 1522.91 L1301.98 1564.74 M1304.64 1567.93 L1346.37 1567.93 L1325.51 1546.96 L1304.64 1567.93 M1304.64 1519.72 L1325.51 1540.66 L1346.37 1519.72 L1304.64 1519.72 M1328.1 1543.77 L1349.04 1564.74 L1349.04 1522.91 L1328.1 1543.77 Z" fill="#000000" fill-rule="evenodd" fill-opacity="1" /><polyline clip-path="url(#clip952)" style="stroke:#222255; stroke-width:4; stroke-opacity:0.1; fill:none" stroke-dasharray="16, 10" points="
  233.631,1383.27 2352.76,1383.27 
  "/>
<polyline clip-path="url(#clip952)" style="stroke:#222255; stroke-width:4; stroke-opacity:0.1; fill:none" stroke-dasharray="16, 10" points="
  233.631,1184.15 2352.76,1184.15 
  "/>
<polyline clip-path="url(#clip952)" style="stroke:#222255; stroke-width:4; stroke-opacity:0.1; fill:none" stroke-dasharray="16, 10" points="
  233.631,985.025 2352.76,985.025 
  "/>
<polyline clip-path="url(#clip952)" style="stroke:#222255; stroke-width:4; stroke-opacity:0.1; fill:none" stroke-dasharray="16, 10" points="
  233.631,785.903 2352.76,785.903 
  "/>
<polyline clip-path="url(#clip952)" style="stroke:#222255; stroke-width:4; stroke-opacity:0.1; fill:none" stroke-dasharray="16, 10" points="
  233.631,586.781 2352.76,586.781 
  "/>
<polyline clip-path="url(#clip952)" style="stroke:#222255; stroke-width:4; stroke-opacity:0.1; fill:none" stroke-dasharray="16, 10" points="
  233.631,387.659 2352.76,387.659 
  "/>
<polyline clip-path="url(#clip952)" style="stroke:#222255; stroke-width:4; stroke-opacity:0.1; fill:none" stroke-dasharray="16, 10" points="
  233.631,188.537 2352.76,188.537 
  "/>
<polyline clip-path="url(#clip952)" style="stroke:#222255; stroke-width:2; stroke-opacity:0.05; fill:none" points="
  233.631,1343.45 2352.76,1343.45 
  "/>
<polyline clip-path="url(#clip952)" style="stroke:#222255; stroke-width:2; stroke-opacity:0.05; fill:none" points="
  233.631,1303.62 2352.76,1303.62 
  "/>
<polyline clip-path="url(#clip952)" style="stroke:#222255; stroke-width:2; stroke-opacity:0.05; fill:none" points="
  233.631,1263.8 2352.76,1263.8 
  "/>
<polyline clip-path="url(#clip952)" style="stroke:#222255; stroke-width:2; stroke-opacity:0.05; fill:none" points="
  233.631,1223.97 2352.76,1223.97 
  "/>
<polyline clip-path="url(#clip952)" style="stroke:#222255; stroke-width:2; stroke-opacity:0.05; fill:none" points="
  233.631,1144.32 2352.76,1144.32 
  "/>
<polyline clip-path="url(#clip952)" style="stroke:#222255; stroke-width:2; stroke-opacity:0.05; fill:none" points="
  233.631,1104.5 2352.76,1104.5 
  "/>
<polyline clip-path="url(#clip952)" style="stroke:#222255; stroke-width:2; stroke-opacity:0.05; fill:none" points="
  233.631,1064.67 2352.76,1064.67 
  "/>
<polyline clip-path="url(#clip952)" style="stroke:#222255; stroke-width:2; stroke-opacity:0.05; fill:none" points="
  233.631,1024.85 2352.76,1024.85 
  "/>
<polyline clip-path="url(#clip952)" style="stroke:#222255; stroke-width:2; stroke-opacity:0.05; fill:none" points="
  233.631,945.201 2352.76,945.201 
  "/>
<polyline clip-path="url(#clip952)" style="stroke:#222255; stroke-width:2; stroke-opacity:0.05; fill:none" points="
  233.631,905.377 2352.76,905.377 
  "/>
<polyline clip-path="url(#clip952)" style="stroke:#222255; stroke-width:2; stroke-opacity:0.05; fill:none" points="
  233.631,865.552 2352.76,865.552 
  "/>
<polyline clip-path="url(#clip952)" style="stroke:#222255; stroke-width:2; stroke-opacity:0.05; fill:none" points="
  233.631,825.728 2352.76,825.728 
  "/>
<polyline clip-path="url(#clip952)" style="stroke:#222255; stroke-width:2; stroke-opacity:0.05; fill:none" points="
  233.631,746.079 2352.76,746.079 
  "/>
<polyline clip-path="url(#clip952)" style="stroke:#222255; stroke-width:2; stroke-opacity:0.05; fill:none" points="
  233.631,706.255 2352.76,706.255 
  "/>
<polyline clip-path="url(#clip952)" style="stroke:#222255; stroke-width:2; stroke-opacity:0.05; fill:none" points="
  233.631,666.43 2352.76,666.43 
  "/>
<polyline clip-path="url(#clip952)" style="stroke:#222255; stroke-width:2; stroke-opacity:0.05; fill:none" points="
  233.631,626.606 2352.76,626.606 
  "/>
<polyline clip-path="url(#clip952)" style="stroke:#222255; stroke-width:2; stroke-opacity:0.05; fill:none" points="
  233.631,546.957 2352.76,546.957 
  "/>
<polyline clip-path="url(#clip952)" style="stroke:#222255; stroke-width:2; stroke-opacity:0.05; fill:none" points="
  233.631,507.133 2352.76,507.133 
  "/>
<polyline clip-path="url(#clip952)" style="stroke:#222255; stroke-width:2; stroke-opacity:0.05; fill:none" points="
  233.631,467.308 2352.76,467.308 
  "/>
<polyline clip-path="url(#clip952)" style="stroke:#222255; stroke-width:2; stroke-opacity:0.05; fill:none" points="
  233.631,427.484 2352.76,427.484 
  "/>
<polyline clip-path="url(#clip952)" style="stroke:#222255; stroke-width:2; stroke-opacity:0.05; fill:none" points="
  233.631,347.835 2352.76,347.835 
  "/>
<polyline clip-path="url(#clip952)" style="stroke:#222255; stroke-width:2; stroke-opacity:0.05; fill:none" points="
  233.631,308.011 2352.76,308.011 
  "/>
<polyline clip-path="url(#clip952)" style="stroke:#222255; stroke-width:2; stroke-opacity:0.05; fill:none" points="
  233.631,268.186 2352.76,268.186 
  "/>
<polyline clip-path="url(#clip952)" style="stroke:#222255; stroke-width:2; stroke-opacity:0.05; fill:none" points="
  233.631,228.362 2352.76,228.362 
  "/>
<polyline clip-path="url(#clip952)" style="stroke:#222255; stroke-width:2; stroke-opacity:0.05; fill:none" points="
  233.631,148.713 2352.76,148.713 
  "/>
<polyline clip-path="url(#clip952)" style="stroke:#222255; stroke-width:2; stroke-opacity:0.05; fill:none" points="
  233.631,108.889 2352.76,108.889 
  "/>
<polyline clip-path="url(#clip950)" style="stroke:#000000; stroke-width:4; stroke-opacity:1; fill:none" points="
  233.631,1410.22 233.631,106.192 
  "/>
<polyline clip-path="url(#clip950)" style="stroke:#000000; stroke-width:4; stroke-opacity:1; fill:none" points="
  2352.76,1410.22 2352.76,106.192 
  "/>
<polyline clip-path="url(#clip950)" style="stroke:#000000; stroke-width:4; stroke-opacity:1; fill:none" points="
  233.631,1383.27 259.06,1383.27 
  "/>
<polyline clip-path="url(#clip950)" style="stroke:#000000; stroke-width:4; stroke-opacity:1; fill:none" points="
  233.631,1184.15 259.06,1184.15 
  "/>
<polyline clip-path="url(#clip950)" style="stroke:#000000; stroke-width:4; stroke-opacity:1; fill:none" points="
  233.631,985.025 259.06,985.025 
  "/>
<polyline clip-path="url(#clip950)" style="stroke:#000000; stroke-width:4; stroke-opacity:1; fill:none" points="
  233.631,785.903 259.06,785.903 
  "/>
<polyline clip-path="url(#clip950)" style="stroke:#000000; stroke-width:4; stroke-opacity:1; fill:none" points="
  233.631,586.781 259.06,586.781 
  "/>
<polyline clip-path="url(#clip950)" style="stroke:#000000; stroke-width:4; stroke-opacity:1; fill:none" points="
  233.631,387.659 259.06,387.659 
  "/>
<polyline clip-path="url(#clip950)" style="stroke:#000000; stroke-width:4; stroke-opacity:1; fill:none" points="
  233.631,188.537 259.06,188.537 
  "/>
<polyline clip-path="url(#clip950)" style="stroke:#000000; stroke-width:4; stroke-opacity:1; fill:none" points="
  233.631,1343.45 246.346,1343.45 
  "/>
<polyline clip-path="url(#clip950)" style="stroke:#000000; stroke-width:4; stroke-opacity:1; fill:none" points="
  233.631,1303.62 246.346,1303.62 
  "/>
<polyline clip-path="url(#clip950)" style="stroke:#000000; stroke-width:4; stroke-opacity:1; fill:none" points="
  233.631,1263.8 246.346,1263.8 
  "/>
<polyline clip-path="url(#clip950)" style="stroke:#000000; stroke-width:4; stroke-opacity:1; fill:none" points="
  233.631,1223.97 246.346,1223.97 
  "/>
<polyline clip-path="url(#clip950)" style="stroke:#000000; stroke-width:4; stroke-opacity:1; fill:none" points="
  233.631,1144.32 246.346,1144.32 
  "/>
<polyline clip-path="url(#clip950)" style="stroke:#000000; stroke-width:4; stroke-opacity:1; fill:none" points="
  233.631,1104.5 246.346,1104.5 
  "/>
<polyline clip-path="url(#clip950)" style="stroke:#000000; stroke-width:4; stroke-opacity:1; fill:none" points="
  233.631,1064.67 246.346,1064.67 
  "/>
<polyline clip-path="url(#clip950)" style="stroke:#000000; stroke-width:4; stroke-opacity:1; fill:none" points="
  233.631,1024.85 246.346,1024.85 
  "/>
<polyline clip-path="url(#clip950)" style="stroke:#000000; stroke-width:4; stroke-opacity:1; fill:none" points="
  233.631,945.201 246.346,945.201 
  "/>
<polyline clip-path="url(#clip950)" style="stroke:#000000; stroke-width:4; stroke-opacity:1; fill:none" points="
  233.631,905.377 246.346,905.377 
  "/>
<polyline clip-path="url(#clip950)" style="stroke:#000000; stroke-width:4; stroke-opacity:1; fill:none" points="
  233.631,865.552 246.346,865.552 
  "/>
<polyline clip-path="url(#clip950)" style="stroke:#000000; stroke-width:4; stroke-opacity:1; fill:none" points="
  233.631,825.728 246.346,825.728 
  "/>
<polyline clip-path="url(#clip950)" style="stroke:#000000; stroke-width:4; stroke-opacity:1; fill:none" points="
  233.631,746.079 246.346,746.079 
  "/>
<polyline clip-path="url(#clip950)" style="stroke:#000000; stroke-width:4; stroke-opacity:1; fill:none" points="
  233.631,706.255 246.346,706.255 
  "/>
<polyline clip-path="url(#clip950)" style="stroke:#000000; stroke-width:4; stroke-opacity:1; fill:none" points="
  233.631,666.43 246.346,666.43 
  "/>
<polyline clip-path="url(#clip950)" style="stroke:#000000; stroke-width:4; stroke-opacity:1; fill:none" points="
  233.631,626.606 246.346,626.606 
  "/>
<polyline clip-path="url(#clip950)" style="stroke:#000000; stroke-width:4; stroke-opacity:1; fill:none" points="
  233.631,546.957 246.346,546.957 
  "/>
<polyline clip-path="url(#clip950)" style="stroke:#000000; stroke-width:4; stroke-opacity:1; fill:none" points="
  233.631,507.133 246.346,507.133 
  "/>
<polyline clip-path="url(#clip950)" style="stroke:#000000; stroke-width:4; stroke-opacity:1; fill:none" points="
  233.631,467.308 246.346,467.308 
  "/>
<polyline clip-path="url(#clip950)" style="stroke:#000000; stroke-width:4; stroke-opacity:1; fill:none" points="
  233.631,427.484 246.346,427.484 
  "/>
<polyline clip-path="url(#clip950)" style="stroke:#000000; stroke-width:4; stroke-opacity:1; fill:none" points="
  233.631,347.835 246.346,347.835 
  "/>
<polyline clip-path="url(#clip950)" style="stroke:#000000; stroke-width:4; stroke-opacity:1; fill:none" points="
  233.631,308.011 246.346,308.011 
  "/>
<polyline clip-path="url(#clip950)" style="stroke:#000000; stroke-width:4; stroke-opacity:1; fill:none" points="
  233.631,268.186 246.346,268.186 
  "/>
<polyline clip-path="url(#clip950)" style="stroke:#000000; stroke-width:4; stroke-opacity:1; fill:none" points="
  233.631,228.362 246.346,228.362 
  "/>
<polyline clip-path="url(#clip950)" style="stroke:#000000; stroke-width:4; stroke-opacity:1; fill:none" points="
  233.631,148.713 246.346,148.713 
  "/>
<polyline clip-path="url(#clip950)" style="stroke:#000000; stroke-width:4; stroke-opacity:1; fill:none" points="
  233.631,108.889 246.346,108.889 
  "/>
<path clip-path="url(#clip950)" d="M 0 0 M171.013 1384.64 Q171.013 1375.35 173.36 1370.28 Q176.633 1362.75 184.353 1362.75 Q185.989 1362.75 187.688 1363.21 Q189.417 1363.65 191.579 1365.34 Q193.771 1367.04 195.099 1369.82 Q197.631 1375.19 197.631 1384.64 Q197.631 1393.88 195.284 1398.91 Q191.856 1406.26 184.291 1406.26 Q181.45 1406.26 178.548 1404.81 Q175.676 1403.36 173.854 1399.87 Q171.013 1394.65 171.013 1384.64 M176.263 1383.87 Q176.263 1393.41 176.942 1397.21 Q177.714 1401.32 179.814 1403.11 Q181.944 1404.87 184.291 1404.87 Q186.823 1404.87 188.923 1402.99 Q191.054 1401.07 191.702 1396.96 Q192.412 1392.92 192.381 1383.87 Q192.381 1375.07 191.764 1371.55 Q190.93 1367.44 188.707 1365.81 Q186.514 1364.14 184.291 1364.14 Q183.457 1364.14 182.562 1364.39 Q181.697 1364.63 180.431 1365.34 Q179.165 1366.05 178.177 1367.81 Q177.22 1369.57 176.757 1372.23 Q176.263 1375.66 176.263 1383.87 Z" fill="#808080" fill-rule="evenodd" fill-opacity="1" /><path clip-path="url(#clip950)" d="M 0 0 M143.284 1205.75 Q143.284 1204.6 143.376 1204.27 Q143.5 1203.93 143.994 1203.4 L156.129 1189.88 Q162.768 1182.4 162.768 1175.89 Q162.768 1171.66 160.545 1168.63 Q158.353 1165.6 154.307 1165.6 Q151.528 1165.6 149.181 1167.3 Q146.835 1169 145.754 1172.03 Q145.939 1171.97 146.588 1171.97 Q148.162 1171.97 149.027 1172.95 Q149.923 1173.94 149.923 1175.27 Q149.923 1176.97 148.811 1177.8 Q147.73 1178.6 146.649 1178.6 Q146.217 1178.6 145.63 1178.51 Q145.075 1178.42 144.179 1177.55 Q143.284 1176.66 143.284 1175.08 Q143.284 1170.67 146.618 1167.15 Q149.984 1163.63 155.11 1163.63 Q160.916 1163.63 164.714 1167.09 Q168.543 1170.51 168.543 1175.89 Q168.543 1177.77 167.956 1179.5 Q167.4 1181.2 166.628 1182.53 Q165.887 1183.85 163.849 1185.98 Q161.811 1188.12 160.174 1189.63 Q158.538 1191.14 154.863 1194.35 L148.162 1200.87 L159.557 1200.87 Q165.115 1200.87 165.547 1200.37 Q166.165 1199.48 166.937 1194.75 L168.543 1194.75 L166.752 1205.75 L143.284 1205.75 Z" fill="#808080" fill-rule="evenodd" fill-opacity="1" /><path clip-path="url(#clip950)" d="M 0 0 M171.013 1185.52 Q171.013 1176.23 173.36 1171.16 Q176.633 1163.63 184.353 1163.63 Q185.989 1163.63 187.688 1164.09 Q189.417 1164.52 191.579 1166.22 Q193.771 1167.92 195.099 1170.7 Q197.631 1176.07 197.631 1185.52 Q197.631 1194.75 195.284 1199.79 Q191.856 1207.14 184.291 1207.14 Q181.45 1207.14 178.548 1205.69 Q175.676 1204.23 173.854 1200.75 Q171.013 1195.53 171.013 1185.52 M176.263 1184.75 Q176.263 1194.29 176.942 1198.09 Q177.714 1202.2 179.814 1203.99 Q181.944 1205.75 184.291 1205.75 Q186.823 1205.75 188.923 1203.86 Q191.054 1201.95 191.702 1197.84 Q192.412 1193.8 192.381 1184.75 Q192.381 1175.95 191.764 1172.43 Q190.93 1168.32 188.707 1166.69 Q186.514 1165.02 184.291 1165.02 Q183.457 1165.02 182.562 1165.26 Q181.697 1165.51 180.431 1166.22 Q179.165 1166.93 178.177 1168.69 Q177.22 1170.45 176.757 1173.11 Q176.263 1176.54 176.263 1184.75 Z" fill="#808080" fill-rule="evenodd" fill-opacity="1" /><path clip-path="url(#clip950)" d="M 0 0 M140.504 996.188 L140.504 994.243 L159.927 964.568 Q160.421 963.796 161.193 963.827 Q161.904 963.827 162.058 964.105 Q162.212 964.383 162.212 965.463 L162.212 994.243 L168.543 994.243 L168.543 996.188 L162.212 996.188 L162.212 1001.68 Q162.212 1003.51 162.954 1004.09 Q163.726 1004.68 166.999 1004.68 L168.327 1004.68 L168.327 1006.63 Q165.733 1006.44 159.742 1006.44 Q153.782 1006.44 151.189 1006.63 L151.189 1004.68 L152.516 1004.68 Q155.79 1004.68 156.562 1004.12 Q157.334 1003.54 157.334 1001.68 L157.334 996.188 L140.504 996.188 M142.295 994.243 L157.704 994.243 L157.704 970.651 L142.295 994.243 Z" fill="#808080" fill-rule="evenodd" fill-opacity="1" /><path clip-path="url(#clip950)" d="M 0 0 M171.013 986.4 Q171.013 977.105 173.36 972.041 Q176.633 964.506 184.353 964.506 Q185.989 964.506 187.688 964.969 Q189.417 965.402 191.579 967.1 Q193.771 968.798 195.099 971.578 Q197.631 976.951 197.631 986.4 Q197.631 995.632 195.284 1000.67 Q191.856 1008.02 184.291 1008.02 Q181.45 1008.02 178.548 1006.56 Q175.676 1005.11 173.854 1001.62 Q171.013 996.404 171.013 986.4 M176.263 985.628 Q176.263 995.169 176.942 998.967 Q177.714 1003.07 179.814 1004.87 Q181.944 1006.63 184.291 1006.63 Q186.823 1006.63 188.923 1004.74 Q191.054 1002.83 191.702 998.72 Q192.412 994.675 192.381 985.628 Q192.381 976.827 191.764 973.307 Q190.93 969.2 188.707 967.563 Q186.514 965.896 184.291 965.896 Q183.457 965.896 182.562 966.143 Q181.697 966.39 180.431 967.1 Q179.165 967.81 178.177 969.57 Q177.22 971.331 176.757 973.986 Q176.263 977.414 176.263 985.628 Z" fill="#808080" fill-rule="evenodd" fill-opacity="1" /><path clip-path="url(#clip950)" d="M 0 0 M142.295 787.525 Q142.295 777.581 147.36 771.498 Q152.424 765.384 158.939 765.384 Q162.737 765.384 164.837 767.33 Q166.968 769.244 166.968 772.208 Q166.968 773.845 166.011 774.555 Q165.053 775.266 164.065 775.266 Q162.923 775.266 162.027 774.494 Q161.132 773.722 161.132 772.332 Q161.132 769.491 164.621 769.491 Q162.984 766.959 159.063 766.959 Q157.858 766.959 156.623 767.33 Q155.388 767.669 153.782 768.843 Q152.177 770.016 150.942 771.869 Q149.706 773.722 148.842 777.211 Q147.977 780.7 147.977 785.24 L147.977 786.753 Q150.571 780.484 155.882 780.515 Q161.193 780.515 164.868 784.56 Q168.543 788.605 168.543 794.596 Q168.543 800.741 164.714 804.817 Q160.885 808.893 155.512 808.893 Q153.103 808.893 150.911 807.874 Q148.749 806.886 146.711 804.601 Q144.704 802.316 143.5 797.931 Q142.295 793.546 142.295 787.525 M148.101 793.206 Q148.101 799.413 149.243 802.377 Q149.428 802.872 149.83 803.551 Q150.262 804.23 150.972 805.126 Q151.714 805.99 152.918 806.577 Q154.122 807.133 155.512 807.133 Q159.742 807.133 161.78 803.026 Q162.861 800.741 162.861 794.534 Q162.861 788.204 161.718 785.888 Q159.773 781.966 155.82 781.966 Q153.165 781.966 151.312 783.788 Q149.49 785.61 148.78 788.05 Q148.101 790.489 148.101 793.206 Z" fill="#808080" fill-rule="evenodd" fill-opacity="1" /><path clip-path="url(#clip950)" d="M 0 0 M171.013 787.278 Q171.013 777.983 173.36 772.919 Q176.633 765.384 184.353 765.384 Q185.989 765.384 187.688 765.847 Q189.417 766.28 191.579 767.978 Q193.771 769.676 195.099 772.456 Q197.631 777.828 197.631 787.278 Q197.631 796.51 195.284 801.544 Q191.856 808.893 184.291 808.893 Q181.45 808.893 178.548 807.442 Q175.676 805.99 173.854 802.501 Q171.013 797.282 171.013 787.278 M176.263 786.506 Q176.263 796.047 176.942 799.845 Q177.714 803.952 179.814 805.743 Q181.944 807.503 184.291 807.503 Q186.823 807.503 188.923 805.62 Q191.054 803.705 191.702 799.598 Q192.412 795.553 192.381 786.506 Q192.381 777.705 191.764 774.185 Q190.93 770.078 188.707 768.441 Q186.514 766.774 184.291 766.774 Q183.457 766.774 182.562 767.021 Q181.697 767.268 180.431 767.978 Q179.165 768.688 178.177 770.448 Q177.22 772.208 176.757 774.864 Q176.263 778.292 176.263 786.506 Z" fill="#808080" fill-rule="evenodd" fill-opacity="1" /><path clip-path="url(#clip950)" d="M 0 0 M142.295 598.84 Q142.295 591.768 151.405 587.198 Q147.483 584.543 146.773 583.771 Q143.994 580.683 143.994 576.823 Q143.994 572.407 147.329 569.35 Q150.695 566.262 155.45 566.262 Q159.989 566.262 163.417 568.887 Q166.844 571.512 166.844 575.68 Q166.844 581.547 159.186 585.5 Q164.25 588.65 165.455 589.977 Q168.543 593.405 168.543 597.759 Q168.543 602.823 164.652 606.312 Q160.761 609.771 155.388 609.771 Q150.139 609.771 146.217 606.714 Q142.295 603.657 142.295 598.84 M145.445 598.84 Q145.445 602.761 148.379 605.386 Q151.343 608.011 155.45 608.011 Q159.433 608.011 162.398 605.726 Q165.393 603.441 165.393 600.044 Q165.393 598.716 164.93 597.574 Q164.498 596.431 163.602 595.536 Q162.737 594.609 162.182 594.208 Q161.657 593.776 160.638 593.065 L152.856 588.156 Q145.445 592.262 145.445 598.84 M146.773 574.353 Q146.773 577.379 149.953 579.478 L157.797 584.543 Q164.065 580.868 164.065 575.68 Q164.065 572.314 161.502 570.091 Q158.939 567.837 155.388 567.837 Q151.899 567.837 149.336 569.69 Q146.773 571.512 146.773 574.353 Z" fill="#808080" fill-rule="evenodd" fill-opacity="1" /><path clip-path="url(#clip950)" d="M 0 0 M171.013 588.156 Q171.013 578.861 173.36 573.797 Q176.633 566.262 184.353 566.262 Q185.989 566.262 187.688 566.725 Q189.417 567.158 191.579 568.856 Q193.771 570.554 195.099 573.333 Q197.631 578.706 197.631 588.156 Q197.631 597.388 195.284 602.422 Q191.856 609.771 184.291 609.771 Q181.45 609.771 178.548 608.32 Q175.676 606.868 173.854 603.379 Q171.013 598.16 171.013 588.156 M176.263 587.384 Q176.263 596.925 176.942 600.723 Q177.714 604.83 179.814 606.621 Q181.944 608.381 184.291 608.381 Q186.823 608.381 188.923 606.498 Q191.054 604.583 191.702 600.476 Q192.412 596.431 192.381 587.384 Q192.381 578.583 191.764 575.063 Q190.93 570.956 188.707 569.319 Q186.514 567.652 184.291 567.652 Q183.457 567.652 182.562 567.899 Q181.697 568.146 180.431 568.856 Q179.165 569.566 178.177 571.326 Q177.22 573.086 176.757 575.742 Q176.263 579.17 176.263 587.384 Z" fill="#808080" fill-rule="evenodd" fill-opacity="1" /><path clip-path="url(#clip950)" d="M 0 0 M118.58 373.162 L118.58 371.185 Q126.176 371.185 130.098 367.14 Q131.179 367.14 131.364 367.387 Q131.549 367.634 131.549 368.777 L131.549 404.257 Q131.549 406.141 132.476 406.727 Q133.402 407.314 137.447 407.314 L139.454 407.314 L139.454 409.259 Q137.231 409.074 129.203 409.074 Q121.174 409.074 118.982 409.259 L118.982 407.314 L120.989 407.314 Q124.972 407.314 125.929 406.758 Q126.887 406.171 126.887 404.257 L126.887 371.494 Q123.583 373.162 118.58 373.162 Z" fill="#808080" fill-rule="evenodd" fill-opacity="1" /><path clip-path="url(#clip950)" d="M 0 0 M141.925 389.033 Q141.925 379.739 144.272 374.675 Q147.545 367.14 155.265 367.14 Q156.901 367.14 158.6 367.603 Q160.329 368.036 162.49 369.734 Q164.683 371.432 166.011 374.211 Q168.543 379.584 168.543 389.033 Q168.543 398.266 166.196 403.3 Q162.768 410.649 155.203 410.649 Q152.362 410.649 149.459 409.198 Q146.588 407.746 144.766 404.257 Q141.925 399.038 141.925 389.033 M147.174 388.261 Q147.174 397.803 147.854 401.601 Q148.626 405.708 150.725 407.499 Q152.856 409.259 155.203 409.259 Q157.735 409.259 159.835 407.376 Q161.965 405.461 162.614 401.354 Q163.324 397.309 163.293 388.261 Q163.293 379.461 162.676 375.941 Q161.842 371.834 159.619 370.197 Q157.426 368.53 155.203 368.53 Q154.369 368.53 153.474 368.777 Q152.609 369.024 151.343 369.734 Q150.077 370.444 149.089 372.204 Q148.132 373.964 147.668 376.62 Q147.174 380.048 147.174 388.261 Z" fill="#808080" fill-rule="evenodd" fill-opacity="1" /><path clip-path="url(#clip950)" d="M 0 0 M171.013 389.033 Q171.013 379.739 173.36 374.675 Q176.633 367.14 184.353 367.14 Q185.989 367.14 187.688 367.603 Q189.417 368.036 191.579 369.734 Q193.771 371.432 195.099 374.211 Q197.631 379.584 197.631 389.033 Q197.631 398.266 195.284 403.3 Q191.856 410.649 184.291 410.649 Q181.45 410.649 178.548 409.198 Q175.676 407.746 173.854 404.257 Q171.013 399.038 171.013 389.033 M176.263 388.261 Q176.263 397.803 176.942 401.601 Q177.714 405.708 179.814 407.499 Q181.944 409.259 184.291 409.259 Q186.823 409.259 188.923 407.376 Q191.054 405.461 191.702 401.354 Q192.412 397.309 192.381 388.261 Q192.381 379.461 191.764 375.941 Q190.93 371.834 188.707 370.197 Q186.514 368.53 184.291 368.53 Q183.457 368.53 182.562 368.777 Q181.697 369.024 180.431 369.734 Q179.165 370.444 178.177 372.204 Q177.22 373.964 176.757 376.62 Q176.263 380.048 176.263 388.261 Z" fill="#808080" fill-rule="evenodd" fill-opacity="1" /><path clip-path="url(#clip950)" d="M 0 0 M119.259 174.04 L119.259 172.063 Q126.856 172.063 130.777 168.018 Q131.858 168.018 132.043 168.265 Q132.229 168.512 132.229 169.655 L132.229 205.135 Q132.229 207.019 133.155 207.605 Q134.082 208.192 138.127 208.192 L140.134 208.192 L140.134 210.137 Q137.911 209.952 129.882 209.952 Q121.853 209.952 119.661 210.137 L119.661 208.192 L121.668 208.192 Q125.651 208.192 126.609 207.636 Q127.566 207.049 127.566 205.135 L127.566 172.372 Q124.262 174.04 119.259 174.04 Z" fill="#808080" fill-rule="evenodd" fill-opacity="1" /><path clip-path="url(#clip950)" d="M 0 0 M143.284 210.137 Q143.284 208.995 143.376 208.655 Q143.5 208.315 143.994 207.791 L156.129 194.265 Q162.768 186.793 162.768 180.277 Q162.768 176.047 160.545 173.021 Q158.353 169.994 154.307 169.994 Q151.528 169.994 149.181 171.693 Q146.835 173.391 145.754 176.417 Q145.939 176.355 146.588 176.355 Q148.162 176.355 149.027 177.344 Q149.923 178.332 149.923 179.66 Q149.923 181.358 148.811 182.192 Q147.73 182.995 146.649 182.995 Q146.217 182.995 145.63 182.902 Q145.075 182.809 144.179 181.945 Q143.284 181.049 143.284 179.474 Q143.284 175.059 146.618 171.538 Q149.984 168.018 155.11 168.018 Q160.916 168.018 164.714 171.477 Q168.543 174.904 168.543 180.277 Q168.543 182.161 167.956 183.89 Q167.4 185.588 166.628 186.916 Q165.887 188.244 163.849 190.375 Q161.811 192.505 160.174 194.018 Q158.538 195.531 154.863 198.743 L148.162 205.258 L159.557 205.258 Q165.115 205.258 165.547 204.764 Q166.165 203.869 166.937 199.144 L168.543 199.144 L166.752 210.137 L143.284 210.137 Z" fill="#808080" fill-rule="evenodd" fill-opacity="1" /><path clip-path="url(#clip950)" d="M 0 0 M171.013 189.911 Q171.013 180.617 173.36 175.553 Q176.633 168.018 184.353 168.018 Q185.989 168.018 187.688 168.481 Q189.417 168.914 191.579 170.612 Q193.771 172.31 195.099 175.089 Q197.631 180.462 197.631 189.911 Q197.631 199.144 195.284 204.178 Q191.856 211.527 184.291 211.527 Q181.45 211.527 178.548 210.076 Q175.676 208.624 173.854 205.135 Q171.013 199.916 171.013 189.911 M176.263 189.139 Q176.263 198.681 176.942 202.479 Q177.714 206.586 179.814 208.377 Q181.944 210.137 184.291 210.137 Q186.823 210.137 188.923 208.254 Q191.054 206.339 191.702 202.232 Q192.412 198.187 192.381 189.139 Q192.381 180.339 191.764 176.819 Q190.93 172.712 188.707 171.075 Q186.514 169.408 184.291 169.408 Q183.457 169.408 182.562 169.655 Q181.697 169.902 180.431 170.612 Q179.165 171.322 178.177 173.082 Q177.22 174.842 176.757 177.498 Q176.263 180.926 176.263 189.139 Z" fill="#808080" fill-rule="evenodd" fill-opacity="1" /><path clip-path="url(#clip950)" d="M 0 0 M79.4045 891.586 Q79.4045 887.547 78.8858 886.62 Q78.4041 885.657 75.9955 885.657 L40.4597 885.657 Q37.94 885.657 37.31 886.62 Q36.6801 887.547 36.6801 891.586 L34.3086 891.586 L33.4933 880.654 L38.4958 880.654 Q33.4933 876.097 33.4933 870.02 Q33.4933 863.572 38.4958 858.866 Q43.4982 854.16 50.6498 854.16 Q57.8756 854.16 62.878 859.162 Q67.8804 864.165 67.8804 871.094 Q67.8804 874.874 65.9536 877.431 Q63.9896 879.95 62.5445 880.432 L63.2485 880.432 L75.9955 880.432 Q78.4411 880.432 78.9228 879.469 Q79.4045 878.505 79.4045 874.503 L81.739 874.503 Q81.5167 882.47 81.5167 883.063 Q81.5167 883.804 81.739 891.586 L79.4045 891.586 M58.3943 880.432 Q59.543 880.432 59.9506 880.284 Q60.3583 880.099 61.5811 879.357 Q66.1759 876.356 66.1759 871.465 Q66.1759 871.428 66.1759 871.391 Q66.1759 867.055 61.7663 863.757 Q57.3197 860.459 50.6498 860.459 Q44.2764 860.459 39.8298 863.461 Q35.3832 866.462 35.3832 870.612 Q35.3832 873.577 36.9765 876.171 Q38.5699 878.765 41.4602 880.432 L58.3943 880.432 Z" fill="#000000" fill-rule="evenodd" fill-opacity="1" /><path clip-path="url(#clip950)" d="M 0 0 M66.2871 853.419 L8.96291 853.419 L8.96291 797.243 L66.2871 797.243 L66.2871 853.419 M58.5426 848.861 L37.5694 827.888 L16.7074 848.861 L58.5426 848.861 M61.7293 846.193 L61.7293 804.469 L40.7561 825.331 L61.7293 846.193 M13.5207 846.193 L34.4568 825.331 L13.5207 804.469 L13.5207 846.193 M37.5694 822.737 L58.5426 801.801 L16.7074 801.801 L37.5694 822.737 Z" fill="#000000" fill-rule="evenodd" fill-opacity="1" /><path clip-path="url(#clip950)" d="M 0 0 M17.5597 795.131 L15.1882 795.131 L14.3729 784.2 L38.4217 784.2 Q33.4933 779.791 33.4933 773.788 Q33.4933 767.266 38.4958 762.486 Q43.4982 757.706 50.6498 757.706 Q57.8756 757.706 62.878 762.708 Q67.8804 767.711 67.8804 774.64 Q67.8804 780.939 62.3222 784.571 Q66.954 787.239 67.0282 787.313 L67.0282 789.203 L21.784 789.203 Q18.9678 789.203 18.2637 790.203 Q17.5597 791.203 17.5597 795.131 M58.3943 783.978 Q59.9877 783.978 61.5811 782.903 Q66.1759 779.902 66.1759 775.01 Q66.1759 774.973 66.1759 774.936 Q66.1759 769.637 61.3217 766.34 Q57.6903 764.005 50.5757 764.005 Q43.5353 764.005 40.015 766.191 Q35.1608 769.23 35.1608 774.158 Q35.1608 779.716 40.015 783.125 Q41.2379 783.978 42.7571 783.978 L58.3943 783.978 Z" fill="#000000" fill-rule="evenodd" fill-opacity="1" /><path clip-path="url(#clip950)" d="M 0 0 M76.4401 758.373 Q74.8468 758.373 73.9945 757.446 Q73.1793 756.483 73.1793 755.186 Q73.1793 753.815 74.0316 752.926 Q74.9209 751.999 76.366 751.999 Q79.1822 751.999 79.5528 754.964 Q80.9238 753.519 80.9238 751.406 Q80.9238 749.146 79.2563 747.33 Q77.5888 745.478 75.9955 744.699 Q74.4021 743.884 71.5118 742.736 Q69.2515 741.661 67.0282 740.846 L39.311 752.222 Q37.4953 752.963 37.0877 754.111 Q36.6801 755.26 36.6801 758.373 L34.3086 758.373 Q34.5309 754.964 34.5309 750.999 Q34.5309 748.664 34.3086 742.736 L36.6801 742.736 Q36.6801 746.997 38.644 746.997 Q38.8663 746.997 40.015 746.552 L60.4324 738.104 L41.7566 730.433 Q40.682 729.989 39.9409 729.989 Q36.8283 729.989 36.6801 733.546 L34.3086 733.546 Q34.5309 728.543 34.5309 726.95 Q34.5309 723.837 34.3086 721.281 L36.6801 721.281 Q36.6801 726.357 41.5343 728.321 L73.9204 741.698 Q82.5542 745.329 82.5913 751.406 Q82.5913 754.297 80.8126 756.335 Q79.034 758.373 76.4401 758.373 Z" fill="#000000" fill-rule="evenodd" fill-opacity="1" /><path clip-path="url(#clip950)" d="M 0 0 M79.4045 719.169 Q79.4045 715.13 78.8858 714.203 Q78.4041 713.24 75.9955 713.24 L40.4597 713.24 Q37.94 713.24 37.31 714.203 Q36.6801 715.13 36.6801 719.169 L34.3086 719.169 L33.4933 708.237 L38.4958 708.237 Q33.4933 703.679 33.4933 697.602 Q33.4933 691.155 38.4958 686.449 Q43.4982 681.743 50.6498 681.743 Q57.8756 681.743 62.878 686.745 Q67.8804 691.748 67.8804 698.677 Q67.8804 702.457 65.9536 705.013 Q63.9896 707.533 62.5445 708.015 L63.2485 708.015 L75.9955 708.015 Q78.4411 708.015 78.9228 707.052 Q79.4045 706.088 79.4045 702.086 L81.739 702.086 Q81.5167 710.053 81.5167 710.646 Q81.5167 711.387 81.739 719.169 L79.4045 719.169 M58.3943 708.015 Q59.543 708.015 59.9506 707.867 Q60.3583 707.681 61.5811 706.94 Q66.1759 703.939 66.1759 699.048 Q66.1759 699.011 66.1759 698.974 Q66.1759 694.638 61.7663 691.34 Q57.3197 688.042 50.6498 688.042 Q44.2764 688.042 39.8298 691.044 Q35.3832 694.045 35.3832 698.195 Q35.3832 701.16 36.9765 703.754 Q38.5699 706.347 41.4602 708.015 L58.3943 708.015 Z" fill="#000000" fill-rule="evenodd" fill-opacity="1" /><path clip-path="url(#clip950)" d="M 0 0 M66.2871 681.002 L8.96291 681.002 L8.96291 624.826 L66.2871 624.826 L66.2871 681.002 M58.5426 676.444 L37.5694 655.471 L16.7074 676.444 L58.5426 676.444 M61.7293 673.776 L61.7293 632.052 L40.7561 652.914 L61.7293 673.776 M13.5207 673.776 L34.4568 652.914 L13.5207 632.052 L13.5207 673.776 M37.5694 650.32 L58.5426 629.384 L16.7074 629.384 L37.5694 650.32 Z" fill="#000000" fill-rule="evenodd" fill-opacity="1" /><path clip-path="url(#clip950)" d="M 0 0 M1059.31 51.84 L1059.31 49.8946 L1060.83 49.8946 Q1064.26 49.8946 1065.03 49.3388 Q1065.83 48.7521 1065.83 46.8993 L1065.83 13.5807 Q1065.83 11.7588 1065.03 11.203 Q1064.22 10.6163 1060.83 10.6163 L1059.31 10.6163 L1059.31 8.64 L1081.64 8.64 Q1088.03 8.64 1092.29 12.1602 Q1096.55 15.6805 1096.55 20.405 Q1096.55 25.0986 1092.2 28.4953 Q1087.88 31.8612 1082.13 31.8612 L1071.45 31.8612 L1071.45 46.8993 Q1071.45 48.7212 1072.22 49.3079 Q1073.02 49.8946 1076.45 49.8946 L1077.97 49.8946 L1077.97 51.84 Q1075.74 51.6547 1068.61 51.6547 Q1061.54 51.6547 1059.31 51.84 M1071.26 30.2246 L1079.97 30.2246 Q1082.81 30.2246 1084.88 29.4217 Q1086.95 28.6188 1087.88 27.6616 Q1088.83 26.6735 1089.36 25.0986 Q1089.92 23.4929 1089.98 22.6283 Q1090.04 21.7328 1090.04 20.405 Q1090.04 19.0154 1089.98 18.1508 Q1089.92 17.2553 1089.36 15.6805 Q1088.83 14.0747 1087.88 13.1175 Q1086.95 12.1293 1084.88 11.3882 Q1082.84 10.6163 1079.97 10.6163 L1074.35 10.6163 Q1072.19 10.6163 1071.73 11.0486 Q1071.26 11.4809 1071.26 13.1484 L1071.26 30.2246 Z" fill="#000000" fill-rule="evenodd" fill-opacity="1" /><path clip-path="url(#clip950)" d="M 0 0 M1098.31 51.84 L1098.31 49.8946 Q1101.68 49.8946 1102.45 49.4932 Q1103.26 49.0609 1103.26 47.0228 L1103.26 30.0702 Q1103.26 27.7233 1102.42 27.1366 Q1101.62 26.5499 1098.31 26.5499 L1098.31 24.5737 L1107.12 23.8943 L1107.12 30.8421 Q1108.01 28.1248 1109.89 26.025 Q1111.81 23.8943 1114.9 23.8943 Q1116.93 23.8943 1118.23 25.0369 Q1119.56 26.1794 1119.56 27.7542 Q1119.56 29.1438 1118.7 29.854 Q1117.86 30.5334 1116.84 30.5334 Q1115.7 30.5334 1114.9 29.8231 Q1114.12 29.082 1114.12 27.816 Q1114.12 27.044 1114.46 26.4573 Q1114.84 25.8397 1115.11 25.6236 Q1115.39 25.4074 1115.58 25.3456 Q1115.45 25.2839 1114.9 25.2839 Q1111.41 25.2839 1109.4 28.7732 Q1107.42 32.2317 1107.42 37.1724 L1107.42 46.8993 Q1107.42 48.7212 1108.17 49.3079 Q1108.94 49.8946 1112.24 49.8946 L1113.57 49.8946 L1113.57 51.84 Q1111.04 51.6547 1105.54 51.6547 Q1104.77 51.6547 1103.56 51.6856 Q1102.36 51.7165 1100.79 51.7782 Q1099.21 51.84 1098.31 51.84 Z" fill="#000000" fill-rule="evenodd" fill-opacity="1" /><path clip-path="url(#clip950)" d="M 0 0 M1121.32 37.9135 Q1121.32 31.9538 1125.15 27.7233 Q1128.98 23.4929 1134.47 23.4929 Q1140.03 23.4929 1142.9 27.1058 Q1145.81 30.7186 1145.81 35.9063 Q1145.81 36.8636 1145.56 37.0489 Q1145.31 37.2341 1144.23 37.2341 L1126.57 37.2341 Q1126.57 43.6879 1128.48 46.7141 Q1131.14 50.9445 1135.62 50.9445 Q1136.23 50.9445 1136.98 50.821 Q1137.72 50.6975 1139.23 50.1725 Q1140.74 49.6167 1142.07 48.1654 Q1143.4 46.7141 1144.17 44.429 Q1144.36 43.5335 1144.97 43.5644 Q1145.81 43.5644 1145.81 44.3055 Q1145.81 44.8613 1145.19 46.1273 Q1144.6 47.3625 1143.46 48.8447 Q1142.32 50.3269 1140.09 51.4386 Q1137.9 52.5502 1135.25 52.5502 Q1129.69 52.5502 1125.49 48.3507 Q1121.32 44.1202 1121.32 37.9135 M1126.63 35.9063 L1141.64 35.9063 Q1141.64 34.5785 1141.39 33.0963 Q1141.18 31.6141 1140.5 29.5761 Q1139.85 27.5072 1138.3 26.2103 Q1136.76 24.9133 1134.47 24.9133 Q1133.46 24.9133 1132.34 25.3456 Q1131.26 25.778 1129.94 26.8278 Q1128.61 27.8777 1127.68 30.2554 Q1126.75 32.6331 1126.63 35.9063 Z" fill="#000000" fill-rule="evenodd" fill-opacity="1" /><path clip-path="url(#clip950)" d="M 0 0 M1147.91 51.0063 L1147.91 42.6689 Q1147.91 41.9587 1147.94 41.7116 Q1147.97 41.4646 1148.15 41.2793 Q1148.34 41.094 1148.71 41.094 Q1149.14 41.094 1149.3 41.2793 Q1149.48 41.4646 1149.61 42.1748 Q1150.56 46.5288 1152.6 48.8447 Q1154.67 51.1298 1158.41 51.1298 Q1161.96 51.1298 1163.75 49.5549 Q1165.54 47.9801 1165.54 45.3862 Q1165.54 40.7544 1158.96 39.581 Q1155.16 38.809 1153.59 38.3149 Q1152.01 37.79 1150.62 36.6474 Q1147.91 34.4241 1147.91 31.2745 Q1147.91 28.1248 1150.28 25.8088 Q1152.69 23.4929 1158 23.4929 Q1161.56 23.4929 1163.96 25.2839 Q1164.67 24.7281 1165.04 24.2649 Q1165.88 23.4929 1166.31 23.4929 Q1166.8 23.4929 1166.9 23.8326 Q1166.99 24.1414 1166.99 25.0369 L1166.99 31.398 Q1166.99 32.1082 1166.96 32.3552 Q1166.93 32.6023 1166.74 32.7875 Q1166.56 32.9419 1166.16 32.9419 Q1165.45 32.9419 1165.42 32.3552 Q1164.92 24.6972 1158 24.6972 Q1154.27 24.6972 1152.6 26.1485 Q1150.93 27.5689 1150.93 29.5143 Q1150.93 30.5951 1151.43 31.4288 Q1151.95 32.2317 1152.6 32.7258 Q1153.28 33.189 1154.51 33.6522 Q1155.75 34.0845 1156.49 34.2389 Q1157.26 34.3933 1158.71 34.702 Q1163.78 35.6593 1165.91 37.7282 Q1168.56 40.3838 1168.56 43.7496 Q1168.56 47.486 1166.03 50.0181 Q1163.5 52.5502 1158.41 52.5502 Q1154.3 52.5502 1151.43 49.802 Q1151.06 50.1725 1150.78 50.5122 Q1150.5 50.821 1150.38 50.9445 Q1150.28 51.068 1150.25 51.1607 Q1150.22 51.2224 1150.16 51.2842 Q1148.89 52.5502 1148.59 52.5502 Q1148.09 52.5502 1148 52.2106 Q1147.91 51.9018 1147.91 51.0063 Z" fill="#000000" fill-rule="evenodd" fill-opacity="1" /><path clip-path="url(#clip950)" d="M 0 0 M1170.66 51.0063 L1170.66 42.6689 Q1170.66 41.9587 1170.7 41.7116 Q1170.73 41.4646 1170.91 41.2793 Q1171.1 41.094 1171.47 41.094 Q1171.9 41.094 1172.05 41.2793 Q1172.24 41.4646 1172.36 42.1748 Q1173.32 46.5288 1175.36 48.8447 Q1177.43 51.1298 1181.16 51.1298 Q1184.71 51.1298 1186.51 49.5549 Q1188.3 47.9801 1188.3 45.3862 Q1188.3 40.7544 1181.72 39.581 Q1177.92 38.809 1176.35 38.3149 Q1174.77 37.79 1173.38 36.6474 Q1170.66 34.4241 1170.66 31.2745 Q1170.66 28.1248 1173.04 25.8088 Q1175.45 23.4929 1180.76 23.4929 Q1184.31 23.4929 1186.72 25.2839 Q1187.43 24.7281 1187.8 24.2649 Q1188.64 23.4929 1189.07 23.4929 Q1189.56 23.4929 1189.66 23.8326 Q1189.75 24.1414 1189.75 25.0369 L1189.75 31.398 Q1189.75 32.1082 1189.72 32.3552 Q1189.69 32.6023 1189.5 32.7875 Q1189.32 32.9419 1188.91 32.9419 Q1188.2 32.9419 1188.17 32.3552 Q1187.68 24.6972 1180.76 24.6972 Q1177.03 24.6972 1175.36 26.1485 Q1173.69 27.5689 1173.69 29.5143 Q1173.69 30.5951 1174.18 31.4288 Q1174.71 32.2317 1175.36 32.7258 Q1176.04 33.189 1177.27 33.6522 Q1178.51 34.0845 1179.25 34.2389 Q1180.02 34.3933 1181.47 34.702 Q1186.54 35.6593 1188.67 37.7282 Q1191.32 40.3838 1191.32 43.7496 Q1191.32 47.486 1188.79 50.0181 Q1186.26 52.5502 1181.16 52.5502 Q1177.06 52.5502 1174.18 49.802 Q1173.81 50.1725 1173.54 50.5122 Q1173.26 50.821 1173.14 50.9445 Q1173.04 51.068 1173.01 51.1607 Q1172.98 51.2224 1172.92 51.2842 Q1171.65 52.5502 1171.34 52.5502 Q1170.85 52.5502 1170.76 52.2106 Q1170.66 51.9018 1170.66 51.0063 Z" fill="#000000" fill-rule="evenodd" fill-opacity="1" /><path clip-path="url(#clip950)" d="M 0 0 M1193.36 26.5499 L1193.36 24.5737 L1202.66 23.8943 L1202.66 44.8922 Q1202.66 46.4053 1202.78 47.3008 Q1202.9 48.1654 1203.4 49.1844 Q1203.92 50.2034 1205.1 50.6666 Q1206.3 51.1298 1208.21 51.1298 Q1211.64 51.1298 1213.74 48.3198 Q1215.87 45.5098 1215.87 41.3411 L1215.87 30.0702 Q1215.87 27.7233 1215.04 27.1366 Q1214.2 26.5499 1210.93 26.5499 L1210.93 24.5737 L1220.23 23.8943 L1220.23 46.3435 Q1220.23 48.6903 1221.03 49.3079 Q1221.86 49.8946 1225.17 49.8946 L1225.17 51.84 L1216.06 52.5502 L1216.06 46.8376 Q1213.4 52.5193 1207.91 52.5502 Q1205.13 52.5502 1203.21 51.84 Q1201.33 51.1298 1200.37 50.2652 Q1199.41 49.3697 1198.89 47.6713 Q1198.39 45.973 1198.33 44.9231 Q1198.27 43.8732 1198.27 41.8351 L1198.27 32.3552 Q1198.27 28.063 1197.65 27.3219 Q1197.04 26.5499 1193.36 26.5499 Z" fill="#000000" fill-rule="evenodd" fill-opacity="1" /><path clip-path="url(#clip950)" d="M 0 0 M1226.93 51.84 L1226.93 49.8946 Q1230.29 49.8946 1231.06 49.4932 Q1231.87 49.0609 1231.87 47.0228 L1231.87 30.0702 Q1231.87 27.7233 1231.03 27.1366 Q1230.23 26.5499 1226.93 26.5499 L1226.93 24.5737 L1235.73 23.8943 L1235.73 30.8421 Q1236.62 28.1248 1238.51 26.025 Q1240.42 23.8943 1243.51 23.8943 Q1245.55 23.8943 1246.84 25.0369 Q1248.17 26.1794 1248.17 27.7542 Q1248.17 29.1438 1247.31 29.854 Q1246.47 30.5334 1245.45 30.5334 Q1244.31 30.5334 1243.51 29.8231 Q1242.74 29.082 1242.74 27.816 Q1242.74 27.044 1243.08 26.4573 Q1243.45 25.8397 1243.72 25.6236 Q1244 25.4074 1244.19 25.3456 Q1244.06 25.2839 1243.51 25.2839 Q1240.02 25.2839 1238.01 28.7732 Q1236.04 32.2317 1236.04 37.1724 L1236.04 46.8993 Q1236.04 48.7212 1236.78 49.3079 Q1237.55 49.8946 1240.85 49.8946 L1242.18 49.8946 L1242.18 51.84 Q1239.65 51.6547 1234.15 51.6547 Q1233.38 51.6547 1232.18 51.6856 Q1230.97 51.7165 1229.4 51.7782 Q1227.82 51.84 1226.93 51.84 Z" fill="#000000" fill-rule="evenodd" fill-opacity="1" /><path clip-path="url(#clip950)" d="M 0 0 M1249.93 37.9135 Q1249.93 31.9538 1253.76 27.7233 Q1257.59 23.4929 1263.09 23.4929 Q1268.64 23.4929 1271.52 27.1058 Q1274.42 30.7186 1274.42 35.9063 Q1274.42 36.8636 1274.17 37.0489 Q1273.92 37.2341 1272.84 37.2341 L1255.18 37.2341 Q1255.18 43.6879 1257.1 46.7141 Q1259.75 50.9445 1264.23 50.9445 Q1264.85 50.9445 1265.59 50.821 Q1266.33 50.6975 1267.84 50.1725 Q1269.35 49.6167 1270.68 48.1654 Q1272.01 46.7141 1272.78 44.429 Q1272.97 43.5335 1273.59 43.5644 Q1274.42 43.5644 1274.42 44.3055 Q1274.42 44.8613 1273.8 46.1273 Q1273.21 47.3625 1272.07 48.8447 Q1270.93 50.3269 1268.71 51.4386 Q1266.51 52.5502 1263.86 52.5502 Q1258.3 52.5502 1254.1 48.3507 Q1249.93 44.1202 1249.93 37.9135 M1255.24 35.9063 L1270.25 35.9063 Q1270.25 34.5785 1270 33.0963 Q1269.79 31.6141 1269.11 29.5761 Q1268.46 27.5072 1266.92 26.2103 Q1265.37 24.9133 1263.09 24.9133 Q1262.07 24.9133 1260.96 25.3456 Q1259.87 25.778 1258.55 26.8278 Q1257.22 27.8777 1256.29 30.2554 Q1255.37 32.6331 1255.24 35.9063 Z" fill="#000000" fill-rule="evenodd" fill-opacity="1" /><path clip-path="url(#clip950)" d="M 0 0 M1296.65 26.5499 L1296.65 24.5737 Q1299.49 24.7589 1302.8 24.7589 Q1304 24.7589 1309.68 24.5737 L1309.68 26.5499 Q1306.07 26.5499 1306.07 28.1865 Q1306.07 28.4336 1306.44 29.2673 L1313.54 46.8993 L1320 30.7804 Q1320.37 29.6996 1320.37 29.2673 Q1320.37 28.1865 1319.63 27.4146 Q1318.92 26.6117 1317.34 26.5499 L1317.34 24.5737 Q1320.55 24.7589 1322.84 24.7589 Q1325.43 24.7589 1327.56 24.5737 L1327.56 26.5499 Q1325.68 26.5499 1324.35 27.4146 Q1323.02 28.2483 1322.59 28.9894 Q1322.19 29.6996 1321.76 30.7804 L1313.48 51.3459 Q1312.99 52.5502 1312.15 52.5502 Q1311.6 52.5502 1311.35 52.3032 Q1311.13 52.087 1310.83 51.3459 L1301.72 28.8968 Q1301.1 27.3219 1300.3 26.9514 Q1299.49 26.5499 1296.65 26.5499 Z" fill="#000000" fill-rule="evenodd" fill-opacity="1" /><path clip-path="url(#clip950)" d="M 0 0 M1328.46 45.8186 Q1328.46 40.4456 1334.79 37.6047 Q1338.59 35.7828 1346.43 35.3196 L1346.43 33.0037 Q1346.43 29.082 1344.36 27.0131 Q1342.32 24.9133 1339.73 24.9133 Q1335.1 24.9133 1332.87 27.816 Q1334.76 27.8777 1335.44 28.835 Q1336.12 29.7614 1336.12 30.7186 Q1336.12 31.9847 1335.31 32.8184 Q1334.54 33.6213 1333.21 33.6213 Q1331.95 33.6213 1331.11 32.8493 Q1330.28 32.0464 1330.28 30.6569 Q1330.28 27.5689 1333.06 25.5309 Q1335.87 23.4929 1339.85 23.4929 Q1345.04 23.4929 1348.5 26.9822 Q1349.58 28.063 1350.1 29.4526 Q1350.66 30.8421 1350.72 31.7685 Q1350.78 32.664 1350.78 34.455 L1350.78 47.0846 Q1350.78 47.4552 1350.91 48.0727 Q1351.03 48.6903 1351.59 49.4932 Q1352.17 50.2652 1353.13 50.2652 Q1355.41 50.2652 1355.38 46.22 L1355.38 42.6689 L1356.99 42.6689 L1356.99 46.22 Q1356.99 49.5858 1355.2 50.9136 Q1353.44 52.2106 1351.8 52.2106 Q1349.7 52.2106 1348.37 50.6666 Q1347.05 49.1226 1346.86 47.0228 Q1345.9 49.4314 1343.71 51.0063 Q1341.55 52.5502 1338.59 52.5502 Q1336.3 52.5502 1334.14 51.9635 Q1332.01 51.4077 1330.22 49.8329 Q1328.46 48.2271 1328.46 45.8186 M1333.34 45.7568 Q1333.34 48.1036 1335 49.6167 Q1336.67 51.1298 1339.02 51.1298 Q1341.67 51.1298 1344.05 49.0918 Q1346.43 47.0228 1346.43 42.9777 L1346.43 36.6474 Q1339.42 36.8945 1336.36 39.7045 Q1333.34 42.4836 1333.34 45.7568 Z" fill="#000000" fill-rule="evenodd" fill-opacity="1" /><path clip-path="url(#clip950)" d="M 0 0 M1358.75 51.84 L1358.75 49.8946 Q1362.12 49.8946 1362.89 49.4932 Q1363.69 49.0609 1363.69 47.0228 L1363.69 30.0702 Q1363.69 27.7233 1362.86 27.1366 Q1362.05 26.5499 1358.75 26.5499 L1358.75 24.5737 L1367.55 23.8943 L1367.55 30.8421 Q1368.45 28.1248 1370.33 26.025 Q1372.24 23.8943 1375.33 23.8943 Q1377.37 23.8943 1378.67 25.0369 Q1379.99 26.1794 1379.99 27.7542 Q1379.99 29.1438 1379.13 29.854 Q1378.3 30.5334 1377.28 30.5334 Q1376.13 30.5334 1375.33 29.8231 Q1374.56 29.082 1374.56 27.816 Q1374.56 27.044 1374.9 26.4573 Q1375.27 25.8397 1375.55 25.6236 Q1375.83 25.4074 1376.01 25.3456 Q1375.89 25.2839 1375.33 25.2839 Q1371.84 25.2839 1369.84 28.7732 Q1367.86 32.2317 1367.86 37.1724 L1367.86 46.8993 Q1367.86 48.7212 1368.6 49.3079 Q1369.37 49.8946 1372.68 49.8946 L1374 49.8946 L1374 51.84 Q1371.47 51.6547 1365.98 51.6547 Q1365.2 51.6547 1364 51.6856 Q1362.8 51.7165 1361.22 51.7782 Q1359.65 51.84 1358.75 51.84 Z" fill="#000000" fill-rule="evenodd" fill-opacity="1" /><path clip-path="url(#clip950)" d="M 0 0 M1382.09 51.84 L1382.09 49.8946 Q1385.46 49.8946 1386.23 49.4932 Q1387 49.0609 1387 47.0228 L1387 30.0084 Q1387 27.6616 1386.2 27.1058 Q1385.43 26.5499 1382.34 26.5499 L1382.34 24.5737 L1391.17 23.8943 L1391.17 47.0846 Q1391.17 48.9682 1391.85 49.4314 Q1392.53 49.8946 1395.62 49.8946 L1395.62 51.84 Q1389.17 51.6547 1389.04 51.6547 Q1388.18 51.6547 1382.09 51.84 M1384.75 12.8705 Q1384.75 11.6044 1385.71 10.5854 Q1386.7 9.5355 1388.09 9.5355 Q1389.47 9.5355 1390.46 10.4928 Q1391.45 11.4191 1391.45 12.9013 Q1391.45 14.3527 1390.46 15.3099 Q1389.47 16.2363 1388.09 16.2363 Q1386.63 16.2363 1385.68 15.2173 Q1384.75 14.1983 1384.75 12.8705 Z" fill="#000000" fill-rule="evenodd" fill-opacity="1" /><path clip-path="url(#clip950)" d="M 0 0 M1398.28 45.8186 Q1398.28 40.4456 1404.61 37.6047 Q1408.4 35.7828 1416.25 35.3196 L1416.25 33.0037 Q1416.25 29.082 1414.18 27.0131 Q1412.14 24.9133 1409.55 24.9133 Q1404.91 24.9133 1402.69 27.816 Q1404.57 27.8777 1405.25 28.835 Q1405.93 29.7614 1405.93 30.7186 Q1405.93 31.9847 1405.13 32.8184 Q1404.36 33.6213 1403.03 33.6213 Q1401.76 33.6213 1400.93 32.8493 Q1400.1 32.0464 1400.1 30.6569 Q1400.1 27.5689 1402.88 25.5309 Q1405.69 23.4929 1409.67 23.4929 Q1414.86 23.4929 1418.32 26.9822 Q1419.4 28.063 1419.92 29.4526 Q1420.48 30.8421 1420.54 31.7685 Q1420.6 32.664 1420.6 34.455 L1420.6 47.0846 Q1420.6 47.4552 1420.72 48.0727 Q1420.85 48.6903 1421.4 49.4932 Q1421.99 50.2652 1422.95 50.2652 Q1425.23 50.2652 1425.2 46.22 L1425.2 42.6689 L1426.81 42.6689 L1426.81 46.22 Q1426.81 49.5858 1425.02 50.9136 Q1423.26 52.2106 1421.62 52.2106 Q1419.52 52.2106 1418.19 50.6666 Q1416.86 49.1226 1416.68 47.0228 Q1415.72 49.4314 1413.53 51.0063 Q1411.37 52.5502 1408.4 52.5502 Q1406.12 52.5502 1403.96 51.9635 Q1401.83 51.4077 1400.04 49.8329 Q1398.28 48.2271 1398.28 45.8186 M1403.15 45.7568 Q1403.15 48.1036 1404.82 49.6167 Q1406.49 51.1298 1408.84 51.1298 Q1411.49 51.1298 1413.87 49.0918 Q1416.25 47.0228 1416.25 42.9777 L1416.25 36.6474 Q1409.24 36.8945 1406.18 39.7045 Q1403.15 42.4836 1403.15 45.7568 Z" fill="#000000" fill-rule="evenodd" fill-opacity="1" /><path clip-path="url(#clip950)" d="M 0 0 M1428.01 26.5499 L1428.01 25.1604 Q1430.91 25.0369 1432.83 22.9988 Q1434.77 20.9299 1435.42 18.3978 Q1436.1 15.8657 1436.16 12.9322 L1437.74 12.9322 L1437.74 24.5737 L1446.79 24.5737 L1446.79 26.5499 L1437.74 26.5499 L1437.74 44.1202 Q1437.74 50.9445 1442 50.9445 Q1443.82 50.9445 1445.03 49.0918 Q1446.23 47.2081 1446.23 43.8732 L1446.23 40.3838 L1447.81 40.3838 L1447.81 43.9967 Q1447.81 47.4243 1446.23 49.9872 Q1444.66 52.5502 1441.54 52.5502 Q1440.39 52.5502 1439.25 52.2414 Q1438.14 51.9635 1436.66 51.2224 Q1435.21 50.4504 1434.28 48.5977 Q1433.38 46.7141 1433.38 43.9967 L1433.38 26.5499 L1428.01 26.5499 Z" fill="#000000" fill-rule="evenodd" fill-opacity="1" /><path clip-path="url(#clip950)" d="M 0 0 M1449.91 51.84 L1449.91 49.8946 Q1453.27 49.8946 1454.04 49.4932 Q1454.82 49.0609 1454.82 47.0228 L1454.82 30.0084 Q1454.82 27.6616 1454.01 27.1058 Q1453.24 26.5499 1450.15 26.5499 L1450.15 24.5737 L1458.98 23.8943 L1458.98 47.0846 Q1458.98 48.9682 1459.66 49.4314 Q1460.34 49.8946 1463.43 49.8946 L1463.43 51.84 Q1456.98 51.6547 1456.85 51.6547 Q1455.99 51.6547 1449.91 51.84 M1452.56 12.8705 Q1452.56 11.6044 1453.52 10.5854 Q1454.51 9.5355 1455.9 9.5355 Q1457.29 9.5355 1458.27 10.4928 Q1459.26 11.4191 1459.26 12.9013 Q1459.26 14.3527 1458.27 15.3099 Q1457.29 16.2363 1455.9 16.2363 Q1454.44 16.2363 1453.49 15.2173 Q1452.56 14.1983 1452.56 12.8705 Z" fill="#000000" fill-rule="evenodd" fill-opacity="1" /><path clip-path="url(#clip950)" d="M 0 0 M1469.36 48.4433 Q1465.19 44.3055 1465.19 38.3149 Q1465.19 32.2935 1469.27 27.9086 Q1473.37 23.4929 1479.24 23.4929 Q1484.98 23.4929 1489.09 27.8777 Q1493.23 32.2317 1493.23 38.3149 Q1493.23 44.2746 1489.06 48.4124 Q1484.92 52.5502 1479.18 52.5502 Q1473.56 52.5502 1469.36 48.4433 M1470.44 37.79 Q1470.44 43.9349 1472.05 46.7141 Q1474.52 50.9445 1479.24 50.9445 Q1481.59 50.9445 1483.53 49.6785 Q1485.51 48.4124 1486.59 46.2817 Q1487.98 43.5026 1487.98 37.79 Q1487.98 31.7068 1486.31 29.0203 Q1483.84 24.9133 1479.18 24.9133 Q1477.14 24.9133 1475.13 25.9941 Q1473.16 27.044 1471.95 29.1438 Q1470.44 31.9229 1470.44 37.79 Z" fill="#000000" fill-rule="evenodd" fill-opacity="1" /><path clip-path="url(#clip950)" d="M 0 0 M1495.27 51.84 L1495.27 49.8946 Q1498.63 49.8946 1499.4 49.4932 Q1500.18 49.0609 1500.18 47.0228 L1500.18 30.0702 Q1500.18 27.7233 1499.34 27.1366 Q1498.54 26.5499 1495.27 26.5499 L1495.27 24.5737 L1504.16 23.8943 L1504.16 30.5334 Q1507.12 23.8943 1513.52 23.8943 Q1518.27 23.8943 1520.16 26.2411 Q1521.55 27.816 1521.82 29.5761 Q1522.13 31.3362 1522.13 35.9063 L1522.13 47.9801 Q1522.19 49.3079 1523.21 49.6167 Q1524.23 49.8946 1527.07 49.8946 L1527.07 51.84 Q1520.62 51.6547 1519.97 51.6547 Q1519.48 51.6547 1512.84 51.84 L1512.84 49.8946 Q1516.2 49.8946 1516.97 49.4932 Q1517.78 49.0609 1517.78 47.0228 L1517.78 32.2935 Q1517.78 29.082 1516.79 27.1984 Q1515.8 25.2839 1513.08 25.2839 Q1509.81 25.2839 1507.19 28.0321 Q1504.56 30.7804 1504.56 35.4123 L1504.56 47.0228 Q1504.56 49.0609 1505.33 49.4932 Q1506.14 49.8946 1509.47 49.8946 L1509.47 51.84 Q1503.02 51.6547 1502.4 51.6547 Q1501.91 51.6547 1495.27 51.84 Z" fill="#000000" fill-rule="evenodd" fill-opacity="1" /><polyline clip-path="url(#clip952)" style="stroke:#4477aa; stroke-width:4.8; stroke-opacity:1; fill:none" points="
  293.606,1373.31 313.13,1371.18 493.653,1342.97 602.141,1318.64 693.865,1293.74 793.504,1262.21 885.362,1228.99 983.843,1188.97 1097.94,1136.9 1199.34,1085.47 
  1288.26,1036.39 1385.2,978.644 1482.72,916.086 1590.55,841.709 1693.14,765.86 1799.8,681.74 1889.6,606.775 1999.22,510.106 2102.28,414.075 2267.37,249.804 
  2292.78,223.384 
  "/>
<polyline clip-path="url(#clip952)" style="stroke:#ee6677; stroke-width:4.8; stroke-opacity:1; fill:none" points="
  293.606,1373.31 313.13,1371.03 493.653,1340.85 602.141,1314.82 693.865,1288.18 793.504,1254.45 885.362,1218.92 983.843,1176.1 1097.94,1120.39 1199.34,1065.37 
  1288.26,1012.87 1385.2,951.089 1482.72,884.164 1590.55,804.594 1693.14,723.449 1799.8,633.456 1889.6,553.258 1999.22,449.839 2102.28,347.103 2267.37,171.363 
  2292.78,143.099 
  "/>
<path clip-path="url(#clip950)" d="
M1789.2 421.82 L2282.12 421.82 L2282.12 149.66 L1789.2 149.66  Z
  " fill="#ffffff" fill-rule="evenodd" fill-opacity="0.9"/>
<polyline clip-path="url(#clip950)" style="stroke:#222255; stroke-width:4; stroke-opacity:0.1; fill:none" points="
  1789.2,421.82 2282.12,421.82 2282.12,149.66 1789.2,149.66 1789.2,421.82 
  "/>
<polyline clip-path="url(#clip950)" style="stroke:#4477aa; stroke-width:6; stroke-opacity:1; fill:none" points="
  1812.75,240.38 1954.02,240.38 
  "/>
<path clip-path="url(#clip950)" d="M 0 0 M1977.57 239.879 Q1977.57 238.657 1977.98 237.212 Q1978.42 235.729 1979.79 234.284 Q1981.16 232.839 1983.2 232.839 Q1987.13 232.839 1990.2 238.36 Q1993.28 243.844 1996.61 256.147 Q1998.13 250.774 2000.43 244.993 Q2001.36 242.733 2002.02 241.325 Q2002.69 239.879 2004.1 237.582 Q2005.51 235.248 2007.25 234.062 Q2008.99 232.839 2011.03 232.839 Q2012.62 232.839 2013.51 233.802 Q2014.4 234.729 2014.4 235.952 Q2014.4 237.767 2012.88 238.694 Q2012.36 238.99 2011.1 239.175 Q2009.84 239.361 2008.81 239.657 Q2007.77 239.954 2006.17 241.695 Q2004.58 243.4 2003.06 246.586 Q2001.17 250.514 1999.5 255.331 Q1997.84 260.149 1997.84 261.297 Q1997.84 261.816 1998.21 263.965 Q1998.62 266.077 1998.99 269.783 Q1999.36 273.525 1999.36 277.75 Q1999.36 278.676 1999.28 279.121 Q1999.13 280.121 1998.36 280.751 Q1997.62 281.418 1996.54 281.418 Q1993.65 281.418 1993.65 277.676 L1993.65 277.305 Q1993.65 274.044 1994.06 270.153 Q1994.5 266.3 1994.95 263.706 L1995.35 261.223 Q1995.35 259.63 1992.95 252.775 Q1990.57 245.882 1988.57 242.918 Q1986.13 239.212 1982.83 239.212 Q1981.31 239.212 1980.57 239.546 Q1979.87 239.879 1979.5 240.435 Q1979.16 240.954 1979.01 241.028 Q1978.57 241.325 1978.05 240.991 Q1977.57 240.621 1977.57 239.879 Z" fill="#000000" fill-rule="evenodd" fill-opacity="1" /><path clip-path="url(#clip950)" d="M 0 0 M2043.97 254.776 Q2044.05 253.849 2045.49 253.849 L2091.99 253.849 Q2094.18 253.849 2094.22 254.701 Q2094.22 255.628 2092.14 255.591 L2046.01 255.591 Q2043.97 255.628 2043.97 254.776 M2043.97 239.954 Q2043.97 239.027 2045.56 239.064 L2091.92 239.064 Q2094.18 239.064 2094.22 239.954 Q2094.22 240.806 2092.29 240.806 L2045.49 240.806 Q2043.97 240.806 2043.97 239.954 Z" fill="#000000" fill-rule="evenodd" fill-opacity="1" /><path clip-path="url(#clip950)" d="M 0 0 M2126.2 222.982 L2126.2 220.611 Q2135.31 220.611 2140.02 215.757 Q2141.31 215.757 2141.54 216.053 Q2141.76 216.35 2141.76 217.721 L2141.76 260.297 Q2141.76 262.557 2142.87 263.261 Q2143.98 263.965 2148.84 263.965 L2151.25 263.965 L2151.25 266.3 Q2148.58 266.077 2138.94 266.077 Q2129.31 266.077 2126.68 266.3 L2126.68 263.965 L2129.09 263.965 Q2133.87 263.965 2135.02 263.298 Q2136.16 262.594 2136.16 260.297 L2136.16 220.981 Q2132.2 222.982 2126.2 222.982 Z" fill="#000000" fill-rule="evenodd" fill-opacity="1" /><path clip-path="url(#clip950)" d="M 0 0 M2158.84 265.077 Q2157.69 263.854 2157.69 262.261 Q2157.69 260.667 2158.84 259.519 Q2159.99 258.333 2161.73 258.333 Q2163.4 258.333 2164.51 259.445 Q2165.66 260.519 2165.66 262.298 Q2165.66 264.039 2164.44 265.188 Q2163.25 266.3 2161.73 266.3 Q2159.99 266.3 2158.84 265.077 Z" fill="#000000" fill-rule="evenodd" fill-opacity="1" /><path clip-path="url(#clip950)" d="M 0 0 M2167.77 253.775 L2167.77 251.441 L2191.08 215.831 Q2191.67 214.904 2192.6 214.941 Q2193.45 214.941 2193.64 215.275 Q2193.82 215.608 2193.82 216.905 L2193.82 251.441 L2201.42 251.441 L2201.42 253.775 L2193.82 253.775 L2193.82 260.371 Q2193.82 262.557 2194.71 263.261 Q2195.64 263.965 2199.57 263.965 L2201.16 263.965 L2201.16 266.3 Q2198.05 266.077 2190.86 266.077 Q2183.71 266.077 2180.59 266.3 L2180.59 263.965 L2182.19 263.965 Q2186.11 263.965 2187.04 263.298 Q2187.97 262.594 2187.97 260.371 L2187.97 253.775 L2167.77 253.775 M2169.92 251.441 L2188.41 251.441 L2188.41 223.131 L2169.92 251.441 Z" fill="#000000" fill-rule="evenodd" fill-opacity="1" /><polyline clip-path="url(#clip950)" style="stroke:#ee6677; stroke-width:6; stroke-opacity:1; fill:none" points="
  1812.75,331.1 1954.02,331.1 
  "/>
<path clip-path="url(#clip950)" d="M 0 0 M1977.57 330.599 Q1977.57 329.377 1977.98 327.932 Q1978.42 326.449 1979.79 325.004 Q1981.16 323.559 1983.2 323.559 Q1987.13 323.559 1990.2 329.08 Q1993.28 334.564 1996.61 346.867 Q1998.13 341.494 2000.43 335.713 Q2001.36 333.453 2002.02 332.045 Q2002.69 330.599 2004.1 328.302 Q2005.51 325.968 2007.25 324.782 Q2008.99 323.559 2011.03 323.559 Q2012.62 323.559 2013.51 324.522 Q2014.4 325.449 2014.4 326.672 Q2014.4 328.487 2012.88 329.414 Q2012.36 329.71 2011.1 329.895 Q2009.84 330.081 2008.81 330.377 Q2007.77 330.674 2006.17 332.415 Q2004.58 334.12 2003.06 337.306 Q2001.17 341.234 1999.5 346.051 Q1997.84 350.869 1997.84 352.017 Q1997.84 352.536 1998.21 354.685 Q1998.62 356.797 1998.99 360.503 Q1999.36 364.245 1999.36 368.47 Q1999.36 369.396 1999.28 369.841 Q1999.13 370.841 1998.36 371.471 Q1997.62 372.138 1996.54 372.138 Q1993.65 372.138 1993.65 368.396 L1993.65 368.025 Q1993.65 364.764 1994.06 360.873 Q1994.5 357.02 1994.95 354.426 L1995.35 351.943 Q1995.35 350.35 1992.95 343.495 Q1990.57 336.602 1988.57 333.638 Q1986.13 329.932 1982.83 329.932 Q1981.31 329.932 1980.57 330.266 Q1979.87 330.599 1979.5 331.155 Q1979.16 331.674 1979.01 331.748 Q1978.57 332.045 1978.05 331.711 Q1977.57 331.341 1977.57 330.599 Z" fill="#000000" fill-rule="evenodd" fill-opacity="1" /><path clip-path="url(#clip950)" d="M 0 0 M2043.97 345.496 Q2044.05 344.569 2045.49 344.569 L2091.99 344.569 Q2094.18 344.569 2094.22 345.421 Q2094.22 346.348 2092.14 346.311 L2046.01 346.311 Q2043.97 346.348 2043.97 345.496 M2043.97 330.674 Q2043.97 329.747 2045.56 329.784 L2091.92 329.784 Q2094.18 329.784 2094.22 330.674 Q2094.22 331.526 2092.29 331.526 L2045.49 331.526 Q2043.97 331.526 2043.97 330.674 Z" fill="#000000" fill-rule="evenodd" fill-opacity="1" /><path clip-path="url(#clip950)" d="M 0 0 M2126.2 313.702 L2126.2 311.331 Q2135.31 311.331 2140.02 306.477 Q2141.31 306.477 2141.54 306.773 Q2141.76 307.07 2141.76 308.441 L2141.76 351.017 Q2141.76 353.277 2142.87 353.981 Q2143.98 354.685 2148.84 354.685 L2151.25 354.685 L2151.25 357.02 Q2148.58 356.797 2138.94 356.797 Q2129.31 356.797 2126.68 357.02 L2126.68 354.685 L2129.09 354.685 Q2133.87 354.685 2135.02 354.018 Q2136.16 353.314 2136.16 351.017 L2136.16 311.701 Q2132.2 313.702 2126.2 313.702 Z" fill="#000000" fill-rule="evenodd" fill-opacity="1" /><path clip-path="url(#clip950)" d="M 0 0 M2158.84 355.797 Q2157.69 354.574 2157.69 352.981 Q2157.69 351.387 2158.84 350.239 Q2159.99 349.053 2161.73 349.053 Q2163.4 349.053 2164.51 350.165 Q2165.66 351.239 2165.66 353.018 Q2165.66 354.759 2164.44 355.908 Q2163.25 357.02 2161.73 357.02 Q2159.99 357.02 2158.84 355.797 Z" fill="#000000" fill-rule="evenodd" fill-opacity="1" /><path clip-path="url(#clip950)" d="M 0 0 M2168.85 333.045 Q2168.85 321.113 2174.92 313.814 Q2181 306.477 2188.82 306.477 Q2193.38 306.477 2195.9 308.811 Q2198.45 311.109 2198.45 314.666 Q2198.45 316.63 2197.3 317.482 Q2196.16 318.334 2194.97 318.334 Q2193.6 318.334 2192.52 317.408 Q2191.45 316.482 2191.45 314.814 Q2191.45 311.405 2195.64 311.405 Q2193.67 308.366 2188.97 308.366 Q2187.52 308.366 2186.04 308.811 Q2184.56 309.219 2182.63 310.627 Q2180.7 312.035 2179.22 314.258 Q2177.74 316.482 2176.7 320.669 Q2175.66 324.856 2175.66 330.303 L2175.66 332.119 Q2178.78 324.597 2185.15 324.634 Q2191.52 324.634 2195.93 329.488 Q2200.34 334.342 2200.34 341.531 Q2200.34 348.905 2195.75 353.796 Q2191.15 358.687 2184.71 358.687 Q2181.82 358.687 2179.18 357.464 Q2176.59 356.279 2174.15 353.537 Q2171.74 350.794 2170.29 345.533 Q2168.85 340.271 2168.85 333.045 M2175.81 339.863 Q2175.81 347.311 2177.18 350.869 Q2177.41 351.461 2177.89 352.277 Q2178.41 353.092 2179.26 354.166 Q2180.15 355.204 2181.59 355.908 Q2183.04 356.575 2184.71 356.575 Q2189.78 356.575 2192.23 351.647 Q2193.53 348.905 2193.53 341.457 Q2193.53 333.86 2192.15 331.081 Q2189.82 326.375 2185.08 326.375 Q2181.89 326.375 2179.67 328.561 Q2177.48 330.748 2176.63 333.675 Q2175.81 336.602 2175.81 339.863 Z" fill="#000000" fill-rule="evenodd" fill-opacity="1" /><path clip-path="url(#clip950)" d="M 0 0 M2203.53 333.045 Q2203.53 321.113 2209.61 313.814 Q2215.68 306.477 2223.5 306.477 Q2228.06 306.477 2230.58 308.811 Q2233.14 311.109 2233.14 314.666 Q2233.14 316.63 2231.99 317.482 Q2230.84 318.334 2229.65 318.334 Q2228.28 318.334 2227.21 317.408 Q2226.13 316.482 2226.13 314.814 Q2226.13 311.405 2230.32 311.405 Q2228.36 308.366 2223.65 308.366 Q2222.21 308.366 2220.72 308.811 Q2219.24 309.219 2217.31 310.627 Q2215.39 312.035 2213.91 314.258 Q2212.42 316.482 2211.39 320.669 Q2210.35 324.856 2210.35 330.303 L2210.35 332.119 Q2213.46 324.597 2219.83 324.634 Q2226.21 324.634 2230.62 329.488 Q2235.03 334.342 2235.03 341.531 Q2235.03 348.905 2230.43 353.796 Q2225.84 358.687 2219.39 358.687 Q2216.5 358.687 2213.87 357.464 Q2211.27 356.279 2208.83 353.537 Q2206.42 350.794 2204.98 345.533 Q2203.53 340.271 2203.53 333.045 M2210.5 339.863 Q2210.5 347.311 2211.87 350.869 Q2212.09 351.461 2212.57 352.277 Q2213.09 353.092 2213.94 354.166 Q2214.83 355.204 2216.28 355.908 Q2217.72 356.575 2219.39 356.575 Q2224.47 356.575 2226.91 351.647 Q2228.21 348.905 2228.21 341.457 Q2228.21 333.86 2226.84 331.081 Q2224.5 326.375 2219.76 326.375 Q2216.57 326.375 2214.35 328.561 Q2212.16 330.748 2211.31 333.675 Q2210.5 336.602 2210.5 339.863 Z" fill="#000000" fill-rule="evenodd" fill-opacity="1" /></svg>
