<?xml version="1.0" encoding="utf-8"?>
<svg xmlns="http://www.w3.org/2000/svg" xmlns:xlink="http://www.w3.org/1999/xlink" width="600" height="400" viewBox="0 0 2400 1600">
<defs>
  <clipPath id="clip290">
    <rect x="0" y="0" width="2400" height="1600"/>
  </clipPath>
</defs>
<path clip-path="url(#clip290)" d="
M0 1600 L2400 1600 L2400 0 L0 0  Z
  " fill="#ffffff" fill-rule="evenodd" fill-opacity="1"/>
<defs>
  <clipPath id="clip291">
    <rect x="480" y="0" width="1681" height="1600"/>
  </clipPath>
</defs>
<path clip-path="url(#clip290)" d="
M182.618 1410.22 L2352.76 1410.22 L2352.76 106.192 L182.618 106.192  Z
  " fill="#ffffff" fill-rule="evenodd" fill-opacity="1"/>
<defs>
  <clipPath id="clip292">
    <rect x="182" y="106" width="2171" height="1305"/>
  </clipPath>
</defs>
<polyline clip-path="url(#clip292)" style="stroke:#222255; stroke-width:4; stroke-opacity:0.1; fill:none" stroke-dasharray="16, 10" points="
  471.515,1410.22 471.515,106.192 
  "/>
<polyline clip-path="url(#clip292)" style="stroke:#222255; stroke-width:4; stroke-opacity:0.1; fill:none" stroke-dasharray="16, 10" points="
  926.471,1410.22 926.471,106.192 
  "/>
<polyline clip-path="url(#clip292)" style="stroke:#222255; stroke-width:4; stroke-opacity:0.1; fill:none" stroke-dasharray="16, 10" points="
  1381.43,1410.22 1381.43,106.192 
  "/>
<polyline clip-path="url(#clip292)" style="stroke:#222255; stroke-width:4; stroke-opacity:0.1; fill:none" stroke-dasharray="16, 10" points="
  1836.38,1410.22 1836.38,106.192 
  "/>
<polyline clip-path="url(#clip292)" style="stroke:#222255; stroke-width:4; stroke-opacity:0.1; fill:none" stroke-dasharray="16, 10" points="
  2291.34,1410.22 2291.34,106.192 
  "/>
<polyline clip-path="url(#clip292)" style="stroke:#222255; stroke-width:2; stroke-opacity:0.05; fill:none" points="
  198.542,1410.22 198.542,106.192 
  "/>
<polyline clip-path="url(#clip292)" style="stroke:#222255; stroke-width:2; stroke-opacity:0.05; fill:none" points="
  289.533,1410.22 289.533,106.192 
  "/>
<polyline clip-path="url(#clip292)" style="stroke:#222255; stroke-width:2; stroke-opacity:0.05; fill:none" points="
  380.524,1410.22 380.524,106.192 
  "/>
<polyline clip-path="url(#clip292)" style="stroke:#222255; stroke-width:2; stroke-opacity:0.05; fill:none" points="
  562.506,1410.22 562.506,106.192 
  "/>
<polyline clip-path="url(#clip292)" style="stroke:#222255; stroke-width:2; stroke-opacity:0.05; fill:none" points="
  653.497,1410.22 653.497,106.192 
  "/>
<polyline clip-path="url(#clip292)" style="stroke:#222255; stroke-width:2; stroke-opacity:0.05; fill:none" points="
  744.488,1410.22 744.488,106.192 
  "/>
<polyline clip-path="url(#clip292)" style="stroke:#222255; stroke-width:2; stroke-opacity:0.05; fill:none" points="
  835.48,1410.22 835.48,106.192 
  "/>
<polyline clip-path="url(#clip292)" style="stroke:#222255; stroke-width:2; stroke-opacity:0.05; fill:none" points="
  1017.46,1410.22 1017.46,106.192 
  "/>
<polyline clip-path="url(#clip292)" style="stroke:#222255; stroke-width:2; stroke-opacity:0.05; fill:none" points="
  1108.45,1410.22 1108.45,106.192 
  "/>
<polyline clip-path="url(#clip292)" style="stroke:#222255; stroke-width:2; stroke-opacity:0.05; fill:none" points="
  1199.44,1410.22 1199.44,106.192 
  "/>
<polyline clip-path="url(#clip292)" style="stroke:#222255; stroke-width:2; stroke-opacity:0.05; fill:none" points="
  1290.43,1410.22 1290.43,106.192 
  "/>
<polyline clip-path="url(#clip292)" style="stroke:#222255; stroke-width:2; stroke-opacity:0.05; fill:none" points="
  1472.42,1410.22 1472.42,106.192 
  "/>
<polyline clip-path="url(#clip292)" style="stroke:#222255; stroke-width:2; stroke-opacity:0.05; fill:none" points="
  1563.41,1410.22 1563.41,106.192 
  "/>
<polyline clip-path="url(#clip292)" style="stroke:#222255; stroke-width:2; stroke-opacity:0.05; fill:none" points="
  1654.4,1410.22 1654.4,106.192 
  "/>
<polyline clip-path="url(#clip292)" style="stroke:#222255; stroke-width:2; stroke-opacity:0.05; fill:none" points="
  1745.39,1410.22 1745.39,106.192 
  "/>
<polyline clip-path="url(#clip292)" style="stroke:#222255; stroke-width:2; stroke-opacity:0.05; fill:none" points="
  1927.37,1410.22 1927.37,106.192 
  "/>
<polyline clip-path="url(#clip292)" style="stroke:#222255; stroke-width:2; stroke-opacity:0.05; fill:none" points="
  2018.36,1410.22 2018.36,106.192 
  "/>
<polyline clip-path="url(#clip292)" style="stroke:#222255; stroke-width:2; stroke-opacity:0.05; fill:none" points="
  2109.35,1410.22 2109.35,106.192 
  "/>
<polyline clip-path="url(#clip292)" style="stroke:#222255; stroke-width:2; stroke-opacity:0.05; fill:none" points="
  2200.35,1410.22 2200.35,106.192 
  "/>
<polyline clip-path="url(#clip290)" style="stroke:#000000; stroke-width:4; stroke-opacity:1; fill:none" points="
  182.618,1410.22 2352.76,1410.22 
  "/>
<polyline clip-path="url(#clip290)" style="stroke:#000000; stroke-width:4; stroke-opacity:1; fill:none" points="
  182.618,106.192 2352.76,106.192 
  "/>
<polyline clip-path="url(#clip290)" style="stroke:#000000; stroke-width:4; stroke-opacity:1; fill:none" points="
  471.515,1410.22 471.515,1394.57 
  "/>
<polyline clip-path="url(#clip290)" style="stroke:#000000; stroke-width:4; stroke-opacity:1; fill:none" points="
  926.471,1410.22 926.471,1394.57 
  "/>
<polyline clip-path="url(#clip290)" style="stroke:#000000; stroke-width:4; stroke-opacity:1; fill:none" points="
  1381.43,1410.22 1381.43,1394.57 
  "/>
<polyline clip-path="url(#clip290)" style="stroke:#000000; stroke-width:4; stroke-opacity:1; fill:none" points="
  1836.38,1410.22 1836.38,1394.57 
  "/>
<polyline clip-path="url(#clip290)" style="stroke:#000000; stroke-width:4; stroke-opacity:1; fill:none" points="
  2291.34,1410.22 2291.34,1394.57 
  "/>
<polyline clip-path="url(#clip290)" style="stroke:#000000; stroke-width:4; stroke-opacity:1; fill:none" points="
  198.542,1410.22 198.542,1402.4 
  "/>
<polyline clip-path="url(#clip290)" style="stroke:#000000; stroke-width:4; stroke-opacity:1; fill:none" points="
  289.533,1410.22 289.533,1402.4 
  "/>
<polyline clip-path="url(#clip290)" style="stroke:#000000; stroke-width:4; stroke-opacity:1; fill:none" points="
  380.524,1410.22 380.524,1402.4 
  "/>
<polyline clip-path="url(#clip290)" style="stroke:#000000; stroke-width:4; stroke-opacity:1; fill:none" points="
  562.506,1410.22 562.506,1402.4 
  "/>
<polyline clip-path="url(#clip290)" style="stroke:#000000; stroke-width:4; stroke-opacity:1; fill:none" points="
  653.497,1410.22 653.497,1402.4 
  "/>
<polyline clip-path="url(#clip290)" style="stroke:#000000; stroke-width:4; stroke-opacity:1; fill:none" points="
  744.488,1410.22 744.488,1402.4 
  "/>
<polyline clip-path="url(#clip290)" style="stroke:#000000; stroke-width:4; stroke-opacity:1; fill:none" points="
  835.48,1410.22 835.48,1402.4 
  "/>
<polyline clip-path="url(#clip290)" style="stroke:#000000; stroke-width:4; stroke-opacity:1; fill:none" points="
  1017.46,1410.22 1017.46,1402.4 
  "/>
<polyline clip-path="url(#clip290)" style="stroke:#000000; stroke-width:4; stroke-opacity:1; fill:none" points="
  1108.45,1410.22 1108.45,1402.4 
  "/>
<polyline clip-path="url(#clip290)" style="stroke:#000000; stroke-width:4; stroke-opacity:1; fill:none" points="
  1199.44,1410.22 1199.44,1402.4 
  "/>
<polyline clip-path="url(#clip290)" style="stroke:#000000; stroke-width:4; stroke-opacity:1; fill:none" points="
  1290.43,1410.22 1290.43,1402.4 
  "/>
<polyline clip-path="url(#clip290)" style="stroke:#000000; stroke-width:4; stroke-opacity:1; fill:none" points="
  1472.42,1410.22 1472.42,1402.4 
  "/>
<polyline clip-path="url(#clip290)" style="stroke:#000000; stroke-width:4; stroke-opacity:1; fill:none" points="
  1563.41,1410.22 1563.41,1402.4 
  "/>
<polyline clip-path="url(#clip290)" style="stroke:#000000; stroke-width:4; stroke-opacity:1; fill:none" points="
  1654.4,1410.22 1654.4,1402.4 
  "/>
<polyline clip-path="url(#clip290)" style="stroke:#000000; stroke-width:4; stroke-opacity:1; fill:none" points="
  1745.39,1410.22 1745.39,1402.4 
  "/>
<polyline clip-path="url(#clip290)" style="stroke:#000000; stroke-width:4; stroke-opacity:1; fill:none" points="
  1927.37,1410.22 1927.37,1402.4 
  "/>
<polyline clip-path="url(#clip290)" style="stroke:#000000; stroke-width:4; stroke-opacity:1; fill:none" points="
  2018.36,1410.22 2018.36,1402.4 
  "/>
<polyline clip-path="url(#clip290)" style="stroke:#000000; stroke-width:4; stroke-opacity:1; fill:none" points="
  2109.35,1410.22 2109.35,1402.4 
  "/>
<polyline clip-path="url(#clip290)" style="stroke:#000000; stroke-width:4; stroke-opacity:1; fill:none" points="
  2200.35,1410.22 2200.35,1402.4 
  "/>
<path clip-path="url(#clip290)" d="M 0 0 M458.886 1481.26 Q458.886 1480.12 458.978 1479.78 Q459.102 1479.44 459.596 1478.91 L471.731 1465.39 Q478.37 1457.92 478.37 1451.4 Q478.37 1447.17 476.147 1444.14 Q473.955 1441.12 469.909 1441.12 Q467.13 1441.12 464.784 1442.82 Q462.437 1444.51 461.356 1447.54 Q461.541 1447.48 462.19 1447.48 Q463.764 1447.48 464.629 1448.47 Q465.525 1449.45 465.525 1450.78 Q465.525 1452.48 464.413 1453.31 Q463.332 1454.12 462.251 1454.12 Q461.819 1454.12 461.232 1454.02 Q460.677 1453.93 459.781 1453.07 Q458.886 1452.17 458.886 1450.6 Q458.886 1446.18 462.221 1442.66 Q465.586 1439.14 470.712 1439.14 Q476.518 1439.14 480.316 1442.6 Q484.145 1446.03 484.145 1451.4 Q484.145 1453.28 483.558 1455.01 Q483.002 1456.71 482.23 1458.04 Q481.489 1459.37 479.451 1461.5 Q477.413 1463.63 475.777 1465.14 Q474.14 1466.65 470.465 1469.87 L463.764 1476.38 L475.159 1476.38 Q480.717 1476.38 481.149 1475.89 Q481.767 1474.99 482.539 1470.27 L484.145 1470.27 L482.354 1481.26 L458.886 1481.26 Z" fill="#808080" fill-rule="evenodd" fill-opacity="1" /><path clip-path="url(#clip290)" d="M 0 0 M912.451 1470.82 L912.451 1468.88 L931.874 1439.2 Q932.369 1438.43 933.141 1438.46 Q933.851 1438.46 934.005 1438.74 Q934.16 1439.02 934.16 1440.1 L934.16 1468.88 L940.49 1468.88 L940.49 1470.82 L934.16 1470.82 L934.16 1476.32 Q934.16 1478.14 934.901 1478.73 Q935.673 1479.31 938.946 1479.31 L940.274 1479.31 L940.274 1481.26 Q937.68 1481.07 931.689 1481.07 Q925.73 1481.07 923.136 1481.26 L923.136 1479.31 L924.463 1479.31 Q927.737 1479.31 928.509 1478.76 Q929.281 1478.17 929.281 1476.32 L929.281 1470.82 L912.451 1470.82 M914.242 1468.88 L929.651 1468.88 L929.651 1445.29 L914.242 1468.88 Z" fill="#808080" fill-rule="evenodd" fill-opacity="1" /><path clip-path="url(#clip290)" d="M 0 0 M1368.3 1461.28 Q1368.3 1451.34 1373.37 1445.25 Q1378.43 1439.14 1384.95 1439.14 Q1388.74 1439.14 1390.84 1441.09 Q1392.97 1443 1392.97 1445.96 Q1392.97 1447.6 1392.02 1448.31 Q1391.06 1449.02 1390.07 1449.02 Q1388.93 1449.02 1388.03 1448.25 Q1387.14 1447.48 1387.14 1446.09 Q1387.14 1443.25 1390.63 1443.25 Q1388.99 1440.72 1385.07 1440.72 Q1383.87 1440.72 1382.63 1441.09 Q1381.4 1441.43 1379.79 1442.6 Q1378.18 1443.77 1376.95 1445.63 Q1375.71 1447.48 1374.85 1450.97 Q1373.98 1454.46 1373.98 1459 L1373.98 1460.51 Q1376.58 1454.24 1381.89 1454.27 Q1387.2 1454.27 1390.88 1458.32 Q1394.55 1462.36 1394.55 1468.35 Q1394.55 1474.5 1390.72 1478.57 Q1386.89 1482.65 1381.52 1482.65 Q1379.11 1482.65 1376.92 1481.63 Q1374.76 1480.64 1372.72 1478.36 Q1370.71 1476.07 1369.51 1471.69 Q1368.3 1467.3 1368.3 1461.28 M1374.11 1466.96 Q1374.11 1473.17 1375.25 1476.13 Q1375.44 1476.63 1375.84 1477.31 Q1376.27 1477.99 1376.98 1478.88 Q1377.72 1479.75 1378.92 1480.33 Q1380.13 1480.89 1381.52 1480.89 Q1385.75 1480.89 1387.79 1476.78 Q1388.87 1474.5 1388.87 1468.29 Q1388.87 1461.96 1387.73 1459.64 Q1385.78 1455.72 1381.83 1455.72 Q1379.17 1455.72 1377.32 1457.54 Q1375.5 1459.37 1374.79 1461.81 Q1374.11 1464.25 1374.11 1466.96 Z" fill="#808080" fill-rule="evenodd" fill-opacity="1" /><path clip-path="url(#clip290)" d="M 0 0 M1823.26 1471.72 Q1823.26 1464.65 1832.37 1460.08 Q1828.45 1457.42 1827.74 1456.65 Q1824.96 1453.56 1824.96 1449.7 Q1824.96 1445.29 1828.29 1442.23 Q1831.66 1439.14 1836.41 1439.14 Q1840.95 1439.14 1844.38 1441.77 Q1847.81 1444.39 1847.81 1448.56 Q1847.81 1454.43 1840.15 1458.38 Q1845.21 1461.53 1846.42 1462.86 Q1849.51 1466.28 1849.51 1470.64 Q1849.51 1475.7 1845.61 1479.19 Q1841.72 1482.65 1836.35 1482.65 Q1831.1 1482.65 1827.18 1479.59 Q1823.26 1476.54 1823.26 1471.72 M1826.41 1471.72 Q1826.41 1475.64 1829.34 1478.26 Q1832.31 1480.89 1836.41 1480.89 Q1840.4 1480.89 1843.36 1478.6 Q1846.36 1476.32 1846.36 1472.92 Q1846.36 1471.59 1845.89 1470.45 Q1845.46 1469.31 1844.56 1468.41 Q1843.7 1467.49 1843.14 1467.09 Q1842.62 1466.65 1841.6 1465.94 L1833.82 1461.03 Q1826.41 1465.14 1826.41 1471.72 M1827.74 1447.23 Q1827.74 1450.26 1830.92 1452.36 L1838.76 1457.42 Q1845.03 1453.75 1845.03 1448.56 Q1845.03 1445.19 1842.46 1442.97 Q1839.9 1440.72 1836.35 1440.72 Q1832.86 1440.72 1830.3 1442.57 Q1827.74 1444.39 1827.74 1447.23 Z" fill="#808080" fill-rule="evenodd" fill-opacity="1" /><path clip-path="url(#clip290)" d="M 0 0 M2266.36 1445.16 L2266.36 1443.19 Q2273.95 1443.19 2277.87 1439.14 Q2278.95 1439.14 2279.14 1439.39 Q2279.32 1439.63 2279.32 1440.78 L2279.32 1476.26 Q2279.32 1478.14 2280.25 1478.73 Q2281.18 1479.31 2285.22 1479.31 L2287.23 1479.31 L2287.23 1481.26 Q2285.01 1481.07 2276.98 1481.07 Q2268.95 1481.07 2266.76 1481.26 L2266.76 1479.31 L2268.76 1479.31 Q2272.75 1479.31 2273.7 1478.76 Q2274.66 1478.17 2274.66 1476.26 L2274.66 1443.49 Q2271.36 1445.16 2266.36 1445.16 Z" fill="#808080" fill-rule="evenodd" fill-opacity="1" /><path clip-path="url(#clip290)" d="M 0 0 M2289.7 1461.03 Q2289.7 1451.74 2292.05 1446.68 Q2295.32 1439.14 2303.04 1439.14 Q2304.68 1439.14 2306.38 1439.6 Q2308.1 1440.04 2310.27 1441.73 Q2312.46 1443.43 2313.79 1446.21 Q2316.32 1451.58 2316.32 1461.03 Q2316.32 1470.27 2313.97 1475.3 Q2310.54 1482.65 2302.98 1482.65 Q2300.14 1482.65 2297.23 1481.2 Q2294.36 1479.75 2292.54 1476.26 Q2289.7 1471.04 2289.7 1461.03 M2294.95 1460.26 Q2294.95 1469.8 2295.63 1473.6 Q2296.4 1477.71 2298.5 1479.5 Q2300.63 1481.26 2302.98 1481.26 Q2305.51 1481.26 2307.61 1479.38 Q2309.74 1477.46 2310.39 1473.35 Q2311.1 1469.31 2311.07 1460.26 Q2311.07 1451.46 2310.45 1447.94 Q2309.62 1443.83 2307.39 1442.2 Q2305.2 1440.53 2302.98 1440.53 Q2302.14 1440.53 2301.25 1440.78 Q2300.38 1441.02 2299.12 1441.73 Q2297.85 1442.44 2296.86 1444.2 Q2295.91 1445.96 2295.44 1448.62 Q2294.95 1452.05 2294.95 1460.26 Z" fill="#808080" fill-rule="evenodd" fill-opacity="1" /><path clip-path="url(#clip290)" d="M 0 0 M1207.29 1573.23 L1207.29 1570.89 Q1210.03 1570.89 1211.77 1570.37 Q1213.51 1569.82 1214.14 1568.82 Q1214.81 1567.78 1214.96 1567.11 Q1215.11 1566.41 1215.11 1565.26 L1215.11 1527.32 Q1215.11 1525.13 1214.14 1524.46 Q1213.22 1523.76 1209.1 1523.76 L1207.29 1523.76 L1207.29 1521.39 L1220.11 1521.39 Q1221.48 1521.39 1221.85 1521.65 Q1222.22 1521.87 1222.78 1523.06 L1239.23 1565.56 L1255.83 1522.83 Q1256.2 1521.76 1256.53 1521.57 Q1256.9 1521.39 1258.35 1521.39 L1271.17 1521.39 L1271.17 1523.76 L1269.35 1523.76 Q1265.24 1523.76 1264.28 1524.46 Q1263.35 1525.13 1263.35 1527.32 L1263.35 1567.3 Q1263.35 1569.49 1264.28 1570.19 Q1265.24 1570.89 1269.35 1570.89 L1271.17 1570.89 L1271.17 1573.23 Q1268.35 1573.01 1260.31 1573.01 Q1252.2 1573.01 1249.38 1573.23 L1249.38 1570.89 L1251.23 1570.89 Q1255.35 1570.89 1256.27 1570.23 Q1257.2 1569.52 1257.2 1567.3 L1257.2 1523.76 L1257.13 1523.76 L1238.49 1571.78 Q1237.97 1573.23 1237.12 1573.23 Q1236.19 1573.23 1235.6 1571.56 L1217.29 1524.35 L1217.22 1524.35 L1217.22 1565.26 Q1217.22 1566.41 1217.37 1567.11 Q1217.51 1567.78 1218.14 1568.82 Q1218.81 1569.82 1220.55 1570.37 Q1222.29 1570.89 1225.04 1570.89 L1225.04 1573.23 Q1217.07 1573.01 1216.14 1573.01 Q1215.25 1573.01 1207.29 1573.23 Z" fill="#000000" fill-rule="evenodd" fill-opacity="1" /><path clip-path="url(#clip290)" d="M 0 0 M1271.91 1572.49 L1271.91 1515.16 L1328.09 1515.16 L1328.09 1572.49 L1271.91 1572.49 M1276.47 1564.74 L1297.44 1543.77 L1276.47 1522.91 L1276.47 1564.74 M1279.14 1567.93 L1320.86 1567.93 L1300 1546.96 L1279.14 1567.93 M1279.14 1519.72 L1300 1540.66 L1320.86 1519.72 L1279.14 1519.72 M1302.59 1543.77 L1323.53 1564.74 L1323.53 1522.91 L1302.59 1543.77 Z" fill="#000000" fill-rule="evenodd" fill-opacity="1" /><polyline clip-path="url(#clip292)" style="stroke:#222255; stroke-width:4; stroke-opacity:0.1; fill:none" stroke-dasharray="16, 10" points="
  182.618,1373.31 2352.76,1373.31 
  "/>
<polyline clip-path="url(#clip292)" style="stroke:#222255; stroke-width:4; stroke-opacity:0.1; fill:none" stroke-dasharray="16, 10" points="
  182.618,1112.36 2352.76,1112.36 
  "/>
<polyline clip-path="url(#clip292)" style="stroke:#222255; stroke-width:4; stroke-opacity:0.1; fill:none" stroke-dasharray="16, 10" points="
  182.618,851.404 2352.76,851.404 
  "/>
<polyline clip-path="url(#clip292)" style="stroke:#222255; stroke-width:4; stroke-opacity:0.1; fill:none" stroke-dasharray="16, 10" points="
  182.618,590.449 2352.76,590.449 
  "/>
<polyline clip-path="url(#clip292)" style="stroke:#222255; stroke-width:4; stroke-opacity:0.1; fill:none" stroke-dasharray="16, 10" points="
  182.618,329.495 2352.76,329.495 
  "/>
<polyline clip-path="url(#clip292)" style="stroke:#222255; stroke-width:2; stroke-opacity:0.05; fill:none" points="
  182.618,1321.12 2352.76,1321.12 
  "/>
<polyline clip-path="url(#clip292)" style="stroke:#222255; stroke-width:2; stroke-opacity:0.05; fill:none" points="
  182.618,1268.93 2352.76,1268.93 
  "/>
<polyline clip-path="url(#clip292)" style="stroke:#222255; stroke-width:2; stroke-opacity:0.05; fill:none" points="
  182.618,1216.74 2352.76,1216.74 
  "/>
<polyline clip-path="url(#clip292)" style="stroke:#222255; stroke-width:2; stroke-opacity:0.05; fill:none" points="
  182.618,1164.55 2352.76,1164.55 
  "/>
<polyline clip-path="url(#clip292)" style="stroke:#222255; stroke-width:2; stroke-opacity:0.05; fill:none" points="
  182.618,1060.17 2352.76,1060.17 
  "/>
<polyline clip-path="url(#clip292)" style="stroke:#222255; stroke-width:2; stroke-opacity:0.05; fill:none" points="
  182.618,1007.98 2352.76,1007.98 
  "/>
<polyline clip-path="url(#clip292)" style="stroke:#222255; stroke-width:2; stroke-opacity:0.05; fill:none" points="
  182.618,955.786 2352.76,955.786 
  "/>
<polyline clip-path="url(#clip292)" style="stroke:#222255; stroke-width:2; stroke-opacity:0.05; fill:none" points="
  182.618,903.595 2352.76,903.595 
  "/>
<polyline clip-path="url(#clip292)" style="stroke:#222255; stroke-width:2; stroke-opacity:0.05; fill:none" points="
  182.618,799.213 2352.76,799.213 
  "/>
<polyline clip-path="url(#clip292)" style="stroke:#222255; stroke-width:2; stroke-opacity:0.05; fill:none" points="
  182.618,747.022 2352.76,747.022 
  "/>
<polyline clip-path="url(#clip292)" style="stroke:#222255; stroke-width:2; stroke-opacity:0.05; fill:none" points="
  182.618,694.831 2352.76,694.831 
  "/>
<polyline clip-path="url(#clip292)" style="stroke:#222255; stroke-width:2; stroke-opacity:0.05; fill:none" points="
  182.618,642.64 2352.76,642.64 
  "/>
<polyline clip-path="url(#clip292)" style="stroke:#222255; stroke-width:2; stroke-opacity:0.05; fill:none" points="
  182.618,538.258 2352.76,538.258 
  "/>
<polyline clip-path="url(#clip292)" style="stroke:#222255; stroke-width:2; stroke-opacity:0.05; fill:none" points="
  182.618,486.068 2352.76,486.068 
  "/>
<polyline clip-path="url(#clip292)" style="stroke:#222255; stroke-width:2; stroke-opacity:0.05; fill:none" points="
  182.618,433.877 2352.76,433.877 
  "/>
<polyline clip-path="url(#clip292)" style="stroke:#222255; stroke-width:2; stroke-opacity:0.05; fill:none" points="
  182.618,381.686 2352.76,381.686 
  "/>
<polyline clip-path="url(#clip292)" style="stroke:#222255; stroke-width:2; stroke-opacity:0.05; fill:none" points="
  182.618,277.304 2352.76,277.304 
  "/>
<polyline clip-path="url(#clip292)" style="stroke:#222255; stroke-width:2; stroke-opacity:0.05; fill:none" points="
  182.618,225.113 2352.76,225.113 
  "/>
<polyline clip-path="url(#clip292)" style="stroke:#222255; stroke-width:2; stroke-opacity:0.05; fill:none" points="
  182.618,172.922 2352.76,172.922 
  "/>
<polyline clip-path="url(#clip292)" style="stroke:#222255; stroke-width:2; stroke-opacity:0.05; fill:none" points="
  182.618,120.731 2352.76,120.731 
  "/>
<polyline clip-path="url(#clip290)" style="stroke:#000000; stroke-width:4; stroke-opacity:1; fill:none" points="
  182.618,1410.22 182.618,106.192 
  "/>
<polyline clip-path="url(#clip290)" style="stroke:#000000; stroke-width:4; stroke-opacity:1; fill:none" points="
  2352.76,1410.22 2352.76,106.192 
  "/>
<polyline clip-path="url(#clip290)" style="stroke:#000000; stroke-width:4; stroke-opacity:1; fill:none" points="
  182.618,1373.31 208.66,1373.31 
  "/>
<polyline clip-path="url(#clip290)" style="stroke:#000000; stroke-width:4; stroke-opacity:1; fill:none" points="
  182.618,1112.36 208.66,1112.36 
  "/>
<polyline clip-path="url(#clip290)" style="stroke:#000000; stroke-width:4; stroke-opacity:1; fill:none" points="
  182.618,851.404 208.66,851.404 
  "/>
<polyline clip-path="url(#clip290)" style="stroke:#000000; stroke-width:4; stroke-opacity:1; fill:none" points="
  182.618,590.449 208.66,590.449 
  "/>
<polyline clip-path="url(#clip290)" style="stroke:#000000; stroke-width:4; stroke-opacity:1; fill:none" points="
  182.618,329.495 208.66,329.495 
  "/>
<polyline clip-path="url(#clip290)" style="stroke:#000000; stroke-width:4; stroke-opacity:1; fill:none" points="
  182.618,1321.12 195.639,1321.12 
  "/>
<polyline clip-path="url(#clip290)" style="stroke:#000000; stroke-width:4; stroke-opacity:1; fill:none" points="
  182.618,1268.93 195.639,1268.93 
  "/>
<polyline clip-path="url(#clip290)" style="stroke:#000000; stroke-width:4; stroke-opacity:1; fill:none" points="
  182.618,1216.74 195.639,1216.74 
  "/>
<polyline clip-path="url(#clip290)" style="stroke:#000000; stroke-width:4; stroke-opacity:1; fill:none" points="
  182.618,1164.55 195.639,1164.55 
  "/>
<polyline clip-path="url(#clip290)" style="stroke:#000000; stroke-width:4; stroke-opacity:1; fill:none" points="
  182.618,1060.17 195.639,1060.17 
  "/>
<polyline clip-path="url(#clip290)" style="stroke:#000000; stroke-width:4; stroke-opacity:1; fill:none" points="
  182.618,1007.98 195.639,1007.98 
  "/>
<polyline clip-path="url(#clip290)" style="stroke:#000000; stroke-width:4; stroke-opacity:1; fill:none" points="
  182.618,955.786 195.639,955.786 
  "/>
<polyline clip-path="url(#clip290)" style="stroke:#000000; stroke-width:4; stroke-opacity:1; fill:none" points="
  182.618,903.595 195.639,903.595 
  "/>
<polyline clip-path="url(#clip290)" style="stroke:#000000; stroke-width:4; stroke-opacity:1; fill:none" points="
  182.618,799.213 195.639,799.213 
  "/>
<polyline clip-path="url(#clip290)" style="stroke:#000000; stroke-width:4; stroke-opacity:1; fill:none" points="
  182.618,747.022 195.639,747.022 
  "/>
<polyline clip-path="url(#clip290)" style="stroke:#000000; stroke-width:4; stroke-opacity:1; fill:none" points="
  182.618,694.831 195.639,694.831 
  "/>
<polyline clip-path="url(#clip290)" style="stroke:#000000; stroke-width:4; stroke-opacity:1; fill:none" points="
  182.618,642.64 195.639,642.64 
  "/>
<polyline clip-path="url(#clip290)" style="stroke:#000000; stroke-width:4; stroke-opacity:1; fill:none" points="
  182.618,538.258 195.639,538.258 
  "/>
<polyline clip-path="url(#clip290)" style="stroke:#000000; stroke-width:4; stroke-opacity:1; fill:none" points="
  182.618,486.068 195.639,486.068 
  "/>
<polyline clip-path="url(#clip290)" style="stroke:#000000; stroke-width:4; stroke-opacity:1; fill:none" points="
  182.618,433.877 195.639,433.877 
  "/>
<polyline clip-path="url(#clip290)" style="stroke:#000000; stroke-width:4; stroke-opacity:1; fill:none" points="
  182.618,381.686 195.639,381.686 
  "/>
<polyline clip-path="url(#clip290)" style="stroke:#000000; stroke-width:4; stroke-opacity:1; fill:none" points="
  182.618,277.304 195.639,277.304 
  "/>
<polyline clip-path="url(#clip290)" style="stroke:#000000; stroke-width:4; stroke-opacity:1; fill:none" points="
  182.618,225.113 195.639,225.113 
  "/>
<polyline clip-path="url(#clip290)" style="stroke:#000000; stroke-width:4; stroke-opacity:1; fill:none" points="
  182.618,172.922 195.639,172.922 
  "/>
<polyline clip-path="url(#clip290)" style="stroke:#000000; stroke-width:4; stroke-opacity:1; fill:none" points="
  182.618,120.731 195.639,120.731 
  "/>
<path clip-path="url(#clip290)" d="M 0 0 M125.744 1358.82 L125.744 1356.84 Q133.34 1356.84 137.262 1352.79 Q138.343 1352.79 138.528 1353.04 Q138.713 1353.29 138.713 1354.43 L138.713 1389.91 Q138.713 1391.79 139.64 1392.38 Q140.566 1392.97 144.611 1392.97 L146.618 1392.97 L146.618 1394.91 Q144.395 1394.73 136.367 1394.73 Q128.338 1394.73 126.146 1394.91 L126.146 1392.97 L128.153 1392.97 Q132.136 1392.97 133.093 1392.41 Q134.051 1391.83 134.051 1389.91 L134.051 1357.15 Q130.747 1358.82 125.744 1358.82 Z" fill="#808080" fill-rule="evenodd" fill-opacity="1" /><path clip-path="url(#clip290)" d="M 0 0 M121.359 1133.96 Q121.359 1132.82 121.452 1132.48 Q121.575 1132.14 122.07 1131.61 L134.205 1118.09 Q140.844 1110.61 140.844 1104.1 Q140.844 1099.87 138.621 1096.84 Q136.428 1093.82 132.383 1093.82 Q129.604 1093.82 127.257 1095.51 Q124.91 1097.21 123.83 1100.24 Q124.015 1100.18 124.663 1100.18 Q126.238 1100.18 127.103 1101.17 Q127.998 1102.15 127.998 1103.48 Q127.998 1105.18 126.887 1106.01 Q125.806 1106.82 124.725 1106.82 Q124.293 1106.82 123.706 1106.72 Q123.15 1106.63 122.255 1105.77 Q121.359 1104.87 121.359 1103.3 Q121.359 1098.88 124.694 1095.36 Q128.06 1091.84 133.186 1091.84 Q138.991 1091.84 142.789 1095.3 Q146.618 1098.73 146.618 1104.1 Q146.618 1105.98 146.032 1107.71 Q145.476 1109.41 144.704 1110.74 Q143.963 1112.07 141.925 1114.2 Q139.887 1116.33 138.25 1117.84 Q136.614 1119.35 132.939 1122.56 L126.238 1129.08 L137.633 1129.08 Q143.191 1129.08 143.623 1128.59 Q144.241 1127.69 145.013 1122.97 L146.618 1122.97 L144.827 1133.96 L121.359 1133.96 Z" fill="#808080" fill-rule="evenodd" fill-opacity="1" /><path clip-path="url(#clip290)" d="M 0 0 M120.371 864.481 Q120.371 862.598 121.452 861.702 Q122.533 860.807 123.922 860.807 Q125.374 860.807 126.393 861.764 Q127.442 862.69 127.442 864.327 Q127.442 866.087 126.207 867.075 Q125.003 868.063 123.274 867.816 Q124.787 870.348 127.566 871.491 Q130.376 872.634 132.97 872.634 Q135.687 872.634 137.88 870.287 Q140.103 867.94 140.103 862.196 Q140.103 857.317 138.188 854.507 Q136.305 851.697 132.568 851.697 L129.789 851.697 Q128.832 851.697 128.554 851.605 Q128.276 851.512 128.276 850.987 Q128.276 850.37 129.233 850.246 Q130.191 850.246 131.704 850.061 Q135.378 849.937 137.324 846.757 Q139.084 843.792 139.084 839.562 Q139.084 835.702 137.231 834.096 Q135.409 832.46 133.032 832.46 Q130.808 832.46 128.369 833.386 Q125.929 834.312 124.602 836.381 Q128.523 836.381 128.523 839.562 Q128.523 840.951 127.628 841.878 Q126.763 842.773 125.312 842.773 Q123.922 842.773 122.996 841.909 Q122.07 841.013 122.07 839.5 Q122.07 835.887 125.281 833.386 Q128.523 830.885 133.279 830.885 Q137.972 830.885 141.431 833.355 Q144.92 835.826 144.92 839.624 Q144.92 843.36 142.45 846.417 Q139.979 849.474 136.058 850.74 Q140.875 851.697 143.747 854.971 Q146.618 858.213 146.618 862.196 Q146.618 867.137 142.728 870.781 Q138.837 874.394 133.155 874.394 Q127.906 874.394 124.138 871.553 Q120.371 868.712 120.371 864.481 Z" fill="#808080" fill-rule="evenodd" fill-opacity="1" /><path clip-path="url(#clip290)" d="M 0 0 M118.58 601.612 L118.58 599.667 L138.003 569.992 Q138.497 569.22 139.269 569.251 Q139.979 569.251 140.134 569.529 Q140.288 569.807 140.288 570.887 L140.288 599.667 L146.618 599.667 L146.618 601.612 L140.288 601.612 L140.288 607.109 Q140.288 608.931 141.029 609.517 Q141.801 610.104 145.075 610.104 L146.402 610.104 L146.402 612.049 Q143.808 611.864 137.818 611.864 Q131.858 611.864 129.264 612.049 L129.264 610.104 L130.592 610.104 Q133.865 610.104 134.637 609.548 Q135.409 608.961 135.409 607.109 L135.409 601.612 L118.58 601.612 M120.371 599.667 L135.78 599.667 L135.78 576.075 L120.371 599.667 Z" fill="#808080" fill-rule="evenodd" fill-opacity="1" /><path clip-path="url(#clip290)" d="M 0 0 M121.359 340.905 Q121.359 339.021 122.378 338.311 Q123.397 337.57 124.478 337.57 Q125.929 337.57 126.763 338.496 Q127.628 339.392 127.628 340.658 Q127.628 341.924 126.763 342.85 Q125.929 343.746 124.478 343.746 Q123.768 343.746 123.397 343.622 Q124.231 346.525 126.763 348.624 Q129.326 350.724 132.692 350.724 Q136.922 350.724 139.454 346.617 Q140.968 343.962 140.968 337.94 Q140.968 332.629 139.825 329.973 Q138.065 325.928 134.452 325.928 Q129.326 325.928 126.3 330.344 Q125.929 330.9 125.497 330.931 Q124.88 330.931 124.725 330.591 Q124.602 330.22 124.602 329.263 L124.602 310.55 Q124.602 309.037 125.219 309.037 Q125.466 309.037 125.991 309.223 Q129.975 310.983 134.39 311.014 Q138.93 311.014 143.006 309.161 Q143.314 308.976 143.5 308.976 Q144.117 308.976 144.148 309.686 Q144.148 309.933 143.623 310.674 Q143.129 311.384 142.048 312.341 Q140.968 313.268 139.578 314.163 Q138.188 315.059 136.15 315.676 Q134.143 316.263 131.92 316.263 Q129.264 316.263 126.547 315.429 L126.547 327.75 Q129.82 324.539 134.576 324.539 Q139.64 324.539 143.129 328.615 Q146.618 332.691 146.618 338.373 Q146.618 344.332 142.481 348.408 Q138.374 352.484 132.815 352.484 Q127.751 352.484 124.54 348.871 Q121.359 345.259 121.359 340.905 Z" fill="#808080" fill-rule="evenodd" fill-opacity="1" /><path clip-path="url(#clip290)" d="M 0 0 M64.916 884.119 L51.3168 884.119 Q42.9053 884.119 38.2364 879.524 Q33.5675 874.929 33.5675 869.408 Q33.5675 863.479 38.4587 859.07 Q43.35 854.66 50.7239 854.66 Q57.8756 854.66 62.878 858.959 Q67.8804 863.257 67.8804 869.334 Q67.8804 871.298 67.2505 873.373 Q66.6576 875.411 64.5825 878.042 Q62.4704 880.636 59.0613 882.303 Q64.6937 881.933 70.4743 880.228 Q76.2919 878.487 79.8863 877.041 Q83.4806 875.559 84.0364 875.559 Q85.2592 875.559 86.0003 876.486 Q86.7414 877.375 86.7414 878.487 Q86.7414 880.525 83.4806 881.599 Q76.2919 884.119 64.916 884.119 M52.8361 882.081 Q57.0974 882.081 59.5801 879.154 Q62.0257 876.226 62.0257 872.039 Q62.0257 866.666 57.9867 861.664 Q53.9107 856.661 48.5006 856.661 Q44.4616 856.661 41.9419 859.552 Q39.4222 862.405 39.4222 866.74 Q39.4222 872.039 43.4241 877.079 Q47.389 882.081 52.8361 882.081 Z" fill="#000000" fill-rule="evenodd" fill-opacity="1" /><path clip-path="url(#clip290)" d="M 0 0 M66.2871 853.919 L8.96291 853.919 L8.96291 797.744 L66.2871 797.744 L66.2871 853.919 M58.5426 849.361 L37.5694 828.388 L16.7074 849.361 L58.5426 849.361 M61.7293 846.693 L61.7293 804.969 L40.7561 825.831 L61.7293 846.693 M13.5207 846.693 L34.4568 825.831 L13.5207 804.969 L13.5207 846.693 M37.5694 823.238 L58.5426 802.301 L16.7074 802.301 L37.5694 823.238 Z" fill="#000000" fill-rule="evenodd" fill-opacity="1" /><path clip-path="url(#clip290)" d="M 0 0 M17.5597 795.632 L15.1882 795.632 L14.3729 784.7 L38.4217 784.7 Q33.4933 780.291 33.4933 774.288 Q33.4933 767.766 38.4958 762.986 Q43.4982 758.206 50.6498 758.206 Q57.8756 758.206 62.878 763.208 Q67.8804 768.211 67.8804 775.14 Q67.8804 781.439 62.3222 785.071 Q66.954 787.739 67.0282 787.813 L67.0282 789.703 L21.784 789.703 Q18.9678 789.703 18.2637 790.703 Q17.5597 791.704 17.5597 795.632 M58.3943 784.478 Q59.9877 784.478 61.5811 783.403 Q66.1759 780.402 66.1759 775.511 Q66.1759 775.474 66.1759 775.437 Q66.1759 770.138 61.3217 766.84 Q57.6903 764.505 50.5757 764.505 Q43.5353 764.505 40.015 766.692 Q35.1608 769.73 35.1608 774.658 Q35.1608 780.217 40.015 783.626 Q41.2379 784.478 42.7571 784.478 L58.3943 784.478 Z" fill="#000000" fill-rule="evenodd" fill-opacity="1" /><path clip-path="url(#clip290)" d="M 0 0 M76.4401 758.873 Q74.8468 758.873 73.9945 757.947 Q73.1793 756.983 73.1793 755.686 Q73.1793 754.315 74.0316 753.426 Q74.9209 752.5 76.366 752.5 Q79.1822 752.5 79.5528 755.464 Q80.9238 754.019 80.9238 751.907 Q80.9238 749.646 79.2563 747.831 Q77.5888 745.978 75.9955 745.2 Q74.4021 744.384 71.5118 743.236 Q69.2515 742.161 67.0282 741.346 L39.311 752.722 Q37.4953 753.463 37.0877 754.612 Q36.6801 755.76 36.6801 758.873 L34.3086 758.873 Q34.5309 755.464 34.5309 751.499 Q34.5309 749.165 34.3086 743.236 L36.6801 743.236 Q36.6801 747.497 38.644 747.497 Q38.8663 747.497 40.015 747.052 L60.4324 738.604 L41.7566 730.933 Q40.682 730.489 39.9409 730.489 Q36.8283 730.489 36.6801 734.046 L34.3086 734.046 Q34.5309 729.044 34.5309 727.45 Q34.5309 724.338 34.3086 721.781 L36.6801 721.781 Q36.6801 726.857 41.5343 728.821 L73.9204 742.198 Q82.5542 745.83 82.5913 751.907 Q82.5913 754.797 80.8126 756.835 Q79.034 758.873 76.4401 758.873 Z" fill="#000000" fill-rule="evenodd" fill-opacity="1" /><path clip-path="url(#clip290)" d="M 0 0 M64.916 718.668 L51.3168 718.668 Q42.9053 718.668 38.2364 714.073 Q33.5675 709.479 33.5675 703.957 Q33.5675 698.029 38.4587 693.619 Q43.35 689.21 50.7239 689.21 Q57.8756 689.21 62.878 693.508 Q67.8804 697.806 67.8804 703.883 Q67.8804 705.847 67.2505 707.922 Q66.6576 709.96 64.5825 712.591 Q62.4704 715.185 59.0613 716.853 Q64.6937 716.482 70.4743 714.777 Q76.2919 713.036 79.8863 711.591 Q83.4806 710.109 84.0364 710.109 Q85.2592 710.109 86.0003 711.035 Q86.7414 711.924 86.7414 713.036 Q86.7414 715.074 83.4806 716.149 Q76.2919 718.668 64.916 718.668 M52.8361 716.63 Q57.0974 716.63 59.5801 713.703 Q62.0257 710.776 62.0257 706.588 Q62.0257 701.215 57.9867 696.213 Q53.9107 691.21 48.5006 691.21 Q44.4616 691.21 41.9419 694.101 Q39.4222 696.954 39.4222 701.289 Q39.4222 706.588 43.4241 711.628 Q47.389 716.63 52.8361 716.63 Z" fill="#000000" fill-rule="evenodd" fill-opacity="1" /><path clip-path="url(#clip290)" d="M 0 0 M66.2871 688.468 L8.96291 688.468 L8.96291 632.293 L66.2871 632.293 L66.2871 688.468 M58.5426 683.911 L37.5694 662.937 L16.7074 683.911 L58.5426 683.911 M61.7293 681.243 L61.7293 639.519 L40.7561 660.381 L61.7293 681.243 M13.5207 681.243 L34.4568 660.381 L13.5207 639.519 L13.5207 681.243 M37.5694 657.787 L58.5426 636.851 L16.7074 636.851 L37.5694 657.787 Z" fill="#000000" fill-rule="evenodd" fill-opacity="1" /><path clip-path="url(#clip290)" d="M 0 0 M1045.2 51.84 L1045.2 49.8946 L1046.72 49.8946 Q1050.14 49.8946 1050.92 49.3388 Q1051.72 48.7521 1051.72 46.8993 L1051.72 13.5807 Q1051.72 11.7588 1050.92 11.203 Q1050.11 10.6163 1046.72 10.6163 L1045.2 10.6163 L1045.2 8.64 L1068.33 8.64 Q1076.42 8.64 1082.04 15.0938 Q1087.69 21.5475 1087.69 30.5951 Q1087.69 39.4574 1082.01 45.6642 Q1076.36 51.84 1068.33 51.84 L1045.2 51.84 M1057.15 47.3625 Q1057.15 48.9991 1057.62 49.4623 Q1058.08 49.8946 1060.24 49.8946 L1066.63 49.8946 Q1070.8 49.8946 1073.61 48.1963 Q1076.42 46.467 1077.87 44.4908 Q1081.36 39.7354 1081.36 30.5951 Q1081.36 20.9917 1078.09 16.4833 Q1073.86 10.6163 1066.57 10.6163 L1060.24 10.6163 Q1058.08 10.6163 1057.62 11.0486 Q1057.15 11.4809 1057.15 13.1484 L1057.15 47.3625 Z" fill="#000000" fill-rule="evenodd" fill-opacity="1" /><path clip-path="url(#clip290)" d="M 0 0 M1089.45 37.9135 Q1089.45 31.9538 1093.28 27.7233 Q1097.11 23.4929 1102.61 23.4929 Q1108.17 23.4929 1111.04 27.1058 Q1113.94 30.7186 1113.94 35.9063 Q1113.94 36.8636 1113.69 37.0489 Q1113.45 37.2341 1112.36 37.2341 L1094.7 37.2341 Q1094.7 43.6879 1096.62 46.7141 Q1099.27 50.9445 1103.75 50.9445 Q1104.37 50.9445 1105.11 50.821 Q1105.85 50.6975 1107.36 50.1725 Q1108.88 49.6167 1110.2 48.1654 Q1111.53 46.7141 1112.3 44.429 Q1112.49 43.5335 1113.11 43.5644 Q1113.94 43.5644 1113.94 44.3055 Q1113.94 44.8613 1113.32 46.1273 Q1112.74 47.3625 1111.59 48.8447 Q1110.45 50.3269 1108.23 51.4386 Q1106.03 52.5502 1103.38 52.5502 Q1097.82 52.5502 1093.62 48.3507 Q1089.45 44.1202 1089.45 37.9135 M1094.76 35.9063 L1109.77 35.9063 Q1109.77 34.5785 1109.52 33.0963 Q1109.31 31.6141 1108.63 29.5761 Q1107.98 27.5072 1106.44 26.2103 Q1104.89 24.9133 1102.61 24.9133 Q1101.59 24.9133 1100.48 25.3456 Q1099.4 25.778 1098.07 26.8278 Q1096.74 27.8777 1095.81 30.2554 Q1094.89 32.6331 1094.76 35.9063 Z" fill="#000000" fill-rule="evenodd" fill-opacity="1" /><path clip-path="url(#clip290)" d="M 0 0 M1115.98 51.84 L1115.98 49.8946 Q1119.34 49.8946 1120.12 49.4932 Q1120.89 49.0609 1120.89 47.0228 L1120.89 30.0702 Q1120.89 27.7233 1120.05 27.1366 Q1119.25 26.5499 1115.98 26.5499 L1115.98 24.5737 L1124.87 23.8943 L1124.87 30.5334 Q1127.84 23.8943 1134.23 23.8943 Q1138.98 23.8943 1140.87 26.2411 Q1142.26 27.816 1142.53 29.5761 Q1142.84 31.3362 1142.84 35.9063 L1142.84 47.9801 Q1142.9 49.3079 1143.92 49.6167 Q1144.94 49.8946 1147.78 49.8946 L1147.78 51.84 Q1141.33 51.6547 1140.68 51.6547 Q1140.19 51.6547 1133.55 51.84 L1133.55 49.8946 Q1136.91 49.8946 1137.69 49.4932 Q1138.49 49.0609 1138.49 47.0228 L1138.49 32.2935 Q1138.49 29.082 1137.5 27.1984 Q1136.51 25.2839 1133.79 25.2839 Q1130.52 25.2839 1127.9 28.0321 Q1125.27 30.7804 1125.27 35.4123 L1125.27 47.0228 Q1125.27 49.0609 1126.04 49.4932 Q1126.85 49.8946 1130.18 49.8946 L1130.18 51.84 Q1123.73 51.6547 1123.11 51.6547 Q1122.62 51.6547 1115.98 51.84 Z" fill="#000000" fill-rule="evenodd" fill-opacity="1" /><path clip-path="url(#clip290)" d="M 0 0 M1149.88 51.0063 L1149.88 42.6689 Q1149.88 41.9587 1149.91 41.7116 Q1149.94 41.4646 1150.13 41.2793 Q1150.32 41.094 1150.69 41.094 Q1151.12 41.094 1151.27 41.2793 Q1151.46 41.4646 1151.58 42.1748 Q1152.54 46.5288 1154.58 48.8447 Q1156.65 51.1298 1160.38 51.1298 Q1163.93 51.1298 1165.72 49.5549 Q1167.52 47.9801 1167.52 45.3862 Q1167.52 40.7544 1160.94 39.581 Q1157.14 38.809 1155.56 38.3149 Q1153.99 37.79 1152.6 36.6474 Q1149.88 34.4241 1149.88 31.2745 Q1149.88 28.1248 1152.26 25.8088 Q1154.67 23.4929 1159.98 23.4929 Q1163.53 23.4929 1165.94 25.2839 Q1166.65 24.7281 1167.02 24.2649 Q1167.85 23.4929 1168.29 23.4929 Q1168.78 23.4929 1168.87 23.8326 Q1168.97 24.1414 1168.97 25.0369 L1168.97 31.398 Q1168.97 32.1082 1168.94 32.3552 Q1168.9 32.6023 1168.72 32.7875 Q1168.53 32.9419 1168.13 32.9419 Q1167.42 32.9419 1167.39 32.3552 Q1166.9 24.6972 1159.98 24.6972 Q1156.24 24.6972 1154.58 26.1485 Q1152.91 27.5689 1152.91 29.5143 Q1152.91 30.5951 1153.4 31.4288 Q1153.93 32.2317 1154.58 32.7258 Q1155.26 33.189 1156.49 33.6522 Q1157.73 34.0845 1158.47 34.2389 Q1159.24 34.3933 1160.69 34.702 Q1165.75 35.6593 1167.89 37.7282 Q1170.54 40.3838 1170.54 43.7496 Q1170.54 47.486 1168.01 50.0181 Q1165.48 52.5502 1160.38 52.5502 Q1156.28 52.5502 1153.4 49.802 Q1153.03 50.1725 1152.75 50.5122 Q1152.48 50.821 1152.35 50.9445 Q1152.26 51.068 1152.23 51.1607 Q1152.2 51.2224 1152.14 51.2842 Q1150.87 52.5502 1150.56 52.5502 Q1150.07 52.5502 1149.98 52.2106 Q1149.88 51.9018 1149.88 51.0063 Z" fill="#000000" fill-rule="evenodd" fill-opacity="1" /><path clip-path="url(#clip290)" d="M 0 0 M1172.64 51.84 L1172.64 49.8946 Q1176.01 49.8946 1176.78 49.4932 Q1177.55 49.0609 1177.55 47.0228 L1177.55 30.0084 Q1177.55 27.6616 1176.75 27.1058 Q1175.98 26.5499 1172.89 26.5499 L1172.89 24.5737 L1181.72 23.8943 L1181.72 47.0846 Q1181.72 48.9682 1182.4 49.4314 Q1183.08 49.8946 1186.17 49.8946 L1186.17 51.84 Q1179.71 51.6547 1179.59 51.6547 Q1178.72 51.6547 1172.64 51.84 M1175.3 12.8705 Q1175.3 11.6044 1176.25 10.5854 Q1177.24 9.5355 1178.63 9.5355 Q1180.02 9.5355 1181.01 10.4928 Q1182 11.4191 1182 12.9013 Q1182 14.3527 1181.01 15.3099 Q1180.02 16.2363 1178.63 16.2363 Q1177.18 16.2363 1176.22 15.2173 Q1175.3 14.1983 1175.3 12.8705 Z" fill="#000000" fill-rule="evenodd" fill-opacity="1" /><path clip-path="url(#clip290)" d="M 0 0 M1187.37 26.5499 L1187.37 25.1604 Q1190.27 25.0369 1192.19 22.9988 Q1194.13 20.9299 1194.78 18.3978 Q1195.46 15.8657 1195.52 12.9322 L1197.1 12.9322 L1197.1 24.5737 L1206.14 24.5737 L1206.14 26.5499 L1197.1 26.5499 L1197.1 44.1202 Q1197.1 50.9445 1201.36 50.9445 Q1203.18 50.9445 1204.38 49.0918 Q1205.59 47.2081 1205.59 43.8732 L1205.59 40.3838 L1207.16 40.3838 L1207.16 43.9967 Q1207.16 47.4243 1205.59 49.9872 Q1204.01 52.5502 1200.9 52.5502 Q1199.75 52.5502 1198.61 52.2414 Q1197.5 51.9635 1196.02 51.2224 Q1194.57 50.4504 1193.64 48.5977 Q1192.74 46.7141 1192.74 43.9967 L1192.74 26.5499 L1187.37 26.5499 Z" fill="#000000" fill-rule="evenodd" fill-opacity="1" /><path clip-path="url(#clip290)" d="M 0 0 M1206.61 59.6833 Q1206.61 58.3555 1207.38 57.6453 Q1208.18 56.9659 1209.26 56.9659 Q1210.41 56.9659 1211.15 57.6762 Q1211.92 58.4173 1211.92 59.6216 Q1211.92 61.9684 1209.45 62.2772 Q1210.65 63.4197 1212.41 63.4197 Q1214.3 63.4197 1215.81 62.0301 Q1217.35 60.6406 1218 59.3128 Q1218.68 57.985 1219.64 55.5764 Q1220.53 53.6928 1221.21 51.84 L1211.73 28.7424 Q1211.12 27.2293 1210.16 26.8896 Q1209.2 26.5499 1206.61 26.5499 L1206.61 24.5737 Q1209.45 24.7589 1212.75 24.7589 Q1214.7 24.7589 1219.64 24.5737 L1219.64 26.5499 Q1216.09 26.5499 1216.09 28.1865 Q1216.09 28.3718 1216.46 29.3291 L1223.5 46.3435 L1229.89 30.7804 Q1230.26 29.8849 1230.26 29.2673 Q1230.26 26.6735 1227.3 26.5499 L1227.3 24.5737 Q1231.47 24.7589 1232.79 24.7589 Q1235.39 24.7589 1237.52 24.5737 L1237.52 26.5499 Q1233.29 26.5499 1231.65 30.5951 L1220.5 57.5835 Q1217.48 64.7784 1212.41 64.8093 Q1210 64.8093 1208.31 63.3271 Q1206.61 61.8449 1206.61 59.6833 Z" fill="#000000" fill-rule="evenodd" fill-opacity="1" /><path clip-path="url(#clip290)" d="M 0 0 M1259.75 26.5499 L1259.75 24.5737 Q1262.59 24.7589 1265.9 24.7589 Q1267.1 24.7589 1272.78 24.5737 L1272.78 26.5499 Q1269.17 26.5499 1269.17 28.1865 Q1269.17 28.4336 1269.54 29.2673 L1276.64 46.8993 L1283.1 30.7804 Q1283.47 29.6996 1283.47 29.2673 Q1283.47 28.1865 1282.73 27.4146 Q1282.02 26.6117 1280.44 26.5499 L1280.44 24.5737 Q1283.65 24.7589 1285.94 24.7589 Q1288.53 24.7589 1290.66 24.5737 L1290.66 26.5499 Q1288.78 26.5499 1287.45 27.4146 Q1286.12 28.2483 1285.69 28.9894 Q1285.29 29.6996 1284.86 30.7804 L1276.58 51.3459 Q1276.09 52.5502 1275.25 52.5502 Q1274.7 52.5502 1274.45 52.3032 Q1274.23 52.087 1273.92 51.3459 L1264.82 28.8968 Q1264.2 27.3219 1263.39 26.9514 Q1262.59 26.5499 1259.75 26.5499 Z" fill="#000000" fill-rule="evenodd" fill-opacity="1" /><path clip-path="url(#clip290)" d="M 0 0 M1291.56 45.8186 Q1291.56 40.4456 1297.89 37.6047 Q1301.69 35.7828 1309.53 35.3196 L1309.53 33.0037 Q1309.53 29.082 1307.46 27.0131 Q1305.42 24.9133 1302.83 24.9133 Q1298.2 24.9133 1295.97 27.816 Q1297.86 27.8777 1298.54 28.835 Q1299.21 29.7614 1299.21 30.7186 Q1299.21 31.9847 1298.41 32.8184 Q1297.64 33.6213 1296.31 33.6213 Q1295.05 33.6213 1294.21 32.8493 Q1293.38 32.0464 1293.38 30.6569 Q1293.38 27.5689 1296.16 25.5309 Q1298.97 23.4929 1302.95 23.4929 Q1308.14 23.4929 1311.6 26.9822 Q1312.68 28.063 1313.2 29.4526 Q1313.76 30.8421 1313.82 31.7685 Q1313.88 32.664 1313.88 34.455 L1313.88 47.0846 Q1313.88 47.4552 1314.01 48.0727 Q1314.13 48.6903 1314.69 49.4932 Q1315.27 50.2652 1316.23 50.2652 Q1318.51 50.2652 1318.48 46.22 L1318.48 42.6689 L1320.09 42.6689 L1320.09 46.22 Q1320.09 49.5858 1318.3 50.9136 Q1316.54 52.2106 1314.9 52.2106 Q1312.8 52.2106 1311.47 50.6666 Q1310.15 49.1226 1309.96 47.0228 Q1309 49.4314 1306.81 51.0063 Q1304.65 52.5502 1301.69 52.5502 Q1299.4 52.5502 1297.24 51.9635 Q1295.11 51.4077 1293.32 49.8329 Q1291.56 48.2271 1291.56 45.8186 M1296.44 45.7568 Q1296.44 48.1036 1298.1 49.6167 Q1299.77 51.1298 1302.12 51.1298 Q1304.77 51.1298 1307.15 49.0918 Q1309.53 47.0228 1309.53 42.9777 L1309.53 36.6474 Q1302.52 36.8945 1299.46 39.7045 Q1296.44 42.4836 1296.44 45.7568 Z" fill="#000000" fill-rule="evenodd" fill-opacity="1" /><path clip-path="url(#clip290)" d="M 0 0 M1321.85 51.84 L1321.85 49.8946 Q1325.22 49.8946 1325.99 49.4932 Q1326.79 49.0609 1326.79 47.0228 L1326.79 30.0702 Q1326.79 27.7233 1325.96 27.1366 Q1325.15 26.5499 1321.85 26.5499 L1321.85 24.5737 L1330.65 23.8943 L1330.65 30.8421 Q1331.55 28.1248 1333.43 26.025 Q1335.34 23.8943 1338.43 23.8943 Q1340.47 23.8943 1341.77 25.0369 Q1343.09 26.1794 1343.09 27.7542 Q1343.09 29.1438 1342.23 29.854 Q1341.4 30.5334 1340.38 30.5334 Q1339.23 30.5334 1338.43 29.8231 Q1337.66 29.082 1337.66 27.816 Q1337.66 27.044 1338 26.4573 Q1338.37 25.8397 1338.65 25.6236 Q1338.93 25.4074 1339.11 25.3456 Q1338.99 25.2839 1338.43 25.2839 Q1334.94 25.2839 1332.93 28.7732 Q1330.96 32.2317 1330.96 37.1724 L1330.96 46.8993 Q1330.96 48.7212 1331.7 49.3079 Q1332.47 49.8946 1335.78 49.8946 L1337.1 49.8946 L1337.1 51.84 Q1334.57 51.6547 1329.08 51.6547 Q1328.3 51.6547 1327.1 51.6856 Q1325.89 51.7165 1324.32 51.7782 Q1322.74 51.84 1321.85 51.84 Z" fill="#000000" fill-rule="evenodd" fill-opacity="1" /><path clip-path="url(#clip290)" d="M 0 0 M1345.19 51.84 L1345.19 49.8946 Q1348.56 49.8946 1349.33 49.4932 Q1350.1 49.0609 1350.1 47.0228 L1350.1 30.0084 Q1350.1 27.6616 1349.3 27.1058 Q1348.53 26.5499 1345.44 26.5499 L1345.44 24.5737 L1354.27 23.8943 L1354.27 47.0846 Q1354.27 48.9682 1354.95 49.4314 Q1355.63 49.8946 1358.72 49.8946 L1358.72 51.84 Q1352.27 51.6547 1352.14 51.6547 Q1351.28 51.6547 1345.19 51.84 M1347.85 12.8705 Q1347.85 11.6044 1348.81 10.5854 Q1349.79 9.5355 1351.18 9.5355 Q1352.57 9.5355 1353.56 10.4928 Q1354.55 11.4191 1354.55 12.9013 Q1354.55 14.3527 1353.56 15.3099 Q1352.57 16.2363 1351.18 16.2363 Q1349.73 16.2363 1348.78 15.2173 Q1347.85 14.1983 1347.85 12.8705 Z" fill="#000000" fill-rule="evenodd" fill-opacity="1" /><path clip-path="url(#clip290)" d="M 0 0 M1361.37 45.8186 Q1361.37 40.4456 1367.7 37.6047 Q1371.5 35.7828 1379.35 35.3196 L1379.35 33.0037 Q1379.35 29.082 1377.28 27.0131 Q1375.24 24.9133 1372.65 24.9133 Q1368.01 24.9133 1365.79 27.816 Q1367.67 27.8777 1368.35 28.835 Q1369.03 29.7614 1369.03 30.7186 Q1369.03 31.9847 1368.23 32.8184 Q1367.46 33.6213 1366.13 33.6213 Q1364.86 33.6213 1364.03 32.8493 Q1363.2 32.0464 1363.2 30.6569 Q1363.2 27.5689 1365.98 25.5309 Q1368.79 23.4929 1372.77 23.4929 Q1377.96 23.4929 1381.42 26.9822 Q1382.5 28.063 1383.02 29.4526 Q1383.58 30.8421 1383.64 31.7685 Q1383.7 32.664 1383.7 34.455 L1383.7 47.0846 Q1383.7 47.4552 1383.82 48.0727 Q1383.95 48.6903 1384.5 49.4932 Q1385.09 50.2652 1386.05 50.2652 Q1388.33 50.2652 1388.3 46.22 L1388.3 42.6689 L1389.91 42.6689 L1389.91 46.22 Q1389.91 49.5858 1388.12 50.9136 Q1386.36 52.2106 1384.72 52.2106 Q1382.62 52.2106 1381.29 50.6666 Q1379.96 49.1226 1379.78 47.0228 Q1378.82 49.4314 1376.63 51.0063 Q1374.47 52.5502 1371.5 52.5502 Q1369.22 52.5502 1367.06 51.9635 Q1364.93 51.4077 1363.13 49.8329 Q1361.37 48.2271 1361.37 45.8186 M1366.25 45.7568 Q1366.25 48.1036 1367.92 49.6167 Q1369.59 51.1298 1371.94 51.1298 Q1374.59 51.1298 1376.97 49.0918 Q1379.35 47.0228 1379.35 42.9777 L1379.35 36.6474 Q1372.34 36.8945 1369.28 39.7045 Q1366.25 42.4836 1366.25 45.7568 Z" fill="#000000" fill-rule="evenodd" fill-opacity="1" /><path clip-path="url(#clip290)" d="M 0 0 M1391.11 26.5499 L1391.11 25.1604 Q1394.01 25.0369 1395.93 22.9988 Q1397.87 20.9299 1398.52 18.3978 Q1399.2 15.8657 1399.26 12.9322 L1400.84 12.9322 L1400.84 24.5737 L1409.89 24.5737 L1409.89 26.5499 L1400.84 26.5499 L1400.84 44.1202 Q1400.84 50.9445 1405.1 50.9445 Q1406.92 50.9445 1408.13 49.0918 Q1409.33 47.2081 1409.33 43.8732 L1409.33 40.3838 L1410.9 40.3838 L1410.9 43.9967 Q1410.9 47.4243 1409.33 49.9872 Q1407.76 52.5502 1404.64 52.5502 Q1403.49 52.5502 1402.35 52.2414 Q1401.24 51.9635 1399.76 51.2224 Q1398.31 50.4504 1397.38 48.5977 Q1396.48 46.7141 1396.48 43.9967 L1396.48 26.5499 L1391.11 26.5499 Z" fill="#000000" fill-rule="evenodd" fill-opacity="1" /><path clip-path="url(#clip290)" d="M 0 0 M1413 51.84 L1413 49.8946 Q1416.37 49.8946 1417.14 49.4932 Q1417.91 49.0609 1417.91 47.0228 L1417.91 30.0084 Q1417.91 27.6616 1417.11 27.1058 Q1416.34 26.5499 1413.25 26.5499 L1413.25 24.5737 L1422.08 23.8943 L1422.08 47.0846 Q1422.08 48.9682 1422.76 49.4314 Q1423.44 49.8946 1426.53 49.8946 L1426.53 51.84 Q1420.08 51.6547 1419.95 51.6547 Q1419.09 51.6547 1413 51.84 M1415.66 12.8705 Q1415.66 11.6044 1416.62 10.5854 Q1417.61 9.5355 1419 9.5355 Q1420.38 9.5355 1421.37 10.4928 Q1422.36 11.4191 1422.36 12.9013 Q1422.36 14.3527 1421.37 15.3099 Q1420.38 16.2363 1419 16.2363 Q1417.54 16.2363 1416.59 15.2173 Q1415.66 14.1983 1415.66 12.8705 Z" fill="#000000" fill-rule="evenodd" fill-opacity="1" /><path clip-path="url(#clip290)" d="M 0 0 M1432.46 48.4433 Q1428.29 44.3055 1428.29 38.3149 Q1428.29 32.2935 1432.37 27.9086 Q1436.47 23.4929 1442.34 23.4929 Q1448.08 23.4929 1452.19 27.8777 Q1456.33 32.2317 1456.33 38.3149 Q1456.33 44.2746 1452.16 48.4124 Q1448.02 52.5502 1442.28 52.5502 Q1436.66 52.5502 1432.46 48.4433 M1433.54 37.79 Q1433.54 43.9349 1435.15 46.7141 Q1437.62 50.9445 1442.34 50.9445 Q1444.69 50.9445 1446.63 49.6785 Q1448.61 48.4124 1449.69 46.2817 Q1451.08 43.5026 1451.08 37.79 Q1451.08 31.7068 1449.41 29.0203 Q1446.94 24.9133 1442.28 24.9133 Q1440.24 24.9133 1438.23 25.9941 Q1436.26 27.044 1435.05 29.1438 Q1433.54 31.9229 1433.54 37.79 Z" fill="#000000" fill-rule="evenodd" fill-opacity="1" /><path clip-path="url(#clip290)" d="M 0 0 M1458.37 51.84 L1458.37 49.8946 Q1461.73 49.8946 1462.5 49.4932 Q1463.28 49.0609 1463.28 47.0228 L1463.28 30.0702 Q1463.28 27.7233 1462.44 27.1366 Q1461.64 26.5499 1458.37 26.5499 L1458.37 24.5737 L1467.26 23.8943 L1467.26 30.5334 Q1470.22 23.8943 1476.62 23.8943 Q1481.37 23.8943 1483.25 26.2411 Q1484.64 27.816 1484.92 29.5761 Q1485.23 31.3362 1485.23 35.9063 L1485.23 47.9801 Q1485.29 49.3079 1486.31 49.6167 Q1487.33 49.8946 1490.17 49.8946 L1490.17 51.84 Q1483.72 51.6547 1483.07 51.6547 Q1482.58 51.6547 1475.94 51.84 L1475.94 49.8946 Q1479.3 49.8946 1480.07 49.4932 Q1480.88 49.0609 1480.88 47.0228 L1480.88 32.2935 Q1480.88 29.082 1479.89 27.1984 Q1478.9 25.2839 1476.18 25.2839 Q1472.91 25.2839 1470.29 28.0321 Q1467.66 30.7804 1467.66 35.4123 L1467.66 47.0228 Q1467.66 49.0609 1468.43 49.4932 Q1469.24 49.8946 1472.57 49.8946 L1472.57 51.84 Q1466.12 51.6547 1465.5 51.6547 Q1465.01 51.6547 1458.37 51.84 Z" fill="#000000" fill-rule="evenodd" fill-opacity="1" /><polyline clip-path="url(#clip292)" style="stroke:#4477aa; stroke-width:4.8; stroke-opacity:1; fill:none" points="
  244.037,1373.31 254.034,1354.07 264.031,1334.59 356.466,1150.93 448.9,977.555 504.45,884.016 559.999,799.696 606.965,735.583 653.932,677.74 704.95,621.495 
  755.969,571.487 803.003,530.34 850.038,493.435 950.89,426.497 1067.74,365.6 1171.58,322.874 1262.64,292.176 1361.91,264.364 1461.78,241.115 1572.2,219.769 
  1677.26,202.829 1786.49,187.99 1878.45,177.282 1990.71,166.014 2096.25,156.916 2265.32,144.749 2291.34,143.099 
  "/>
<polyline clip-path="url(#clip292)" style="stroke:#ee6677; stroke-width:4.8; stroke-opacity:1; fill:none" points="
  244.037,1373.31 249.036,1364.69 254.034,1356.07 259.033,1347.47 264.031,1338.88 310.248,1261.05 356.466,1188.09 402.683,1121.67 448.9,1062.34 476.675,1030.06 
  504.45,1000.22 532.224,972.679 559.999,947.296 606.965,908.862 653.932,875.442 704.95,844.03 755.969,816.955 803.003,795.256 850.038,776.222 950.89,742.69 
  1067.74,713.244 1171.58,693.16 1262.64,679.012 1361.91,666.393 1461.78,655.986 1572.2,646.542 1677.26,639.123 1786.49,632.677 1878.45,628.056 1990.71,623.221 
  2096.25,619.338 2265.32,614.173 2291.34,613.475 
  "/>
<path clip-path="url(#clip290)" d="
M1781.83 421.82 L2280.42 421.82 L2280.42 149.66 L1781.83 149.66  Z
  " fill="#ffffff" fill-rule="evenodd" fill-opacity="0.9"/>
<polyline clip-path="url(#clip290)" style="stroke:#222255; stroke-width:4; stroke-opacity:0.1; fill:none" points="
  1781.83,421.82 2280.42,421.82 2280.42,149.66 1781.83,149.66 1781.83,421.82 
  "/>
<polyline clip-path="url(#clip290)" style="stroke:#4477aa; stroke-width:6; stroke-opacity:1; fill:none" points="
  1805.95,240.38 1950.62,240.38 
  "/>
<path clip-path="url(#clip290)" d="M 0 0 M1974.73 239.879 Q1974.73 238.657 1975.14 237.212 Q1975.59 235.729 1976.96 234.284 Q1978.33 232.839 1980.37 232.839 Q1984.29 232.839 1987.37 238.36 Q1990.45 243.844 1993.78 256.147 Q1995.3 250.774 1997.6 244.993 Q1998.52 242.733 1999.19 241.325 Q1999.86 239.879 2001.27 237.582 Q2002.67 235.248 2004.42 234.062 Q2006.16 232.839 2008.2 232.839 Q2009.79 232.839 2010.68 233.802 Q2011.57 234.729 2011.57 235.952 Q2011.57 237.767 2010.05 238.694 Q2009.53 238.99 2008.27 239.175 Q2007.01 239.361 2005.97 239.657 Q2004.93 239.954 2003.34 241.695 Q2001.75 243.4 2000.23 246.586 Q1998.34 250.514 1996.67 255.331 Q1995 260.149 1995 261.297 Q1995 261.816 1995.37 263.965 Q1995.78 266.077 1996.15 269.783 Q1996.52 273.525 1996.52 277.75 Q1996.52 278.676 1996.45 279.121 Q1996.3 280.121 1995.52 280.751 Q1994.78 281.418 1993.71 281.418 Q1990.82 281.418 1990.82 277.676 L1990.82 277.305 Q1990.82 274.044 1991.22 270.153 Q1991.67 266.3 1992.11 263.706 L1992.52 261.223 Q1992.52 259.63 1990.11 252.775 Q1987.74 245.882 1985.74 242.918 Q1983.29 239.212 1980 239.212 Q1978.48 239.212 1977.74 239.546 Q1977.03 239.879 1976.66 240.435 Q1976.33 240.954 1976.18 241.028 Q1975.73 241.325 1975.22 240.991 Q1974.73 240.621 1974.73 239.879 Z" fill="#000000" fill-rule="evenodd" fill-opacity="1" /><path clip-path="url(#clip290)" d="M 0 0 M2041.14 254.776 Q2041.21 253.849 2042.66 253.849 L2089.16 253.849 Q2091.35 253.849 2091.38 254.701 Q2091.38 255.628 2089.31 255.591 L2043.17 255.591 Q2041.14 255.628 2041.14 254.776 M2041.14 239.954 Q2041.14 239.027 2042.73 239.064 L2089.09 239.064 Q2091.35 239.064 2091.38 239.954 Q2091.38 240.806 2089.46 240.806 L2042.66 240.806 Q2041.14 240.806 2041.14 239.954 Z" fill="#000000" fill-rule="evenodd" fill-opacity="1" /><path clip-path="url(#clip290)" d="M 0 0 M2123.36 222.982 L2123.36 220.611 Q2132.48 220.611 2137.18 215.757 Q2138.48 215.757 2138.7 216.053 Q2138.93 216.35 2138.93 217.721 L2138.93 260.297 Q2138.93 262.557 2140.04 263.261 Q2141.15 263.965 2146 263.965 L2148.41 263.965 L2148.41 266.3 Q2145.74 266.077 2136.11 266.077 Q2126.47 266.077 2123.84 266.3 L2123.84 263.965 L2126.25 263.965 Q2131.03 263.965 2132.18 263.298 Q2133.33 262.594 2133.33 260.297 L2133.33 220.981 Q2129.36 222.982 2123.36 222.982 Z" fill="#000000" fill-rule="evenodd" fill-opacity="1" /><path clip-path="url(#clip290)" d="M 0 0 M2156.01 265.077 Q2154.86 263.854 2154.86 262.261 Q2154.86 260.667 2156.01 259.519 Q2157.16 258.333 2158.9 258.333 Q2160.57 258.333 2161.68 259.445 Q2162.83 260.519 2162.83 262.298 Q2162.83 264.039 2161.6 265.188 Q2160.42 266.3 2158.9 266.3 Q2157.16 266.3 2156.01 265.077 Z" fill="#000000" fill-rule="evenodd" fill-opacity="1" /><path clip-path="url(#clip290)" d="M 0 0 M2164.94 253.775 L2164.94 251.441 L2188.25 215.831 Q2188.84 214.904 2189.76 214.941 Q2190.62 214.941 2190.8 215.275 Q2190.99 215.608 2190.99 216.905 L2190.99 251.441 L2198.58 251.441 L2198.58 253.775 L2190.99 253.775 L2190.99 260.371 Q2190.99 262.557 2191.88 263.261 Q2192.8 263.965 2196.73 263.965 L2198.32 263.965 L2198.32 266.3 Q2195.21 266.077 2188.02 266.077 Q2180.87 266.077 2177.76 266.3 L2177.76 263.965 L2179.35 263.965 Q2183.28 263.965 2184.21 263.298 Q2185.13 262.594 2185.13 260.371 L2185.13 253.775 L2164.94 253.775 M2167.09 251.441 L2185.58 251.441 L2185.58 223.131 L2167.09 251.441 Z" fill="#000000" fill-rule="evenodd" fill-opacity="1" /><polyline clip-path="url(#clip290)" style="stroke:#ee6677; stroke-width:6; stroke-opacity:1; fill:none" points="
  1805.95,331.1 1950.62,331.1 
  "/>
<path clip-path="url(#clip290)" d="M 0 0 M1974.73 330.599 Q1974.73 329.377 1975.14 327.932 Q1975.59 326.449 1976.96 325.004 Q1978.33 323.559 1980.37 323.559 Q1984.29 323.559 1987.37 329.08 Q1990.45 334.564 1993.78 346.867 Q1995.3 341.494 1997.6 335.713 Q1998.52 333.453 1999.19 332.045 Q1999.86 330.599 2001.27 328.302 Q2002.67 325.968 2004.42 324.782 Q2006.16 323.559 2008.2 323.559 Q2009.79 323.559 2010.68 324.522 Q2011.57 325.449 2011.57 326.672 Q2011.57 328.487 2010.05 329.414 Q2009.53 329.71 2008.27 329.895 Q2007.01 330.081 2005.97 330.377 Q2004.93 330.674 2003.34 332.415 Q2001.75 334.12 2000.23 337.306 Q1998.34 341.234 1996.67 346.051 Q1995 350.869 1995 352.017 Q1995 352.536 1995.37 354.685 Q1995.78 356.797 1996.15 360.503 Q1996.52 364.245 1996.52 368.47 Q1996.52 369.396 1996.45 369.841 Q1996.3 370.841 1995.52 371.471 Q1994.78 372.138 1993.71 372.138 Q1990.82 372.138 1990.82 368.396 L1990.82 368.025 Q1990.82 364.764 1991.22 360.873 Q1991.67 357.02 1992.11 354.426 L1992.52 351.943 Q1992.52 350.35 1990.11 343.495 Q1987.74 336.602 1985.74 333.638 Q1983.29 329.932 1980 329.932 Q1978.48 329.932 1977.74 330.266 Q1977.03 330.599 1976.66 331.155 Q1976.33 331.674 1976.18 331.748 Q1975.73 332.045 1975.22 331.711 Q1974.73 331.341 1974.73 330.599 Z" fill="#000000" fill-rule="evenodd" fill-opacity="1" /><path clip-path="url(#clip290)" d="M 0 0 M2041.14 345.496 Q2041.21 344.569 2042.66 344.569 L2089.16 344.569 Q2091.35 344.569 2091.38 345.421 Q2091.38 346.348 2089.31 346.311 L2043.17 346.311 Q2041.14 346.348 2041.14 345.496 M2041.14 330.674 Q2041.14 329.747 2042.73 329.784 L2089.09 329.784 Q2091.35 329.784 2091.38 330.674 Q2091.38 331.526 2089.46 331.526 L2042.66 331.526 Q2041.14 331.526 2041.14 330.674 Z" fill="#000000" fill-rule="evenodd" fill-opacity="1" /><path clip-path="url(#clip290)" d="M 0 0 M2123.36 313.702 L2123.36 311.331 Q2132.48 311.331 2137.18 306.477 Q2138.48 306.477 2138.7 306.773 Q2138.93 307.07 2138.93 308.441 L2138.93 351.017 Q2138.93 353.277 2140.04 353.981 Q2141.15 354.685 2146 354.685 L2148.41 354.685 L2148.41 357.02 Q2145.74 356.797 2136.11 356.797 Q2126.47 356.797 2123.84 357.02 L2123.84 354.685 L2126.25 354.685 Q2131.03 354.685 2132.18 354.018 Q2133.33 353.314 2133.33 351.017 L2133.33 311.701 Q2129.36 313.702 2123.36 313.702 Z" fill="#000000" fill-rule="evenodd" fill-opacity="1" /><path clip-path="url(#clip290)" d="M 0 0 M2156.01 355.797 Q2154.86 354.574 2154.86 352.981 Q2154.86 351.387 2156.01 350.239 Q2157.16 349.053 2158.9 349.053 Q2160.57 349.053 2161.68 350.165 Q2162.83 351.239 2162.83 353.018 Q2162.83 354.759 2161.6 355.908 Q2160.42 357.02 2158.9 357.02 Q2157.16 357.02 2156.01 355.797 Z" fill="#000000" fill-rule="evenodd" fill-opacity="1" /><path clip-path="url(#clip290)" d="M 0 0 M2166.01 333.045 Q2166.01 321.113 2172.09 313.814 Q2178.17 306.477 2185.99 306.477 Q2190.54 306.477 2193.06 308.811 Q2195.62 311.109 2195.62 314.666 Q2195.62 316.63 2194.47 317.482 Q2193.32 318.334 2192.14 318.334 Q2190.77 318.334 2189.69 317.408 Q2188.62 316.482 2188.62 314.814 Q2188.62 311.405 2192.8 311.405 Q2190.84 308.366 2186.13 308.366 Q2184.69 308.366 2183.21 308.811 Q2181.72 309.219 2179.8 310.627 Q2177.87 312.035 2176.39 314.258 Q2174.91 316.482 2173.87 320.669 Q2172.83 324.856 2172.83 330.303 L2172.83 332.119 Q2175.94 324.597 2182.32 324.634 Q2188.69 324.634 2193.1 329.488 Q2197.51 334.342 2197.51 341.531 Q2197.51 348.905 2192.91 353.796 Q2188.32 358.687 2181.87 358.687 Q2178.98 358.687 2176.35 357.464 Q2173.76 356.279 2171.31 353.537 Q2168.9 350.794 2167.46 345.533 Q2166.01 340.271 2166.01 333.045 M2172.98 339.863 Q2172.98 347.311 2174.35 350.869 Q2174.57 351.461 2175.05 352.277 Q2175.57 353.092 2176.42 354.166 Q2177.31 355.204 2178.76 355.908 Q2180.2 356.575 2181.87 356.575 Q2186.95 356.575 2189.39 351.647 Q2190.69 348.905 2190.69 341.457 Q2190.69 333.86 2189.32 331.081 Q2186.99 326.375 2182.24 326.375 Q2179.06 326.375 2176.83 328.561 Q2174.65 330.748 2173.79 333.675 Q2172.98 336.602 2172.98 339.863 Z" fill="#000000" fill-rule="evenodd" fill-opacity="1" /><path clip-path="url(#clip290)" d="M 0 0 M2200.7 333.045 Q2200.7 321.113 2206.77 313.814 Q2212.85 306.477 2220.67 306.477 Q2225.23 306.477 2227.75 308.811 Q2230.3 311.109 2230.3 314.666 Q2230.3 316.63 2229.15 317.482 Q2228.01 318.334 2226.82 318.334 Q2225.45 318.334 2224.37 317.408 Q2223.3 316.482 2223.3 314.814 Q2223.3 311.405 2227.49 311.405 Q2225.52 308.366 2220.82 308.366 Q2219.37 308.366 2217.89 308.811 Q2216.41 309.219 2214.48 310.627 Q2212.55 312.035 2211.07 314.258 Q2209.59 316.482 2208.55 320.669 Q2207.51 324.856 2207.51 330.303 L2207.51 332.119 Q2210.63 324.597 2217 324.634 Q2223.37 324.634 2227.78 329.488 Q2232.19 334.342 2232.19 341.531 Q2232.19 348.905 2227.6 353.796 Q2223 358.687 2216.56 358.687 Q2213.67 358.687 2211.03 357.464 Q2208.44 356.279 2205.99 353.537 Q2203.59 350.794 2202.14 345.533 Q2200.7 340.271 2200.7 333.045 M2207.66 339.863 Q2207.66 347.311 2209.03 350.869 Q2209.26 351.461 2209.74 352.277 Q2210.26 353.092 2211.11 354.166 Q2212 355.204 2213.44 355.908 Q2214.89 356.575 2216.56 356.575 Q2221.63 356.575 2224.08 351.647 Q2225.37 348.905 2225.37 341.457 Q2225.37 333.86 2224 331.081 Q2221.67 326.375 2216.93 326.375 Q2213.74 326.375 2211.52 328.561 Q2209.33 330.748 2208.48 333.675 Q2207.66 336.602 2207.66 339.863 Z" fill="#000000" fill-rule="evenodd" fill-opacity="1" /></svg>
