<?xml version="1.0" encoding="utf-8"?>
<svg xmlns="http://www.w3.org/2000/svg" xmlns:xlink="http://www.w3.org/1999/xlink" width="600" height="400" viewBox="0 0 2400 1600">
<defs>
  <clipPath id="clip010">
    <rect x="0" y="0" width="2400" height="1600"/>
  </clipPath>
</defs>
<path clip-path="url(#clip010)" d="
M0 1600 L2400 1600 L2400 0 L0 0  Z
  " fill="#ffffff" fill-rule="evenodd" fill-opacity="1"/>
<defs>
  <clipPath id="clip011">
    <rect x="480" y="0" width="1681" height="1600"/>
  </clipPath>
</defs>
<path clip-path="url(#clip010)" d="
M295.241 1410.22 L2352.76 1410.22 L2352.76 106.192 L295.241 106.192  Z
  " fill="#ffffff" fill-rule="evenodd" fill-opacity="1"/>
<defs>
  <clipPath id="clip012">
    <rect x="295" y="106" width="2059" height="1305"/>
  </clipPath>
</defs>
<polyline clip-path="url(#clip012)" style="stroke:#222255; stroke-width:4; stroke-opacity:0.1; fill:none" stroke-dasharray="16, 10" points="
  569.145,1410.22 569.145,106.192 
  "/>
<polyline clip-path="url(#clip012)" style="stroke:#222255; stroke-width:4; stroke-opacity:0.1; fill:none" stroke-dasharray="16, 10" points="
  1000.49,1410.22 1000.49,106.192 
  "/>
<polyline clip-path="url(#clip012)" style="stroke:#222255; stroke-width:4; stroke-opacity:0.1; fill:none" stroke-dasharray="16, 10" points="
  1431.83,1410.22 1431.83,106.192 
  "/>
<polyline clip-path="url(#clip012)" style="stroke:#222255; stroke-width:4; stroke-opacity:0.1; fill:none" stroke-dasharray="16, 10" points="
  1863.18,1410.22 1863.18,106.192 
  "/>
<polyline clip-path="url(#clip012)" style="stroke:#222255; stroke-width:4; stroke-opacity:0.1; fill:none" stroke-dasharray="16, 10" points="
  2294.52,1410.22 2294.52,106.192 
  "/>
<polyline clip-path="url(#clip012)" style="stroke:#222255; stroke-width:2; stroke-opacity:0.05; fill:none" points="
  310.338,1410.22 310.338,106.192 
  "/>
<polyline clip-path="url(#clip012)" style="stroke:#222255; stroke-width:2; stroke-opacity:0.05; fill:none" points="
  396.607,1410.22 396.607,106.192 
  "/>
<polyline clip-path="url(#clip012)" style="stroke:#222255; stroke-width:2; stroke-opacity:0.05; fill:none" points="
  482.876,1410.22 482.876,106.192 
  "/>
<polyline clip-path="url(#clip012)" style="stroke:#222255; stroke-width:2; stroke-opacity:0.05; fill:none" points="
  655.414,1410.22 655.414,106.192 
  "/>
<polyline clip-path="url(#clip012)" style="stroke:#222255; stroke-width:2; stroke-opacity:0.05; fill:none" points="
  741.683,1410.22 741.683,106.192 
  "/>
<polyline clip-path="url(#clip012)" style="stroke:#222255; stroke-width:2; stroke-opacity:0.05; fill:none" points="
  827.952,1410.22 827.952,106.192 
  "/>
<polyline clip-path="url(#clip012)" style="stroke:#222255; stroke-width:2; stroke-opacity:0.05; fill:none" points="
  914.221,1410.22 914.221,106.192 
  "/>
<polyline clip-path="url(#clip012)" style="stroke:#222255; stroke-width:2; stroke-opacity:0.05; fill:none" points="
  1086.76,1410.22 1086.76,106.192 
  "/>
<polyline clip-path="url(#clip012)" style="stroke:#222255; stroke-width:2; stroke-opacity:0.05; fill:none" points="
  1173.03,1410.22 1173.03,106.192 
  "/>
<polyline clip-path="url(#clip012)" style="stroke:#222255; stroke-width:2; stroke-opacity:0.05; fill:none" points="
  1259.3,1410.22 1259.3,106.192 
  "/>
<polyline clip-path="url(#clip012)" style="stroke:#222255; stroke-width:2; stroke-opacity:0.05; fill:none" points="
  1345.57,1410.22 1345.57,106.192 
  "/>
<polyline clip-path="url(#clip012)" style="stroke:#222255; stroke-width:2; stroke-opacity:0.05; fill:none" points="
  1518.1,1410.22 1518.1,106.192 
  "/>
<polyline clip-path="url(#clip012)" style="stroke:#222255; stroke-width:2; stroke-opacity:0.05; fill:none" points="
  1604.37,1410.22 1604.37,106.192 
  "/>
<polyline clip-path="url(#clip012)" style="stroke:#222255; stroke-width:2; stroke-opacity:0.05; fill:none" points="
  1690.64,1410.22 1690.64,106.192 
  "/>
<polyline clip-path="url(#clip012)" style="stroke:#222255; stroke-width:2; stroke-opacity:0.05; fill:none" points="
  1776.91,1410.22 1776.91,106.192 
  "/>
<polyline clip-path="url(#clip012)" style="stroke:#222255; stroke-width:2; stroke-opacity:0.05; fill:none" points="
  1949.45,1410.22 1949.45,106.192 
  "/>
<polyline clip-path="url(#clip012)" style="stroke:#222255; stroke-width:2; stroke-opacity:0.05; fill:none" points="
  2035.72,1410.22 2035.72,106.192 
  "/>
<polyline clip-path="url(#clip012)" style="stroke:#222255; stroke-width:2; stroke-opacity:0.05; fill:none" points="
  2121.99,1410.22 2121.99,106.192 
  "/>
<polyline clip-path="url(#clip012)" style="stroke:#222255; stroke-width:2; stroke-opacity:0.05; fill:none" points="
  2208.26,1410.22 2208.26,106.192 
  "/>
<polyline clip-path="url(#clip010)" style="stroke:#000000; stroke-width:4; stroke-opacity:1; fill:none" points="
  295.241,1410.22 2352.76,1410.22 
  "/>
<polyline clip-path="url(#clip010)" style="stroke:#000000; stroke-width:4; stroke-opacity:1; fill:none" points="
  295.241,106.192 2352.76,106.192 
  "/>
<polyline clip-path="url(#clip010)" style="stroke:#000000; stroke-width:4; stroke-opacity:1; fill:none" points="
  569.145,1410.22 569.145,1394.57 
  "/>
<polyline clip-path="url(#clip010)" style="stroke:#000000; stroke-width:4; stroke-opacity:1; fill:none" points="
  1000.49,1410.22 1000.49,1394.57 
  "/>
<polyline clip-path="url(#clip010)" style="stroke:#000000; stroke-width:4; stroke-opacity:1; fill:none" points="
  1431.83,1410.22 1431.83,1394.57 
  "/>
<polyline clip-path="url(#clip010)" style="stroke:#000000; stroke-width:4; stroke-opacity:1; fill:none" points="
  1863.18,1410.22 1863.18,1394.57 
  "/>
<polyline clip-path="url(#clip010)" style="stroke:#000000; stroke-width:4; stroke-opacity:1; fill:none" points="
  2294.52,1410.22 2294.52,1394.57 
  "/>
<polyline clip-path="url(#clip010)" style="stroke:#000000; stroke-width:4; stroke-opacity:1; fill:none" points="
  310.338,1410.22 310.338,1402.4 
  "/>
<polyline clip-path="url(#clip010)" style="stroke:#000000; stroke-width:4; stroke-opacity:1; fill:none" points="
  396.607,1410.22 396.607,1402.4 
  "/>
<polyline clip-path="url(#clip010)" style="stroke:#000000; stroke-width:4; stroke-opacity:1; fill:none" points="
  482.876,1410.22 482.876,1402.4 
  "/>
<polyline clip-path="url(#clip010)" style="stroke:#000000; stroke-width:4; stroke-opacity:1; fill:none" points="
  655.414,1410.22 655.414,1402.4 
  "/>
<polyline clip-path="url(#clip010)" style="stroke:#000000; stroke-width:4; stroke-opacity:1; fill:none" points="
  741.683,1410.22 741.683,1402.4 
  "/>
<polyline clip-path="url(#clip010)" style="stroke:#000000; stroke-width:4; stroke-opacity:1; fill:none" points="
  827.952,1410.22 827.952,1402.4 
  "/>
<polyline clip-path="url(#clip010)" style="stroke:#000000; stroke-width:4; stroke-opacity:1; fill:none" points="
  914.221,1410.22 914.221,1402.4 
  "/>
<polyline clip-path="url(#clip010)" style="stroke:#000000; stroke-width:4; stroke-opacity:1; fill:none" points="
  1086.76,1410.22 1086.76,1402.4 
  "/>
<polyline clip-path="url(#clip010)" style="stroke:#000000; stroke-width:4; stroke-opacity:1; fill:none" points="
  1173.03,1410.22 1173.03,1402.4 
  "/>
<polyline clip-path="url(#clip010)" style="stroke:#000000; stroke-width:4; stroke-opacity:1; fill:none" points="
  1259.3,1410.22 1259.3,1402.4 
  "/>
<polyline clip-path="url(#clip010)" style="stroke:#000000; stroke-width:4; stroke-opacity:1; fill:none" points="
  1345.57,1410.22 1345.57,1402.4 
  "/>
<polyline clip-path="url(#clip010)" style="stroke:#000000; stroke-width:4; stroke-opacity:1; fill:none" points="
  1518.1,1410.22 1518.1,1402.4 
  "/>
<polyline clip-path="url(#clip010)" style="stroke:#000000; stroke-width:4; stroke-opacity:1; fill:none" points="
  1604.37,1410.22 1604.37,1402.4 
  "/>
<polyline clip-path="url(#clip010)" style="stroke:#000000; stroke-width:4; stroke-opacity:1; fill:none" points="
  1690.64,1410.22 1690.64,1402.4 
  "/>
<polyline clip-path="url(#clip010)" style="stroke:#000000; stroke-width:4; stroke-opacity:1; fill:none" points="
  1776.91,1410.22 1776.91,1402.4 
  "/>
<polyline clip-path="url(#clip010)" style="stroke:#000000; stroke-width:4; stroke-opacity:1; fill:none" points="
  1949.45,1410.22 1949.45,1402.4 
  "/>
<polyline clip-path="url(#clip010)" style="stroke:#000000; stroke-width:4; stroke-opacity:1; fill:none" points="
  2035.72,1410.22 2035.72,1402.4 
  "/>
<polyline clip-path="url(#clip010)" style="stroke:#000000; stroke-width:4; stroke-opacity:1; fill:none" points="
  2121.99,1410.22 2121.99,1402.4 
  "/>
<polyline clip-path="url(#clip010)" style="stroke:#000000; stroke-width:4; stroke-opacity:1; fill:none" points="
  2208.26,1410.22 2208.26,1402.4 
  "/>
<path clip-path="url(#clip010)" d="M 0 0 M556.515 1481.26 Q556.515 1480.12 556.608 1479.78 Q556.731 1479.44 557.225 1478.91 L569.361 1465.39 Q576 1457.92 576 1451.4 Q576 1447.17 573.777 1444.14 Q571.584 1441.12 567.539 1441.12 Q564.76 1441.12 562.413 1442.82 Q560.066 1444.51 558.985 1447.54 Q559.171 1447.48 559.819 1447.48 Q561.394 1447.48 562.259 1448.47 Q563.154 1449.45 563.154 1450.78 Q563.154 1452.48 562.043 1453.31 Q560.962 1454.12 559.881 1454.12 Q559.449 1454.12 558.862 1454.02 Q558.306 1453.93 557.411 1453.07 Q556.515 1452.17 556.515 1450.6 Q556.515 1446.18 559.85 1442.66 Q563.216 1439.14 568.342 1439.14 Q574.147 1439.14 577.945 1442.6 Q581.774 1446.03 581.774 1451.4 Q581.774 1453.28 581.188 1455.01 Q580.632 1456.71 579.86 1458.04 Q579.119 1459.37 577.081 1461.5 Q575.043 1463.63 573.406 1465.14 Q571.769 1466.65 568.095 1469.87 L561.394 1476.38 L572.788 1476.38 Q578.347 1476.38 578.779 1475.89 Q579.397 1474.99 580.169 1470.27 L581.774 1470.27 L579.983 1481.26 L556.515 1481.26 Z" fill="#808080" fill-rule="evenodd" fill-opacity="1" /><path clip-path="url(#clip010)" d="M 0 0 M986.47 1470.82 L986.47 1468.88 L1005.89 1439.2 Q1006.39 1438.43 1007.16 1438.46 Q1007.87 1438.46 1008.02 1438.74 Q1008.18 1439.02 1008.18 1440.1 L1008.18 1468.88 L1014.51 1468.88 L1014.51 1470.82 L1008.18 1470.82 L1008.18 1476.32 Q1008.18 1478.14 1008.92 1478.73 Q1009.69 1479.31 1012.96 1479.31 L1014.29 1479.31 L1014.29 1481.26 Q1011.7 1481.07 1005.71 1481.07 Q999.749 1481.07 997.155 1481.26 L997.155 1479.31 L998.482 1479.31 Q1001.76 1479.31 1002.53 1478.76 Q1003.3 1478.17 1003.3 1476.32 L1003.3 1470.82 L986.47 1470.82 M988.261 1468.88 L1003.67 1468.88 L1003.67 1445.29 L988.261 1468.88 Z" fill="#808080" fill-rule="evenodd" fill-opacity="1" /><path clip-path="url(#clip010)" d="M 0 0 M1418.71 1461.28 Q1418.71 1451.34 1423.78 1445.25 Q1428.84 1439.14 1435.35 1439.14 Q1439.15 1439.14 1441.25 1441.09 Q1443.38 1443 1443.38 1445.96 Q1443.38 1447.6 1442.43 1448.31 Q1441.47 1449.02 1440.48 1449.02 Q1439.34 1449.02 1438.44 1448.25 Q1437.55 1447.48 1437.55 1446.09 Q1437.55 1443.25 1441.04 1443.25 Q1439.4 1440.72 1435.48 1440.72 Q1434.27 1440.72 1433.04 1441.09 Q1431.8 1441.43 1430.2 1442.6 Q1428.59 1443.77 1427.36 1445.63 Q1426.12 1447.48 1425.26 1450.97 Q1424.39 1454.46 1424.39 1459 L1424.39 1460.51 Q1426.99 1454.24 1432.3 1454.27 Q1437.61 1454.27 1441.28 1458.32 Q1444.96 1462.36 1444.96 1468.35 Q1444.96 1474.5 1441.13 1478.57 Q1437.3 1482.65 1431.93 1482.65 Q1429.52 1482.65 1427.33 1481.63 Q1425.16 1480.64 1423.13 1478.36 Q1421.12 1476.07 1419.92 1471.69 Q1418.71 1467.3 1418.71 1461.28 M1424.52 1466.96 Q1424.52 1473.17 1425.66 1476.13 Q1425.84 1476.63 1426.25 1477.31 Q1426.68 1477.99 1427.39 1478.88 Q1428.13 1479.75 1429.33 1480.33 Q1430.54 1480.89 1431.93 1480.89 Q1436.16 1480.89 1438.2 1476.78 Q1439.28 1474.5 1439.28 1468.29 Q1439.28 1461.96 1438.13 1459.64 Q1436.19 1455.72 1432.24 1455.72 Q1429.58 1455.72 1427.73 1457.54 Q1425.91 1459.37 1425.2 1461.81 Q1424.52 1464.25 1424.52 1466.96 Z" fill="#808080" fill-rule="evenodd" fill-opacity="1" /><path clip-path="url(#clip010)" d="M 0 0 M1850.06 1471.72 Q1850.06 1464.65 1859.17 1460.08 Q1855.24 1457.42 1854.53 1456.65 Q1851.75 1453.56 1851.75 1449.7 Q1851.75 1445.29 1855.09 1442.23 Q1858.45 1439.14 1863.21 1439.14 Q1867.75 1439.14 1871.18 1441.77 Q1874.6 1444.39 1874.6 1448.56 Q1874.6 1454.43 1866.95 1458.38 Q1872.01 1461.53 1873.22 1462.86 Q1876.3 1466.28 1876.3 1470.64 Q1876.3 1475.7 1872.41 1479.19 Q1868.52 1482.65 1863.15 1482.65 Q1857.9 1482.65 1853.98 1479.59 Q1850.06 1476.54 1850.06 1471.72 M1853.21 1471.72 Q1853.21 1475.64 1856.14 1478.26 Q1859.1 1480.89 1863.21 1480.89 Q1867.19 1480.89 1870.16 1478.6 Q1873.15 1476.32 1873.15 1472.92 Q1873.15 1471.59 1872.69 1470.45 Q1872.26 1469.31 1871.36 1468.41 Q1870.5 1467.49 1869.94 1467.09 Q1869.42 1466.65 1868.4 1465.94 L1860.62 1461.03 Q1853.21 1465.14 1853.21 1471.72 M1854.53 1447.23 Q1854.53 1450.26 1857.71 1452.36 L1865.56 1457.42 Q1871.83 1453.75 1871.83 1448.56 Q1871.83 1445.19 1869.26 1442.97 Q1866.7 1440.72 1863.15 1440.72 Q1859.66 1440.72 1857.1 1442.57 Q1854.53 1444.39 1854.53 1447.23 Z" fill="#808080" fill-rule="evenodd" fill-opacity="1" /><path clip-path="url(#clip010)" d="M 0 0 M2269.54 1445.16 L2269.54 1443.19 Q2277.14 1443.19 2281.06 1439.14 Q2282.14 1439.14 2282.33 1439.39 Q2282.51 1439.63 2282.51 1440.78 L2282.51 1476.26 Q2282.51 1478.14 2283.44 1478.73 Q2284.37 1479.31 2288.41 1479.31 L2290.42 1479.31 L2290.42 1481.26 Q2288.19 1481.07 2280.17 1481.07 Q2272.14 1481.07 2269.94 1481.26 L2269.94 1479.31 L2271.95 1479.31 Q2275.94 1479.31 2276.89 1478.76 Q2277.85 1478.17 2277.85 1476.26 L2277.85 1443.49 Q2274.55 1445.16 2269.54 1445.16 Z" fill="#808080" fill-rule="evenodd" fill-opacity="1" /><path clip-path="url(#clip010)" d="M 0 0 M2292.89 1461.03 Q2292.89 1451.74 2295.23 1446.68 Q2298.51 1439.14 2306.23 1439.14 Q2307.86 1439.14 2309.56 1439.6 Q2311.29 1440.04 2313.45 1441.73 Q2315.65 1443.43 2316.97 1446.21 Q2319.51 1451.58 2319.51 1461.03 Q2319.51 1470.27 2317.16 1475.3 Q2313.73 1482.65 2306.17 1482.65 Q2303.32 1482.65 2300.42 1481.2 Q2297.55 1479.75 2295.73 1476.26 Q2292.89 1471.04 2292.89 1461.03 M2298.14 1460.26 Q2298.14 1469.8 2298.82 1473.6 Q2299.59 1477.71 2301.69 1479.5 Q2303.82 1481.26 2306.17 1481.26 Q2308.7 1481.26 2310.8 1479.38 Q2312.93 1477.46 2313.58 1473.35 Q2314.29 1469.31 2314.26 1460.26 Q2314.26 1451.46 2313.64 1447.94 Q2312.8 1443.83 2310.58 1442.2 Q2308.39 1440.53 2306.17 1440.53 Q2305.33 1440.53 2304.44 1440.78 Q2303.57 1441.02 2302.31 1441.73 Q2301.04 1442.44 2300.05 1444.2 Q2299.09 1445.96 2298.63 1448.62 Q2298.14 1452.05 2298.14 1460.26 Z" fill="#808080" fill-rule="evenodd" fill-opacity="1" /><path clip-path="url(#clip010)" d="M 0 0 M1263.6 1573.23 L1263.6 1570.89 Q1266.34 1570.89 1268.08 1570.37 Q1269.82 1569.82 1270.45 1568.82 Q1271.12 1567.78 1271.27 1567.11 Q1271.42 1566.41 1271.42 1565.26 L1271.42 1527.32 Q1271.42 1525.13 1270.45 1524.46 Q1269.53 1523.76 1265.41 1523.76 L1263.6 1523.76 L1263.6 1521.39 L1276.42 1521.39 Q1277.79 1521.39 1278.16 1521.65 Q1278.53 1521.87 1279.09 1523.06 L1295.54 1565.56 L1312.14 1522.83 Q1312.51 1521.76 1312.84 1521.57 Q1313.22 1521.39 1314.66 1521.39 L1327.48 1521.39 L1327.48 1523.76 L1325.67 1523.76 Q1321.55 1523.76 1320.59 1524.46 Q1319.66 1525.13 1319.66 1527.32 L1319.66 1567.3 Q1319.66 1569.49 1320.59 1570.19 Q1321.55 1570.89 1325.67 1570.89 L1327.48 1570.89 L1327.48 1573.23 Q1324.67 1573.01 1316.62 1573.01 Q1308.51 1573.01 1305.69 1573.23 L1305.69 1570.89 L1307.55 1570.89 Q1311.66 1570.89 1312.59 1570.23 Q1313.51 1569.52 1313.51 1567.3 L1313.51 1523.76 L1313.44 1523.76 L1294.8 1571.78 Q1294.28 1573.23 1293.43 1573.23 Q1292.5 1573.23 1291.91 1571.56 L1273.6 1524.35 L1273.53 1524.35 L1273.53 1565.26 Q1273.53 1566.41 1273.68 1567.11 Q1273.83 1567.78 1274.46 1568.82 Q1275.12 1569.82 1276.86 1570.37 Q1278.61 1570.89 1281.35 1570.89 L1281.35 1573.23 Q1273.38 1573.01 1272.45 1573.01 Q1271.57 1573.01 1263.6 1573.23 Z" fill="#000000" fill-rule="evenodd" fill-opacity="1" /><path clip-path="url(#clip010)" d="M 0 0 M1328.22 1572.49 L1328.22 1515.16 L1384.4 1515.16 L1384.4 1572.49 L1328.22 1572.49 M1332.78 1564.74 L1353.75 1543.77 L1332.78 1522.91 L1332.78 1564.74 M1335.45 1567.93 L1377.17 1567.93 L1356.31 1546.96 L1335.45 1567.93 M1335.45 1519.72 L1356.31 1540.66 L1377.17 1519.72 L1335.45 1519.72 M1358.9 1543.77 L1379.84 1564.74 L1379.84 1522.91 L1358.9 1543.77 Z" fill="#000000" fill-rule="evenodd" fill-opacity="1" /><polyline clip-path="url(#clip012)" style="stroke:#222255; stroke-width:4; stroke-opacity:0.1; fill:none" stroke-dasharray="16, 10" points="
  295.241,1365.27 2352.76,1365.27 
  "/>
<polyline clip-path="url(#clip012)" style="stroke:#222255; stroke-width:4; stroke-opacity:0.1; fill:none" stroke-dasharray="16, 10" points="
  295.241,1120.84 2352.76,1120.84 
  "/>
<polyline clip-path="url(#clip012)" style="stroke:#222255; stroke-width:4; stroke-opacity:0.1; fill:none" stroke-dasharray="16, 10" points="
  295.241,876.403 2352.76,876.403 
  "/>
<polyline clip-path="url(#clip012)" style="stroke:#222255; stroke-width:4; stroke-opacity:0.1; fill:none" stroke-dasharray="16, 10" points="
  295.241,631.968 2352.76,631.968 
  "/>
<polyline clip-path="url(#clip012)" style="stroke:#222255; stroke-width:4; stroke-opacity:0.1; fill:none" stroke-dasharray="16, 10" points="
  295.241,387.533 2352.76,387.533 
  "/>
<polyline clip-path="url(#clip012)" style="stroke:#222255; stroke-width:4; stroke-opacity:0.1; fill:none" stroke-dasharray="16, 10" points="
  295.241,143.099 2352.76,143.099 
  "/>
<polyline clip-path="url(#clip012)" style="stroke:#222255; stroke-width:2; stroke-opacity:0.05; fill:none" points="
  295.241,1396.49 2352.76,1396.49 
  "/>
<polyline clip-path="url(#clip012)" style="stroke:#222255; stroke-width:2; stroke-opacity:0.05; fill:none" points="
  295.241,1288.97 2352.76,1288.97 
  "/>
<polyline clip-path="url(#clip012)" style="stroke:#222255; stroke-width:2; stroke-opacity:0.05; fill:none" points="
  295.241,1232.96 2352.76,1232.96 
  "/>
<polyline clip-path="url(#clip012)" style="stroke:#222255; stroke-width:2; stroke-opacity:0.05; fill:none" points="
  295.241,1188.68 2352.76,1188.68 
  "/>
<polyline clip-path="url(#clip012)" style="stroke:#222255; stroke-width:2; stroke-opacity:0.05; fill:none" points="
  295.241,1152.06 2352.76,1152.06 
  "/>
<polyline clip-path="url(#clip012)" style="stroke:#222255; stroke-width:2; stroke-opacity:0.05; fill:none" points="
  295.241,1044.53 2352.76,1044.53 
  "/>
<polyline clip-path="url(#clip012)" style="stroke:#222255; stroke-width:2; stroke-opacity:0.05; fill:none" points="
  295.241,988.521 2352.76,988.521 
  "/>
<polyline clip-path="url(#clip012)" style="stroke:#222255; stroke-width:2; stroke-opacity:0.05; fill:none" points="
  295.241,944.243 2352.76,944.243 
  "/>
<polyline clip-path="url(#clip012)" style="stroke:#222255; stroke-width:2; stroke-opacity:0.05; fill:none" points="
  295.241,907.625 2352.76,907.625 
  "/>
<polyline clip-path="url(#clip012)" style="stroke:#222255; stroke-width:2; stroke-opacity:0.05; fill:none" points="
  295.241,800.1 2352.76,800.1 
  "/>
<polyline clip-path="url(#clip012)" style="stroke:#222255; stroke-width:2; stroke-opacity:0.05; fill:none" points="
  295.241,744.086 2352.76,744.086 
  "/>
<polyline clip-path="url(#clip012)" style="stroke:#222255; stroke-width:2; stroke-opacity:0.05; fill:none" points="
  295.241,699.808 2352.76,699.808 
  "/>
<polyline clip-path="url(#clip012)" style="stroke:#222255; stroke-width:2; stroke-opacity:0.05; fill:none" points="
  295.241,663.19 2352.76,663.19 
  "/>
<polyline clip-path="url(#clip012)" style="stroke:#222255; stroke-width:2; stroke-opacity:0.05; fill:none" points="
  295.241,555.665 2352.76,555.665 
  "/>
<polyline clip-path="url(#clip012)" style="stroke:#222255; stroke-width:2; stroke-opacity:0.05; fill:none" points="
  295.241,499.652 2352.76,499.652 
  "/>
<polyline clip-path="url(#clip012)" style="stroke:#222255; stroke-width:2; stroke-opacity:0.05; fill:none" points="
  295.241,455.374 2352.76,455.374 
  "/>
<polyline clip-path="url(#clip012)" style="stroke:#222255; stroke-width:2; stroke-opacity:0.05; fill:none" points="
  295.241,418.755 2352.76,418.755 
  "/>
<polyline clip-path="url(#clip012)" style="stroke:#222255; stroke-width:2; stroke-opacity:0.05; fill:none" points="
  295.241,311.23 2352.76,311.23 
  "/>
<polyline clip-path="url(#clip012)" style="stroke:#222255; stroke-width:2; stroke-opacity:0.05; fill:none" points="
  295.241,255.217 2352.76,255.217 
  "/>
<polyline clip-path="url(#clip012)" style="stroke:#222255; stroke-width:2; stroke-opacity:0.05; fill:none" points="
  295.241,210.939 2352.76,210.939 
  "/>
<polyline clip-path="url(#clip012)" style="stroke:#222255; stroke-width:2; stroke-opacity:0.05; fill:none" points="
  295.241,174.321 2352.76,174.321 
  "/>
<polyline clip-path="url(#clip010)" style="stroke:#000000; stroke-width:4; stroke-opacity:1; fill:none" points="
  295.241,1410.22 295.241,106.192 
  "/>
<polyline clip-path="url(#clip010)" style="stroke:#000000; stroke-width:4; stroke-opacity:1; fill:none" points="
  2352.76,1410.22 2352.76,106.192 
  "/>
<polyline clip-path="url(#clip010)" style="stroke:#000000; stroke-width:4; stroke-opacity:1; fill:none" points="
  295.241,1365.27 319.931,1365.27 
  "/>
<polyline clip-path="url(#clip010)" style="stroke:#000000; stroke-width:4; stroke-opacity:1; fill:none" points="
  295.241,1120.84 319.931,1120.84 
  "/>
<polyline clip-path="url(#clip010)" style="stroke:#000000; stroke-width:4; stroke-opacity:1; fill:none" points="
  295.241,876.403 319.931,876.403 
  "/>
<polyline clip-path="url(#clip010)" style="stroke:#000000; stroke-width:4; stroke-opacity:1; fill:none" points="
  295.241,631.968 319.931,631.968 
  "/>
<polyline clip-path="url(#clip010)" style="stroke:#000000; stroke-width:4; stroke-opacity:1; fill:none" points="
  295.241,387.533 319.931,387.533 
  "/>
<polyline clip-path="url(#clip010)" style="stroke:#000000; stroke-width:4; stroke-opacity:1; fill:none" points="
  295.241,143.099 319.931,143.099 
  "/>
<polyline clip-path="url(#clip010)" style="stroke:#000000; stroke-width:4; stroke-opacity:1; fill:none" points="
  295.241,1396.49 307.586,1396.49 
  "/>
<polyline clip-path="url(#clip010)" style="stroke:#000000; stroke-width:4; stroke-opacity:1; fill:none" points="
  295.241,1288.97 307.586,1288.97 
  "/>
<polyline clip-path="url(#clip010)" style="stroke:#000000; stroke-width:4; stroke-opacity:1; fill:none" points="
  295.241,1232.96 307.586,1232.96 
  "/>
<polyline clip-path="url(#clip010)" style="stroke:#000000; stroke-width:4; stroke-opacity:1; fill:none" points="
  295.241,1188.68 307.586,1188.68 
  "/>
<polyline clip-path="url(#clip010)" style="stroke:#000000; stroke-width:4; stroke-opacity:1; fill:none" points="
  295.241,1152.06 307.586,1152.06 
  "/>
<polyline clip-path="url(#clip010)" style="stroke:#000000; stroke-width:4; stroke-opacity:1; fill:none" points="
  295.241,1044.53 307.586,1044.53 
  "/>
<polyline clip-path="url(#clip010)" style="stroke:#000000; stroke-width:4; stroke-opacity:1; fill:none" points="
  295.241,988.521 307.586,988.521 
  "/>
<polyline clip-path="url(#clip010)" style="stroke:#000000; stroke-width:4; stroke-opacity:1; fill:none" points="
  295.241,944.243 307.586,944.243 
  "/>
<polyline clip-path="url(#clip010)" style="stroke:#000000; stroke-width:4; stroke-opacity:1; fill:none" points="
  295.241,907.625 307.586,907.625 
  "/>
<polyline clip-path="url(#clip010)" style="stroke:#000000; stroke-width:4; stroke-opacity:1; fill:none" points="
  295.241,800.1 307.586,800.1 
  "/>
<polyline clip-path="url(#clip010)" style="stroke:#000000; stroke-width:4; stroke-opacity:1; fill:none" points="
  295.241,744.086 307.586,744.086 
  "/>
<polyline clip-path="url(#clip010)" style="stroke:#000000; stroke-width:4; stroke-opacity:1; fill:none" points="
  295.241,699.808 307.586,699.808 
  "/>
<polyline clip-path="url(#clip010)" style="stroke:#000000; stroke-width:4; stroke-opacity:1; fill:none" points="
  295.241,663.19 307.586,663.19 
  "/>
<polyline clip-path="url(#clip010)" style="stroke:#000000; stroke-width:4; stroke-opacity:1; fill:none" points="
  295.241,555.665 307.586,555.665 
  "/>
<polyline clip-path="url(#clip010)" style="stroke:#000000; stroke-width:4; stroke-opacity:1; fill:none" points="
  295.241,499.652 307.586,499.652 
  "/>
<polyline clip-path="url(#clip010)" style="stroke:#000000; stroke-width:4; stroke-opacity:1; fill:none" points="
  295.241,455.374 307.586,455.374 
  "/>
<polyline clip-path="url(#clip010)" style="stroke:#000000; stroke-width:4; stroke-opacity:1; fill:none" points="
  295.241,418.755 307.586,418.755 
  "/>
<polyline clip-path="url(#clip010)" style="stroke:#000000; stroke-width:4; stroke-opacity:1; fill:none" points="
  295.241,311.23 307.586,311.23 
  "/>
<polyline clip-path="url(#clip010)" style="stroke:#000000; stroke-width:4; stroke-opacity:1; fill:none" points="
  295.241,255.217 307.586,255.217 
  "/>
<polyline clip-path="url(#clip010)" style="stroke:#000000; stroke-width:4; stroke-opacity:1; fill:none" points="
  295.241,210.939 307.586,210.939 
  "/>
<polyline clip-path="url(#clip010)" style="stroke:#000000; stroke-width:4; stroke-opacity:1; fill:none" points="
  295.241,174.321 307.586,174.321 
  "/>
<path clip-path="url(#clip010)" d="M 0 0 M119.132 1358.83 L119.132 1356.86 Q126.728 1356.86 130.65 1352.81 Q131.731 1352.81 131.916 1353.06 Q132.101 1353.31 132.101 1354.45 L132.101 1389.93 Q132.101 1391.81 133.028 1392.4 Q133.954 1392.99 137.999 1392.99 L140.006 1392.99 L140.006 1394.93 Q137.783 1394.75 129.755 1394.75 Q121.726 1394.75 119.534 1394.93 L119.534 1392.99 L121.541 1392.99 Q125.524 1392.99 126.481 1392.43 Q127.439 1391.84 127.439 1389.93 L127.439 1357.17 Q124.135 1358.83 119.132 1358.83 Z" fill="#808080" fill-rule="evenodd" fill-opacity="1" /><path clip-path="url(#clip010)" d="M 0 0 M142.477 1374.71 Q142.477 1365.41 144.824 1360.35 Q148.097 1352.81 155.817 1352.81 Q157.453 1352.81 159.152 1353.28 Q160.881 1353.71 163.042 1355.41 Q165.235 1357.1 166.563 1359.88 Q169.095 1365.26 169.095 1374.71 Q169.095 1383.94 166.748 1388.97 Q163.32 1396.32 155.755 1396.32 Q152.914 1396.32 150.011 1394.87 Q147.14 1393.42 145.318 1389.93 Q142.477 1384.71 142.477 1374.71 M147.726 1373.93 Q147.726 1383.48 148.406 1387.27 Q149.178 1391.38 151.277 1393.17 Q153.408 1394.93 155.755 1394.93 Q158.287 1394.93 160.387 1393.05 Q162.517 1391.13 163.166 1387.03 Q163.876 1382.98 163.845 1373.93 Q163.845 1365.13 163.228 1361.61 Q162.394 1357.51 160.171 1355.87 Q157.978 1354.2 155.755 1354.2 Q154.921 1354.2 154.026 1354.45 Q153.161 1354.7 151.895 1355.41 Q150.629 1356.12 149.641 1357.88 Q148.684 1359.64 148.22 1362.29 Q147.726 1365.72 147.726 1373.93 Z" fill="#808080" fill-rule="evenodd" fill-opacity="1" /><path clip-path="url(#clip010)" d="M 0 0 M203.015 1347.1 Q203.317 1347.4 203.317 1347.82 Q203.317 1348.25 203.015 1348.55 Q202.714 1348.85 202.288 1348.85 L170.123 1348.85 Q169.697 1348.85 169.396 1348.55 Q169.095 1348.25 169.095 1347.82 Q169.095 1347.4 169.396 1347.1 Q169.697 1346.79 170.123 1346.79 L202.288 1346.79 Q202.714 1346.79 203.015 1347.1 Z" fill="#808080" fill-rule="evenodd" fill-opacity="1" /><path clip-path="url(#clip010)" d="M 0 0 M205.876 1360.67 Q205.876 1359.74 205.951 1359.46 Q206.051 1359.19 206.453 1358.76 L216.313 1347.77 Q221.707 1341.7 221.707 1336.41 Q221.707 1332.97 219.901 1330.51 Q218.119 1328.05 214.833 1328.05 Q212.575 1328.05 210.668 1329.43 Q208.761 1330.81 207.883 1333.27 Q208.033 1333.22 208.56 1333.22 Q209.84 1333.22 210.542 1334.02 Q211.27 1334.83 211.27 1335.91 Q211.27 1337.29 210.367 1337.96 Q209.489 1338.62 208.61 1338.62 Q208.259 1338.62 207.782 1338.54 Q207.331 1338.46 206.603 1337.76 Q205.876 1337.03 205.876 1335.76 Q205.876 1332.17 208.585 1329.31 Q211.32 1326.45 215.485 1326.45 Q220.202 1326.45 223.288 1329.26 Q226.399 1332.04 226.399 1336.41 Q226.399 1337.94 225.922 1339.34 Q225.47 1340.72 224.843 1341.8 Q224.241 1342.88 222.585 1344.61 Q220.929 1346.34 219.6 1347.57 Q218.27 1348.8 215.284 1351.41 L209.84 1356.7 L219.098 1356.7 Q223.614 1356.7 223.965 1356.3 Q224.467 1355.58 225.094 1351.74 L226.399 1351.74 L224.944 1360.67 L205.876 1360.67 Z" fill="#808080" fill-rule="evenodd" fill-opacity="1" /><path clip-path="url(#clip010)" d="M 0 0 M231.542 1359.84 Q230.764 1359.01 230.764 1357.93 Q230.764 1356.86 231.542 1356.08 Q232.32 1355.27 233.499 1355.27 Q234.628 1355.27 235.381 1356.03 Q236.158 1356.76 236.158 1357.96 Q236.158 1359.14 235.331 1359.92 Q234.528 1360.67 233.499 1360.67 Q232.32 1360.67 231.542 1359.84 Z" fill="#808080" fill-rule="evenodd" fill-opacity="1" /><path clip-path="url(#clip010)" d="M 0 0 M238.718 1352.39 Q238.718 1350.86 239.546 1350.28 Q240.374 1349.68 241.252 1349.68 Q242.431 1349.68 243.108 1350.43 Q243.811 1351.16 243.811 1352.19 Q243.811 1353.22 243.108 1353.97 Q242.431 1354.7 241.252 1354.7 Q240.675 1354.7 240.374 1354.6 Q241.051 1356.96 243.108 1358.66 Q245.191 1360.37 247.925 1360.37 Q251.363 1360.37 253.42 1357.03 Q254.649 1354.87 254.649 1349.98 Q254.649 1345.67 253.721 1343.51 Q252.291 1340.22 249.355 1340.22 Q245.191 1340.22 242.732 1343.81 Q242.431 1344.26 242.08 1344.29 Q241.578 1344.29 241.452 1344.01 Q241.352 1343.71 241.352 1342.93 L241.352 1327.73 Q241.352 1326.5 241.854 1326.5 Q242.054 1326.5 242.481 1326.65 Q245.718 1328.08 249.305 1328.1 Q252.993 1328.1 256.305 1326.6 Q256.556 1326.45 256.707 1326.45 Q257.208 1326.45 257.234 1327.02 Q257.234 1327.22 256.807 1327.83 Q256.406 1328.4 255.527 1329.18 Q254.649 1329.93 253.52 1330.66 Q252.391 1331.39 250.735 1331.89 Q249.105 1332.37 247.298 1332.37 Q245.14 1332.37 242.933 1331.69 L242.933 1341.7 Q245.592 1339.09 249.456 1339.09 Q253.571 1339.09 256.406 1342.4 Q259.241 1345.72 259.241 1350.33 Q259.241 1355.17 255.879 1358.49 Q252.542 1361.8 248.026 1361.8 Q243.911 1361.8 241.302 1358.86 Q238.718 1355.93 238.718 1352.39 Z" fill="#808080" fill-rule="evenodd" fill-opacity="1" /><path clip-path="url(#clip010)" d="M 0 0 M118.58 1114.4 L118.58 1112.42 Q126.176 1112.42 130.098 1108.38 Q131.179 1108.38 131.364 1108.63 Q131.549 1108.87 131.549 1110.01 L131.549 1145.49 Q131.549 1147.38 132.476 1147.97 Q133.402 1148.55 137.447 1148.55 L139.454 1148.55 L139.454 1150.5 Q137.231 1150.31 129.203 1150.31 Q121.174 1150.31 118.982 1150.5 L118.982 1148.55 L120.989 1148.55 Q124.972 1148.55 125.929 1148 Q126.887 1147.41 126.887 1145.49 L126.887 1112.73 Q123.583 1114.4 118.58 1114.4 Z" fill="#808080" fill-rule="evenodd" fill-opacity="1" /><path clip-path="url(#clip010)" d="M 0 0 M141.925 1130.27 Q141.925 1120.98 144.272 1115.91 Q147.545 1108.38 155.265 1108.38 Q156.901 1108.38 158.6 1108.84 Q160.329 1109.27 162.49 1110.97 Q164.683 1112.67 166.011 1115.45 Q168.543 1120.82 168.543 1130.27 Q168.543 1139.5 166.196 1144.54 Q162.768 1151.89 155.203 1151.89 Q152.362 1151.89 149.459 1150.44 Q146.588 1148.98 144.766 1145.49 Q141.925 1140.28 141.925 1130.27 M147.174 1129.5 Q147.174 1139.04 147.854 1142.84 Q148.626 1146.95 150.725 1148.74 Q152.856 1150.5 155.203 1150.5 Q157.735 1150.5 159.835 1148.61 Q161.965 1146.7 162.614 1142.59 Q163.324 1138.55 163.293 1129.5 Q163.293 1120.7 162.676 1117.18 Q161.842 1113.07 159.619 1111.44 Q157.426 1109.77 155.203 1109.77 Q154.369 1109.77 153.474 1110.01 Q152.609 1110.26 151.343 1110.97 Q150.077 1111.68 149.089 1113.44 Q148.132 1115.2 147.668 1117.86 Q147.174 1121.29 147.174 1129.5 Z" fill="#808080" fill-rule="evenodd" fill-opacity="1" /><path clip-path="url(#clip010)" d="M 0 0 M202.464 1102.66 Q202.765 1102.96 202.765 1103.39 Q202.765 1103.81 202.464 1104.12 Q202.162 1104.42 201.736 1104.42 L169.571 1104.42 Q169.145 1104.42 168.844 1104.12 Q168.543 1103.81 168.543 1103.39 Q168.543 1102.96 168.844 1102.66 Q169.145 1102.36 169.571 1102.36 L201.736 1102.36 Q202.162 1102.36 202.464 1102.66 Z" fill="#808080" fill-rule="evenodd" fill-opacity="1" /><path clip-path="url(#clip010)" d="M 0 0 M205.324 1116.23 Q205.324 1115.31 205.399 1115.03 Q205.499 1114.75 205.901 1114.33 L215.761 1103.34 Q221.155 1097.27 221.155 1091.97 Q221.155 1088.54 219.349 1086.08 Q217.567 1083.62 214.281 1083.62 Q212.023 1083.62 210.116 1085 Q208.209 1086.38 207.331 1088.84 Q207.481 1088.79 208.008 1088.79 Q209.288 1088.79 209.99 1089.59 Q210.718 1090.39 210.718 1091.47 Q210.718 1092.85 209.815 1093.53 Q208.937 1094.18 208.058 1094.18 Q207.707 1094.18 207.23 1094.11 Q206.779 1094.03 206.051 1093.33 Q205.324 1092.6 205.324 1091.32 Q205.324 1087.73 208.033 1084.87 Q210.768 1082.01 214.933 1082.01 Q219.65 1082.01 222.736 1084.82 Q225.847 1087.61 225.847 1091.97 Q225.847 1093.5 225.37 1094.91 Q224.918 1096.29 224.291 1097.37 Q223.689 1098.45 222.033 1100.18 Q220.377 1101.91 219.048 1103.14 Q217.718 1104.37 214.732 1106.98 L209.288 1112.27 L218.546 1112.27 Q223.062 1112.27 223.413 1111.87 Q223.915 1111.14 224.542 1107.3 L225.847 1107.3 L224.392 1116.23 L205.324 1116.23 Z" fill="#808080" fill-rule="evenodd" fill-opacity="1" /><path clip-path="url(#clip010)" d="M 0 0 M230.99 1115.41 Q230.212 1114.58 230.212 1113.5 Q230.212 1112.42 230.99 1111.64 Q231.768 1110.84 232.947 1110.84 Q234.076 1110.84 234.829 1111.59 Q235.607 1112.32 235.607 1113.52 Q235.607 1114.7 234.779 1115.48 Q233.976 1116.23 232.947 1116.23 Q231.768 1116.23 230.99 1115.41 Z" fill="#808080" fill-rule="evenodd" fill-opacity="1" /><path clip-path="url(#clip010)" d="M 0 0 M237.614 1099.8 Q237.614 1092.25 239.52 1088.13 Q242.18 1082.01 248.452 1082.01 Q249.782 1082.01 251.162 1082.39 Q252.567 1082.74 254.323 1084.12 Q256.105 1085.5 257.183 1087.76 Q259.241 1092.12 259.241 1099.8 Q259.241 1107.3 257.334 1111.39 Q254.549 1117.36 248.402 1117.36 Q246.094 1117.36 243.735 1116.18 Q241.402 1115 239.922 1112.17 Q237.614 1107.93 237.614 1099.8 M241.879 1099.17 Q241.879 1106.93 242.431 1110.01 Q243.058 1113.35 244.764 1114.8 Q246.495 1116.23 248.402 1116.23 Q250.459 1116.23 252.166 1114.7 Q253.897 1113.15 254.424 1109.81 Q255.001 1106.52 254.976 1099.17 Q254.976 1092.02 254.474 1089.16 Q253.796 1085.83 251.99 1084.5 Q250.209 1083.14 248.402 1083.14 Q247.725 1083.14 246.997 1083.34 Q246.295 1083.54 245.266 1084.12 Q244.237 1084.7 243.434 1086.13 Q242.657 1087.56 242.28 1089.71 Q241.879 1092.5 241.879 1099.17 Z" fill="#808080" fill-rule="evenodd" fill-opacity="1" /><path clip-path="url(#clip010)" d="M 0 0 M120.688 869.965 L120.688 867.988 Q128.284 867.988 132.206 863.943 Q133.286 863.943 133.472 864.19 Q133.657 864.437 133.657 865.58 L133.657 901.06 Q133.657 902.944 134.583 903.53 Q135.51 904.117 139.555 904.117 L141.562 904.117 L141.562 906.062 Q139.339 905.877 131.31 905.877 Q123.282 905.877 121.089 906.062 L121.089 904.117 L123.096 904.117 Q127.08 904.117 128.037 903.561 Q128.994 902.974 128.994 901.06 L128.994 868.297 Q125.69 869.965 120.688 869.965 Z" fill="#808080" fill-rule="evenodd" fill-opacity="1" /><path clip-path="url(#clip010)" d="M 0 0 M144.032 885.837 Q144.032 876.542 146.379 871.478 Q149.652 863.943 157.372 863.943 Q159.009 863.943 160.707 864.406 Q162.436 864.839 164.598 866.537 Q166.79 868.235 168.118 871.015 Q170.65 876.388 170.65 885.837 Q170.65 895.069 168.303 900.103 Q164.876 907.452 157.31 907.452 Q154.47 907.452 151.567 906.001 Q148.695 904.549 146.873 901.06 Q144.032 895.841 144.032 885.837 M149.282 885.065 Q149.282 894.606 149.961 898.404 Q150.733 902.511 152.833 904.302 Q154.964 906.062 157.31 906.062 Q159.842 906.062 161.942 904.179 Q164.073 902.264 164.721 898.157 Q165.432 894.112 165.401 885.065 Q165.401 876.264 164.783 872.744 Q163.949 868.637 161.726 867 Q159.534 865.333 157.31 865.333 Q156.477 865.333 155.581 865.58 Q154.717 865.827 153.45 866.537 Q152.184 867.247 151.196 869.007 Q150.239 870.767 149.776 873.423 Q149.282 876.851 149.282 885.065 Z" fill="#808080" fill-rule="evenodd" fill-opacity="1" /><path clip-path="url(#clip010)" d="M 0 0 M204.571 858.226 Q204.872 858.527 204.872 858.954 Q204.872 859.38 204.571 859.681 Q204.27 859.982 203.843 859.982 L171.679 859.982 Q171.252 859.982 170.951 859.681 Q170.65 859.38 170.65 858.954 Q170.65 858.527 170.951 858.226 Q171.252 857.925 171.679 857.925 L203.843 857.925 Q204.27 857.925 204.571 858.226 Z" fill="#808080" fill-rule="evenodd" fill-opacity="1" /><path clip-path="url(#clip010)" d="M 0 0 M209.438 842.47 L209.438 840.864 Q215.61 840.864 218.797 837.578 Q219.675 837.578 219.825 837.778 Q219.976 837.979 219.976 838.907 L219.976 867.735 Q219.976 869.265 220.729 869.742 Q221.481 870.219 224.768 870.219 L226.399 870.219 L226.399 871.799 Q224.592 871.649 218.069 871.649 Q211.546 871.649 209.765 871.799 L209.765 870.219 L211.395 870.219 Q214.632 870.219 215.41 869.767 Q216.187 869.29 216.187 867.735 L216.187 841.115 Q213.503 842.47 209.438 842.47 Z" fill="#808080" fill-rule="evenodd" fill-opacity="1" /><path clip-path="url(#clip010)" d="M 0 0 M231.542 870.971 Q230.764 870.144 230.764 869.065 Q230.764 867.986 231.542 867.208 Q232.32 866.405 233.499 866.405 Q234.628 866.405 235.381 867.158 Q236.158 867.885 236.158 869.09 Q236.158 870.269 235.331 871.047 Q234.528 871.799 233.499 871.799 Q232.32 871.799 231.542 870.971 Z" fill="#808080" fill-rule="evenodd" fill-opacity="1" /><path clip-path="url(#clip010)" d="M 0 0 M238.718 863.52 Q238.718 861.989 239.546 861.412 Q240.374 860.81 241.252 860.81 Q242.431 860.81 243.108 861.563 Q243.811 862.291 243.811 863.319 Q243.811 864.348 243.108 865.101 Q242.431 865.828 241.252 865.828 Q240.675 865.828 240.374 865.728 Q241.051 868.086 243.108 869.792 Q245.191 871.498 247.925 871.498 Q251.363 871.498 253.42 868.161 Q254.649 866.004 254.649 861.111 Q254.649 856.796 253.721 854.638 Q252.291 851.352 249.355 851.352 Q245.191 851.352 242.732 854.939 Q242.431 855.391 242.08 855.416 Q241.578 855.416 241.452 855.14 Q241.352 854.839 241.352 854.061 L241.352 838.857 Q241.352 837.628 241.854 837.628 Q242.054 837.628 242.481 837.778 Q245.718 839.208 249.305 839.233 Q252.993 839.233 256.305 837.728 Q256.556 837.578 256.707 837.578 Q257.208 837.578 257.234 838.155 Q257.234 838.355 256.807 838.957 Q256.406 839.535 255.527 840.312 Q254.649 841.065 253.52 841.793 Q252.391 842.52 250.735 843.022 Q249.105 843.499 247.298 843.499 Q245.14 843.499 242.933 842.821 L242.933 852.832 Q245.592 850.223 249.456 850.223 Q253.571 850.223 256.406 853.534 Q259.241 856.846 259.241 861.463 Q259.241 866.305 255.879 869.617 Q252.542 872.928 248.026 872.928 Q243.911 872.928 241.302 869.993 Q238.718 867.058 238.718 863.52 Z" fill="#808080" fill-rule="evenodd" fill-opacity="1" /><path clip-path="url(#clip010)" d="M 0 0 M120.136 625.53 L120.136 623.554 Q127.732 623.554 131.654 619.508 Q132.734 619.508 132.92 619.755 Q133.105 620.002 133.105 621.145 L133.105 656.625 Q133.105 658.509 134.031 659.096 Q134.958 659.682 139.003 659.682 L141.01 659.682 L141.01 661.628 Q138.787 661.442 130.758 661.442 Q122.73 661.442 120.537 661.628 L120.537 659.682 L122.544 659.682 Q126.528 659.682 127.485 659.126 Q128.442 658.54 128.442 656.625 L128.442 623.862 Q125.138 625.53 120.136 625.53 Z" fill="#808080" fill-rule="evenodd" fill-opacity="1" /><path clip-path="url(#clip010)" d="M 0 0 M143.48 641.402 Q143.48 632.107 145.827 627.043 Q149.1 619.508 156.82 619.508 Q158.457 619.508 160.155 619.972 Q161.884 620.404 164.046 622.102 Q166.238 623.801 167.566 626.58 Q170.098 631.953 170.098 641.402 Q170.098 650.635 167.751 655.668 Q164.324 663.017 156.758 663.017 Q153.918 663.017 151.015 661.566 Q148.143 660.115 146.321 656.625 Q143.48 651.407 143.48 641.402 M148.73 640.63 Q148.73 650.171 149.409 653.97 Q150.181 658.077 152.281 659.868 Q154.412 661.628 156.758 661.628 Q159.291 661.628 161.39 659.744 Q163.521 657.829 164.169 653.723 Q164.88 649.677 164.849 640.63 Q164.849 631.829 164.231 628.309 Q163.397 624.202 161.174 622.565 Q158.982 620.898 156.758 620.898 Q155.925 620.898 155.029 621.145 Q154.165 621.392 152.899 622.102 Q151.632 622.812 150.644 624.573 Q149.687 626.333 149.224 628.988 Q148.73 632.416 148.73 640.63 Z" fill="#808080" fill-rule="evenodd" fill-opacity="1" /><path clip-path="url(#clip010)" d="M 0 0 M204.019 613.791 Q204.32 614.092 204.32 614.519 Q204.32 614.945 204.019 615.246 Q203.718 615.548 203.291 615.548 L171.127 615.548 Q170.7 615.548 170.399 615.246 Q170.098 614.945 170.098 614.519 Q170.098 614.092 170.399 613.791 Q170.7 613.49 171.127 613.49 L203.291 613.49 Q203.718 613.49 204.019 613.791 Z" fill="#808080" fill-rule="evenodd" fill-opacity="1" /><path clip-path="url(#clip010)" d="M 0 0 M208.886 598.035 L208.886 596.429 Q215.058 596.429 218.245 593.143 Q219.123 593.143 219.273 593.343 Q219.424 593.544 219.424 594.472 L219.424 623.3 Q219.424 624.831 220.177 625.307 Q220.929 625.784 224.216 625.784 L225.847 625.784 L225.847 627.365 Q224.04 627.214 217.517 627.214 Q210.994 627.214 209.213 627.365 L209.213 625.784 L210.843 625.784 Q214.08 625.784 214.858 625.332 Q215.635 624.856 215.635 623.3 L215.635 596.68 Q212.951 598.035 208.886 598.035 Z" fill="#808080" fill-rule="evenodd" fill-opacity="1" /><path clip-path="url(#clip010)" d="M 0 0 M230.99 626.537 Q230.212 625.709 230.212 624.63 Q230.212 623.551 230.99 622.773 Q231.768 621.97 232.947 621.97 Q234.076 621.97 234.829 622.723 Q235.607 623.451 235.607 624.655 Q235.607 625.834 234.779 626.612 Q233.976 627.365 232.947 627.365 Q231.768 627.365 230.99 626.537 Z" fill="#808080" fill-rule="evenodd" fill-opacity="1" /><path clip-path="url(#clip010)" d="M 0 0 M237.614 610.931 Q237.614 603.379 239.52 599.265 Q242.18 593.143 248.452 593.143 Q249.782 593.143 251.162 593.519 Q252.567 593.87 254.323 595.25 Q256.105 596.63 257.183 598.888 Q259.241 603.254 259.241 610.931 Q259.241 618.433 257.334 622.522 Q254.549 628.494 248.402 628.494 Q246.094 628.494 243.735 627.314 Q241.402 626.135 239.922 623.3 Q237.614 619.06 237.614 610.931 M241.879 610.304 Q241.879 618.056 242.431 621.142 Q243.058 624.479 244.764 625.935 Q246.495 627.365 248.402 627.365 Q250.459 627.365 252.166 625.834 Q253.897 624.279 254.424 620.942 Q255.001 617.655 254.976 610.304 Q254.976 603.153 254.474 600.293 Q253.796 596.956 251.99 595.627 Q250.209 594.272 248.402 594.272 Q247.725 594.272 246.997 594.472 Q246.295 594.673 245.266 595.25 Q244.237 595.827 243.434 597.257 Q242.657 598.688 242.28 600.845 Q241.879 603.63 241.879 610.304 Z" fill="#808080" fill-rule="evenodd" fill-opacity="1" /><path clip-path="url(#clip010)" d="M 0 0 M118.58 381.095 L118.58 379.119 Q126.176 379.119 130.098 375.074 Q131.179 375.074 131.364 375.321 Q131.549 375.568 131.549 376.71 L131.549 412.19 Q131.549 414.074 132.476 414.661 Q133.402 415.247 137.447 415.247 L139.454 415.247 L139.454 417.193 Q137.231 417.008 129.203 417.008 Q121.174 417.008 118.982 417.193 L118.982 415.247 L120.989 415.247 Q124.972 415.247 125.929 414.692 Q126.887 414.105 126.887 412.19 L126.887 379.428 Q123.583 381.095 118.58 381.095 Z" fill="#808080" fill-rule="evenodd" fill-opacity="1" /><path clip-path="url(#clip010)" d="M 0 0 M141.925 396.967 Q141.925 387.672 144.272 382.608 Q147.545 375.074 155.265 375.074 Q156.901 375.074 158.6 375.537 Q160.329 375.969 162.49 377.667 Q164.683 379.366 166.011 382.145 Q168.543 387.518 168.543 396.967 Q168.543 406.2 166.196 411.233 Q162.768 418.582 155.203 418.582 Q152.362 418.582 149.459 417.131 Q146.588 415.68 144.766 412.19 Q141.925 406.972 141.925 396.967 M147.174 396.195 Q147.174 405.737 147.854 409.535 Q148.626 413.642 150.725 415.433 Q152.856 417.193 155.203 417.193 Q157.735 417.193 159.835 415.309 Q161.965 413.395 162.614 409.288 Q163.324 405.243 163.293 396.195 Q163.293 387.394 162.676 383.874 Q161.842 379.767 159.619 378.131 Q157.426 376.463 155.203 376.463 Q154.369 376.463 153.474 376.71 Q152.609 376.957 151.343 377.667 Q150.077 378.378 149.089 380.138 Q148.132 381.898 147.668 384.554 Q147.174 387.981 147.174 396.195 Z" fill="#808080" fill-rule="evenodd" fill-opacity="1" /><path clip-path="url(#clip010)" d="M 0 0 M202.464 369.357 Q202.765 369.658 202.765 370.084 Q202.765 370.511 202.464 370.812 Q202.162 371.113 201.736 371.113 L169.571 371.113 Q169.145 371.113 168.844 370.812 Q168.543 370.511 168.543 370.084 Q168.543 369.658 168.844 369.357 Q169.145 369.055 169.571 369.055 L201.736 369.055 Q202.162 369.055 202.464 369.357 Z" fill="#808080" fill-rule="evenodd" fill-opacity="1" /><path clip-path="url(#clip010)" d="M 0 0 M204.772 366.496 Q204.772 358.944 206.679 354.83 Q209.338 348.708 215.61 348.708 Q216.94 348.708 218.32 349.084 Q219.725 349.436 221.481 350.815 Q223.263 352.195 224.341 354.453 Q226.399 358.819 226.399 366.496 Q226.399 373.998 224.492 378.088 Q221.707 384.059 215.56 384.059 Q213.252 384.059 210.894 382.88 Q208.56 381.7 207.08 378.865 Q204.772 374.625 204.772 366.496 M209.037 365.869 Q209.037 373.622 209.589 376.708 Q210.216 380.045 211.922 381.5 Q213.653 382.93 215.56 382.93 Q217.617 382.93 219.324 381.399 Q221.055 379.844 221.582 376.507 Q222.159 373.22 222.134 365.869 Q222.134 358.719 221.632 355.858 Q220.954 352.522 219.148 351.192 Q217.367 349.837 215.56 349.837 Q214.883 349.837 214.155 350.038 Q213.453 350.238 212.424 350.815 Q211.395 351.393 210.592 352.823 Q209.815 354.253 209.438 356.41 Q209.037 359.195 209.037 365.869 Z" fill="#808080" fill-rule="evenodd" fill-opacity="1" /><path clip-path="url(#clip010)" d="M 0 0 M231.542 382.102 Q230.764 381.274 230.764 380.195 Q230.764 379.116 231.542 378.339 Q232.32 377.536 233.499 377.536 Q234.628 377.536 235.381 378.288 Q236.158 379.016 236.158 380.22 Q236.158 381.399 235.331 382.177 Q234.528 382.93 233.499 382.93 Q232.32 382.93 231.542 382.102 Z" fill="#808080" fill-rule="evenodd" fill-opacity="1" /><path clip-path="url(#clip010)" d="M 0 0 M238.718 374.65 Q238.718 373.12 239.546 372.543 Q240.374 371.941 241.252 371.941 Q242.431 371.941 243.108 372.693 Q243.811 373.421 243.811 374.45 Q243.811 375.478 243.108 376.231 Q242.431 376.959 241.252 376.959 Q240.675 376.959 240.374 376.858 Q241.051 379.217 243.108 380.923 Q245.191 382.629 247.925 382.629 Q251.363 382.629 253.42 379.292 Q254.649 377.134 254.649 372.242 Q254.649 367.926 253.721 365.769 Q252.291 362.482 249.355 362.482 Q245.191 362.482 242.732 366.07 Q242.431 366.521 242.08 366.547 Q241.578 366.547 241.452 366.271 Q241.352 365.969 241.352 365.192 L241.352 349.988 Q241.352 348.758 241.854 348.758 Q242.054 348.758 242.481 348.909 Q245.718 350.339 249.305 350.364 Q252.993 350.364 256.305 348.859 Q256.556 348.708 256.707 348.708 Q257.208 348.708 257.234 349.285 Q257.234 349.486 256.807 350.088 Q256.406 350.665 255.527 351.443 Q254.649 352.195 253.52 352.923 Q252.391 353.651 250.735 354.152 Q249.105 354.629 247.298 354.629 Q245.14 354.629 242.933 353.952 L242.933 363.962 Q245.592 361.353 249.456 361.353 Q253.571 361.353 256.406 364.665 Q259.241 367.977 259.241 372.593 Q259.241 377.435 255.879 380.747 Q252.542 384.059 248.026 384.059 Q243.911 384.059 241.302 381.123 Q238.718 378.188 238.718 374.65 Z" fill="#808080" fill-rule="evenodd" fill-opacity="1" /><path clip-path="url(#clip010)" d="M 0 0 M154.257 136.66 L154.257 134.684 Q161.853 134.684 165.775 130.639 Q166.856 130.639 167.041 130.886 Q167.226 131.133 167.226 132.275 L167.226 167.756 Q167.226 169.639 168.153 170.226 Q169.079 170.813 173.124 170.813 L175.132 170.813 L175.132 172.758 Q172.908 172.573 164.88 172.573 Q156.851 172.573 154.659 172.758 L154.659 170.813 L156.666 170.813 Q160.649 170.813 161.606 170.257 Q162.564 169.67 162.564 167.756 L162.564 134.993 Q159.26 136.66 154.257 136.66 Z" fill="#808080" fill-rule="evenodd" fill-opacity="1" /><path clip-path="url(#clip010)" d="M 0 0 M177.602 152.532 Q177.602 143.238 179.949 138.173 Q183.222 130.639 190.942 130.639 Q192.578 130.639 194.277 131.102 Q196.006 131.534 198.167 133.233 Q200.36 134.931 201.688 137.71 Q204.22 143.083 204.22 152.532 Q204.22 161.765 201.873 166.798 Q198.445 174.148 190.88 174.148 Q188.039 174.148 185.136 172.696 Q182.265 171.245 180.443 167.756 Q177.602 162.537 177.602 152.532 M182.851 151.76 Q182.851 161.302 183.531 165.1 Q184.303 169.207 186.402 170.998 Q188.533 172.758 190.88 172.758 Q193.412 172.758 195.512 170.874 Q197.642 168.96 198.291 164.853 Q199.001 160.808 198.97 151.76 Q198.97 142.96 198.353 139.439 Q197.519 135.332 195.296 133.696 Q193.103 132.028 190.88 132.028 Q190.046 132.028 189.151 132.275 Q188.286 132.522 187.02 133.233 Q185.754 133.943 184.766 135.703 Q183.809 137.463 183.345 140.119 Q182.851 143.546 182.851 151.76 Z" fill="#808080" fill-rule="evenodd" fill-opacity="1" /><path clip-path="url(#clip010)" d="M 0 0 M204.22 122.062 Q204.22 114.51 206.127 110.395 Q208.786 104.273 215.058 104.273 Q216.388 104.273 217.768 104.65 Q219.173 105.001 220.929 106.381 Q222.711 107.761 223.789 110.019 Q225.847 114.384 225.847 122.062 Q225.847 129.563 223.94 133.653 Q221.155 139.624 215.008 139.624 Q212.7 139.624 210.342 138.445 Q208.008 137.266 206.528 134.431 Q204.22 130.19 204.22 122.062 M208.485 121.434 Q208.485 129.187 209.037 132.273 Q209.664 135.61 211.37 137.065 Q213.101 138.495 215.008 138.495 Q217.066 138.495 218.772 136.965 Q220.503 135.409 221.03 132.072 Q221.607 128.785 221.582 121.434 Q221.582 114.284 221.08 111.424 Q220.402 108.087 218.596 106.757 Q216.815 105.402 215.008 105.402 Q214.331 105.402 213.603 105.603 Q212.901 105.804 211.872 106.381 Q210.843 106.958 210.04 108.388 Q209.263 109.818 208.886 111.976 Q208.485 114.761 208.485 121.434 Z" fill="#808080" fill-rule="evenodd" fill-opacity="1" /><path clip-path="url(#clip010)" d="M 0 0 M230.99 137.667 Q230.212 136.839 230.212 135.76 Q230.212 134.681 230.99 133.904 Q231.768 133.101 232.947 133.101 Q234.076 133.101 234.829 133.854 Q235.607 134.581 235.607 135.785 Q235.607 136.965 234.779 137.742 Q233.976 138.495 232.947 138.495 Q231.768 138.495 230.99 137.667 Z" fill="#808080" fill-rule="evenodd" fill-opacity="1" /><path clip-path="url(#clip010)" d="M 0 0 M237.614 122.062 Q237.614 114.51 239.52 110.395 Q242.18 104.273 248.452 104.273 Q249.782 104.273 251.162 104.65 Q252.567 105.001 254.323 106.381 Q256.105 107.761 257.183 110.019 Q259.241 114.384 259.241 122.062 Q259.241 129.563 257.334 133.653 Q254.549 139.624 248.402 139.624 Q246.094 139.624 243.735 138.445 Q241.402 137.266 239.922 134.431 Q237.614 130.19 237.614 122.062 M241.879 121.434 Q241.879 129.187 242.431 132.273 Q243.058 135.61 244.764 137.065 Q246.495 138.495 248.402 138.495 Q250.459 138.495 252.166 136.965 Q253.897 135.409 254.424 132.072 Q255.001 128.785 254.976 121.434 Q254.976 114.284 254.474 111.424 Q253.796 108.087 251.99 106.757 Q250.209 105.402 248.402 105.402 Q247.725 105.402 246.997 105.603 Q246.295 105.804 245.266 106.381 Q244.237 106.958 243.434 108.388 Q242.657 109.818 242.28 111.976 Q241.879 114.761 241.879 121.434 Z" fill="#808080" fill-rule="evenodd" fill-opacity="1" /><path clip-path="url(#clip010)" d="M 0 0 M79.4045 902.517 Q79.4045 898.478 78.8858 897.551 Q78.4041 896.588 75.9955 896.588 L40.4597 896.588 Q37.94 896.588 37.31 897.551 Q36.6801 898.478 36.6801 902.517 L34.3086 902.517 L33.4933 891.586 L38.4958 891.586 Q33.4933 887.028 33.4933 880.951 Q33.4933 874.503 38.4958 869.797 Q43.4982 865.091 50.6498 865.091 Q57.8756 865.091 62.878 870.094 Q67.8804 875.096 67.8804 882.025 Q67.8804 885.805 65.9536 888.362 Q63.9896 890.882 62.5445 891.363 L63.2485 891.363 L75.9955 891.363 Q78.4411 891.363 78.9228 890.4 Q79.4045 889.436 79.4045 885.434 L81.739 885.434 Q81.5167 893.401 81.5167 893.994 Q81.5167 894.735 81.739 902.517 L79.4045 902.517 M58.3943 891.363 Q59.543 891.363 59.9506 891.215 Q60.3583 891.03 61.5811 890.289 Q66.1759 887.287 66.1759 882.396 Q66.1759 882.359 66.1759 882.322 Q66.1759 877.986 61.7663 874.689 Q57.3197 871.391 50.6498 871.391 Q44.2764 871.391 39.8298 874.392 Q35.3832 877.394 35.3832 881.544 Q35.3832 884.508 36.9765 887.102 Q38.5699 889.696 41.4602 891.363 L58.3943 891.363 Z" fill="#000000" fill-rule="evenodd" fill-opacity="1" /><path clip-path="url(#clip010)" d="M 0 0 M42.7571 862.127 Q31.6035 862.127 25.5265 859.311 Q16.4851 855.383 16.4851 846.119 Q16.4851 844.155 17.0409 842.117 Q17.5597 840.042 19.5977 837.448 Q21.6357 834.817 24.9707 833.224 Q31.4183 830.185 42.7571 830.185 Q53.8366 830.185 59.8765 833.002 Q68.6956 837.115 68.6956 846.193 Q68.6956 849.602 66.954 853.085 Q65.2125 856.532 61.0252 858.718 Q54.7629 862.127 42.7571 862.127 M41.8307 855.827 Q53.2807 855.827 57.8385 855.012 Q62.7668 854.086 64.916 851.566 Q67.0282 849.009 67.0282 846.193 Q67.0282 843.155 64.7678 840.635 Q62.4704 838.078 57.5421 837.3 Q52.6879 836.448 41.8307 836.485 Q31.27 836.485 27.0458 837.226 Q22.1174 838.226 20.1535 840.894 Q18.1526 843.525 18.1526 846.193 Q18.1526 847.194 18.449 848.268 Q18.7454 849.306 19.5977 850.825 Q20.45 852.344 22.5621 853.53 Q24.6742 854.679 27.861 855.235 Q31.9741 855.827 41.8307 855.827 Z" fill="#000000" fill-rule="evenodd" fill-opacity="1" /><path clip-path="url(#clip010)" d="M 0 0 M67.0282 826.406 Q65.6571 826.406 65.2495 826.295 Q64.8419 826.146 64.212 825.554 L47.9819 810.991 Q39.0145 803.024 31.1959 803.024 Q26.1194 803.024 22.488 805.692 Q18.8566 808.323 18.8566 813.177 Q18.8566 816.512 20.8946 819.328 Q22.9327 822.144 26.5641 823.441 Q26.4899 823.219 26.4899 822.441 Q26.4899 820.551 27.6757 819.514 Q28.8615 818.439 30.4548 818.439 Q32.4929 818.439 33.4933 819.773 Q34.4568 821.07 34.4568 822.367 Q34.4568 822.886 34.3456 823.59 Q34.2344 824.257 33.1969 825.331 Q32.1223 826.406 30.2325 826.406 Q24.9336 826.406 20.7094 822.404 Q16.4851 818.365 16.4851 812.214 Q16.4851 805.247 20.6352 800.69 Q24.7484 796.095 31.1959 796.095 Q33.4563 796.095 35.5314 796.799 Q37.5694 797.466 39.1628 798.392 Q40.7561 799.281 43.3129 801.727 Q45.8697 804.173 47.6854 806.137 Q49.5011 808.101 53.3548 812.51 L61.1735 820.551 L61.1735 806.878 Q61.1735 800.208 60.5806 799.689 Q59.506 798.948 53.8366 798.022 L53.8366 796.095 L67.0282 798.244 L67.0282 826.406 Z" fill="#000000" fill-rule="evenodd" fill-opacity="1" /><path clip-path="url(#clip010)" d="M 0 0 M17.5597 793.983 L15.1882 793.983 L14.3729 783.051 L38.4217 783.051 Q33.4933 778.642 33.4933 772.639 Q33.4933 766.117 38.4958 761.337 Q43.4982 756.557 50.6498 756.557 Q57.8756 756.557 62.878 761.559 Q67.8804 766.562 67.8804 773.491 Q67.8804 779.791 62.3222 783.422 Q66.954 786.09 67.0282 786.164 L67.0282 788.054 L21.784 788.054 Q18.9678 788.054 18.2637 789.054 Q17.5597 790.055 17.5597 793.983 M58.3943 782.829 Q59.9877 782.829 61.5811 781.754 Q66.1759 778.753 66.1759 773.862 Q66.1759 773.825 66.1759 773.788 Q66.1759 768.489 61.3217 765.191 Q57.6903 762.856 50.5757 762.856 Q43.5353 762.856 40.015 765.043 Q35.1608 768.081 35.1608 773.009 Q35.1608 778.568 40.015 781.977 Q41.2379 782.829 42.7571 782.829 L58.3943 782.829 Z" fill="#000000" fill-rule="evenodd" fill-opacity="1" /><path clip-path="url(#clip010)" d="M 0 0 M76.4401 757.224 Q74.8468 757.224 73.9945 756.298 Q73.1793 755.334 73.1793 754.037 Q73.1793 752.666 74.0316 751.777 Q74.9209 750.851 76.366 750.851 Q79.1822 750.851 79.5528 753.815 Q80.9238 752.37 80.9238 750.258 Q80.9238 747.997 79.2563 746.182 Q77.5888 744.329 75.9955 743.551 Q74.4021 742.736 71.5118 741.587 Q69.2515 740.512 67.0282 739.697 L39.311 751.073 Q37.4953 751.814 37.0877 752.963 Q36.6801 754.111 36.6801 757.224 L34.3086 757.224 Q34.5309 753.815 34.5309 749.85 Q34.5309 747.516 34.3086 741.587 L36.6801 741.587 Q36.6801 745.848 38.644 745.848 Q38.8663 745.848 40.015 745.403 L60.4324 736.955 L41.7566 729.285 Q40.682 728.84 39.9409 728.84 Q36.8283 728.84 36.6801 732.397 L34.3086 732.397 Q34.5309 727.395 34.5309 725.801 Q34.5309 722.689 34.3086 720.132 L36.6801 720.132 Q36.6801 725.208 41.5343 727.172 L73.9204 740.549 Q82.5542 744.181 82.5913 750.258 Q82.5913 753.148 80.8126 755.186 Q79.034 757.224 76.4401 757.224 Z" fill="#000000" fill-rule="evenodd" fill-opacity="1" /><path clip-path="url(#clip010)" d="M 0 0 M79.4045 718.02 Q79.4045 713.981 78.8858 713.054 Q78.4041 712.091 75.9955 712.091 L40.4597 712.091 Q37.94 712.091 37.31 713.054 Q36.6801 713.981 36.6801 718.02 L34.3086 718.02 L33.4933 707.089 L38.4958 707.089 Q33.4933 702.531 33.4933 696.454 Q33.4933 690.006 38.4958 685.3 Q43.4982 680.594 50.6498 680.594 Q57.8756 680.594 62.878 685.597 Q67.8804 690.599 67.8804 697.528 Q67.8804 701.308 65.9536 703.865 Q63.9896 706.385 62.5445 706.866 L63.2485 706.866 L75.9955 706.866 Q78.4411 706.866 78.9228 705.903 Q79.4045 704.939 79.4045 700.937 L81.739 700.937 Q81.5167 708.904 81.5167 709.497 Q81.5167 710.238 81.739 718.02 L79.4045 718.02 M58.3943 706.866 Q59.543 706.866 59.9506 706.718 Q60.3583 706.533 61.5811 705.792 Q66.1759 702.79 66.1759 697.899 Q66.1759 697.862 66.1759 697.825 Q66.1759 693.489 61.7663 690.191 Q57.3197 686.894 50.6498 686.894 Q44.2764 686.894 39.8298 689.895 Q35.3832 692.896 35.3832 697.047 Q35.3832 700.011 36.9765 702.605 Q38.5699 705.199 41.4602 706.866 L58.3943 706.866 Z" fill="#000000" fill-rule="evenodd" fill-opacity="1" /><path clip-path="url(#clip010)" d="M 0 0 M42.7571 677.63 Q31.6035 677.63 25.5265 674.814 Q16.4851 670.886 16.4851 661.622 Q16.4851 659.658 17.0409 657.62 Q17.5597 655.545 19.5977 652.951 Q21.6357 650.32 24.9707 648.727 Q31.4183 645.688 42.7571 645.688 Q53.8366 645.688 59.8765 648.505 Q68.6956 652.618 68.6956 661.696 Q68.6956 665.105 66.954 668.588 Q65.2125 672.034 61.0252 674.221 Q54.7629 677.63 42.7571 677.63 M41.8307 671.33 Q53.2807 671.33 57.8385 670.515 Q62.7668 669.589 64.916 667.069 Q67.0282 664.512 67.0282 661.696 Q67.0282 658.658 64.7678 656.138 Q62.4704 653.581 57.5421 652.803 Q52.6879 651.951 41.8307 651.988 Q31.27 651.988 27.0458 652.729 Q22.1174 653.729 20.1535 656.397 Q18.1526 659.028 18.1526 661.696 Q18.1526 662.697 18.449 663.771 Q18.7454 664.809 19.5977 666.328 Q20.45 667.847 22.5621 669.033 Q24.6742 670.182 27.861 670.738 Q31.9741 671.33 41.8307 671.33 Z" fill="#000000" fill-rule="evenodd" fill-opacity="1" /><path clip-path="url(#clip010)" d="M 0 0 M23.7108 638.944 L21.3393 638.944 Q21.3393 629.829 16.4851 625.123 Q16.4851 623.826 16.7815 623.604 Q17.078 623.381 18.449 623.381 L61.0252 623.381 Q63.2856 623.381 63.9896 622.27 Q64.6937 621.158 64.6937 616.304 L64.6937 613.895 L67.0282 613.895 Q66.8058 616.563 66.8058 626.197 Q66.8058 635.832 67.0282 638.463 L64.6937 638.463 L64.6937 636.054 Q64.6937 631.274 64.0267 630.125 Q63.3227 628.977 61.0252 628.977 L21.7098 628.977 Q23.7108 632.941 23.7108 638.944 Z" fill="#000000" fill-rule="evenodd" fill-opacity="1" /><path clip-path="url(#clip010)" d="M 0 0 M1011.55 23.2459 L1012.75 9.04143 L1051.38 9.04143 L1052.59 23.2459 L1051.01 23.2459 Q1050.76 20.405 1050.52 18.7684 Q1050.3 17.1318 1049.74 15.5878 Q1049.22 14.013 1048.54 13.2719 Q1047.89 12.4999 1046.63 11.9132 Q1045.36 11.2956 1043.72 11.1412 Q1042.09 10.9868 1039.62 10.9868 Q1036.71 10.9868 1036 11.1103 Q1035.23 11.2956 1035.05 11.8514 Q1034.86 12.3764 1034.86 13.5189 L1034.86 46.8376 Q1034.86 48.1036 1035.11 48.6286 Q1035.39 49.1226 1036.84 49.5241 Q1038.29 49.8946 1041.5 49.8946 L1044.03 49.8946 L1044.03 51.84 Q1041.44 51.6547 1032.02 51.6547 Q1022.66 51.6547 1020.07 51.84 L1020.07 49.8946 L1022.6 49.8946 Q1025.81 49.8946 1027.26 49.5241 Q1028.75 49.1226 1028.99 48.6286 Q1029.24 48.1036 1029.24 46.8376 L1029.24 13.5189 Q1029.24 12.6234 1029.18 12.2529 Q1029.12 11.8823 1028.84 11.5735 Q1028.56 11.2339 1027.91 11.1103 Q1027.3 10.9868 1024.52 10.9868 Q1022.05 10.9868 1020.38 11.1412 Q1018.74 11.2956 1017.48 11.9132 Q1016.21 12.4999 1015.53 13.2719 Q1014.88 14.013 1014.33 15.5878 Q1013.8 17.1318 1013.59 18.7684 Q1013.37 20.405 1013.12 23.2459 L1011.55 23.2459 Z" fill="#000000" fill-rule="evenodd" fill-opacity="1" /><path clip-path="url(#clip010)" d="M 0 0 M1053.26 48.4433 Q1049.1 44.3055 1049.1 38.3149 Q1049.1 32.2935 1053.17 27.9086 Q1057.28 23.4929 1063.15 23.4929 Q1068.89 23.4929 1073 27.8777 Q1077.13 32.2317 1077.13 38.3149 Q1077.13 44.2746 1072.97 48.4124 Q1068.83 52.5502 1063.08 52.5502 Q1057.46 52.5502 1053.26 48.4433 M1054.35 37.79 Q1054.35 43.9349 1055.95 46.7141 Q1058.42 50.9445 1063.15 50.9445 Q1065.49 50.9445 1067.44 49.6785 Q1069.41 48.4124 1070.5 46.2817 Q1071.89 43.5026 1071.89 37.79 Q1071.89 31.7068 1070.22 29.0203 Q1067.75 24.9133 1063.08 24.9133 Q1061.05 24.9133 1059.04 25.9941 Q1057.06 27.044 1055.86 29.1438 Q1054.35 31.9229 1054.35 37.79 Z" fill="#000000" fill-rule="evenodd" fill-opacity="1" /><path clip-path="url(#clip010)" d="M 0 0 M1078.34 26.5499 L1078.34 25.1604 Q1081.24 25.0369 1083.16 22.9988 Q1085.1 20.9299 1085.75 18.3978 Q1086.43 15.8657 1086.49 12.9322 L1088.07 12.9322 L1088.07 24.5737 L1097.11 24.5737 L1097.11 26.5499 L1088.07 26.5499 L1088.07 44.1202 Q1088.07 50.9445 1092.33 50.9445 Q1094.15 50.9445 1095.35 49.0918 Q1096.56 47.2081 1096.56 43.8732 L1096.56 40.3838 L1098.13 40.3838 L1098.13 43.9967 Q1098.13 47.4243 1096.56 49.9872 Q1094.98 52.5502 1091.86 52.5502 Q1090.72 52.5502 1089.58 52.2414 Q1088.47 51.9635 1086.99 51.2224 Q1085.53 50.4504 1084.61 48.5977 Q1083.71 46.7141 1083.71 43.9967 L1083.71 26.5499 L1078.34 26.5499 Z" fill="#000000" fill-rule="evenodd" fill-opacity="1" /><path clip-path="url(#clip010)" d="M 0 0 M1100.79 45.8186 Q1100.79 40.4456 1107.12 37.6047 Q1110.92 35.7828 1118.76 35.3196 L1118.76 33.0037 Q1118.76 29.082 1116.69 27.0131 Q1114.65 24.9133 1112.06 24.9133 Q1107.43 24.9133 1105.2 27.816 Q1107.09 27.8777 1107.77 28.835 Q1108.45 29.7614 1108.45 30.7186 Q1108.45 31.9847 1107.64 32.8184 Q1106.87 33.6213 1105.54 33.6213 Q1104.28 33.6213 1103.44 32.8493 Q1102.61 32.0464 1102.61 30.6569 Q1102.61 27.5689 1105.39 25.5309 Q1108.2 23.4929 1112.18 23.4929 Q1117.37 23.4929 1120.83 26.9822 Q1121.91 28.063 1122.43 29.4526 Q1122.99 30.8421 1123.05 31.7685 Q1123.11 32.664 1123.11 34.455 L1123.11 47.0846 Q1123.11 47.4552 1123.24 48.0727 Q1123.36 48.6903 1123.92 49.4932 Q1124.5 50.2652 1125.46 50.2652 Q1127.75 50.2652 1127.71 46.22 L1127.71 42.6689 L1129.32 42.6689 L1129.32 46.22 Q1129.32 49.5858 1127.53 50.9136 Q1125.77 52.2106 1124.13 52.2106 Q1122.03 52.2106 1120.71 50.6666 Q1119.38 49.1226 1119.19 47.0228 Q1118.23 49.4314 1116.04 51.0063 Q1113.88 52.5502 1110.92 52.5502 Q1108.63 52.5502 1106.47 51.9635 Q1104.34 51.4077 1102.55 49.8329 Q1100.79 48.2271 1100.79 45.8186 M1105.67 45.7568 Q1105.67 48.1036 1107.33 49.6167 Q1109 51.1298 1111.35 51.1298 Q1114 51.1298 1116.38 49.0918 Q1118.76 47.0228 1118.76 42.9777 L1118.76 36.6474 Q1111.75 36.8945 1108.69 39.7045 Q1105.67 42.4836 1105.67 45.7568 Z" fill="#000000" fill-rule="evenodd" fill-opacity="1" /><path clip-path="url(#clip010)" d="M 0 0 M1131.42 51.84 L1131.42 49.8946 Q1134.79 49.8946 1135.56 49.4932 Q1136.33 49.0609 1136.33 47.0228 L1136.33 14.1365 Q1136.33 11.7897 1135.5 11.203 Q1134.69 10.6163 1131.42 10.6163 L1131.42 8.64 L1140.5 7.96066 L1140.5 47.0228 Q1140.5 49.0609 1141.3 49.4932 Q1142.1 49.8946 1145.44 49.8946 L1145.44 51.84 Q1144.67 51.84 1143.06 51.7782 Q1141.46 51.7165 1140.28 51.6856 Q1139.11 51.6547 1138.43 51.6547 Q1137.69 51.6547 1131.42 51.84 Z" fill="#000000" fill-rule="evenodd" fill-opacity="1" /><path clip-path="url(#clip010)" d="M 0 0 M1168.69 51.84 L1168.69 49.8946 L1170.2 49.8946 Q1173.63 49.8946 1174.4 49.3388 Q1175.21 48.7521 1175.21 46.8993 L1175.21 13.5807 Q1175.21 11.7588 1174.4 11.203 Q1173.6 10.6163 1170.2 10.6163 L1168.69 10.6163 L1168.69 8.64 L1191.02 8.64 Q1197.41 8.64 1201.67 12.1602 Q1205.93 15.6805 1205.93 20.405 Q1205.93 25.0986 1201.58 28.4953 Q1197.25 31.8612 1191.51 31.8612 L1180.83 31.8612 L1180.83 46.8993 Q1180.83 48.7212 1181.6 49.3079 Q1182.4 49.8946 1185.83 49.8946 L1187.34 49.8946 L1187.34 51.84 Q1185.12 51.6547 1177.99 51.6547 Q1170.91 51.6547 1168.69 51.84 M1180.64 30.2246 L1189.35 30.2246 Q1192.19 30.2246 1194.26 29.4217 Q1196.33 28.6188 1197.25 27.6616 Q1198.21 26.6735 1198.74 25.0986 Q1199.29 23.4929 1199.35 22.6283 Q1199.42 21.7328 1199.42 20.405 Q1199.42 19.0154 1199.35 18.1508 Q1199.29 17.2553 1198.74 15.6805 Q1198.21 14.0747 1197.25 13.1175 Q1196.33 12.1293 1194.26 11.3882 Q1192.22 10.6163 1189.35 10.6163 L1183.73 10.6163 Q1181.57 10.6163 1181.1 11.0486 Q1180.64 11.4809 1180.64 13.1484 L1180.64 30.2246 Z" fill="#000000" fill-rule="evenodd" fill-opacity="1" /><path clip-path="url(#clip010)" d="M 0 0 M1207.69 51.84 L1207.69 49.8946 Q1211.06 49.8946 1211.83 49.4932 Q1212.63 49.0609 1212.63 47.0228 L1212.63 30.0702 Q1212.63 27.7233 1211.8 27.1366 Q1211 26.5499 1207.69 26.5499 L1207.69 24.5737 L1216.49 23.8943 L1216.49 30.8421 Q1217.39 28.1248 1219.27 26.025 Q1221.19 23.8943 1224.27 23.8943 Q1226.31 23.8943 1227.61 25.0369 Q1228.94 26.1794 1228.94 27.7542 Q1228.94 29.1438 1228.07 29.854 Q1227.24 30.5334 1226.22 30.5334 Q1225.08 30.5334 1224.27 29.8231 Q1223.5 29.082 1223.5 27.816 Q1223.5 27.044 1223.84 26.4573 Q1224.21 25.8397 1224.49 25.6236 Q1224.77 25.4074 1224.95 25.3456 Q1224.83 25.2839 1224.27 25.2839 Q1220.78 25.2839 1218.78 28.7732 Q1216.8 32.2317 1216.8 37.1724 L1216.8 46.8993 Q1216.8 48.7212 1217.54 49.3079 Q1218.31 49.8946 1221.62 49.8946 L1222.95 49.8946 L1222.95 51.84 Q1220.41 51.6547 1214.92 51.6547 Q1214.15 51.6547 1212.94 51.6856 Q1211.74 51.7165 1210.16 51.7782 Q1208.59 51.84 1207.69 51.84 Z" fill="#000000" fill-rule="evenodd" fill-opacity="1" /><path clip-path="url(#clip010)" d="M 0 0 M1230.7 37.9135 Q1230.7 31.9538 1234.53 27.7233 Q1238.35 23.4929 1243.85 23.4929 Q1249.41 23.4929 1252.28 27.1058 Q1255.18 30.7186 1255.18 35.9063 Q1255.18 36.8636 1254.94 37.0489 Q1254.69 37.2341 1253.61 37.2341 L1235.95 37.2341 Q1235.95 43.6879 1237.86 46.7141 Q1240.52 50.9445 1244.99 50.9445 Q1245.61 50.9445 1246.35 50.821 Q1247.09 50.6975 1248.61 50.1725 Q1250.12 49.6167 1251.45 48.1654 Q1252.78 46.7141 1253.55 44.429 Q1253.73 43.5335 1254.35 43.5644 Q1255.18 43.5644 1255.18 44.3055 Q1255.18 44.8613 1254.57 46.1273 Q1253.98 47.3625 1252.84 48.8447 Q1251.69 50.3269 1249.47 51.4386 Q1247.28 52.5502 1244.62 52.5502 Q1239.07 52.5502 1234.87 48.3507 Q1230.7 44.1202 1230.7 37.9135 M1236.01 35.9063 L1251.02 35.9063 Q1251.02 34.5785 1250.77 33.0963 Q1250.55 31.6141 1249.87 29.5761 Q1249.22 27.5072 1247.68 26.2103 Q1246.14 24.9133 1243.85 24.9133 Q1242.83 24.9133 1241.72 25.3456 Q1240.64 25.778 1239.31 26.8278 Q1237.98 27.8777 1237.06 30.2554 Q1236.13 32.6331 1236.01 35.9063 Z" fill="#000000" fill-rule="evenodd" fill-opacity="1" /><path clip-path="url(#clip010)" d="M 0 0 M1257.28 51.0063 L1257.28 42.6689 Q1257.28 41.9587 1257.31 41.7116 Q1257.35 41.4646 1257.53 41.2793 Q1257.72 41.094 1258.09 41.094 Q1258.52 41.094 1258.67 41.2793 Q1258.86 41.4646 1258.98 42.1748 Q1259.94 46.5288 1261.98 48.8447 Q1264.05 51.1298 1267.78 51.1298 Q1271.33 51.1298 1273.12 49.5549 Q1274.92 47.9801 1274.92 45.3862 Q1274.92 40.7544 1268.34 39.581 Q1264.54 38.809 1262.97 38.3149 Q1261.39 37.79 1260 36.6474 Q1257.28 34.4241 1257.28 31.2745 Q1257.28 28.1248 1259.66 25.8088 Q1262.07 23.4929 1267.38 23.4929 Q1270.93 23.4929 1273.34 25.2839 Q1274.05 24.7281 1274.42 24.2649 Q1275.26 23.4929 1275.69 23.4929 Q1276.18 23.4929 1276.27 23.8326 Q1276.37 24.1414 1276.37 25.0369 L1276.37 31.398 Q1276.37 32.1082 1276.34 32.3552 Q1276.31 32.6023 1276.12 32.7875 Q1275.93 32.9419 1275.53 32.9419 Q1274.82 32.9419 1274.79 32.3552 Q1274.3 24.6972 1267.38 24.6972 Q1263.64 24.6972 1261.98 26.1485 Q1260.31 27.5689 1260.31 29.5143 Q1260.31 30.5951 1260.8 31.4288 Q1261.33 32.2317 1261.98 32.7258 Q1262.66 33.189 1263.89 33.6522 Q1265.13 34.0845 1265.87 34.2389 Q1266.64 34.3933 1268.09 34.702 Q1273.16 35.6593 1275.29 37.7282 Q1277.94 40.3838 1277.94 43.7496 Q1277.94 47.486 1275.41 50.0181 Q1272.88 52.5502 1267.78 52.5502 Q1263.68 52.5502 1260.8 49.802 Q1260.43 50.1725 1260.16 50.5122 Q1259.88 50.821 1259.75 50.9445 Q1259.66 51.068 1259.63 51.1607 Q1259.6 51.2224 1259.54 51.2842 Q1258.27 52.5502 1257.96 52.5502 Q1257.47 52.5502 1257.38 52.2106 Q1257.28 51.9018 1257.28 51.0063 Z" fill="#000000" fill-rule="evenodd" fill-opacity="1" /><path clip-path="url(#clip010)" d="M 0 0 M1280.04 51.0063 L1280.04 42.6689 Q1280.04 41.9587 1280.07 41.7116 Q1280.1 41.4646 1280.29 41.2793 Q1280.47 41.094 1280.84 41.094 Q1281.28 41.094 1281.43 41.2793 Q1281.62 41.4646 1281.74 42.1748 Q1282.7 46.5288 1284.74 48.8447 Q1286.8 51.1298 1290.54 51.1298 Q1294.09 51.1298 1295.88 49.5549 Q1297.67 47.9801 1297.67 45.3862 Q1297.67 40.7544 1291.1 39.581 Q1287.3 38.809 1285.72 38.3149 Q1284.15 37.79 1282.76 36.6474 Q1280.04 34.4241 1280.04 31.2745 Q1280.04 28.1248 1282.42 25.8088 Q1284.83 23.4929 1290.14 23.4929 Q1293.69 23.4929 1296.1 25.2839 Q1296.81 24.7281 1297.18 24.2649 Q1298.01 23.4929 1298.45 23.4929 Q1298.94 23.4929 1299.03 23.8326 Q1299.13 24.1414 1299.13 25.0369 L1299.13 31.398 Q1299.13 32.1082 1299.09 32.3552 Q1299.06 32.6023 1298.88 32.7875 Q1298.69 32.9419 1298.29 32.9419 Q1297.58 32.9419 1297.55 32.3552 Q1297.06 24.6972 1290.14 24.6972 Q1286.4 24.6972 1284.74 26.1485 Q1283.07 27.5689 1283.07 29.5143 Q1283.07 30.5951 1283.56 31.4288 Q1284.09 32.2317 1284.74 32.7258 Q1285.41 33.189 1286.65 33.6522 Q1287.89 34.0845 1288.63 34.2389 Q1289.4 34.3933 1290.85 34.702 Q1295.91 35.6593 1298.04 37.7282 Q1300.7 40.3838 1300.7 43.7496 Q1300.7 47.486 1298.17 50.0181 Q1295.64 52.5502 1290.54 52.5502 Q1286.43 52.5502 1283.56 49.802 Q1283.19 50.1725 1282.91 50.5122 Q1282.64 50.821 1282.51 50.9445 Q1282.42 51.068 1282.39 51.1607 Q1282.36 51.2224 1282.3 51.2842 Q1281.03 52.5502 1280.72 52.5502 Q1280.23 52.5502 1280.13 52.2106 Q1280.04 51.9018 1280.04 51.0063 Z" fill="#000000" fill-rule="evenodd" fill-opacity="1" /><path clip-path="url(#clip010)" d="M 0 0 M1302.74 26.5499 L1302.74 24.5737 L1312.03 23.8943 L1312.03 44.8922 Q1312.03 46.4053 1312.16 47.3008 Q1312.28 48.1654 1312.77 49.1844 Q1313.3 50.2034 1314.47 50.6666 Q1315.68 51.1298 1317.59 51.1298 Q1321.02 51.1298 1323.12 48.3198 Q1325.25 45.5098 1325.25 41.3411 L1325.25 30.0702 Q1325.25 27.7233 1324.42 27.1366 Q1323.58 26.5499 1320.31 26.5499 L1320.31 24.5737 L1329.6 23.8943 L1329.6 46.3435 Q1329.6 48.6903 1330.41 49.3079 Q1331.24 49.8946 1334.54 49.8946 L1334.54 51.84 L1325.43 52.5502 L1325.43 46.8376 Q1322.78 52.5193 1317.28 52.5502 Q1314.5 52.5502 1312.59 51.84 Q1310.7 51.1298 1309.75 50.2652 Q1308.79 49.3697 1308.27 47.6713 Q1307.77 45.973 1307.71 44.9231 Q1307.65 43.8732 1307.65 41.8351 L1307.65 32.3552 Q1307.65 28.063 1307.03 27.3219 Q1306.41 26.5499 1302.74 26.5499 Z" fill="#000000" fill-rule="evenodd" fill-opacity="1" /><path clip-path="url(#clip010)" d="M 0 0 M1336.3 51.84 L1336.3 49.8946 Q1339.67 49.8946 1340.44 49.4932 Q1341.24 49.0609 1341.24 47.0228 L1341.24 30.0702 Q1341.24 27.7233 1340.41 27.1366 Q1339.61 26.5499 1336.3 26.5499 L1336.3 24.5737 L1345.1 23.8943 L1345.1 30.8421 Q1346 28.1248 1347.88 26.025 Q1349.8 23.8943 1352.89 23.8943 Q1354.92 23.8943 1356.22 25.0369 Q1357.55 26.1794 1357.55 27.7542 Q1357.55 29.1438 1356.68 29.854 Q1355.85 30.5334 1354.83 30.5334 Q1353.69 30.5334 1352.89 29.8231 Q1352.11 29.082 1352.11 27.816 Q1352.11 27.044 1352.45 26.4573 Q1352.82 25.8397 1353.1 25.6236 Q1353.38 25.4074 1353.57 25.3456 Q1353.44 25.2839 1352.89 25.2839 Q1349.4 25.2839 1347.39 28.7732 Q1345.41 32.2317 1345.41 37.1724 L1345.41 46.8993 Q1345.41 48.7212 1346.15 49.3079 Q1346.93 49.8946 1350.23 49.8946 L1351.56 49.8946 L1351.56 51.84 Q1349.03 51.6547 1343.53 51.6547 Q1342.76 51.6547 1341.55 51.6856 Q1340.35 51.7165 1338.77 51.7782 Q1337.2 51.84 1336.3 51.84 Z" fill="#000000" fill-rule="evenodd" fill-opacity="1" /><path clip-path="url(#clip010)" d="M 0 0 M1359.31 37.9135 Q1359.31 31.9538 1363.14 27.7233 Q1366.97 23.4929 1372.46 23.4929 Q1378.02 23.4929 1380.89 27.1058 Q1383.8 30.7186 1383.8 35.9063 Q1383.8 36.8636 1383.55 37.0489 Q1383.3 37.2341 1382.22 37.2341 L1364.56 37.2341 Q1364.56 43.6879 1366.47 46.7141 Q1369.13 50.9445 1373.61 50.9445 Q1374.22 50.9445 1374.96 50.821 Q1375.71 50.6975 1377.22 50.1725 Q1378.73 49.6167 1380.06 48.1654 Q1381.39 46.7141 1382.16 44.429 Q1382.34 43.5335 1382.96 43.5644 Q1383.8 43.5644 1383.8 44.3055 Q1383.8 44.8613 1383.18 46.1273 Q1382.59 47.3625 1381.45 48.8447 Q1380.31 50.3269 1378.08 51.4386 Q1375.89 52.5502 1373.24 52.5502 Q1367.68 52.5502 1363.48 48.3507 Q1359.31 44.1202 1359.31 37.9135 M1364.62 35.9063 L1379.63 35.9063 Q1379.63 34.5785 1379.38 33.0963 Q1379.16 31.6141 1378.48 29.5761 Q1377.84 27.5072 1376.29 26.2103 Q1374.75 24.9133 1372.46 24.9133 Q1371.44 24.9133 1370.33 25.3456 Q1369.25 25.778 1367.92 26.8278 Q1366.6 27.8777 1365.67 30.2554 Q1364.74 32.6331 1364.62 35.9063 Z" fill="#000000" fill-rule="evenodd" fill-opacity="1" /><path clip-path="url(#clip010)" d="M 0 0 M1406.03 26.5499 L1406.03 24.5737 Q1408.87 24.7589 1412.17 24.7589 Q1413.38 24.7589 1419.06 24.5737 L1419.06 26.5499 Q1415.45 26.5499 1415.45 28.1865 Q1415.45 28.4336 1415.82 29.2673 L1422.92 46.8993 L1429.37 30.7804 Q1429.74 29.6996 1429.74 29.2673 Q1429.74 28.1865 1429 27.4146 Q1428.29 26.6117 1426.72 26.5499 L1426.72 24.5737 Q1429.93 24.7589 1432.21 24.7589 Q1434.81 24.7589 1436.94 24.5737 L1436.94 26.5499 Q1435.06 26.5499 1433.73 27.4146 Q1432.4 28.2483 1431.97 28.9894 Q1431.57 29.6996 1431.13 30.7804 L1422.86 51.3459 Q1422.36 52.5502 1421.53 52.5502 Q1420.97 52.5502 1420.73 52.3032 Q1420.51 52.087 1420.2 51.3459 L1411.09 28.8968 Q1410.48 27.3219 1409.67 26.9514 Q1408.87 26.5499 1406.03 26.5499 Z" fill="#000000" fill-rule="evenodd" fill-opacity="1" /><path clip-path="url(#clip010)" d="M 0 0 M1437.83 45.8186 Q1437.83 40.4456 1444.16 37.6047 Q1447.96 35.7828 1455.81 35.3196 L1455.81 33.0037 Q1455.81 29.082 1453.74 27.0131 Q1451.7 24.9133 1449.11 24.9133 Q1444.47 24.9133 1442.25 27.816 Q1444.13 27.8777 1444.81 28.835 Q1445.49 29.7614 1445.49 30.7186 Q1445.49 31.9847 1444.69 32.8184 Q1443.92 33.6213 1442.59 33.6213 Q1441.32 33.6213 1440.49 32.8493 Q1439.66 32.0464 1439.66 30.6569 Q1439.66 27.5689 1442.44 25.5309 Q1445.25 23.4929 1449.23 23.4929 Q1454.42 23.4929 1457.88 26.9822 Q1458.96 28.063 1459.48 29.4526 Q1460.04 30.8421 1460.1 31.7685 Q1460.16 32.664 1460.16 34.455 L1460.16 47.0846 Q1460.16 47.4552 1460.28 48.0727 Q1460.41 48.6903 1460.96 49.4932 Q1461.55 50.2652 1462.51 50.2652 Q1464.79 50.2652 1464.76 46.22 L1464.76 42.6689 L1466.37 42.6689 L1466.37 46.22 Q1466.37 49.5858 1464.58 50.9136 Q1462.82 52.2106 1461.18 52.2106 Q1459.08 52.2106 1457.75 50.6666 Q1456.42 49.1226 1456.24 47.0228 Q1455.28 49.4314 1453.09 51.0063 Q1450.93 52.5502 1447.96 52.5502 Q1445.68 52.5502 1443.52 51.9635 Q1441.39 51.4077 1439.59 49.8329 Q1437.83 48.2271 1437.83 45.8186 M1442.71 45.7568 Q1442.71 48.1036 1444.38 49.6167 Q1446.05 51.1298 1448.4 51.1298 Q1451.05 51.1298 1453.43 49.0918 Q1455.81 47.0228 1455.81 42.9777 L1455.81 36.6474 Q1448.8 36.8945 1445.74 39.7045 Q1442.71 42.4836 1442.71 45.7568 Z" fill="#000000" fill-rule="evenodd" fill-opacity="1" /><path clip-path="url(#clip010)" d="M 0 0 M1468.13 51.84 L1468.13 49.8946 Q1471.49 49.8946 1472.26 49.4932 Q1473.07 49.0609 1473.07 47.0228 L1473.07 30.0702 Q1473.07 27.7233 1472.23 27.1366 Q1471.43 26.5499 1468.13 26.5499 L1468.13 24.5737 L1476.93 23.8943 L1476.93 30.8421 Q1477.82 28.1248 1479.71 26.025 Q1481.62 23.8943 1484.71 23.8943 Q1486.75 23.8943 1488.04 25.0369 Q1489.37 26.1794 1489.37 27.7542 Q1489.37 29.1438 1488.51 29.854 Q1487.67 30.5334 1486.65 30.5334 Q1485.51 30.5334 1484.71 29.8231 Q1483.94 29.082 1483.94 27.816 Q1483.94 27.044 1484.28 26.4573 Q1484.65 25.8397 1484.93 25.6236 Q1485.2 25.4074 1485.39 25.3456 Q1485.26 25.2839 1484.71 25.2839 Q1481.22 25.2839 1479.21 28.7732 Q1477.24 32.2317 1477.24 37.1724 L1477.24 46.8993 Q1477.24 48.7212 1477.98 49.3079 Q1478.75 49.8946 1482.05 49.8946 L1483.38 49.8946 L1483.38 51.84 Q1480.85 51.6547 1475.35 51.6547 Q1474.58 51.6547 1473.38 51.6856 Q1472.17 51.7165 1470.6 51.7782 Q1469.02 51.84 1468.13 51.84 Z" fill="#000000" fill-rule="evenodd" fill-opacity="1" /><path clip-path="url(#clip010)" d="M 0 0 M1491.47 51.84 L1491.47 49.8946 Q1494.84 49.8946 1495.61 49.4932 Q1496.38 49.0609 1496.38 47.0228 L1496.38 30.0084 Q1496.38 27.6616 1495.58 27.1058 Q1494.81 26.5499 1491.72 26.5499 L1491.72 24.5737 L1500.55 23.8943 L1500.55 47.0846 Q1500.55 48.9682 1501.23 49.4314 Q1501.91 49.8946 1505 49.8946 L1505 51.84 Q1498.54 51.6547 1498.42 51.6547 Q1497.55 51.6547 1491.47 51.84 M1494.13 12.8705 Q1494.13 11.6044 1495.08 10.5854 Q1496.07 9.5355 1497.46 9.5355 Q1498.85 9.5355 1499.84 10.4928 Q1500.83 11.4191 1500.83 12.9013 Q1500.83 14.3527 1499.84 15.3099 Q1498.85 16.2363 1497.46 16.2363 Q1496.01 16.2363 1495.05 15.2173 Q1494.13 14.1983 1494.13 12.8705 Z" fill="#000000" fill-rule="evenodd" fill-opacity="1" /><path clip-path="url(#clip010)" d="M 0 0 M1507.65 45.8186 Q1507.65 40.4456 1513.98 37.6047 Q1517.78 35.7828 1525.62 35.3196 L1525.62 33.0037 Q1525.62 29.082 1523.56 27.0131 Q1521.52 24.9133 1518.92 24.9133 Q1514.29 24.9133 1512.07 27.816 Q1513.95 27.8777 1514.63 28.835 Q1515.31 29.7614 1515.31 30.7186 Q1515.31 31.9847 1514.51 32.8184 Q1513.74 33.6213 1512.41 33.6213 Q1511.14 33.6213 1510.31 32.8493 Q1509.47 32.0464 1509.47 30.6569 Q1509.47 27.5689 1512.25 25.5309 Q1515.06 23.4929 1519.05 23.4929 Q1524.23 23.4929 1527.69 26.9822 Q1528.77 28.063 1529.3 29.4526 Q1529.85 30.8421 1529.92 31.7685 Q1529.98 32.664 1529.98 34.455 L1529.98 47.0846 Q1529.98 47.4552 1530.1 48.0727 Q1530.23 48.6903 1530.78 49.4932 Q1531.37 50.2652 1532.32 50.2652 Q1534.61 50.2652 1534.58 46.22 L1534.58 42.6689 L1536.18 42.6689 L1536.18 46.22 Q1536.18 49.5858 1534.39 50.9136 Q1532.63 52.2106 1531 52.2106 Q1528.9 52.2106 1527.57 50.6666 Q1526.24 49.1226 1526.06 47.0228 Q1525.1 49.4314 1522.91 51.0063 Q1520.75 52.5502 1517.78 52.5502 Q1515.5 52.5502 1513.33 51.9635 Q1511.2 51.4077 1509.41 49.8329 Q1507.65 48.2271 1507.65 45.8186 M1512.53 45.7568 Q1512.53 48.1036 1514.2 49.6167 Q1515.87 51.1298 1518.21 51.1298 Q1520.87 51.1298 1523.25 49.0918 Q1525.62 47.0228 1525.62 42.9777 L1525.62 36.6474 Q1518.61 36.8945 1515.56 39.7045 Q1512.53 42.4836 1512.53 45.7568 Z" fill="#000000" fill-rule="evenodd" fill-opacity="1" /><path clip-path="url(#clip010)" d="M 0 0 M1537.39 26.5499 L1537.39 25.1604 Q1540.29 25.0369 1542.21 22.9988 Q1544.15 20.9299 1544.8 18.3978 Q1545.48 15.8657 1545.54 12.9322 L1547.12 12.9322 L1547.12 24.5737 L1556.16 24.5737 L1556.16 26.5499 L1547.12 26.5499 L1547.12 44.1202 Q1547.12 50.9445 1551.38 50.9445 Q1553.2 50.9445 1554.4 49.0918 Q1555.61 47.2081 1555.61 43.8732 L1555.61 40.3838 L1557.18 40.3838 L1557.18 43.9967 Q1557.18 47.4243 1555.61 49.9872 Q1554.03 52.5502 1550.91 52.5502 Q1549.77 52.5502 1548.63 52.2414 Q1547.52 51.9635 1546.04 51.2224 Q1544.58 50.4504 1543.66 48.5977 Q1542.76 46.7141 1542.76 43.9967 L1542.76 26.5499 L1537.39 26.5499 Z" fill="#000000" fill-rule="evenodd" fill-opacity="1" /><path clip-path="url(#clip010)" d="M 0 0 M1559.28 51.84 L1559.28 49.8946 Q1562.65 49.8946 1563.42 49.4932 Q1564.19 49.0609 1564.19 47.0228 L1564.19 30.0084 Q1564.19 27.6616 1563.39 27.1058 Q1562.62 26.5499 1559.53 26.5499 L1559.53 24.5737 L1568.36 23.8943 L1568.36 47.0846 Q1568.36 48.9682 1569.04 49.4314 Q1569.72 49.8946 1572.81 49.8946 L1572.81 51.84 Q1566.35 51.6547 1566.23 51.6547 Q1565.37 51.6547 1559.28 51.84 M1561.94 12.8705 Q1561.94 11.6044 1562.9 10.5854 Q1563.88 9.5355 1565.27 9.5355 Q1566.66 9.5355 1567.65 10.4928 Q1568.64 11.4191 1568.64 12.9013 Q1568.64 14.3527 1567.65 15.3099 Q1566.66 16.2363 1565.27 16.2363 Q1563.82 16.2363 1562.86 15.2173 Q1561.94 14.1983 1561.94 12.8705 Z" fill="#000000" fill-rule="evenodd" fill-opacity="1" /><path clip-path="url(#clip010)" d="M 0 0 M1578.74 48.4433 Q1574.57 44.3055 1574.57 38.3149 Q1574.57 32.2935 1578.64 27.9086 Q1582.75 23.4929 1588.62 23.4929 Q1594.36 23.4929 1598.47 27.8777 Q1602.61 32.2317 1602.61 38.3149 Q1602.61 44.2746 1598.44 48.4124 Q1594.3 52.5502 1588.56 52.5502 Q1582.94 52.5502 1578.74 48.4433 M1579.82 37.79 Q1579.82 43.9349 1581.42 46.7141 Q1583.89 50.9445 1588.62 50.9445 Q1590.96 50.9445 1592.91 49.6785 Q1594.89 48.4124 1595.97 46.2817 Q1597.36 43.5026 1597.36 37.79 Q1597.36 31.7068 1595.69 29.0203 Q1593.22 24.9133 1588.56 24.9133 Q1586.52 24.9133 1584.51 25.9941 Q1582.53 27.044 1581.33 29.1438 Q1579.82 31.9229 1579.82 37.79 Z" fill="#000000" fill-rule="evenodd" fill-opacity="1" /><path clip-path="url(#clip010)" d="M 0 0 M1604.64 51.84 L1604.64 49.8946 Q1608.01 49.8946 1608.78 49.4932 Q1609.55 49.0609 1609.55 47.0228 L1609.55 30.0702 Q1609.55 27.7233 1608.72 27.1366 Q1607.92 26.5499 1604.64 26.5499 L1604.64 24.5737 L1613.54 23.8943 L1613.54 30.5334 Q1616.5 23.8943 1622.89 23.8943 Q1627.65 23.8943 1629.53 26.2411 Q1630.92 27.816 1631.2 29.5761 Q1631.51 31.3362 1631.51 35.9063 L1631.51 47.9801 Q1631.57 49.3079 1632.59 49.6167 Q1633.61 49.8946 1636.45 49.8946 L1636.45 51.84 Q1630 51.6547 1629.35 51.6547 Q1628.85 51.6547 1622.21 51.84 L1622.21 49.8946 Q1625.58 49.8946 1626.35 49.4932 Q1627.15 49.0609 1627.15 47.0228 L1627.15 32.2935 Q1627.15 29.082 1626.17 27.1984 Q1625.18 25.2839 1622.46 25.2839 Q1619.19 25.2839 1616.56 28.0321 Q1613.94 30.7804 1613.94 35.4123 L1613.94 47.0228 Q1613.94 49.0609 1614.71 49.4932 Q1615.51 49.8946 1618.85 49.8946 L1618.85 51.84 Q1612.39 51.6547 1611.78 51.6547 Q1611.28 51.6547 1604.64 51.84 Z" fill="#000000" fill-rule="evenodd" fill-opacity="1" /><polyline clip-path="url(#clip012)" style="stroke:#4477aa; stroke-width:4.8; stroke-opacity:1; fill:none" points="
  353.472,143.099 358.211,143.101 362.95,143.12 367.689,143.168 372.428,143.257 416.247,147.195 460.066,158.141 503.885,175.913 547.703,199.394 600.37,233.433 
  653.037,272.042 697.566,307.116 742.094,343.649 838.836,425.538 928.023,501.552 1023.64,581.602 1134.42,671.089 1232.88,747.094 1319.21,810.871 1413.33,877.367 
  1508.02,941.167 1612.71,1008.28 1712.31,1069.01 1815.88,1129.14 1903.06,1177.55 2009.5,1234.1 2109.56,1284.9 2269.86,1361.91 2294.52,1373.31 
  "/>
<polyline clip-path="url(#clip012)" style="stroke:#ee6677; stroke-width:4.8; stroke-opacity:1; fill:none" points="
  353.472,143.099 358.211,143.101 362.95,143.119 367.689,143.165 372.428,143.248 416.247,146.828 460.066,156.37 503.885,171.28 547.703,190.322 600.37,217.03 
  653.037,246.4 697.566,272.429 742.094,299.009 838.836,357.04 928.023,409.428 1023.64,463.43 1134.42,522.696 1232.88,572.304 1319.21,613.51 1413.33,656.126 
  1508.02,696.729 1612.71,739.184 1712.31,777.401 1815.88,815.084 1903.06,845.314 2009.5,880.529 2109.56,912.071 2269.86,959.758 2294.52,966.809 
  "/>
<path clip-path="url(#clip010)" d="
M1798.1 421.82 L2284.17 421.82 L2284.17 149.66 L1798.1 149.66  Z
  " fill="#ffffff" fill-rule="evenodd" fill-opacity="0.9"/>
<polyline clip-path="url(#clip010)" style="stroke:#222255; stroke-width:4; stroke-opacity:0.1; fill:none" points="
  1798.1,421.82 2284.17,421.82 2284.17,149.66 1798.1,149.66 1798.1,421.82 
  "/>
<polyline clip-path="url(#clip010)" style="stroke:#4477aa; stroke-width:6; stroke-opacity:1; fill:none" points="
  1820.96,240.38 1958.13,240.38 
  "/>
<path clip-path="url(#clip010)" d="M 0 0 M1980.99 239.879 Q1980.99 238.657 1981.4 237.212 Q1981.84 235.729 1983.21 234.284 Q1984.59 232.839 1986.62 232.839 Q1990.55 232.839 1993.63 238.36 Q1996.7 243.844 2000.04 256.147 Q2001.56 250.774 2003.85 244.993 Q2004.78 242.733 2005.45 241.325 Q2006.11 239.879 2007.52 237.582 Q2008.93 235.248 2010.67 234.062 Q2012.41 232.839 2014.45 232.839 Q2016.05 232.839 2016.93 233.802 Q2017.82 234.729 2017.82 235.952 Q2017.82 237.767 2016.3 238.694 Q2015.79 238.99 2014.53 239.175 Q2013.27 239.361 2012.23 239.657 Q2011.19 239.954 2009.6 241.695 Q2008 243.4 2006.48 246.586 Q2004.6 250.514 2002.93 255.331 Q2001.26 260.149 2001.26 261.297 Q2001.26 261.816 2001.63 263.965 Q2002.04 266.077 2002.41 269.783 Q2002.78 273.525 2002.78 277.75 Q2002.78 278.676 2002.71 279.121 Q2002.56 280.121 2001.78 280.751 Q2001.04 281.418 1999.96 281.418 Q1997.07 281.418 1997.07 277.676 L1997.07 277.305 Q1997.07 274.044 1997.48 270.153 Q1997.93 266.3 1998.37 263.706 L1998.78 261.223 Q1998.78 259.63 1996.37 252.775 Q1994 245.882 1992 242.918 Q1989.55 239.212 1986.25 239.212 Q1984.73 239.212 1983.99 239.546 Q1983.29 239.879 1982.92 240.435 Q1982.58 240.954 1982.44 241.028 Q1981.99 241.325 1981.47 240.991 Q1980.99 240.621 1980.99 239.879 Z" fill="#000000" fill-rule="evenodd" fill-opacity="1" /><path clip-path="url(#clip010)" d="M 0 0 M2047.39 254.776 Q2047.47 253.849 2048.91 253.849 L2095.42 253.849 Q2097.6 253.849 2097.64 254.701 Q2097.64 255.628 2095.57 255.591 L2049.43 255.591 Q2047.39 255.628 2047.39 254.776 M2047.39 239.954 Q2047.39 239.027 2048.99 239.064 L2095.34 239.064 Q2097.6 239.064 2097.64 239.954 Q2097.64 240.806 2095.71 240.806 L2048.91 240.806 Q2047.39 240.806 2047.39 239.954 Z" fill="#000000" fill-rule="evenodd" fill-opacity="1" /><path clip-path="url(#clip010)" d="M 0 0 M2129.62 222.982 L2129.62 220.611 Q2138.73 220.611 2143.44 215.757 Q2144.74 215.757 2144.96 216.053 Q2145.18 216.35 2145.18 217.721 L2145.18 260.297 Q2145.18 262.557 2146.29 263.261 Q2147.41 263.965 2152.26 263.965 L2154.67 263.965 L2154.67 266.3 Q2152 266.077 2142.37 266.077 Q2132.73 266.077 2130.1 266.3 L2130.1 263.965 L2132.51 263.965 Q2137.29 263.965 2138.44 263.298 Q2139.59 262.594 2139.59 260.297 L2139.59 220.981 Q2135.62 222.982 2129.62 222.982 Z" fill="#000000" fill-rule="evenodd" fill-opacity="1" /><path clip-path="url(#clip010)" d="M 0 0 M2162.26 265.077 Q2161.12 263.854 2161.12 262.261 Q2161.12 260.667 2162.26 259.519 Q2163.41 258.333 2165.15 258.333 Q2166.82 258.333 2167.93 259.445 Q2169.08 260.519 2169.08 262.298 Q2169.08 264.039 2167.86 265.188 Q2166.67 266.3 2165.15 266.3 Q2163.41 266.3 2162.26 265.077 Z" fill="#000000" fill-rule="evenodd" fill-opacity="1" /><path clip-path="url(#clip010)" d="M 0 0 M2171.19 253.775 L2171.19 251.441 L2194.5 215.831 Q2195.1 214.904 2196.02 214.941 Q2196.87 214.941 2197.06 215.275 Q2197.24 215.608 2197.24 216.905 L2197.24 251.441 L2204.84 251.441 L2204.84 253.775 L2197.24 253.775 L2197.24 260.371 Q2197.24 262.557 2198.13 263.261 Q2199.06 263.965 2202.99 263.965 L2204.58 263.965 L2204.58 266.3 Q2201.47 266.077 2194.28 266.077 Q2187.13 266.077 2184.02 266.3 L2184.02 263.965 L2185.61 263.965 Q2189.54 263.965 2190.46 263.298 Q2191.39 262.594 2191.39 260.371 L2191.39 253.775 L2171.19 253.775 M2173.34 251.441 L2191.83 251.441 L2191.83 223.131 L2173.34 251.441 Z" fill="#000000" fill-rule="evenodd" fill-opacity="1" /><polyline clip-path="url(#clip010)" style="stroke:#ee6677; stroke-width:6; stroke-opacity:1; fill:none" points="
  1820.96,331.1 1958.13,331.1 
  "/>
<path clip-path="url(#clip010)" d="M 0 0 M1980.99 330.599 Q1980.99 329.377 1981.4 327.932 Q1981.84 326.449 1983.21 325.004 Q1984.59 323.559 1986.62 323.559 Q1990.55 323.559 1993.63 329.08 Q1996.7 334.564 2000.04 346.867 Q2001.56 341.494 2003.85 335.713 Q2004.78 333.453 2005.45 332.045 Q2006.11 330.599 2007.52 328.302 Q2008.93 325.968 2010.67 324.782 Q2012.41 323.559 2014.45 323.559 Q2016.05 323.559 2016.93 324.522 Q2017.82 325.449 2017.82 326.672 Q2017.82 328.487 2016.3 329.414 Q2015.79 329.71 2014.53 329.895 Q2013.27 330.081 2012.23 330.377 Q2011.19 330.674 2009.6 332.415 Q2008 334.12 2006.48 337.306 Q2004.6 341.234 2002.93 346.051 Q2001.26 350.869 2001.26 352.017 Q2001.26 352.536 2001.63 354.685 Q2002.04 356.797 2002.41 360.503 Q2002.78 364.245 2002.78 368.47 Q2002.78 369.396 2002.71 369.841 Q2002.56 370.841 2001.78 371.471 Q2001.04 372.138 1999.96 372.138 Q1997.07 372.138 1997.07 368.396 L1997.07 368.025 Q1997.07 364.764 1997.48 360.873 Q1997.93 357.02 1998.37 354.426 L1998.78 351.943 Q1998.78 350.35 1996.37 343.495 Q1994 336.602 1992 333.638 Q1989.55 329.932 1986.25 329.932 Q1984.73 329.932 1983.99 330.266 Q1983.29 330.599 1982.92 331.155 Q1982.58 331.674 1982.44 331.748 Q1981.99 332.045 1981.47 331.711 Q1980.99 331.341 1980.99 330.599 Z" fill="#000000" fill-rule="evenodd" fill-opacity="1" /><path clip-path="url(#clip010)" d="M 0 0 M2047.39 345.496 Q2047.47 344.569 2048.91 344.569 L2095.42 344.569 Q2097.6 344.569 2097.64 345.421 Q2097.64 346.348 2095.57 346.311 L2049.43 346.311 Q2047.39 346.348 2047.39 345.496 M2047.39 330.674 Q2047.39 329.747 2048.99 329.784 L2095.34 329.784 Q2097.6 329.784 2097.64 330.674 Q2097.64 331.526 2095.71 331.526 L2048.91 331.526 Q2047.39 331.526 2047.39 330.674 Z" fill="#000000" fill-rule="evenodd" fill-opacity="1" /><path clip-path="url(#clip010)" d="M 0 0 M2129.62 313.702 L2129.62 311.331 Q2138.73 311.331 2143.44 306.477 Q2144.74 306.477 2144.96 306.773 Q2145.18 307.07 2145.18 308.441 L2145.18 351.017 Q2145.18 353.277 2146.29 353.981 Q2147.41 354.685 2152.26 354.685 L2154.67 354.685 L2154.67 357.02 Q2152 356.797 2142.37 356.797 Q2132.73 356.797 2130.1 357.02 L2130.1 354.685 L2132.51 354.685 Q2137.29 354.685 2138.44 354.018 Q2139.59 353.314 2139.59 351.017 L2139.59 311.701 Q2135.62 313.702 2129.62 313.702 Z" fill="#000000" fill-rule="evenodd" fill-opacity="1" /><path clip-path="url(#clip010)" d="M 0 0 M2162.26 355.797 Q2161.12 354.574 2161.12 352.981 Q2161.12 351.387 2162.26 350.239 Q2163.41 349.053 2165.15 349.053 Q2166.82 349.053 2167.93 350.165 Q2169.08 351.239 2169.08 353.018 Q2169.08 354.759 2167.86 355.908 Q2166.67 357.02 2165.15 357.02 Q2163.41 357.02 2162.26 355.797 Z" fill="#000000" fill-rule="evenodd" fill-opacity="1" /><path clip-path="url(#clip010)" d="M 0 0 M2172.27 333.045 Q2172.27 321.113 2178.35 313.814 Q2184.42 306.477 2192.24 306.477 Q2196.8 306.477 2199.32 308.811 Q2201.88 311.109 2201.88 314.666 Q2201.88 316.63 2200.73 317.482 Q2199.58 318.334 2198.39 318.334 Q2197.02 318.334 2195.95 317.408 Q2194.87 316.482 2194.87 314.814 Q2194.87 311.405 2199.06 311.405 Q2197.1 308.366 2192.39 308.366 Q2190.94 308.366 2189.46 308.811 Q2187.98 309.219 2186.05 310.627 Q2184.13 312.035 2182.64 314.258 Q2181.16 316.482 2180.12 320.669 Q2179.09 324.856 2179.09 330.303 L2179.09 332.119 Q2182.2 324.597 2188.57 324.634 Q2194.95 324.634 2199.36 329.488 Q2203.77 334.342 2203.77 341.531 Q2203.77 348.905 2199.17 353.796 Q2194.58 358.687 2188.13 358.687 Q2185.24 358.687 2182.61 357.464 Q2180.01 356.279 2177.57 353.537 Q2175.16 350.794 2173.71 345.533 Q2172.27 340.271 2172.27 333.045 M2179.24 339.863 Q2179.24 347.311 2180.61 350.869 Q2180.83 351.461 2181.31 352.277 Q2181.83 353.092 2182.68 354.166 Q2183.57 355.204 2185.02 355.908 Q2186.46 356.575 2188.13 356.575 Q2193.21 356.575 2195.65 351.647 Q2196.95 348.905 2196.95 341.457 Q2196.95 333.86 2195.58 331.081 Q2193.24 326.375 2188.5 326.375 Q2185.31 326.375 2183.09 328.561 Q2180.9 330.748 2180.05 333.675 Q2179.24 336.602 2179.24 339.863 Z" fill="#000000" fill-rule="evenodd" fill-opacity="1" /><path clip-path="url(#clip010)" d="M 0 0 M2206.95 333.045 Q2206.95 321.113 2213.03 313.814 Q2219.11 306.477 2226.93 306.477 Q2231.48 306.477 2234 308.811 Q2236.56 311.109 2236.56 314.666 Q2236.56 316.63 2235.41 317.482 Q2234.26 318.334 2233.08 318.334 Q2231.71 318.334 2230.63 317.408 Q2229.56 316.482 2229.56 314.814 Q2229.56 311.405 2233.74 311.405 Q2231.78 308.366 2227.07 308.366 Q2225.63 308.366 2224.15 308.811 Q2222.66 309.219 2220.74 310.627 Q2218.81 312.035 2217.33 314.258 Q2215.85 316.482 2214.81 320.669 Q2213.77 324.856 2213.77 330.303 L2213.77 332.119 Q2216.88 324.597 2223.26 324.634 Q2229.63 324.634 2234.04 329.488 Q2238.45 334.342 2238.45 341.531 Q2238.45 348.905 2233.85 353.796 Q2229.26 358.687 2222.81 358.687 Q2219.92 358.687 2217.29 357.464 Q2214.7 356.279 2212.25 353.537 Q2209.84 350.794 2208.4 345.533 Q2206.95 340.271 2206.95 333.045 M2213.92 339.863 Q2213.92 347.311 2215.29 350.869 Q2215.51 351.461 2215.99 352.277 Q2216.51 353.092 2217.37 354.166 Q2218.25 355.204 2219.7 355.908 Q2221.14 356.575 2222.81 356.575 Q2227.89 356.575 2230.33 351.647 Q2231.63 348.905 2231.63 341.457 Q2231.63 333.86 2230.26 331.081 Q2227.93 326.375 2223.18 326.375 Q2220 326.375 2217.77 328.561 Q2215.59 330.748 2214.73 333.675 Q2213.92 336.602 2213.92 339.863 Z" fill="#000000" fill-rule="evenodd" fill-opacity="1" /></svg>
