<?xml version="1.0" encoding="utf-8"?>
<svg xmlns="http://www.w3.org/2000/svg" xmlns:xlink="http://www.w3.org/1999/xlink" width="600" height="400" viewBox="0 0 2400 1600">
<defs>
  <clipPath id="clip040">
    <rect x="0" y="0" width="2400" height="1600"/>
  </clipPath>
</defs>
<path clip-path="url(#clip040)" d="
M0 1600 L2400 1600 L2400 0 L0 0  Z
  " fill="#ffffff" fill-rule="evenodd" fill-opacity="1"/>
<defs>
  <clipPath id="clip041">
    <rect x="480" y="0" width="1681" height="1600"/>
  </clipPath>
</defs>
<path clip-path="url(#clip040)" d="
M455.386 1410.22 L2352.76 1410.22 L2352.76 106.192 L455.386 106.192  Z
  " fill="#ffffff" fill-rule="evenodd" fill-opacity="1"/>
<defs>
  <clipPath id="clip042">
    <rect x="455" y="106" width="1898" height="1305"/>
  </clipPath>
</defs>
<polyline clip-path="url(#clip042)" style="stroke:#222255; stroke-width:4; stroke-opacity:0.1; fill:none" stroke-dasharray="16, 10" points="
  707.971,1300 707.971,100 
  "/>
<polyline clip-path="url(#clip042)" style="stroke:#222255; stroke-width:4; stroke-opacity:0.1; fill:none" stroke-dasharray="16, 10" points="
  1105.74,1300 1105.74,100 
  "/>
<polyline clip-path="url(#clip042)" style="stroke:#222255; stroke-width:4; stroke-opacity:0.1; fill:none" stroke-dasharray="16, 10" points="
  1503.51,1300 1503.51,100 
  "/>
<polyline clip-path="url(#clip042)" style="stroke:#222255; stroke-width:4; stroke-opacity:0.1; fill:none" stroke-dasharray="16, 10" points="
  1901.29,1300 1901.29,100 
  "/>
<polyline clip-path="url(#clip042)" style="stroke:#222255; stroke-width:4; stroke-opacity:0.1; fill:none" stroke-dasharray="16, 10" points="
  2299.06,1300 2299.06,100 
  "/>
<polyline clip-path="url(#clip042)" style="stroke:#222255; stroke-width:2; stroke-opacity:0.05; fill:none" points="
  469.308,1300 469.308,100 
  "/>
<polyline clip-path="url(#clip042)" style="stroke:#222255; stroke-width:2; stroke-opacity:0.05; fill:none" points="
  548.862,1300 548.862,100 
  "/>
<polyline clip-path="url(#clip042)" style="stroke:#222255; stroke-width:2; stroke-opacity:0.05; fill:none" points="
  628.417,1300 628.417,100 
  "/>
<polyline clip-path="url(#clip042)" style="stroke:#222255; stroke-width:2; stroke-opacity:0.05; fill:none" points="
  787.525,1300 787.525,100 
  "/>
<polyline clip-path="url(#clip042)" style="stroke:#222255; stroke-width:2; stroke-opacity:0.05; fill:none" points="
  867.079,1300 867.079,100 
  "/>
<polyline clip-path="url(#clip042)" style="stroke:#222255; stroke-width:2; stroke-opacity:0.05; fill:none" points="
  946.634,1300 946.634,100 
  "/>
<polyline clip-path="url(#clip042)" style="stroke:#222255; stroke-width:2; stroke-opacity:0.05; fill:none" points="
  1026.19,1300 1026.19,100 
  "/>
<polyline clip-path="url(#clip042)" style="stroke:#222255; stroke-width:2; stroke-opacity:0.05; fill:none" points="
  1185.3,1300 1185.3,100 
  "/>
<polyline clip-path="url(#clip042)" style="stroke:#222255; stroke-width:2; stroke-opacity:0.05; fill:none" points="
  1264.85,1300 1264.85,100 
  "/>
<polyline clip-path="url(#clip042)" style="stroke:#222255; stroke-width:2; stroke-opacity:0.05; fill:none" points="
  1344.41,1300 1344.41,100 
  "/>
<polyline clip-path="url(#clip042)" style="stroke:#222255; stroke-width:2; stroke-opacity:0.05; fill:none" points="
  1423.96,1300 1423.96,100 
  "/>
<polyline clip-path="url(#clip042)" style="stroke:#222255; stroke-width:2; stroke-opacity:0.05; fill:none" points="
  1583.07,1300 1583.07,100 
  "/>
<polyline clip-path="url(#clip042)" style="stroke:#222255; stroke-width:2; stroke-opacity:0.05; fill:none" points="
  1662.62,1300 1662.62,100 
  "/>
<polyline clip-path="url(#clip042)" style="stroke:#222255; stroke-width:2; stroke-opacity:0.05; fill:none" points="
  1742.18,1300 1742.18,100 
  "/>
<polyline clip-path="url(#clip042)" style="stroke:#222255; stroke-width:2; stroke-opacity:0.05; fill:none" points="
  1821.73,1300 1821.73,100 
  "/>
<polyline clip-path="url(#clip042)" style="stroke:#222255; stroke-width:2; stroke-opacity:0.05; fill:none" points="
  1980.84,1300 1980.84,100 
  "/>
<polyline clip-path="url(#clip042)" style="stroke:#222255; stroke-width:2; stroke-opacity:0.05; fill:none" points="
  2060.39,1300 2060.39,100 
  "/>
<polyline clip-path="url(#clip042)" style="stroke:#222255; stroke-width:2; stroke-opacity:0.05; fill:none" points="
  2139.95,1300 2139.95,100 
  "/>
<polyline clip-path="url(#clip042)" style="stroke:#222255; stroke-width:2; stroke-opacity:0.05; fill:none" points="
  2219.5,1300 2219.5,100 
  "/>
<polyline clip-path="url(#clip040)" style="stroke:#000000; stroke-width:4; stroke-opacity:1; fill:none" points="
  455.386,1300 2352.76,1300 
  "/>
<polyline clip-path="url(#clip040)" style="stroke:#000000; stroke-width:4; stroke-opacity:1; fill:none" points="
  455.386,100 2352.76,100 
  "/>
<polyline clip-path="url(#clip040)" style="stroke:#000000; stroke-width:4; stroke-opacity:1; fill:none" points="
  707.971,1300 707.971,1300 
  "/>
<polyline clip-path="url(#clip040)" style="stroke:#000000; stroke-width:4; stroke-opacity:1; fill:none" points="
  1105.74,1300 1105.74,1300 
  "/>
<polyline clip-path="url(#clip040)" style="stroke:#000000; stroke-width:4; stroke-opacity:1; fill:none" points="
  1503.51,1300 1503.51,1300 
  "/>
<polyline clip-path="url(#clip040)" style="stroke:#000000; stroke-width:4; stroke-opacity:1; fill:none" points="
  1901.29,1300 1901.29,1300 
  "/>
<polyline clip-path="url(#clip040)" style="stroke:#000000; stroke-width:4; stroke-opacity:1; fill:none" points="
  2299.06,1300 2299.06,1300 
  "/>
<polyline clip-path="url(#clip040)" style="stroke:#000000; stroke-width:4; stroke-opacity:1; fill:none" points="
  469.308,1300 469.308,1300 
  "/>
<polyline clip-path="url(#clip040)" style="stroke:#000000; stroke-width:4; stroke-opacity:1; fill:none" points="
  548.862,1300 548.862,1300 
  "/>
<polyline clip-path="url(#clip040)" style="stroke:#000000; stroke-width:4; stroke-opacity:1; fill:none" points="
  628.417,1300 628.417,1300 
  "/>
<polyline clip-path="url(#clip040)" style="stroke:#000000; stroke-width:4; stroke-opacity:1; fill:none" points="
  787.525,1300 787.525,1300 
  "/>
<polyline clip-path="url(#clip040)" style="stroke:#000000; stroke-width:4; stroke-opacity:1; fill:none" points="
  867.079,1300 867.079,1300 
  "/>
<polyline clip-path="url(#clip040)" style="stroke:#000000; stroke-width:4; stroke-opacity:1; fill:none" points="
  946.634,1300 946.634,1300 
  "/>
<polyline clip-path="url(#clip040)" style="stroke:#000000; stroke-width:4; stroke-opacity:1; fill:none" points="
  1026.19,1300 1026.19,1300 
  "/>
<polyline clip-path="url(#clip040)" style="stroke:#000000; stroke-width:4; stroke-opacity:1; fill:none" points="
  1185.3,1300 1185.3,1300 
  "/>
<polyline clip-path="url(#clip040)" style="stroke:#000000; stroke-width:4; stroke-opacity:1; fill:none" points="
  1264.85,1300 1264.85,1300 
  "/>
<polyline clip-path="url(#clip040)" style="stroke:#000000; stroke-width:4; stroke-opacity:1; fill:none" points="
  1344.41,1300 1344.41,1300 
  "/>
<polyline clip-path="url(#clip040)" style="stroke:#000000; stroke-width:4; stroke-opacity:1; fill:none" points="
  1423.96,1300 1423.96,1300 
  "/>
<polyline clip-path="url(#clip040)" style="stroke:#000000; stroke-width:4; stroke-opacity:1; fill:none" points="
  1583.07,1300 1583.07,1300 
  "/>
<polyline clip-path="url(#clip040)" style="stroke:#000000; stroke-width:4; stroke-opacity:1; fill:none" points="
  1662.62,1300 1662.62,1300 
  "/>
<polyline clip-path="url(#clip040)" style="stroke:#000000; stroke-width:4; stroke-opacity:1; fill:none" points="
  1742.18,1300 1742.18,1300 
  "/>
<polyline clip-path="url(#clip040)" style="stroke:#000000; stroke-width:4; stroke-opacity:1; fill:none" points="
  1821.73,1300 1821.73,1300 
  "/>
<polyline clip-path="url(#clip040)" style="stroke:#000000; stroke-width:4; stroke-opacity:1; fill:none" points="
  1980.84,1300 1980.84,1300 
  "/>
<polyline clip-path="url(#clip040)" style="stroke:#000000; stroke-width:4; stroke-opacity:1; fill:none" points="
  2060.39,1300 2060.39,1300 
  "/>
<polyline clip-path="url(#clip040)" style="stroke:#000000; stroke-width:4; stroke-opacity:1; fill:none" points="
  2139.95,1300 2139.95,1300 
  "/>
<polyline clip-path="url(#clip040)" style="stroke:#000000; stroke-width:4; stroke-opacity:1; fill:none" points="
  2219.5,1300 2219.5,1300 
  "/>
<path clip-path="url(#clip040)" d="M 0 0 M695.341 1371.04 Q695.341 1369.9 695.434 1369.56 Q695.557 1369.22 696.052 1368.69 L708.187 1355.17 Q714.826 1347.7 714.826 1341.18 Q714.826 1336.95 712.603 1333.92 Q710.41 1330.9 706.365 1330.9 Q703.586 1330.9 701.239 1332.6 Q698.892 1334.29 697.812 1337.32 Q697.997 1337.26 698.645 1337.26 Q700.22 1337.26 701.085 1338.25 Q701.98 1339.23 701.98 1340.56 Q701.98 1342.26 700.869 1343.09 Q699.788 1343.9 698.707 1343.9 Q698.275 1343.9 697.688 1343.8 Q697.132 1343.71 696.237 1342.85 Q695.341 1341.95 695.341 1340.38 Q695.341 1335.96 698.676 1332.44 Q702.042 1328.92 707.168 1328.92 Q712.973 1328.92 716.771 1332.38 Q720.6 1335.81 720.6 1341.18 Q720.6 1343.06 720.014 1344.79 Q719.458 1346.49 718.686 1347.82 Q717.945 1349.15 715.907 1351.28 Q713.869 1353.41 712.232 1354.92 Q710.596 1356.43 706.921 1359.65 L700.22 1366.16 L711.615 1366.16 Q717.173 1366.16 717.605 1365.67 Q718.223 1364.77 718.995 1360.05 L720.6 1360.05 L718.809 1371.04 L695.341 1371.04 Z" fill="#808080" fill-rule="evenodd" fill-opacity="1" /><path clip-path="url(#clip040)" d="M 0 0 M1091.72 1360.6 L1091.72 1358.66 L1111.15 1328.98 Q1111.64 1328.21 1112.41 1328.24 Q1113.12 1328.24 1113.28 1328.52 Q1113.43 1328.8 1113.43 1329.88 L1113.43 1358.66 L1119.76 1358.66 L1119.76 1360.6 L1113.43 1360.6 L1113.43 1366.1 Q1113.43 1367.92 1114.17 1368.51 Q1114.94 1369.09 1118.22 1369.09 L1119.55 1369.09 L1119.55 1371.04 Q1116.95 1370.85 1110.96 1370.85 Q1105 1370.85 1102.41 1371.04 L1102.41 1369.09 L1103.74 1369.09 Q1107.01 1369.09 1107.78 1368.54 Q1108.55 1367.95 1108.55 1366.1 L1108.55 1360.6 L1091.72 1360.6 M1093.51 1358.66 L1108.92 1358.66 L1108.92 1335.07 L1093.51 1358.66 Z" fill="#808080" fill-rule="evenodd" fill-opacity="1" /><path clip-path="url(#clip040)" d="M 0 0 M1490.39 1351.06 Q1490.39 1341.12 1495.45 1335.03 Q1500.52 1328.92 1507.03 1328.92 Q1510.83 1328.92 1512.93 1330.87 Q1515.06 1332.78 1515.06 1335.75 Q1515.06 1337.38 1514.11 1338.09 Q1513.15 1338.8 1512.16 1338.8 Q1511.02 1338.8 1510.12 1338.03 Q1509.23 1337.26 1509.23 1335.87 Q1509.23 1333.03 1512.72 1333.03 Q1511.08 1330.5 1507.16 1330.5 Q1505.95 1330.5 1504.72 1330.87 Q1503.48 1331.21 1501.88 1332.38 Q1500.27 1333.55 1499.04 1335.41 Q1497.8 1337.26 1496.94 1340.75 Q1496.07 1344.24 1496.07 1348.78 L1496.07 1350.29 Q1498.67 1344.02 1503.98 1344.05 Q1509.29 1344.05 1512.96 1348.1 Q1516.64 1352.14 1516.64 1358.13 Q1516.64 1364.28 1512.81 1368.35 Q1508.98 1372.43 1503.61 1372.43 Q1501.2 1372.43 1499.01 1371.41 Q1496.84 1370.42 1494.81 1368.14 Q1492.8 1365.85 1491.59 1361.47 Q1490.39 1357.08 1490.39 1351.06 M1496.2 1356.74 Q1496.2 1362.95 1497.34 1365.91 Q1497.52 1366.41 1497.92 1367.09 Q1498.36 1367.77 1499.07 1368.66 Q1499.81 1369.53 1501.01 1370.11 Q1502.22 1370.67 1503.61 1370.67 Q1507.84 1370.67 1509.87 1366.56 Q1510.96 1364.28 1510.96 1358.07 Q1510.96 1351.74 1509.81 1349.42 Q1507.87 1345.5 1503.92 1345.5 Q1501.26 1345.5 1499.41 1347.32 Q1497.59 1349.15 1496.87 1351.59 Q1496.2 1354.03 1496.2 1356.74 Z" fill="#808080" fill-rule="evenodd" fill-opacity="1" /><path clip-path="url(#clip040)" d="M 0 0 M1888.16 1361.5 Q1888.16 1354.43 1897.27 1349.86 Q1893.35 1347.2 1892.64 1346.43 Q1889.86 1343.34 1889.86 1339.48 Q1889.86 1335.07 1893.19 1332.01 Q1896.56 1328.92 1901.32 1328.92 Q1905.86 1328.92 1909.28 1331.55 Q1912.71 1334.17 1912.71 1338.34 Q1912.71 1344.21 1905.05 1348.16 Q1910.12 1351.31 1911.32 1352.64 Q1914.41 1356.06 1914.41 1360.42 Q1914.41 1365.48 1910.52 1368.97 Q1906.63 1372.43 1901.25 1372.43 Q1896 1372.43 1892.08 1369.37 Q1888.16 1366.32 1888.16 1361.5 M1891.31 1361.5 Q1891.31 1365.42 1894.24 1368.04 Q1897.21 1370.67 1901.32 1370.67 Q1905.3 1370.67 1908.26 1368.38 Q1911.26 1366.1 1911.26 1362.7 Q1911.26 1361.37 1910.8 1360.23 Q1910.36 1359.09 1909.47 1358.19 Q1908.6 1357.27 1908.05 1356.87 Q1907.52 1356.43 1906.5 1355.72 L1898.72 1350.81 Q1891.31 1354.92 1891.31 1361.5 M1892.64 1337.01 Q1892.64 1340.04 1895.82 1342.14 L1903.66 1347.2 Q1909.93 1343.53 1909.93 1338.34 Q1909.93 1334.97 1907.37 1332.75 Q1904.81 1330.5 1901.25 1330.5 Q1897.77 1330.5 1895.2 1332.35 Q1892.64 1334.17 1892.64 1337.01 Z" fill="#808080" fill-rule="evenodd" fill-opacity="1" /><path clip-path="url(#clip040)" d="M 0 0 M2274.08 1334.94 L2274.08 1332.97 Q2281.67 1332.97 2285.59 1328.92 Q2286.67 1328.92 2286.86 1329.17 Q2287.04 1329.41 2287.04 1330.56 L2287.04 1366.04 Q2287.04 1367.92 2287.97 1368.51 Q2288.9 1369.09 2292.94 1369.09 L2294.95 1369.09 L2294.95 1371.04 Q2292.73 1370.85 2284.7 1370.85 Q2276.67 1370.85 2274.48 1371.04 L2274.48 1369.09 L2276.48 1369.09 Q2280.47 1369.09 2281.42 1368.54 Q2282.38 1367.95 2282.38 1366.04 L2282.38 1333.27 Q2279.08 1334.94 2274.08 1334.94 Z" fill="#808080" fill-rule="evenodd" fill-opacity="1" /><path clip-path="url(#clip040)" d="M 0 0 M2297.42 1350.81 Q2297.42 1341.52 2299.77 1336.46 Q2303.04 1328.92 2310.76 1328.92 Q2312.4 1328.92 2314.09 1329.38 Q2315.82 1329.82 2317.99 1331.51 Q2320.18 1333.21 2321.51 1335.99 Q2324.04 1341.37 2324.04 1350.81 Q2324.04 1360.05 2321.69 1365.08 Q2318.26 1372.43 2310.7 1372.43 Q2307.86 1372.43 2304.95 1370.98 Q2302.08 1369.53 2300.26 1366.04 Q2297.42 1360.82 2297.42 1350.81 M2302.67 1350.04 Q2302.67 1359.58 2303.35 1363.38 Q2304.12 1367.49 2306.22 1369.28 Q2308.35 1371.04 2310.7 1371.04 Q2313.23 1371.04 2315.33 1369.16 Q2317.46 1367.24 2318.11 1363.13 Q2318.82 1359.09 2318.79 1350.04 Q2318.79 1341.24 2318.17 1337.72 Q2317.34 1333.61 2315.11 1331.98 Q2312.92 1330.31 2310.7 1330.31 Q2309.86 1330.31 2308.97 1330.56 Q2308.1 1330.8 2306.84 1331.51 Q2305.57 1332.22 2304.58 1333.98 Q2303.63 1335.75 2303.16 1338.4 Q2302.67 1341.83 2302.67 1350.04 Z" fill="#808080" fill-rule="evenodd" fill-opacity="1" /><path clip-path="url(#clip040)" d="M 0 0 M1343.67 1573.23 L1343.67 1570.89 Q1346.41 1570.89 1348.15 1570.37 Q1349.9 1569.82 1350.53 1568.82 Q1351.19 1567.78 1351.34 1567.11 Q1351.49 1566.41 1351.49 1565.26 L1351.49 1527.32 Q1351.49 1525.13 1350.53 1524.46 Q1349.6 1523.76 1345.49 1523.76 L1343.67 1523.76 L1343.67 1521.39 L1356.49 1521.39 Q1357.86 1521.39 1358.23 1521.65 Q1358.6 1521.87 1359.16 1523.06 L1375.61 1565.56 L1392.21 1522.83 Q1392.58 1521.76 1392.92 1521.57 Q1393.29 1521.39 1394.73 1521.39 L1407.55 1521.39 L1407.55 1523.76 L1405.74 1523.76 Q1401.63 1523.76 1400.66 1524.46 Q1399.74 1525.13 1399.74 1527.32 L1399.74 1567.3 Q1399.74 1569.49 1400.66 1570.19 Q1401.63 1570.89 1405.74 1570.89 L1407.55 1570.89 L1407.55 1573.23 Q1404.74 1573.01 1396.7 1573.01 Q1388.58 1573.01 1385.77 1573.23 L1385.77 1570.89 L1387.62 1570.89 Q1391.73 1570.89 1392.66 1570.23 Q1393.58 1569.52 1393.58 1567.3 L1393.58 1523.76 L1393.51 1523.76 L1374.87 1571.78 Q1374.35 1573.23 1373.5 1573.23 Q1372.57 1573.23 1371.98 1571.56 L1353.68 1524.35 L1353.6 1524.35 L1353.6 1565.26 Q1353.6 1566.41 1353.75 1567.11 Q1353.9 1567.78 1354.53 1568.82 Q1355.2 1569.82 1356.94 1570.37 Q1358.68 1570.89 1361.42 1570.89 L1361.42 1573.23 Q1353.45 1573.01 1352.53 1573.01 Q1351.64 1573.01 1343.67 1573.23 Z" fill="#000000" fill-rule="evenodd" fill-opacity="1" /><path clip-path="url(#clip040)" d="M 0 0 M1408.3 1572.49 L1408.3 1515.16 L1464.47 1515.16 L1464.47 1572.49 L1408.3 1572.49 M1412.85 1564.74 L1433.83 1543.77 L1412.85 1522.91 L1412.85 1564.74 M1415.52 1567.93 L1457.24 1567.93 L1436.38 1546.96 L1415.52 1567.93 M1415.52 1519.72 L1436.38 1540.66 L1457.24 1519.72 L1415.52 1519.72 M1438.98 1543.77 L1459.91 1564.74 L1459.91 1522.91 L1438.98 1543.77 Z" fill="#000000" fill-rule="evenodd" fill-opacity="1" /><polyline clip-path="url(#clip042)" style="stroke:#222255; stroke-width:4; stroke-opacity:0.1; fill:none" stroke-dasharray="16, 10" points="
  455.386,2200 2352.76,2200 
  "/>
<polyline clip-path="url(#clip042)" style="stroke:#222255; stroke-width:4; stroke-opacity:0.1; fill:none" stroke-dasharray="16, 10" points="
  455.386,1000 2352.76,1000 
  "/>
<polyline clip-path="url(#clip042)" style="stroke:#222255; stroke-width:4; stroke-opacity:0.1; fill:none" stroke-dasharray="16, 10" points="
  455.386,-200 2352.76,-200 
  "/>
<polyline clip-path="url(#clip042)" style="stroke:#222255; stroke-width:4; stroke-opacity:0.1; fill:none" stroke-dasharray="16, 10" points="
  455.386,-1700 2352.76,-1700 
  "/>
<polyline clip-path="url(#clip042)" style="stroke:#222255; stroke-width:4; stroke-opacity:0.1; fill:none" stroke-dasharray="16, 10" points="
  455.386,-2900 2352.76,-2900 
  "/>
<polyline clip-path="url(#clip042)" style="stroke:#222255; stroke-width:2; stroke-opacity:0.05; fill:none" points="
  455.386,1300 2352.76,1300 
  "/>
<polyline clip-path="url(#clip042)" style="stroke:#222255; stroke-width:2; stroke-opacity:0.05; fill:none" points="
  455.386,700 2352.76,700 
  "/>
<polyline clip-path="url(#clip042)" style="stroke:#222255; stroke-width:2; stroke-opacity:0.05; fill:none" points="
  455.386,100 2352.76,100 
  "/>
<polyline clip-path="url(#clip042)" style="stroke:#222255; stroke-width:2; stroke-opacity:0.05; fill:none" points="
  455.386,100 2352.76,100 
  "/>
<polyline clip-path="url(#clip040)" style="stroke:#000000; stroke-width:4; stroke-opacity:1; fill:none" points="
  455.386,1300 455.386,100 
  "/>
<polyline clip-path="url(#clip040)" style="stroke:#000000; stroke-width:4; stroke-opacity:1; fill:none" points="
  2352.76,1300 2352.76,100 
  "/>
<polyline clip-path="url(#clip040)" style="stroke:#000000; stroke-width:4; stroke-opacity:1; fill:none" points="
  455.386,2200 478.154,2200 
  "/>
<polyline clip-path="url(#clip040)" style="stroke:#000000; stroke-width:4; stroke-opacity:1; fill:none" points="
  455.386,1000 478.154,1000 
  "/>
<polyline clip-path="url(#clip040)" style="stroke:#000000; stroke-width:4; stroke-opacity:1; fill:none" points="
  455.386,-200 478.154,-200 
  "/>
<polyline clip-path="url(#clip040)" style="stroke:#000000; stroke-width:4; stroke-opacity:1; fill:none" points="
  455.386,-1700 478.154,-1700 
  "/>
<polyline clip-path="url(#clip040)" style="stroke:#000000; stroke-width:4; stroke-opacity:1; fill:none" points="
  455.386,-2900 478.154,-2900 
  "/>
<polyline clip-path="url(#clip040)" style="stroke:#000000; stroke-width:4; stroke-opacity:1; fill:none" points="
  455.386,1300 466.77,1300 
  "/>
<polyline clip-path="url(#clip040)" style="stroke:#000000; stroke-width:4; stroke-opacity:1; fill:none" points="
  455.386,700 466.77,700 
  "/>
<polyline clip-path="url(#clip040)" style="stroke:#000000; stroke-width:4; stroke-opacity:1; fill:none" points="
  455.386,100 466.77,100 
  "/>
<polyline clip-path="url(#clip040)" style="stroke:#000000; stroke-width:4; stroke-opacity:1; fill:none" points="
  455.386,100 466.77,100 
  "/>
<path clip-path="url(#clip040)" d="M 0 0 M118.58 2193.56 L118.58 2191.59 Q126.176 2191.59 130.098 2187.54 Q131.179 2187.54 131.364 2187.79 Q131.549 2188.03 131.549 2189.18 L131.549 2224.66 Q131.549 2226.54 132.476 2227.13 Q133.402 2227.71 137.447 2227.71 L139.454 2227.71 L139.454 2229.66 Q137.231 2229.47 129.203 2229.47 Q121.174 2229.47 118.982 2229.66 L118.982 2227.71 L120.989 2227.71 Q124.972 2227.71 125.929 2227.16 Q126.887 2226.57 126.887 2224.66 L126.887 2191.89 Q123.583 2193.56 118.58 2193.56 Z" fill="#808080" fill-rule="evenodd" fill-opacity="1" /><path clip-path="url(#clip040)" d="M 0 0 M141.925 2209.43 Q141.925 2200.14 144.272 2195.07 Q147.545 2187.54 155.265 2187.54 Q156.901 2187.54 158.6 2188 Q160.329 2188.44 162.49 2190.13 Q164.683 2191.83 166.011 2194.61 Q168.543 2199.98 168.543 2209.43 Q168.543 2218.67 166.196 2223.7 Q162.768 2231.05 155.203 2231.05 Q152.362 2231.05 149.459 2229.6 Q146.588 2228.15 144.766 2224.66 Q141.925 2219.44 141.925 2209.43 M147.174 2208.66 Q147.174 2218.2 147.854 2222 Q148.626 2226.11 150.725 2227.9 Q152.856 2229.66 155.203 2229.66 Q157.735 2229.66 159.835 2227.78 Q161.965 2225.86 162.614 2221.75 Q163.324 2217.71 163.293 2208.66 Q163.293 2199.86 162.676 2196.34 Q161.842 2192.23 159.619 2190.6 Q157.426 2188.93 155.203 2188.93 Q154.369 2188.93 153.474 2189.18 Q152.609 2189.42 151.343 2190.13 Q150.077 2190.84 149.089 2192.6 Q148.132 2194.36 147.668 2197.02 Q147.174 2200.45 147.174 2208.66 Z" fill="#808080" fill-rule="evenodd" fill-opacity="1" /><path clip-path="url(#clip040)" d="M 0 0 M202.464 2181.82 Q202.765 2182.12 202.765 2182.55 Q202.765 2182.98 202.464 2183.28 Q202.162 2183.58 201.736 2183.58 L169.571 2183.58 Q169.145 2183.58 168.844 2183.28 Q168.543 2182.98 168.543 2182.55 Q168.543 2182.12 168.844 2181.82 Q169.145 2181.52 169.571 2181.52 L201.736 2181.52 Q202.162 2181.52 202.464 2181.82 Z" fill="#808080" fill-rule="evenodd" fill-opacity="1" /><path clip-path="url(#clip040)" d="M 0 0 M204.922 2188.47 Q204.922 2186.94 205.8 2186.21 Q206.679 2185.49 207.808 2185.49 Q208.987 2185.49 209.815 2186.26 Q210.668 2187.02 210.668 2188.35 Q210.668 2189.78 209.664 2190.58 Q208.686 2191.38 207.281 2191.18 Q208.51 2193.24 210.768 2194.17 Q213.051 2195.1 215.159 2195.1 Q217.367 2195.1 219.148 2193.19 Q220.954 2191.28 220.954 2186.62 Q220.954 2182.65 219.399 2180.37 Q217.868 2178.08 214.833 2178.08 L212.575 2178.08 Q211.797 2178.08 211.571 2178.01 Q211.345 2177.93 211.345 2177.51 Q211.345 2177.01 212.123 2176.91 Q212.901 2176.91 214.13 2176.76 Q217.116 2176.65 218.696 2174.07 Q220.126 2171.66 220.126 2168.22 Q220.126 2165.09 218.621 2163.78 Q217.141 2162.45 215.209 2162.45 Q213.402 2162.45 211.42 2163.21 Q209.438 2163.96 208.359 2165.64 Q211.546 2165.64 211.546 2168.22 Q211.546 2169.35 210.818 2170.11 Q210.116 2170.83 208.937 2170.83 Q207.808 2170.83 207.055 2170.13 Q206.302 2169.4 206.302 2168.17 Q206.302 2165.24 208.911 2163.21 Q211.546 2161.17 215.41 2161.17 Q219.223 2161.17 222.033 2163.18 Q224.868 2165.19 224.868 2168.27 Q224.868 2171.31 222.861 2173.79 Q220.854 2176.28 217.668 2177.31 Q221.582 2178.08 223.915 2180.74 Q226.248 2183.38 226.248 2186.62 Q226.248 2190.63 223.087 2193.59 Q219.926 2196.53 215.309 2196.53 Q211.044 2196.53 207.983 2194.22 Q204.922 2191.91 204.922 2188.47 Z" fill="#808080" fill-rule="evenodd" fill-opacity="1" /><path clip-path="url(#clip040)" d="M 0 0 M258.312 2194.62 Q258.062 2194.92 257.61 2194.92 Q257.183 2194.92 256.882 2194.62 L246.244 2183.98 L235.607 2194.62 Q235.305 2194.92 234.854 2194.92 Q234.427 2194.92 234.151 2194.62 Q233.85 2194.34 233.85 2193.92 Q233.85 2193.49 234.151 2193.19 L244.789 2182.55 L234.151 2171.91 Q233.85 2171.61 233.85 2171.19 Q233.85 2170.73 234.151 2170.48 Q234.427 2170.18 234.854 2170.18 Q235.305 2170.18 235.607 2170.48 L246.244 2181.12 L256.882 2170.48 Q257.183 2170.18 257.61 2170.18 Q258.062 2170.18 258.312 2170.48 Q258.613 2170.73 258.613 2171.19 Q258.613 2171.61 258.312 2171.91 L247.675 2182.55 L258.312 2193.19 Q258.613 2193.49 258.613 2193.94 Q258.613 2194.37 258.312 2194.62 Z" fill="#808080" fill-rule="evenodd" fill-opacity="1" /><path clip-path="url(#clip040)" d="M 0 0 M263.18 2166.07 L263.18 2164.46 Q269.352 2164.46 272.538 2161.17 Q273.416 2161.17 273.567 2161.38 Q273.717 2161.58 273.717 2162.5 L273.717 2191.33 Q273.717 2192.86 274.47 2193.34 Q275.223 2193.82 278.509 2193.82 L280.14 2193.82 L280.14 2195.4 Q278.334 2195.25 271.81 2195.25 Q265.287 2195.25 263.506 2195.4 L263.506 2193.82 L265.137 2193.82 Q268.373 2193.82 269.151 2193.36 Q269.929 2192.89 269.929 2191.33 L269.929 2164.71 Q267.244 2166.07 263.18 2166.07 Z" fill="#808080" fill-rule="evenodd" fill-opacity="1" /><path clip-path="url(#clip040)" d="M 0 0 M282.147 2178.96 Q282.147 2171.41 284.054 2167.3 Q286.714 2161.17 292.986 2161.17 Q294.316 2161.17 295.696 2161.55 Q297.101 2161.9 298.857 2163.28 Q300.638 2164.66 301.717 2166.92 Q303.774 2171.29 303.774 2178.96 Q303.774 2186.46 301.868 2190.55 Q299.083 2196.53 292.936 2196.53 Q290.627 2196.53 288.269 2195.35 Q285.936 2194.17 284.455 2191.33 Q282.147 2187.09 282.147 2178.96 M286.412 2178.34 Q286.412 2186.09 286.964 2189.17 Q287.592 2192.51 289.298 2193.97 Q291.029 2195.4 292.936 2195.4 Q294.993 2195.4 296.699 2193.87 Q298.43 2192.31 298.957 2188.97 Q299.534 2185.69 299.509 2178.34 Q299.509 2171.19 299.007 2168.33 Q298.33 2164.99 296.523 2163.66 Q294.742 2162.3 292.936 2162.3 Q292.258 2162.3 291.531 2162.5 Q290.828 2162.71 289.8 2163.28 Q288.771 2163.86 287.968 2165.29 Q287.19 2166.72 286.814 2168.88 Q286.412 2171.66 286.412 2178.34 Z" fill="#808080" fill-rule="evenodd" fill-opacity="1" /><path clip-path="url(#clip040)" d="M 0 0 M304.276 2194.89 L304.276 2156.08 L342.312 2156.08 L342.312 2194.89 L304.276 2194.89 M307.362 2189.65 L321.563 2175.45 L307.362 2161.33 L307.362 2189.65 M309.169 2191.81 L337.419 2191.81 L323.294 2177.61 L309.169 2191.81 M309.169 2159.17 L323.294 2173.34 L337.419 2159.17 L309.169 2159.17 M325.05 2175.45 L339.226 2189.65 L339.226 2161.33 L325.05 2175.45 Z" fill="#808080" fill-rule="evenodd" fill-opacity="1" /><path clip-path="url(#clip040)" d="M 0 0 M342.813 2194.89 L342.813 2156.08 L380.849 2156.08 L380.849 2194.89 L342.813 2194.89 M345.899 2189.65 L360.1 2175.45 L345.899 2161.33 L345.899 2189.65 M347.706 2191.81 L375.956 2191.81 L361.831 2177.61 L347.706 2191.81 M347.706 2159.17 L361.831 2173.34 L375.956 2159.17 L347.706 2159.17 M363.587 2175.45 L377.763 2189.65 L377.763 2161.33 L363.587 2175.45 Z" fill="#808080" fill-rule="evenodd" fill-opacity="1" /><path clip-path="url(#clip040)" d="M 0 0 M381.351 2194.89 L381.351 2156.08 L419.386 2156.08 L419.386 2194.89 L381.351 2194.89 M384.437 2189.65 L398.637 2175.45 L384.437 2161.33 L384.437 2189.65 M386.243 2191.81 L414.494 2191.81 L400.368 2177.61 L386.243 2191.81 M386.243 2159.17 L400.368 2173.34 L414.494 2159.17 L386.243 2159.17 M402.125 2175.45 L416.3 2189.65 L416.3 2161.33 L402.125 2175.45 Z" fill="#808080" fill-rule="evenodd" fill-opacity="1" /><path clip-path="url(#clip040)" d="M 0 0 M347.796 993.562 L347.796 991.585 Q355.393 991.585 359.314 987.54 Q360.395 987.54 360.58 987.787 Q360.766 988.034 360.766 989.177 L360.766 1024.66 Q360.766 1026.54 361.692 1027.13 Q362.618 1027.71 366.664 1027.71 L368.671 1027.71 L368.671 1029.66 Q366.447 1029.47 358.419 1029.47 Q350.39 1029.47 348.198 1029.66 L348.198 1027.71 L350.205 1027.71 Q354.188 1027.71 355.146 1027.16 Q356.103 1026.57 356.103 1024.66 L356.103 991.894 Q352.799 993.562 347.796 993.562 Z" fill="#808080" fill-rule="evenodd" fill-opacity="1" /><path clip-path="url(#clip040)" d="M 0 0 M371.141 1009.43 Q371.141 1000.14 373.488 995.075 Q376.761 987.54 384.481 987.54 Q386.118 987.54 387.816 988.003 Q389.545 988.436 391.707 990.134 Q393.899 991.832 395.227 994.612 Q397.759 999.985 397.759 1009.43 Q397.759 1018.67 395.412 1023.7 Q391.985 1031.05 384.419 1031.05 Q381.578 1031.05 378.676 1029.6 Q375.804 1028.15 373.982 1024.66 Q371.141 1019.44 371.141 1009.43 M376.391 1008.66 Q376.391 1018.2 377.07 1022 Q377.842 1026.11 379.942 1027.9 Q382.072 1029.66 384.419 1029.66 Q386.951 1029.66 389.051 1027.78 Q391.182 1025.86 391.83 1021.75 Q392.54 1017.71 392.51 1008.66 Q392.51 999.861 391.892 996.341 Q391.058 992.234 388.835 990.597 Q386.642 988.93 384.419 988.93 Q383.585 988.93 382.69 989.177 Q381.825 989.424 380.559 990.134 Q379.293 990.844 378.305 992.604 Q377.348 994.365 376.885 997.02 Q376.391 1000.45 376.391 1008.66 Z" fill="#808080" fill-rule="evenodd" fill-opacity="1" /><path clip-path="url(#clip040)" d="M 0 0 M397.759 978.963 Q397.759 971.411 399.666 967.296 Q402.325 961.175 408.598 961.175 Q409.927 961.175 411.307 961.551 Q412.712 961.902 414.469 963.282 Q416.25 964.662 417.329 966.92 Q419.386 971.286 419.386 978.963 Q419.386 986.465 417.479 990.554 Q414.694 996.526 408.547 996.526 Q406.239 996.526 403.881 995.346 Q401.547 994.167 400.067 991.332 Q397.759 987.092 397.759 978.963 M402.024 978.336 Q402.024 986.088 402.576 989.174 Q403.203 992.511 404.909 993.966 Q406.641 995.397 408.547 995.397 Q410.605 995.397 412.311 993.866 Q414.042 992.311 414.569 988.974 Q415.146 985.687 415.121 978.336 Q415.121 971.185 414.619 968.325 Q413.942 964.988 412.135 963.658 Q410.354 962.304 408.547 962.304 Q407.87 962.304 407.142 962.504 Q406.44 962.705 405.411 963.282 Q404.383 963.859 403.58 965.289 Q402.802 966.719 402.426 968.877 Q402.024 971.662 402.024 978.336 Z" fill="#808080" fill-rule="evenodd" fill-opacity="1" /><path clip-path="url(#clip040)" d="M 0 0 M154.96 -206.438 L154.96 -208.415 Q162.556 -208.415 166.478 -212.46 Q167.558 -212.46 167.744 -212.213 Q167.929 -211.966 167.929 -210.823 L167.929 -175.343 Q167.929 -173.459 168.855 -172.873 Q169.782 -172.286 173.827 -172.286 L175.834 -172.286 L175.834 -170.341 Q173.611 -170.526 165.582 -170.526 Q157.554 -170.526 155.361 -170.341 L155.361 -172.286 L157.368 -172.286 Q161.352 -172.286 162.309 -172.842 Q163.266 -173.428 163.266 -175.343 L163.266 -208.106 Q159.962 -206.438 154.96 -206.438 Z" fill="#808080" fill-rule="evenodd" fill-opacity="1" /><path clip-path="url(#clip040)" d="M 0 0 M178.304 -190.566 Q178.304 -199.861 180.651 -204.925 Q183.924 -212.46 191.644 -212.46 Q193.281 -212.46 194.979 -211.997 Q196.708 -211.564 198.87 -209.866 Q201.062 -208.168 202.39 -205.388 Q204.922 -200.015 204.922 -190.566 Q204.922 -181.333 202.575 -176.3 Q199.148 -168.951 191.582 -168.951 Q188.742 -168.951 185.839 -170.402 Q182.967 -171.854 181.145 -175.343 Q178.304 -180.562 178.304 -190.566 M183.554 -191.338 Q183.554 -181.797 184.233 -177.999 Q185.005 -173.892 187.105 -172.101 Q189.236 -170.341 191.582 -170.341 Q194.115 -170.341 196.214 -172.224 Q198.345 -174.139 198.993 -178.246 Q199.704 -182.291 199.673 -191.338 Q199.673 -200.139 199.055 -203.659 Q198.221 -207.766 195.998 -209.403 Q193.806 -211.07 191.582 -211.07 Q190.749 -211.07 189.853 -210.823 Q188.989 -210.576 187.723 -209.866 Q186.456 -209.156 185.468 -207.396 Q184.511 -205.635 184.048 -202.98 Q183.554 -199.552 183.554 -191.338 Z" fill="#808080" fill-rule="evenodd" fill-opacity="1" /><path clip-path="url(#clip040)" d="M 0 0 M204.922 -211.528 Q204.922 -213.059 205.8 -213.786 Q206.679 -214.514 207.808 -214.514 Q208.987 -214.514 209.815 -213.736 Q210.668 -212.983 210.668 -211.654 Q210.668 -210.224 209.664 -209.421 Q208.686 -208.618 207.281 -208.819 Q208.51 -206.761 210.768 -205.833 Q213.051 -204.905 215.159 -204.905 Q217.367 -204.905 219.148 -206.811 Q220.954 -208.718 220.954 -213.385 Q220.954 -217.349 219.399 -219.632 Q217.868 -221.915 214.833 -221.915 L212.575 -221.915 Q211.797 -221.915 211.571 -221.99 Q211.345 -222.066 211.345 -222.492 Q211.345 -222.994 212.123 -223.094 Q212.901 -223.094 214.13 -223.245 Q217.116 -223.345 218.696 -225.929 Q220.126 -228.338 220.126 -231.775 Q220.126 -234.911 218.621 -236.216 Q217.141 -237.546 215.209 -237.546 Q213.402 -237.546 211.42 -236.793 Q209.438 -236.04 208.359 -234.359 Q211.546 -234.359 211.546 -231.775 Q211.546 -230.646 210.818 -229.894 Q210.116 -229.166 208.937 -229.166 Q207.808 -229.166 207.055 -229.868 Q206.302 -230.596 206.302 -231.825 Q206.302 -234.761 208.911 -236.793 Q211.546 -238.825 215.41 -238.825 Q219.223 -238.825 222.033 -236.818 Q224.868 -234.811 224.868 -231.725 Q224.868 -228.689 222.861 -226.205 Q220.854 -223.722 217.668 -222.693 Q221.582 -221.915 223.915 -219.256 Q226.248 -216.621 226.248 -213.385 Q226.248 -209.37 223.087 -206.41 Q219.926 -203.474 215.309 -203.474 Q211.044 -203.474 207.983 -205.783 Q204.922 -208.091 204.922 -211.528 Z" fill="#808080" fill-rule="evenodd" fill-opacity="1" /><path clip-path="url(#clip040)" d="M 0 0 M258.312 -205.381 Q258.062 -205.08 257.61 -205.08 Q257.183 -205.08 256.882 -205.381 L246.244 -216.019 L235.607 -205.381 Q235.305 -205.08 234.854 -205.08 Q234.427 -205.08 234.151 -205.381 Q233.85 -205.657 233.85 -206.084 Q233.85 -206.51 234.151 -206.811 L244.789 -217.449 L234.151 -228.087 Q233.85 -228.388 233.85 -228.815 Q233.85 -229.266 234.151 -229.517 Q234.427 -229.818 234.854 -229.818 Q235.305 -229.818 235.607 -229.517 L246.244 -218.879 L256.882 -229.517 Q257.183 -229.818 257.61 -229.818 Q258.062 -229.818 258.312 -229.517 Q258.613 -229.266 258.613 -228.815 Q258.613 -228.388 258.312 -228.087 L247.675 -217.449 L258.312 -206.811 Q258.613 -206.51 258.613 -206.059 Q258.613 -205.632 258.312 -205.381 Z" fill="#808080" fill-rule="evenodd" fill-opacity="1" /><path clip-path="url(#clip040)" d="M 0 0 M263.18 -233.933 L263.18 -235.539 Q269.352 -235.539 272.538 -238.825 Q273.416 -238.825 273.567 -238.625 Q273.717 -238.424 273.717 -237.496 L273.717 -208.668 Q273.717 -207.138 274.47 -206.661 Q275.223 -206.184 278.509 -206.184 L280.14 -206.184 L280.14 -204.603 Q278.334 -204.754 271.81 -204.754 Q265.287 -204.754 263.506 -204.603 L263.506 -206.184 L265.137 -206.184 Q268.373 -206.184 269.151 -206.636 Q269.929 -207.112 269.929 -208.668 L269.929 -235.288 Q267.244 -233.933 263.18 -233.933 Z" fill="#808080" fill-rule="evenodd" fill-opacity="1" /><path clip-path="url(#clip040)" d="M 0 0 M282.147 -221.037 Q282.147 -228.589 284.054 -232.704 Q286.714 -238.825 292.986 -238.825 Q294.316 -238.825 295.696 -238.449 Q297.101 -238.098 298.857 -236.718 Q300.638 -235.338 301.717 -233.08 Q303.774 -228.714 303.774 -221.037 Q303.774 -213.535 301.868 -209.446 Q299.083 -203.474 292.936 -203.474 Q290.627 -203.474 288.269 -204.654 Q285.936 -205.833 284.455 -208.668 Q282.147 -212.908 282.147 -221.037 M286.412 -221.664 Q286.412 -213.912 286.964 -210.826 Q287.592 -207.489 289.298 -206.034 Q291.029 -204.603 292.936 -204.603 Q294.993 -204.603 296.699 -206.134 Q298.43 -207.689 298.957 -211.026 Q299.534 -214.313 299.509 -221.664 Q299.509 -228.815 299.007 -231.675 Q298.33 -235.012 296.523 -236.342 Q294.742 -237.696 292.936 -237.696 Q292.258 -237.696 291.531 -237.496 Q290.828 -237.295 289.8 -236.718 Q288.771 -236.141 287.968 -234.711 Q287.19 -233.281 286.814 -231.123 Q286.412 -228.338 286.412 -221.664 Z" fill="#808080" fill-rule="evenodd" fill-opacity="1" /><path clip-path="url(#clip040)" d="M 0 0 M304.276 -205.105 L304.276 -243.919 L342.312 -243.919 L342.312 -205.105 L304.276 -205.105 M307.362 -210.349 L321.563 -224.55 L307.362 -238.675 L307.362 -210.349 M309.169 -208.191 L337.419 -208.191 L323.294 -222.392 L309.169 -208.191 M309.169 -240.833 L323.294 -226.657 L337.419 -240.833 L309.169 -240.833 M325.05 -224.55 L339.226 -210.349 L339.226 -238.675 L325.05 -224.55 Z" fill="#808080" fill-rule="evenodd" fill-opacity="1" /><path clip-path="url(#clip040)" d="M 0 0 M342.813 -205.105 L342.813 -243.919 L380.849 -243.919 L380.849 -205.105 L342.813 -205.105 M345.899 -210.349 L360.1 -224.55 L345.899 -238.675 L345.899 -210.349 M347.706 -208.191 L375.956 -208.191 L361.831 -222.392 L347.706 -208.191 M347.706 -240.833 L361.831 -226.657 L375.956 -240.833 L347.706 -240.833 M363.587 -224.55 L377.763 -210.349 L377.763 -238.675 L363.587 -224.55 Z" fill="#808080" fill-rule="evenodd" fill-opacity="1" /><path clip-path="url(#clip040)" d="M 0 0 M381.351 -205.105 L381.351 -243.919 L419.386 -243.919 L419.386 -205.105 L381.351 -205.105 M384.437 -210.349 L398.637 -224.55 L384.437 -238.675 L384.437 -210.349 M386.243 -208.191 L414.494 -208.191 L400.368 -222.392 L386.243 -208.191 M386.243 -240.833 L400.368 -226.657 L414.494 -240.833 L386.243 -240.833 M402.125 -224.55 L416.3 -210.349 L416.3 -238.675 L402.125 -224.55 Z" fill="#808080" fill-rule="evenodd" fill-opacity="1" /><path clip-path="url(#clip040)" d="M 0 0 M154.96 -1706.44 L154.96 -1708.41 Q162.556 -1708.41 166.478 -1712.46 Q167.558 -1712.46 167.744 -1712.21 Q167.929 -1711.97 167.929 -1710.82 L167.929 -1675.34 Q167.929 -1673.46 168.855 -1672.87 Q169.782 -1672.29 173.827 -1672.29 L175.834 -1672.29 L175.834 -1670.34 Q173.611 -1670.53 165.582 -1670.53 Q157.554 -1670.53 155.361 -1670.34 L155.361 -1672.29 L157.368 -1672.29 Q161.352 -1672.29 162.309 -1672.84 Q163.266 -1673.43 163.266 -1675.34 L163.266 -1708.11 Q159.962 -1706.44 154.96 -1706.44 Z" fill="#808080" fill-rule="evenodd" fill-opacity="1" /><path clip-path="url(#clip040)" d="M 0 0 M178.304 -1690.57 Q178.304 -1699.86 180.651 -1704.93 Q183.924 -1712.46 191.644 -1712.46 Q193.281 -1712.46 194.979 -1712 Q196.708 -1711.56 198.87 -1709.87 Q201.062 -1708.17 202.39 -1705.39 Q204.922 -1700.02 204.922 -1690.57 Q204.922 -1681.33 202.575 -1676.3 Q199.148 -1668.95 191.582 -1668.95 Q188.742 -1668.95 185.839 -1670.4 Q182.967 -1671.85 181.145 -1675.34 Q178.304 -1680.56 178.304 -1690.57 M183.554 -1691.34 Q183.554 -1681.8 184.233 -1678 Q185.005 -1673.89 187.105 -1672.1 Q189.236 -1670.34 191.582 -1670.34 Q194.115 -1670.34 196.214 -1672.22 Q198.345 -1674.14 198.993 -1678.25 Q199.704 -1682.29 199.673 -1691.34 Q199.673 -1700.14 199.055 -1703.66 Q198.221 -1707.77 195.998 -1709.4 Q193.806 -1711.07 191.582 -1711.07 Q190.749 -1711.07 189.853 -1710.82 Q188.989 -1710.58 187.723 -1709.87 Q186.456 -1709.16 185.468 -1707.4 Q184.511 -1705.64 184.048 -1702.98 Q183.554 -1699.55 183.554 -1691.34 Z" fill="#808080" fill-rule="evenodd" fill-opacity="1" /><path clip-path="url(#clip040)" d="M 0 0 M204.922 -1720.84 Q204.922 -1728.92 209.037 -1733.86 Q213.152 -1738.83 218.445 -1738.83 Q221.531 -1738.83 223.237 -1737.24 Q224.969 -1735.69 224.969 -1733.28 Q224.969 -1731.95 224.191 -1731.37 Q223.413 -1730.8 222.61 -1730.8 Q221.682 -1730.8 220.954 -1731.42 Q220.227 -1732.05 220.227 -1733.18 Q220.227 -1735.49 223.062 -1735.49 Q221.732 -1737.55 218.546 -1737.55 Q217.567 -1737.55 216.564 -1737.24 Q215.56 -1736.97 214.255 -1736.02 Q212.951 -1735.06 211.947 -1733.56 Q210.944 -1732.05 210.241 -1729.22 Q209.539 -1726.38 209.539 -1722.69 L209.539 -1721.46 Q211.646 -1726.56 215.962 -1726.53 Q220.277 -1726.53 223.263 -1723.24 Q226.248 -1719.96 226.248 -1715.09 Q226.248 -1710.1 223.137 -1706.79 Q220.026 -1703.47 215.661 -1703.47 Q213.704 -1703.47 211.922 -1704.3 Q210.166 -1705.11 208.51 -1706.96 Q206.879 -1708.82 205.901 -1712.38 Q204.922 -1715.94 204.922 -1720.84 M209.639 -1716.22 Q209.639 -1711.18 210.567 -1708.77 Q210.718 -1708.37 211.044 -1707.81 Q211.395 -1707.26 211.972 -1706.54 Q212.575 -1705.83 213.553 -1705.36 Q214.531 -1704.9 215.661 -1704.9 Q219.098 -1704.9 220.754 -1708.24 Q221.632 -1710.1 221.632 -1715.14 Q221.632 -1720.28 220.703 -1722.17 Q219.123 -1725.35 215.911 -1725.35 Q213.754 -1725.35 212.248 -1723.87 Q210.768 -1722.39 210.191 -1720.41 Q209.639 -1718.43 209.639 -1716.22 Z" fill="#808080" fill-rule="evenodd" fill-opacity="1" /><path clip-path="url(#clip040)" d="M 0 0 M258.312 -1705.38 Q258.062 -1705.08 257.61 -1705.08 Q257.183 -1705.08 256.882 -1705.38 L246.244 -1716.02 L235.607 -1705.38 Q235.305 -1705.08 234.854 -1705.08 Q234.427 -1705.08 234.151 -1705.38 Q233.85 -1705.66 233.85 -1706.08 Q233.85 -1706.51 234.151 -1706.81 L244.789 -1717.45 L234.151 -1728.09 Q233.85 -1728.39 233.85 -1728.81 Q233.85 -1729.27 234.151 -1729.52 Q234.427 -1729.82 234.854 -1729.82 Q235.305 -1729.82 235.607 -1729.52 L246.244 -1718.88 L256.882 -1729.52 Q257.183 -1729.82 257.61 -1729.82 Q258.062 -1729.82 258.312 -1729.52 Q258.613 -1729.27 258.613 -1728.81 Q258.613 -1728.39 258.312 -1728.09 L247.675 -1717.45 L258.312 -1706.81 Q258.613 -1706.51 258.613 -1706.06 Q258.613 -1705.63 258.312 -1705.38 Z" fill="#808080" fill-rule="evenodd" fill-opacity="1" /><path clip-path="url(#clip040)" d="M 0 0 M263.18 -1733.93 L263.18 -1735.54 Q269.352 -1735.54 272.538 -1738.83 Q273.416 -1738.83 273.567 -1738.62 Q273.717 -1738.42 273.717 -1737.5 L273.717 -1708.67 Q273.717 -1707.14 274.47 -1706.66 Q275.223 -1706.18 278.509 -1706.18 L280.14 -1706.18 L280.14 -1704.6 Q278.334 -1704.75 271.81 -1704.75 Q265.287 -1704.75 263.506 -1704.6 L263.506 -1706.18 L265.137 -1706.18 Q268.373 -1706.18 269.151 -1706.64 Q269.929 -1707.11 269.929 -1708.67 L269.929 -1735.29 Q267.244 -1733.93 263.18 -1733.93 Z" fill="#808080" fill-rule="evenodd" fill-opacity="1" /><path clip-path="url(#clip040)" d="M 0 0 M282.147 -1721.04 Q282.147 -1728.59 284.054 -1732.7 Q286.714 -1738.83 292.986 -1738.83 Q294.316 -1738.83 295.696 -1738.45 Q297.101 -1738.1 298.857 -1736.72 Q300.638 -1735.34 301.717 -1733.08 Q303.774 -1728.71 303.774 -1721.04 Q303.774 -1713.54 301.868 -1709.45 Q299.083 -1703.47 292.936 -1703.47 Q290.627 -1703.47 288.269 -1704.65 Q285.936 -1705.83 284.455 -1708.67 Q282.147 -1712.91 282.147 -1721.04 M286.412 -1721.66 Q286.412 -1713.91 286.964 -1710.83 Q287.592 -1707.49 289.298 -1706.03 Q291.029 -1704.6 292.936 -1704.6 Q294.993 -1704.6 296.699 -1706.13 Q298.43 -1707.69 298.957 -1711.03 Q299.534 -1714.31 299.509 -1721.66 Q299.509 -1728.81 299.007 -1731.67 Q298.33 -1735.01 296.523 -1736.34 Q294.742 -1737.7 292.936 -1737.7 Q292.258 -1737.7 291.531 -1737.5 Q290.828 -1737.29 289.8 -1736.72 Q288.771 -1736.14 287.968 -1734.71 Q287.19 -1733.28 286.814 -1731.12 Q286.412 -1728.34 286.412 -1721.66 Z" fill="#808080" fill-rule="evenodd" fill-opacity="1" /><path clip-path="url(#clip040)" d="M 0 0 M304.276 -1705.11 L304.276 -1743.92 L342.312 -1743.92 L342.312 -1705.11 L304.276 -1705.11 M307.362 -1710.35 L321.563 -1724.55 L307.362 -1738.67 L307.362 -1710.35 M309.169 -1708.19 L337.419 -1708.19 L323.294 -1722.39 L309.169 -1708.19 M309.169 -1740.83 L323.294 -1726.66 L337.419 -1740.83 L309.169 -1740.83 M325.05 -1724.55 L339.226 -1710.35 L339.226 -1738.67 L325.05 -1724.55 Z" fill="#808080" fill-rule="evenodd" fill-opacity="1" /><path clip-path="url(#clip040)" d="M 0 0 M342.813 -1705.11 L342.813 -1743.92 L380.849 -1743.92 L380.849 -1705.11 L342.813 -1705.11 M345.899 -1710.35 L360.1 -1724.55 L345.899 -1738.67 L345.899 -1710.35 M347.706 -1708.19 L375.956 -1708.19 L361.831 -1722.39 L347.706 -1708.19 M347.706 -1740.83 L361.831 -1726.66 L375.956 -1740.83 L347.706 -1740.83 M363.587 -1724.55 L377.763 -1710.35 L377.763 -1738.67 L363.587 -1724.55 Z" fill="#808080" fill-rule="evenodd" fill-opacity="1" /><path clip-path="url(#clip040)" d="M 0 0 M381.351 -1705.11 L381.351 -1743.92 L419.386 -1743.92 L419.386 -1705.11 L381.351 -1705.11 M384.437 -1710.35 L398.637 -1724.55 L384.437 -1738.67 L384.437 -1710.35 M386.243 -1708.19 L414.494 -1708.19 L400.368 -1722.39 L386.243 -1708.19 M386.243 -1740.83 L400.368 -1726.66 L414.494 -1740.83 L386.243 -1740.83 M402.125 -1724.55 L416.3 -1710.35 L416.3 -1738.67 L402.125 -1724.55 Z" fill="#808080" fill-rule="evenodd" fill-opacity="1" /><path clip-path="url(#clip040)" d="M 0 0 M154.96 -2906.44 L154.96 -2908.41 Q162.556 -2908.41 166.478 -2912.46 Q167.558 -2912.46 167.744 -2912.21 Q167.929 -2911.97 167.929 -2910.82 L167.929 -2875.34 Q167.929 -2873.46 168.855 -2872.87 Q169.782 -2872.29 173.827 -2872.29 L175.834 -2872.29 L175.834 -2870.34 Q173.611 -2870.53 165.582 -2870.53 Q157.554 -2870.53 155.361 -2870.34 L155.361 -2872.29 L157.368 -2872.29 Q161.352 -2872.29 162.309 -2872.84 Q163.266 -2873.43 163.266 -2875.34 L163.266 -2908.11 Q159.962 -2906.44 154.96 -2906.44 Z" fill="#808080" fill-rule="evenodd" fill-opacity="1" /><path clip-path="url(#clip040)" d="M 0 0 M178.304 -2890.57 Q178.304 -2899.86 180.651 -2904.93 Q183.924 -2912.46 191.644 -2912.46 Q193.281 -2912.46 194.979 -2912 Q196.708 -2911.56 198.87 -2909.87 Q201.062 -2908.17 202.39 -2905.39 Q204.922 -2900.02 204.922 -2890.57 Q204.922 -2881.33 202.575 -2876.3 Q199.148 -2868.95 191.582 -2868.95 Q188.742 -2868.95 185.839 -2870.4 Q182.967 -2871.85 181.145 -2875.34 Q178.304 -2880.56 178.304 -2890.57 M183.554 -2891.34 Q183.554 -2881.8 184.233 -2878 Q185.005 -2873.89 187.105 -2872.1 Q189.236 -2870.34 191.582 -2870.34 Q194.115 -2870.34 196.214 -2872.22 Q198.345 -2874.14 198.993 -2878.25 Q199.704 -2882.29 199.673 -2891.34 Q199.673 -2900.14 199.055 -2903.66 Q198.221 -2907.77 195.998 -2909.4 Q193.806 -2911.07 191.582 -2911.07 Q190.749 -2911.07 189.853 -2910.82 Q188.989 -2910.58 187.723 -2909.87 Q186.456 -2909.16 185.468 -2907.4 Q184.511 -2905.64 184.048 -2902.98 Q183.554 -2899.55 183.554 -2891.34 Z" fill="#808080" fill-rule="evenodd" fill-opacity="1" /><path clip-path="url(#clip040)" d="M 0 0 M204.922 -2927.26 Q204.922 -2929.99 205.725 -2931.85 Q206.528 -2933.73 208.209 -2935.59 Q211.295 -2938.83 215.761 -2938.83 Q217.668 -2938.83 219.349 -2938.02 Q221.055 -2937.22 222.66 -2935.39 Q224.291 -2933.58 225.27 -2929.99 Q226.248 -2926.43 226.248 -2921.51 Q226.248 -2913.56 222.384 -2908.52 Q218.546 -2903.47 213.352 -2903.47 Q210.066 -2903.47 208.134 -2904.95 Q206.202 -2906.46 206.202 -2909.02 Q206.202 -2910.35 206.954 -2910.9 Q207.707 -2911.48 208.56 -2911.48 Q209.489 -2911.48 210.216 -2910.85 Q210.944 -2910.25 210.944 -2909.12 Q210.944 -2908.19 210.342 -2907.46 Q209.765 -2906.76 208.259 -2906.76 Q209.739 -2904.9 213.302 -2904.9 Q214.582 -2904.9 215.861 -2905.48 Q217.141 -2906.08 218.521 -2907.51 Q219.926 -2908.97 220.779 -2912 Q221.632 -2915.04 221.632 -2919.31 L221.632 -2920.94 Q219.574 -2915.79 215.209 -2915.79 Q210.894 -2915.79 207.908 -2919.11 Q204.922 -2922.42 204.922 -2927.26 M209.539 -2927.21 Q209.539 -2922.12 210.467 -2920.23 Q212.048 -2917 215.259 -2917 Q218.395 -2917 219.951 -2919.78 Q221.531 -2922.59 221.531 -2926.23 Q221.531 -2931.27 220.703 -2933.48 Q219.173 -2937.55 215.761 -2937.55 Q212.374 -2937.55 210.618 -2934.31 Q209.539 -2932.4 209.539 -2927.21 Z" fill="#808080" fill-rule="evenodd" fill-opacity="1" /><path clip-path="url(#clip040)" d="M 0 0 M258.312 -2905.38 Q258.062 -2905.08 257.61 -2905.08 Q257.183 -2905.08 256.882 -2905.38 L246.244 -2916.02 L235.607 -2905.38 Q235.305 -2905.08 234.854 -2905.08 Q234.427 -2905.08 234.151 -2905.38 Q233.85 -2905.66 233.85 -2906.08 Q233.85 -2906.51 234.151 -2906.81 L244.789 -2917.45 L234.151 -2928.09 Q233.85 -2928.39 233.85 -2928.81 Q233.85 -2929.27 234.151 -2929.52 Q234.427 -2929.82 234.854 -2929.82 Q235.305 -2929.82 235.607 -2929.52 L246.244 -2918.88 L256.882 -2929.52 Q257.183 -2929.82 257.61 -2929.82 Q258.062 -2929.82 258.312 -2929.52 Q258.613 -2929.27 258.613 -2928.81 Q258.613 -2928.39 258.312 -2928.09 L247.675 -2917.45 L258.312 -2906.81 Q258.613 -2906.51 258.613 -2906.06 Q258.613 -2905.63 258.312 -2905.38 Z" fill="#808080" fill-rule="evenodd" fill-opacity="1" /><path clip-path="url(#clip040)" d="M 0 0 M263.18 -2933.93 L263.18 -2935.54 Q269.352 -2935.54 272.538 -2938.83 Q273.416 -2938.83 273.567 -2938.62 Q273.717 -2938.42 273.717 -2937.5 L273.717 -2908.67 Q273.717 -2907.14 274.47 -2906.66 Q275.223 -2906.18 278.509 -2906.18 L280.14 -2906.18 L280.14 -2904.6 Q278.334 -2904.75 271.81 -2904.75 Q265.287 -2904.75 263.506 -2904.6 L263.506 -2906.18 L265.137 -2906.18 Q268.373 -2906.18 269.151 -2906.64 Q269.929 -2907.11 269.929 -2908.67 L269.929 -2935.29 Q267.244 -2933.93 263.18 -2933.93 Z" fill="#808080" fill-rule="evenodd" fill-opacity="1" /><path clip-path="url(#clip040)" d="M 0 0 M282.147 -2921.04 Q282.147 -2928.59 284.054 -2932.7 Q286.714 -2938.83 292.986 -2938.83 Q294.316 -2938.83 295.696 -2938.45 Q297.101 -2938.1 298.857 -2936.72 Q300.638 -2935.34 301.717 -2933.08 Q303.774 -2928.71 303.774 -2921.04 Q303.774 -2913.54 301.868 -2909.45 Q299.083 -2903.47 292.936 -2903.47 Q290.627 -2903.47 288.269 -2904.65 Q285.936 -2905.83 284.455 -2908.67 Q282.147 -2912.91 282.147 -2921.04 M286.412 -2921.66 Q286.412 -2913.91 286.964 -2910.83 Q287.592 -2907.49 289.298 -2906.03 Q291.029 -2904.6 292.936 -2904.6 Q294.993 -2904.6 296.699 -2906.13 Q298.43 -2907.69 298.957 -2911.03 Q299.534 -2914.31 299.509 -2921.66 Q299.509 -2928.81 299.007 -2931.67 Q298.33 -2935.01 296.523 -2936.34 Q294.742 -2937.7 292.936 -2937.7 Q292.258 -2937.7 291.531 -2937.5 Q290.828 -2937.29 289.8 -2936.72 Q288.771 -2936.14 287.968 -2934.71 Q287.19 -2933.28 286.814 -2931.12 Q286.412 -2928.34 286.412 -2921.66 Z" fill="#808080" fill-rule="evenodd" fill-opacity="1" /><path clip-path="url(#clip040)" d="M 0 0 M304.276 -2905.11 L304.276 -2943.92 L342.312 -2943.92 L342.312 -2905.11 L304.276 -2905.11 M307.362 -2910.35 L321.563 -2924.55 L307.362 -2938.67 L307.362 -2910.35 M309.169 -2908.19 L337.419 -2908.19 L323.294 -2922.39 L309.169 -2908.19 M309.169 -2940.83 L323.294 -2926.66 L337.419 -2940.83 L309.169 -2940.83 M325.05 -2924.55 L339.226 -2910.35 L339.226 -2938.67 L325.05 -2924.55 Z" fill="#808080" fill-rule="evenodd" fill-opacity="1" /><path clip-path="url(#clip040)" d="M 0 0 M342.813 -2905.11 L342.813 -2943.92 L380.849 -2943.92 L380.849 -2905.11 L342.813 -2905.11 M345.899 -2910.35 L360.1 -2924.55 L345.899 -2938.67 L345.899 -2910.35 M347.706 -2908.19 L375.956 -2908.19 L361.831 -2922.39 L347.706 -2908.19 M347.706 -2940.83 L361.831 -2926.66 L375.956 -2940.83 L347.706 -2940.83 M363.587 -2924.55 L377.763 -2910.35 L377.763 -2938.67 L363.587 -2924.55 Z" fill="#808080" fill-rule="evenodd" fill-opacity="1" /><path clip-path="url(#clip040)" d="M 0 0 M381.351 -2905.11 L381.351 -2943.92 L419.386 -2943.92 L419.386 -2905.11 L381.351 -2905.11 M384.437 -2910.35 L398.637 -2924.55 L384.437 -2938.67 L384.437 -2910.35 M386.243 -2908.19 L414.494 -2908.19 L400.368 -2922.39 L386.243 -2908.19 M386.243 -2940.83 L400.368 -2926.66 L414.494 -2940.83 L386.243 -2940.83 M402.125 -2924.55 L416.3 -2910.35 L416.3 -2938.67 L402.125 -2924.55 Z" fill="#808080" fill-rule="evenodd" fill-opacity="1" /><path clip-path="url(#clip040)" d="M 0 0 M32.7152 914.652 L15.6699 913.207 L15.6699 866.851 L32.7152 865.406 L32.7152 867.296 Q29.3061 867.592 27.3422 867.889 Q25.3783 868.148 23.5255 868.815 Q21.6357 869.445 20.7464 870.26 Q19.82 871.039 19.116 872.558 Q18.3749 874.077 18.1896 876.041 Q18.0043 878.005 18.0043 880.969 Q18.0043 884.453 18.1526 885.305 Q18.3749 886.231 19.0419 886.453 Q19.6718 886.676 21.0429 886.676 L61.0252 886.676 Q62.5445 886.676 63.1744 886.379 Q63.7673 886.046 64.249 884.304 Q64.6937 882.563 64.6937 878.709 L64.6937 875.67 L67.0282 875.67 Q66.8058 878.783 66.8058 890.085 Q66.8058 901.313 67.0282 904.425 L64.6937 904.425 L64.6937 901.387 Q64.6937 897.533 64.249 895.791 Q63.7673 894.013 63.1744 893.716 Q62.5445 893.42 61.0252 893.42 L21.0429 893.42 Q19.9683 893.42 19.5236 893.494 Q19.0789 893.568 18.7084 893.902 Q18.3008 894.235 18.1526 895.013 Q18.0043 895.754 18.0043 899.089 Q18.0043 902.054 18.1896 904.055 Q18.3749 906.019 19.116 907.538 Q19.82 909.057 20.7464 909.872 Q21.6357 910.65 23.5255 911.317 Q25.3783 911.947 27.3422 912.207 Q29.3061 912.466 32.7152 912.763 L32.7152 914.652 Z" fill="#000000" fill-rule="evenodd" fill-opacity="1" /><path clip-path="url(#clip040)" d="M 0 0 M42.7571 862.442 Q31.6035 862.442 25.5265 859.626 Q16.4851 855.698 16.4851 846.434 Q16.4851 844.47 17.0409 842.432 Q17.5597 840.357 19.5977 837.763 Q21.6357 835.132 24.9707 833.539 Q31.4183 830.5 42.7571 830.5 Q53.8366 830.5 59.8765 833.317 Q68.6956 837.43 68.6956 846.508 Q68.6956 849.917 66.954 853.4 Q65.2125 856.846 61.0252 859.033 Q54.7629 862.442 42.7571 862.442 M41.8307 856.142 Q53.2807 856.142 57.8385 855.327 Q62.7668 854.401 64.916 851.881 Q67.0282 849.324 67.0282 846.508 Q67.0282 843.47 64.7678 840.95 Q62.4704 838.393 57.5421 837.615 Q52.6879 836.763 41.8307 836.8 Q31.27 836.8 27.0458 837.541 Q22.1174 838.541 20.1535 841.209 Q18.1526 843.84 18.1526 846.508 Q18.1526 847.509 18.449 848.583 Q18.7454 849.621 19.5977 851.14 Q20.45 852.659 22.5621 853.845 Q24.6742 854.994 27.861 855.55 Q31.9741 856.142 41.8307 856.142 Z" fill="#000000" fill-rule="evenodd" fill-opacity="1" /><path clip-path="url(#clip040)" d="M 0 0 M67.0282 826.721 Q65.6571 826.721 65.2495 826.61 Q64.8419 826.461 64.212 825.868 L47.9819 811.306 Q39.0145 803.339 31.1959 803.339 Q26.1194 803.339 22.488 806.007 Q18.8566 808.638 18.8566 813.492 Q18.8566 816.827 20.8946 819.643 Q22.9327 822.459 26.5641 823.756 Q26.4899 823.534 26.4899 822.756 Q26.4899 820.866 27.6757 819.829 Q28.8615 818.754 30.4548 818.754 Q32.4929 818.754 33.4933 820.088 Q34.4568 821.385 34.4568 822.682 Q34.4568 823.201 34.3456 823.905 Q34.2344 824.572 33.1969 825.646 Q32.1223 826.721 30.2325 826.721 Q24.9336 826.721 20.7094 822.719 Q16.4851 818.68 16.4851 812.529 Q16.4851 805.562 20.6352 801.005 Q24.7484 796.41 31.1959 796.41 Q33.4563 796.41 35.5314 797.114 Q37.5694 797.781 39.1628 798.707 Q40.7561 799.596 43.3129 802.042 Q45.8697 804.488 47.6854 806.452 Q49.5011 808.416 53.3548 812.825 L61.1735 820.866 L61.1735 807.193 Q61.1735 800.523 60.5806 800.004 Q59.506 799.263 53.8366 798.337 L53.8366 796.41 L67.0282 798.559 L67.0282 826.721 Z" fill="#000000" fill-rule="evenodd" fill-opacity="1" /><path clip-path="url(#clip040)" d="M 0 0 M17.5597 794.298 L15.1882 794.298 L14.3729 783.366 L38.4217 783.366 Q33.4933 778.957 33.4933 772.954 Q33.4933 766.432 38.4958 761.652 Q43.4982 756.872 50.6498 756.872 Q57.8756 756.872 62.878 761.874 Q67.8804 766.877 67.8804 773.806 Q67.8804 780.106 62.3222 783.737 Q66.954 786.405 67.0282 786.479 L67.0282 788.369 L21.784 788.369 Q18.9678 788.369 18.2637 789.369 Q17.5597 790.37 17.5597 794.298 M58.3943 783.144 Q59.9877 783.144 61.5811 782.069 Q66.1759 779.068 66.1759 774.177 Q66.1759 774.14 66.1759 774.103 Q66.1759 768.804 61.3217 765.506 Q57.6903 763.171 50.5757 763.171 Q43.5353 763.171 40.015 765.358 Q35.1608 768.396 35.1608 773.324 Q35.1608 778.883 40.015 782.292 Q41.2379 783.144 42.7571 783.144 L58.3943 783.144 Z" fill="#000000" fill-rule="evenodd" fill-opacity="1" /><path clip-path="url(#clip040)" d="M 0 0 M76.4401 757.539 Q74.8468 757.539 73.9945 756.613 Q73.1793 755.649 73.1793 754.352 Q73.1793 752.981 74.0316 752.092 Q74.9209 751.166 76.366 751.166 Q79.1822 751.166 79.5528 754.13 Q80.9238 752.685 80.9238 750.573 Q80.9238 748.312 79.2563 746.497 Q77.5888 744.644 75.9955 743.866 Q74.4021 743.05 71.5118 741.902 Q69.2515 740.827 67.0282 740.012 L39.311 751.388 Q37.4953 752.129 37.0877 753.278 Q36.6801 754.426 36.6801 757.539 L34.3086 757.539 Q34.5309 754.13 34.5309 750.165 Q34.5309 747.831 34.3086 741.902 L36.6801 741.902 Q36.6801 746.163 38.644 746.163 Q38.8663 746.163 40.015 745.718 L60.4324 737.27 L41.7566 729.599 Q40.682 729.155 39.9409 729.155 Q36.8283 729.155 36.6801 732.712 L34.3086 732.712 Q34.5309 727.71 34.5309 726.116 Q34.5309 723.004 34.3086 720.447 L36.6801 720.447 Q36.6801 725.523 41.5343 727.487 L73.9204 740.864 Q82.5542 744.496 82.5913 750.573 Q82.5913 753.463 80.8126 755.501 Q79.034 757.539 76.4401 757.539 Z" fill="#000000" fill-rule="evenodd" fill-opacity="1" /><path clip-path="url(#clip040)" d="M 0 0 M32.7152 717.705 L15.6699 716.26 L15.6699 669.904 L32.7152 668.459 L32.7152 670.348 Q29.3061 670.645 27.3422 670.941 Q25.3783 671.201 23.5255 671.868 Q21.6357 672.498 20.7464 673.313 Q19.82 674.091 19.116 675.61 Q18.3749 677.13 18.1896 679.093 Q18.0043 681.057 18.0043 684.022 Q18.0043 687.505 18.1526 688.357 Q18.3749 689.284 19.0419 689.506 Q19.6718 689.728 21.0429 689.728 L61.0252 689.728 Q62.5445 689.728 63.1744 689.432 Q63.7673 689.098 64.249 687.357 Q64.6937 685.615 64.6937 681.761 L64.6937 678.723 L67.0282 678.723 Q66.8058 681.836 66.8058 693.137 Q66.8058 704.365 67.0282 707.478 L64.6937 707.478 L64.6937 704.439 Q64.6937 700.585 64.249 698.844 Q63.7673 697.065 63.1744 696.769 Q62.5445 696.472 61.0252 696.472 L21.0429 696.472 Q19.9683 696.472 19.5236 696.546 Q19.0789 696.621 18.7084 696.954 Q18.3008 697.287 18.1526 698.066 Q18.0043 698.807 18.0043 702.142 Q18.0043 705.106 18.1896 707.107 Q18.3749 709.071 19.116 710.59 Q19.82 712.11 20.7464 712.925 Q21.6357 713.703 23.5255 714.37 Q25.3783 715 27.3422 715.259 Q29.3061 715.519 32.7152 715.815 L32.7152 717.705 Z" fill="#000000" fill-rule="evenodd" fill-opacity="1" /><path clip-path="url(#clip040)" d="M 0 0 M42.7571 665.494 Q31.6035 665.494 25.5265 662.678 Q16.4851 658.75 16.4851 649.486 Q16.4851 647.523 17.0409 645.485 Q17.5597 643.409 19.5977 640.816 Q21.6357 638.185 24.9707 636.591 Q31.4183 633.553 42.7571 633.553 Q53.8366 633.553 59.8765 636.369 Q68.6956 640.482 68.6956 649.561 Q68.6956 652.97 66.954 656.453 Q65.2125 659.899 61.0252 662.085 Q54.7629 665.494 42.7571 665.494 M41.8307 659.195 Q53.2807 659.195 57.8385 658.38 Q62.7668 657.453 64.916 654.934 Q67.0282 652.377 67.0282 649.561 Q67.0282 646.522 64.7678 644.002 Q62.4704 641.446 57.5421 640.667 Q52.6879 639.815 41.8307 639.852 Q31.27 639.852 27.0458 640.593 Q22.1174 641.594 20.1535 644.262 Q18.1526 646.893 18.1526 649.561 Q18.1526 650.561 18.449 651.636 Q18.7454 652.673 19.5977 654.192 Q20.45 655.712 22.5621 656.898 Q24.6742 658.046 27.861 658.602 Q31.9741 659.195 41.8307 659.195 Z" fill="#000000" fill-rule="evenodd" fill-opacity="1" /><path clip-path="url(#clip040)" d="M 0 0 M23.7108 626.809 L21.3393 626.809 Q21.3393 617.693 16.4851 612.987 Q16.4851 611.69 16.7815 611.468 Q17.078 611.246 18.449 611.246 L61.0252 611.246 Q63.2856 611.246 63.9896 610.134 Q64.6937 609.022 64.6937 604.168 L64.6937 601.76 L67.0282 601.76 Q66.8058 604.428 66.8058 614.062 Q66.8058 623.696 67.0282 626.327 L64.6937 626.327 L64.6937 623.919 Q64.6937 619.138 64.0267 617.99 Q63.3227 616.841 61.0252 616.841 L21.7098 616.841 Q23.7108 620.806 23.7108 626.809 Z" fill="#000000" fill-rule="evenodd" fill-opacity="1" /><path clip-path="url(#clip040)" d="M 0 0 M1032.79 23.2459 L1034 9.04143 L1072.63 9.04143 L1073.83 23.2459 L1072.26 23.2459 Q1072.01 20.405 1071.76 18.7684 Q1071.55 17.1318 1070.99 15.5878 Q1070.47 14.013 1069.79 13.2719 Q1069.14 12.4999 1067.87 11.9132 Q1066.61 11.2956 1064.97 11.1412 Q1063.33 10.9868 1060.86 10.9868 Q1057.96 10.9868 1057.25 11.1103 Q1056.48 11.2956 1056.29 11.8514 Q1056.11 12.3764 1056.11 13.5189 L1056.11 46.8376 Q1056.11 48.1036 1056.36 48.6286 Q1056.63 49.1226 1058.08 49.5241 Q1059.54 49.8946 1062.75 49.8946 L1065.28 49.8946 L1065.28 51.84 Q1062.69 51.6547 1053.27 51.6547 Q1043.91 51.6547 1041.32 51.84 L1041.32 49.8946 L1043.85 49.8946 Q1047.06 49.8946 1048.51 49.5241 Q1049.99 49.1226 1050.24 48.6286 Q1050.49 48.1036 1050.49 46.8376 L1050.49 13.5189 Q1050.49 12.6234 1050.43 12.2529 Q1050.37 11.8823 1050.09 11.5735 Q1049.81 11.2339 1049.16 11.1103 Q1048.54 10.9868 1045.76 10.9868 Q1043.29 10.9868 1041.63 11.1412 Q1039.99 11.2956 1038.72 11.9132 Q1037.46 12.4999 1036.78 13.2719 Q1036.13 14.013 1035.57 15.5878 Q1035.05 17.1318 1034.83 18.7684 Q1034.62 20.405 1034.37 23.2459 L1032.79 23.2459 Z" fill="#000000" fill-rule="evenodd" fill-opacity="1" /><path clip-path="url(#clip040)" d="M 0 0 M1074.51 48.4433 Q1070.34 44.3055 1070.34 38.3149 Q1070.34 32.2935 1074.42 27.9086 Q1078.53 23.4929 1084.39 23.4929 Q1090.14 23.4929 1094.24 27.8777 Q1098.38 32.2317 1098.38 38.3149 Q1098.38 44.2746 1094.21 48.4124 Q1090.08 52.5502 1084.33 52.5502 Q1078.71 52.5502 1074.51 48.4433 M1075.59 37.79 Q1075.59 43.9349 1077.2 46.7141 Q1079.67 50.9445 1084.39 50.9445 Q1086.74 50.9445 1088.69 49.6785 Q1090.66 48.4124 1091.74 46.2817 Q1093.13 43.5026 1093.13 37.79 Q1093.13 31.7068 1091.47 29.0203 Q1089 24.9133 1084.33 24.9133 Q1082.29 24.9133 1080.29 25.9941 Q1078.31 27.044 1077.11 29.1438 Q1075.59 31.9229 1075.59 37.79 Z" fill="#000000" fill-rule="evenodd" fill-opacity="1" /><path clip-path="url(#clip040)" d="M 0 0 M1099.59 26.5499 L1099.59 25.1604 Q1102.49 25.0369 1104.4 22.9988 Q1106.35 20.9299 1107 18.3978 Q1107.68 15.8657 1107.74 12.9322 L1109.31 12.9322 L1109.31 24.5737 L1118.36 24.5737 L1118.36 26.5499 L1109.31 26.5499 L1109.31 44.1202 Q1109.31 50.9445 1113.57 50.9445 Q1115.4 50.9445 1116.6 49.0918 Q1117.81 47.2081 1117.81 43.8732 L1117.81 40.3838 L1119.38 40.3838 L1119.38 43.9967 Q1119.38 47.4243 1117.81 49.9872 Q1116.23 52.5502 1113.11 52.5502 Q1111.97 52.5502 1110.83 52.2414 Q1109.71 51.9635 1108.23 51.2224 Q1106.78 50.4504 1105.86 48.5977 Q1104.96 46.7141 1104.96 43.9967 L1104.96 26.5499 L1099.59 26.5499 Z" fill="#000000" fill-rule="evenodd" fill-opacity="1" /><path clip-path="url(#clip040)" d="M 0 0 M1122.04 45.8186 Q1122.04 40.4456 1128.37 37.6047 Q1132.16 35.7828 1140.01 35.3196 L1140.01 33.0037 Q1140.01 29.082 1137.94 27.0131 Q1135.9 24.9133 1133.31 24.9133 Q1128.67 24.9133 1126.45 27.816 Q1128.34 27.8777 1129.01 28.835 Q1129.69 29.7614 1129.69 30.7186 Q1129.69 31.9847 1128.89 32.8184 Q1128.12 33.6213 1126.79 33.6213 Q1125.53 33.6213 1124.69 32.8493 Q1123.86 32.0464 1123.86 30.6569 Q1123.86 27.5689 1126.64 25.5309 Q1129.45 23.4929 1133.43 23.4929 Q1138.62 23.4929 1142.08 26.9822 Q1143.16 28.063 1143.68 29.4526 Q1144.24 30.8421 1144.3 31.7685 Q1144.36 32.664 1144.36 34.455 L1144.36 47.0846 Q1144.36 47.4552 1144.48 48.0727 Q1144.61 48.6903 1145.16 49.4932 Q1145.75 50.2652 1146.71 50.2652 Q1148.99 50.2652 1148.96 46.22 L1148.96 42.6689 L1150.57 42.6689 L1150.57 46.22 Q1150.57 49.5858 1148.78 50.9136 Q1147.02 52.2106 1145.38 52.2106 Q1143.28 52.2106 1141.95 50.6666 Q1140.63 49.1226 1140.44 47.0228 Q1139.48 49.4314 1137.29 51.0063 Q1135.13 52.5502 1132.16 52.5502 Q1129.88 52.5502 1127.72 51.9635 Q1125.59 51.4077 1123.8 49.8329 Q1122.04 48.2271 1122.04 45.8186 M1126.91 45.7568 Q1126.91 48.1036 1128.58 49.6167 Q1130.25 51.1298 1132.6 51.1298 Q1135.25 51.1298 1137.63 49.0918 Q1140.01 47.0228 1140.01 42.9777 L1140.01 36.6474 Q1133 36.8945 1129.94 39.7045 Q1126.91 42.4836 1126.91 45.7568 Z" fill="#000000" fill-rule="evenodd" fill-opacity="1" /><path clip-path="url(#clip040)" d="M 0 0 M1152.67 51.84 L1152.67 49.8946 Q1156.03 49.8946 1156.81 49.4932 Q1157.58 49.0609 1157.58 47.0228 L1157.58 14.1365 Q1157.58 11.7897 1156.74 11.203 Q1155.94 10.6163 1152.67 10.6163 L1152.67 8.64 L1161.75 7.96066 L1161.75 47.0228 Q1161.75 49.0609 1162.55 49.4932 Q1163.35 49.8946 1166.69 49.8946 L1166.69 51.84 Q1165.92 51.84 1164.31 51.7782 Q1162.7 51.7165 1161.53 51.6856 Q1160.36 51.6547 1159.68 51.6547 Q1158.94 51.6547 1152.67 51.84 Z" fill="#000000" fill-rule="evenodd" fill-opacity="1" /><path clip-path="url(#clip040)" d="M 0 0 M1190 23.2459 L1191.21 9.04143 L1229.84 9.04143 L1231.04 23.2459 L1229.46 23.2459 Q1229.22 20.405 1228.97 18.7684 Q1228.75 17.1318 1228.2 15.5878 Q1227.67 14.013 1226.99 13.2719 Q1226.35 12.4999 1225.08 11.9132 Q1223.81 11.2956 1222.18 11.1412 Q1220.54 10.9868 1218.07 10.9868 Q1215.17 10.9868 1214.46 11.1103 Q1213.69 11.2956 1213.5 11.8514 Q1213.31 12.3764 1213.31 13.5189 L1213.31 46.8376 Q1213.31 48.1036 1213.56 48.6286 Q1213.84 49.1226 1215.29 49.5241 Q1216.74 49.8946 1219.95 49.8946 L1222.49 49.8946 L1222.49 51.84 Q1219.89 51.6547 1210.47 51.6547 Q1201.12 51.6547 1198.52 51.84 L1198.52 49.8946 L1201.06 49.8946 Q1204.27 49.8946 1205.72 49.5241 Q1207.2 49.1226 1207.45 48.6286 Q1207.69 48.1036 1207.69 46.8376 L1207.69 13.5189 Q1207.69 12.6234 1207.63 12.2529 Q1207.57 11.8823 1207.29 11.5735 Q1207.02 11.2339 1206.37 11.1103 Q1205.75 10.9868 1202.97 10.9868 Q1200.5 10.9868 1198.83 11.1412 Q1197.2 11.2956 1195.93 11.9132 Q1194.66 12.4999 1193.98 13.2719 Q1193.34 14.013 1192.78 15.5878 Q1192.26 17.1318 1192.04 18.7684 Q1191.82 20.405 1191.58 23.2459 L1190 23.2459 Z" fill="#000000" fill-rule="evenodd" fill-opacity="1" /><path clip-path="url(#clip040)" d="M 0 0 M1227.55 37.9135 Q1227.55 31.9538 1231.38 27.7233 Q1235.21 23.4929 1240.7 23.4929 Q1246.26 23.4929 1249.13 27.1058 Q1252.04 30.7186 1252.04 35.9063 Q1252.04 36.8636 1251.79 37.0489 Q1251.54 37.2341 1250.46 37.2341 L1232.8 37.2341 Q1232.8 43.6879 1234.71 46.7141 Q1237.37 50.9445 1241.85 50.9445 Q1242.46 50.9445 1243.21 50.821 Q1243.95 50.6975 1245.46 50.1725 Q1246.97 49.6167 1248.3 48.1654 Q1249.63 46.7141 1250.4 44.429 Q1250.59 43.5335 1251.2 43.5644 Q1252.04 43.5644 1252.04 44.3055 Q1252.04 44.8613 1251.42 46.1273 Q1250.83 47.3625 1249.69 48.8447 Q1248.55 50.3269 1246.32 51.4386 Q1244.13 52.5502 1241.48 52.5502 Q1235.92 52.5502 1231.72 48.3507 Q1227.55 44.1202 1227.55 37.9135 M1232.86 35.9063 L1247.87 35.9063 Q1247.87 34.5785 1247.62 33.0963 Q1247.41 31.6141 1246.73 29.5761 Q1246.08 27.5072 1244.53 26.2103 Q1242.99 24.9133 1240.7 24.9133 Q1239.69 24.9133 1238.57 25.3456 Q1237.49 25.778 1236.17 26.8278 Q1234.84 27.8777 1233.91 30.2554 Q1232.98 32.6331 1232.86 35.9063 Z" fill="#000000" fill-rule="evenodd" fill-opacity="1" /><path clip-path="url(#clip040)" d="M 0 0 M1254.08 51.84 L1254.08 49.8946 Q1257.44 49.8946 1258.21 49.4932 Q1258.99 49.0609 1258.99 47.0228 L1258.99 30.0702 Q1258.99 27.7233 1258.15 27.1366 Q1257.35 26.5499 1254.08 26.5499 L1254.08 24.5737 L1262.97 23.8943 L1262.97 30.5334 Q1265.93 23.8943 1272.32 23.8943 Q1279.74 23.8943 1280.75 30.0702 Q1281.84 27.6616 1284.09 25.778 Q1286.37 23.8943 1289.93 23.8943 Q1294.68 23.8943 1296.57 26.2411 Q1297.95 27.816 1298.23 29.5761 Q1298.51 31.3362 1298.51 35.9063 L1298.51 47.9801 Q1298.57 49.3079 1299.59 49.6167 Q1300.61 49.8946 1303.45 49.8946 L1303.45 51.84 Q1297 51.6547 1296.38 51.6547 Q1295.89 51.6547 1289.22 51.84 L1289.22 49.8946 Q1292.58 49.8946 1293.35 49.4932 Q1294.16 49.0609 1294.16 47.0228 L1294.16 32.2935 Q1294.16 29.082 1293.17 27.1984 Q1292.18 25.2839 1289.46 25.2839 Q1286.19 25.2839 1283.56 28.0321 Q1280.94 30.7804 1280.94 35.4123 L1280.94 47.0228 Q1280.94 49.0609 1281.71 49.4932 Q1282.51 49.8946 1285.88 49.8946 L1285.88 51.84 Q1279.43 51.6547 1278.78 51.6547 Q1278.28 51.6547 1271.65 51.84 L1271.65 49.8946 Q1275.01 49.8946 1275.78 49.4932 Q1276.59 49.0609 1276.59 47.0228 L1276.59 32.2935 Q1276.59 29.082 1275.6 27.1984 Q1274.61 25.2839 1271.89 25.2839 Q1268.62 25.2839 1265.99 28.0321 Q1263.37 30.7804 1263.37 35.4123 L1263.37 47.0228 Q1263.37 49.0609 1264.14 49.4932 Q1264.94 49.8946 1268.28 49.8946 L1268.28 51.84 Q1261.83 51.6547 1261.21 51.6547 Q1260.71 51.6547 1254.08 51.84 Z" fill="#000000" fill-rule="evenodd" fill-opacity="1" /><path clip-path="url(#clip040)" d="M 0 0 M1305.21 62.1537 Q1308.58 62.1537 1309.35 61.7213 Q1310.15 61.3199 1310.15 59.3128 L1310.15 29.6996 Q1310.15 27.5998 1309.35 27.0749 Q1308.58 26.5499 1305.21 26.5499 L1305.21 24.5737 L1314.32 23.8943 L1314.32 28.063 Q1318.12 23.8943 1323.18 23.8943 Q1328.56 23.8943 1332.48 28.063 Q1336.4 32.2317 1336.4 38.1914 Q1336.4 44.2128 1332.23 48.3815 Q1328.06 52.5502 1322.29 52.5502 Q1319.14 52.5502 1317.01 50.9445 Q1314.91 49.3079 1314.51 48.1036 L1314.51 48.6903 L1314.51 59.3128 Q1314.51 61.3508 1315.31 61.7522 Q1316.11 62.1537 1319.45 62.1537 L1319.45 64.099 Q1312.81 63.9138 1312.31 63.9138 Q1311.7 63.9138 1305.21 64.099 L1305.21 62.1537 M1314.51 44.6451 Q1314.51 45.6024 1314.63 45.9421 Q1314.78 46.2817 1315.4 47.3008 Q1317.9 51.1298 1321.98 51.1298 Q1322.01 51.1298 1322.04 51.1298 Q1325.65 51.1298 1328.4 47.4552 Q1331.15 43.7496 1331.15 38.1914 Q1331.15 32.8802 1328.65 29.1747 Q1326.15 25.4692 1322.69 25.4692 Q1320.22 25.4692 1318.06 26.797 Q1315.9 28.1248 1314.51 30.5334 L1314.51 44.6451 Z" fill="#000000" fill-rule="evenodd" fill-opacity="1" /><path clip-path="url(#clip040)" d="M 0 0 M1339.92 37.9135 Q1339.92 31.9538 1343.75 27.7233 Q1347.58 23.4929 1353.07 23.4929 Q1358.63 23.4929 1361.5 27.1058 Q1364.41 30.7186 1364.41 35.9063 Q1364.41 36.8636 1364.16 37.0489 Q1363.91 37.2341 1362.83 37.2341 L1345.17 37.2341 Q1345.17 43.6879 1347.08 46.7141 Q1349.74 50.9445 1354.22 50.9445 Q1354.83 50.9445 1355.58 50.821 Q1356.32 50.6975 1357.83 50.1725 Q1359.34 49.6167 1360.67 48.1654 Q1362 46.7141 1362.77 44.429 Q1362.96 43.5335 1363.57 43.5644 Q1364.41 43.5644 1364.41 44.3055 Q1364.41 44.8613 1363.79 46.1273 Q1363.2 47.3625 1362.06 48.8447 Q1360.92 50.3269 1358.69 51.4386 Q1356.5 52.5502 1353.85 52.5502 Q1348.29 52.5502 1344.09 48.3507 Q1339.92 44.1202 1339.92 37.9135 M1345.23 35.9063 L1360.24 35.9063 Q1360.24 34.5785 1359.99 33.0963 Q1359.77 31.6141 1359.1 29.5761 Q1358.45 27.5072 1356.9 26.2103 Q1355.36 24.9133 1353.07 24.9133 Q1352.05 24.9133 1350.94 25.3456 Q1349.86 25.778 1348.53 26.8278 Q1347.21 27.8777 1346.28 30.2554 Q1345.35 32.6331 1345.23 35.9063 Z" fill="#000000" fill-rule="evenodd" fill-opacity="1" /><path clip-path="url(#clip040)" d="M 0 0 M1366.17 51.84 L1366.17 49.8946 Q1369.53 49.8946 1370.3 49.4932 Q1371.11 49.0609 1371.11 47.0228 L1371.11 30.0702 Q1371.11 27.7233 1370.27 27.1366 Q1369.47 26.5499 1366.17 26.5499 L1366.17 24.5737 L1374.97 23.8943 L1374.97 30.8421 Q1375.86 28.1248 1377.75 26.025 Q1379.66 23.8943 1382.75 23.8943 Q1384.79 23.8943 1386.08 25.0369 Q1387.41 26.1794 1387.41 27.7542 Q1387.41 29.1438 1386.55 29.854 Q1385.71 30.5334 1384.69 30.5334 Q1383.55 30.5334 1382.75 29.8231 Q1381.98 29.082 1381.98 27.816 Q1381.98 27.044 1382.32 26.4573 Q1382.69 25.8397 1382.97 25.6236 Q1383.24 25.4074 1383.43 25.3456 Q1383.3 25.2839 1382.75 25.2839 Q1379.26 25.2839 1377.25 28.7732 Q1375.28 32.2317 1375.28 37.1724 L1375.28 46.8993 Q1375.28 48.7212 1376.02 49.3079 Q1376.79 49.8946 1380.09 49.8946 L1381.42 49.8946 L1381.42 51.84 Q1378.89 51.6547 1373.39 51.6547 Q1372.62 51.6547 1371.42 51.6856 Q1370.21 51.7165 1368.64 51.7782 Q1367.06 51.84 1366.17 51.84 Z" fill="#000000" fill-rule="evenodd" fill-opacity="1" /><path clip-path="url(#clip040)" d="M 0 0 M1390.07 45.8186 Q1390.07 40.4456 1396.4 37.6047 Q1400.2 35.7828 1408.04 35.3196 L1408.04 33.0037 Q1408.04 29.082 1405.97 27.0131 Q1403.93 24.9133 1401.34 24.9133 Q1396.71 24.9133 1394.48 27.816 Q1396.37 27.8777 1397.05 28.835 Q1397.73 29.7614 1397.73 30.7186 Q1397.73 31.9847 1396.92 32.8184 Q1396.15 33.6213 1394.82 33.6213 Q1393.56 33.6213 1392.72 32.8493 Q1391.89 32.0464 1391.89 30.6569 Q1391.89 27.5689 1394.67 25.5309 Q1397.48 23.4929 1401.46 23.4929 Q1406.65 23.4929 1410.11 26.9822 Q1411.19 28.063 1411.71 29.4526 Q1412.27 30.8421 1412.33 31.7685 Q1412.39 32.664 1412.39 34.455 L1412.39 47.0846 Q1412.39 47.4552 1412.52 48.0727 Q1412.64 48.6903 1413.2 49.4932 Q1413.78 50.2652 1414.74 50.2652 Q1417.02 50.2652 1416.99 46.22 L1416.99 42.6689 L1418.6 42.6689 L1418.6 46.22 Q1418.6 49.5858 1416.81 50.9136 Q1415.05 52.2106 1413.41 52.2106 Q1411.31 52.2106 1409.98 50.6666 Q1408.66 49.1226 1408.47 47.0228 Q1407.51 49.4314 1405.32 51.0063 Q1403.16 52.5502 1400.2 52.5502 Q1397.91 52.5502 1395.75 51.9635 Q1393.62 51.4077 1391.83 49.8329 Q1390.07 48.2271 1390.07 45.8186 M1394.95 45.7568 Q1394.95 48.1036 1396.61 49.6167 Q1398.28 51.1298 1400.63 51.1298 Q1403.28 51.1298 1405.66 49.0918 Q1408.04 47.0228 1408.04 42.9777 L1408.04 36.6474 Q1401.03 36.8945 1397.97 39.7045 Q1394.95 42.4836 1394.95 45.7568 Z" fill="#000000" fill-rule="evenodd" fill-opacity="1" /><path clip-path="url(#clip040)" d="M 0 0 M1419.8 26.5499 L1419.8 25.1604 Q1422.71 25.0369 1424.62 22.9988 Q1426.57 20.9299 1427.21 18.3978 Q1427.89 15.8657 1427.96 12.9322 L1429.53 12.9322 L1429.53 24.5737 L1438.58 24.5737 L1438.58 26.5499 L1429.53 26.5499 L1429.53 44.1202 Q1429.53 50.9445 1433.79 50.9445 Q1435.61 50.9445 1436.82 49.0918 Q1438.02 47.2081 1438.02 43.8732 L1438.02 40.3838 L1439.6 40.3838 L1439.6 43.9967 Q1439.6 47.4243 1438.02 49.9872 Q1436.45 52.5502 1433.33 52.5502 Q1432.19 52.5502 1431.04 52.2414 Q1429.93 51.9635 1428.45 51.2224 Q1427 50.4504 1426.07 48.5977 Q1425.18 46.7141 1425.18 43.9967 L1425.18 26.5499 L1419.8 26.5499 Z" fill="#000000" fill-rule="evenodd" fill-opacity="1" /><path clip-path="url(#clip040)" d="M 0 0 M1441.64 26.5499 L1441.64 24.5737 L1450.93 23.8943 L1450.93 44.8922 Q1450.93 46.4053 1451.05 47.3008 Q1451.18 48.1654 1451.67 49.1844 Q1452.2 50.2034 1453.37 50.6666 Q1454.57 51.1298 1456.49 51.1298 Q1459.92 51.1298 1462.02 48.3198 Q1464.15 45.5098 1464.15 41.3411 L1464.15 30.0702 Q1464.15 27.7233 1463.31 27.1366 Q1462.48 26.5499 1459.21 26.5499 L1459.21 24.5737 L1468.5 23.8943 L1468.5 46.3435 Q1468.5 48.6903 1469.3 49.3079 Q1470.14 49.8946 1473.44 49.8946 L1473.44 51.84 L1464.33 52.5502 L1464.33 46.8376 Q1461.68 52.5193 1456.18 52.5502 Q1453.4 52.5502 1451.49 51.84 Q1449.6 51.1298 1448.65 50.2652 Q1447.69 49.3697 1447.16 47.6713 Q1446.67 45.973 1446.61 44.9231 Q1446.55 43.8732 1446.55 41.8351 L1446.55 32.3552 Q1446.55 28.063 1445.93 27.3219 Q1445.31 26.5499 1441.64 26.5499 Z" fill="#000000" fill-rule="evenodd" fill-opacity="1" /><path clip-path="url(#clip040)" d="M 0 0 M1475.2 51.84 L1475.2 49.8946 Q1478.57 49.8946 1479.34 49.4932 Q1480.14 49.0609 1480.14 47.0228 L1480.14 30.0702 Q1480.14 27.7233 1479.31 27.1366 Q1478.51 26.5499 1475.2 26.5499 L1475.2 24.5737 L1484 23.8943 L1484 30.8421 Q1484.9 28.1248 1486.78 26.025 Q1488.7 23.8943 1491.78 23.8943 Q1493.82 23.8943 1495.12 25.0369 Q1496.45 26.1794 1496.45 27.7542 Q1496.45 29.1438 1495.58 29.854 Q1494.75 30.5334 1493.73 30.5334 Q1492.59 30.5334 1491.78 29.8231 Q1491.01 29.082 1491.01 27.816 Q1491.01 27.044 1491.35 26.4573 Q1491.72 25.8397 1492 25.6236 Q1492.28 25.4074 1492.46 25.3456 Q1492.34 25.2839 1491.78 25.2839 Q1488.29 25.2839 1486.29 28.7732 Q1484.31 32.2317 1484.31 37.1724 L1484.31 46.8993 Q1484.31 48.7212 1485.05 49.3079 Q1485.82 49.8946 1489.13 49.8946 L1490.46 49.8946 L1490.46 51.84 Q1487.92 51.6547 1482.43 51.6547 Q1481.65 51.6547 1480.45 51.6856 Q1479.25 51.7165 1477.67 51.7782 Q1476.1 51.84 1475.2 51.84 Z" fill="#000000" fill-rule="evenodd" fill-opacity="1" /><path clip-path="url(#clip040)" d="M 0 0 M1498.21 37.9135 Q1498.21 31.9538 1502.04 27.7233 Q1505.86 23.4929 1511.36 23.4929 Q1516.92 23.4929 1519.79 27.1058 Q1522.69 30.7186 1522.69 35.9063 Q1522.69 36.8636 1522.45 37.0489 Q1522.2 37.2341 1521.12 37.2341 L1503.46 37.2341 Q1503.46 43.6879 1505.37 46.7141 Q1508.03 50.9445 1512.5 50.9445 Q1513.12 50.9445 1513.86 50.821 Q1514.6 50.6975 1516.12 50.1725 Q1517.63 49.6167 1518.96 48.1654 Q1520.28 46.7141 1521.06 44.429 Q1521.24 43.5335 1521.86 43.5644 Q1522.69 43.5644 1522.69 44.3055 Q1522.69 44.8613 1522.08 46.1273 Q1521.49 47.3625 1520.35 48.8447 Q1519.2 50.3269 1516.98 51.4386 Q1514.79 52.5502 1512.13 52.5502 Q1506.57 52.5502 1502.37 48.3507 Q1498.21 44.1202 1498.21 37.9135 M1503.52 35.9063 L1518.52 35.9063 Q1518.52 34.5785 1518.28 33.0963 Q1518.06 31.6141 1517.38 29.5761 Q1516.73 27.5072 1515.19 26.2103 Q1513.65 24.9133 1511.36 24.9133 Q1510.34 24.9133 1509.23 25.3456 Q1508.15 25.778 1506.82 26.8278 Q1505.49 27.8777 1504.57 30.2554 Q1503.64 32.6331 1503.52 35.9063 Z" fill="#000000" fill-rule="evenodd" fill-opacity="1" /><path clip-path="url(#clip040)" d="M 0 0 M1544.93 26.5499 L1544.93 24.5737 Q1547.77 24.7589 1551.07 24.7589 Q1552.28 24.7589 1557.96 24.5737 L1557.96 26.5499 Q1554.34 26.5499 1554.34 28.1865 Q1554.34 28.4336 1554.72 29.2673 L1561.82 46.8993 L1568.27 30.7804 Q1568.64 29.6996 1568.64 29.2673 Q1568.64 28.1865 1567.9 27.4146 Q1567.19 26.6117 1565.62 26.5499 L1565.62 24.5737 Q1568.83 24.7589 1571.11 24.7589 Q1573.71 24.7589 1575.84 24.5737 L1575.84 26.5499 Q1573.95 26.5499 1572.63 27.4146 Q1571.3 28.2483 1570.86 28.9894 Q1570.46 29.6996 1570.03 30.7804 L1561.76 51.3459 Q1561.26 52.5502 1560.43 52.5502 Q1559.87 52.5502 1559.62 52.3032 Q1559.41 52.087 1559.1 51.3459 L1549.99 28.8968 Q1549.37 27.3219 1548.57 26.9514 Q1547.77 26.5499 1544.93 26.5499 Z" fill="#000000" fill-rule="evenodd" fill-opacity="1" /><path clip-path="url(#clip040)" d="M 0 0 M1576.73 45.8186 Q1576.73 40.4456 1583.06 37.6047 Q1586.86 35.7828 1594.7 35.3196 L1594.7 33.0037 Q1594.7 29.082 1592.63 27.0131 Q1590.6 24.9133 1588 24.9133 Q1583.37 24.9133 1581.15 27.816 Q1583.03 27.8777 1583.71 28.835 Q1584.39 29.7614 1584.39 30.7186 Q1584.39 31.9847 1583.59 32.8184 Q1582.82 33.6213 1581.49 33.6213 Q1580.22 33.6213 1579.39 32.8493 Q1578.55 32.0464 1578.55 30.6569 Q1578.55 27.5689 1581.33 25.5309 Q1584.14 23.4929 1588.13 23.4929 Q1593.31 23.4929 1596.77 26.9822 Q1597.85 28.063 1598.38 29.4526 Q1598.93 30.8421 1599 31.7685 Q1599.06 32.664 1599.06 34.455 L1599.06 47.0846 Q1599.06 47.4552 1599.18 48.0727 Q1599.3 48.6903 1599.86 49.4932 Q1600.45 50.2652 1601.4 50.2652 Q1603.69 50.2652 1603.66 46.22 L1603.66 42.6689 L1605.26 42.6689 L1605.26 46.22 Q1605.26 49.5858 1603.47 50.9136 Q1601.71 52.2106 1600.08 52.2106 Q1597.98 52.2106 1596.65 50.6666 Q1595.32 49.1226 1595.14 47.0228 Q1594.18 49.4314 1591.99 51.0063 Q1589.82 52.5502 1586.86 52.5502 Q1584.58 52.5502 1582.41 51.9635 Q1580.28 51.4077 1578.49 49.8329 Q1576.73 48.2271 1576.73 45.8186 M1581.61 45.7568 Q1581.61 48.1036 1583.28 49.6167 Q1584.95 51.1298 1587.29 51.1298 Q1589.95 51.1298 1592.33 49.0918 Q1594.7 47.0228 1594.7 42.9777 L1594.7 36.6474 Q1587.69 36.8945 1584.64 39.7045 Q1581.61 42.4836 1581.61 45.7568 Z" fill="#000000" fill-rule="evenodd" fill-opacity="1" /><path clip-path="url(#clip040)" d="M 0 0 M1607.02 51.84 L1607.02 49.8946 Q1610.39 49.8946 1611.16 49.4932 Q1611.97 49.0609 1611.97 47.0228 L1611.97 30.0702 Q1611.97 27.7233 1611.13 27.1366 Q1610.33 26.5499 1607.02 26.5499 L1607.02 24.5737 L1615.83 23.8943 L1615.83 30.8421 Q1616.72 28.1248 1618.6 26.025 Q1620.52 23.8943 1623.61 23.8943 Q1625.64 23.8943 1626.94 25.0369 Q1628.27 26.1794 1628.27 27.7542 Q1628.27 29.1438 1627.4 29.854 Q1626.57 30.5334 1625.55 30.5334 Q1624.41 30.5334 1623.61 29.8231 Q1622.83 29.082 1622.83 27.816 Q1622.83 27.044 1623.17 26.4573 Q1623.54 25.8397 1623.82 25.6236 Q1624.1 25.4074 1624.29 25.3456 Q1624.16 25.2839 1623.61 25.2839 Q1620.12 25.2839 1618.11 28.7732 Q1616.13 32.2317 1616.13 37.1724 L1616.13 46.8993 Q1616.13 48.7212 1616.87 49.3079 Q1617.65 49.8946 1620.95 49.8946 L1622.28 49.8946 L1622.28 51.84 Q1619.75 51.6547 1614.25 51.6547 Q1613.48 51.6547 1612.27 51.6856 Q1611.07 51.7165 1609.49 51.7782 Q1607.92 51.84 1607.02 51.84 Z" fill="#000000" fill-rule="evenodd" fill-opacity="1" /><path clip-path="url(#clip040)" d="M 0 0 M1630.37 51.84 L1630.37 49.8946 Q1633.74 49.8946 1634.51 49.4932 Q1635.28 49.0609 1635.28 47.0228 L1635.28 30.0084 Q1635.28 27.6616 1634.48 27.1058 Q1633.7 26.5499 1630.62 26.5499 L1630.62 24.5737 L1639.45 23.8943 L1639.45 47.0846 Q1639.45 48.9682 1640.13 49.4314 Q1640.81 49.8946 1643.89 49.8946 L1643.89 51.84 Q1637.44 51.6547 1637.32 51.6547 Q1636.45 51.6547 1630.37 51.84 M1633.02 12.8705 Q1633.02 11.6044 1633.98 10.5854 Q1634.97 9.5355 1636.36 9.5355 Q1637.75 9.5355 1638.74 10.4928 Q1639.73 11.4191 1639.73 12.9013 Q1639.73 14.3527 1638.74 15.3099 Q1637.75 16.2363 1636.36 16.2363 Q1634.91 16.2363 1633.95 15.2173 Q1633.02 14.1983 1633.02 12.8705 Z" fill="#000000" fill-rule="evenodd" fill-opacity="1" /><path clip-path="url(#clip040)" d="M 0 0 M1646.55 45.8186 Q1646.55 40.4456 1652.88 37.6047 Q1656.68 35.7828 1664.52 35.3196 L1664.52 33.0037 Q1664.52 29.082 1662.45 27.0131 Q1660.41 24.9133 1657.82 24.9133 Q1653.19 24.9133 1650.97 27.816 Q1652.85 27.8777 1653.53 28.835 Q1654.21 29.7614 1654.21 30.7186 Q1654.21 31.9847 1653.41 32.8184 Q1652.63 33.6213 1651.31 33.6213 Q1650.04 33.6213 1649.21 32.8493 Q1648.37 32.0464 1648.37 30.6569 Q1648.37 27.5689 1651.15 25.5309 Q1653.96 23.4929 1657.94 23.4929 Q1663.13 23.4929 1666.59 26.9822 Q1667.67 28.063 1668.2 29.4526 Q1668.75 30.8421 1668.81 31.7685 Q1668.88 32.664 1668.88 34.455 L1668.88 47.0846 Q1668.88 47.4552 1669 48.0727 Q1669.12 48.6903 1669.68 49.4932 Q1670.27 50.2652 1671.22 50.2652 Q1673.51 50.2652 1673.48 46.22 L1673.48 42.6689 L1675.08 42.6689 L1675.08 46.22 Q1675.08 49.5858 1673.29 50.9136 Q1671.53 52.2106 1669.89 52.2106 Q1667.79 52.2106 1666.47 50.6666 Q1665.14 49.1226 1664.95 47.0228 Q1664 49.4314 1661.8 51.0063 Q1659.64 52.5502 1656.68 52.5502 Q1654.39 52.5502 1652.23 51.9635 Q1650.1 51.4077 1648.31 49.8329 Q1646.55 48.2271 1646.55 45.8186 M1651.43 45.7568 Q1651.43 48.1036 1653.1 49.6167 Q1654.76 51.1298 1657.11 51.1298 Q1659.77 51.1298 1662.14 49.0918 Q1664.52 47.0228 1664.52 42.9777 L1664.52 36.6474 Q1657.51 36.8945 1654.45 39.7045 Q1651.43 42.4836 1651.43 45.7568 Z" fill="#000000" fill-rule="evenodd" fill-opacity="1" /><path clip-path="url(#clip040)" d="M 0 0 M1676.29 26.5499 L1676.29 25.1604 Q1679.19 25.0369 1681.1 22.9988 Q1683.05 20.9299 1683.7 18.3978 Q1684.38 15.8657 1684.44 12.9322 L1686.01 12.9322 L1686.01 24.5737 L1695.06 24.5737 L1695.06 26.5499 L1686.01 26.5499 L1686.01 44.1202 Q1686.01 50.9445 1690.27 50.9445 Q1692.1 50.9445 1693.3 49.0918 Q1694.51 47.2081 1694.51 43.8732 L1694.51 40.3838 L1696.08 40.3838 L1696.08 43.9967 Q1696.08 47.4243 1694.51 49.9872 Q1692.93 52.5502 1689.81 52.5502 Q1688.67 52.5502 1687.53 52.2414 Q1686.41 51.9635 1684.93 51.2224 Q1683.48 50.4504 1682.56 48.5977 Q1681.66 46.7141 1681.66 43.9967 L1681.66 26.5499 L1676.29 26.5499 Z" fill="#000000" fill-rule="evenodd" fill-opacity="1" /><path clip-path="url(#clip040)" d="M 0 0 M1698.18 51.84 L1698.18 49.8946 Q1701.55 49.8946 1702.32 49.4932 Q1703.09 49.0609 1703.09 47.0228 L1703.09 30.0084 Q1703.09 27.6616 1702.29 27.1058 Q1701.51 26.5499 1698.43 26.5499 L1698.43 24.5737 L1707.26 23.8943 L1707.26 47.0846 Q1707.26 48.9682 1707.94 49.4314 Q1708.62 49.8946 1711.7 49.8946 L1711.7 51.84 Q1705.25 51.6547 1705.13 51.6547 Q1704.26 51.6547 1698.18 51.84 M1700.84 12.8705 Q1700.84 11.6044 1701.79 10.5854 Q1702.78 9.5355 1704.17 9.5355 Q1705.56 9.5355 1706.55 10.4928 Q1707.54 11.4191 1707.54 12.9013 Q1707.54 14.3527 1706.55 15.3099 Q1705.56 16.2363 1704.17 16.2363 Q1702.72 16.2363 1701.76 15.2173 Q1700.84 14.1983 1700.84 12.8705 Z" fill="#000000" fill-rule="evenodd" fill-opacity="1" /><path clip-path="url(#clip040)" d="M 0 0 M1717.63 48.4433 Q1713.47 44.3055 1713.47 38.3149 Q1713.47 32.2935 1717.54 27.9086 Q1721.65 23.4929 1727.52 23.4929 Q1733.26 23.4929 1737.37 27.8777 Q1741.5 32.2317 1741.5 38.3149 Q1741.5 44.2746 1737.33 48.4124 Q1733.2 52.5502 1727.45 52.5502 Q1721.83 52.5502 1717.63 48.4433 M1718.71 37.79 Q1718.71 43.9349 1720.32 46.7141 Q1722.79 50.9445 1727.52 50.9445 Q1729.86 50.9445 1731.81 49.6785 Q1733.78 48.4124 1734.86 46.2817 Q1736.25 43.5026 1736.25 37.79 Q1736.25 31.7068 1734.59 29.0203 Q1732.12 24.9133 1727.45 24.9133 Q1725.42 24.9133 1723.41 25.9941 Q1721.43 27.044 1720.23 29.1438 Q1718.71 31.9229 1718.71 37.79 Z" fill="#000000" fill-rule="evenodd" fill-opacity="1" /><path clip-path="url(#clip040)" d="M 0 0 M1743.54 51.84 L1743.54 49.8946 Q1746.91 49.8946 1747.68 49.4932 Q1748.45 49.0609 1748.45 47.0228 L1748.45 30.0702 Q1748.45 27.7233 1747.62 27.1366 Q1746.81 26.5499 1743.54 26.5499 L1743.54 24.5737 L1752.43 23.8943 L1752.43 30.5334 Q1755.4 23.8943 1761.79 23.8943 Q1766.55 23.8943 1768.43 26.2411 Q1769.82 27.816 1770.1 29.5761 Q1770.41 31.3362 1770.41 35.9063 L1770.41 47.9801 Q1770.47 49.3079 1771.49 49.6167 Q1772.51 49.8946 1775.35 49.8946 L1775.35 51.84 Q1768.89 51.6547 1768.24 51.6547 Q1767.75 51.6547 1761.11 51.84 L1761.11 49.8946 Q1764.48 49.8946 1765.25 49.4932 Q1766.05 49.0609 1766.05 47.0228 L1766.05 32.2935 Q1766.05 29.082 1765.06 27.1984 Q1764.08 25.2839 1761.36 25.2839 Q1758.09 25.2839 1755.46 28.0321 Q1752.84 30.7804 1752.84 35.4123 L1752.84 47.0228 Q1752.84 49.0609 1753.61 49.4932 Q1754.41 49.8946 1757.75 49.8946 L1757.75 51.84 Q1751.29 51.6547 1750.67 51.6547 Q1750.18 51.6547 1743.54 51.84 Z" fill="#000000" fill-rule="evenodd" fill-opacity="1" /><polyline clip-path="url(#clip042)" style="stroke:#4477aa; stroke-width:4.8; stroke-opacity:1; fill:none" points="
  509.085,1000 526.566,1000 688.199,1000 785.333,1000 867.459,1000 956.671,1000 1038.92,1000 1083,1000 1127.09,1000 1178.17,1000 
  1229.25,1000 1251.95,1000 1274.65,1000 1286,1000 1297.34,1000 1303.02,1000 1308.69,1000 1311.53,1000 1314.37,1000 1315.79,1000 
  1317.2,1000 1317.91,1000 1318.62,1000 1319.33,1000 1320.04,700 1320.66,1000 1321.28,1000 1321.91,1000 1322.53,1000 1323.77,1000 
  1325.02,1000 1327.5,1000 1329.99,1000 1334.97,1000 1339.94,1000 1349.9,1000 1359.85,1000 1379.75,1000 1399.65,1000 1443.05,1000 
  1486.45,1000 1530.11,1000 1573.77,1000 1670.31,1000 1762.16,1000 1857.67,1000 1938.06,1000 2036.22,1000 2128.49,1000 2276.31,1000 
  2299.06,1000 
  "/>
<path clip-path="url(#clip040)" d="
M1854.84 331.1 L2289.51 331.1 L2289.51 149.66 L1854.84 149.66  Z
  " fill="#ffffff" fill-rule="evenodd" fill-opacity="0.9"/>
<polyline clip-path="url(#clip040)" style="stroke:#222255; stroke-width:4; stroke-opacity:0.1; fill:none" points="
  1854.84,331.1 2289.51,331.1 2289.51,149.66 1854.84,149.66 1854.84,331.1 
  "/>
<polyline clip-path="url(#clip040)" style="stroke:#4477aa; stroke-width:6; stroke-opacity:1; fill:none" points="
  1875.92,240.38 2002.42,240.38 
  "/>
<path clip-path="url(#clip040)" d="M 0 0 M2023.5 239.879 Q2023.5 238.657 2023.9 237.212 Q2024.35 235.729 2025.72 234.284 Q2027.09 232.839 2029.13 232.839 Q2033.06 232.839 2036.13 238.36 Q2039.21 243.844 2042.54 256.147 Q2044.06 250.774 2046.36 244.993 Q2047.29 242.733 2047.95 241.325 Q2048.62 239.879 2050.03 237.582 Q2051.44 235.248 2053.18 234.062 Q2054.92 232.839 2056.96 232.839 Q2058.55 232.839 2059.44 233.802 Q2060.33 234.729 2060.33 235.952 Q2060.33 237.767 2058.81 238.694 Q2058.29 238.99 2057.03 239.175 Q2055.77 239.361 2054.73 239.657 Q2053.7 239.954 2052.1 241.695 Q2050.51 243.4 2048.99 246.586 Q2047.1 250.514 2045.43 255.331 Q2043.77 260.149 2043.77 261.297 Q2043.77 261.816 2044.14 263.965 Q2044.54 266.077 2044.91 269.783 Q2045.29 273.525 2045.29 277.75 Q2045.29 278.676 2045.21 279.121 Q2045.06 280.121 2044.28 280.751 Q2043.54 281.418 2042.47 281.418 Q2039.58 281.418 2039.58 277.676 L2039.58 277.305 Q2039.58 274.044 2039.99 270.153 Q2040.43 266.3 2040.88 263.706 L2041.28 261.223 Q2041.28 259.63 2038.87 252.775 Q2036.5 245.882 2034.5 242.918 Q2032.06 239.212 2028.76 239.212 Q2027.24 239.212 2026.5 239.546 Q2025.79 239.879 2025.42 240.435 Q2025.09 240.954 2024.94 241.028 Q2024.5 241.325 2023.98 240.991 Q2023.5 240.621 2023.5 239.879 Z" fill="#000000" fill-rule="evenodd" fill-opacity="1" /><path clip-path="url(#clip040)" d="M 0 0 M2089.9 254.776 Q2089.97 253.849 2091.42 253.849 L2137.92 253.849 Q2140.11 253.849 2140.15 254.701 Q2140.15 255.628 2138.07 255.591 L2091.94 255.591 Q2089.9 255.628 2089.9 254.776 M2089.9 239.954 Q2089.9 239.027 2091.49 239.064 L2137.85 239.064 Q2140.11 239.064 2140.15 239.954 Q2140.15 240.806 2138.22 240.806 L2091.42 240.806 Q2089.9 240.806 2089.9 239.954 Z" fill="#000000" fill-rule="evenodd" fill-opacity="1" /><path clip-path="url(#clip040)" d="M 0 0 M2172.12 222.982 L2172.12 220.611 Q2181.24 220.611 2185.95 215.757 Q2187.24 215.757 2187.47 216.053 Q2187.69 216.35 2187.69 217.721 L2187.69 260.297 Q2187.69 262.557 2188.8 263.261 Q2189.91 263.965 2194.77 263.965 L2197.17 263.965 L2197.17 266.3 Q2194.51 266.077 2184.87 266.077 Q2175.24 266.077 2172.61 266.3 L2172.61 263.965 L2175.02 263.965 Q2179.8 263.965 2180.94 263.298 Q2182.09 262.594 2182.09 260.297 L2182.09 220.981 Q2178.13 222.982 2172.12 222.982 Z" fill="#000000" fill-rule="evenodd" fill-opacity="1" /><path clip-path="url(#clip040)" d="M 0 0 M2204.77 265.077 Q2203.62 263.854 2203.62 262.261 Q2203.62 260.667 2204.77 259.519 Q2205.92 258.333 2207.66 258.333 Q2209.33 258.333 2210.44 259.445 Q2211.59 260.519 2211.59 262.298 Q2211.59 264.039 2210.37 265.188 Q2209.18 266.3 2207.66 266.3 Q2205.92 266.3 2204.77 265.077 Z" fill="#000000" fill-rule="evenodd" fill-opacity="1" /><path clip-path="url(#clip040)" d="M 0 0 M2213.7 253.775 L2213.7 251.441 L2237.01 215.831 Q2237.6 214.904 2238.53 214.941 Q2239.38 214.941 2239.56 215.275 Q2239.75 215.608 2239.75 216.905 L2239.75 251.441 L2247.35 251.441 L2247.35 253.775 L2239.75 253.775 L2239.75 260.371 Q2239.75 262.557 2240.64 263.261 Q2241.57 263.965 2245.49 263.965 L2247.09 263.965 L2247.09 266.3 Q2243.97 266.077 2236.79 266.077 Q2229.63 266.077 2226.52 266.3 L2226.52 263.965 L2228.11 263.965 Q2232.04 263.965 2232.97 263.298 Q2233.9 262.594 2233.9 260.371 L2233.9 253.775 L2213.7 253.775 M2215.85 251.441 L2234.34 251.441 L2234.34 223.131 L2215.85 251.441 Z" fill="#000000" fill-rule="evenodd" fill-opacity="1" /></svg>
