<?xml version="1.0" encoding="utf-8" standalone="no"?>
<!DOCTYPE svg PUBLIC "-//W3C//DTD SVG 1.1//EN"
  "http://www.w3.org/Graphics/SVG/1.1/DTD/svg11.dtd">
<!-- Created with matplotlib (https://matplotlib.org/) -->
<svg height="288pt" version="1.1" viewBox="0 0 432 288" width="432pt" xmlns="http://www.w3.org/2000/svg" xmlns:xlink="http://www.w3.org/1999/xlink">
 <metadata>
  <rdf:RDF xmlns:cc="http://creativecommons.org/ns#" xmlns:dc="http://purl.org/dc/elements/1.1/" xmlns:rdf="http://www.w3.org/1999/02/22-rdf-syntax-ns#">
   <cc:Work>
    <dc:type rdf:resource="http://purl.org/dc/dcmitype/StillImage"/>
    <dc:date>2021-04-05T10:42:48.249261</dc:date>
    <dc:format>image/svg+xml</dc:format>
    <dc:creator>
     <cc:Agent>
      <dc:title>Matplotlib v3.3.1, https://matplotlib.org/</dc:title>
     </cc:Agent>
    </dc:creator>
   </cc:Work>
  </rdf:RDF>
 </metadata>
 <defs>
  <style type="text/css">*{stroke-linecap:butt;stroke-linejoin:round;}</style>
 </defs>
 <g id="figure_1">
  <g id="patch_1">
   <path d="M 0 288 
L 432 288 
L 432 0 
L 0 0 
z
" style="fill:#ffffff;"/>
  </g>
  <g id="axes_1">
   <g id="patch_2">
    <path d="M 22.488283 273.025354 
L 429.165354 273.025354 
L 429.165354 2.834646 
L 22.488283 2.834646 
z
" style="fill:#ffffff;"/>
   </g>
   <g id="matplotlib.axis_1">
    <g id="xtick_1">
     <g id="line2d_1">
      <path clip-path="url(#p4ec33b1805)" d="M 33.998012 273.025354 
L 33.998012 2.834646 
" style="fill:none;stroke:#000000;stroke-linecap:square;stroke-opacity:0.1;stroke-width:0.5;"/>
     </g>
     <g id="line2d_2">
      <defs>
       <path d="M 0 0 
L 0 -2.5 
" id="md4c6f2e3a4" style="stroke:#000000;stroke-width:0.5;"/>
      </defs>
      <g>
       <use style="stroke:#000000;stroke-width:0.5;" x="33.998012" xlink:href="#md4c6f2e3a4" y="273.025354"/>
      </g>
     </g>
     <g id="text_1">
      <!-- $\mathregular{0}$ -->
      <g transform="translate(31.438012 282.604104)scale(0.08 -0.08)">
       <defs>
        <path d="M 31.78125 66.40625 
Q 24.171875 66.40625 20.328125 58.90625 
Q 16.5 51.421875 16.5 36.375 
Q 16.5 21.390625 20.328125 13.890625 
Q 24.171875 6.390625 31.78125 6.390625 
Q 39.453125 6.390625 43.28125 13.890625 
Q 47.125 21.390625 47.125 36.375 
Q 47.125 51.421875 43.28125 58.90625 
Q 39.453125 66.40625 31.78125 66.40625 
z
M 31.78125 74.21875 
Q 44.046875 74.21875 50.515625 64.515625 
Q 56.984375 54.828125 56.984375 36.375 
Q 56.984375 17.96875 50.515625 8.265625 
Q 44.046875 -1.421875 31.78125 -1.421875 
Q 19.53125 -1.421875 13.0625 8.265625 
Q 6.59375 17.96875 6.59375 36.375 
Q 6.59375 54.828125 13.0625 64.515625 
Q 19.53125 74.21875 31.78125 74.21875 
z
" id="DejaVuSans-48"/>
       </defs>
       <use transform="translate(0 0.78125)" xlink:href="#DejaVuSans-48"/>
      </g>
     </g>
    </g>
    <g id="xtick_2">
     <g id="line2d_3">
      <path clip-path="url(#p4ec33b1805)" d="M 129.912415 273.025354 
L 129.912415 2.834646 
" style="fill:none;stroke:#000000;stroke-linecap:square;stroke-opacity:0.1;stroke-width:0.5;"/>
     </g>
     <g id="line2d_4">
      <g>
       <use style="stroke:#000000;stroke-width:0.5;" x="129.912415" xlink:href="#md4c6f2e3a4" y="273.025354"/>
      </g>
     </g>
     <g id="text_2">
      <!-- $\mathregular{25}$ -->
      <g transform="translate(124.792415 282.604104)scale(0.08 -0.08)">
       <defs>
        <path d="M 19.1875 8.296875 
L 53.609375 8.296875 
L 53.609375 0 
L 7.328125 0 
L 7.328125 8.296875 
Q 12.9375 14.109375 22.625 23.890625 
Q 32.328125 33.6875 34.8125 36.53125 
Q 39.546875 41.84375 41.421875 45.53125 
Q 43.3125 49.21875 43.3125 52.78125 
Q 43.3125 58.59375 39.234375 62.25 
Q 35.15625 65.921875 28.609375 65.921875 
Q 23.96875 65.921875 18.8125 64.3125 
Q 13.671875 62.703125 7.8125 59.421875 
L 7.8125 69.390625 
Q 13.765625 71.78125 18.9375 73 
Q 24.125 74.21875 28.421875 74.21875 
Q 39.75 74.21875 46.484375 68.546875 
Q 53.21875 62.890625 53.21875 53.421875 
Q 53.21875 48.921875 51.53125 44.890625 
Q 49.859375 40.875 45.40625 35.40625 
Q 44.1875 33.984375 37.640625 27.21875 
Q 31.109375 20.453125 19.1875 8.296875 
z
" id="DejaVuSans-50"/>
        <path d="M 10.796875 72.90625 
L 49.515625 72.90625 
L 49.515625 64.59375 
L 19.828125 64.59375 
L 19.828125 46.734375 
Q 21.96875 47.46875 24.109375 47.828125 
Q 26.265625 48.1875 28.421875 48.1875 
Q 40.625 48.1875 47.75 41.5 
Q 54.890625 34.8125 54.890625 23.390625 
Q 54.890625 11.625 47.5625 5.09375 
Q 40.234375 -1.421875 26.90625 -1.421875 
Q 22.3125 -1.421875 17.546875 -0.640625 
Q 12.796875 0.140625 7.71875 1.703125 
L 7.71875 11.625 
Q 12.109375 9.234375 16.796875 8.0625 
Q 21.484375 6.890625 26.703125 6.890625 
Q 35.15625 6.890625 40.078125 11.328125 
Q 45.015625 15.765625 45.015625 23.390625 
Q 45.015625 31 40.078125 35.4375 
Q 35.15625 39.890625 26.703125 39.890625 
Q 22.75 39.890625 18.8125 39.015625 
Q 14.890625 38.140625 10.796875 36.28125 
z
" id="DejaVuSans-53"/>
       </defs>
       <use transform="translate(0 0.78125)" xlink:href="#DejaVuSans-50"/>
       <use transform="translate(63.623047 0.78125)" xlink:href="#DejaVuSans-53"/>
      </g>
     </g>
    </g>
    <g id="xtick_3">
     <g id="line2d_5">
      <path clip-path="url(#p4ec33b1805)" d="M 225.826819 273.025354 
L 225.826819 2.834646 
" style="fill:none;stroke:#000000;stroke-linecap:square;stroke-opacity:0.1;stroke-width:0.5;"/>
     </g>
     <g id="line2d_6">
      <g>
       <use style="stroke:#000000;stroke-width:0.5;" x="225.826819" xlink:href="#md4c6f2e3a4" y="273.025354"/>
      </g>
     </g>
     <g id="text_3">
      <!-- $\mathregular{50}$ -->
      <g transform="translate(220.706819 282.604104)scale(0.08 -0.08)">
       <use transform="translate(0 0.78125)" xlink:href="#DejaVuSans-53"/>
       <use transform="translate(63.623047 0.78125)" xlink:href="#DejaVuSans-48"/>
      </g>
     </g>
    </g>
    <g id="xtick_4">
     <g id="line2d_7">
      <path clip-path="url(#p4ec33b1805)" d="M 321.741222 273.025354 
L 321.741222 2.834646 
" style="fill:none;stroke:#000000;stroke-linecap:square;stroke-opacity:0.1;stroke-width:0.5;"/>
     </g>
     <g id="line2d_8">
      <g>
       <use style="stroke:#000000;stroke-width:0.5;" x="321.741222" xlink:href="#md4c6f2e3a4" y="273.025354"/>
      </g>
     </g>
     <g id="text_4">
      <!-- $\mathregular{75}$ -->
      <g transform="translate(316.621222 282.604104)scale(0.08 -0.08)">
       <defs>
        <path d="M 8.203125 72.90625 
L 55.078125 72.90625 
L 55.078125 68.703125 
L 28.609375 0 
L 18.3125 0 
L 43.21875 64.59375 
L 8.203125 64.59375 
z
" id="DejaVuSans-55"/>
       </defs>
       <use transform="translate(0 0.09375)" xlink:href="#DejaVuSans-55"/>
       <use transform="translate(63.623047 0.09375)" xlink:href="#DejaVuSans-53"/>
      </g>
     </g>
    </g>
    <g id="xtick_5">
     <g id="line2d_9">
      <path clip-path="url(#p4ec33b1805)" d="M 417.655626 273.025354 
L 417.655626 2.834646 
" style="fill:none;stroke:#000000;stroke-linecap:square;stroke-opacity:0.1;stroke-width:0.5;"/>
     </g>
     <g id="line2d_10">
      <g>
       <use style="stroke:#000000;stroke-width:0.5;" x="417.655626" xlink:href="#md4c6f2e3a4" y="273.025354"/>
      </g>
     </g>
     <g id="text_5">
      <!-- $\mathregular{100}$ -->
      <g transform="translate(410.015626 282.604104)scale(0.08 -0.08)">
       <defs>
        <path d="M 12.40625 8.296875 
L 28.515625 8.296875 
L 28.515625 63.921875 
L 10.984375 60.40625 
L 10.984375 69.390625 
L 28.421875 72.90625 
L 38.28125 72.90625 
L 38.28125 8.296875 
L 54.390625 8.296875 
L 54.390625 0 
L 12.40625 0 
z
" id="DejaVuSans-49"/>
       </defs>
       <use transform="translate(0 0.78125)" xlink:href="#DejaVuSans-49"/>
       <use transform="translate(63.623047 0.78125)" xlink:href="#DejaVuSans-48"/>
       <use transform="translate(127.246094 0.78125)" xlink:href="#DejaVuSans-48"/>
      </g>
     </g>
    </g>
   </g>
   <g id="matplotlib.axis_2">
    <g id="ytick_1">
     <g id="line2d_11">
      <path clip-path="url(#p4ec33b1805)" d="M 22.488283 265.378447 
L 429.165354 265.378447 
" style="fill:none;stroke:#000000;stroke-linecap:square;stroke-opacity:0.1;stroke-width:0.5;"/>
     </g>
     <g id="line2d_12">
      <defs>
       <path d="M 0 0 
L 2.5 0 
" id="m7e81d2ea9d" style="stroke:#000000;stroke-width:0.5;"/>
      </defs>
      <g>
       <use style="stroke:#000000;stroke-width:0.5;" x="22.488283" xlink:href="#m7e81d2ea9d" y="265.378447"/>
      </g>
     </g>
     <g id="text_6">
      <!-- $\mathregular{0}$ -->
      <g transform="translate(13.868283 268.417822)scale(0.08 -0.08)">
       <use transform="translate(0 0.78125)" xlink:href="#DejaVuSans-48"/>
      </g>
     </g>
    </g>
    <g id="ytick_2">
     <g id="line2d_13">
      <path clip-path="url(#p4ec33b1805)" d="M 22.488283 201.654224 
L 429.165354 201.654224 
" style="fill:none;stroke:#000000;stroke-linecap:square;stroke-opacity:0.1;stroke-width:0.5;"/>
     </g>
     <g id="line2d_14">
      <g>
       <use style="stroke:#000000;stroke-width:0.5;" x="22.488283" xlink:href="#m7e81d2ea9d" y="201.654224"/>
      </g>
     </g>
     <g id="text_7">
      <!-- $\mathregular{25}$ -->
      <g transform="translate(8.748283 204.693599)scale(0.08 -0.08)">
       <use transform="translate(0 0.78125)" xlink:href="#DejaVuSans-50"/>
       <use transform="translate(63.623047 0.78125)" xlink:href="#DejaVuSans-53"/>
      </g>
     </g>
    </g>
    <g id="ytick_3">
     <g id="line2d_15">
      <path clip-path="url(#p4ec33b1805)" d="M 22.488283 137.93 
L 429.165354 137.93 
" style="fill:none;stroke:#000000;stroke-linecap:square;stroke-opacity:0.1;stroke-width:0.5;"/>
     </g>
     <g id="line2d_16">
      <g>
       <use style="stroke:#000000;stroke-width:0.5;" x="22.488283" xlink:href="#m7e81d2ea9d" y="137.93"/>
      </g>
     </g>
     <g id="text_8">
      <!-- $\mathregular{50}$ -->
      <g transform="translate(8.748283 140.969375)scale(0.08 -0.08)">
       <use transform="translate(0 0.78125)" xlink:href="#DejaVuSans-53"/>
       <use transform="translate(63.623047 0.78125)" xlink:href="#DejaVuSans-48"/>
      </g>
     </g>
    </g>
    <g id="ytick_4">
     <g id="line2d_17">
      <path clip-path="url(#p4ec33b1805)" d="M 22.488283 74.205776 
L 429.165354 74.205776 
" style="fill:none;stroke:#000000;stroke-linecap:square;stroke-opacity:0.1;stroke-width:0.5;"/>
     </g>
     <g id="line2d_18">
      <g>
       <use style="stroke:#000000;stroke-width:0.5;" x="22.488283" xlink:href="#m7e81d2ea9d" y="74.205776"/>
      </g>
     </g>
     <g id="text_9">
      <!-- $\mathregular{75}$ -->
      <g transform="translate(8.748283 77.245151)scale(0.08 -0.08)">
       <use transform="translate(0 0.09375)" xlink:href="#DejaVuSans-55"/>
       <use transform="translate(63.623047 0.09375)" xlink:href="#DejaVuSans-53"/>
      </g>
     </g>
    </g>
    <g id="ytick_5">
     <g id="line2d_19">
      <path clip-path="url(#p4ec33b1805)" d="M 22.488283 10.481553 
L 429.165354 10.481553 
" style="fill:none;stroke:#000000;stroke-linecap:square;stroke-opacity:0.1;stroke-width:0.5;"/>
     </g>
     <g id="line2d_20">
      <g>
       <use style="stroke:#000000;stroke-width:0.5;" x="22.488283" xlink:href="#m7e81d2ea9d" y="10.481553"/>
      </g>
     </g>
     <g id="text_10">
      <!-- $\mathregular{100}$ -->
      <g transform="translate(3.708283 13.520928)scale(0.08 -0.08)">
       <use transform="translate(0 0.78125)" xlink:href="#DejaVuSans-49"/>
       <use transform="translate(63.623047 0.78125)" xlink:href="#DejaVuSans-48"/>
       <use transform="translate(127.246094 0.78125)" xlink:href="#DejaVuSans-48"/>
      </g>
     </g>
    </g>
   </g>
   <g id="PathCollection_1">
    <defs>
     <path d="M 0 2 
C 0.530406 2 1.03916 1.789267 1.414214 1.414214 
C 1.789267 1.03916 2 0.530406 2 0 
C 2 -0.530406 1.789267 -1.03916 1.414214 -1.414214 
C 1.03916 -1.789267 0.530406 -2 0 -2 
C -0.530406 -2 -1.03916 -1.789267 -1.414214 -1.414214 
C -1.789267 -1.03916 -2 -0.530406 -2 0 
C -2 0.530406 -1.789267 1.03916 -1.414214 1.414214 
C -1.03916 1.789267 -0.530406 2 0 2 
z
" id="m66eec9bc76" style="stroke:#000000;"/>
    </defs>
    <g clip-path="url(#p4ec33b1805)">
     <use style="fill:#009afa;stroke:#000000;" x="33.998012" xlink:href="#m66eec9bc76" y="265.378447"/>
     <use style="fill:#009afa;stroke:#000000;" x="54.190518" xlink:href="#m66eec9bc76" y="264.672362"/>
     <use style="fill:#009afa;stroke:#000000;" x="74.383024" xlink:href="#m66eec9bc76" y="262.554105"/>
     <use style="fill:#009afa;stroke:#000000;" x="94.57553" xlink:href="#m66eec9bc76" y="259.023677"/>
     <use style="fill:#009afa;stroke:#000000;" x="114.768036" xlink:href="#m66eec9bc76" y="254.081078"/>
     <use style="fill:#009afa;stroke:#000000;" x="134.960542" xlink:href="#m66eec9bc76" y="247.726308"/>
     <use style="fill:#009afa;stroke:#000000;" x="155.153048" xlink:href="#m66eec9bc76" y="239.959367"/>
     <use style="fill:#009afa;stroke:#000000;" x="175.345554" xlink:href="#m66eec9bc76" y="230.780254"/>
     <use style="fill:#009afa;stroke:#000000;" x="195.53806" xlink:href="#m66eec9bc76" y="220.18897"/>
     <use style="fill:#009afa;stroke:#000000;" x="215.730566" xlink:href="#m66eec9bc76" y="208.185515"/>
     <use style="fill:#009afa;stroke:#000000;" x="235.923072" xlink:href="#m66eec9bc76" y="194.769889"/>
     <use style="fill:#009afa;stroke:#000000;" x="256.115578" xlink:href="#m66eec9bc76" y="179.942092"/>
     <use style="fill:#009afa;stroke:#000000;" x="276.308084" xlink:href="#m66eec9bc76" y="163.702124"/>
     <use style="fill:#009afa;stroke:#000000;" x="296.50059" xlink:href="#m66eec9bc76" y="146.049984"/>
     <use style="fill:#009afa;stroke:#000000;" x="316.693096" xlink:href="#m66eec9bc76" y="126.985673"/>
     <use style="fill:#009afa;stroke:#000000;" x="336.885602" xlink:href="#m66eec9bc76" y="106.509192"/>
     <use style="fill:#009afa;stroke:#000000;" x="357.078108" xlink:href="#m66eec9bc76" y="84.620539"/>
     <use style="fill:#009afa;stroke:#000000;" x="377.270614" xlink:href="#m66eec9bc76" y="61.319714"/>
     <use style="fill:#009afa;stroke:#000000;" x="397.46312" xlink:href="#m66eec9bc76" y="36.606719"/>
     <use style="fill:#009afa;stroke:#000000;" x="417.655626" xlink:href="#m66eec9bc76" y="10.481553"/>
    </g>
   </g>
   <g id="patch_3">
    <path d="M 22.488283 273.025354 
L 22.488283 2.834646 
" style="fill:none;stroke:#000000;stroke-linecap:square;stroke-linejoin:miter;"/>
   </g>
   <g id="patch_4">
    <path d="M 22.488283 273.025354 
L 429.165354 273.025354 
" style="fill:none;stroke:#000000;stroke-linecap:square;stroke-linejoin:miter;"/>
   </g>
   <g id="legend_1">
    <g id="patch_5">
     <path d="M 26.488283 27.377146 
L 71.513283 27.377146 
L 71.513283 6.834646 
L 26.488283 6.834646 
z
" style="fill:#ffffff;stroke:#000000;stroke-linejoin:miter;"/>
    </g>
    <g id="line2d_21">
     <path d="M 32.888283 16.513396 
L 48.888283 16.513396 
" style="fill:none;"/>
    </g>
    <g id="line2d_22">
     <defs>
      <path d="M 0 3.2 
C 0.84865 3.2 1.662656 2.862828 2.262742 2.262742 
C 2.862828 1.662656 3.2 0.84865 3.2 0 
C 3.2 -0.84865 2.862828 -1.662656 2.262742 -2.262742 
C 1.662656 -2.862828 0.84865 -3.2 0 -3.2 
C -0.84865 -3.2 -1.662656 -2.862828 -2.262742 -2.262742 
C -2.862828 -1.662656 -3.2 -0.84865 -3.2 0 
C -3.2 0.84865 -2.862828 1.662656 -2.262742 2.262742 
C -1.662656 2.862828 -0.84865 3.2 0 3.2 
z
" id="m672f11c151" style="stroke:#000000;stroke-width:1.6;"/>
     </defs>
     <g>
      <use style="fill:#009afa;stroke:#000000;stroke-width:1.6;" x="40.888283" xlink:href="#m672f11c151" y="16.513396"/>
     </g>
    </g>
    <g id="text_11">
     <!-- y1 -->
     <g transform="translate(55.288283 19.313396)scale(0.08 -0.08)">
      <defs>
       <path d="M 32.171875 -5.078125 
Q 28.375 -14.84375 24.75 -17.8125 
Q 21.140625 -20.796875 15.09375 -20.796875 
L 7.90625 -20.796875 
L 7.90625 -13.28125 
L 13.1875 -13.28125 
Q 16.890625 -13.28125 18.9375 -11.515625 
Q 21 -9.765625 23.484375 -3.21875 
L 25.09375 0.875 
L 2.984375 54.6875 
L 12.5 54.6875 
L 29.59375 11.921875 
L 46.6875 54.6875 
L 56.203125 54.6875 
z
" id="DejaVuSans-121"/>
      </defs>
      <use xlink:href="#DejaVuSans-121"/>
      <use x="59.179688" xlink:href="#DejaVuSans-49"/>
     </g>
    </g>
   </g>
  </g>
 </g>
 <defs>
  <clipPath id="p4ec33b1805">
   <rect height="270.190709" width="406.677071" x="22.488283" y="2.834646"/>
  </clipPath>
 </defs>
</svg>
