<?xml version="1.0" encoding="utf-8"?>
<svg xmlns="http://www.w3.org/2000/svg" xmlns:xlink="http://www.w3.org/1999/xlink" width="600" height="400" viewBox="0 0 2400 1600">
<defs>
  <clipPath id="clip020">
    <rect x="0" y="0" width="2400" height="1600"/>
  </clipPath>
</defs>
<path clip-path="url(#clip020)" d="
M0 1600 L2400 1600 L2400 0 L0 0  Z
  " fill="#ffffff" fill-rule="evenodd" fill-opacity="1"/>
<defs>
  <clipPath id="clip021">
    <rect x="480" y="0" width="1681" height="1600"/>
  </clipPath>
</defs>
<path clip-path="url(#clip020)" d="
M233.631 1410.22 L2352.76 1410.22 L2352.76 123.472 L233.631 123.472  Z
  " fill="#ffffff" fill-rule="evenodd" fill-opacity="1"/>
<defs>
  <clipPath id="clip022">
    <rect x="233" y="123" width="2120" height="1288"/>
  </clipPath>
</defs>
<polyline clip-path="url(#clip022)" style="stroke:#222255; stroke-width:4; stroke-opacity:0.1; fill:none" stroke-dasharray="16, 10" points="
  293.606,1410.22 293.606,123.472 
  "/>
<polyline clip-path="url(#clip022)" style="stroke:#222255; stroke-width:4; stroke-opacity:0.1; fill:none" stroke-dasharray="16, 10" points="
  793.4,1410.22 793.4,123.472 
  "/>
<polyline clip-path="url(#clip022)" style="stroke:#222255; stroke-width:4; stroke-opacity:0.1; fill:none" stroke-dasharray="16, 10" points="
  1293.19,1410.22 1293.19,123.472 
  "/>
<polyline clip-path="url(#clip022)" style="stroke:#222255; stroke-width:4; stroke-opacity:0.1; fill:none" stroke-dasharray="16, 10" points="
  1792.99,1410.22 1792.99,123.472 
  "/>
<polyline clip-path="url(#clip022)" style="stroke:#222255; stroke-width:4; stroke-opacity:0.1; fill:none" stroke-dasharray="16, 10" points="
  2292.78,1410.22 2292.78,123.472 
  "/>
<polyline clip-path="url(#clip022)" style="stroke:#222255; stroke-width:2; stroke-opacity:0.05; fill:none" points="
  393.565,1410.22 393.565,123.472 
  "/>
<polyline clip-path="url(#clip022)" style="stroke:#222255; stroke-width:2; stroke-opacity:0.05; fill:none" points="
  493.524,1410.22 493.524,123.472 
  "/>
<polyline clip-path="url(#clip022)" style="stroke:#222255; stroke-width:2; stroke-opacity:0.05; fill:none" points="
  593.482,1410.22 593.482,123.472 
  "/>
<polyline clip-path="url(#clip022)" style="stroke:#222255; stroke-width:2; stroke-opacity:0.05; fill:none" points="
  693.441,1410.22 693.441,123.472 
  "/>
<polyline clip-path="url(#clip022)" style="stroke:#222255; stroke-width:2; stroke-opacity:0.05; fill:none" points="
  893.359,1410.22 893.359,123.472 
  "/>
<polyline clip-path="url(#clip022)" style="stroke:#222255; stroke-width:2; stroke-opacity:0.05; fill:none" points="
  993.317,1410.22 993.317,123.472 
  "/>
<polyline clip-path="url(#clip022)" style="stroke:#222255; stroke-width:2; stroke-opacity:0.05; fill:none" points="
  1093.28,1410.22 1093.28,123.472 
  "/>
<polyline clip-path="url(#clip022)" style="stroke:#222255; stroke-width:2; stroke-opacity:0.05; fill:none" points="
  1193.23,1410.22 1193.23,123.472 
  "/>
<polyline clip-path="url(#clip022)" style="stroke:#222255; stroke-width:2; stroke-opacity:0.05; fill:none" points="
  1393.15,1410.22 1393.15,123.472 
  "/>
<polyline clip-path="url(#clip022)" style="stroke:#222255; stroke-width:2; stroke-opacity:0.05; fill:none" points="
  1493.11,1410.22 1493.11,123.472 
  "/>
<polyline clip-path="url(#clip022)" style="stroke:#222255; stroke-width:2; stroke-opacity:0.05; fill:none" points="
  1593.07,1410.22 1593.07,123.472 
  "/>
<polyline clip-path="url(#clip022)" style="stroke:#222255; stroke-width:2; stroke-opacity:0.05; fill:none" points="
  1693.03,1410.22 1693.03,123.472 
  "/>
<polyline clip-path="url(#clip022)" style="stroke:#222255; stroke-width:2; stroke-opacity:0.05; fill:none" points="
  1892.95,1410.22 1892.95,123.472 
  "/>
<polyline clip-path="url(#clip022)" style="stroke:#222255; stroke-width:2; stroke-opacity:0.05; fill:none" points="
  1992.9,1410.22 1992.9,123.472 
  "/>
<polyline clip-path="url(#clip022)" style="stroke:#222255; stroke-width:2; stroke-opacity:0.05; fill:none" points="
  2092.86,1410.22 2092.86,123.472 
  "/>
<polyline clip-path="url(#clip022)" style="stroke:#222255; stroke-width:2; stroke-opacity:0.05; fill:none" points="
  2192.82,1410.22 2192.82,123.472 
  "/>
<polyline clip-path="url(#clip020)" style="stroke:#000000; stroke-width:4; stroke-opacity:1; fill:none" points="
  233.631,1410.22 2352.76,1410.22 
  "/>
<polyline clip-path="url(#clip020)" style="stroke:#000000; stroke-width:4; stroke-opacity:1; fill:none" points="
  233.631,123.472 2352.76,123.472 
  "/>
<polyline clip-path="url(#clip020)" style="stroke:#000000; stroke-width:4; stroke-opacity:1; fill:none" points="
  293.606,1410.22 293.606,1394.78 
  "/>
<polyline clip-path="url(#clip020)" style="stroke:#000000; stroke-width:4; stroke-opacity:1; fill:none" points="
  793.4,1410.22 793.4,1394.78 
  "/>
<polyline clip-path="url(#clip020)" style="stroke:#000000; stroke-width:4; stroke-opacity:1; fill:none" points="
  1293.19,1410.22 1293.19,1394.78 
  "/>
<polyline clip-path="url(#clip020)" style="stroke:#000000; stroke-width:4; stroke-opacity:1; fill:none" points="
  1792.99,1410.22 1792.99,1394.78 
  "/>
<polyline clip-path="url(#clip020)" style="stroke:#000000; stroke-width:4; stroke-opacity:1; fill:none" points="
  2292.78,1410.22 2292.78,1394.78 
  "/>
<polyline clip-path="url(#clip020)" style="stroke:#000000; stroke-width:4; stroke-opacity:1; fill:none" points="
  393.565,1410.22 393.565,1402.5 
  "/>
<polyline clip-path="url(#clip020)" style="stroke:#000000; stroke-width:4; stroke-opacity:1; fill:none" points="
  493.524,1410.22 493.524,1402.5 
  "/>
<polyline clip-path="url(#clip020)" style="stroke:#000000; stroke-width:4; stroke-opacity:1; fill:none" points="
  593.482,1410.22 593.482,1402.5 
  "/>
<polyline clip-path="url(#clip020)" style="stroke:#000000; stroke-width:4; stroke-opacity:1; fill:none" points="
  693.441,1410.22 693.441,1402.5 
  "/>
<polyline clip-path="url(#clip020)" style="stroke:#000000; stroke-width:4; stroke-opacity:1; fill:none" points="
  893.359,1410.22 893.359,1402.5 
  "/>
<polyline clip-path="url(#clip020)" style="stroke:#000000; stroke-width:4; stroke-opacity:1; fill:none" points="
  993.317,1410.22 993.317,1402.5 
  "/>
<polyline clip-path="url(#clip020)" style="stroke:#000000; stroke-width:4; stroke-opacity:1; fill:none" points="
  1093.28,1410.22 1093.28,1402.5 
  "/>
<polyline clip-path="url(#clip020)" style="stroke:#000000; stroke-width:4; stroke-opacity:1; fill:none" points="
  1193.23,1410.22 1193.23,1402.5 
  "/>
<polyline clip-path="url(#clip020)" style="stroke:#000000; stroke-width:4; stroke-opacity:1; fill:none" points="
  1393.15,1410.22 1393.15,1402.5 
  "/>
<polyline clip-path="url(#clip020)" style="stroke:#000000; stroke-width:4; stroke-opacity:1; fill:none" points="
  1493.11,1410.22 1493.11,1402.5 
  "/>
<polyline clip-path="url(#clip020)" style="stroke:#000000; stroke-width:4; stroke-opacity:1; fill:none" points="
  1593.07,1410.22 1593.07,1402.5 
  "/>
<polyline clip-path="url(#clip020)" style="stroke:#000000; stroke-width:4; stroke-opacity:1; fill:none" points="
  1693.03,1410.22 1693.03,1402.5 
  "/>
<polyline clip-path="url(#clip020)" style="stroke:#000000; stroke-width:4; stroke-opacity:1; fill:none" points="
  1892.95,1410.22 1892.95,1402.5 
  "/>
<polyline clip-path="url(#clip020)" style="stroke:#000000; stroke-width:4; stroke-opacity:1; fill:none" points="
  1992.9,1410.22 1992.9,1402.5 
  "/>
<polyline clip-path="url(#clip020)" style="stroke:#000000; stroke-width:4; stroke-opacity:1; fill:none" points="
  2092.86,1410.22 2092.86,1402.5 
  "/>
<polyline clip-path="url(#clip020)" style="stroke:#000000; stroke-width:4; stroke-opacity:1; fill:none" points="
  2192.82,1410.22 2192.82,1402.5 
  "/>
<path clip-path="url(#clip020)" d="M 0 0 M280.297 1461.03 Q280.297 1451.74 282.644 1446.68 Q285.917 1439.14 293.637 1439.14 Q295.274 1439.14 296.972 1439.6 Q298.701 1440.04 300.863 1441.73 Q303.055 1443.43 304.383 1446.21 Q306.915 1451.58 306.915 1461.03 Q306.915 1470.27 304.568 1475.3 Q301.141 1482.65 293.575 1482.65 Q290.734 1482.65 287.832 1481.2 Q284.96 1479.75 283.138 1476.26 Q280.297 1471.04 280.297 1461.03 M285.547 1460.26 Q285.547 1469.8 286.226 1473.6 Q286.998 1477.71 289.098 1479.5 Q291.228 1481.26 293.575 1481.26 Q296.107 1481.26 298.207 1479.38 Q300.338 1477.46 300.986 1473.35 Q301.696 1469.31 301.666 1460.26 Q301.666 1451.46 301.048 1447.94 Q300.214 1443.83 297.991 1442.2 Q295.799 1440.53 293.575 1440.53 Q292.742 1440.53 291.846 1440.78 Q290.981 1441.02 289.715 1441.73 Q288.449 1442.44 287.461 1444.2 Q286.504 1445.96 286.041 1448.62 Q285.547 1452.05 285.547 1460.26 Z" fill="#808080" fill-rule="evenodd" fill-opacity="1" /><path clip-path="url(#clip020)" d="M 0 0 M766.566 1481.26 Q766.566 1480.12 766.658 1479.78 Q766.782 1479.44 767.276 1478.91 L779.411 1465.39 Q786.051 1457.92 786.051 1451.4 Q786.051 1447.17 783.827 1444.14 Q781.635 1441.12 777.59 1441.12 Q774.81 1441.12 772.464 1442.82 Q770.117 1444.51 769.036 1447.54 Q769.221 1447.48 769.87 1447.48 Q771.445 1447.48 772.309 1448.47 Q773.205 1449.45 773.205 1450.78 Q773.205 1452.48 772.093 1453.31 Q771.012 1454.12 769.932 1454.12 Q769.499 1454.12 768.913 1454.02 Q768.357 1453.93 767.461 1453.07 Q766.566 1452.17 766.566 1450.6 Q766.566 1446.18 769.901 1442.66 Q773.267 1439.14 778.392 1439.14 Q784.198 1439.14 787.996 1442.6 Q791.825 1446.03 791.825 1451.4 Q791.825 1453.28 791.238 1455.01 Q790.682 1456.71 789.91 1458.04 Q789.169 1459.37 787.131 1461.5 Q785.093 1463.63 783.457 1465.14 Q781.82 1466.65 778.145 1469.87 L771.445 1476.38 L782.839 1476.38 Q788.397 1476.38 788.83 1475.89 Q789.447 1474.99 790.219 1470.27 L791.825 1470.27 L790.034 1481.26 L766.566 1481.26 Z" fill="#808080" fill-rule="evenodd" fill-opacity="1" /><path clip-path="url(#clip020)" d="M 0 0 M794.975 1471.07 Q794.975 1469.19 795.994 1468.48 Q797.013 1467.73 798.093 1467.73 Q799.545 1467.73 800.378 1468.66 Q801.243 1469.56 801.243 1470.82 Q801.243 1472.09 800.378 1473.02 Q799.545 1473.91 798.093 1473.91 Q797.383 1473.91 797.013 1473.79 Q797.846 1476.69 800.378 1478.79 Q802.941 1480.89 806.307 1480.89 Q810.538 1480.89 813.07 1476.78 Q814.583 1474.13 814.583 1468.11 Q814.583 1462.79 813.44 1460.14 Q811.68 1456.09 808.067 1456.09 Q802.941 1456.09 799.915 1460.51 Q799.545 1461.06 799.112 1461.1 Q798.495 1461.1 798.34 1460.76 Q798.217 1460.39 798.217 1459.43 L798.217 1440.72 Q798.217 1439.2 798.835 1439.2 Q799.082 1439.2 799.606 1439.39 Q803.59 1441.15 808.006 1441.18 Q812.545 1441.18 816.621 1439.33 Q816.93 1439.14 817.115 1439.14 Q817.733 1439.14 817.763 1439.85 Q817.763 1440.1 817.239 1440.84 Q816.744 1441.55 815.664 1442.51 Q814.583 1443.43 813.193 1444.33 Q811.804 1445.22 809.766 1445.84 Q807.759 1446.43 805.535 1446.43 Q802.88 1446.43 800.162 1445.59 L800.162 1457.92 Q803.436 1454.7 808.191 1454.7 Q813.255 1454.7 816.744 1458.78 Q820.234 1462.86 820.234 1468.54 Q820.234 1474.5 816.096 1478.57 Q811.989 1482.65 806.431 1482.65 Q801.367 1482.65 798.155 1479.04 Q794.975 1475.42 794.975 1471.07 Z" fill="#808080" fill-rule="evenodd" fill-opacity="1" /><path clip-path="url(#clip020)" d="M 0 0 M1266.02 1471.07 Q1266.02 1469.19 1267.04 1468.48 Q1268.06 1467.73 1269.14 1467.73 Q1270.59 1467.73 1271.42 1468.66 Q1272.29 1469.56 1272.29 1470.82 Q1272.29 1472.09 1271.42 1473.02 Q1270.59 1473.91 1269.14 1473.91 Q1268.43 1473.91 1268.06 1473.79 Q1268.89 1476.69 1271.42 1478.79 Q1273.99 1480.89 1277.35 1480.89 Q1281.58 1480.89 1284.11 1476.78 Q1285.63 1474.13 1285.63 1468.11 Q1285.63 1462.79 1284.49 1460.14 Q1282.73 1456.09 1279.11 1456.09 Q1273.99 1456.09 1270.96 1460.51 Q1270.59 1461.06 1270.16 1461.1 Q1269.54 1461.1 1269.39 1460.76 Q1269.26 1460.39 1269.26 1459.43 L1269.26 1440.72 Q1269.26 1439.2 1269.88 1439.2 Q1270.13 1439.2 1270.65 1439.39 Q1274.64 1441.15 1279.05 1441.18 Q1283.59 1441.18 1287.67 1439.33 Q1287.97 1439.14 1288.16 1439.14 Q1288.78 1439.14 1288.81 1439.85 Q1288.81 1440.1 1288.28 1440.84 Q1287.79 1441.55 1286.71 1442.51 Q1285.63 1443.43 1284.24 1444.33 Q1282.85 1445.22 1280.81 1445.84 Q1278.8 1446.43 1276.58 1446.43 Q1273.92 1446.43 1271.21 1445.59 L1271.21 1457.92 Q1274.48 1454.7 1279.24 1454.7 Q1284.3 1454.7 1287.79 1458.78 Q1291.28 1462.86 1291.28 1468.54 Q1291.28 1474.5 1287.14 1478.57 Q1283.03 1482.65 1277.48 1482.65 Q1272.41 1482.65 1269.2 1479.04 Q1266.02 1475.42 1266.02 1471.07 Z" fill="#808080" fill-rule="evenodd" fill-opacity="1" /><path clip-path="url(#clip020)" d="M 0 0 M1293.75 1461.03 Q1293.75 1451.74 1296.1 1446.68 Q1299.37 1439.14 1307.09 1439.14 Q1308.73 1439.14 1310.42 1439.6 Q1312.15 1440.04 1314.31 1441.73 Q1316.51 1443.43 1317.84 1446.21 Q1320.37 1451.58 1320.37 1461.03 Q1320.37 1470.27 1318.02 1475.3 Q1314.59 1482.65 1307.03 1482.65 Q1304.19 1482.65 1301.28 1481.2 Q1298.41 1479.75 1296.59 1476.26 Q1293.75 1471.04 1293.75 1461.03 M1299 1460.26 Q1299 1469.8 1299.68 1473.6 Q1300.45 1477.71 1302.55 1479.5 Q1304.68 1481.26 1307.03 1481.26 Q1309.56 1481.26 1311.66 1479.38 Q1313.79 1477.46 1314.44 1473.35 Q1315.15 1469.31 1315.12 1460.26 Q1315.12 1451.46 1314.5 1447.94 Q1313.67 1443.83 1311.44 1442.2 Q1309.25 1440.53 1307.03 1440.53 Q1306.19 1440.53 1305.3 1440.78 Q1304.43 1441.02 1303.17 1441.73 Q1301.9 1442.44 1300.91 1444.2 Q1299.96 1445.96 1299.49 1448.62 Q1299 1452.05 1299 1460.26 Z" fill="#808080" fill-rule="evenodd" fill-opacity="1" /><path clip-path="url(#clip020)" d="M 0 0 M1765.23 1451.52 L1767.3 1438.52 L1768.87 1438.52 Q1769.06 1439.3 1769.36 1439.63 Q1769.7 1439.97 1771.5 1440.25 Q1773.32 1440.53 1776.99 1440.53 L1792.34 1440.53 Q1792.34 1441.98 1791.78 1442.75 L1783.23 1454.77 Q1780.51 1458.56 1779.31 1465.57 Q1778.6 1470.27 1778.63 1475.95 L1778.63 1479.16 Q1778.63 1482.65 1775.69 1482.65 Q1772.79 1482.65 1772.79 1479.16 Q1772.79 1467.09 1780.57 1455.38 Q1781.41 1454.18 1784.46 1449.89 Q1787.55 1445.59 1787.68 1445.41 L1774.58 1445.41 Q1768.84 1445.41 1768.38 1445.78 Q1767.76 1446.34 1766.8 1451.52 L1765.23 1451.52 Z" fill="#808080" fill-rule="evenodd" fill-opacity="1" /><path clip-path="url(#clip020)" d="M 0 0 M1795.49 1471.07 Q1795.49 1469.19 1796.51 1468.48 Q1797.53 1467.73 1798.61 1467.73 Q1800.06 1467.73 1800.89 1468.66 Q1801.76 1469.56 1801.76 1470.82 Q1801.76 1472.09 1800.89 1473.02 Q1800.06 1473.91 1798.61 1473.91 Q1797.9 1473.91 1797.53 1473.79 Q1798.36 1476.69 1800.89 1478.79 Q1803.46 1480.89 1806.82 1480.89 Q1811.05 1480.89 1813.58 1476.78 Q1815.1 1474.13 1815.1 1468.11 Q1815.1 1462.79 1813.95 1460.14 Q1812.19 1456.09 1808.58 1456.09 Q1803.46 1456.09 1800.43 1460.51 Q1800.06 1461.06 1799.63 1461.1 Q1799.01 1461.1 1798.85 1460.76 Q1798.73 1460.39 1798.73 1459.43 L1798.73 1440.72 Q1798.73 1439.2 1799.35 1439.2 Q1799.6 1439.2 1800.12 1439.39 Q1804.1 1441.15 1808.52 1441.18 Q1813.06 1441.18 1817.13 1439.33 Q1817.44 1439.14 1817.63 1439.14 Q1818.25 1439.14 1818.28 1439.85 Q1818.28 1440.1 1817.75 1440.84 Q1817.26 1441.55 1816.18 1442.51 Q1815.1 1443.43 1813.71 1444.33 Q1812.32 1445.22 1810.28 1445.84 Q1808.27 1446.43 1806.05 1446.43 Q1803.39 1446.43 1800.68 1445.59 L1800.68 1457.92 Q1803.95 1454.7 1808.7 1454.7 Q1813.77 1454.7 1817.26 1458.78 Q1820.75 1462.86 1820.75 1468.54 Q1820.75 1474.5 1816.61 1478.57 Q1812.5 1482.65 1806.94 1482.65 Q1801.88 1482.65 1798.67 1479.04 Q1795.49 1475.42 1795.49 1471.07 Z" fill="#808080" fill-rule="evenodd" fill-opacity="1" /><path clip-path="url(#clip020)" d="M 0 0 M2253.26 1445.16 L2253.26 1443.19 Q2260.85 1443.19 2264.77 1439.14 Q2265.85 1439.14 2266.04 1439.39 Q2266.22 1439.63 2266.22 1440.78 L2266.22 1476.26 Q2266.22 1478.14 2267.15 1478.73 Q2268.08 1479.31 2272.12 1479.31 L2274.13 1479.31 L2274.13 1481.26 Q2271.91 1481.07 2263.88 1481.07 Q2255.85 1481.07 2253.66 1481.26 L2253.66 1479.31 L2255.66 1479.31 Q2259.65 1479.31 2260.6 1478.76 Q2261.56 1478.17 2261.56 1476.26 L2261.56 1443.49 Q2258.26 1445.16 2253.26 1445.16 Z" fill="#808080" fill-rule="evenodd" fill-opacity="1" /><path clip-path="url(#clip020)" d="M 0 0 M2276.6 1461.03 Q2276.6 1451.74 2278.95 1446.68 Q2282.22 1439.14 2289.94 1439.14 Q2291.58 1439.14 2293.27 1439.6 Q2295 1440.04 2297.17 1441.73 Q2299.36 1443.43 2300.69 1446.21 Q2303.22 1451.58 2303.22 1461.03 Q2303.22 1470.27 2300.87 1475.3 Q2297.44 1482.65 2289.88 1482.65 Q2287.04 1482.65 2284.13 1481.2 Q2281.26 1479.75 2279.44 1476.26 Q2276.6 1471.04 2276.6 1461.03 M2281.85 1460.26 Q2281.85 1469.8 2282.53 1473.6 Q2283.3 1477.71 2285.4 1479.5 Q2287.53 1481.26 2289.88 1481.26 Q2292.41 1481.26 2294.51 1479.38 Q2296.64 1477.46 2297.29 1473.35 Q2298 1469.31 2297.97 1460.26 Q2297.97 1451.46 2297.35 1447.94 Q2296.52 1443.83 2294.29 1442.2 Q2292.1 1440.53 2289.88 1440.53 Q2289.04 1440.53 2288.15 1440.78 Q2287.28 1441.02 2286.02 1441.73 Q2284.75 1442.44 2283.76 1444.2 Q2282.81 1445.96 2282.34 1448.62 Q2281.85 1452.05 2281.85 1460.26 Z" fill="#808080" fill-rule="evenodd" fill-opacity="1" /><path clip-path="url(#clip020)" d="M 0 0 M2305.69 1461.03 Q2305.69 1451.74 2308.03 1446.68 Q2311.31 1439.14 2319.03 1439.14 Q2320.66 1439.14 2322.36 1439.6 Q2324.09 1440.04 2326.25 1441.73 Q2328.45 1443.43 2329.77 1446.21 Q2332.31 1451.58 2332.31 1461.03 Q2332.31 1470.27 2329.96 1475.3 Q2326.53 1482.65 2318.97 1482.65 Q2316.13 1482.65 2313.22 1481.2 Q2310.35 1479.75 2308.53 1476.26 Q2305.69 1471.04 2305.69 1461.03 M2310.94 1460.26 Q2310.94 1469.8 2311.62 1473.6 Q2312.39 1477.71 2314.49 1479.5 Q2316.62 1481.26 2318.97 1481.26 Q2321.5 1481.26 2323.6 1479.38 Q2325.73 1477.46 2326.38 1473.35 Q2327.09 1469.31 2327.06 1460.26 Q2327.06 1451.46 2326.44 1447.94 Q2325.61 1443.83 2323.38 1442.2 Q2321.19 1440.53 2318.97 1440.53 Q2318.13 1440.53 2317.24 1440.78 Q2316.37 1441.02 2315.11 1441.73 Q2313.84 1442.44 2312.85 1444.2 Q2311.89 1445.96 2311.43 1448.62 Q2310.94 1452.05 2310.94 1460.26 Z" fill="#808080" fill-rule="evenodd" fill-opacity="1" /><path clip-path="url(#clip020)" d="M 0 0 M1197.42 1573.23 L1197.42 1570.89 Q1201.46 1570.89 1202.39 1570.41 Q1203.32 1569.89 1203.32 1567.45 L1203.32 1527.98 Q1203.32 1525.17 1202.32 1524.46 Q1201.35 1523.76 1197.42 1523.76 L1197.42 1521.39 L1208.32 1520.57 L1208.32 1567.45 Q1208.32 1569.89 1209.28 1570.41 Q1210.25 1570.89 1214.25 1570.89 L1214.25 1573.23 Q1213.32 1573.23 1211.39 1573.15 Q1209.47 1573.08 1208.06 1573.04 Q1206.65 1573.01 1205.84 1573.01 Q1204.95 1573.01 1197.42 1573.23 Z" fill="#000000" fill-rule="evenodd" fill-opacity="1" /><path clip-path="url(#clip020)" d="M 0 0 M1216.36 1556.52 Q1216.36 1549.36 1220.95 1544.29 Q1225.55 1539.21 1232.15 1539.21 Q1238.82 1539.21 1242.26 1543.55 Q1245.74 1547.88 1245.74 1554.11 Q1245.74 1555.26 1245.45 1555.48 Q1245.15 1555.7 1243.85 1555.7 L1222.66 1555.7 Q1222.66 1563.45 1224.96 1567.08 Q1228.14 1572.15 1233.52 1572.15 Q1234.26 1572.15 1235.15 1572.01 Q1236.04 1571.86 1237.85 1571.23 Q1239.67 1570.56 1241.26 1568.82 Q1242.85 1567.08 1243.78 1564.33 Q1244 1563.26 1244.74 1563.3 Q1245.74 1563.3 1245.74 1564.19 Q1245.74 1564.85 1245 1566.37 Q1244.3 1567.85 1242.93 1569.63 Q1241.56 1571.41 1238.89 1572.75 Q1236.26 1574.08 1233.07 1574.08 Q1226.4 1574.08 1221.36 1569.04 Q1216.36 1563.96 1216.36 1556.52 M1222.73 1554.11 L1240.74 1554.11 Q1240.74 1552.51 1240.45 1550.74 Q1240.19 1548.96 1239.37 1546.51 Q1238.59 1544.03 1236.74 1542.47 Q1234.89 1540.92 1232.15 1540.92 Q1230.92 1540.92 1229.59 1541.43 Q1228.29 1541.95 1226.7 1543.21 Q1225.1 1544.47 1223.99 1547.33 Q1222.88 1550.18 1222.73 1554.11 Z" fill="#000000" fill-rule="evenodd" fill-opacity="1" /><path clip-path="url(#clip020)" d="M 0 0 M1248.19 1573.23 L1248.19 1570.89 Q1252.23 1570.89 1253.16 1570.41 Q1254.08 1569.89 1254.08 1567.45 L1254.08 1547.1 Q1254.08 1544.29 1253.08 1543.58 Q1252.12 1542.88 1248.19 1542.88 L1248.19 1540.51 L1258.86 1539.69 L1258.86 1547.66 Q1262.42 1539.69 1270.09 1539.69 Q1275.8 1539.69 1278.06 1542.51 Q1279.72 1544.4 1280.06 1546.51 Q1280.43 1548.62 1280.43 1554.11 L1280.43 1568.6 Q1280.5 1570.19 1281.72 1570.56 Q1282.95 1570.89 1286.36 1570.89 L1286.36 1573.23 Q1278.61 1573.01 1277.83 1573.01 Q1277.24 1573.01 1269.27 1573.23 L1269.27 1570.89 Q1273.31 1570.89 1274.24 1570.41 Q1275.2 1569.89 1275.2 1567.45 L1275.2 1549.77 Q1275.2 1545.92 1274.02 1543.66 Q1272.83 1541.36 1269.57 1541.36 Q1265.64 1541.36 1262.49 1544.66 Q1259.34 1547.96 1259.34 1553.51 L1259.34 1567.45 Q1259.34 1569.89 1260.27 1570.41 Q1261.23 1570.89 1265.24 1570.89 L1265.24 1573.23 Q1257.49 1573.01 1256.75 1573.01 Q1256.16 1573.01 1248.19 1573.23 Z" fill="#000000" fill-rule="evenodd" fill-opacity="1" /><path clip-path="url(#clip020)" d="M 0 0 M1288.47 1579.23 Q1288.47 1576.79 1290.32 1574.67 Q1292.21 1572.56 1295.47 1571.63 Q1292.14 1569.52 1292.14 1564.89 Q1292.14 1561.33 1294.47 1558.59 Q1290.91 1555.63 1290.91 1550.77 Q1290.91 1546.29 1294.47 1542.99 Q1298.03 1539.69 1303.22 1539.69 Q1307.77 1539.69 1311.26 1542.44 Q1314.89 1538.88 1319.3 1538.84 Q1321.26 1538.84 1322.19 1540.06 Q1323.15 1541.29 1323.15 1542.58 Q1323.15 1543.73 1322.41 1544.29 Q1321.71 1544.84 1320.97 1544.84 Q1320.04 1544.84 1319.37 1544.25 Q1318.74 1543.62 1318.74 1542.66 Q1318.74 1541.06 1319.97 1540.58 Q1319.74 1540.51 1319.22 1540.51 Q1315.52 1540.51 1312.37 1543.47 Q1315.48 1546.36 1315.48 1550.85 Q1315.48 1555.33 1311.92 1558.63 Q1308.37 1561.93 1303.22 1561.93 Q1298.96 1561.93 1295.69 1559.55 Q1294.4 1561.07 1294.4 1563.15 Q1294.4 1565.04 1295.55 1566.52 Q1296.7 1568 1298.44 1568.23 Q1298.96 1568.3 1304.11 1568.3 Q1307.14 1568.3 1308.81 1568.37 Q1310.48 1568.45 1312.85 1568.97 Q1315.26 1569.45 1317.15 1570.41 Q1322.08 1573.15 1322.11 1579.08 Q1322.11 1583.42 1317.11 1586.12 Q1312.15 1588.87 1305.25 1588.87 Q1298.29 1588.87 1293.36 1586.09 Q1288.47 1583.34 1288.47 1579.23 M1292.43 1579.23 Q1292.43 1582.34 1296.1 1584.71 Q1299.77 1587.12 1305.33 1587.12 Q1310.78 1587.12 1314.44 1584.75 Q1318.15 1582.42 1318.15 1579.23 Q1318.15 1576.97 1316.85 1575.53 Q1315.56 1574.08 1312.89 1573.49 Q1310.26 1572.93 1308.4 1572.82 Q1306.55 1572.71 1303.14 1572.71 L1298.66 1572.71 Q1296.07 1572.86 1294.25 1574.75 Q1292.43 1576.64 1292.43 1579.23 M1296.58 1550.85 Q1296.58 1560.18 1303.22 1560.18 Q1306.55 1560.18 1308.59 1557.15 Q1309.81 1555.11 1309.81 1550.77 Q1309.81 1541.43 1303.22 1541.43 Q1299.88 1541.43 1297.81 1544.47 Q1296.58 1546.51 1296.58 1550.85 Z" fill="#000000" fill-rule="evenodd" fill-opacity="1" /><path clip-path="url(#clip020)" d="M 0 0 M1324.6 1542.88 L1324.6 1541.21 Q1328.08 1541.06 1330.38 1538.62 Q1332.71 1536.14 1333.49 1533.1 Q1334.31 1530.06 1334.38 1526.54 L1336.27 1526.54 L1336.27 1540.51 L1347.13 1540.51 L1347.13 1542.88 L1336.27 1542.88 L1336.27 1563.96 Q1336.27 1572.15 1341.38 1572.15 Q1343.57 1572.15 1345.01 1569.93 Q1346.46 1567.67 1346.46 1563.67 L1346.46 1559.48 L1348.35 1559.48 L1348.35 1563.82 Q1348.35 1567.93 1346.46 1571 Q1344.57 1574.08 1340.83 1574.08 Q1339.46 1574.08 1338.09 1573.71 Q1336.75 1573.38 1334.97 1572.49 Q1333.23 1571.56 1332.12 1569.34 Q1331.05 1567.08 1331.05 1563.82 L1331.05 1542.88 L1324.6 1542.88 Z" fill="#000000" fill-rule="evenodd" fill-opacity="1" /><path clip-path="url(#clip020)" d="M 0 0 M1350.8 1573.23 L1350.8 1570.89 Q1354.83 1570.89 1355.76 1570.41 Q1356.69 1569.89 1356.69 1567.45 L1356.69 1527.98 Q1356.69 1525.17 1355.69 1524.46 Q1354.72 1523.76 1350.8 1523.76 L1350.8 1521.39 L1361.69 1520.57 L1361.69 1546.96 L1361.76 1546.96 Q1362.99 1544.21 1365.73 1541.95 Q1368.47 1539.69 1372.69 1539.69 Q1378.4 1539.69 1380.66 1542.51 Q1382.33 1544.4 1382.66 1546.51 Q1383.03 1548.62 1383.03 1554.11 L1383.03 1568.6 Q1383.11 1570.19 1384.33 1570.56 Q1385.55 1570.89 1388.96 1570.89 L1388.96 1573.23 Q1381.22 1573.01 1380.44 1573.01 Q1379.85 1573.01 1371.88 1573.23 L1371.88 1570.89 Q1375.92 1570.89 1376.85 1570.41 Q1377.81 1569.89 1377.81 1567.45 L1377.81 1549.77 Q1377.81 1545.92 1376.62 1543.66 Q1375.44 1541.36 1372.18 1541.36 Q1368.25 1541.36 1365.1 1544.66 Q1361.95 1547.96 1361.95 1553.51 L1361.95 1567.45 Q1361.95 1569.89 1362.88 1570.41 Q1363.84 1570.89 1367.84 1570.89 L1367.84 1573.23 Q1360.1 1573.01 1359.36 1573.01 Q1358.76 1573.01 1350.8 1573.23 Z" fill="#000000" fill-rule="evenodd" fill-opacity="1" /><polyline clip-path="url(#clip022)" style="stroke:#222255; stroke-width:4; stroke-opacity:0.1; fill:none" stroke-dasharray="16, 10" points="
  233.631,1373.8 2352.76,1373.8 
  "/>
<polyline clip-path="url(#clip022)" style="stroke:#222255; stroke-width:4; stroke-opacity:0.1; fill:none" stroke-dasharray="16, 10" points="
  233.631,1070.32 2352.76,1070.32 
  "/>
<polyline clip-path="url(#clip022)" style="stroke:#222255; stroke-width:4; stroke-opacity:0.1; fill:none" stroke-dasharray="16, 10" points="
  233.631,766.846 2352.76,766.846 
  "/>
<polyline clip-path="url(#clip022)" style="stroke:#222255; stroke-width:4; stroke-opacity:0.1; fill:none" stroke-dasharray="16, 10" points="
  233.631,463.368 2352.76,463.368 
  "/>
<polyline clip-path="url(#clip022)" style="stroke:#222255; stroke-width:4; stroke-opacity:0.1; fill:none" stroke-dasharray="16, 10" points="
  233.631,159.89 2352.76,159.89 
  "/>
<polyline clip-path="url(#clip022)" style="stroke:#222255; stroke-width:2; stroke-opacity:0.05; fill:none" points="
  233.631,1313.11 2352.76,1313.11 
  "/>
<polyline clip-path="url(#clip022)" style="stroke:#222255; stroke-width:2; stroke-opacity:0.05; fill:none" points="
  233.631,1252.41 2352.76,1252.41 
  "/>
<polyline clip-path="url(#clip022)" style="stroke:#222255; stroke-width:2; stroke-opacity:0.05; fill:none" points="
  233.631,1191.72 2352.76,1191.72 
  "/>
<polyline clip-path="url(#clip022)" style="stroke:#222255; stroke-width:2; stroke-opacity:0.05; fill:none" points="
  233.631,1131.02 2352.76,1131.02 
  "/>
<polyline clip-path="url(#clip022)" style="stroke:#222255; stroke-width:2; stroke-opacity:0.05; fill:none" points="
  233.631,1009.63 2352.76,1009.63 
  "/>
<polyline clip-path="url(#clip022)" style="stroke:#222255; stroke-width:2; stroke-opacity:0.05; fill:none" points="
  233.631,948.933 2352.76,948.933 
  "/>
<polyline clip-path="url(#clip022)" style="stroke:#222255; stroke-width:2; stroke-opacity:0.05; fill:none" points="
  233.631,888.237 2352.76,888.237 
  "/>
<polyline clip-path="url(#clip022)" style="stroke:#222255; stroke-width:2; stroke-opacity:0.05; fill:none" points="
  233.631,827.542 2352.76,827.542 
  "/>
<polyline clip-path="url(#clip022)" style="stroke:#222255; stroke-width:2; stroke-opacity:0.05; fill:none" points="
  233.631,706.15 2352.76,706.15 
  "/>
<polyline clip-path="url(#clip022)" style="stroke:#222255; stroke-width:2; stroke-opacity:0.05; fill:none" points="
  233.631,645.455 2352.76,645.455 
  "/>
<polyline clip-path="url(#clip022)" style="stroke:#222255; stroke-width:2; stroke-opacity:0.05; fill:none" points="
  233.631,584.759 2352.76,584.759 
  "/>
<polyline clip-path="url(#clip022)" style="stroke:#222255; stroke-width:2; stroke-opacity:0.05; fill:none" points="
  233.631,524.063 2352.76,524.063 
  "/>
<polyline clip-path="url(#clip022)" style="stroke:#222255; stroke-width:2; stroke-opacity:0.05; fill:none" points="
  233.631,402.672 2352.76,402.672 
  "/>
<polyline clip-path="url(#clip022)" style="stroke:#222255; stroke-width:2; stroke-opacity:0.05; fill:none" points="
  233.631,341.976 2352.76,341.976 
  "/>
<polyline clip-path="url(#clip022)" style="stroke:#222255; stroke-width:2; stroke-opacity:0.05; fill:none" points="
  233.631,281.281 2352.76,281.281 
  "/>
<polyline clip-path="url(#clip022)" style="stroke:#222255; stroke-width:2; stroke-opacity:0.05; fill:none" points="
  233.631,220.585 2352.76,220.585 
  "/>
<polyline clip-path="url(#clip020)" style="stroke:#000000; stroke-width:4; stroke-opacity:1; fill:none" points="
  233.631,1410.22 233.631,123.472 
  "/>
<polyline clip-path="url(#clip020)" style="stroke:#000000; stroke-width:4; stroke-opacity:1; fill:none" points="
  2352.76,1410.22 2352.76,123.472 
  "/>
<polyline clip-path="url(#clip020)" style="stroke:#000000; stroke-width:4; stroke-opacity:1; fill:none" points="
  233.631,1373.8 259.06,1373.8 
  "/>
<polyline clip-path="url(#clip020)" style="stroke:#000000; stroke-width:4; stroke-opacity:1; fill:none" points="
  233.631,1070.32 259.06,1070.32 
  "/>
<polyline clip-path="url(#clip020)" style="stroke:#000000; stroke-width:4; stroke-opacity:1; fill:none" points="
  233.631,766.846 259.06,766.846 
  "/>
<polyline clip-path="url(#clip020)" style="stroke:#000000; stroke-width:4; stroke-opacity:1; fill:none" points="
  233.631,463.368 259.06,463.368 
  "/>
<polyline clip-path="url(#clip020)" style="stroke:#000000; stroke-width:4; stroke-opacity:1; fill:none" points="
  233.631,159.89 259.06,159.89 
  "/>
<polyline clip-path="url(#clip020)" style="stroke:#000000; stroke-width:4; stroke-opacity:1; fill:none" points="
  233.631,1313.11 246.346,1313.11 
  "/>
<polyline clip-path="url(#clip020)" style="stroke:#000000; stroke-width:4; stroke-opacity:1; fill:none" points="
  233.631,1252.41 246.346,1252.41 
  "/>
<polyline clip-path="url(#clip020)" style="stroke:#000000; stroke-width:4; stroke-opacity:1; fill:none" points="
  233.631,1191.72 246.346,1191.72 
  "/>
<polyline clip-path="url(#clip020)" style="stroke:#000000; stroke-width:4; stroke-opacity:1; fill:none" points="
  233.631,1131.02 246.346,1131.02 
  "/>
<polyline clip-path="url(#clip020)" style="stroke:#000000; stroke-width:4; stroke-opacity:1; fill:none" points="
  233.631,1009.63 246.346,1009.63 
  "/>
<polyline clip-path="url(#clip020)" style="stroke:#000000; stroke-width:4; stroke-opacity:1; fill:none" points="
  233.631,948.933 246.346,948.933 
  "/>
<polyline clip-path="url(#clip020)" style="stroke:#000000; stroke-width:4; stroke-opacity:1; fill:none" points="
  233.631,888.237 246.346,888.237 
  "/>
<polyline clip-path="url(#clip020)" style="stroke:#000000; stroke-width:4; stroke-opacity:1; fill:none" points="
  233.631,827.542 246.346,827.542 
  "/>
<polyline clip-path="url(#clip020)" style="stroke:#000000; stroke-width:4; stroke-opacity:1; fill:none" points="
  233.631,706.15 246.346,706.15 
  "/>
<polyline clip-path="url(#clip020)" style="stroke:#000000; stroke-width:4; stroke-opacity:1; fill:none" points="
  233.631,645.455 246.346,645.455 
  "/>
<polyline clip-path="url(#clip020)" style="stroke:#000000; stroke-width:4; stroke-opacity:1; fill:none" points="
  233.631,584.759 246.346,584.759 
  "/>
<polyline clip-path="url(#clip020)" style="stroke:#000000; stroke-width:4; stroke-opacity:1; fill:none" points="
  233.631,524.063 246.346,524.063 
  "/>
<polyline clip-path="url(#clip020)" style="stroke:#000000; stroke-width:4; stroke-opacity:1; fill:none" points="
  233.631,402.672 246.346,402.672 
  "/>
<polyline clip-path="url(#clip020)" style="stroke:#000000; stroke-width:4; stroke-opacity:1; fill:none" points="
  233.631,341.976 246.346,341.976 
  "/>
<polyline clip-path="url(#clip020)" style="stroke:#000000; stroke-width:4; stroke-opacity:1; fill:none" points="
  233.631,281.281 246.346,281.281 
  "/>
<polyline clip-path="url(#clip020)" style="stroke:#000000; stroke-width:4; stroke-opacity:1; fill:none" points="
  233.631,220.585 246.346,220.585 
  "/>
<path clip-path="url(#clip020)" d="M 0 0 M171.013 1375.18 Q171.013 1365.88 173.36 1360.82 Q176.633 1353.28 184.353 1353.28 Q185.989 1353.28 187.688 1353.75 Q189.417 1354.18 191.579 1355.88 Q193.771 1357.58 195.099 1360.35 Q197.631 1365.73 197.631 1375.18 Q197.631 1384.41 195.284 1389.44 Q191.856 1396.79 184.291 1396.79 Q181.45 1396.79 178.548 1395.34 Q175.676 1393.89 173.854 1390.4 Q171.013 1385.18 171.013 1375.18 M176.263 1374.4 Q176.263 1383.95 176.942 1387.74 Q177.714 1391.85 179.814 1393.64 Q181.944 1395.4 184.291 1395.4 Q186.823 1395.4 188.923 1393.52 Q191.054 1391.6 191.702 1387.5 Q192.412 1383.45 192.381 1374.4 Q192.381 1365.6 191.764 1362.08 Q190.93 1357.98 188.707 1356.34 Q186.514 1354.67 184.291 1354.67 Q183.457 1354.67 182.562 1354.92 Q181.697 1355.17 180.431 1355.88 Q179.165 1356.59 178.177 1358.35 Q177.22 1360.11 176.757 1362.76 Q176.263 1366.19 176.263 1374.4 Z" fill="#808080" fill-rule="evenodd" fill-opacity="1" /><path clip-path="url(#clip020)" d="M 0 0 M143.963 1091.92 Q143.963 1090.78 144.055 1090.44 Q144.179 1090.1 144.673 1089.58 L156.809 1076.05 Q163.448 1068.58 163.448 1062.06 Q163.448 1057.83 161.224 1054.81 Q159.032 1051.78 154.987 1051.78 Q152.208 1051.78 149.861 1053.48 Q147.514 1055.18 146.433 1058.2 Q146.618 1058.14 147.267 1058.14 Q148.842 1058.14 149.706 1059.13 Q150.602 1060.12 150.602 1061.45 Q150.602 1063.14 149.49 1063.98 Q148.409 1064.78 147.329 1064.78 Q146.896 1064.78 146.31 1064.69 Q145.754 1064.6 144.858 1063.73 Q143.963 1062.84 143.963 1061.26 Q143.963 1056.85 147.298 1053.33 Q150.664 1049.8 155.79 1049.8 Q161.595 1049.8 165.393 1053.26 Q169.222 1056.69 169.222 1062.06 Q169.222 1063.95 168.635 1065.68 Q168.08 1067.38 167.308 1068.7 Q166.566 1070.03 164.528 1072.16 Q162.49 1074.29 160.854 1075.81 Q159.217 1077.32 155.543 1080.53 L148.842 1087.05 L160.236 1087.05 Q165.794 1087.05 166.227 1086.55 Q166.844 1085.66 167.616 1080.93 L169.222 1080.93 L167.431 1091.92 L143.963 1091.92 Z" fill="#808080" fill-rule="evenodd" fill-opacity="1" /><path clip-path="url(#clip020)" d="M 0 0 M172.372 1081.73 Q172.372 1079.85 173.391 1079.14 Q174.41 1078.4 175.491 1078.4 Q176.942 1078.4 177.776 1079.33 Q178.64 1080.22 178.64 1081.49 Q178.64 1082.75 177.776 1083.68 Q176.942 1084.57 175.491 1084.57 Q174.78 1084.57 174.41 1084.45 Q175.243 1087.35 177.776 1089.45 Q180.339 1091.55 183.704 1091.55 Q187.935 1091.55 190.467 1087.45 Q191.98 1084.79 191.98 1078.77 Q191.98 1073.46 190.837 1070.8 Q189.077 1066.76 185.465 1066.76 Q180.339 1066.76 177.312 1071.17 Q176.942 1071.73 176.51 1071.76 Q175.892 1071.76 175.738 1071.42 Q175.614 1071.05 175.614 1070.09 L175.614 1051.38 Q175.614 1049.87 176.232 1049.87 Q176.479 1049.87 177.004 1050.05 Q180.987 1051.81 185.403 1051.84 Q189.942 1051.84 194.018 1049.99 Q194.327 1049.8 194.512 1049.8 Q195.13 1049.8 195.161 1050.52 Q195.161 1050.76 194.636 1051.5 Q194.142 1052.21 193.061 1053.17 Q191.98 1054.1 190.59 1054.99 Q189.201 1055.89 187.163 1056.51 Q185.156 1057.09 182.932 1057.09 Q180.277 1057.09 177.559 1056.26 L177.559 1068.58 Q180.833 1065.37 185.588 1065.37 Q190.652 1065.37 194.142 1069.44 Q197.631 1073.52 197.631 1079.2 Q197.631 1085.16 193.493 1089.24 Q189.386 1093.31 183.828 1093.31 Q178.764 1093.31 175.552 1089.7 Q172.372 1086.09 172.372 1081.73 Z" fill="#808080" fill-rule="evenodd" fill-opacity="1" /><path clip-path="url(#clip020)" d="M 0 0 M143.284 778.256 Q143.284 776.372 144.303 775.662 Q145.322 774.921 146.402 774.921 Q147.854 774.921 148.687 775.847 Q149.552 776.743 149.552 778.009 Q149.552 779.275 148.687 780.201 Q147.854 781.097 146.402 781.097 Q145.692 781.097 145.322 780.973 Q146.155 783.876 148.687 785.976 Q151.25 788.075 154.616 788.075 Q158.847 788.075 161.379 783.969 Q162.892 781.313 162.892 775.291 Q162.892 769.98 161.749 767.325 Q159.989 763.279 156.376 763.279 Q151.25 763.279 148.224 767.695 Q147.854 768.251 147.421 768.282 Q146.804 768.282 146.649 767.942 Q146.526 767.572 146.526 766.614 L146.526 747.902 Q146.526 746.389 147.143 746.389 Q147.39 746.389 147.915 746.574 Q151.899 748.334 156.315 748.365 Q160.854 748.365 164.93 746.512 Q165.239 746.327 165.424 746.327 Q166.041 746.327 166.072 747.037 Q166.072 747.284 165.547 748.025 Q165.053 748.735 163.973 749.693 Q162.892 750.619 161.502 751.514 Q160.113 752.41 158.075 753.028 Q156.068 753.614 153.844 753.614 Q151.189 753.614 148.471 752.781 L148.471 765.101 Q151.744 761.89 156.5 761.89 Q161.564 761.89 165.053 765.966 Q168.543 770.042 168.543 775.724 Q168.543 781.683 164.405 785.759 Q160.298 789.836 154.74 789.836 Q149.676 789.836 146.464 786.223 Q143.284 782.61 143.284 778.256 Z" fill="#808080" fill-rule="evenodd" fill-opacity="1" /><path clip-path="url(#clip020)" d="M 0 0 M171.013 768.22 Q171.013 758.925 173.36 753.861 Q176.633 746.327 184.353 746.327 Q185.989 746.327 187.688 746.79 Q189.417 747.222 191.579 748.921 Q193.771 750.619 195.099 753.398 Q197.631 758.771 197.631 768.22 Q197.631 777.453 195.284 782.486 Q191.856 789.836 184.291 789.836 Q181.45 789.836 178.548 788.384 Q175.676 786.933 173.854 783.444 Q171.013 778.225 171.013 768.22 M176.263 767.448 Q176.263 776.99 176.942 780.788 Q177.714 784.895 179.814 786.686 Q181.944 788.446 184.291 788.446 Q186.823 788.446 188.923 786.562 Q191.054 784.648 191.702 780.541 Q192.412 776.496 192.381 767.448 Q192.381 758.648 191.764 755.127 Q190.93 751.02 188.707 749.384 Q186.514 747.716 184.291 747.716 Q183.457 747.716 182.562 747.963 Q181.697 748.21 180.431 748.921 Q179.165 749.631 178.177 751.391 Q177.22 753.151 176.757 755.807 Q176.263 759.234 176.263 767.448 Z" fill="#808080" fill-rule="evenodd" fill-opacity="1" /><path clip-path="url(#clip020)" d="M 0 0 M142.11 455.231 L144.179 442.231 L145.754 442.231 Q145.939 443.003 146.248 443.343 Q146.588 443.682 148.379 443.96 Q150.2 444.238 153.875 444.238 L169.222 444.238 Q169.222 445.689 168.666 446.461 L160.113 458.473 Q157.395 462.272 156.191 469.281 Q155.481 473.975 155.512 479.657 L155.512 482.868 Q155.512 486.357 152.578 486.357 Q149.676 486.357 149.676 482.868 Q149.676 470.794 157.457 459.091 Q158.291 457.887 161.348 453.594 Q164.436 449.302 164.559 449.117 L151.467 449.117 Q145.723 449.117 145.26 449.488 Q144.642 450.043 143.685 455.231 L142.11 455.231 Z" fill="#808080" fill-rule="evenodd" fill-opacity="1" /><path clip-path="url(#clip020)" d="M 0 0 M172.372 474.778 Q172.372 472.894 173.391 472.184 Q174.41 471.443 175.491 471.443 Q176.942 471.443 177.776 472.369 Q178.64 473.265 178.64 474.531 Q178.64 475.797 177.776 476.723 Q176.942 477.618 175.491 477.618 Q174.78 477.618 174.41 477.495 Q175.243 480.398 177.776 482.497 Q180.339 484.597 183.704 484.597 Q187.935 484.597 190.467 480.49 Q191.98 477.835 191.98 471.813 Q191.98 466.502 190.837 463.846 Q189.077 459.801 185.465 459.801 Q180.339 459.801 177.312 464.217 Q176.942 464.773 176.51 464.804 Q175.892 464.804 175.738 464.464 Q175.614 464.093 175.614 463.136 L175.614 444.423 Q175.614 442.91 176.232 442.91 Q176.479 442.91 177.004 443.096 Q180.987 444.856 185.403 444.887 Q189.942 444.887 194.018 443.034 Q194.327 442.849 194.512 442.849 Q195.13 442.849 195.161 443.559 Q195.161 443.806 194.636 444.547 Q194.142 445.257 193.061 446.214 Q191.98 447.141 190.59 448.036 Q189.201 448.932 187.163 449.549 Q185.156 450.136 182.932 450.136 Q180.277 450.136 177.559 449.302 L177.559 461.623 Q180.833 458.412 185.588 458.412 Q190.652 458.412 194.142 462.488 Q197.631 466.564 197.631 472.246 Q197.631 478.205 193.493 482.281 Q189.386 486.357 183.828 486.357 Q178.764 486.357 175.552 482.744 Q172.372 479.132 172.372 474.778 Z" fill="#808080" fill-rule="evenodd" fill-opacity="1" /><path clip-path="url(#clip020)" d="M 0 0 M118.58 145.392 L118.58 143.415 Q126.176 143.415 130.098 139.37 Q131.179 139.37 131.364 139.617 Q131.549 139.864 131.549 141.007 L131.549 176.487 Q131.549 178.371 132.476 178.957 Q133.402 179.544 137.447 179.544 L139.454 179.544 L139.454 181.49 Q137.231 181.304 129.203 181.304 Q121.174 181.304 118.982 181.49 L118.982 179.544 L120.989 179.544 Q124.972 179.544 125.929 178.988 Q126.887 178.402 126.887 176.487 L126.887 143.724 Q123.583 145.392 118.58 145.392 Z" fill="#808080" fill-rule="evenodd" fill-opacity="1" /><path clip-path="url(#clip020)" d="M 0 0 M141.925 161.264 Q141.925 151.969 144.272 146.905 Q147.545 139.37 155.265 139.37 Q156.901 139.37 158.6 139.833 Q160.329 140.266 162.49 141.964 Q164.683 143.662 166.011 146.442 Q168.543 151.815 168.543 161.264 Q168.543 170.497 166.196 175.53 Q162.768 182.879 155.203 182.879 Q152.362 182.879 149.459 181.428 Q146.588 179.976 144.766 176.487 Q141.925 171.268 141.925 161.264 M147.174 160.492 Q147.174 170.033 147.854 173.831 Q148.626 177.938 150.725 179.729 Q152.856 181.49 155.203 181.49 Q157.735 181.49 159.835 179.606 Q161.965 177.691 162.614 173.584 Q163.324 169.539 163.293 160.492 Q163.293 151.691 162.676 148.171 Q161.842 144.064 159.619 142.427 Q157.426 140.76 155.203 140.76 Q154.369 140.76 153.474 141.007 Q152.609 141.254 151.343 141.964 Q150.077 142.674 149.089 144.434 Q148.132 146.195 147.668 148.85 Q147.174 152.278 147.174 160.492 Z" fill="#808080" fill-rule="evenodd" fill-opacity="1" /><path clip-path="url(#clip020)" d="M 0 0 M171.013 161.264 Q171.013 151.969 173.36 146.905 Q176.633 139.37 184.353 139.37 Q185.989 139.37 187.688 139.833 Q189.417 140.266 191.579 141.964 Q193.771 143.662 195.099 146.442 Q197.631 151.815 197.631 161.264 Q197.631 170.497 195.284 175.53 Q191.856 182.879 184.291 182.879 Q181.45 182.879 178.548 181.428 Q175.676 179.976 173.854 176.487 Q171.013 171.268 171.013 161.264 M176.263 160.492 Q176.263 170.033 176.942 173.831 Q177.714 177.938 179.814 179.729 Q181.944 181.49 184.291 181.49 Q186.823 181.49 188.923 179.606 Q191.054 177.691 191.702 173.584 Q192.412 169.539 192.381 160.492 Q192.381 151.691 191.764 148.171 Q190.93 144.064 188.707 142.427 Q186.514 140.76 184.291 140.76 Q183.457 140.76 182.562 141.007 Q181.697 141.254 180.431 141.964 Q179.165 142.674 178.177 144.434 Q177.22 146.195 176.757 148.85 Q176.263 152.278 176.263 160.492 Z" fill="#808080" fill-rule="evenodd" fill-opacity="1" /><path clip-path="url(#clip020)" d="M 0 0 M36.6801 867.154 L34.3086 867.154 Q34.5309 863.041 34.5309 860.114 Q34.5309 858.668 34.3086 851.813 L36.6801 851.813 Q36.6801 856.297 38.7181 856.297 Q39.1628 856.297 40.0891 855.926 L60.3583 848.701 L41.979 842.179 Q38.2734 843.55 37.8288 843.92 Q36.6801 844.847 36.6801 848.701 L34.3086 848.701 Q34.5309 845.292 34.5309 841.957 Q34.5309 840.66 34.3086 834.064 L36.6801 834.064 Q36.6801 838.547 38.7181 838.547 Q39.0145 838.547 40.1633 838.177 L61.3217 830.655 L41.9048 823.763 Q40.9044 823.392 40.3115 823.355 Q38.644 823.355 37.7176 824.541 Q36.7542 825.726 36.6801 827.764 L34.3086 827.764 Q34.5309 823.429 34.5309 820.724 Q34.5309 817.685 34.3086 815.166 L36.6801 815.166 Q36.8283 819.872 41.5343 821.539 L66.4353 830.432 Q67.8063 831.285 67.8804 831.952 Q67.8804 832.952 66.4353 833.471 L44.8692 841.215 L66.3612 848.886 Q67.2875 849.182 67.584 849.442 Q67.8804 849.701 67.8804 850.405 Q67.8804 851.072 67.4728 851.369 Q67.1023 851.665 66.1759 851.998 L39.311 861.559 Q37.5694 862.226 37.1247 863.226 Q36.6801 864.19 36.6801 867.154 Z" fill="#000000" fill-rule="evenodd" fill-opacity="1" /><path clip-path="url(#clip020)" d="M 0 0 M50.3163 815.166 Q43.1647 815.166 38.0882 810.571 Q33.0116 805.976 33.0116 799.38 Q33.0116 792.71 37.3471 789.264 Q41.6825 785.781 47.9078 785.781 Q49.0565 785.781 49.2788 786.078 Q49.5011 786.374 49.5011 787.671 L49.5011 808.866 Q57.2456 808.866 60.877 806.569 Q65.9536 803.382 65.9536 798.009 Q65.9536 797.268 65.8053 796.379 Q65.6571 795.49 65.0272 793.674 Q64.3602 791.858 62.6186 790.265 Q60.877 788.671 58.1349 787.745 Q57.0604 787.523 57.0974 786.782 Q57.0974 785.781 57.9867 785.781 Q58.6537 785.781 60.173 786.522 Q61.6552 787.226 63.4338 788.597 Q65.2125 789.968 66.5464 792.636 Q67.8804 795.267 67.8804 798.454 Q67.8804 805.124 62.8409 810.163 Q57.7644 815.166 50.3163 815.166 M47.9078 808.792 L47.9078 790.784 Q46.3144 790.784 44.5357 791.08 Q42.7571 791.339 40.3115 792.155 Q37.8288 792.933 36.2725 794.785 Q34.7162 796.638 34.7162 799.38 Q34.7162 800.603 35.2349 801.937 Q35.7537 803.234 37.0136 804.827 Q38.2734 806.421 41.1267 807.532 Q43.9799 808.644 47.9078 808.792 Z" fill="#000000" fill-rule="evenodd" fill-opacity="1" /><path clip-path="url(#clip020)" d="M 0 0 M67.0282 783.261 L64.6937 783.261 Q64.6937 779.222 64.212 778.296 Q63.6932 777.37 61.2476 777.37 L40.8302 777.37 Q38.0141 777.37 37.3471 778.333 Q36.6801 779.259 36.6801 782.965 L34.3086 782.965 L33.4933 772.367 L61.3217 772.367 Q63.582 772.367 64.1379 771.552 Q64.6937 770.737 64.6937 767.031 L67.0282 767.031 Q66.8058 774.776 66.8058 774.924 Q66.8058 775.962 67.0282 783.261 M20.2647 780.075 Q18.7454 780.075 17.5226 778.926 Q16.2628 777.74 16.2628 776.073 Q16.2628 774.405 17.4115 773.219 Q18.5231 772.034 20.3018 772.034 Q22.0433 772.034 23.192 773.219 Q24.3037 774.405 24.3037 776.073 Q24.3037 777.814 23.0809 778.963 Q21.8581 780.075 20.2647 780.075 Z" fill="#000000" fill-rule="evenodd" fill-opacity="1" /><path clip-path="url(#clip020)" d="M 0 0 M73.0311 764.919 Q70.5854 764.919 68.4733 763.066 Q66.3612 761.177 65.4348 757.916 Q63.3227 761.251 58.6908 761.251 Q55.1335 761.251 52.3914 758.916 Q49.427 762.473 44.5728 762.473 Q40.0891 762.473 36.7912 758.916 Q33.4933 755.359 33.4933 750.171 Q33.4933 745.613 36.2354 742.13 Q32.6781 738.499 32.6411 734.089 Q32.6411 732.125 33.8639 731.199 Q35.0867 730.236 36.3836 730.236 Q37.5323 730.236 38.0882 730.977 Q38.644 731.681 38.644 732.422 Q38.644 733.348 38.0511 734.015 Q37.4212 734.645 36.4578 734.645 Q34.8644 734.645 34.3827 733.422 Q34.3086 733.645 34.3086 734.163 Q34.3086 737.869 37.273 741.019 Q40.1633 737.906 44.6469 737.906 Q49.1306 737.906 52.4285 741.463 Q55.7264 745.021 55.7264 750.171 Q55.7264 754.433 53.3548 757.693 Q54.8741 758.99 56.9492 758.99 Q58.839 758.99 60.3212 757.842 Q61.8034 756.693 62.0257 754.951 Q62.0998 754.433 62.0998 749.282 Q62.0998 746.243 62.1739 744.576 Q62.2481 742.908 62.7668 740.537 Q63.2485 738.128 64.212 736.239 Q66.954 731.31 72.8829 731.273 Q77.2183 731.273 79.9233 736.276 Q82.6654 741.241 82.6654 748.133 Q82.6654 755.1 79.8863 760.028 Q77.1442 764.919 73.0311 764.919 M73.0311 760.954 Q76.1437 760.954 78.5152 757.286 Q80.9238 753.617 80.9238 748.059 Q80.9238 742.612 78.5523 738.944 Q76.2178 735.238 73.0311 735.238 Q70.7707 735.238 69.3256 736.535 Q67.8804 737.832 67.2875 740.5 Q66.7317 743.131 66.6206 744.984 Q66.5094 746.836 66.5094 750.245 L66.5094 754.729 Q66.6576 757.323 68.5474 759.139 Q70.4372 760.954 73.0311 760.954 M44.6469 756.804 Q53.9848 756.804 53.9848 750.171 Q53.9848 746.836 50.9463 744.798 Q48.9082 743.575 44.5728 743.575 Q35.2349 743.575 35.2349 750.171 Q35.2349 753.506 38.2734 755.581 Q40.3115 756.804 44.6469 756.804 Z" fill="#000000" fill-rule="evenodd" fill-opacity="1" /><path clip-path="url(#clip020)" d="M 0 0 M67.0282 727.79 L64.6937 727.79 Q64.6937 723.751 64.212 722.825 Q63.6932 721.898 61.2476 721.898 L21.784 721.898 Q18.9678 721.898 18.2637 722.899 Q17.5597 723.862 17.5597 727.79 L15.1882 727.79 L14.3729 716.896 L40.7561 716.896 L40.7561 716.822 Q38.0141 715.599 35.7537 712.857 Q33.4933 710.115 33.4933 705.89 Q33.4933 700.184 36.3095 697.924 Q38.1993 696.256 40.3115 695.923 Q42.4236 695.552 47.9078 695.552 L62.3963 695.552 Q63.9896 695.478 64.3602 694.255 Q64.6937 693.032 64.6937 689.623 L67.0282 689.623 Q66.8058 697.368 66.8058 698.146 Q66.8058 698.739 67.0282 706.706 L64.6937 706.706 Q64.6937 702.667 64.212 701.74 Q63.6932 700.777 61.2476 700.777 L43.5723 700.777 Q39.7186 700.777 37.4582 701.963 Q35.1608 703.148 35.1608 706.409 Q35.1608 710.337 38.4587 713.487 Q41.7566 716.636 47.3149 716.636 L61.2476 716.636 Q63.6932 716.636 64.212 715.71 Q64.6937 714.747 64.6937 710.745 L67.0282 710.745 Q66.8058 718.489 66.8058 719.23 Q66.8058 719.823 67.0282 727.79 Z" fill="#000000" fill-rule="evenodd" fill-opacity="1" /><path clip-path="url(#clip020)" d="M 0 0 M36.6801 690.29 L35.0126 690.29 Q34.8644 686.807 32.4188 684.51 Q29.9361 682.175 26.8975 681.397 Q23.859 680.582 20.3388 680.508 L20.3388 678.618 L34.3086 678.618 L34.3086 667.761 L36.6801 667.761 L36.6801 678.618 L57.7644 678.618 Q65.9536 678.618 65.9536 673.504 Q65.9536 671.318 63.7303 669.873 Q61.4699 668.428 57.468 668.428 L53.2807 668.428 L53.2807 666.538 L57.6162 666.538 Q61.7293 666.538 64.8049 668.428 Q67.8804 670.318 67.8804 674.06 Q67.8804 675.431 67.5099 676.802 Q67.1764 678.136 66.2871 679.915 Q65.3607 681.656 63.1374 682.768 Q60.877 683.843 57.6162 683.843 L36.6801 683.843 L36.6801 690.29 Z" fill="#000000" fill-rule="evenodd" fill-opacity="1" /><path clip-path="url(#clip020)" d="M 0 0 M1064.33 72.576 L1064.33 69.8525 L1066.45 69.8525 Q1071.25 69.8525 1072.33 69.0743 Q1073.45 68.2529 1073.45 65.6591 L1073.45 19.0129 Q1073.45 16.4623 1072.33 15.6842 Q1071.2 14.8628 1066.45 14.8628 L1064.33 14.8628 L1064.33 12.096 L1095.59 12.096 Q1104.53 12.096 1110.5 17.0243 Q1116.47 21.9526 1116.47 28.567 Q1116.47 35.1381 1110.37 39.8935 Q1104.32 44.6056 1096.28 44.6056 L1081.32 44.6056 L1081.32 65.6591 Q1081.32 68.2097 1082.4 69.0311 Q1083.52 69.8525 1088.32 69.8525 L1090.44 69.8525 L1090.44 72.576 Q1087.33 72.3166 1077.34 72.3166 Q1067.44 72.3166 1064.33 72.576 M1081.06 42.3144 L1093.25 42.3144 Q1097.23 42.3144 1100.12 41.1904 Q1103.02 40.0664 1104.32 38.7262 Q1105.66 37.3428 1106.39 35.1381 Q1107.17 32.8901 1107.26 31.6796 Q1107.34 30.4259 1107.34 28.567 Q1107.34 26.6216 1107.26 25.4111 Q1107.17 24.1574 1106.39 21.9526 Q1105.66 19.7046 1104.32 18.3645 Q1103.02 16.9811 1100.12 15.9435 Q1097.27 14.8628 1093.25 14.8628 L1085.38 14.8628 Q1082.36 14.8628 1081.71 15.468 Q1081.06 16.0732 1081.06 18.4077 L1081.06 42.3144 Z" fill="#000000" fill-rule="evenodd" fill-opacity="1" /><path clip-path="url(#clip020)" d="M 0 0 M1117.72 64.146 Q1117.72 56.6238 1126.58 52.6466 Q1131.9 50.0959 1142.88 49.4475 L1142.88 46.2052 Q1142.88 40.7148 1139.98 37.8184 Q1137.13 34.8787 1133.5 34.8787 Q1127.01 34.8787 1123.9 38.9424 Q1126.54 39.0288 1127.49 40.369 Q1128.44 41.6659 1128.44 43.0061 Q1128.44 44.7785 1127.32 45.9458 Q1126.24 47.0698 1124.38 47.0698 Q1122.6 47.0698 1121.44 45.989 Q1120.27 44.865 1120.27 42.9196 Q1120.27 38.5965 1124.16 35.7433 Q1128.09 32.8901 1133.67 32.8901 Q1140.93 32.8901 1145.78 37.7751 Q1147.29 39.2882 1148.02 41.2336 Q1148.8 43.179 1148.89 44.4759 Q1148.98 45.7296 1148.98 48.237 L1148.98 65.9184 Q1148.98 66.4372 1149.15 67.3018 Q1149.32 68.1665 1150.1 69.2905 Q1150.92 70.3712 1152.26 70.3712 Q1155.46 70.3712 1155.42 64.708 L1155.42 59.7364 L1157.66 59.7364 L1157.66 64.708 Q1157.66 69.4201 1155.16 71.2791 Q1152.69 73.0948 1150.4 73.0948 Q1147.46 73.0948 1145.6 70.9332 Q1143.74 68.7717 1143.48 65.832 Q1142.14 69.204 1139.08 71.4088 Q1136.05 73.5703 1131.9 73.5703 Q1128.7 73.5703 1125.67 72.7489 Q1122.69 71.9708 1120.18 69.766 Q1117.72 67.518 1117.72 64.146 M1124.55 64.0595 Q1124.55 67.3451 1126.88 69.4634 Q1129.22 71.5817 1132.5 71.5817 Q1136.22 71.5817 1139.55 68.7285 Q1142.88 65.832 1142.88 60.1687 L1142.88 51.3064 Q1133.07 51.6523 1128.79 55.5863 Q1124.55 59.477 1124.55 64.0595 Z" fill="#000000" fill-rule="evenodd" fill-opacity="1" /><path clip-path="url(#clip020)" d="M 0 0 M1160.13 72.576 L1160.13 69.8525 Q1164.84 69.8525 1165.92 69.2905 Q1167.05 68.6852 1167.05 65.832 L1167.05 42.0982 Q1167.05 38.8127 1165.88 37.9913 Q1164.75 37.1699 1160.13 37.1699 L1160.13 34.4031 L1172.45 33.4521 L1172.45 43.179 Q1173.7 39.3747 1176.34 36.435 Q1179.02 33.4521 1183.34 33.4521 Q1186.2 33.4521 1188.01 35.0516 Q1189.87 36.6511 1189.87 38.8559 Q1189.87 40.8013 1188.66 41.7956 Q1187.49 42.7467 1186.07 42.7467 Q1184.47 42.7467 1183.34 41.7524 Q1182.26 40.7148 1182.26 38.9424 Q1182.26 37.8616 1182.74 37.0402 Q1183.26 36.1756 1183.65 35.873 Q1184.04 35.5704 1184.29 35.4839 Q1184.12 35.3974 1183.34 35.3974 Q1178.46 35.3974 1175.65 40.2825 Q1172.88 45.1244 1172.88 52.0413 L1172.88 65.6591 Q1172.88 68.2097 1173.92 69.0311 Q1175 69.8525 1179.63 69.8525 L1181.48 69.8525 L1181.48 72.576 Q1177.94 72.3166 1170.24 72.3166 Q1169.16 72.3166 1167.48 72.3598 Q1165.79 72.4031 1163.59 72.4895 Q1161.38 72.576 1160.13 72.576 Z" fill="#000000" fill-rule="evenodd" fill-opacity="1" /><path clip-path="url(#clip020)" d="M 0 0 M1192.34 53.0789 Q1192.34 44.7353 1197.7 38.8127 Q1203.06 32.8901 1210.75 32.8901 Q1218.53 32.8901 1222.55 37.9481 Q1226.62 43.0061 1226.62 50.2689 Q1226.62 51.609 1226.27 51.8684 Q1225.93 52.1278 1224.41 52.1278 L1199.69 52.1278 Q1199.69 61.163 1202.37 65.3997 Q1206.08 71.3223 1212.35 71.3223 Q1213.22 71.3223 1214.25 71.1494 Q1215.29 70.9765 1217.41 70.2415 Q1219.53 69.4634 1221.39 67.4315 Q1223.25 65.3997 1224.33 62.2006 Q1224.59 60.9469 1225.45 60.9901 Q1226.62 60.9901 1226.62 62.0277 Q1226.62 62.8058 1225.75 64.5783 Q1224.93 66.3075 1223.33 68.3826 Q1221.73 70.4577 1218.62 72.014 Q1215.55 73.5703 1211.83 73.5703 Q1204.05 73.5703 1198.17 67.6909 Q1192.34 61.7683 1192.34 53.0789 M1199.77 50.2689 L1220.78 50.2689 Q1220.78 48.4099 1220.44 46.3349 Q1220.13 44.2598 1219.18 41.4065 Q1218.27 38.5101 1216.11 36.6944 Q1213.95 34.8787 1210.75 34.8787 Q1209.33 34.8787 1207.77 35.4839 Q1206.26 36.0891 1204.4 37.559 Q1202.54 39.0288 1201.24 42.3576 Q1199.94 45.6864 1199.77 50.2689 Z" fill="#000000" fill-rule="evenodd" fill-opacity="1" /><path clip-path="url(#clip020)" d="M 0 0 M1228.3 37.1699 L1228.3 35.2245 Q1232.37 35.0516 1235.05 32.1984 Q1237.77 29.3019 1238.68 25.757 Q1239.63 22.212 1239.72 18.1051 L1241.92 18.1051 L1241.92 34.4031 L1254.59 34.4031 L1254.59 37.1699 L1241.92 37.1699 L1241.92 61.7683 Q1241.92 71.3223 1247.89 71.3223 Q1250.44 71.3223 1252.12 68.7285 Q1253.81 66.0914 1253.81 61.4224 L1253.81 56.5373 L1256.01 56.5373 L1256.01 61.5954 Q1256.01 66.394 1253.81 69.9821 Q1251.61 73.5703 1247.24 73.5703 Q1245.64 73.5703 1244.04 73.138 Q1242.48 72.7489 1240.41 71.7114 Q1238.38 70.6306 1237.08 68.0368 Q1235.83 65.3997 1235.83 61.5954 L1235.83 37.1699 L1228.3 37.1699 Z" fill="#000000" fill-rule="evenodd" fill-opacity="1" /><path clip-path="url(#clip020)" d="M 0 0 M1264.32 67.8206 Q1258.48 62.0277 1258.48 53.6409 Q1258.48 45.2109 1264.19 39.0721 Q1269.94 32.8901 1278.15 32.8901 Q1286.19 32.8901 1291.94 39.0288 Q1297.73 45.1244 1297.73 53.6409 Q1297.73 61.9844 1291.9 67.7774 Q1286.1 73.5703 1278.06 73.5703 Q1270.19 73.5703 1264.32 67.8206 M1265.83 52.9059 Q1265.83 61.5089 1268.08 65.3997 Q1271.53 71.3223 1278.15 71.3223 Q1281.43 71.3223 1284.16 69.5498 Q1286.92 67.7774 1288.44 64.7944 Q1290.38 60.9037 1290.38 52.9059 Q1290.38 44.3895 1288.05 40.6284 Q1284.59 34.8787 1278.06 34.8787 Q1275.21 34.8787 1272.4 36.3918 Q1269.63 37.8616 1267.95 40.8013 Q1265.83 44.6921 1265.83 52.9059 Z" fill="#000000" fill-rule="evenodd" fill-opacity="1" /><path clip-path="url(#clip020)" d="M 0 0 M1330.11 72.576 L1330.11 69.8525 L1332.23 69.8525 Q1337.03 69.8525 1338.11 69.0743 Q1339.23 68.2529 1339.23 65.6591 L1339.23 19.2723 Q1339.23 16.7217 1338.11 15.9435 Q1336.99 15.1222 1332.23 15.1222 L1330.11 15.1222 L1330.11 12.3554 L1378.7 12.3554 L1381.17 32.2848 L1378.96 32.2848 Q1378.36 27.2268 1377.54 24.3736 Q1376.76 21.4771 1374.94 19.1859 Q1373.13 16.8946 1370.06 16.03 Q1367.03 15.1222 1362.06 15.1222 L1351.43 15.1222 Q1348.4 15.1222 1347.75 15.7706 Q1347.1 16.3759 1347.1 18.6671 L1347.1 41.0607 L1354.71 41.0607 Q1360.72 41.0607 1362.41 38.8991 Q1364.09 36.7376 1364.09 30.6853 L1366.3 30.6853 L1366.3 54.1596 L1364.09 54.1596 Q1364.09 48.0641 1362.41 45.9458 Q1360.72 43.7842 1354.71 43.7842 L1347.1 43.7842 L1347.1 65.5726 Q1347.1 67.4315 1347.4 68.1665 Q1347.71 68.8581 1349.57 69.3769 Q1351.43 69.8525 1355.49 69.8525 L1358.43 69.8525 L1358.43 72.576 Q1355.23 72.3166 1343.56 72.3166 Q1333.23 72.3166 1330.11 72.576 Z" fill="#000000" fill-rule="evenodd" fill-opacity="1" /><path clip-path="url(#clip020)" d="M 0 0 M1376.28 72.576 L1376.28 69.8525 Q1381 69.8525 1382.08 69.2905 Q1383.2 68.6852 1383.2 65.832 L1383.2 42.0982 Q1383.2 38.8127 1382.03 37.9913 Q1380.91 37.1699 1376.28 37.1699 L1376.28 34.4031 L1388.6 33.4521 L1388.6 43.179 Q1389.86 39.3747 1392.49 36.435 Q1395.18 33.4521 1399.5 33.4521 Q1402.35 33.4521 1404.17 35.0516 Q1406.03 36.6511 1406.03 38.8559 Q1406.03 40.8013 1404.82 41.7956 Q1403.65 42.7467 1402.22 42.7467 Q1400.62 42.7467 1399.5 41.7524 Q1398.42 40.7148 1398.42 38.9424 Q1398.42 37.8616 1398.89 37.0402 Q1399.41 36.1756 1399.8 35.873 Q1400.19 35.5704 1400.45 35.4839 Q1400.28 35.3974 1399.5 35.3974 Q1394.61 35.3974 1391.8 40.2825 Q1389.04 45.1244 1389.04 52.0413 L1389.04 65.6591 Q1389.04 68.2097 1390.07 69.0311 Q1391.15 69.8525 1395.78 69.8525 L1397.64 69.8525 L1397.64 72.576 Q1394.09 72.3166 1386.4 72.3166 Q1385.32 72.3166 1383.63 72.3598 Q1381.95 72.4031 1379.74 72.4895 Q1377.54 72.576 1376.28 72.576 Z" fill="#000000" fill-rule="evenodd" fill-opacity="1" /><path clip-path="url(#clip020)" d="M 0 0 M1414.33 67.8206 Q1408.49 62.0277 1408.49 53.6409 Q1408.49 45.2109 1414.2 39.0721 Q1419.95 32.8901 1428.16 32.8901 Q1436.2 32.8901 1441.95 39.0288 Q1447.74 45.1244 1447.74 53.6409 Q1447.74 61.9844 1441.91 67.7774 Q1436.11 73.5703 1428.07 73.5703 Q1420.21 73.5703 1414.33 67.8206 M1415.84 52.9059 Q1415.84 61.5089 1418.09 65.3997 Q1421.55 71.3223 1428.16 71.3223 Q1431.45 71.3223 1434.17 69.5498 Q1436.94 67.7774 1438.45 64.7944 Q1440.39 60.9037 1440.39 52.9059 Q1440.39 44.3895 1438.06 40.6284 Q1434.6 34.8787 1428.07 34.8787 Q1425.22 34.8787 1422.41 36.3918 Q1419.64 37.8616 1417.96 40.8013 Q1415.84 44.6921 1415.84 52.9059 Z" fill="#000000" fill-rule="evenodd" fill-opacity="1" /><path clip-path="url(#clip020)" d="M 0 0 M1450.6 72.576 L1450.6 69.8525 Q1455.31 69.8525 1456.39 69.2905 Q1457.47 68.6852 1457.47 65.832 L1457.47 42.0982 Q1457.47 38.8127 1456.3 37.9913 Q1455.18 37.1699 1450.6 37.1699 L1450.6 34.4031 L1463.05 33.4521 L1463.05 42.7467 Q1467.2 33.4521 1476.15 33.4521 Q1482.8 33.4521 1485.44 36.7376 Q1487.39 38.9424 1487.78 41.4065 Q1488.21 43.8707 1488.21 50.2689 L1488.21 67.1721 Q1488.29 69.0311 1489.72 69.4634 Q1491.15 69.8525 1495.12 69.8525 L1495.12 72.576 Q1486.09 72.3166 1485.18 72.3166 Q1484.49 72.3166 1475.2 72.576 L1475.2 69.8525 Q1479.91 69.8525 1480.99 69.2905 Q1482.11 68.6852 1482.11 65.832 L1482.11 45.2109 Q1482.11 40.7148 1480.73 38.0778 Q1479.35 35.3974 1475.54 35.3974 Q1470.96 35.3974 1467.28 39.245 Q1463.61 43.0925 1463.61 49.5772 L1463.61 65.832 Q1463.61 68.6852 1464.69 69.2905 Q1465.81 69.8525 1470.48 69.8525 L1470.48 72.576 Q1461.45 72.3166 1460.58 72.3166 Q1459.89 72.3166 1450.6 72.576 Z" fill="#000000" fill-rule="evenodd" fill-opacity="1" /><path clip-path="url(#clip020)" d="M 0 0 M1494.35 37.1699 L1494.35 35.2245 Q1498.41 35.0516 1501.09 32.1984 Q1503.81 29.3019 1504.72 25.757 Q1505.67 22.212 1505.76 18.1051 L1507.96 18.1051 L1507.96 34.4031 L1520.63 34.4031 L1520.63 37.1699 L1507.96 37.1699 L1507.96 61.7683 Q1507.96 71.3223 1513.93 71.3223 Q1516.48 71.3223 1518.17 68.7285 Q1519.85 66.0914 1519.85 61.4224 L1519.85 56.5373 L1522.06 56.5373 L1522.06 61.5954 Q1522.06 66.394 1519.85 69.9821 Q1517.65 73.5703 1513.28 73.5703 Q1511.68 73.5703 1510.08 73.138 Q1508.53 72.7489 1506.45 71.7114 Q1504.42 70.6306 1503.12 68.0368 Q1501.87 65.3997 1501.87 61.5954 L1501.87 37.1699 L1494.35 37.1699 Z" fill="#000000" fill-rule="evenodd" fill-opacity="1" /><circle clip-path="url(#clip022)" cx="293.606" cy="1373.8" r="21" fill="#4477aa" fill-rule="evenodd" fill-opacity="1" stroke="#000000" stroke-opacity="1" stroke-width="0"/>
<circle clip-path="url(#clip022)" cx="398.826" cy="1370.44" r="21" fill="#4477aa" fill-rule="evenodd" fill-opacity="1" stroke="#000000" stroke-opacity="1" stroke-width="0"/>
<circle clip-path="url(#clip022)" cx="504.046" cy="1360.35" r="21" fill="#4477aa" fill-rule="evenodd" fill-opacity="1" stroke="#000000" stroke-opacity="1" stroke-width="0"/>
<circle clip-path="url(#clip022)" cx="609.265" cy="1343.54" r="21" fill="#4477aa" fill-rule="evenodd" fill-opacity="1" stroke="#000000" stroke-opacity="1" stroke-width="0"/>
<circle clip-path="url(#clip022)" cx="714.485" cy="1320" r="21" fill="#4477aa" fill-rule="evenodd" fill-opacity="1" stroke="#000000" stroke-opacity="1" stroke-width="0"/>
<circle clip-path="url(#clip022)" cx="819.705" cy="1289.74" r="21" fill="#4477aa" fill-rule="evenodd" fill-opacity="1" stroke="#000000" stroke-opacity="1" stroke-width="0"/>
<circle clip-path="url(#clip022)" cx="924.924" cy="1252.75" r="21" fill="#4477aa" fill-rule="evenodd" fill-opacity="1" stroke="#000000" stroke-opacity="1" stroke-width="0"/>
<circle clip-path="url(#clip022)" cx="1030.14" cy="1209.03" r="21" fill="#4477aa" fill-rule="evenodd" fill-opacity="1" stroke="#000000" stroke-opacity="1" stroke-width="0"/>
<circle clip-path="url(#clip022)" cx="1135.36" cy="1158.59" r="21" fill="#4477aa" fill-rule="evenodd" fill-opacity="1" stroke="#000000" stroke-opacity="1" stroke-width="0"/>
<circle clip-path="url(#clip022)" cx="1240.58" cy="1101.43" r="21" fill="#4477aa" fill-rule="evenodd" fill-opacity="1" stroke="#000000" stroke-opacity="1" stroke-width="0"/>
<circle clip-path="url(#clip022)" cx="1345.8" cy="1037.54" r="21" fill="#4477aa" fill-rule="evenodd" fill-opacity="1" stroke="#000000" stroke-opacity="1" stroke-width="0"/>
<circle clip-path="url(#clip022)" cx="1451.02" cy="966.923" r="21" fill="#4477aa" fill-rule="evenodd" fill-opacity="1" stroke="#000000" stroke-opacity="1" stroke-width="0"/>
<circle clip-path="url(#clip022)" cx="1556.24" cy="889.582" r="21" fill="#4477aa" fill-rule="evenodd" fill-opacity="1" stroke="#000000" stroke-opacity="1" stroke-width="0"/>
<circle clip-path="url(#clip022)" cx="1661.46" cy="805.516" r="21" fill="#4477aa" fill-rule="evenodd" fill-opacity="1" stroke="#000000" stroke-opacity="1" stroke-width="0"/>
<circle clip-path="url(#clip022)" cx="1766.68" cy="714.725" r="21" fill="#4477aa" fill-rule="evenodd" fill-opacity="1" stroke="#000000" stroke-opacity="1" stroke-width="0"/>
<circle clip-path="url(#clip022)" cx="1871.9" cy="617.209" r="21" fill="#4477aa" fill-rule="evenodd" fill-opacity="1" stroke="#000000" stroke-opacity="1" stroke-width="0"/>
<circle clip-path="url(#clip022)" cx="1977.12" cy="512.967" r="21" fill="#4477aa" fill-rule="evenodd" fill-opacity="1" stroke="#000000" stroke-opacity="1" stroke-width="0"/>
<circle clip-path="url(#clip022)" cx="2082.34" cy="402" r="21" fill="#4477aa" fill-rule="evenodd" fill-opacity="1" stroke="#000000" stroke-opacity="1" stroke-width="0"/>
<circle clip-path="url(#clip022)" cx="2187.56" cy="284.307" r="21" fill="#4477aa" fill-rule="evenodd" fill-opacity="1" stroke="#000000" stroke-opacity="1" stroke-width="0"/>
<circle clip-path="url(#clip022)" cx="2292.78" cy="159.89" r="21" fill="#4477aa" fill-rule="evenodd" fill-opacity="1" stroke="#000000" stroke-opacity="1" stroke-width="0"/>
</svg>
