<?xml version="1.0" encoding="utf-8"?>
<svg xmlns="http://www.w3.org/2000/svg" xmlns:xlink="http://www.w3.org/1999/xlink" width="600" height="400" viewBox="0 0 2400 1600">
<defs>
  <clipPath id="clip050">
    <rect x="0" y="0" width="2400" height="1600"/>
  </clipPath>
</defs>
<path clip-path="url(#clip050)" d="
M0 1600 L2400 1600 L2400 0 L0 0  Z
  " fill="#ffffff" fill-rule="evenodd" fill-opacity="1"/>
<defs>
  <clipPath id="clip051">
    <rect x="480" y="0" width="1681" height="1600"/>
  </clipPath>
</defs>
<path clip-path="url(#clip050)" d="
M182.618 1410.22 L2352.76 1410.22 L2352.76 47.2441 L182.618 47.2441  Z
  " fill="#ffffff" fill-rule="evenodd" fill-opacity="1"/>
<defs>
  <clipPath id="clip052">
    <rect x="182" y="47" width="2171" height="1364"/>
  </clipPath>
</defs>
<polyline clip-path="url(#clip052)" style="stroke:#222255; stroke-width:4; stroke-opacity:0.1; fill:none" stroke-dasharray="16, 10" points="
  244.037,1410.22 244.037,47.2441 
  "/>
<polyline clip-path="url(#clip052)" style="stroke:#222255; stroke-width:4; stroke-opacity:0.1; fill:none" stroke-dasharray="16, 10" points="
  755.862,1410.22 755.862,47.2441 
  "/>
<polyline clip-path="url(#clip052)" style="stroke:#222255; stroke-width:4; stroke-opacity:0.1; fill:none" stroke-dasharray="16, 10" points="
  1267.69,1410.22 1267.69,47.2441 
  "/>
<polyline clip-path="url(#clip052)" style="stroke:#222255; stroke-width:4; stroke-opacity:0.1; fill:none" stroke-dasharray="16, 10" points="
  1779.51,1410.22 1779.51,47.2441 
  "/>
<polyline clip-path="url(#clip052)" style="stroke:#222255; stroke-width:4; stroke-opacity:0.1; fill:none" stroke-dasharray="16, 10" points="
  2291.34,1410.22 2291.34,47.2441 
  "/>
<polyline clip-path="url(#clip052)" style="stroke:#222255; stroke-width:2; stroke-opacity:0.05; fill:none" points="
  346.402,1410.22 346.402,47.2441 
  "/>
<polyline clip-path="url(#clip052)" style="stroke:#222255; stroke-width:2; stroke-opacity:0.05; fill:none" points="
  448.767,1410.22 448.767,47.2441 
  "/>
<polyline clip-path="url(#clip052)" style="stroke:#222255; stroke-width:2; stroke-opacity:0.05; fill:none" points="
  551.132,1410.22 551.132,47.2441 
  "/>
<polyline clip-path="url(#clip052)" style="stroke:#222255; stroke-width:2; stroke-opacity:0.05; fill:none" points="
  653.497,1410.22 653.497,47.2441 
  "/>
<polyline clip-path="url(#clip052)" style="stroke:#222255; stroke-width:2; stroke-opacity:0.05; fill:none" points="
  858.227,1410.22 858.227,47.2441 
  "/>
<polyline clip-path="url(#clip052)" style="stroke:#222255; stroke-width:2; stroke-opacity:0.05; fill:none" points="
  960.592,1410.22 960.592,47.2441 
  "/>
<polyline clip-path="url(#clip052)" style="stroke:#222255; stroke-width:2; stroke-opacity:0.05; fill:none" points="
  1062.96,1410.22 1062.96,47.2441 
  "/>
<polyline clip-path="url(#clip052)" style="stroke:#222255; stroke-width:2; stroke-opacity:0.05; fill:none" points="
  1165.32,1410.22 1165.32,47.2441 
  "/>
<polyline clip-path="url(#clip052)" style="stroke:#222255; stroke-width:2; stroke-opacity:0.05; fill:none" points="
  1370.05,1410.22 1370.05,47.2441 
  "/>
<polyline clip-path="url(#clip052)" style="stroke:#222255; stroke-width:2; stroke-opacity:0.05; fill:none" points="
  1472.42,1410.22 1472.42,47.2441 
  "/>
<polyline clip-path="url(#clip052)" style="stroke:#222255; stroke-width:2; stroke-opacity:0.05; fill:none" points="
  1574.78,1410.22 1574.78,47.2441 
  "/>
<polyline clip-path="url(#clip052)" style="stroke:#222255; stroke-width:2; stroke-opacity:0.05; fill:none" points="
  1677.15,1410.22 1677.15,47.2441 
  "/>
<polyline clip-path="url(#clip052)" style="stroke:#222255; stroke-width:2; stroke-opacity:0.05; fill:none" points="
  1881.88,1410.22 1881.88,47.2441 
  "/>
<polyline clip-path="url(#clip052)" style="stroke:#222255; stroke-width:2; stroke-opacity:0.05; fill:none" points="
  1984.24,1410.22 1984.24,47.2441 
  "/>
<polyline clip-path="url(#clip052)" style="stroke:#222255; stroke-width:2; stroke-opacity:0.05; fill:none" points="
  2086.61,1410.22 2086.61,47.2441 
  "/>
<polyline clip-path="url(#clip052)" style="stroke:#222255; stroke-width:2; stroke-opacity:0.05; fill:none" points="
  2188.97,1410.22 2188.97,47.2441 
  "/>
<polyline clip-path="url(#clip050)" style="stroke:#000000; stroke-width:4; stroke-opacity:1; fill:none" points="
  182.618,1410.22 2352.76,1410.22 
  "/>
<polyline clip-path="url(#clip050)" style="stroke:#000000; stroke-width:4; stroke-opacity:1; fill:none" points="
  182.618,47.2441 2352.76,47.2441 
  "/>
<polyline clip-path="url(#clip050)" style="stroke:#000000; stroke-width:4; stroke-opacity:1; fill:none" points="
  244.037,1410.22 244.037,1393.86 
  "/>
<polyline clip-path="url(#clip050)" style="stroke:#000000; stroke-width:4; stroke-opacity:1; fill:none" points="
  755.862,1410.22 755.862,1393.86 
  "/>
<polyline clip-path="url(#clip050)" style="stroke:#000000; stroke-width:4; stroke-opacity:1; fill:none" points="
  1267.69,1410.22 1267.69,1393.86 
  "/>
<polyline clip-path="url(#clip050)" style="stroke:#000000; stroke-width:4; stroke-opacity:1; fill:none" points="
  1779.51,1410.22 1779.51,1393.86 
  "/>
<polyline clip-path="url(#clip050)" style="stroke:#000000; stroke-width:4; stroke-opacity:1; fill:none" points="
  2291.34,1410.22 2291.34,1393.86 
  "/>
<polyline clip-path="url(#clip050)" style="stroke:#000000; stroke-width:4; stroke-opacity:1; fill:none" points="
  346.402,1410.22 346.402,1402.04 
  "/>
<polyline clip-path="url(#clip050)" style="stroke:#000000; stroke-width:4; stroke-opacity:1; fill:none" points="
  448.767,1410.22 448.767,1402.04 
  "/>
<polyline clip-path="url(#clip050)" style="stroke:#000000; stroke-width:4; stroke-opacity:1; fill:none" points="
  551.132,1410.22 551.132,1402.04 
  "/>
<polyline clip-path="url(#clip050)" style="stroke:#000000; stroke-width:4; stroke-opacity:1; fill:none" points="
  653.497,1410.22 653.497,1402.04 
  "/>
<polyline clip-path="url(#clip050)" style="stroke:#000000; stroke-width:4; stroke-opacity:1; fill:none" points="
  858.227,1410.22 858.227,1402.04 
  "/>
<polyline clip-path="url(#clip050)" style="stroke:#000000; stroke-width:4; stroke-opacity:1; fill:none" points="
  960.592,1410.22 960.592,1402.04 
  "/>
<polyline clip-path="url(#clip050)" style="stroke:#000000; stroke-width:4; stroke-opacity:1; fill:none" points="
  1062.96,1410.22 1062.96,1402.04 
  "/>
<polyline clip-path="url(#clip050)" style="stroke:#000000; stroke-width:4; stroke-opacity:1; fill:none" points="
  1165.32,1410.22 1165.32,1402.04 
  "/>
<polyline clip-path="url(#clip050)" style="stroke:#000000; stroke-width:4; stroke-opacity:1; fill:none" points="
  1370.05,1410.22 1370.05,1402.04 
  "/>
<polyline clip-path="url(#clip050)" style="stroke:#000000; stroke-width:4; stroke-opacity:1; fill:none" points="
  1472.42,1410.22 1472.42,1402.04 
  "/>
<polyline clip-path="url(#clip050)" style="stroke:#000000; stroke-width:4; stroke-opacity:1; fill:none" points="
  1574.78,1410.22 1574.78,1402.04 
  "/>
<polyline clip-path="url(#clip050)" style="stroke:#000000; stroke-width:4; stroke-opacity:1; fill:none" points="
  1677.15,1410.22 1677.15,1402.04 
  "/>
<polyline clip-path="url(#clip050)" style="stroke:#000000; stroke-width:4; stroke-opacity:1; fill:none" points="
  1881.88,1410.22 1881.88,1402.04 
  "/>
<polyline clip-path="url(#clip050)" style="stroke:#000000; stroke-width:4; stroke-opacity:1; fill:none" points="
  1984.24,1410.22 1984.24,1402.04 
  "/>
<polyline clip-path="url(#clip050)" style="stroke:#000000; stroke-width:4; stroke-opacity:1; fill:none" points="
  2086.61,1410.22 2086.61,1402.04 
  "/>
<polyline clip-path="url(#clip050)" style="stroke:#000000; stroke-width:4; stroke-opacity:1; fill:none" points="
  2188.97,1410.22 2188.97,1402.04 
  "/>
<path clip-path="url(#clip050)" d="M 0 0 M230.729 1461.03 Q230.729 1451.74 233.075 1446.68 Q236.349 1439.14 244.068 1439.14 Q245.705 1439.14 247.403 1439.6 Q249.133 1440.04 251.294 1441.73 Q253.486 1443.43 254.814 1446.21 Q257.346 1451.58 257.346 1461.03 Q257.346 1470.27 255 1475.3 Q251.572 1482.65 244.007 1482.65 Q241.166 1482.65 238.263 1481.2 Q235.391 1479.75 233.569 1476.26 Q230.729 1471.04 230.729 1461.03 M235.978 1460.26 Q235.978 1469.8 236.657 1473.6 Q237.429 1477.71 239.529 1479.5 Q241.66 1481.26 244.007 1481.26 Q246.539 1481.26 248.638 1479.38 Q250.769 1477.46 251.418 1473.35 Q252.128 1469.31 252.097 1460.26 Q252.097 1451.46 251.479 1447.94 Q250.646 1443.83 248.422 1442.2 Q246.23 1440.53 244.007 1440.53 Q243.173 1440.53 242.277 1440.78 Q241.413 1441.02 240.147 1441.73 Q238.881 1442.44 237.892 1444.2 Q236.935 1445.96 236.472 1448.62 Q235.978 1452.05 235.978 1460.26 Z" fill="#808080" fill-rule="evenodd" fill-opacity="1" /><path clip-path="url(#clip050)" d="M 0 0 M729.028 1481.26 Q729.028 1480.12 729.121 1479.78 Q729.244 1479.44 729.739 1478.91 L741.874 1465.39 Q748.513 1457.92 748.513 1451.4 Q748.513 1447.17 746.29 1444.14 Q744.097 1441.12 740.052 1441.12 Q737.273 1441.12 734.926 1442.82 Q732.579 1444.51 731.499 1447.54 Q731.684 1447.48 732.332 1447.48 Q733.907 1447.48 734.772 1448.47 Q735.667 1449.45 735.667 1450.78 Q735.667 1452.48 734.556 1453.31 Q733.475 1454.12 732.394 1454.12 Q731.962 1454.12 731.375 1454.02 Q730.819 1453.93 729.924 1453.07 Q729.028 1452.17 729.028 1450.6 Q729.028 1446.18 732.363 1442.66 Q735.729 1439.14 740.855 1439.14 Q746.66 1439.14 750.458 1442.6 Q754.287 1446.03 754.287 1451.4 Q754.287 1453.28 753.701 1455.01 Q753.145 1456.71 752.373 1458.04 Q751.632 1459.37 749.594 1461.5 Q747.556 1463.63 745.919 1465.14 Q744.283 1466.65 740.608 1469.87 L733.907 1476.38 L745.302 1476.38 Q750.86 1476.38 751.292 1475.89 Q751.91 1474.99 752.682 1470.27 L754.287 1470.27 L752.496 1481.26 L729.028 1481.26 Z" fill="#808080" fill-rule="evenodd" fill-opacity="1" /><path clip-path="url(#clip050)" d="M 0 0 M757.437 1471.07 Q757.437 1469.19 758.456 1468.48 Q759.475 1467.73 760.556 1467.73 Q762.007 1467.73 762.841 1468.66 Q763.706 1469.56 763.706 1470.82 Q763.706 1472.09 762.841 1473.02 Q762.007 1473.91 760.556 1473.91 Q759.846 1473.91 759.475 1473.79 Q760.309 1476.69 762.841 1478.79 Q765.404 1480.89 768.77 1480.89 Q773 1480.89 775.532 1476.78 Q777.045 1474.13 777.045 1468.11 Q777.045 1462.79 775.903 1460.14 Q774.143 1456.09 770.53 1456.09 Q765.404 1456.09 762.378 1460.51 Q762.007 1461.06 761.575 1461.1 Q760.957 1461.1 760.803 1460.76 Q760.679 1460.39 760.679 1459.43 L760.679 1440.72 Q760.679 1439.2 761.297 1439.2 Q761.544 1439.2 762.069 1439.39 Q766.052 1441.15 770.468 1441.18 Q775.007 1441.18 779.083 1439.33 Q779.392 1439.14 779.578 1439.14 Q780.195 1439.14 780.226 1439.85 Q780.226 1440.1 779.701 1440.84 Q779.207 1441.55 778.126 1442.51 Q777.045 1443.43 775.656 1444.33 Q774.266 1445.22 772.228 1445.84 Q770.221 1446.43 767.998 1446.43 Q765.342 1446.43 762.625 1445.59 L762.625 1457.92 Q765.898 1454.7 770.653 1454.7 Q775.718 1454.7 779.207 1458.78 Q782.696 1462.86 782.696 1468.54 Q782.696 1474.5 778.559 1478.57 Q774.452 1482.65 768.893 1482.65 Q763.829 1482.65 760.618 1479.04 Q757.437 1475.42 757.437 1471.07 Z" fill="#808080" fill-rule="evenodd" fill-opacity="1" /><path clip-path="url(#clip050)" d="M 0 0 M1240.51 1471.07 Q1240.51 1469.19 1241.53 1468.48 Q1242.55 1467.73 1243.63 1467.73 Q1245.08 1467.73 1245.92 1468.66 Q1246.78 1469.56 1246.78 1470.82 Q1246.78 1472.09 1245.92 1473.02 Q1245.08 1473.91 1243.63 1473.91 Q1242.92 1473.91 1242.55 1473.79 Q1243.39 1476.69 1245.92 1478.79 Q1248.48 1480.89 1251.85 1480.89 Q1256.08 1480.89 1258.61 1476.78 Q1260.12 1474.13 1260.12 1468.11 Q1260.12 1462.79 1258.98 1460.14 Q1257.22 1456.09 1253.61 1456.09 Q1248.48 1456.09 1245.45 1460.51 Q1245.08 1461.06 1244.65 1461.1 Q1244.03 1461.1 1243.88 1460.76 Q1243.76 1460.39 1243.76 1459.43 L1243.76 1440.72 Q1243.76 1439.2 1244.37 1439.2 Q1244.62 1439.2 1245.15 1439.39 Q1249.13 1441.15 1253.54 1441.18 Q1258.08 1441.18 1262.16 1439.33 Q1262.47 1439.14 1262.65 1439.14 Q1263.27 1439.14 1263.3 1439.85 Q1263.3 1440.1 1262.78 1440.84 Q1262.28 1441.55 1261.2 1442.51 Q1260.12 1443.43 1258.73 1444.33 Q1257.34 1445.22 1255.3 1445.84 Q1253.3 1446.43 1251.07 1446.43 Q1248.42 1446.43 1245.7 1445.59 L1245.7 1457.92 Q1248.97 1454.7 1253.73 1454.7 Q1258.79 1454.7 1262.28 1458.78 Q1265.77 1462.86 1265.77 1468.54 Q1265.77 1474.5 1261.63 1478.57 Q1257.53 1482.65 1251.97 1482.65 Q1246.91 1482.65 1243.69 1479.04 Q1240.51 1475.42 1240.51 1471.07 Z" fill="#808080" fill-rule="evenodd" fill-opacity="1" /><path clip-path="url(#clip050)" d="M 0 0 M1268.24 1461.03 Q1268.24 1451.74 1270.59 1446.68 Q1273.86 1439.14 1281.58 1439.14 Q1283.22 1439.14 1284.92 1439.6 Q1286.65 1440.04 1288.81 1441.73 Q1291 1443.43 1292.33 1446.21 Q1294.86 1451.58 1294.86 1461.03 Q1294.86 1470.27 1292.51 1475.3 Q1289.09 1482.65 1281.52 1482.65 Q1278.68 1482.65 1275.78 1481.2 Q1272.91 1479.75 1271.08 1476.26 Q1268.24 1471.04 1268.24 1461.03 M1273.49 1460.26 Q1273.49 1469.8 1274.17 1473.6 Q1274.94 1477.71 1277.04 1479.5 Q1279.17 1481.26 1281.52 1481.26 Q1284.05 1481.26 1286.15 1479.38 Q1288.28 1477.46 1288.93 1473.35 Q1289.64 1469.31 1289.61 1460.26 Q1289.61 1451.46 1288.99 1447.94 Q1288.16 1443.83 1285.94 1442.2 Q1283.74 1440.53 1281.52 1440.53 Q1280.69 1440.53 1279.79 1440.78 Q1278.93 1441.02 1277.66 1441.73 Q1276.4 1442.44 1275.41 1444.2 Q1274.45 1445.96 1273.99 1448.62 Q1273.49 1452.05 1273.49 1460.26 Z" fill="#808080" fill-rule="evenodd" fill-opacity="1" /><path clip-path="url(#clip050)" d="M 0 0 M1751.75 1451.52 L1753.82 1438.52 L1755.4 1438.52 Q1755.58 1439.3 1755.89 1439.63 Q1756.23 1439.97 1758.02 1440.25 Q1759.84 1440.53 1763.52 1440.53 L1778.86 1440.53 Q1778.86 1441.98 1778.31 1442.75 L1769.75 1454.77 Q1767.04 1458.56 1765.83 1465.57 Q1765.12 1470.27 1765.15 1475.95 L1765.15 1479.16 Q1765.15 1482.65 1762.22 1482.65 Q1759.32 1482.65 1759.32 1479.16 Q1759.32 1467.09 1767.1 1455.38 Q1767.93 1454.18 1770.99 1449.89 Q1774.08 1445.59 1774.2 1445.41 L1761.11 1445.41 Q1755.36 1445.41 1754.9 1445.78 Q1754.28 1446.34 1753.33 1451.52 L1751.75 1451.52 Z" fill="#808080" fill-rule="evenodd" fill-opacity="1" /><path clip-path="url(#clip050)" d="M 0 0 M1782.01 1471.07 Q1782.01 1469.19 1783.03 1468.48 Q1784.05 1467.73 1785.13 1467.73 Q1786.58 1467.73 1787.42 1468.66 Q1788.28 1469.56 1788.28 1470.82 Q1788.28 1472.09 1787.42 1473.02 Q1786.58 1473.91 1785.13 1473.91 Q1784.42 1473.91 1784.05 1473.79 Q1784.89 1476.69 1787.42 1478.79 Q1789.98 1480.89 1793.35 1480.89 Q1797.58 1480.89 1800.11 1476.78 Q1801.62 1474.13 1801.62 1468.11 Q1801.62 1462.79 1800.48 1460.14 Q1798.72 1456.09 1795.11 1456.09 Q1789.98 1456.09 1786.95 1460.51 Q1786.58 1461.06 1786.15 1461.1 Q1785.53 1461.1 1785.38 1460.76 Q1785.26 1460.39 1785.26 1459.43 L1785.26 1440.72 Q1785.26 1439.2 1785.87 1439.2 Q1786.12 1439.2 1786.65 1439.39 Q1790.63 1441.15 1795.04 1441.18 Q1799.58 1441.18 1803.66 1439.33 Q1803.97 1439.14 1804.15 1439.14 Q1804.77 1439.14 1804.8 1439.85 Q1804.8 1440.1 1804.28 1440.84 Q1803.78 1441.55 1802.7 1442.51 Q1801.62 1443.43 1800.23 1444.33 Q1798.84 1445.22 1796.8 1445.84 Q1794.8 1446.43 1792.57 1446.43 Q1789.92 1446.43 1787.2 1445.59 L1787.2 1457.92 Q1790.47 1454.7 1795.23 1454.7 Q1800.29 1454.7 1803.78 1458.78 Q1807.27 1462.86 1807.27 1468.54 Q1807.27 1474.5 1803.13 1478.57 Q1799.03 1482.65 1793.47 1482.65 Q1788.41 1482.65 1785.19 1479.04 Q1782.01 1475.42 1782.01 1471.07 Z" fill="#808080" fill-rule="evenodd" fill-opacity="1" /><path clip-path="url(#clip050)" d="M 0 0 M2251.81 1445.16 L2251.81 1443.19 Q2259.41 1443.19 2263.33 1439.14 Q2264.41 1439.14 2264.6 1439.39 Q2264.78 1439.63 2264.78 1440.78 L2264.78 1476.26 Q2264.78 1478.14 2265.71 1478.73 Q2266.63 1479.31 2270.68 1479.31 L2272.69 1479.31 L2272.69 1481.26 Q2270.46 1481.07 2262.43 1481.07 Q2254.41 1481.07 2252.21 1481.26 L2252.21 1479.31 L2254.22 1479.31 Q2258.2 1479.31 2259.16 1478.76 Q2260.12 1478.17 2260.12 1476.26 L2260.12 1443.49 Q2256.81 1445.16 2251.81 1445.16 Z" fill="#808080" fill-rule="evenodd" fill-opacity="1" /><path clip-path="url(#clip050)" d="M 0 0 M2275.16 1461.03 Q2275.16 1451.74 2277.5 1446.68 Q2280.78 1439.14 2288.5 1439.14 Q2290.13 1439.14 2291.83 1439.6 Q2293.56 1440.04 2295.72 1441.73 Q2297.91 1443.43 2299.24 1446.21 Q2301.77 1451.58 2301.77 1461.03 Q2301.77 1470.27 2299.43 1475.3 Q2296 1482.65 2288.43 1482.65 Q2285.59 1482.65 2282.69 1481.2 Q2279.82 1479.75 2278 1476.26 Q2275.16 1471.04 2275.16 1461.03 M2280.41 1460.26 Q2280.41 1469.8 2281.09 1473.6 Q2281.86 1477.71 2283.96 1479.5 Q2286.09 1481.26 2288.43 1481.26 Q2290.97 1481.26 2293.07 1479.38 Q2295.2 1477.46 2295.85 1473.35 Q2296.56 1469.31 2296.52 1460.26 Q2296.52 1451.46 2295.91 1447.94 Q2295.07 1443.83 2292.85 1442.2 Q2290.66 1440.53 2288.43 1440.53 Q2287.6 1440.53 2286.71 1440.78 Q2285.84 1441.02 2284.57 1441.73 Q2283.31 1442.44 2282.32 1444.2 Q2281.36 1445.96 2280.9 1448.62 Q2280.41 1452.05 2280.41 1460.26 Z" fill="#808080" fill-rule="evenodd" fill-opacity="1" /><path clip-path="url(#clip050)" d="M 0 0 M2304.24 1461.03 Q2304.24 1451.74 2306.59 1446.68 Q2309.86 1439.14 2317.58 1439.14 Q2319.22 1439.14 2320.92 1439.6 Q2322.65 1440.04 2324.81 1441.73 Q2327 1443.43 2328.33 1446.21 Q2330.86 1451.58 2330.86 1461.03 Q2330.86 1470.27 2328.52 1475.3 Q2325.09 1482.65 2317.52 1482.65 Q2314.68 1482.65 2311.78 1481.2 Q2308.91 1479.75 2307.09 1476.26 Q2304.24 1471.04 2304.24 1461.03 M2309.49 1460.26 Q2309.49 1469.8 2310.17 1473.6 Q2310.95 1477.71 2313.04 1479.5 Q2315.18 1481.26 2317.52 1481.26 Q2320.05 1481.26 2322.15 1479.38 Q2324.29 1477.46 2324.93 1473.35 Q2325.64 1469.31 2325.61 1460.26 Q2325.61 1451.46 2325 1447.94 Q2324.16 1443.83 2321.94 1442.2 Q2319.75 1440.53 2317.52 1440.53 Q2316.69 1440.53 2315.79 1440.78 Q2314.93 1441.02 2313.66 1441.73 Q2312.4 1442.44 2311.41 1444.2 Q2310.45 1445.96 2309.99 1448.62 Q2309.49 1452.05 2309.49 1460.26 Z" fill="#808080" fill-rule="evenodd" fill-opacity="1" /><path clip-path="url(#clip050)" d="M 0 0 M1167.38 1542.88 L1167.38 1540.51 Q1171.49 1540.73 1174.42 1540.73 Q1175.86 1540.73 1182.72 1540.51 L1182.72 1542.88 Q1178.24 1542.88 1178.24 1544.92 Q1178.24 1545.36 1178.61 1546.29 L1185.83 1566.56 L1192.35 1548.18 Q1190.98 1544.47 1190.61 1544.03 Q1189.69 1542.88 1185.83 1542.88 L1185.83 1540.51 Q1189.24 1540.73 1192.58 1540.73 Q1193.87 1540.73 1200.47 1540.51 L1200.47 1542.88 Q1195.99 1542.88 1195.99 1544.92 Q1195.99 1545.21 1196.36 1546.36 L1203.88 1567.52 L1210.77 1548.1 Q1211.14 1547.1 1211.18 1546.51 Q1211.18 1544.84 1209.99 1543.92 Q1208.81 1542.95 1206.77 1542.88 L1206.77 1540.51 Q1211.1 1540.73 1213.81 1540.73 Q1216.85 1540.73 1219.37 1540.51 L1219.37 1542.88 Q1214.66 1543.03 1212.99 1547.73 L1204.1 1572.63 Q1203.25 1574.01 1202.58 1574.08 Q1201.58 1574.08 1201.06 1572.63 L1193.32 1551.07 L1185.65 1572.56 Q1185.35 1573.49 1185.09 1573.78 Q1184.83 1574.08 1184.13 1574.08 Q1183.46 1574.08 1183.16 1573.67 Q1182.87 1573.3 1182.53 1572.38 L1172.97 1545.51 Q1172.31 1543.77 1171.31 1543.32 Q1170.34 1542.88 1167.38 1542.88 Z" fill="#000000" fill-rule="evenodd" fill-opacity="1" /><path clip-path="url(#clip050)" d="M 0 0 M1219.37 1556.52 Q1219.37 1549.36 1223.96 1544.29 Q1228.56 1539.21 1235.15 1539.21 Q1241.82 1539.21 1245.27 1543.55 Q1248.75 1547.88 1248.75 1554.11 Q1248.75 1555.26 1248.46 1555.48 Q1248.16 1555.7 1246.86 1555.7 L1225.67 1555.7 Q1225.67 1563.45 1227.96 1567.08 Q1231.15 1572.15 1236.52 1572.15 Q1237.27 1572.15 1238.15 1572.01 Q1239.04 1571.86 1240.86 1571.23 Q1242.68 1570.56 1244.27 1568.82 Q1245.86 1567.08 1246.79 1564.33 Q1247.01 1563.26 1247.75 1563.3 Q1248.75 1563.3 1248.75 1564.19 Q1248.75 1564.85 1248.01 1566.37 Q1247.31 1567.85 1245.94 1569.63 Q1244.56 1571.41 1241.9 1572.75 Q1239.27 1574.08 1236.08 1574.08 Q1229.41 1574.08 1224.37 1569.04 Q1219.37 1563.96 1219.37 1556.52 M1225.74 1554.11 L1243.75 1554.11 Q1243.75 1552.51 1243.45 1550.74 Q1243.19 1548.96 1242.38 1546.51 Q1241.6 1544.03 1239.75 1542.47 Q1237.89 1540.92 1235.15 1540.92 Q1233.93 1540.92 1232.6 1541.43 Q1231.3 1541.95 1229.71 1543.21 Q1228.11 1544.47 1227 1547.33 Q1225.89 1550.18 1225.74 1554.11 Z" fill="#000000" fill-rule="evenodd" fill-opacity="1" /><path clip-path="url(#clip050)" d="M 0 0 M1251.27 1573.23 L1251.27 1570.89 Q1255.31 1570.89 1256.24 1570.41 Q1257.16 1569.89 1257.16 1567.45 L1257.16 1547.03 Q1257.16 1544.21 1256.2 1543.55 Q1255.27 1542.88 1251.57 1542.88 L1251.57 1540.51 L1262.17 1539.69 L1262.17 1567.52 Q1262.17 1569.78 1262.98 1570.34 Q1263.8 1570.89 1267.5 1570.89 L1267.5 1573.23 Q1259.76 1573.01 1259.61 1573.01 Q1258.57 1573.01 1251.27 1573.23 M1254.46 1526.46 Q1254.46 1524.95 1255.61 1523.72 Q1256.79 1522.46 1258.46 1522.46 Q1260.13 1522.46 1261.31 1523.61 Q1262.5 1524.72 1262.5 1526.5 Q1262.5 1528.24 1261.31 1529.39 Q1260.13 1530.5 1258.46 1530.5 Q1256.72 1530.5 1255.57 1529.28 Q1254.46 1528.06 1254.46 1526.46 Z" fill="#000000" fill-rule="evenodd" fill-opacity="1" /><path clip-path="url(#clip050)" d="M 0 0 M1269.61 1579.23 Q1269.61 1576.79 1271.47 1574.67 Q1273.36 1572.56 1276.62 1571.63 Q1273.28 1569.52 1273.28 1564.89 Q1273.28 1561.33 1275.62 1558.59 Q1272.06 1555.63 1272.06 1550.77 Q1272.06 1546.29 1275.62 1542.99 Q1279.17 1539.69 1284.36 1539.69 Q1288.92 1539.69 1292.4 1542.44 Q1296.03 1538.88 1300.44 1538.84 Q1302.41 1538.84 1303.33 1540.06 Q1304.3 1541.29 1304.3 1542.58 Q1304.3 1543.73 1303.56 1544.29 Q1302.85 1544.84 1302.11 1544.84 Q1301.18 1544.84 1300.52 1544.25 Q1299.89 1543.62 1299.89 1542.66 Q1299.89 1541.06 1301.11 1540.58 Q1300.89 1540.51 1300.37 1540.51 Q1296.66 1540.51 1293.51 1543.47 Q1296.63 1546.36 1296.63 1550.85 Q1296.63 1555.33 1293.07 1558.63 Q1289.51 1561.93 1284.36 1561.93 Q1280.1 1561.93 1276.84 1559.55 Q1275.54 1561.07 1275.54 1563.15 Q1275.54 1565.04 1276.69 1566.52 Q1277.84 1568 1279.58 1568.23 Q1280.1 1568.3 1285.25 1568.3 Q1288.29 1568.3 1289.96 1568.37 Q1291.62 1568.45 1294 1568.97 Q1296.4 1569.45 1298.29 1570.41 Q1303.22 1573.15 1303.26 1579.08 Q1303.26 1583.42 1298.26 1586.12 Q1293.29 1588.87 1286.4 1588.87 Q1279.43 1588.87 1274.51 1586.09 Q1269.61 1583.34 1269.61 1579.23 M1273.58 1579.23 Q1273.58 1582.34 1277.25 1584.71 Q1280.92 1587.12 1286.47 1587.12 Q1291.92 1587.12 1295.59 1584.75 Q1299.3 1582.42 1299.3 1579.23 Q1299.3 1576.97 1298 1575.53 Q1296.7 1574.08 1294.03 1573.49 Q1291.4 1572.93 1289.55 1572.82 Q1287.7 1572.71 1284.29 1572.71 L1279.8 1572.71 Q1277.21 1572.86 1275.39 1574.75 Q1273.58 1576.64 1273.58 1579.23 M1277.73 1550.85 Q1277.73 1560.18 1284.36 1560.18 Q1287.7 1560.18 1289.73 1557.15 Q1290.96 1555.11 1290.96 1550.77 Q1290.96 1541.43 1284.36 1541.43 Q1281.03 1541.43 1278.95 1544.47 Q1277.73 1546.51 1277.73 1550.85 Z" fill="#000000" fill-rule="evenodd" fill-opacity="1" /><path clip-path="url(#clip050)" d="M 0 0 M1306.74 1573.23 L1306.74 1570.89 Q1310.78 1570.89 1311.71 1570.41 Q1312.63 1569.89 1312.63 1567.45 L1312.63 1527.98 Q1312.63 1525.17 1311.63 1524.46 Q1310.67 1523.76 1306.74 1523.76 L1306.74 1521.39 L1317.64 1520.57 L1317.64 1546.96 L1317.71 1546.96 Q1318.93 1544.21 1321.68 1541.95 Q1324.42 1539.69 1328.64 1539.69 Q1334.35 1539.69 1336.61 1542.51 Q1338.28 1544.4 1338.61 1546.51 Q1338.98 1548.62 1338.98 1554.11 L1338.98 1568.6 Q1339.06 1570.19 1340.28 1570.56 Q1341.5 1570.89 1344.91 1570.89 L1344.91 1573.23 Q1337.17 1573.01 1336.39 1573.01 Q1335.79 1573.01 1327.83 1573.23 L1327.83 1570.89 Q1331.87 1570.89 1332.79 1570.41 Q1333.76 1569.89 1333.76 1567.45 L1333.76 1549.77 Q1333.76 1545.92 1332.57 1543.66 Q1331.38 1541.36 1328.12 1541.36 Q1324.2 1541.36 1321.05 1544.66 Q1317.9 1547.96 1317.9 1553.51 L1317.9 1567.45 Q1317.9 1569.89 1318.82 1570.41 Q1319.79 1570.89 1323.79 1570.89 L1323.79 1573.23 Q1316.04 1573.01 1315.3 1573.01 Q1314.71 1573.01 1306.74 1573.23 Z" fill="#000000" fill-rule="evenodd" fill-opacity="1" /><path clip-path="url(#clip050)" d="M 0 0 M1344.24 1542.88 L1344.24 1541.21 Q1347.73 1541.06 1350.02 1538.62 Q1352.36 1536.14 1353.14 1533.1 Q1353.95 1530.06 1354.03 1526.54 L1355.92 1526.54 L1355.92 1540.51 L1366.77 1540.51 L1366.77 1542.88 L1355.92 1542.88 L1355.92 1563.96 Q1355.92 1572.15 1361.03 1572.15 Q1363.22 1572.15 1364.66 1569.93 Q1366.11 1567.67 1366.11 1563.67 L1366.11 1559.48 L1368 1559.48 L1368 1563.82 Q1368 1567.93 1366.11 1571 Q1364.22 1574.08 1360.47 1574.08 Q1359.1 1574.08 1357.73 1573.71 Q1356.4 1573.38 1354.62 1572.49 Q1352.88 1571.56 1351.77 1569.34 Q1350.69 1567.08 1350.69 1563.82 L1350.69 1542.88 L1344.24 1542.88 Z" fill="#000000" fill-rule="evenodd" fill-opacity="1" /><polyline clip-path="url(#clip052)" style="stroke:#222255; stroke-width:4; stroke-opacity:0.1; fill:none" stroke-dasharray="16, 10" points="
  182.618,1371.65 2352.76,1371.65 
  "/>
<polyline clip-path="url(#clip052)" style="stroke:#222255; stroke-width:4; stroke-opacity:0.1; fill:none" stroke-dasharray="16, 10" points="
  182.618,943.036 2352.76,943.036 
  "/>
<polyline clip-path="url(#clip052)" style="stroke:#222255; stroke-width:4; stroke-opacity:0.1; fill:none" stroke-dasharray="16, 10" points="
  182.618,514.428 2352.76,514.428 
  "/>
<polyline clip-path="url(#clip052)" style="stroke:#222255; stroke-width:4; stroke-opacity:0.1; fill:none" stroke-dasharray="16, 10" points="
  182.618,85.8189 2352.76,85.8189 
  "/>
<polyline clip-path="url(#clip052)" style="stroke:#222255; stroke-width:2; stroke-opacity:0.05; fill:none" points="
  182.618,1285.92 2352.76,1285.92 
  "/>
<polyline clip-path="url(#clip052)" style="stroke:#222255; stroke-width:2; stroke-opacity:0.05; fill:none" points="
  182.618,1200.2 2352.76,1200.2 
  "/>
<polyline clip-path="url(#clip052)" style="stroke:#222255; stroke-width:2; stroke-opacity:0.05; fill:none" points="
  182.618,1114.48 2352.76,1114.48 
  "/>
<polyline clip-path="url(#clip052)" style="stroke:#222255; stroke-width:2; stroke-opacity:0.05; fill:none" points="
  182.618,1028.76 2352.76,1028.76 
  "/>
<polyline clip-path="url(#clip052)" style="stroke:#222255; stroke-width:2; stroke-opacity:0.05; fill:none" points="
  182.618,857.315 2352.76,857.315 
  "/>
<polyline clip-path="url(#clip052)" style="stroke:#222255; stroke-width:2; stroke-opacity:0.05; fill:none" points="
  182.618,771.593 2352.76,771.593 
  "/>
<polyline clip-path="url(#clip052)" style="stroke:#222255; stroke-width:2; stroke-opacity:0.05; fill:none" points="
  182.618,685.871 2352.76,685.871 
  "/>
<polyline clip-path="url(#clip052)" style="stroke:#222255; stroke-width:2; stroke-opacity:0.05; fill:none" points="
  182.618,600.149 2352.76,600.149 
  "/>
<polyline clip-path="url(#clip052)" style="stroke:#222255; stroke-width:2; stroke-opacity:0.05; fill:none" points="
  182.618,428.706 2352.76,428.706 
  "/>
<polyline clip-path="url(#clip052)" style="stroke:#222255; stroke-width:2; stroke-opacity:0.05; fill:none" points="
  182.618,342.984 2352.76,342.984 
  "/>
<polyline clip-path="url(#clip052)" style="stroke:#222255; stroke-width:2; stroke-opacity:0.05; fill:none" points="
  182.618,257.262 2352.76,257.262 
  "/>
<polyline clip-path="url(#clip052)" style="stroke:#222255; stroke-width:2; stroke-opacity:0.05; fill:none" points="
  182.618,171.541 2352.76,171.541 
  "/>
<polyline clip-path="url(#clip050)" style="stroke:#000000; stroke-width:4; stroke-opacity:1; fill:none" points="
  182.618,1410.22 182.618,47.2441 
  "/>
<polyline clip-path="url(#clip050)" style="stroke:#000000; stroke-width:4; stroke-opacity:1; fill:none" points="
  2352.76,1410.22 2352.76,47.2441 
  "/>
<polyline clip-path="url(#clip050)" style="stroke:#000000; stroke-width:4; stroke-opacity:1; fill:none" points="
  182.618,1371.65 208.66,1371.65 
  "/>
<polyline clip-path="url(#clip050)" style="stroke:#000000; stroke-width:4; stroke-opacity:1; fill:none" points="
  182.618,943.036 208.66,943.036 
  "/>
<polyline clip-path="url(#clip050)" style="stroke:#000000; stroke-width:4; stroke-opacity:1; fill:none" points="
  182.618,514.428 208.66,514.428 
  "/>
<polyline clip-path="url(#clip050)" style="stroke:#000000; stroke-width:4; stroke-opacity:1; fill:none" points="
  182.618,85.8189 208.66,85.8189 
  "/>
<polyline clip-path="url(#clip050)" style="stroke:#000000; stroke-width:4; stroke-opacity:1; fill:none" points="
  182.618,1285.92 195.639,1285.92 
  "/>
<polyline clip-path="url(#clip050)" style="stroke:#000000; stroke-width:4; stroke-opacity:1; fill:none" points="
  182.618,1200.2 195.639,1200.2 
  "/>
<polyline clip-path="url(#clip050)" style="stroke:#000000; stroke-width:4; stroke-opacity:1; fill:none" points="
  182.618,1114.48 195.639,1114.48 
  "/>
<polyline clip-path="url(#clip050)" style="stroke:#000000; stroke-width:4; stroke-opacity:1; fill:none" points="
  182.618,1028.76 195.639,1028.76 
  "/>
<polyline clip-path="url(#clip050)" style="stroke:#000000; stroke-width:4; stroke-opacity:1; fill:none" points="
  182.618,857.315 195.639,857.315 
  "/>
<polyline clip-path="url(#clip050)" style="stroke:#000000; stroke-width:4; stroke-opacity:1; fill:none" points="
  182.618,771.593 195.639,771.593 
  "/>
<polyline clip-path="url(#clip050)" style="stroke:#000000; stroke-width:4; stroke-opacity:1; fill:none" points="
  182.618,685.871 195.639,685.871 
  "/>
<polyline clip-path="url(#clip050)" style="stroke:#000000; stroke-width:4; stroke-opacity:1; fill:none" points="
  182.618,600.149 195.639,600.149 
  "/>
<polyline clip-path="url(#clip050)" style="stroke:#000000; stroke-width:4; stroke-opacity:1; fill:none" points="
  182.618,428.706 195.639,428.706 
  "/>
<polyline clip-path="url(#clip050)" style="stroke:#000000; stroke-width:4; stroke-opacity:1; fill:none" points="
  182.618,342.984 195.639,342.984 
  "/>
<polyline clip-path="url(#clip050)" style="stroke:#000000; stroke-width:4; stroke-opacity:1; fill:none" points="
  182.618,257.262 195.639,257.262 
  "/>
<polyline clip-path="url(#clip050)" style="stroke:#000000; stroke-width:4; stroke-opacity:1; fill:none" points="
  182.618,171.541 195.639,171.541 
  "/>
<path clip-path="url(#clip050)" d="M 0 0 M125.744 1357.15 L125.744 1355.17 Q133.34 1355.17 137.262 1351.13 Q138.343 1351.13 138.528 1351.37 Q138.713 1351.62 138.713 1352.76 L138.713 1388.24 Q138.713 1390.13 139.64 1390.71 Q140.566 1391.3 144.611 1391.3 L146.618 1391.3 L146.618 1393.25 Q144.395 1393.06 136.367 1393.06 Q128.338 1393.06 126.146 1393.25 L126.146 1391.3 L128.153 1391.3 Q132.136 1391.3 133.093 1390.74 Q134.051 1390.16 134.051 1388.24 L134.051 1355.48 Q130.747 1357.15 125.744 1357.15 Z" fill="#808080" fill-rule="evenodd" fill-opacity="1" /><path clip-path="url(#clip050)" d="M 0 0 M121.359 964.636 Q121.359 963.494 121.452 963.154 Q121.575 962.814 122.07 962.29 L134.205 948.764 Q140.844 941.292 140.844 934.776 Q140.844 930.546 138.621 927.52 Q136.428 924.493 132.383 924.493 Q129.604 924.493 127.257 926.192 Q124.91 927.89 123.83 930.916 Q124.015 930.854 124.663 930.854 Q126.238 930.854 127.103 931.843 Q127.998 932.831 127.998 934.159 Q127.998 935.857 126.887 936.691 Q125.806 937.494 124.725 937.494 Q124.293 937.494 123.706 937.401 Q123.15 937.308 122.255 936.444 Q121.359 935.548 121.359 933.973 Q121.359 929.558 124.694 926.037 Q128.06 922.517 133.186 922.517 Q138.991 922.517 142.789 925.976 Q146.618 929.403 146.618 934.776 Q146.618 936.66 146.032 938.389 Q145.476 940.087 144.704 941.415 Q143.963 942.743 141.925 944.874 Q139.887 947.004 138.25 948.517 Q136.614 950.03 132.939 953.242 L126.238 959.757 L137.633 959.757 Q143.191 959.757 143.623 959.263 Q144.241 958.368 145.013 953.643 L146.618 953.643 L144.827 964.636 L121.359 964.636 Z" fill="#808080" fill-rule="evenodd" fill-opacity="1" /><path clip-path="url(#clip050)" d="M 0 0 M120.371 527.505 Q120.371 525.621 121.452 524.726 Q122.533 523.83 123.922 523.83 Q125.374 523.83 126.393 524.788 Q127.442 525.714 127.442 527.351 Q127.442 529.111 126.207 530.099 Q125.003 531.087 123.274 530.84 Q124.787 533.372 127.566 534.515 Q130.376 535.657 132.97 535.657 Q135.687 535.657 137.88 533.31 Q140.103 530.963 140.103 525.22 Q140.103 520.341 138.188 517.531 Q136.305 514.721 132.568 514.721 L129.789 514.721 Q128.832 514.721 128.554 514.628 Q128.276 514.536 128.276 514.011 Q128.276 513.393 129.233 513.27 Q130.191 513.27 131.704 513.084 Q135.378 512.961 137.324 509.78 Q139.084 506.816 139.084 502.585 Q139.084 498.726 137.231 497.12 Q135.409 495.483 133.032 495.483 Q130.808 495.483 128.369 496.41 Q125.929 497.336 124.602 499.405 Q128.523 499.405 128.523 502.585 Q128.523 503.975 127.628 504.901 Q126.763 505.797 125.312 505.797 Q123.922 505.797 122.996 504.932 Q122.07 504.037 122.07 502.524 Q122.07 498.911 125.281 496.41 Q128.523 493.908 133.279 493.908 Q137.972 493.908 141.431 496.379 Q144.92 498.849 144.92 502.647 Q144.92 506.384 142.45 509.441 Q139.979 512.498 136.058 513.764 Q140.875 514.721 143.747 517.994 Q146.618 521.236 146.618 525.22 Q146.618 530.161 142.728 533.804 Q138.837 537.417 133.155 537.417 Q127.906 537.417 124.138 534.576 Q120.371 531.735 120.371 527.505 Z" fill="#808080" fill-rule="evenodd" fill-opacity="1" /><path clip-path="url(#clip050)" d="M 0 0 M118.58 96.9817 L118.58 95.0363 L138.003 65.3614 Q138.497 64.5894 139.269 64.6203 Q139.979 64.6203 140.134 64.8982 Q140.288 65.1761 140.288 66.2569 L140.288 95.0363 L146.618 95.0363 L146.618 96.9817 L140.288 96.9817 L140.288 102.478 Q140.288 104.3 141.029 104.887 Q141.801 105.473 145.075 105.473 L146.402 105.473 L146.402 107.419 Q143.808 107.234 137.818 107.234 Q131.858 107.234 129.264 107.419 L129.264 105.473 L130.592 105.473 Q133.865 105.473 134.637 104.918 Q135.409 104.331 135.409 102.478 L135.409 96.9817 L118.58 96.9817 M120.371 95.0363 L135.78 95.0363 L135.78 71.4446 L120.371 95.0363 Z" fill="#808080" fill-rule="evenodd" fill-opacity="1" /><path clip-path="url(#clip050)" d="M 0 0 M50.7239 798.34 Q43.4982 798.34 38.4958 793.3 Q33.4933 788.261 33.4933 781.443 Q33.4933 775.662 38.1993 771.883 L21.784 771.883 Q18.9678 771.883 18.2637 772.883 Q17.5597 773.846 17.5597 777.774 L15.1882 777.774 L14.3729 766.843 L60.4324 766.843 Q63.2485 766.843 63.9896 765.88 Q64.6937 764.879 64.6937 760.951 L67.0282 760.951 L67.8804 772.105 L62.8409 772.105 Q67.8434 776.033 67.8804 782.258 Q67.8804 788.78 62.878 793.56 Q57.8756 798.34 50.7239 798.34 M50.7981 792.041 Q57.8385 792.041 61.3217 789.854 Q66.1759 786.816 66.1759 781.887 Q66.1759 776.255 60.877 772.92 Q59.5801 772.068 58.0608 772.105 L42.4977 772.105 Q40.9785 772.105 39.7186 772.92 Q35.1608 776.033 35.1608 781.109 Q35.1608 786.408 40.015 789.706 Q43.6464 792.041 50.7981 792.041 Z" fill="#000000" fill-rule="evenodd" fill-opacity="1" /><path clip-path="url(#clip050)" d="M 0 0 M67.0282 758.839 L64.6937 758.839 Q64.6937 754.8 64.212 753.874 Q63.6932 752.91 61.2476 752.91 L40.9044 752.91 Q38.0882 752.91 37.3841 753.911 Q36.6801 754.874 36.6801 758.839 L34.3086 758.839 L33.4933 748.279 L41.8307 748.279 Q38.5699 747.204 36.0501 744.944 Q33.4933 742.646 33.4933 738.941 Q33.4933 736.495 34.8644 734.939 Q36.2354 733.345 38.1252 733.345 Q39.7927 733.345 40.645 734.383 Q41.4602 735.383 41.4602 736.606 Q41.4602 737.977 40.6079 738.941 Q39.7186 739.867 38.1993 739.867 Q37.273 739.867 36.5689 739.459 Q35.8278 739.015 35.5684 738.681 Q35.309 738.348 35.2349 738.125 Q35.1608 738.274 35.1608 738.941 Q35.1608 743.128 39.348 745.536 Q43.4982 747.908 49.427 747.908 L61.0994 747.908 Q63.2856 747.908 63.9896 747.019 Q64.6937 746.092 64.6937 742.127 L64.6937 740.534 L67.0282 740.534 Q66.8058 743.573 66.8058 750.168 Q66.8058 751.095 66.8429 752.54 Q66.8799 753.985 66.954 755.875 Q67.0282 757.765 67.0282 758.839 Z" fill="#000000" fill-rule="evenodd" fill-opacity="1" /><path clip-path="url(#clip050)" d="M 0 0 M59.8024 730.159 Q53.3548 730.159 49.9458 722.562 Q47.7595 718.005 47.2037 708.593 L44.4246 708.593 Q39.7186 708.593 37.2359 711.075 Q34.7162 713.521 34.7162 716.633 Q34.7162 722.192 38.1993 724.86 Q38.2734 722.599 39.4222 721.784 Q40.5338 720.969 41.6825 720.969 Q43.2018 720.969 44.2023 721.932 Q45.1657 722.859 45.1657 724.452 Q45.1657 725.971 44.2393 726.972 Q43.2759 727.972 41.6084 727.972 Q37.9029 727.972 35.4573 724.637 Q33.0116 721.265 33.0116 716.485 Q33.0116 710.26 37.1989 706.11 Q38.4958 704.813 40.1633 704.183 Q41.8307 703.516 42.9424 703.442 Q44.017 703.368 46.1662 703.368 L61.3217 703.368 Q61.7663 703.368 62.5074 703.22 Q63.2485 703.071 64.212 702.404 Q65.1384 701.7 65.1384 700.552 Q65.1384 697.81 60.2841 697.847 L56.0228 697.847 L56.0228 695.92 L60.2841 695.92 Q64.3231 695.92 65.9165 698.069 Q67.4728 700.181 67.4728 702.145 Q67.4728 704.665 65.6201 706.258 Q63.7673 707.851 61.2476 708.074 Q64.1379 709.222 66.0277 711.853 Q67.8804 714.447 67.8804 718.005 Q67.8804 720.747 67.1764 723.34 Q66.5094 725.897 64.6196 728.046 Q62.6927 730.159 59.8024 730.159 M59.7283 724.304 Q62.5445 724.304 64.3602 722.303 Q66.1759 720.302 66.1759 717.486 Q66.1759 714.299 63.7303 711.446 Q61.2476 708.593 56.3934 708.593 L48.7971 708.593 Q49.0935 717.004 52.4655 720.672 Q55.8005 724.304 59.7283 724.304 Z" fill="#000000" fill-rule="evenodd" fill-opacity="1" /><path clip-path="url(#clip050)" d="M 0 0 M73.0311 693.808 Q70.5854 693.808 68.4733 691.955 Q66.3612 690.065 65.4348 686.804 Q63.3227 690.139 58.6908 690.139 Q55.1335 690.139 52.3914 687.805 Q49.427 691.362 44.5728 691.362 Q40.0891 691.362 36.7912 687.805 Q33.4933 684.247 33.4933 679.06 Q33.4933 674.502 36.2354 671.019 Q32.6781 667.387 32.6411 662.978 Q32.6411 661.014 33.8639 660.088 Q35.0867 659.124 36.3836 659.124 Q37.5323 659.124 38.0882 659.865 Q38.644 660.569 38.644 661.31 Q38.644 662.237 38.0511 662.904 Q37.4212 663.534 36.4578 663.534 Q34.8644 663.534 34.3827 662.311 Q34.3086 662.533 34.3086 663.052 Q34.3086 666.757 37.273 669.907 Q40.1633 666.794 44.6469 666.794 Q49.1306 666.794 52.4285 670.352 Q55.7264 673.909 55.7264 679.06 Q55.7264 683.321 53.3548 686.582 Q54.8741 687.879 56.9492 687.879 Q58.839 687.879 60.3212 686.73 Q61.8034 685.581 62.0257 683.84 Q62.0998 683.321 62.0998 678.17 Q62.0998 675.132 62.1739 673.464 Q62.2481 671.797 62.7668 669.425 Q63.2485 667.017 64.212 665.127 Q66.954 660.199 72.8829 660.162 Q77.2183 660.162 79.9233 665.164 Q82.6654 670.129 82.6654 677.022 Q82.6654 683.988 79.8863 688.916 Q77.1442 693.808 73.0311 693.808 M73.0311 689.843 Q76.1437 689.843 78.5152 686.174 Q80.9238 682.506 80.9238 676.948 Q80.9238 671.5 78.5523 667.832 Q76.2178 664.127 73.0311 664.127 Q70.7707 664.127 69.3256 665.423 Q67.8804 666.72 67.2875 669.388 Q66.7317 672.019 66.6206 673.872 Q66.5094 675.725 66.5094 679.134 L66.5094 683.617 Q66.6576 686.211 68.5474 688.027 Q70.4372 689.843 73.0311 689.843 M44.6469 685.693 Q53.9848 685.693 53.9848 679.06 Q53.9848 675.725 50.9463 673.687 Q48.9082 672.464 44.5728 672.464 Q35.2349 672.464 35.2349 679.06 Q35.2349 682.395 38.2734 684.47 Q40.3115 685.693 44.6469 685.693 Z" fill="#000000" fill-rule="evenodd" fill-opacity="1" /><circle clip-path="url(#clip052)" cx="244.037" cy="85.8189" r="21" fill="#4477aa" fill-rule="evenodd" fill-opacity="1" stroke="#000000" stroke-opacity="1" stroke-width="0"/>
<circle clip-path="url(#clip052)" cx="249.709" cy="174.865" r="21" fill="#4477aa" fill-rule="evenodd" fill-opacity="1" stroke="#000000" stroke-opacity="1" stroke-width="0"/>
<circle clip-path="url(#clip052)" cx="266.722" cy="261.537" r="21" fill="#4477aa" fill-rule="evenodd" fill-opacity="1" stroke="#000000" stroke-opacity="1" stroke-width="0"/>
<circle clip-path="url(#clip052)" cx="295.078" cy="345.834" r="21" fill="#4477aa" fill-rule="evenodd" fill-opacity="1" stroke="#000000" stroke-opacity="1" stroke-width="0"/>
<circle clip-path="url(#clip052)" cx="334.776" cy="427.756" r="21" fill="#4477aa" fill-rule="evenodd" fill-opacity="1" stroke="#000000" stroke-opacity="1" stroke-width="0"/>
<circle clip-path="url(#clip052)" cx="385.817" cy="507.304" r="21" fill="#4477aa" fill-rule="evenodd" fill-opacity="1" stroke="#000000" stroke-opacity="1" stroke-width="0"/>
<circle clip-path="url(#clip052)" cx="448.2" cy="584.477" r="21" fill="#4477aa" fill-rule="evenodd" fill-opacity="1" stroke="#000000" stroke-opacity="1" stroke-width="0"/>
<circle clip-path="url(#clip052)" cx="521.926" cy="659.276" r="21" fill="#4477aa" fill-rule="evenodd" fill-opacity="1" stroke="#000000" stroke-opacity="1" stroke-width="0"/>
<circle clip-path="url(#clip052)" cx="606.994" cy="731.7" r="21" fill="#4477aa" fill-rule="evenodd" fill-opacity="1" stroke="#000000" stroke-opacity="1" stroke-width="0"/>
<circle clip-path="url(#clip052)" cx="703.404" cy="801.75" r="21" fill="#4477aa" fill-rule="evenodd" fill-opacity="1" stroke="#000000" stroke-opacity="1" stroke-width="0"/>
<circle clip-path="url(#clip052)" cx="811.156" cy="869.425" r="21" fill="#4477aa" fill-rule="evenodd" fill-opacity="1" stroke="#000000" stroke-opacity="1" stroke-width="0"/>
<circle clip-path="url(#clip052)" cx="930.251" cy="934.725" r="21" fill="#4477aa" fill-rule="evenodd" fill-opacity="1" stroke="#000000" stroke-opacity="1" stroke-width="0"/>
<circle clip-path="url(#clip052)" cx="1060.69" cy="997.651" r="21" fill="#4477aa" fill-rule="evenodd" fill-opacity="1" stroke="#000000" stroke-opacity="1" stroke-width="0"/>
<circle clip-path="url(#clip052)" cx="1202.47" cy="1058.2" r="21" fill="#4477aa" fill-rule="evenodd" fill-opacity="1" stroke="#000000" stroke-opacity="1" stroke-width="0"/>
<circle clip-path="url(#clip052)" cx="1355.59" cy="1116.38" r="21" fill="#4477aa" fill-rule="evenodd" fill-opacity="1" stroke="#000000" stroke-opacity="1" stroke-width="0"/>
<circle clip-path="url(#clip052)" cx="1520.06" cy="1172.18" r="21" fill="#4477aa" fill-rule="evenodd" fill-opacity="1" stroke="#000000" stroke-opacity="1" stroke-width="0"/>
<circle clip-path="url(#clip052)" cx="1695.86" cy="1225.61" r="21" fill="#4477aa" fill-rule="evenodd" fill-opacity="1" stroke="#000000" stroke-opacity="1" stroke-width="0"/>
<circle clip-path="url(#clip052)" cx="1883.01" cy="1276.66" r="21" fill="#4477aa" fill-rule="evenodd" fill-opacity="1" stroke="#000000" stroke-opacity="1" stroke-width="0"/>
<circle clip-path="url(#clip052)" cx="2081.5" cy="1325.34" r="21" fill="#4477aa" fill-rule="evenodd" fill-opacity="1" stroke="#000000" stroke-opacity="1" stroke-width="0"/>
<circle clip-path="url(#clip052)" cx="2291.34" cy="1371.65" r="21" fill="#4477aa" fill-rule="evenodd" fill-opacity="1" stroke="#000000" stroke-opacity="1" stroke-width="0"/>
</svg>
