<?xml version="1.0" encoding="utf-8"?>
<svg xmlns="http://www.w3.org/2000/svg" xmlns:xlink="http://www.w3.org/1999/xlink" width="600" height="400" viewBox="0 0 2400 1600">
<defs>
  <clipPath id="clip110">
    <rect x="0" y="0" width="2400" height="1600"/>
  </clipPath>
</defs>
<path clip-path="url(#clip110)" d="
M0 1600 L2400 1600 L2400 0 L0 0  Z
  " fill="#ffffff" fill-rule="evenodd" fill-opacity="1"/>
<defs>
  <clipPath id="clip111">
    <rect x="480" y="0" width="1681" height="1600"/>
  </clipPath>
</defs>
<path clip-path="url(#clip110)" d="
M252.282 1410.22 L2352.76 1410.22 L2352.76 47.2441 L252.282 47.2441  Z
  " fill="#ffffff" fill-rule="evenodd" fill-opacity="1"/>
<defs>
  <clipPath id="clip112">
    <rect x="252" y="47" width="2101" height="1364"/>
  </clipPath>
</defs>
<polyline clip-path="url(#clip112)" style="stroke:#222255; stroke-width:4; stroke-opacity:0.1; fill:none" stroke-dasharray="16, 10" points="
  311.729,1410.22 311.729,47.2441 
  "/>
<polyline clip-path="url(#clip112)" style="stroke:#222255; stroke-width:4; stroke-opacity:0.1; fill:none" stroke-dasharray="16, 10" points="
  807.124,1410.22 807.124,47.2441 
  "/>
<polyline clip-path="url(#clip112)" style="stroke:#222255; stroke-width:4; stroke-opacity:0.1; fill:none" stroke-dasharray="16, 10" points="
  1302.52,1410.22 1302.52,47.2441 
  "/>
<polyline clip-path="url(#clip112)" style="stroke:#222255; stroke-width:4; stroke-opacity:0.1; fill:none" stroke-dasharray="16, 10" points="
  1797.91,1410.22 1797.91,47.2441 
  "/>
<polyline clip-path="url(#clip112)" style="stroke:#222255; stroke-width:4; stroke-opacity:0.1; fill:none" stroke-dasharray="16, 10" points="
  2293.31,1410.22 2293.31,47.2441 
  "/>
<polyline clip-path="url(#clip112)" style="stroke:#222255; stroke-width:2; stroke-opacity:0.05; fill:none" points="
  410.808,1410.22 410.808,47.2441 
  "/>
<polyline clip-path="url(#clip112)" style="stroke:#222255; stroke-width:2; stroke-opacity:0.05; fill:none" points="
  509.887,1410.22 509.887,47.2441 
  "/>
<polyline clip-path="url(#clip112)" style="stroke:#222255; stroke-width:2; stroke-opacity:0.05; fill:none" points="
  608.966,1410.22 608.966,47.2441 
  "/>
<polyline clip-path="url(#clip112)" style="stroke:#222255; stroke-width:2; stroke-opacity:0.05; fill:none" points="
  708.045,1410.22 708.045,47.2441 
  "/>
<polyline clip-path="url(#clip112)" style="stroke:#222255; stroke-width:2; stroke-opacity:0.05; fill:none" points="
  906.203,1410.22 906.203,47.2441 
  "/>
<polyline clip-path="url(#clip112)" style="stroke:#222255; stroke-width:2; stroke-opacity:0.05; fill:none" points="
  1005.28,1410.22 1005.28,47.2441 
  "/>
<polyline clip-path="url(#clip112)" style="stroke:#222255; stroke-width:2; stroke-opacity:0.05; fill:none" points="
  1104.36,1410.22 1104.36,47.2441 
  "/>
<polyline clip-path="url(#clip112)" style="stroke:#222255; stroke-width:2; stroke-opacity:0.05; fill:none" points="
  1203.44,1410.22 1203.44,47.2441 
  "/>
<polyline clip-path="url(#clip112)" style="stroke:#222255; stroke-width:2; stroke-opacity:0.05; fill:none" points="
  1401.6,1410.22 1401.6,47.2441 
  "/>
<polyline clip-path="url(#clip112)" style="stroke:#222255; stroke-width:2; stroke-opacity:0.05; fill:none" points="
  1500.68,1410.22 1500.68,47.2441 
  "/>
<polyline clip-path="url(#clip112)" style="stroke:#222255; stroke-width:2; stroke-opacity:0.05; fill:none" points="
  1599.76,1410.22 1599.76,47.2441 
  "/>
<polyline clip-path="url(#clip112)" style="stroke:#222255; stroke-width:2; stroke-opacity:0.05; fill:none" points="
  1698.83,1410.22 1698.83,47.2441 
  "/>
<polyline clip-path="url(#clip112)" style="stroke:#222255; stroke-width:2; stroke-opacity:0.05; fill:none" points="
  1896.99,1410.22 1896.99,47.2441 
  "/>
<polyline clip-path="url(#clip112)" style="stroke:#222255; stroke-width:2; stroke-opacity:0.05; fill:none" points="
  1996.07,1410.22 1996.07,47.2441 
  "/>
<polyline clip-path="url(#clip112)" style="stroke:#222255; stroke-width:2; stroke-opacity:0.05; fill:none" points="
  2095.15,1410.22 2095.15,47.2441 
  "/>
<polyline clip-path="url(#clip112)" style="stroke:#222255; stroke-width:2; stroke-opacity:0.05; fill:none" points="
  2194.23,1410.22 2194.23,47.2441 
  "/>
<polyline clip-path="url(#clip110)" style="stroke:#000000; stroke-width:4; stroke-opacity:1; fill:none" points="
  252.282,1410.22 2352.76,1410.22 
  "/>
<polyline clip-path="url(#clip110)" style="stroke:#000000; stroke-width:4; stroke-opacity:1; fill:none" points="
  252.282,47.2441 2352.76,47.2441 
  "/>
<polyline clip-path="url(#clip110)" style="stroke:#000000; stroke-width:4; stroke-opacity:1; fill:none" points="
  311.729,1410.22 311.729,1393.86 
  "/>
<polyline clip-path="url(#clip110)" style="stroke:#000000; stroke-width:4; stroke-opacity:1; fill:none" points="
  807.124,1410.22 807.124,1393.86 
  "/>
<polyline clip-path="url(#clip110)" style="stroke:#000000; stroke-width:4; stroke-opacity:1; fill:none" points="
  1302.52,1410.22 1302.52,1393.86 
  "/>
<polyline clip-path="url(#clip110)" style="stroke:#000000; stroke-width:4; stroke-opacity:1; fill:none" points="
  1797.91,1410.22 1797.91,1393.86 
  "/>
<polyline clip-path="url(#clip110)" style="stroke:#000000; stroke-width:4; stroke-opacity:1; fill:none" points="
  2293.31,1410.22 2293.31,1393.86 
  "/>
<polyline clip-path="url(#clip110)" style="stroke:#000000; stroke-width:4; stroke-opacity:1; fill:none" points="
  410.808,1410.22 410.808,1402.04 
  "/>
<polyline clip-path="url(#clip110)" style="stroke:#000000; stroke-width:4; stroke-opacity:1; fill:none" points="
  509.887,1410.22 509.887,1402.04 
  "/>
<polyline clip-path="url(#clip110)" style="stroke:#000000; stroke-width:4; stroke-opacity:1; fill:none" points="
  608.966,1410.22 608.966,1402.04 
  "/>
<polyline clip-path="url(#clip110)" style="stroke:#000000; stroke-width:4; stroke-opacity:1; fill:none" points="
  708.045,1410.22 708.045,1402.04 
  "/>
<polyline clip-path="url(#clip110)" style="stroke:#000000; stroke-width:4; stroke-opacity:1; fill:none" points="
  906.203,1410.22 906.203,1402.04 
  "/>
<polyline clip-path="url(#clip110)" style="stroke:#000000; stroke-width:4; stroke-opacity:1; fill:none" points="
  1005.28,1410.22 1005.28,1402.04 
  "/>
<polyline clip-path="url(#clip110)" style="stroke:#000000; stroke-width:4; stroke-opacity:1; fill:none" points="
  1104.36,1410.22 1104.36,1402.04 
  "/>
<polyline clip-path="url(#clip110)" style="stroke:#000000; stroke-width:4; stroke-opacity:1; fill:none" points="
  1203.44,1410.22 1203.44,1402.04 
  "/>
<polyline clip-path="url(#clip110)" style="stroke:#000000; stroke-width:4; stroke-opacity:1; fill:none" points="
  1401.6,1410.22 1401.6,1402.04 
  "/>
<polyline clip-path="url(#clip110)" style="stroke:#000000; stroke-width:4; stroke-opacity:1; fill:none" points="
  1500.68,1410.22 1500.68,1402.04 
  "/>
<polyline clip-path="url(#clip110)" style="stroke:#000000; stroke-width:4; stroke-opacity:1; fill:none" points="
  1599.76,1410.22 1599.76,1402.04 
  "/>
<polyline clip-path="url(#clip110)" style="stroke:#000000; stroke-width:4; stroke-opacity:1; fill:none" points="
  1698.83,1410.22 1698.83,1402.04 
  "/>
<polyline clip-path="url(#clip110)" style="stroke:#000000; stroke-width:4; stroke-opacity:1; fill:none" points="
  1896.99,1410.22 1896.99,1402.04 
  "/>
<polyline clip-path="url(#clip110)" style="stroke:#000000; stroke-width:4; stroke-opacity:1; fill:none" points="
  1996.07,1410.22 1996.07,1402.04 
  "/>
<polyline clip-path="url(#clip110)" style="stroke:#000000; stroke-width:4; stroke-opacity:1; fill:none" points="
  2095.15,1410.22 2095.15,1402.04 
  "/>
<polyline clip-path="url(#clip110)" style="stroke:#000000; stroke-width:4; stroke-opacity:1; fill:none" points="
  2194.23,1410.22 2194.23,1402.04 
  "/>
<path clip-path="url(#clip110)" d="M 0 0 M263.326 1461.03 Q263.326 1451.74 265.673 1446.68 Q268.946 1439.14 276.666 1439.14 Q278.303 1439.14 280.001 1439.6 Q281.73 1440.04 283.892 1441.73 Q286.084 1443.43 287.412 1446.21 Q289.944 1451.58 289.944 1461.03 Q289.944 1470.27 287.597 1475.3 Q284.17 1482.65 276.604 1482.65 Q273.763 1482.65 270.861 1481.2 Q267.989 1479.75 266.167 1476.26 Q263.326 1471.04 263.326 1461.03 M268.576 1460.26 Q268.576 1469.8 269.255 1473.6 Q270.027 1477.71 272.127 1479.5 Q274.257 1481.26 276.604 1481.26 Q279.136 1481.26 281.236 1479.38 Q283.367 1477.46 284.015 1473.35 Q284.725 1469.31 284.695 1460.26 Q284.695 1451.46 284.077 1447.94 Q283.243 1443.83 281.02 1442.2 Q278.828 1440.53 276.604 1440.53 Q275.77 1440.53 274.875 1440.78 Q274.01 1441.02 272.744 1441.73 Q271.478 1442.44 270.49 1444.2 Q269.533 1445.96 269.07 1448.62 Q268.576 1452.05 268.576 1460.26 Z" fill="#808080" fill-rule="evenodd" fill-opacity="1" /><path clip-path="url(#clip110)" d="M 0 0 M296.274 1480.24 Q295.317 1479.22 295.317 1477.89 Q295.317 1476.57 296.274 1475.61 Q297.232 1474.62 298.683 1474.62 Q300.072 1474.62 300.999 1475.55 Q301.956 1476.44 301.956 1477.92 Q301.956 1479.38 300.937 1480.33 Q299.949 1481.26 298.683 1481.26 Q297.232 1481.26 296.274 1480.24 Z" fill="#808080" fill-rule="evenodd" fill-opacity="1" /><path clip-path="url(#clip110)" d="M 0 0 M304.426 1461.03 Q304.426 1451.74 306.773 1446.68 Q310.046 1439.14 317.766 1439.14 Q319.403 1439.14 321.101 1439.6 Q322.83 1440.04 324.992 1441.73 Q327.184 1443.43 328.512 1446.21 Q331.044 1451.58 331.044 1461.03 Q331.044 1470.27 328.697 1475.3 Q325.27 1482.65 317.704 1482.65 Q314.864 1482.65 311.961 1481.2 Q309.089 1479.75 307.267 1476.26 Q304.426 1471.04 304.426 1461.03 M309.676 1460.26 Q309.676 1469.8 310.355 1473.6 Q311.127 1477.71 313.227 1479.5 Q315.358 1481.26 317.704 1481.26 Q320.237 1481.26 322.336 1479.38 Q324.467 1477.46 325.115 1473.35 Q325.826 1469.31 325.795 1460.26 Q325.795 1451.46 325.177 1447.94 Q324.343 1443.83 322.12 1442.2 Q319.928 1440.53 317.704 1440.53 Q316.871 1440.53 315.975 1440.78 Q315.111 1441.02 313.845 1441.73 Q312.578 1442.44 311.59 1444.2 Q310.633 1445.96 310.17 1448.62 Q309.676 1452.05 309.676 1460.26 Z" fill="#808080" fill-rule="evenodd" fill-opacity="1" /><path clip-path="url(#clip110)" d="M 0 0 M333.515 1461.03 Q333.515 1451.74 335.861 1446.68 Q339.135 1439.14 346.854 1439.14 Q348.491 1439.14 350.189 1439.6 Q351.919 1440.04 354.08 1441.73 Q356.273 1443.43 357.6 1446.21 Q360.132 1451.58 360.132 1461.03 Q360.132 1470.27 357.786 1475.3 Q354.358 1482.65 346.793 1482.65 Q343.952 1482.65 341.049 1481.2 Q338.177 1479.75 336.355 1476.26 Q333.515 1471.04 333.515 1461.03 M338.764 1460.26 Q338.764 1469.8 339.443 1473.6 Q340.215 1477.71 342.315 1479.5 Q344.446 1481.26 346.793 1481.26 Q349.325 1481.26 351.425 1479.38 Q353.555 1477.46 354.204 1473.35 Q354.914 1469.31 354.883 1460.26 Q354.883 1451.46 354.265 1447.94 Q353.432 1443.83 351.208 1442.2 Q349.016 1440.53 346.793 1440.53 Q345.959 1440.53 345.063 1440.78 Q344.199 1441.02 342.933 1441.73 Q341.667 1442.44 340.679 1444.2 Q339.721 1445.96 339.258 1448.62 Q338.764 1452.05 338.764 1460.26 Z" fill="#808080" fill-rule="evenodd" fill-opacity="1" /><path clip-path="url(#clip110)" d="M 0 0 M759.4 1461.03 Q759.4 1451.74 761.747 1446.68 Q765.02 1439.14 772.74 1439.14 Q774.377 1439.14 776.075 1439.6 Q777.804 1440.04 779.966 1441.73 Q782.158 1443.43 783.486 1446.21 Q786.018 1451.58 786.018 1461.03 Q786.018 1470.27 783.671 1475.3 Q780.244 1482.65 772.678 1482.65 Q769.837 1482.65 766.935 1481.2 Q764.063 1479.75 762.241 1476.26 Q759.4 1471.04 759.4 1461.03 M764.65 1460.26 Q764.65 1469.8 765.329 1473.6 Q766.101 1477.71 768.201 1479.5 Q770.332 1481.26 772.678 1481.26 Q775.21 1481.26 777.31 1479.38 Q779.441 1477.46 780.089 1473.35 Q780.8 1469.31 780.769 1460.26 Q780.769 1451.46 780.151 1447.94 Q779.317 1443.83 777.094 1442.2 Q774.902 1440.53 772.678 1440.53 Q771.845 1440.53 770.949 1440.78 Q770.085 1441.02 768.818 1441.73 Q767.552 1442.44 766.564 1444.2 Q765.607 1445.96 765.144 1448.62 Q764.65 1452.05 764.65 1460.26 Z" fill="#808080" fill-rule="evenodd" fill-opacity="1" /><path clip-path="url(#clip110)" d="M 0 0 M792.348 1480.24 Q791.391 1479.22 791.391 1477.89 Q791.391 1476.57 792.348 1475.61 Q793.306 1474.62 794.757 1474.62 Q796.147 1474.62 797.073 1475.55 Q798.03 1476.44 798.03 1477.92 Q798.03 1479.38 797.011 1480.33 Q796.023 1481.26 794.757 1481.26 Q793.306 1481.26 792.348 1480.24 Z" fill="#808080" fill-rule="evenodd" fill-opacity="1" /><path clip-path="url(#clip110)" d="M 0 0 M801.18 1481.26 Q801.18 1480.12 801.273 1479.78 Q801.396 1479.44 801.89 1478.91 L814.026 1465.39 Q820.665 1457.92 820.665 1451.4 Q820.665 1447.17 818.441 1444.14 Q816.249 1441.12 812.204 1441.12 Q809.425 1441.12 807.078 1442.82 Q804.731 1444.51 803.65 1447.54 Q803.835 1447.48 804.484 1447.48 Q806.059 1447.48 806.923 1448.47 Q807.819 1449.45 807.819 1450.78 Q807.819 1452.48 806.707 1453.31 Q805.626 1454.12 804.546 1454.12 Q804.113 1454.12 803.527 1454.02 Q802.971 1453.93 802.075 1453.07 Q801.18 1452.17 801.18 1450.6 Q801.18 1446.18 804.515 1442.66 Q807.881 1439.14 813.007 1439.14 Q818.812 1439.14 822.61 1442.6 Q826.439 1446.03 826.439 1451.4 Q826.439 1453.28 825.852 1455.01 Q825.297 1456.71 824.525 1458.04 Q823.783 1459.37 821.745 1461.5 Q819.707 1463.63 818.071 1465.14 Q816.434 1466.65 812.76 1469.87 L806.059 1476.38 L817.453 1476.38 Q823.011 1476.38 823.444 1475.89 Q824.061 1474.99 824.833 1470.27 L826.439 1470.27 L824.648 1481.26 L801.18 1481.26 Z" fill="#808080" fill-rule="evenodd" fill-opacity="1" /><path clip-path="url(#clip110)" d="M 0 0 M829.589 1471.07 Q829.589 1469.19 830.608 1468.48 Q831.627 1467.73 832.708 1467.73 Q834.159 1467.73 834.993 1468.66 Q835.857 1469.56 835.857 1470.82 Q835.857 1472.09 834.993 1473.02 Q834.159 1473.91 832.708 1473.91 Q831.997 1473.91 831.627 1473.79 Q832.461 1476.69 834.993 1478.79 Q837.556 1480.89 840.921 1480.89 Q845.152 1480.89 847.684 1476.78 Q849.197 1474.13 849.197 1468.11 Q849.197 1462.79 848.055 1460.14 Q846.294 1456.09 842.682 1456.09 Q837.556 1456.09 834.529 1460.51 Q834.159 1461.06 833.727 1461.1 Q833.109 1461.1 832.955 1460.76 Q832.831 1460.39 832.831 1459.43 L832.831 1440.72 Q832.831 1439.2 833.449 1439.2 Q833.696 1439.2 834.221 1439.39 Q838.204 1441.15 842.62 1441.18 Q847.159 1441.18 851.235 1439.33 Q851.544 1439.14 851.729 1439.14 Q852.347 1439.14 852.378 1439.85 Q852.378 1440.1 851.853 1440.84 Q851.359 1441.55 850.278 1442.51 Q849.197 1443.43 847.807 1444.33 Q846.418 1445.22 844.38 1445.84 Q842.373 1446.43 840.149 1446.43 Q837.494 1446.43 834.776 1445.59 L834.776 1457.92 Q838.05 1454.7 842.805 1454.7 Q847.869 1454.7 851.359 1458.78 Q854.848 1462.86 854.848 1468.54 Q854.848 1474.5 850.71 1478.57 Q846.603 1482.65 841.045 1482.65 Q835.981 1482.65 832.769 1479.04 Q829.589 1475.42 829.589 1471.07 Z" fill="#808080" fill-rule="evenodd" fill-opacity="1" /><path clip-path="url(#clip110)" d="M 0 0 M1254.46 1461.03 Q1254.46 1451.74 1256.8 1446.68 Q1260.08 1439.14 1267.8 1439.14 Q1269.43 1439.14 1271.13 1439.6 Q1272.86 1440.04 1275.02 1441.73 Q1277.21 1443.43 1278.54 1446.21 Q1281.07 1451.58 1281.07 1461.03 Q1281.07 1470.27 1278.73 1475.3 Q1275.3 1482.65 1267.73 1482.65 Q1264.89 1482.65 1261.99 1481.2 Q1259.12 1479.75 1257.3 1476.26 Q1254.46 1471.04 1254.46 1461.03 M1259.7 1460.26 Q1259.7 1469.8 1260.38 1473.6 Q1261.16 1477.71 1263.26 1479.5 Q1265.39 1481.26 1267.73 1481.26 Q1270.27 1481.26 1272.37 1479.38 Q1274.5 1477.46 1275.14 1473.35 Q1275.85 1469.31 1275.82 1460.26 Q1275.82 1451.46 1275.21 1447.94 Q1274.37 1443.83 1272.15 1442.2 Q1269.96 1440.53 1267.73 1440.53 Q1266.9 1440.53 1266 1440.78 Q1265.14 1441.02 1263.87 1441.73 Q1262.61 1442.44 1261.62 1444.2 Q1260.66 1445.96 1260.2 1448.62 Q1259.7 1452.05 1259.7 1460.26 Z" fill="#808080" fill-rule="evenodd" fill-opacity="1" /><path clip-path="url(#clip110)" d="M 0 0 M1287.4 1480.24 Q1286.45 1479.22 1286.45 1477.89 Q1286.45 1476.57 1287.4 1475.61 Q1288.36 1474.62 1289.81 1474.62 Q1291.2 1474.62 1292.13 1475.55 Q1293.09 1476.44 1293.09 1477.92 Q1293.09 1479.38 1292.07 1480.33 Q1291.08 1481.26 1289.81 1481.26 Q1288.36 1481.26 1287.4 1480.24 Z" fill="#808080" fill-rule="evenodd" fill-opacity="1" /><path clip-path="url(#clip110)" d="M 0 0 M1296.24 1471.07 Q1296.24 1469.19 1297.25 1468.48 Q1298.27 1467.73 1299.35 1467.73 Q1300.81 1467.73 1301.64 1468.66 Q1302.5 1469.56 1302.5 1470.82 Q1302.5 1472.09 1301.64 1473.02 Q1300.81 1473.91 1299.35 1473.91 Q1298.64 1473.91 1298.27 1473.79 Q1299.11 1476.69 1301.64 1478.79 Q1304.2 1480.89 1307.57 1480.89 Q1311.8 1480.89 1314.33 1476.78 Q1315.84 1474.13 1315.84 1468.11 Q1315.84 1462.79 1314.7 1460.14 Q1312.94 1456.09 1309.33 1456.09 Q1304.2 1456.09 1301.18 1460.51 Q1300.81 1461.06 1300.37 1461.1 Q1299.76 1461.1 1299.6 1460.76 Q1299.48 1460.39 1299.48 1459.43 L1299.48 1440.72 Q1299.48 1439.2 1300.09 1439.2 Q1300.34 1439.2 1300.87 1439.39 Q1304.85 1441.15 1309.27 1441.18 Q1313.81 1441.18 1317.88 1439.33 Q1318.19 1439.14 1318.38 1439.14 Q1318.99 1439.14 1319.02 1439.85 Q1319.02 1440.1 1318.5 1440.84 Q1318 1441.55 1316.92 1442.51 Q1315.84 1443.43 1314.45 1444.33 Q1313.06 1445.22 1311.03 1445.84 Q1309.02 1446.43 1306.8 1446.43 Q1304.14 1446.43 1301.42 1445.59 L1301.42 1457.92 Q1304.7 1454.7 1309.45 1454.7 Q1314.52 1454.7 1318 1458.78 Q1321.49 1462.86 1321.49 1468.54 Q1321.49 1474.5 1317.36 1478.57 Q1313.25 1482.65 1307.69 1482.65 Q1302.63 1482.65 1299.42 1479.04 Q1296.24 1475.42 1296.24 1471.07 Z" fill="#808080" fill-rule="evenodd" fill-opacity="1" /><path clip-path="url(#clip110)" d="M 0 0 M1323.96 1461.03 Q1323.96 1451.74 1326.31 1446.68 Q1329.58 1439.14 1337.3 1439.14 Q1338.94 1439.14 1340.64 1439.6 Q1342.37 1440.04 1344.53 1441.73 Q1346.72 1443.43 1348.05 1446.21 Q1350.58 1451.58 1350.58 1461.03 Q1350.58 1470.27 1348.24 1475.3 Q1344.81 1482.65 1337.24 1482.65 Q1334.4 1482.65 1331.5 1481.2 Q1328.63 1479.75 1326.81 1476.26 Q1323.96 1471.04 1323.96 1461.03 M1329.21 1460.26 Q1329.21 1469.8 1329.89 1473.6 Q1330.67 1477.71 1332.77 1479.5 Q1334.9 1481.26 1337.24 1481.26 Q1339.77 1481.26 1341.87 1479.38 Q1344.01 1477.46 1344.65 1473.35 Q1345.36 1469.31 1345.33 1460.26 Q1345.33 1451.46 1344.72 1447.94 Q1343.88 1443.83 1341.66 1442.2 Q1339.47 1440.53 1337.24 1440.53 Q1336.41 1440.53 1335.51 1440.78 Q1334.65 1441.02 1333.38 1441.73 Q1332.12 1442.44 1331.13 1444.2 Q1330.17 1445.96 1329.71 1448.62 Q1329.21 1452.05 1329.21 1460.26 Z" fill="#808080" fill-rule="evenodd" fill-opacity="1" /><path clip-path="url(#clip110)" d="M 0 0 M1749.06 1461.03 Q1749.06 1451.74 1751.41 1446.68 Q1754.68 1439.14 1762.4 1439.14 Q1764.04 1439.14 1765.74 1439.6 Q1767.47 1440.04 1769.63 1441.73 Q1771.82 1443.43 1773.15 1446.21 Q1775.68 1451.58 1775.68 1461.03 Q1775.68 1470.27 1773.33 1475.3 Q1769.91 1482.65 1762.34 1482.65 Q1759.5 1482.65 1756.6 1481.2 Q1753.73 1479.75 1751.9 1476.26 Q1749.06 1471.04 1749.06 1461.03 M1754.31 1460.26 Q1754.31 1469.8 1754.99 1473.6 Q1755.76 1477.71 1757.86 1479.5 Q1759.99 1481.26 1762.34 1481.26 Q1764.87 1481.26 1766.97 1479.38 Q1769.1 1477.46 1769.75 1473.35 Q1770.46 1469.31 1770.43 1460.26 Q1770.43 1451.46 1769.81 1447.94 Q1768.98 1443.83 1766.76 1442.2 Q1764.56 1440.53 1762.34 1440.53 Q1761.51 1440.53 1760.61 1440.78 Q1759.75 1441.02 1758.48 1441.73 Q1757.21 1442.44 1756.23 1444.2 Q1755.27 1445.96 1754.81 1448.62 Q1754.31 1452.05 1754.31 1460.26 Z" fill="#808080" fill-rule="evenodd" fill-opacity="1" /><path clip-path="url(#clip110)" d="M 0 0 M1782.01 1480.24 Q1781.05 1479.22 1781.05 1477.89 Q1781.05 1476.57 1782.01 1475.61 Q1782.97 1474.62 1784.42 1474.62 Q1785.81 1474.62 1786.74 1475.55 Q1787.69 1476.44 1787.69 1477.92 Q1787.69 1479.38 1786.67 1480.33 Q1785.69 1481.26 1784.42 1481.26 Q1782.97 1481.26 1782.01 1480.24 Z" fill="#808080" fill-rule="evenodd" fill-opacity="1" /><path clip-path="url(#clip110)" d="M 0 0 M1791.24 1451.52 L1793.31 1438.52 L1794.89 1438.52 Q1795.07 1439.3 1795.38 1439.63 Q1795.72 1439.97 1797.51 1440.25 Q1799.33 1440.53 1803.01 1440.53 L1818.36 1440.53 Q1818.36 1441.98 1817.8 1442.75 L1809.25 1454.77 Q1806.53 1458.56 1805.32 1465.57 Q1804.61 1470.27 1804.65 1475.95 L1804.65 1479.16 Q1804.65 1482.65 1801.71 1482.65 Q1798.81 1482.65 1798.81 1479.16 Q1798.81 1467.09 1806.59 1455.38 Q1807.42 1454.18 1810.48 1449.89 Q1813.57 1445.59 1813.69 1445.41 L1800.6 1445.41 Q1794.86 1445.41 1794.39 1445.78 Q1793.78 1446.34 1792.82 1451.52 L1791.24 1451.52 Z" fill="#808080" fill-rule="evenodd" fill-opacity="1" /><path clip-path="url(#clip110)" d="M 0 0 M1821.51 1471.07 Q1821.51 1469.19 1822.52 1468.48 Q1823.54 1467.73 1824.62 1467.73 Q1826.08 1467.73 1826.91 1468.66 Q1827.77 1469.56 1827.77 1470.82 Q1827.77 1472.09 1826.91 1473.02 Q1826.08 1473.91 1824.62 1473.91 Q1823.91 1473.91 1823.54 1473.79 Q1824.38 1476.69 1826.91 1478.79 Q1829.47 1480.89 1832.84 1480.89 Q1837.07 1480.89 1839.6 1476.78 Q1841.11 1474.13 1841.11 1468.11 Q1841.11 1462.79 1839.97 1460.14 Q1838.21 1456.09 1834.6 1456.09 Q1829.47 1456.09 1826.45 1460.51 Q1826.08 1461.06 1825.64 1461.1 Q1825.03 1461.1 1824.87 1460.76 Q1824.75 1460.39 1824.75 1459.43 L1824.75 1440.72 Q1824.75 1439.2 1825.37 1439.2 Q1825.61 1439.2 1826.14 1439.39 Q1830.12 1441.15 1834.54 1441.18 Q1839.08 1441.18 1843.15 1439.33 Q1843.46 1439.14 1843.65 1439.14 Q1844.26 1439.14 1844.29 1439.85 Q1844.29 1440.1 1843.77 1440.84 Q1843.28 1441.55 1842.19 1442.51 Q1841.11 1443.43 1839.72 1444.33 Q1838.33 1445.22 1836.3 1445.84 Q1834.29 1446.43 1832.07 1446.43 Q1829.41 1446.43 1826.69 1445.59 L1826.69 1457.92 Q1829.97 1454.7 1834.72 1454.7 Q1839.79 1454.7 1843.28 1458.78 Q1846.76 1462.86 1846.76 1468.54 Q1846.76 1474.5 1842.63 1478.57 Q1838.52 1482.65 1832.96 1482.65 Q1827.9 1482.65 1824.69 1479.04 Q1821.51 1475.42 1821.51 1471.07 Z" fill="#808080" fill-rule="evenodd" fill-opacity="1" /><path clip-path="url(#clip110)" d="M 0 0 M2247.78 1445.16 L2247.78 1443.19 Q2255.37 1443.19 2259.3 1439.14 Q2260.38 1439.14 2260.56 1439.39 Q2260.75 1439.63 2260.75 1440.78 L2260.75 1476.26 Q2260.75 1478.14 2261.67 1478.73 Q2262.6 1479.31 2266.64 1479.31 L2268.65 1479.31 L2268.65 1481.26 Q2266.43 1481.07 2258.4 1481.07 Q2250.37 1481.07 2248.18 1481.26 L2248.18 1479.31 L2250.19 1479.31 Q2254.17 1479.31 2255.13 1478.76 Q2256.08 1478.17 2256.08 1476.26 L2256.08 1443.49 Q2252.78 1445.16 2247.78 1445.16 Z" fill="#808080" fill-rule="evenodd" fill-opacity="1" /><path clip-path="url(#clip110)" d="M 0 0 M2274.98 1480.24 Q2274.02 1479.22 2274.02 1477.89 Q2274.02 1476.57 2274.98 1475.61 Q2275.94 1474.62 2277.39 1474.62 Q2278.78 1474.62 2279.71 1475.55 Q2280.66 1476.44 2280.66 1477.92 Q2280.66 1479.38 2279.64 1480.33 Q2278.66 1481.26 2277.39 1481.26 Q2275.94 1481.26 2274.98 1480.24 Z" fill="#808080" fill-rule="evenodd" fill-opacity="1" /><path clip-path="url(#clip110)" d="M 0 0 M2283.13 1461.03 Q2283.13 1451.74 2285.48 1446.68 Q2288.75 1439.14 2296.47 1439.14 Q2298.11 1439.14 2299.81 1439.6 Q2301.54 1440.04 2303.7 1441.73 Q2305.89 1443.43 2307.22 1446.21 Q2309.75 1451.58 2309.75 1461.03 Q2309.75 1470.27 2307.4 1475.3 Q2303.98 1482.65 2296.41 1482.65 Q2293.57 1482.65 2290.67 1481.2 Q2287.8 1479.75 2285.97 1476.26 Q2283.13 1471.04 2283.13 1461.03 M2288.38 1460.26 Q2288.38 1469.8 2289.06 1473.6 Q2289.83 1477.71 2291.93 1479.5 Q2294.07 1481.26 2296.41 1481.26 Q2298.94 1481.26 2301.04 1479.38 Q2303.17 1477.46 2303.82 1473.35 Q2304.53 1469.31 2304.5 1460.26 Q2304.5 1451.46 2303.88 1447.94 Q2303.05 1443.83 2300.83 1442.2 Q2298.64 1440.53 2296.41 1440.53 Q2295.58 1440.53 2294.68 1440.78 Q2293.82 1441.02 2292.55 1441.73 Q2291.29 1442.44 2290.3 1444.2 Q2289.34 1445.96 2288.88 1448.62 Q2288.38 1452.05 2288.38 1460.26 Z" fill="#808080" fill-rule="evenodd" fill-opacity="1" /><path clip-path="url(#clip110)" d="M 0 0 M2312.22 1461.03 Q2312.22 1451.74 2314.57 1446.68 Q2317.84 1439.14 2325.56 1439.14 Q2327.2 1439.14 2328.9 1439.6 Q2330.63 1440.04 2332.79 1441.73 Q2334.98 1443.43 2336.31 1446.21 Q2338.84 1451.58 2338.84 1461.03 Q2338.84 1470.27 2336.49 1475.3 Q2333.07 1482.65 2325.5 1482.65 Q2322.66 1482.65 2319.76 1481.2 Q2316.88 1479.75 2315.06 1476.26 Q2312.22 1471.04 2312.22 1461.03 M2317.47 1460.26 Q2317.47 1469.8 2318.15 1473.6 Q2318.92 1477.71 2321.02 1479.5 Q2323.15 1481.26 2325.5 1481.26 Q2328.03 1481.26 2330.13 1479.38 Q2332.26 1477.46 2332.91 1473.35 Q2333.62 1469.31 2333.59 1460.26 Q2333.59 1451.46 2332.97 1447.94 Q2332.14 1443.83 2329.92 1442.2 Q2327.72 1440.53 2325.5 1440.53 Q2324.67 1440.53 2323.77 1440.78 Q2322.91 1441.02 2321.64 1441.73 Q2320.37 1442.44 2319.39 1444.2 Q2318.43 1445.96 2317.97 1448.62 Q2317.47 1452.05 2317.47 1460.26 Z" fill="#808080" fill-rule="evenodd" fill-opacity="1" /><path clip-path="url(#clip110)" d="M 0 0 M1202.21 1542.88 L1202.21 1540.51 Q1206.32 1540.73 1209.25 1540.73 Q1210.7 1540.73 1217.55 1540.51 L1217.55 1542.88 Q1213.07 1542.88 1213.07 1544.92 Q1213.07 1545.36 1213.44 1546.29 L1220.66 1566.56 L1227.19 1548.18 Q1225.81 1544.47 1225.44 1544.03 Q1224.52 1542.88 1220.66 1542.88 L1220.66 1540.51 Q1224.07 1540.73 1227.41 1540.73 Q1228.71 1540.73 1235.3 1540.51 L1235.3 1542.88 Q1230.82 1542.88 1230.82 1544.92 Q1230.82 1545.21 1231.19 1546.36 L1238.71 1567.52 L1245.6 1548.1 Q1245.97 1547.1 1246.01 1546.51 Q1246.01 1544.84 1244.82 1543.92 Q1243.64 1542.95 1241.6 1542.88 L1241.6 1540.51 Q1245.94 1540.73 1248.64 1540.73 Q1251.68 1540.73 1254.2 1540.51 L1254.2 1542.88 Q1249.49 1543.03 1247.83 1547.73 L1238.93 1572.63 Q1238.08 1574.01 1237.41 1574.08 Q1236.41 1574.08 1235.89 1572.63 L1228.15 1551.07 L1220.48 1572.56 Q1220.18 1573.49 1219.92 1573.78 Q1219.66 1574.08 1218.96 1574.08 Q1218.29 1574.08 1218 1573.67 Q1217.7 1573.3 1217.37 1572.38 L1207.81 1545.51 Q1207.14 1543.77 1206.14 1543.32 Q1205.18 1542.88 1202.21 1542.88 Z" fill="#000000" fill-rule="evenodd" fill-opacity="1" /><path clip-path="url(#clip110)" d="M 0 0 M1254.2 1556.52 Q1254.2 1549.36 1258.79 1544.29 Q1263.39 1539.21 1269.98 1539.21 Q1276.65 1539.21 1280.1 1543.55 Q1283.58 1547.88 1283.58 1554.11 Q1283.58 1555.26 1283.29 1555.48 Q1282.99 1555.7 1281.69 1555.7 L1260.5 1555.7 Q1260.5 1563.45 1262.8 1567.08 Q1265.98 1572.15 1271.36 1572.15 Q1272.1 1572.15 1272.99 1572.01 Q1273.88 1571.86 1275.69 1571.23 Q1277.51 1570.56 1279.1 1568.82 Q1280.69 1567.08 1281.62 1564.33 Q1281.84 1563.26 1282.58 1563.3 Q1283.58 1563.3 1283.58 1564.19 Q1283.58 1564.85 1282.84 1566.37 Q1282.14 1567.85 1280.77 1569.63 Q1279.4 1571.41 1276.73 1572.75 Q1274.1 1574.08 1270.91 1574.08 Q1264.24 1574.08 1259.2 1569.04 Q1254.2 1563.96 1254.2 1556.52 M1260.57 1554.11 L1278.58 1554.11 Q1278.58 1552.51 1278.28 1550.74 Q1278.03 1548.96 1277.21 1546.51 Q1276.43 1544.03 1274.58 1542.47 Q1272.73 1540.92 1269.98 1540.92 Q1268.76 1540.92 1267.43 1541.43 Q1266.13 1541.95 1264.54 1543.21 Q1262.94 1544.47 1261.83 1547.33 Q1260.72 1550.18 1260.57 1554.11 Z" fill="#000000" fill-rule="evenodd" fill-opacity="1" /><path clip-path="url(#clip110)" d="M 0 0 M1286.1 1573.23 L1286.1 1570.89 Q1290.14 1570.89 1291.07 1570.41 Q1292 1569.89 1292 1567.45 L1292 1547.03 Q1292 1544.21 1291.03 1543.55 Q1290.11 1542.88 1286.4 1542.88 L1286.4 1540.51 L1297 1539.69 L1297 1567.52 Q1297 1569.78 1297.81 1570.34 Q1298.63 1570.89 1302.33 1570.89 L1302.33 1573.23 Q1294.59 1573.01 1294.44 1573.01 Q1293.4 1573.01 1286.1 1573.23 M1289.29 1526.46 Q1289.29 1524.95 1290.44 1523.72 Q1291.62 1522.46 1293.29 1522.46 Q1294.96 1522.46 1296.15 1523.61 Q1297.33 1524.72 1297.33 1526.5 Q1297.33 1528.24 1296.15 1529.39 Q1294.96 1530.5 1293.29 1530.5 Q1291.55 1530.5 1290.4 1529.28 Q1289.29 1528.06 1289.29 1526.46 Z" fill="#000000" fill-rule="evenodd" fill-opacity="1" /><path clip-path="url(#clip110)" d="M 0 0 M1304.45 1579.23 Q1304.45 1576.79 1306.3 1574.67 Q1308.19 1572.56 1311.45 1571.63 Q1308.11 1569.52 1308.11 1564.89 Q1308.11 1561.33 1310.45 1558.59 Q1306.89 1555.63 1306.89 1550.77 Q1306.89 1546.29 1310.45 1542.99 Q1314.01 1539.69 1319.19 1539.69 Q1323.75 1539.69 1327.23 1542.44 Q1330.87 1538.88 1335.28 1538.84 Q1337.24 1538.84 1338.17 1540.06 Q1339.13 1541.29 1339.13 1542.58 Q1339.13 1543.73 1338.39 1544.29 Q1337.68 1544.84 1336.94 1544.84 Q1336.02 1544.84 1335.35 1544.25 Q1334.72 1543.62 1334.72 1542.66 Q1334.72 1541.06 1335.94 1540.58 Q1335.72 1540.51 1335.2 1540.51 Q1331.5 1540.51 1328.35 1543.47 Q1331.46 1546.36 1331.46 1550.85 Q1331.46 1555.33 1327.9 1558.63 Q1324.34 1561.93 1319.19 1561.93 Q1314.93 1561.93 1311.67 1559.55 Q1310.37 1561.07 1310.37 1563.15 Q1310.37 1565.04 1311.52 1566.52 Q1312.67 1568 1314.41 1568.23 Q1314.93 1568.3 1320.08 1568.3 Q1323.12 1568.3 1324.79 1568.37 Q1326.46 1568.45 1328.83 1568.97 Q1331.24 1569.45 1333.13 1570.41 Q1338.05 1573.15 1338.09 1579.08 Q1338.09 1583.42 1333.09 1586.12 Q1328.12 1588.87 1321.23 1588.87 Q1314.27 1588.87 1309.34 1586.09 Q1304.45 1583.34 1304.45 1579.23 M1308.41 1579.23 Q1308.41 1582.34 1312.08 1584.71 Q1315.75 1587.12 1321.31 1587.12 Q1326.75 1587.12 1330.42 1584.75 Q1334.13 1582.42 1334.13 1579.23 Q1334.13 1576.97 1332.83 1575.53 Q1331.53 1574.08 1328.87 1573.49 Q1326.23 1572.93 1324.38 1572.82 Q1322.53 1572.71 1319.12 1572.71 L1314.64 1572.71 Q1312.04 1572.86 1310.23 1574.75 Q1308.41 1576.64 1308.41 1579.23 M1312.56 1550.85 Q1312.56 1560.18 1319.19 1560.18 Q1322.53 1560.18 1324.57 1557.15 Q1325.79 1555.11 1325.79 1550.77 Q1325.79 1541.43 1319.19 1541.43 Q1315.86 1541.43 1313.78 1544.47 Q1312.56 1546.51 1312.56 1550.85 Z" fill="#000000" fill-rule="evenodd" fill-opacity="1" /><path clip-path="url(#clip110)" d="M 0 0 M1341.57 1573.23 L1341.57 1570.89 Q1345.61 1570.89 1346.54 1570.41 Q1347.47 1569.89 1347.47 1567.45 L1347.47 1527.98 Q1347.47 1525.17 1346.47 1524.46 Q1345.5 1523.76 1341.57 1523.76 L1341.57 1521.39 L1352.47 1520.57 L1352.47 1546.96 L1352.54 1546.96 Q1353.77 1544.21 1356.51 1541.95 Q1359.25 1539.69 1363.47 1539.69 Q1369.18 1539.69 1371.44 1542.51 Q1373.11 1544.4 1373.44 1546.51 Q1373.81 1548.62 1373.81 1554.11 L1373.81 1568.6 Q1373.89 1570.19 1375.11 1570.56 Q1376.33 1570.89 1379.74 1570.89 L1379.74 1573.23 Q1372 1573.01 1371.22 1573.01 Q1370.63 1573.01 1362.66 1573.23 L1362.66 1570.89 Q1366.7 1570.89 1367.62 1570.41 Q1368.59 1569.89 1368.59 1567.45 L1368.59 1549.77 Q1368.59 1545.92 1367.4 1543.66 Q1366.22 1541.36 1362.96 1541.36 Q1359.03 1541.36 1355.88 1544.66 Q1352.73 1547.96 1352.73 1553.51 L1352.73 1567.45 Q1352.73 1569.89 1353.65 1570.41 Q1354.62 1570.89 1358.62 1570.89 L1358.62 1573.23 Q1350.88 1573.01 1350.13 1573.01 Q1349.54 1573.01 1341.57 1573.23 Z" fill="#000000" fill-rule="evenodd" fill-opacity="1" /><path clip-path="url(#clip110)" d="M 0 0 M1379.07 1542.88 L1379.07 1541.21 Q1382.56 1541.06 1384.86 1538.62 Q1387.19 1536.14 1387.97 1533.1 Q1388.78 1530.06 1388.86 1526.54 L1390.75 1526.54 L1390.75 1540.51 L1401.6 1540.51 L1401.6 1542.88 L1390.75 1542.88 L1390.75 1563.96 Q1390.75 1572.15 1395.86 1572.15 Q1398.05 1572.15 1399.49 1569.93 Q1400.94 1567.67 1400.94 1563.67 L1400.94 1559.48 L1402.83 1559.48 L1402.83 1563.82 Q1402.83 1567.93 1400.94 1571 Q1399.05 1574.08 1395.3 1574.08 Q1393.93 1574.08 1392.56 1573.71 Q1391.23 1573.38 1389.45 1572.49 Q1387.71 1571.56 1386.6 1569.34 Q1385.52 1567.08 1385.52 1563.82 L1385.52 1542.88 L1379.07 1542.88 Z" fill="#000000" fill-rule="evenodd" fill-opacity="1" /><polyline clip-path="url(#clip112)" style="stroke:#222255; stroke-width:4; stroke-opacity:0.1; fill:none" stroke-dasharray="16, 10" points="
  252.282,1371.65 2352.76,1371.65 
  "/>
<polyline clip-path="url(#clip112)" style="stroke:#222255; stroke-width:4; stroke-opacity:0.1; fill:none" stroke-dasharray="16, 10" points="
  252.282,1050.19 2352.76,1050.19 
  "/>
<polyline clip-path="url(#clip112)" style="stroke:#222255; stroke-width:4; stroke-opacity:0.1; fill:none" stroke-dasharray="16, 10" points="
  252.282,728.732 2352.76,728.732 
  "/>
<polyline clip-path="url(#clip112)" style="stroke:#222255; stroke-width:4; stroke-opacity:0.1; fill:none" stroke-dasharray="16, 10" points="
  252.282,407.275 2352.76,407.275 
  "/>
<polyline clip-path="url(#clip112)" style="stroke:#222255; stroke-width:4; stroke-opacity:0.1; fill:none" stroke-dasharray="16, 10" points="
  252.282,85.8189 2352.76,85.8189 
  "/>
<polyline clip-path="url(#clip112)" style="stroke:#222255; stroke-width:2; stroke-opacity:0.05; fill:none" points="
  252.282,1307.35 2352.76,1307.35 
  "/>
<polyline clip-path="url(#clip112)" style="stroke:#222255; stroke-width:2; stroke-opacity:0.05; fill:none" points="
  252.282,1243.06 2352.76,1243.06 
  "/>
<polyline clip-path="url(#clip112)" style="stroke:#222255; stroke-width:2; stroke-opacity:0.05; fill:none" points="
  252.282,1178.77 2352.76,1178.77 
  "/>
<polyline clip-path="url(#clip112)" style="stroke:#222255; stroke-width:2; stroke-opacity:0.05; fill:none" points="
  252.282,1114.48 2352.76,1114.48 
  "/>
<polyline clip-path="url(#clip112)" style="stroke:#222255; stroke-width:2; stroke-opacity:0.05; fill:none" points="
  252.282,985.897 2352.76,985.897 
  "/>
<polyline clip-path="url(#clip112)" style="stroke:#222255; stroke-width:2; stroke-opacity:0.05; fill:none" points="
  252.282,921.606 2352.76,921.606 
  "/>
<polyline clip-path="url(#clip112)" style="stroke:#222255; stroke-width:2; stroke-opacity:0.05; fill:none" points="
  252.282,857.315 2352.76,857.315 
  "/>
<polyline clip-path="url(#clip112)" style="stroke:#222255; stroke-width:2; stroke-opacity:0.05; fill:none" points="
  252.282,793.023 2352.76,793.023 
  "/>
<polyline clip-path="url(#clip112)" style="stroke:#222255; stroke-width:2; stroke-opacity:0.05; fill:none" points="
  252.282,664.441 2352.76,664.441 
  "/>
<polyline clip-path="url(#clip112)" style="stroke:#222255; stroke-width:2; stroke-opacity:0.05; fill:none" points="
  252.282,600.149 2352.76,600.149 
  "/>
<polyline clip-path="url(#clip112)" style="stroke:#222255; stroke-width:2; stroke-opacity:0.05; fill:none" points="
  252.282,535.858 2352.76,535.858 
  "/>
<polyline clip-path="url(#clip112)" style="stroke:#222255; stroke-width:2; stroke-opacity:0.05; fill:none" points="
  252.282,471.567 2352.76,471.567 
  "/>
<polyline clip-path="url(#clip112)" style="stroke:#222255; stroke-width:2; stroke-opacity:0.05; fill:none" points="
  252.282,342.984 2352.76,342.984 
  "/>
<polyline clip-path="url(#clip112)" style="stroke:#222255; stroke-width:2; stroke-opacity:0.05; fill:none" points="
  252.282,278.693 2352.76,278.693 
  "/>
<polyline clip-path="url(#clip112)" style="stroke:#222255; stroke-width:2; stroke-opacity:0.05; fill:none" points="
  252.282,214.401 2352.76,214.401 
  "/>
<polyline clip-path="url(#clip112)" style="stroke:#222255; stroke-width:2; stroke-opacity:0.05; fill:none" points="
  252.282,150.11 2352.76,150.11 
  "/>
<polyline clip-path="url(#clip110)" style="stroke:#000000; stroke-width:4; stroke-opacity:1; fill:none" points="
  252.282,1410.22 252.282,47.2441 
  "/>
<polyline clip-path="url(#clip110)" style="stroke:#000000; stroke-width:4; stroke-opacity:1; fill:none" points="
  2352.76,1410.22 2352.76,47.2441 
  "/>
<polyline clip-path="url(#clip110)" style="stroke:#000000; stroke-width:4; stroke-opacity:1; fill:none" points="
  252.282,1371.65 277.488,1371.65 
  "/>
<polyline clip-path="url(#clip110)" style="stroke:#000000; stroke-width:4; stroke-opacity:1; fill:none" points="
  252.282,1050.19 277.488,1050.19 
  "/>
<polyline clip-path="url(#clip110)" style="stroke:#000000; stroke-width:4; stroke-opacity:1; fill:none" points="
  252.282,728.732 277.488,728.732 
  "/>
<polyline clip-path="url(#clip110)" style="stroke:#000000; stroke-width:4; stroke-opacity:1; fill:none" points="
  252.282,407.275 277.488,407.275 
  "/>
<polyline clip-path="url(#clip110)" style="stroke:#000000; stroke-width:4; stroke-opacity:1; fill:none" points="
  252.282,85.8189 277.488,85.8189 
  "/>
<polyline clip-path="url(#clip110)" style="stroke:#000000; stroke-width:4; stroke-opacity:1; fill:none" points="
  252.282,1307.35 264.885,1307.35 
  "/>
<polyline clip-path="url(#clip110)" style="stroke:#000000; stroke-width:4; stroke-opacity:1; fill:none" points="
  252.282,1243.06 264.885,1243.06 
  "/>
<polyline clip-path="url(#clip110)" style="stroke:#000000; stroke-width:4; stroke-opacity:1; fill:none" points="
  252.282,1178.77 264.885,1178.77 
  "/>
<polyline clip-path="url(#clip110)" style="stroke:#000000; stroke-width:4; stroke-opacity:1; fill:none" points="
  252.282,1114.48 264.885,1114.48 
  "/>
<polyline clip-path="url(#clip110)" style="stroke:#000000; stroke-width:4; stroke-opacity:1; fill:none" points="
  252.282,985.897 264.885,985.897 
  "/>
<polyline clip-path="url(#clip110)" style="stroke:#000000; stroke-width:4; stroke-opacity:1; fill:none" points="
  252.282,921.606 264.885,921.606 
  "/>
<polyline clip-path="url(#clip110)" style="stroke:#000000; stroke-width:4; stroke-opacity:1; fill:none" points="
  252.282,857.315 264.885,857.315 
  "/>
<polyline clip-path="url(#clip110)" style="stroke:#000000; stroke-width:4; stroke-opacity:1; fill:none" points="
  252.282,793.023 264.885,793.023 
  "/>
<polyline clip-path="url(#clip110)" style="stroke:#000000; stroke-width:4; stroke-opacity:1; fill:none" points="
  252.282,664.441 264.885,664.441 
  "/>
<polyline clip-path="url(#clip110)" style="stroke:#000000; stroke-width:4; stroke-opacity:1; fill:none" points="
  252.282,600.149 264.885,600.149 
  "/>
<polyline clip-path="url(#clip110)" style="stroke:#000000; stroke-width:4; stroke-opacity:1; fill:none" points="
  252.282,535.858 264.885,535.858 
  "/>
<polyline clip-path="url(#clip110)" style="stroke:#000000; stroke-width:4; stroke-opacity:1; fill:none" points="
  252.282,471.567 264.885,471.567 
  "/>
<polyline clip-path="url(#clip110)" style="stroke:#000000; stroke-width:4; stroke-opacity:1; fill:none" points="
  252.282,342.984 264.885,342.984 
  "/>
<polyline clip-path="url(#clip110)" style="stroke:#000000; stroke-width:4; stroke-opacity:1; fill:none" points="
  252.282,278.693 264.885,278.693 
  "/>
<polyline clip-path="url(#clip110)" style="stroke:#000000; stroke-width:4; stroke-opacity:1; fill:none" points="
  252.282,214.401 264.885,214.401 
  "/>
<polyline clip-path="url(#clip110)" style="stroke:#000000; stroke-width:4; stroke-opacity:1; fill:none" points="
  252.282,150.11 264.885,150.11 
  "/>
<path clip-path="url(#clip110)" d="M 0 0 M119.476 1373.02 Q119.476 1363.72 121.822 1358.66 Q125.096 1351.13 132.815 1351.13 Q134.452 1351.13 136.15 1351.59 Q137.88 1352.02 140.041 1353.72 Q142.234 1355.42 143.561 1358.2 Q146.094 1363.57 146.094 1373.02 Q146.094 1382.25 143.747 1387.29 Q140.319 1394.63 132.754 1394.63 Q129.913 1394.63 127.01 1393.18 Q124.138 1391.73 122.317 1388.24 Q119.476 1383.02 119.476 1373.02 M124.725 1372.25 Q124.725 1381.79 125.404 1385.59 Q126.176 1389.69 128.276 1391.48 Q130.407 1393.25 132.754 1393.25 Q135.286 1393.25 137.386 1391.36 Q139.516 1389.45 140.165 1385.34 Q140.875 1381.29 140.844 1372.25 Q140.844 1363.45 140.226 1359.93 Q139.393 1355.82 137.169 1354.18 Q134.977 1352.52 132.754 1352.52 Q131.92 1352.52 131.024 1352.76 Q130.16 1353.01 128.894 1353.72 Q127.628 1354.43 126.64 1356.19 Q125.682 1357.95 125.219 1360.61 Q124.725 1364.03 124.725 1372.25 Z" fill="#808080" fill-rule="evenodd" fill-opacity="1" /><path clip-path="url(#clip110)" d="M 0 0 M152.424 1392.23 Q151.467 1391.21 151.467 1389.88 Q151.467 1388.55 152.424 1387.59 Q153.381 1386.61 154.832 1386.61 Q156.222 1386.61 157.148 1387.53 Q158.106 1388.43 158.106 1389.91 Q158.106 1391.36 157.087 1392.32 Q156.098 1393.25 154.832 1393.25 Q153.381 1393.25 152.424 1392.23 Z" fill="#808080" fill-rule="evenodd" fill-opacity="1" /><path clip-path="url(#clip110)" d="M 0 0 M160.576 1373.02 Q160.576 1363.72 162.923 1358.66 Q166.196 1351.13 173.916 1351.13 Q175.552 1351.13 177.251 1351.59 Q178.98 1352.02 181.141 1353.72 Q183.334 1355.42 184.662 1358.2 Q187.194 1363.57 187.194 1373.02 Q187.194 1382.25 184.847 1387.29 Q181.419 1394.63 173.854 1394.63 Q171.013 1394.63 168.11 1393.18 Q165.239 1391.73 163.417 1388.24 Q160.576 1383.02 160.576 1373.02 M165.825 1372.25 Q165.825 1381.79 166.505 1385.59 Q167.277 1389.69 169.376 1391.48 Q171.507 1393.25 173.854 1393.25 Q176.386 1393.25 178.486 1391.36 Q180.616 1389.45 181.265 1385.34 Q181.975 1381.29 181.944 1372.25 Q181.944 1363.45 181.327 1359.93 Q180.493 1355.82 178.27 1354.18 Q176.077 1352.52 173.854 1352.52 Q173.02 1352.52 172.125 1352.76 Q171.26 1353.01 169.994 1353.72 Q168.728 1354.43 167.74 1356.19 Q166.783 1357.95 166.319 1360.61 Q165.825 1364.03 165.825 1372.25 Z" fill="#808080" fill-rule="evenodd" fill-opacity="1" /><path clip-path="url(#clip110)" d="M 0 0 M189.664 1373.02 Q189.664 1363.72 192.011 1358.66 Q195.284 1351.13 203.004 1351.13 Q204.64 1351.13 206.339 1351.59 Q208.068 1352.02 210.23 1353.72 Q212.422 1355.42 213.75 1358.2 Q216.282 1363.57 216.282 1373.02 Q216.282 1382.25 213.935 1387.29 Q210.508 1394.63 202.942 1394.63 Q200.101 1394.63 197.199 1393.18 Q194.327 1391.73 192.505 1388.24 Q189.664 1383.02 189.664 1373.02 M194.914 1372.25 Q194.914 1381.79 195.593 1385.59 Q196.365 1389.69 198.465 1391.48 Q200.595 1393.25 202.942 1393.25 Q205.474 1393.25 207.574 1391.36 Q209.705 1389.45 210.353 1385.34 Q211.063 1381.29 211.032 1372.25 Q211.032 1363.45 210.415 1359.93 Q209.581 1355.82 207.358 1354.18 Q205.165 1352.52 202.942 1352.52 Q202.108 1352.52 201.213 1352.76 Q200.348 1353.01 199.082 1353.72 Q197.816 1354.43 196.828 1356.19 Q195.871 1357.95 195.408 1360.61 Q194.914 1364.03 194.914 1372.25 Z" fill="#808080" fill-rule="evenodd" fill-opacity="1" /><path clip-path="url(#clip110)" d="M 0 0 M120.834 1051.56 Q120.834 1042.27 123.181 1037.2 Q126.454 1029.67 134.174 1029.67 Q135.811 1029.67 137.509 1030.13 Q139.238 1030.56 141.4 1032.26 Q143.592 1033.96 144.92 1036.74 Q147.452 1042.11 147.452 1051.56 Q147.452 1060.8 145.105 1065.83 Q141.678 1073.18 134.112 1073.18 Q131.272 1073.18 128.369 1071.73 Q125.497 1070.28 123.675 1066.79 Q120.834 1061.57 120.834 1051.56 M126.084 1050.79 Q126.084 1060.33 126.763 1064.13 Q127.535 1068.24 129.635 1070.03 Q131.766 1071.79 134.112 1071.79 Q136.644 1071.79 138.744 1069.9 Q140.875 1067.99 141.523 1063.88 Q142.234 1059.84 142.203 1050.79 Q142.203 1041.99 141.585 1038.47 Q140.751 1034.36 138.528 1032.73 Q136.336 1031.06 134.112 1031.06 Q133.279 1031.06 132.383 1031.31 Q131.519 1031.55 130.252 1032.26 Q128.986 1032.97 127.998 1034.73 Q127.041 1036.49 126.578 1039.15 Q126.084 1042.58 126.084 1050.79 Z" fill="#808080" fill-rule="evenodd" fill-opacity="1" /><path clip-path="url(#clip110)" d="M 0 0 M153.782 1070.77 Q152.825 1069.75 152.825 1068.42 Q152.825 1067.09 153.782 1066.14 Q154.74 1065.15 156.191 1065.15 Q157.581 1065.15 158.507 1066.08 Q159.464 1066.97 159.464 1068.45 Q159.464 1069.9 158.445 1070.86 Q157.457 1071.79 156.191 1071.79 Q154.74 1071.79 153.782 1070.77 Z" fill="#808080" fill-rule="evenodd" fill-opacity="1" /><path clip-path="url(#clip110)" d="M 0 0 M162.614 1071.79 Q162.614 1070.65 162.707 1070.31 Q162.83 1069.97 163.324 1069.44 L175.46 1055.92 Q182.099 1048.44 182.099 1041.93 Q182.099 1037.7 179.875 1034.67 Q177.683 1031.65 173.638 1031.65 Q170.859 1031.65 168.512 1033.34 Q166.165 1035.04 165.084 1038.07 Q165.27 1038.01 165.918 1038.01 Q167.493 1038.01 168.357 1038.99 Q169.253 1039.98 169.253 1041.31 Q169.253 1043.01 168.141 1043.84 Q167.061 1044.65 165.98 1044.65 Q165.547 1044.65 164.961 1044.55 Q164.405 1044.46 163.509 1043.6 Q162.614 1042.7 162.614 1041.13 Q162.614 1036.71 165.949 1033.19 Q169.315 1029.67 174.441 1029.67 Q180.246 1029.67 184.044 1033.13 Q187.873 1036.56 187.873 1041.93 Q187.873 1043.81 187.286 1045.54 Q186.731 1047.24 185.959 1048.57 Q185.217 1049.9 183.179 1052.03 Q181.141 1054.16 179.505 1055.67 Q177.868 1057.18 174.194 1060.39 L167.493 1066.91 L178.887 1066.91 Q184.445 1066.91 184.878 1066.42 Q185.495 1065.52 186.267 1060.8 L187.873 1060.8 L186.082 1071.79 L162.614 1071.79 Z" fill="#808080" fill-rule="evenodd" fill-opacity="1" /><path clip-path="url(#clip110)" d="M 0 0 M191.023 1061.6 Q191.023 1059.71 192.042 1059 Q193.061 1058.26 194.142 1058.26 Q195.593 1058.26 196.427 1059.19 Q197.291 1060.09 197.291 1061.35 Q197.291 1062.62 196.427 1063.54 Q195.593 1064.44 194.142 1064.44 Q193.431 1064.44 193.061 1064.32 Q193.895 1067.22 196.427 1069.32 Q198.99 1071.42 202.355 1071.42 Q206.586 1071.42 209.118 1067.31 Q210.631 1064.66 210.631 1058.63 Q210.631 1053.32 209.489 1050.67 Q207.728 1046.62 204.116 1046.62 Q198.99 1046.62 195.963 1051.04 Q195.593 1051.59 195.161 1051.62 Q194.543 1051.62 194.389 1051.28 Q194.265 1050.91 194.265 1049.96 L194.265 1031.24 Q194.265 1029.73 194.883 1029.73 Q195.13 1029.73 195.655 1029.92 Q199.638 1031.68 204.054 1031.71 Q208.593 1031.71 212.669 1029.85 Q212.978 1029.67 213.163 1029.67 Q213.781 1029.67 213.812 1030.38 Q213.812 1030.63 213.287 1031.37 Q212.793 1032.08 211.712 1033.04 Q210.631 1033.96 209.241 1034.86 Q207.852 1035.75 205.814 1036.37 Q203.807 1036.96 201.583 1036.96 Q198.928 1036.96 196.21 1036.12 L196.21 1048.44 Q199.484 1045.23 204.239 1045.23 Q209.303 1045.23 212.793 1049.31 Q216.282 1053.38 216.282 1059.07 Q216.282 1065.03 212.144 1069.1 Q208.037 1073.18 202.479 1073.18 Q197.415 1073.18 194.203 1069.57 Q191.023 1065.95 191.023 1061.6 Z" fill="#808080" fill-rule="evenodd" fill-opacity="1" /><path clip-path="url(#clip110)" d="M 0 0 M120.155 730.106 Q120.155 720.811 122.502 715.747 Q125.775 708.213 133.495 708.213 Q135.131 708.213 136.83 708.676 Q138.559 709.108 140.721 710.807 Q142.913 712.505 144.241 715.284 Q146.773 720.657 146.773 730.106 Q146.773 739.339 144.426 744.372 Q140.998 751.722 133.433 751.722 Q130.592 751.722 127.69 750.27 Q124.818 748.819 122.996 745.33 Q120.155 740.111 120.155 730.106 M125.404 729.334 Q125.404 738.876 126.084 742.674 Q126.856 746.781 128.956 748.572 Q131.086 750.332 133.433 750.332 Q135.965 750.332 138.065 748.448 Q140.196 746.534 140.844 742.427 Q141.554 738.382 141.523 729.334 Q141.523 720.534 140.906 717.013 Q140.072 712.906 137.849 711.27 Q135.656 709.602 133.433 709.602 Q132.599 709.602 131.704 709.849 Q130.839 710.096 129.573 710.807 Q128.307 711.517 127.319 713.277 Q126.362 715.037 125.899 717.693 Q125.404 721.12 125.404 729.334 Z" fill="#808080" fill-rule="evenodd" fill-opacity="1" /><path clip-path="url(#clip110)" d="M 0 0 M153.103 749.313 Q152.146 748.294 152.146 746.966 Q152.146 745.638 153.103 744.681 Q154.06 743.693 155.512 743.693 Q156.901 743.693 157.828 744.619 Q158.785 745.515 158.785 746.997 Q158.785 748.448 157.766 749.406 Q156.778 750.332 155.512 750.332 Q154.06 750.332 153.103 749.313 Z" fill="#808080" fill-rule="evenodd" fill-opacity="1" /><path clip-path="url(#clip110)" d="M 0 0 M161.935 740.142 Q161.935 738.258 162.954 737.548 Q163.973 736.807 165.053 736.807 Q166.505 736.807 167.338 737.733 Q168.203 738.629 168.203 739.895 Q168.203 741.161 167.338 742.087 Q166.505 742.983 165.053 742.983 Q164.343 742.983 163.973 742.859 Q164.806 745.762 167.338 747.862 Q169.901 749.961 173.267 749.961 Q177.498 749.961 180.03 745.854 Q181.543 743.199 181.543 737.177 Q181.543 731.866 180.4 729.211 Q178.64 725.165 175.027 725.165 Q169.901 725.165 166.875 729.581 Q166.505 730.137 166.072 730.168 Q165.455 730.168 165.3 729.828 Q165.177 729.458 165.177 728.5 L165.177 709.788 Q165.177 708.274 165.794 708.274 Q166.041 708.274 166.566 708.46 Q170.55 710.22 174.966 710.251 Q179.505 710.251 183.581 708.398 Q183.89 708.213 184.075 708.213 Q184.693 708.213 184.723 708.923 Q184.723 709.17 184.198 709.911 Q183.704 710.621 182.624 711.579 Q181.543 712.505 180.153 713.4 Q178.764 714.296 176.726 714.914 Q174.719 715.5 172.495 715.5 Q169.84 715.5 167.122 714.666 L167.122 726.987 Q170.395 723.776 175.151 723.776 Q180.215 723.776 183.704 727.852 Q187.194 731.928 187.194 737.61 Q187.194 743.569 183.056 747.645 Q178.949 751.722 173.391 751.722 Q168.327 751.722 165.115 748.109 Q161.935 744.496 161.935 740.142 Z" fill="#808080" fill-rule="evenodd" fill-opacity="1" /><path clip-path="url(#clip110)" d="M 0 0 M189.664 730.106 Q189.664 720.811 192.011 715.747 Q195.284 708.213 203.004 708.213 Q204.64 708.213 206.339 708.676 Q208.068 709.108 210.23 710.807 Q212.422 712.505 213.75 715.284 Q216.282 720.657 216.282 730.106 Q216.282 739.339 213.935 744.372 Q210.508 751.722 202.942 751.722 Q200.101 751.722 197.199 750.27 Q194.327 748.819 192.505 745.33 Q189.664 740.111 189.664 730.106 M194.914 729.334 Q194.914 738.876 195.593 742.674 Q196.365 746.781 198.465 748.572 Q200.595 750.332 202.942 750.332 Q205.474 750.332 207.574 748.448 Q209.705 746.534 210.353 742.427 Q211.063 738.382 211.032 729.334 Q211.032 720.534 210.415 717.013 Q209.581 712.906 207.358 711.27 Q205.165 709.602 202.942 709.602 Q202.108 709.602 201.213 709.849 Q200.348 710.096 199.082 710.807 Q197.816 711.517 196.828 713.277 Q195.871 715.037 195.408 717.693 Q194.914 721.12 194.914 729.334 Z" fill="#808080" fill-rule="evenodd" fill-opacity="1" /><path clip-path="url(#clip110)" d="M 0 0 M118.58 408.65 Q118.58 399.355 120.927 394.291 Q124.2 386.756 131.92 386.756 Q133.557 386.756 135.255 387.219 Q136.984 387.652 139.146 389.35 Q141.338 391.048 142.666 393.828 Q145.198 399.201 145.198 408.65 Q145.198 417.882 142.851 422.916 Q139.424 430.265 131.858 430.265 Q129.017 430.265 126.115 428.814 Q123.243 427.362 121.421 423.873 Q118.58 418.654 118.58 408.65 M123.83 407.878 Q123.83 417.419 124.509 421.217 Q125.281 425.324 127.381 427.115 Q129.511 428.875 131.858 428.875 Q134.39 428.875 136.49 426.992 Q138.621 425.077 139.269 420.97 Q139.979 416.925 139.949 407.878 Q139.949 399.077 139.331 395.557 Q138.497 391.45 136.274 389.813 Q134.082 388.146 131.858 388.146 Q131.024 388.146 130.129 388.393 Q129.264 388.64 127.998 389.35 Q126.732 390.06 125.744 391.82 Q124.787 393.58 124.324 396.236 Q123.83 399.664 123.83 407.878 Z" fill="#808080" fill-rule="evenodd" fill-opacity="1" /><path clip-path="url(#clip110)" d="M 0 0 M151.528 427.856 Q150.571 426.837 150.571 425.51 Q150.571 424.182 151.528 423.225 Q152.486 422.236 153.937 422.236 Q155.326 422.236 156.253 423.163 Q157.21 424.058 157.21 425.54 Q157.21 426.992 156.191 427.949 Q155.203 428.875 153.937 428.875 Q152.486 428.875 151.528 427.856 Z" fill="#808080" fill-rule="evenodd" fill-opacity="1" /><path clip-path="url(#clip110)" d="M 0 0 M160.761 399.139 L162.83 386.139 L164.405 386.139 Q164.59 386.911 164.899 387.25 Q165.239 387.59 167.03 387.868 Q168.851 388.146 172.526 388.146 L187.873 388.146 Q187.873 389.597 187.317 390.369 L178.764 402.381 Q176.046 406.179 174.842 413.189 Q174.132 417.882 174.163 423.564 L174.163 426.776 Q174.163 430.265 171.229 430.265 Q168.327 430.265 168.327 426.776 Q168.327 414.702 176.108 402.999 Q176.942 401.794 179.999 397.502 Q183.087 393.21 183.21 393.025 L170.118 393.025 Q164.374 393.025 163.911 393.395 Q163.293 393.951 162.336 399.139 L160.761 399.139 Z" fill="#808080" fill-rule="evenodd" fill-opacity="1" /><path clip-path="url(#clip110)" d="M 0 0 M191.023 418.685 Q191.023 416.802 192.042 416.091 Q193.061 415.35 194.142 415.35 Q195.593 415.35 196.427 416.277 Q197.291 417.172 197.291 418.438 Q197.291 419.704 196.427 420.631 Q195.593 421.526 194.142 421.526 Q193.431 421.526 193.061 421.403 Q193.895 424.305 196.427 426.405 Q198.99 428.505 202.355 428.505 Q206.586 428.505 209.118 424.398 Q210.631 421.742 210.631 415.721 Q210.631 410.41 209.489 407.754 Q207.728 403.709 204.116 403.709 Q198.99 403.709 195.963 408.125 Q195.593 408.68 195.161 408.711 Q194.543 408.711 194.389 408.372 Q194.265 408.001 194.265 407.044 L194.265 388.331 Q194.265 386.818 194.883 386.818 Q195.13 386.818 195.655 387.003 Q199.638 388.763 204.054 388.794 Q208.593 388.794 212.669 386.941 Q212.978 386.756 213.163 386.756 Q213.781 386.756 213.812 387.466 Q213.812 387.713 213.287 388.455 Q212.793 389.165 211.712 390.122 Q210.631 391.048 209.241 391.944 Q207.852 392.839 205.814 393.457 Q203.807 394.044 201.583 394.044 Q198.928 394.044 196.21 393.21 L196.21 405.531 Q199.484 402.319 204.239 402.319 Q209.303 402.319 212.793 406.395 Q216.282 410.471 216.282 416.153 Q216.282 422.113 212.144 426.189 Q208.037 430.265 202.479 430.265 Q197.415 430.265 194.203 426.652 Q191.023 423.039 191.023 418.685 Z" fill="#808080" fill-rule="evenodd" fill-opacity="1" /><path clip-path="url(#clip110)" d="M 0 0 M125.219 71.3211 L125.219 69.3448 Q132.815 69.3448 136.737 65.2997 Q137.818 65.2997 138.003 65.5467 Q138.188 65.7937 138.188 66.9362 L138.188 102.416 Q138.188 104.3 139.115 104.887 Q140.041 105.473 144.086 105.473 L146.094 105.473 L146.094 107.419 Q143.87 107.234 135.842 107.234 Q127.813 107.234 125.621 107.419 L125.621 105.473 L127.628 105.473 Q131.611 105.473 132.568 104.918 Q133.526 104.331 133.526 102.416 L133.526 69.6536 Q130.222 71.3211 125.219 71.3211 Z" fill="#808080" fill-rule="evenodd" fill-opacity="1" /><path clip-path="url(#clip110)" d="M 0 0 M152.424 106.4 Q151.467 105.381 151.467 104.053 Q151.467 102.725 152.424 101.768 Q153.381 100.78 154.832 100.78 Q156.222 100.78 157.148 101.706 Q158.106 102.602 158.106 104.084 Q158.106 105.535 157.087 106.493 Q156.098 107.419 154.832 107.419 Q153.381 107.419 152.424 106.4 Z" fill="#808080" fill-rule="evenodd" fill-opacity="1" /><path clip-path="url(#clip110)" d="M 0 0 M160.576 87.193 Q160.576 77.8984 162.923 72.8342 Q166.196 65.2997 173.916 65.2997 Q175.552 65.2997 177.251 65.7628 Q178.98 66.1951 181.141 67.8935 Q183.334 69.5919 184.662 72.371 Q187.194 77.744 187.194 87.193 Q187.194 96.4259 184.847 101.459 Q181.419 108.808 173.854 108.808 Q171.013 108.808 168.11 107.357 Q165.239 105.906 163.417 102.416 Q160.576 97.1979 160.576 87.193 M165.825 86.421 Q165.825 95.9627 166.505 99.7608 Q167.277 103.868 169.376 105.659 Q171.507 107.419 173.854 107.419 Q176.386 107.419 178.486 105.535 Q180.616 103.621 181.265 99.5138 Q181.975 95.4686 181.944 86.421 Q181.944 77.6205 181.327 74.1002 Q180.493 69.9933 178.27 68.3567 Q176.077 66.6892 173.854 66.6892 Q173.02 66.6892 172.125 66.9362 Q171.26 67.1833 169.994 67.8935 Q168.728 68.6037 167.74 70.3638 Q166.783 72.124 166.319 74.7796 Q165.825 78.2072 165.825 86.421 Z" fill="#808080" fill-rule="evenodd" fill-opacity="1" /><path clip-path="url(#clip110)" d="M 0 0 M189.664 87.193 Q189.664 77.8984 192.011 72.8342 Q195.284 65.2997 203.004 65.2997 Q204.64 65.2997 206.339 65.7628 Q208.068 66.1951 210.23 67.8935 Q212.422 69.5919 213.75 72.371 Q216.282 77.744 216.282 87.193 Q216.282 96.4259 213.935 101.459 Q210.508 108.808 202.942 108.808 Q200.101 108.808 197.199 107.357 Q194.327 105.906 192.505 102.416 Q189.664 97.1979 189.664 87.193 M194.914 86.421 Q194.914 95.9627 195.593 99.7608 Q196.365 103.868 198.465 105.659 Q200.595 107.419 202.942 107.419 Q205.474 107.419 207.574 105.535 Q209.705 103.621 210.353 99.5138 Q211.063 95.4686 211.032 86.421 Q211.032 77.6205 210.415 74.1002 Q209.581 69.9933 207.358 68.3567 Q205.165 66.6892 202.942 66.6892 Q202.108 66.6892 201.213 66.9362 Q200.348 67.1833 199.082 67.8935 Q197.816 68.6037 196.828 70.3638 Q195.871 72.124 195.408 74.7796 Q194.914 78.2072 194.914 86.421 Z" fill="#808080" fill-rule="evenodd" fill-opacity="1" /><path clip-path="url(#clip110)" d="M 0 0 M50.7239 798.34 Q43.4982 798.34 38.4958 793.3 Q33.4933 788.261 33.4933 781.443 Q33.4933 775.662 38.1993 771.883 L21.784 771.883 Q18.9678 771.883 18.2637 772.883 Q17.5597 773.846 17.5597 777.774 L15.1882 777.774 L14.3729 766.843 L60.4324 766.843 Q63.2485 766.843 63.9896 765.88 Q64.6937 764.879 64.6937 760.951 L67.0282 760.951 L67.8804 772.105 L62.8409 772.105 Q67.8434 776.033 67.8804 782.258 Q67.8804 788.78 62.878 793.56 Q57.8756 798.34 50.7239 798.34 M50.7981 792.041 Q57.8385 792.041 61.3217 789.854 Q66.1759 786.816 66.1759 781.887 Q66.1759 776.255 60.877 772.92 Q59.5801 772.068 58.0608 772.105 L42.4977 772.105 Q40.9785 772.105 39.7186 772.92 Q35.1608 776.033 35.1608 781.109 Q35.1608 786.408 40.015 789.706 Q43.6464 792.041 50.7981 792.041 Z" fill="#000000" fill-rule="evenodd" fill-opacity="1" /><path clip-path="url(#clip110)" d="M 0 0 M67.0282 758.839 L64.6937 758.839 Q64.6937 754.8 64.212 753.874 Q63.6932 752.91 61.2476 752.91 L40.9044 752.91 Q38.0882 752.91 37.3841 753.911 Q36.6801 754.874 36.6801 758.839 L34.3086 758.839 L33.4933 748.279 L41.8307 748.279 Q38.5699 747.204 36.0501 744.944 Q33.4933 742.646 33.4933 738.941 Q33.4933 736.495 34.8644 734.939 Q36.2354 733.345 38.1252 733.345 Q39.7927 733.345 40.645 734.383 Q41.4602 735.383 41.4602 736.606 Q41.4602 737.977 40.6079 738.941 Q39.7186 739.867 38.1993 739.867 Q37.273 739.867 36.5689 739.459 Q35.8278 739.015 35.5684 738.681 Q35.309 738.348 35.2349 738.125 Q35.1608 738.274 35.1608 738.941 Q35.1608 743.128 39.348 745.536 Q43.4982 747.908 49.427 747.908 L61.0994 747.908 Q63.2856 747.908 63.9896 747.019 Q64.6937 746.092 64.6937 742.127 L64.6937 740.534 L67.0282 740.534 Q66.8058 743.573 66.8058 750.168 Q66.8058 751.095 66.8429 752.54 Q66.8799 753.985 66.954 755.875 Q67.0282 757.765 67.0282 758.839 Z" fill="#000000" fill-rule="evenodd" fill-opacity="1" /><path clip-path="url(#clip110)" d="M 0 0 M59.8024 730.159 Q53.3548 730.159 49.9458 722.562 Q47.7595 718.005 47.2037 708.593 L44.4246 708.593 Q39.7186 708.593 37.2359 711.075 Q34.7162 713.521 34.7162 716.633 Q34.7162 722.192 38.1993 724.86 Q38.2734 722.599 39.4222 721.784 Q40.5338 720.969 41.6825 720.969 Q43.2018 720.969 44.2023 721.932 Q45.1657 722.859 45.1657 724.452 Q45.1657 725.971 44.2393 726.972 Q43.2759 727.972 41.6084 727.972 Q37.9029 727.972 35.4573 724.637 Q33.0116 721.265 33.0116 716.485 Q33.0116 710.26 37.1989 706.11 Q38.4958 704.813 40.1633 704.183 Q41.8307 703.516 42.9424 703.442 Q44.017 703.368 46.1662 703.368 L61.3217 703.368 Q61.7663 703.368 62.5074 703.22 Q63.2485 703.071 64.212 702.404 Q65.1384 701.7 65.1384 700.552 Q65.1384 697.81 60.2841 697.847 L56.0228 697.847 L56.0228 695.92 L60.2841 695.92 Q64.3231 695.92 65.9165 698.069 Q67.4728 700.181 67.4728 702.145 Q67.4728 704.665 65.6201 706.258 Q63.7673 707.851 61.2476 708.074 Q64.1379 709.222 66.0277 711.853 Q67.8804 714.447 67.8804 718.005 Q67.8804 720.747 67.1764 723.34 Q66.5094 725.897 64.6196 728.046 Q62.6927 730.159 59.8024 730.159 M59.7283 724.304 Q62.5445 724.304 64.3602 722.303 Q66.1759 720.302 66.1759 717.486 Q66.1759 714.299 63.7303 711.446 Q61.2476 708.593 56.3934 708.593 L48.7971 708.593 Q49.0935 717.004 52.4655 720.672 Q55.8005 724.304 59.7283 724.304 Z" fill="#000000" fill-rule="evenodd" fill-opacity="1" /><path clip-path="url(#clip110)" d="M 0 0 M73.0311 693.808 Q70.5854 693.808 68.4733 691.955 Q66.3612 690.065 65.4348 686.804 Q63.3227 690.139 58.6908 690.139 Q55.1335 690.139 52.3914 687.805 Q49.427 691.362 44.5728 691.362 Q40.0891 691.362 36.7912 687.805 Q33.4933 684.247 33.4933 679.06 Q33.4933 674.502 36.2354 671.019 Q32.6781 667.387 32.6411 662.978 Q32.6411 661.014 33.8639 660.088 Q35.0867 659.124 36.3836 659.124 Q37.5323 659.124 38.0882 659.865 Q38.644 660.569 38.644 661.31 Q38.644 662.237 38.0511 662.904 Q37.4212 663.534 36.4578 663.534 Q34.8644 663.534 34.3827 662.311 Q34.3086 662.533 34.3086 663.052 Q34.3086 666.757 37.273 669.907 Q40.1633 666.794 44.6469 666.794 Q49.1306 666.794 52.4285 670.352 Q55.7264 673.909 55.7264 679.06 Q55.7264 683.321 53.3548 686.582 Q54.8741 687.879 56.9492 687.879 Q58.839 687.879 60.3212 686.73 Q61.8034 685.581 62.0257 683.84 Q62.0998 683.321 62.0998 678.17 Q62.0998 675.132 62.1739 673.464 Q62.2481 671.797 62.7668 669.425 Q63.2485 667.017 64.212 665.127 Q66.954 660.199 72.8829 660.162 Q77.2183 660.162 79.9233 665.164 Q82.6654 670.129 82.6654 677.022 Q82.6654 683.988 79.8863 688.916 Q77.1442 693.808 73.0311 693.808 M73.0311 689.843 Q76.1437 689.843 78.5152 686.174 Q80.9238 682.506 80.9238 676.948 Q80.9238 671.5 78.5523 667.832 Q76.2178 664.127 73.0311 664.127 Q70.7707 664.127 69.3256 665.423 Q67.8804 666.72 67.2875 669.388 Q66.7317 672.019 66.6206 673.872 Q66.5094 675.725 66.5094 679.134 L66.5094 683.617 Q66.6576 686.211 68.5474 688.027 Q70.4372 689.843 73.0311 689.843 M44.6469 685.693 Q53.9848 685.693 53.9848 679.06 Q53.9848 675.725 50.9463 673.687 Q48.9082 672.464 44.5728 672.464 Q35.2349 672.464 35.2349 679.06 Q35.2349 682.395 38.2734 684.47 Q40.3115 685.693 44.6469 685.693 Z" fill="#000000" fill-rule="evenodd" fill-opacity="1" /><circle clip-path="url(#clip112)" cx="311.729" cy="85.8189" r="21" fill="#4477aa" fill-rule="evenodd" fill-opacity="1" stroke="#000000" stroke-opacity="1" stroke-width="0"/>
<circle clip-path="url(#clip112)" cx="317.218" cy="174.865" r="21" fill="#4477aa" fill-rule="evenodd" fill-opacity="1" stroke="#000000" stroke-opacity="1" stroke-width="0"/>
<circle clip-path="url(#clip112)" cx="333.686" cy="261.537" r="21" fill="#4477aa" fill-rule="evenodd" fill-opacity="1" stroke="#000000" stroke-opacity="1" stroke-width="0"/>
<circle clip-path="url(#clip112)" cx="361.132" cy="345.834" r="21" fill="#4477aa" fill-rule="evenodd" fill-opacity="1" stroke="#000000" stroke-opacity="1" stroke-width="0"/>
<circle clip-path="url(#clip112)" cx="399.556" cy="427.756" r="21" fill="#4477aa" fill-rule="evenodd" fill-opacity="1" stroke="#000000" stroke-opacity="1" stroke-width="0"/>
<circle clip-path="url(#clip112)" cx="448.958" cy="507.304" r="21" fill="#4477aa" fill-rule="evenodd" fill-opacity="1" stroke="#000000" stroke-opacity="1" stroke-width="0"/>
<circle clip-path="url(#clip112)" cx="509.338" cy="584.477" r="21" fill="#4477aa" fill-rule="evenodd" fill-opacity="1" stroke="#000000" stroke-opacity="1" stroke-width="0"/>
<circle clip-path="url(#clip112)" cx="580.697" cy="659.276" r="21" fill="#4477aa" fill-rule="evenodd" fill-opacity="1" stroke="#000000" stroke-opacity="1" stroke-width="0"/>
<circle clip-path="url(#clip112)" cx="663.034" cy="731.7" r="21" fill="#4477aa" fill-rule="evenodd" fill-opacity="1" stroke="#000000" stroke-opacity="1" stroke-width="0"/>
<circle clip-path="url(#clip112)" cx="756.35" cy="801.75" r="21" fill="#4477aa" fill-rule="evenodd" fill-opacity="1" stroke="#000000" stroke-opacity="1" stroke-width="0"/>
<circle clip-path="url(#clip112)" cx="860.643" cy="869.425" r="21" fill="#4477aa" fill-rule="evenodd" fill-opacity="1" stroke="#000000" stroke-opacity="1" stroke-width="0"/>
<circle clip-path="url(#clip112)" cx="975.915" cy="934.725" r="21" fill="#4477aa" fill-rule="evenodd" fill-opacity="1" stroke="#000000" stroke-opacity="1" stroke-width="0"/>
<circle clip-path="url(#clip112)" cx="1102.17" cy="997.651" r="21" fill="#4477aa" fill-rule="evenodd" fill-opacity="1" stroke="#000000" stroke-opacity="1" stroke-width="0"/>
<circle clip-path="url(#clip112)" cx="1239.39" cy="1058.2" r="21" fill="#4477aa" fill-rule="evenodd" fill-opacity="1" stroke="#000000" stroke-opacity="1" stroke-width="0"/>
<circle clip-path="url(#clip112)" cx="1387.6" cy="1116.38" r="21" fill="#4477aa" fill-rule="evenodd" fill-opacity="1" stroke="#000000" stroke-opacity="1" stroke-width="0"/>
<circle clip-path="url(#clip112)" cx="1546.79" cy="1172.18" r="21" fill="#4477aa" fill-rule="evenodd" fill-opacity="1" stroke="#000000" stroke-opacity="1" stroke-width="0"/>
<circle clip-path="url(#clip112)" cx="1716.95" cy="1225.61" r="21" fill="#4477aa" fill-rule="evenodd" fill-opacity="1" stroke="#000000" stroke-opacity="1" stroke-width="0"/>
<circle clip-path="url(#clip112)" cx="1898.09" cy="1276.66" r="21" fill="#4477aa" fill-rule="evenodd" fill-opacity="1" stroke="#000000" stroke-opacity="1" stroke-width="0"/>
<circle clip-path="url(#clip112)" cx="2090.21" cy="1325.34" r="21" fill="#4477aa" fill-rule="evenodd" fill-opacity="1" stroke="#000000" stroke-opacity="1" stroke-width="0"/>
<circle clip-path="url(#clip112)" cx="2293.31" cy="1371.65" r="21" fill="#4477aa" fill-rule="evenodd" fill-opacity="1" stroke="#000000" stroke-opacity="1" stroke-width="0"/>
<path clip-path="url(#clip112)" d="M2293.31 1347.65 L2269.31 1371.65 L2293.31 1395.65 L2317.31 1371.65 L2293.31 1347.65 Z" fill="#ee6677" fill-rule="evenodd" fill-opacity="1" stroke="#000000" stroke-opacity="1" stroke-width="0"/>
<path clip-path="url(#clip112)" d="M2293.31 1347.65 L2269.31 1371.65 L2293.31 1395.65 L2317.31 1371.65 L2293.31 1347.65 Z" fill="#228833" fill-rule="evenodd" fill-opacity="1" stroke="#000000" stroke-opacity="1" stroke-width="0"/>
<path clip-path="url(#clip112)" d="M807.124 811.884 L783.124 835.884 L807.124 859.884 L831.124 835.884 L807.124 811.884 Z" fill="#ccbb44" fill-rule="evenodd" fill-opacity="1" stroke="#000000" stroke-opacity="1" stroke-width="0"/>
<path clip-path="url(#clip112)" d="M321.839 182.092 L297.839 206.092 L321.839 230.092 L345.839 206.092 L321.839 182.092 Z" fill="#66ccee" fill-rule="evenodd" fill-opacity="1" stroke="#000000" stroke-opacity="1" stroke-width="0"/>
<path clip-path="url(#clip112)" d="M311.729 61.8189 L287.729 85.8189 L311.729 109.819 L335.729 85.8189 L311.729 61.8189 Z" fill="#aa3377" fill-rule="evenodd" fill-opacity="1" stroke="#000000" stroke-opacity="1" stroke-width="0"/>
<path clip-path="url(#clip110)" d="
M1894.2 636.997 L2282.74 636.997 L2282.74 92.6766 L1894.2 92.6766  Z
  " fill="#ffffff" fill-rule="evenodd" fill-opacity="0.9"/>
<polyline clip-path="url(#clip110)" style="stroke:#222255; stroke-width:4; stroke-opacity:0.1; fill:none" points="
  1894.2,636.997 2282.74,636.997 2282.74,92.6766 1894.2,92.6766 1894.2,636.997 
  "/>
<polyline clip-path="url(#clip110)" style="stroke:#ee6677; stroke-width:6; stroke-opacity:1; fill:none" points="
  1917.54,183.397 2057.57,183.397 
  "/>
<path clip-path="url(#clip110)" d="M1987.56 144.997 L1949.16 183.397 L1987.56 221.797 L2025.96 183.397 L1987.56 144.997 Z" fill="#ee6677" fill-rule="evenodd" fill-opacity="1" stroke="#000000" stroke-opacity="1" stroke-width="0"/>
<path clip-path="url(#clip110)" d="M 0 0 M2080.91 185.046 Q2080.91 173.892 2083.73 167.815 Q2087.66 158.774 2096.92 158.774 Q2098.89 158.774 2100.92 159.329 Q2103 159.848 2105.59 161.886 Q2108.22 163.924 2109.82 167.259 Q2112.85 173.707 2112.85 185.046 Q2112.85 196.125 2110.04 202.165 Q2105.93 210.984 2096.85 210.984 Q2093.44 210.984 2089.95 209.243 Q2086.51 207.501 2084.32 203.314 Q2080.91 197.051 2080.91 185.046 M2087.21 184.119 Q2087.21 195.569 2088.03 200.127 Q2088.95 205.055 2091.47 207.204 Q2094.03 209.317 2096.85 209.317 Q2099.89 209.317 2102.41 207.056 Q2104.96 204.759 2105.74 199.831 Q2106.59 194.976 2106.56 184.119 Q2106.56 173.559 2105.81 169.334 Q2104.81 164.406 2102.15 162.442 Q2099.52 160.441 2096.85 160.441 Q2095.85 160.441 2094.77 160.737 Q2093.73 161.034 2092.22 161.886 Q2090.7 162.738 2089.51 164.851 Q2088.36 166.963 2087.81 170.149 Q2087.21 174.263 2087.21 184.119 Z" fill="#000000" fill-rule="evenodd" fill-opacity="1" /><path clip-path="url(#clip110)" d="M 0 0 M2113.6 195.199 L2113.6 190.715 L2133.79 190.715 L2133.79 195.199 L2113.6 195.199 Z" fill="#000000" fill-rule="evenodd" fill-opacity="1" /><path clip-path="url(#clip110)" d="M 0 0 M2140.54 165.999 L2140.54 163.628 Q2149.65 163.628 2154.36 158.774 Q2155.65 158.774 2155.88 159.07 Q2156.1 159.366 2156.1 160.737 L2156.1 203.314 Q2156.1 205.574 2157.21 206.278 Q2158.32 206.982 2163.18 206.982 L2165.58 206.982 L2165.58 209.317 Q2162.92 209.094 2153.28 209.094 Q2143.65 209.094 2141.02 209.317 L2141.02 206.982 L2143.43 206.982 Q2148.21 206.982 2149.35 206.315 Q2150.5 205.611 2150.5 203.314 L2150.5 163.998 Q2146.54 165.999 2140.54 165.999 Z" fill="#000000" fill-rule="evenodd" fill-opacity="1" /><path clip-path="url(#clip110)" d="M 0 0 M2168.55 185.046 Q2168.55 173.892 2171.36 167.815 Q2175.29 158.774 2184.56 158.774 Q2186.52 158.774 2188.56 159.329 Q2190.63 159.848 2193.23 161.886 Q2195.86 163.924 2197.45 167.259 Q2200.49 173.707 2200.49 185.046 Q2200.49 196.125 2197.67 202.165 Q2193.56 210.984 2184.48 210.984 Q2181.07 210.984 2177.59 209.243 Q2174.14 207.501 2171.96 203.314 Q2168.55 197.051 2168.55 185.046 M2174.85 184.119 Q2174.85 195.569 2175.66 200.127 Q2176.59 205.055 2179.11 207.204 Q2181.67 209.317 2184.48 209.317 Q2187.52 209.317 2190.04 207.056 Q2192.6 204.759 2193.38 199.831 Q2194.23 194.976 2194.19 184.119 Q2194.19 173.559 2193.45 169.334 Q2192.45 164.406 2189.78 162.442 Q2187.15 160.441 2184.48 160.441 Q2183.48 160.441 2182.41 160.737 Q2181.37 161.034 2179.85 161.886 Q2178.33 162.738 2177.15 164.851 Q2176 166.963 2175.44 170.149 Q2174.85 174.263 2174.85 184.119 Z" fill="#000000" fill-rule="evenodd" fill-opacity="1" /><path clip-path="url(#clip110)" d="M 0 0 M2203.45 185.046 Q2203.45 173.892 2206.27 167.815 Q2210.2 158.774 2219.46 158.774 Q2221.43 158.774 2223.46 159.329 Q2225.54 159.848 2228.13 161.886 Q2230.76 163.924 2232.36 167.259 Q2235.4 173.707 2235.4 185.046 Q2235.4 196.125 2232.58 202.165 Q2228.47 210.984 2219.39 210.984 Q2215.98 210.984 2212.5 209.243 Q2209.05 207.501 2206.86 203.314 Q2203.45 197.051 2203.45 185.046 M2209.75 184.119 Q2209.75 195.569 2210.57 200.127 Q2211.5 205.055 2214.02 207.204 Q2216.57 209.317 2219.39 209.317 Q2222.43 209.317 2224.95 207.056 Q2227.5 204.759 2228.28 199.831 Q2229.13 194.976 2229.1 184.119 Q2229.1 173.559 2228.36 169.334 Q2227.35 164.406 2224.69 162.442 Q2222.06 160.441 2219.39 160.441 Q2218.39 160.441 2217.31 160.737 Q2216.28 161.034 2214.76 161.886 Q2213.24 162.738 2212.05 164.851 Q2210.9 166.963 2210.35 170.149 Q2209.75 174.263 2209.75 184.119 Z" fill="#000000" fill-rule="evenodd" fill-opacity="1" /><polyline clip-path="url(#clip110)" style="stroke:#228833; stroke-width:6; stroke-opacity:1; fill:none" points="
  1917.54,274.117 2057.57,274.117 
  "/>
<path clip-path="url(#clip110)" d="M1987.56 235.717 L1949.16 274.117 L1987.56 312.517 L2025.96 274.117 L1987.56 235.717 Z" fill="#228833" fill-rule="evenodd" fill-opacity="1" stroke="#000000" stroke-opacity="1" stroke-width="0"/>
<path clip-path="url(#clip110)" d="M 0 0 M2080.91 256.719 L2080.91 254.348 Q2090.03 254.348 2094.73 249.494 Q2096.03 249.494 2096.25 249.79 Q2096.48 250.086 2096.48 251.457 L2096.48 294.034 Q2096.48 296.294 2097.59 296.998 Q2098.7 297.702 2103.55 297.702 L2105.96 297.702 L2105.96 300.037 Q2103.29 299.814 2093.66 299.814 Q2084.03 299.814 2081.4 300.037 L2081.4 297.702 L2083.8 297.702 Q2088.58 297.702 2089.73 297.035 Q2090.88 296.331 2090.88 294.034 L2090.88 254.718 Q2086.92 256.719 2080.91 256.719 Z" fill="#000000" fill-rule="evenodd" fill-opacity="1" /><path clip-path="url(#clip110)" d="M 0 0 M2108.93 275.766 Q2108.93 264.612 2111.74 258.535 Q2115.67 249.494 2124.93 249.494 Q2126.9 249.494 2128.94 250.049 Q2131.01 250.568 2133.61 252.606 Q2136.24 254.644 2137.83 257.979 Q2140.87 264.427 2140.87 275.766 Q2140.87 286.845 2138.05 292.885 Q2133.94 301.704 2124.86 301.704 Q2121.45 301.704 2117.97 299.963 Q2114.52 298.221 2112.34 294.034 Q2108.93 287.771 2108.93 275.766 M2115.23 274.839 Q2115.23 286.289 2116.04 290.847 Q2116.97 295.775 2119.49 297.924 Q2122.04 300.037 2124.86 300.037 Q2127.9 300.037 2130.42 297.776 Q2132.98 295.479 2133.75 290.551 Q2134.61 285.696 2134.57 274.839 Q2134.57 264.279 2133.83 260.054 Q2132.83 255.126 2130.16 253.162 Q2127.53 251.161 2124.86 251.161 Q2123.86 251.161 2122.79 251.457 Q2121.75 251.754 2120.23 252.606 Q2118.71 253.458 2117.52 255.571 Q2116.38 257.683 2115.82 260.869 Q2115.23 264.983 2115.23 274.839 Z" fill="#000000" fill-rule="evenodd" fill-opacity="1" /><path clip-path="url(#clip110)" d="M 0 0 M2141.61 285.919 L2141.61 281.435 L2161.8 281.435 L2161.8 285.919 L2141.61 285.919 Z" fill="#000000" fill-rule="evenodd" fill-opacity="1" /><path clip-path="url(#clip110)" d="M 0 0 M2164.99 266.576 Q2164.99 262.537 2166.18 259.795 Q2167.36 257.016 2169.85 254.274 Q2174.4 249.494 2181 249.494 Q2183.82 249.494 2186.3 250.679 Q2188.82 251.865 2191.19 254.57 Q2193.6 257.238 2195.04 262.537 Q2196.49 267.799 2196.49 275.062 Q2196.49 286.808 2190.78 294.256 Q2185.11 301.704 2177.44 301.704 Q2172.59 301.704 2169.73 299.518 Q2166.88 297.295 2166.88 293.515 Q2166.88 291.551 2167.99 290.736 Q2169.1 289.884 2170.36 289.884 Q2171.74 289.884 2172.81 290.81 Q2173.88 291.699 2173.88 293.367 Q2173.88 294.738 2173 295.812 Q2172.14 296.85 2169.92 296.85 Q2172.11 299.592 2177.37 299.592 Q2179.26 299.592 2181.15 298.74 Q2183.04 297.85 2185.08 295.738 Q2187.15 293.589 2188.41 289.105 Q2189.67 284.622 2189.67 278.322 L2189.67 275.914 Q2186.63 283.51 2180.18 283.51 Q2173.81 283.51 2169.4 278.619 Q2164.99 273.728 2164.99 266.576 M2171.81 266.65 Q2171.81 274.172 2173.18 276.951 Q2175.51 281.731 2180.26 281.731 Q2184.89 281.731 2187.19 277.618 Q2189.52 273.468 2189.52 268.095 Q2189.52 260.647 2188.3 257.386 Q2186.04 251.383 2181 251.383 Q2176 251.383 2173.4 256.163 Q2171.81 258.98 2171.81 266.65 Z" fill="#000000" fill-rule="evenodd" fill-opacity="1" /><path clip-path="url(#clip110)" d="M 0 0 M2199.45 275.766 Q2199.45 264.612 2202.27 258.535 Q2206.2 249.494 2215.46 249.494 Q2217.42 249.494 2219.46 250.049 Q2221.54 250.568 2224.13 252.606 Q2226.76 254.644 2228.36 257.979 Q2231.39 264.427 2231.39 275.766 Q2231.39 286.845 2228.58 292.885 Q2224.46 301.704 2215.39 301.704 Q2211.98 301.704 2208.49 299.963 Q2205.05 298.221 2202.86 294.034 Q2199.45 287.771 2199.45 275.766 M2205.75 274.839 Q2205.75 286.289 2206.57 290.847 Q2207.49 295.775 2210.01 297.924 Q2212.57 300.037 2215.39 300.037 Q2218.42 300.037 2220.94 297.776 Q2223.5 295.479 2224.28 290.551 Q2225.13 285.696 2225.09 274.839 Q2225.09 264.279 2224.35 260.054 Q2223.35 255.126 2220.69 253.162 Q2218.05 251.161 2215.39 251.161 Q2214.39 251.161 2213.31 251.457 Q2212.27 251.754 2210.75 252.606 Q2209.24 253.458 2208.05 255.571 Q2206.9 257.683 2206.34 260.869 Q2205.75 264.983 2205.75 274.839 Z" fill="#000000" fill-rule="evenodd" fill-opacity="1" /><polyline clip-path="url(#clip110)" style="stroke:#ccbb44; stroke-width:6; stroke-opacity:1; fill:none" points="
  1917.54,364.837 2057.57,364.837 
  "/>
<path clip-path="url(#clip110)" d="M1987.56 326.437 L1949.16 364.837 L1987.56 403.237 L2025.96 364.837 L1987.56 326.437 Z" fill="#ccbb44" fill-rule="evenodd" fill-opacity="1" stroke="#000000" stroke-opacity="1" stroke-width="0"/>
<path clip-path="url(#clip110)" d="M 0 0 M2080.91 378.528 Q2080.91 376.268 2082.14 375.416 Q2083.36 374.527 2084.66 374.527 Q2086.4 374.527 2087.4 375.638 Q2088.44 376.713 2088.44 378.232 Q2088.44 379.751 2087.4 380.863 Q2086.4 381.938 2084.66 381.938 Q2083.8 381.938 2083.36 381.789 Q2084.36 385.272 2087.4 387.792 Q2090.47 390.312 2094.51 390.312 Q2099.59 390.312 2102.63 385.384 Q2104.44 382.197 2104.44 374.971 Q2104.44 368.598 2103.07 365.411 Q2100.96 360.557 2096.62 360.557 Q2090.47 360.557 2086.84 365.856 Q2086.4 366.523 2085.88 366.56 Q2085.14 366.56 2084.95 366.152 Q2084.8 365.707 2084.8 364.559 L2084.8 342.103 Q2084.8 340.288 2085.55 340.288 Q2085.84 340.288 2086.47 340.51 Q2091.25 342.622 2096.55 342.659 Q2102 342.659 2106.89 340.436 Q2107.26 340.214 2107.48 340.214 Q2108.22 340.214 2108.26 341.066 Q2108.26 341.362 2107.63 342.252 Q2107.04 343.104 2105.74 344.253 Q2104.44 345.364 2102.78 346.439 Q2101.11 347.513 2098.66 348.254 Q2096.25 348.959 2093.59 348.959 Q2090.4 348.959 2087.14 347.958 L2087.14 362.743 Q2091.07 358.889 2096.77 358.889 Q2102.85 358.889 2107.04 363.781 Q2111.22 368.672 2111.22 375.49 Q2111.22 382.642 2106.26 387.533 Q2101.33 392.424 2094.66 392.424 Q2088.58 392.424 2084.73 388.089 Q2080.91 383.753 2080.91 378.528 Z" fill="#000000" fill-rule="evenodd" fill-opacity="1" /><path clip-path="url(#clip110)" d="M 0 0 M2114.19 366.486 Q2114.19 355.332 2117.01 349.255 Q2120.93 340.214 2130.2 340.214 Q2132.16 340.214 2134.2 340.769 Q2136.27 341.288 2138.87 343.326 Q2141.5 345.364 2143.09 348.699 Q2146.13 355.147 2146.13 366.486 Q2146.13 377.565 2143.31 383.605 Q2139.2 392.424 2130.12 392.424 Q2126.71 392.424 2123.23 390.683 Q2119.78 388.941 2117.6 384.754 Q2114.19 378.491 2114.19 366.486 M2120.49 365.559 Q2120.49 377.009 2121.3 381.567 Q2122.23 386.495 2124.75 388.644 Q2127.31 390.757 2130.12 390.757 Q2133.16 390.757 2135.68 388.496 Q2138.24 386.199 2139.02 381.271 Q2139.87 376.416 2139.83 365.559 Q2139.83 354.999 2139.09 350.774 Q2138.09 345.846 2135.42 343.882 Q2132.79 341.881 2130.12 341.881 Q2129.12 341.881 2128.05 342.177 Q2127.01 342.474 2125.49 343.326 Q2123.97 344.178 2122.79 346.291 Q2121.64 348.403 2121.08 351.589 Q2120.49 355.703 2120.49 365.559 Z" fill="#000000" fill-rule="evenodd" fill-opacity="1" /><path clip-path="url(#clip110)" d="M 0 0 M2146.87 376.639 L2146.87 372.155 L2167.07 372.155 L2167.07 376.639 L2146.87 376.639 Z" fill="#000000" fill-rule="evenodd" fill-opacity="1" /><path clip-path="url(#clip110)" d="M 0 0 M2170.85 378.528 Q2170.85 376.268 2172.07 375.416 Q2173.29 374.527 2174.59 374.527 Q2176.33 374.527 2177.33 375.638 Q2178.37 376.713 2178.37 378.232 Q2178.37 379.751 2177.33 380.863 Q2176.33 381.938 2174.59 381.938 Q2173.74 381.938 2173.29 381.789 Q2174.29 385.272 2177.33 387.792 Q2180.41 390.312 2184.45 390.312 Q2189.52 390.312 2192.56 385.384 Q2194.38 382.197 2194.38 374.971 Q2194.38 368.598 2193 365.411 Q2190.89 360.557 2186.56 360.557 Q2180.41 360.557 2176.77 365.856 Q2176.33 366.523 2175.81 366.56 Q2175.07 366.56 2174.89 366.152 Q2174.74 365.707 2174.74 364.559 L2174.74 342.103 Q2174.74 340.288 2175.48 340.288 Q2175.77 340.288 2176.4 340.51 Q2181.18 342.622 2186.48 342.659 Q2191.93 342.659 2196.82 340.436 Q2197.19 340.214 2197.41 340.214 Q2198.16 340.214 2198.19 341.066 Q2198.19 341.362 2197.56 342.252 Q2196.97 343.104 2195.67 344.253 Q2194.38 345.364 2192.71 346.439 Q2191.04 347.513 2188.6 348.254 Q2186.19 348.959 2183.52 348.959 Q2180.33 348.959 2177.07 347.958 L2177.07 362.743 Q2181 358.889 2186.71 358.889 Q2192.78 358.889 2196.97 363.781 Q2201.16 368.672 2201.16 375.49 Q2201.16 382.642 2196.19 387.533 Q2191.26 392.424 2184.59 392.424 Q2178.52 392.424 2174.66 388.089 Q2170.85 383.753 2170.85 378.528 Z" fill="#000000" fill-rule="evenodd" fill-opacity="1" /><path clip-path="url(#clip110)" d="M 0 0 M2204.12 366.486 Q2204.12 355.332 2206.94 349.255 Q2210.87 340.214 2220.13 340.214 Q2222.09 340.214 2224.13 340.769 Q2226.21 341.288 2228.8 343.326 Q2231.43 345.364 2233.02 348.699 Q2236.06 355.147 2236.06 366.486 Q2236.06 377.565 2233.25 383.605 Q2229.13 392.424 2220.06 392.424 Q2216.65 392.424 2213.16 390.683 Q2209.72 388.941 2207.53 384.754 Q2204.12 378.491 2204.12 366.486 M2210.42 365.559 Q2210.42 377.009 2211.24 381.567 Q2212.16 386.495 2214.68 388.644 Q2217.24 390.757 2220.06 390.757 Q2223.09 390.757 2225.61 388.496 Q2228.17 386.199 2228.95 381.271 Q2229.8 376.416 2229.76 365.559 Q2229.76 354.999 2229.02 350.774 Q2228.02 345.846 2225.35 343.882 Q2222.72 341.881 2220.06 341.881 Q2219.05 341.881 2217.98 342.177 Q2216.94 342.474 2215.42 343.326 Q2213.9 344.178 2212.72 346.291 Q2211.57 348.403 2211.01 351.589 Q2210.42 355.703 2210.42 365.559 Z" fill="#000000" fill-rule="evenodd" fill-opacity="1" /><polyline clip-path="url(#clip110)" style="stroke:#66ccee; stroke-width:6; stroke-opacity:1; fill:none" points="
  1917.54,455.557 2057.57,455.557 
  "/>
<path clip-path="url(#clip110)" d="M1987.56 417.157 L1949.16 455.557 L1987.56 493.957 L2025.96 455.557 L1987.56 417.157 Z" fill="#66ccee" fill-rule="evenodd" fill-opacity="1" stroke="#000000" stroke-opacity="1" stroke-width="0"/>
<path clip-path="url(#clip110)" d="M 0 0 M2080.91 448.016 Q2080.91 443.977 2082.1 441.235 Q2083.28 438.456 2085.77 435.714 Q2090.33 430.934 2096.92 430.934 Q2099.74 430.934 2102.22 432.119 Q2104.74 433.305 2107.11 436.01 Q2109.52 438.678 2110.97 443.977 Q2112.41 449.239 2112.41 456.502 Q2112.41 468.248 2106.7 475.696 Q2101.03 483.144 2093.36 483.144 Q2088.51 483.144 2085.66 480.958 Q2082.8 478.735 2082.8 474.955 Q2082.8 472.991 2083.91 472.176 Q2085.03 471.324 2086.29 471.324 Q2087.66 471.324 2088.73 472.25 Q2089.81 473.139 2089.81 474.807 Q2089.81 476.178 2088.92 477.252 Q2088.07 478.29 2085.84 478.29 Q2088.03 481.032 2093.29 481.032 Q2095.18 481.032 2097.07 480.18 Q2098.96 479.29 2101 477.178 Q2103.07 475.029 2104.33 470.545 Q2105.59 466.062 2105.59 459.762 L2105.59 457.354 Q2102.55 464.95 2096.11 464.95 Q2089.73 464.95 2085.32 460.059 Q2080.91 455.168 2080.91 448.016 M2087.73 448.09 Q2087.73 455.612 2089.1 458.391 Q2091.44 463.171 2096.18 463.171 Q2100.81 463.171 2103.11 459.058 Q2105.44 454.908 2105.44 449.535 Q2105.44 442.087 2104.22 438.826 Q2101.96 432.823 2096.92 432.823 Q2091.92 432.823 2089.32 437.603 Q2087.73 440.42 2087.73 448.09 Z" fill="#000000" fill-rule="evenodd" fill-opacity="1" /><path clip-path="url(#clip110)" d="M 0 0 M2115.37 457.206 Q2115.37 446.052 2118.19 439.975 Q2122.12 430.934 2131.38 430.934 Q2133.35 430.934 2135.38 431.489 Q2137.46 432.008 2140.05 434.046 Q2142.68 436.084 2144.28 439.419 Q2147.32 445.867 2147.32 457.206 Q2147.32 468.285 2144.5 474.325 Q2140.39 483.144 2131.31 483.144 Q2127.9 483.144 2124.42 481.403 Q2120.97 479.661 2118.78 475.474 Q2115.37 469.211 2115.37 457.206 M2121.67 456.279 Q2121.67 467.729 2122.49 472.287 Q2123.42 477.215 2125.94 479.364 Q2128.49 481.477 2131.31 481.477 Q2134.35 481.477 2136.87 479.216 Q2139.42 476.919 2140.2 471.991 Q2141.05 467.136 2141.02 456.279 Q2141.02 445.719 2140.28 441.494 Q2139.28 436.566 2136.61 434.602 Q2133.98 432.601 2131.31 432.601 Q2130.31 432.601 2129.23 432.897 Q2128.2 433.194 2126.68 434.046 Q2125.16 434.898 2123.97 437.011 Q2122.82 439.123 2122.27 442.309 Q2121.67 446.423 2121.67 456.279 Z" fill="#000000" fill-rule="evenodd" fill-opacity="1" /><path clip-path="url(#clip110)" d="M 0 0 M2148.06 467.359 L2148.06 462.875 L2168.25 462.875 L2168.25 467.359 L2148.06 467.359 Z" fill="#000000" fill-rule="evenodd" fill-opacity="1" /><path clip-path="url(#clip110)" d="M 0 0 M2175 438.159 L2175 435.788 Q2184.11 435.788 2188.82 430.934 Q2190.11 430.934 2190.34 431.23 Q2190.56 431.526 2190.56 432.897 L2190.56 475.474 Q2190.56 477.734 2191.67 478.438 Q2192.78 479.142 2197.64 479.142 L2200.05 479.142 L2200.05 481.477 Q2197.38 481.254 2187.74 481.254 Q2178.11 481.254 2175.48 481.477 L2175.48 479.142 L2177.89 479.142 Q2182.67 479.142 2183.82 478.475 Q2184.96 477.771 2184.96 475.474 L2184.96 436.158 Q2181 438.159 2175 438.159 Z" fill="#000000" fill-rule="evenodd" fill-opacity="1" /><path clip-path="url(#clip110)" d="M 0 0 M2203.01 457.206 Q2203.01 446.052 2205.83 439.975 Q2209.75 430.934 2219.02 430.934 Q2220.98 430.934 2223.02 431.489 Q2225.09 432.008 2227.69 434.046 Q2230.32 436.084 2231.91 439.419 Q2234.95 445.867 2234.95 457.206 Q2234.95 468.285 2232.14 474.325 Q2228.02 483.144 2218.94 483.144 Q2215.53 483.144 2212.05 481.403 Q2208.61 479.661 2206.42 475.474 Q2203.01 469.211 2203.01 457.206 M2209.31 456.279 Q2209.31 467.729 2210.12 472.287 Q2211.05 477.215 2213.57 479.364 Q2216.13 481.477 2218.94 481.477 Q2221.98 481.477 2224.5 479.216 Q2227.06 476.919 2227.84 471.991 Q2228.69 467.136 2228.65 456.279 Q2228.65 445.719 2227.91 441.494 Q2226.91 436.566 2224.24 434.602 Q2221.61 432.601 2218.94 432.601 Q2217.94 432.601 2216.87 432.897 Q2215.83 433.194 2214.31 434.046 Q2212.79 434.898 2211.61 437.011 Q2210.46 439.123 2209.9 442.309 Q2209.31 446.423 2209.31 456.279 Z" fill="#000000" fill-rule="evenodd" fill-opacity="1" /><polyline clip-path="url(#clip110)" style="stroke:#aa3377; stroke-width:6; stroke-opacity:1; fill:none" points="
  1917.54,546.277 2057.57,546.277 
  "/>
<path clip-path="url(#clip110)" d="M1987.56 507.877 L1949.16 546.277 L1987.56 584.677 L2025.96 546.277 L1987.56 507.877 Z" fill="#aa3377" fill-rule="evenodd" fill-opacity="1" stroke="#000000" stroke-opacity="1" stroke-width="0"/>
<path clip-path="url(#clip110)" d="M 0 0 M2080.91 528.879 L2080.91 526.508 Q2090.03 526.508 2094.73 521.654 Q2096.03 521.654 2096.25 521.95 Q2096.48 522.246 2096.48 523.617 L2096.48 566.194 Q2096.48 568.454 2097.59 569.158 Q2098.7 569.862 2103.55 569.862 L2105.96 569.862 L2105.96 572.197 Q2103.29 571.974 2093.66 571.974 Q2084.03 571.974 2081.4 572.197 L2081.4 569.862 L2083.8 569.862 Q2088.58 569.862 2089.73 569.195 Q2090.88 568.491 2090.88 566.194 L2090.88 526.878 Q2086.92 528.879 2080.91 528.879 Z" fill="#000000" fill-rule="evenodd" fill-opacity="1" /><path clip-path="url(#clip110)" d="M 0 0 M2108.93 547.926 Q2108.93 536.772 2111.74 530.695 Q2115.67 521.654 2124.93 521.654 Q2126.9 521.654 2128.94 522.209 Q2131.01 522.728 2133.61 524.766 Q2136.24 526.804 2137.83 530.139 Q2140.87 536.587 2140.87 547.926 Q2140.87 559.005 2138.05 565.045 Q2133.94 573.864 2124.86 573.864 Q2121.45 573.864 2117.97 572.123 Q2114.52 570.381 2112.34 566.194 Q2108.93 559.931 2108.93 547.926 M2115.23 546.999 Q2115.23 558.449 2116.04 563.007 Q2116.97 567.935 2119.49 570.084 Q2122.04 572.197 2124.86 572.197 Q2127.9 572.197 2130.42 569.936 Q2132.98 567.639 2133.75 562.711 Q2134.61 557.856 2134.57 546.999 Q2134.57 536.439 2133.83 532.214 Q2132.83 527.286 2130.16 525.322 Q2127.53 523.321 2124.86 523.321 Q2123.86 523.321 2122.79 523.617 Q2121.75 523.914 2120.23 524.766 Q2118.71 525.618 2117.52 527.731 Q2116.38 529.843 2115.82 533.029 Q2115.23 537.143 2115.23 546.999 Z" fill="#000000" fill-rule="evenodd" fill-opacity="1" /><path clip-path="url(#clip110)" d="M 0 0 M2143.83 547.926 Q2143.83 536.772 2146.65 530.695 Q2150.58 521.654 2159.84 521.654 Q2161.8 521.654 2163.84 522.209 Q2165.92 522.728 2168.51 524.766 Q2171.14 526.804 2172.74 530.139 Q2175.77 536.587 2175.77 547.926 Q2175.77 559.005 2172.96 565.045 Q2168.85 573.864 2159.77 573.864 Q2156.36 573.864 2152.87 572.123 Q2149.43 570.381 2147.24 566.194 Q2143.83 559.931 2143.83 547.926 M2150.13 546.999 Q2150.13 558.449 2150.95 563.007 Q2151.87 567.935 2154.39 570.084 Q2156.95 572.197 2159.77 572.197 Q2162.81 572.197 2165.32 569.936 Q2167.88 567.639 2168.66 562.711 Q2169.51 557.856 2169.48 546.999 Q2169.48 536.439 2168.73 532.214 Q2167.73 527.286 2165.07 525.322 Q2162.43 523.321 2159.77 523.321 Q2158.77 523.321 2157.69 523.617 Q2156.65 523.914 2155.13 524.766 Q2153.62 525.618 2152.43 527.731 Q2151.28 529.843 2150.73 533.029 Q2150.13 537.143 2150.13 546.999 Z" fill="#000000" fill-rule="evenodd" fill-opacity="1" /><path clip-path="url(#clip110)" d="M 0 0 M2176.52 558.079 L2176.52 553.595 L2196.71 553.595 L2196.71 558.079 L2176.52 558.079 Z" fill="#000000" fill-rule="evenodd" fill-opacity="1" /><path clip-path="url(#clip110)" d="M 0 0 M2199.67 547.926 Q2199.67 536.772 2202.49 530.695 Q2206.42 521.654 2215.68 521.654 Q2217.65 521.654 2219.68 522.209 Q2221.76 522.728 2224.35 524.766 Q2226.98 526.804 2228.58 530.139 Q2231.62 536.587 2231.62 547.926 Q2231.62 559.005 2228.8 565.045 Q2224.69 573.864 2215.61 573.864 Q2212.2 573.864 2208.72 572.123 Q2205.27 570.381 2203.08 566.194 Q2199.67 559.931 2199.67 547.926 M2205.97 546.999 Q2205.97 558.449 2206.79 563.007 Q2207.72 567.935 2210.24 570.084 Q2212.79 572.197 2215.61 572.197 Q2218.65 572.197 2221.17 569.936 Q2223.72 567.639 2224.5 562.711 Q2225.35 557.856 2225.32 546.999 Q2225.32 536.439 2224.58 532.214 Q2223.58 527.286 2220.91 525.322 Q2218.28 523.321 2215.61 523.321 Q2214.61 523.321 2213.53 523.617 Q2212.5 523.914 2210.98 524.766 Q2209.46 525.618 2208.27 527.731 Q2207.12 529.843 2206.57 533.029 Q2205.97 537.143 2205.97 546.999 Z" fill="#000000" fill-rule="evenodd" fill-opacity="1" /></svg>
