<?xml version="1.0" encoding="utf-8"?>
<svg xmlns="http://www.w3.org/2000/svg" xmlns:xlink="http://www.w3.org/1999/xlink" width="600" height="400" viewBox="0 0 2400 1600">
<defs>
  <clipPath id="clip530">
    <rect x="0" y="0" width="2400" height="1600"/>
  </clipPath>
</defs>
<path clip-path="url(#clip530)" d="
M0 1600 L2400 1600 L2400 0 L0 0  Z
  " fill="#ffffff" fill-rule="evenodd" fill-opacity="1"/>
<defs>
  <clipPath id="clip531">
    <rect x="480" y="0" width="1681" height="1600"/>
  </clipPath>
</defs>
<defs>
  <clipPath id="clip532">
    <rect x="208" y="47" width="2146" height="1373"/>
  </clipPath>
</defs>
<path clip-path="url(#clip530)" d="
M202.93 1419.47 L2352.76 1419.47 L2352.76 47.2441 L202.93 47.2441  Z
  " fill="#ffffff" fill-rule="evenodd" fill-opacity="1"/>
<defs>
  <clipPath id="clip533">
    <rect x="202" y="47" width="2151" height="1373"/>
  </clipPath>
</defs>
<polyline clip-path="url(#clip533)" style="stroke:#222255; stroke-width:4; stroke-opacity:0.1; fill:none" stroke-dasharray="16, 10" points="
  263.774,1419.47 263.774,47.2441 
  "/>
<polyline clip-path="url(#clip533)" style="stroke:#222255; stroke-width:4; stroke-opacity:0.1; fill:none" stroke-dasharray="16, 10" points="
  714.471,1419.47 714.471,47.2441 
  "/>
<polyline clip-path="url(#clip533)" style="stroke:#222255; stroke-width:4; stroke-opacity:0.1; fill:none" stroke-dasharray="16, 10" points="
  1165.17,1419.47 1165.17,47.2441 
  "/>
<polyline clip-path="url(#clip533)" style="stroke:#222255; stroke-width:4; stroke-opacity:0.1; fill:none" stroke-dasharray="16, 10" points="
  1615.87,1419.47 1615.87,47.2441 
  "/>
<polyline clip-path="url(#clip533)" style="stroke:#222255; stroke-width:4; stroke-opacity:0.1; fill:none" stroke-dasharray="16, 10" points="
  2066.56,1419.47 2066.56,47.2441 
  "/>
<polyline clip-path="url(#clip533)" style="stroke:#222255; stroke-width:2; stroke-opacity:0.05; fill:none" points="
  353.913,1419.47 353.913,47.2441 
  "/>
<polyline clip-path="url(#clip533)" style="stroke:#222255; stroke-width:2; stroke-opacity:0.05; fill:none" points="
  444.053,1419.47 444.053,47.2441 
  "/>
<polyline clip-path="url(#clip533)" style="stroke:#222255; stroke-width:2; stroke-opacity:0.05; fill:none" points="
  534.192,1419.47 534.192,47.2441 
  "/>
<polyline clip-path="url(#clip533)" style="stroke:#222255; stroke-width:2; stroke-opacity:0.05; fill:none" points="
  624.332,1419.47 624.332,47.2441 
  "/>
<polyline clip-path="url(#clip533)" style="stroke:#222255; stroke-width:2; stroke-opacity:0.05; fill:none" points="
  804.611,1419.47 804.611,47.2441 
  "/>
<polyline clip-path="url(#clip533)" style="stroke:#222255; stroke-width:2; stroke-opacity:0.05; fill:none" points="
  894.75,1419.47 894.75,47.2441 
  "/>
<polyline clip-path="url(#clip533)" style="stroke:#222255; stroke-width:2; stroke-opacity:0.05; fill:none" points="
  984.89,1419.47 984.89,47.2441 
  "/>
<polyline clip-path="url(#clip533)" style="stroke:#222255; stroke-width:2; stroke-opacity:0.05; fill:none" points="
  1075.03,1419.47 1075.03,47.2441 
  "/>
<polyline clip-path="url(#clip533)" style="stroke:#222255; stroke-width:2; stroke-opacity:0.05; fill:none" points="
  1255.31,1419.47 1255.31,47.2441 
  "/>
<polyline clip-path="url(#clip533)" style="stroke:#222255; stroke-width:2; stroke-opacity:0.05; fill:none" points="
  1345.45,1419.47 1345.45,47.2441 
  "/>
<polyline clip-path="url(#clip533)" style="stroke:#222255; stroke-width:2; stroke-opacity:0.05; fill:none" points="
  1435.59,1419.47 1435.59,47.2441 
  "/>
<polyline clip-path="url(#clip533)" style="stroke:#222255; stroke-width:2; stroke-opacity:0.05; fill:none" points="
  1525.73,1419.47 1525.73,47.2441 
  "/>
<polyline clip-path="url(#clip533)" style="stroke:#222255; stroke-width:2; stroke-opacity:0.05; fill:none" points="
  1706.01,1419.47 1706.01,47.2441 
  "/>
<polyline clip-path="url(#clip533)" style="stroke:#222255; stroke-width:2; stroke-opacity:0.05; fill:none" points="
  1796.14,1419.47 1796.14,47.2441 
  "/>
<polyline clip-path="url(#clip533)" style="stroke:#222255; stroke-width:2; stroke-opacity:0.05; fill:none" points="
  1886.28,1419.47 1886.28,47.2441 
  "/>
<polyline clip-path="url(#clip533)" style="stroke:#222255; stroke-width:2; stroke-opacity:0.05; fill:none" points="
  1976.42,1419.47 1976.42,47.2441 
  "/>
<polyline clip-path="url(#clip533)" style="stroke:#222255; stroke-width:2; stroke-opacity:0.05; fill:none" points="
  2156.7,1419.47 2156.7,47.2441 
  "/>
<polyline clip-path="url(#clip533)" style="stroke:#222255; stroke-width:2; stroke-opacity:0.05; fill:none" points="
  2246.84,1419.47 2246.84,47.2441 
  "/>
<polyline clip-path="url(#clip533)" style="stroke:#222255; stroke-width:2; stroke-opacity:0.05; fill:none" points="
  2336.98,1419.47 2336.98,47.2441 
  "/>
<polyline clip-path="url(#clip530)" style="stroke:#000000; stroke-width:4; stroke-opacity:1; fill:none" points="
  202.93,1419.47 2352.76,1419.47 
  "/>
<polyline clip-path="url(#clip530)" style="stroke:#000000; stroke-width:4; stroke-opacity:1; fill:none" points="
  202.93,47.2441 2352.76,47.2441 
  "/>
<polyline clip-path="url(#clip530)" style="stroke:#000000; stroke-width:4; stroke-opacity:1; fill:none" points="
  263.774,1419.47 263.774,1403 
  "/>
<polyline clip-path="url(#clip530)" style="stroke:#000000; stroke-width:4; stroke-opacity:1; fill:none" points="
  714.471,1419.47 714.471,1403 
  "/>
<polyline clip-path="url(#clip530)" style="stroke:#000000; stroke-width:4; stroke-opacity:1; fill:none" points="
  1165.17,1419.47 1165.17,1403 
  "/>
<polyline clip-path="url(#clip530)" style="stroke:#000000; stroke-width:4; stroke-opacity:1; fill:none" points="
  1615.87,1419.47 1615.87,1403 
  "/>
<polyline clip-path="url(#clip530)" style="stroke:#000000; stroke-width:4; stroke-opacity:1; fill:none" points="
  2066.56,1419.47 2066.56,1403 
  "/>
<polyline clip-path="url(#clip530)" style="stroke:#000000; stroke-width:4; stroke-opacity:1; fill:none" points="
  353.913,1419.47 353.913,1411.23 
  "/>
<polyline clip-path="url(#clip530)" style="stroke:#000000; stroke-width:4; stroke-opacity:1; fill:none" points="
  444.053,1419.47 444.053,1411.23 
  "/>
<polyline clip-path="url(#clip530)" style="stroke:#000000; stroke-width:4; stroke-opacity:1; fill:none" points="
  534.192,1419.47 534.192,1411.23 
  "/>
<polyline clip-path="url(#clip530)" style="stroke:#000000; stroke-width:4; stroke-opacity:1; fill:none" points="
  624.332,1419.47 624.332,1411.23 
  "/>
<polyline clip-path="url(#clip530)" style="stroke:#000000; stroke-width:4; stroke-opacity:1; fill:none" points="
  804.611,1419.47 804.611,1411.23 
  "/>
<polyline clip-path="url(#clip530)" style="stroke:#000000; stroke-width:4; stroke-opacity:1; fill:none" points="
  894.75,1419.47 894.75,1411.23 
  "/>
<polyline clip-path="url(#clip530)" style="stroke:#000000; stroke-width:4; stroke-opacity:1; fill:none" points="
  984.89,1419.47 984.89,1411.23 
  "/>
<polyline clip-path="url(#clip530)" style="stroke:#000000; stroke-width:4; stroke-opacity:1; fill:none" points="
  1075.03,1419.47 1075.03,1411.23 
  "/>
<polyline clip-path="url(#clip530)" style="stroke:#000000; stroke-width:4; stroke-opacity:1; fill:none" points="
  1255.31,1419.47 1255.31,1411.23 
  "/>
<polyline clip-path="url(#clip530)" style="stroke:#000000; stroke-width:4; stroke-opacity:1; fill:none" points="
  1345.45,1419.47 1345.45,1411.23 
  "/>
<polyline clip-path="url(#clip530)" style="stroke:#000000; stroke-width:4; stroke-opacity:1; fill:none" points="
  1435.59,1419.47 1435.59,1411.23 
  "/>
<polyline clip-path="url(#clip530)" style="stroke:#000000; stroke-width:4; stroke-opacity:1; fill:none" points="
  1525.73,1419.47 1525.73,1411.23 
  "/>
<polyline clip-path="url(#clip530)" style="stroke:#000000; stroke-width:4; stroke-opacity:1; fill:none" points="
  1706.01,1419.47 1706.01,1411.23 
  "/>
<polyline clip-path="url(#clip530)" style="stroke:#000000; stroke-width:4; stroke-opacity:1; fill:none" points="
  1796.14,1419.47 1796.14,1411.23 
  "/>
<polyline clip-path="url(#clip530)" style="stroke:#000000; stroke-width:4; stroke-opacity:1; fill:none" points="
  1886.28,1419.47 1886.28,1411.23 
  "/>
<polyline clip-path="url(#clip530)" style="stroke:#000000; stroke-width:4; stroke-opacity:1; fill:none" points="
  1976.42,1419.47 1976.42,1411.23 
  "/>
<polyline clip-path="url(#clip530)" style="stroke:#000000; stroke-width:4; stroke-opacity:1; fill:none" points="
  2156.7,1419.47 2156.7,1411.23 
  "/>
<polyline clip-path="url(#clip530)" style="stroke:#000000; stroke-width:4; stroke-opacity:1; fill:none" points="
  2246.84,1419.47 2246.84,1411.23 
  "/>
<polyline clip-path="url(#clip530)" style="stroke:#000000; stroke-width:4; stroke-opacity:1; fill:none" points="
  2336.98,1419.47 2336.98,1411.23 
  "/>
<path clip-path="url(#clip530)" d="M 0 0 M250.465 1470.28 Q250.465 1460.99 252.812 1455.92 Q256.085 1448.39 263.805 1448.39 Q265.441 1448.39 267.14 1448.85 Q268.869 1449.28 271.031 1450.98 Q273.223 1452.68 274.551 1455.46 Q277.083 1460.83 277.083 1470.28 Q277.083 1479.51 274.736 1484.55 Q271.308 1491.9 263.743 1491.9 Q260.902 1491.9 258 1490.44 Q255.128 1488.99 253.306 1485.5 Q250.465 1480.29 250.465 1470.28 M255.714 1469.51 Q255.714 1479.05 256.394 1482.85 Q257.166 1486.95 259.266 1488.75 Q261.396 1490.51 263.743 1490.51 Q266.275 1490.51 268.375 1488.62 Q270.506 1486.71 271.154 1482.6 Q271.864 1478.56 271.833 1469.51 Q271.833 1460.71 271.216 1457.19 Q270.382 1453.08 268.159 1451.44 Q265.966 1449.78 263.743 1449.78 Q262.909 1449.78 262.014 1450.02 Q261.149 1450.27 259.883 1450.98 Q258.617 1451.69 257.629 1453.45 Q256.672 1455.21 256.209 1457.87 Q255.714 1461.29 255.714 1469.51 Z" fill="#808080" fill-rule="evenodd" fill-opacity="1" /><path clip-path="url(#clip530)" d="M 0 0 M687.298 1490.51 Q687.298 1489.36 687.39 1489.02 Q687.514 1488.68 688.008 1488.16 L700.143 1474.63 Q706.782 1467.16 706.782 1460.65 Q706.782 1456.42 704.559 1453.39 Q702.367 1450.36 698.321 1450.36 Q695.542 1450.36 693.195 1452.06 Q690.849 1453.76 689.768 1456.79 Q689.953 1456.72 690.602 1456.72 Q692.176 1456.72 693.041 1457.71 Q693.937 1458.7 693.937 1460.03 Q693.937 1461.73 692.825 1462.56 Q691.744 1463.36 690.663 1463.36 Q690.231 1463.36 689.644 1463.27 Q689.089 1463.18 688.193 1462.31 Q687.298 1461.42 687.298 1459.84 Q687.298 1455.43 690.632 1451.91 Q693.998 1448.39 699.124 1448.39 Q704.93 1448.39 708.728 1451.85 Q712.557 1455.27 712.557 1460.65 Q712.557 1462.53 711.97 1464.26 Q711.414 1465.96 710.642 1467.28 Q709.901 1468.61 707.863 1470.74 Q705.825 1472.87 704.188 1474.39 Q702.552 1475.9 698.877 1479.11 L692.176 1485.63 L703.571 1485.63 Q709.129 1485.63 709.561 1485.13 Q710.179 1484.24 710.951 1479.51 L712.557 1479.51 L710.766 1490.51 L687.298 1490.51 Z" fill="#808080" fill-rule="evenodd" fill-opacity="1" /><path clip-path="url(#clip530)" d="M 0 0 M715.027 1470.28 Q715.027 1460.99 717.374 1455.92 Q720.647 1448.39 728.367 1448.39 Q730.003 1448.39 731.702 1448.85 Q733.431 1449.28 735.593 1450.98 Q737.785 1452.68 739.113 1455.46 Q741.645 1460.83 741.645 1470.28 Q741.645 1479.51 739.298 1484.55 Q735.871 1491.9 728.305 1491.9 Q725.464 1491.9 722.562 1490.44 Q719.69 1488.99 717.868 1485.5 Q715.027 1480.29 715.027 1470.28 M720.277 1469.51 Q720.277 1479.05 720.956 1482.85 Q721.728 1486.95 723.828 1488.75 Q725.958 1490.51 728.305 1490.51 Q730.837 1490.51 732.937 1488.62 Q735.068 1486.71 735.716 1482.6 Q736.426 1478.56 736.395 1469.51 Q736.395 1460.71 735.778 1457.19 Q734.944 1453.08 732.721 1451.44 Q730.528 1449.78 728.305 1449.78 Q727.471 1449.78 726.576 1450.02 Q725.711 1450.27 724.445 1450.98 Q723.179 1451.69 722.191 1453.45 Q721.234 1455.21 720.771 1457.87 Q720.277 1461.29 720.277 1469.51 Z" fill="#808080" fill-rule="evenodd" fill-opacity="1" /><path clip-path="url(#clip530)" d="M 0 0 M1136.61 1480.07 L1136.61 1478.12 L1156.03 1448.45 Q1156.52 1447.68 1157.29 1447.71 Q1158 1447.71 1158.16 1447.99 Q1158.31 1448.26 1158.31 1449.34 L1158.31 1478.12 L1164.64 1478.12 L1164.64 1480.07 L1158.31 1480.07 L1158.31 1485.57 Q1158.31 1487.39 1159.05 1487.97 Q1159.83 1488.56 1163.1 1488.56 L1164.43 1488.56 L1164.43 1490.51 Q1161.83 1490.32 1155.84 1490.32 Q1149.88 1490.32 1147.29 1490.51 L1147.29 1488.56 L1148.62 1488.56 Q1151.89 1488.56 1152.66 1488 Q1153.43 1487.42 1153.43 1485.57 L1153.43 1480.07 L1136.61 1480.07 M1138.4 1478.12 L1153.8 1478.12 L1153.8 1454.53 L1138.4 1478.12 Z" fill="#808080" fill-rule="evenodd" fill-opacity="1" /><path clip-path="url(#clip530)" d="M 0 0 M1167.11 1470.28 Q1167.11 1460.99 1169.46 1455.92 Q1172.73 1448.39 1180.45 1448.39 Q1182.09 1448.39 1183.79 1448.85 Q1185.52 1449.28 1187.68 1450.98 Q1189.87 1452.68 1191.2 1455.46 Q1193.73 1460.83 1193.73 1470.28 Q1193.73 1479.51 1191.38 1484.55 Q1187.96 1491.9 1180.39 1491.9 Q1177.55 1491.9 1174.65 1490.44 Q1171.78 1488.99 1169.95 1485.5 Q1167.11 1480.29 1167.11 1470.28 M1172.36 1469.51 Q1172.36 1479.05 1173.04 1482.85 Q1173.81 1486.95 1175.91 1488.75 Q1178.05 1490.51 1180.39 1490.51 Q1182.92 1490.51 1185.02 1488.62 Q1187.15 1486.71 1187.8 1482.6 Q1188.51 1478.56 1188.48 1469.51 Q1188.48 1460.71 1187.86 1457.19 Q1187.03 1453.08 1184.81 1451.44 Q1182.62 1449.78 1180.39 1449.78 Q1179.56 1449.78 1178.66 1450.02 Q1177.8 1450.27 1176.53 1450.98 Q1175.27 1451.69 1174.28 1453.45 Q1173.32 1455.21 1172.86 1457.87 Q1172.36 1461.29 1172.36 1469.51 Z" fill="#808080" fill-rule="evenodd" fill-opacity="1" /><path clip-path="url(#clip530)" d="M 0 0 M1588.2 1470.53 Q1588.2 1460.58 1593.26 1454.5 Q1598.33 1448.39 1604.84 1448.39 Q1608.64 1448.39 1610.74 1450.33 Q1612.87 1452.25 1612.87 1455.21 Q1612.87 1456.85 1611.91 1457.56 Q1610.96 1458.27 1609.97 1458.27 Q1608.83 1458.27 1607.93 1457.5 Q1607.03 1456.72 1607.03 1455.33 Q1607.03 1452.49 1610.52 1452.49 Q1608.89 1449.96 1604.97 1449.96 Q1603.76 1449.96 1602.53 1450.33 Q1601.29 1450.67 1599.69 1451.85 Q1598.08 1453.02 1596.84 1454.87 Q1595.61 1456.72 1594.74 1460.21 Q1593.88 1463.7 1593.88 1468.24 L1593.88 1469.76 Q1596.47 1463.49 1601.78 1463.52 Q1607.1 1463.52 1610.77 1467.56 Q1614.45 1471.61 1614.45 1477.6 Q1614.45 1483.74 1610.62 1487.82 Q1606.79 1491.9 1601.41 1491.9 Q1599.01 1491.9 1596.81 1490.88 Q1594.65 1489.89 1592.61 1487.6 Q1590.61 1485.32 1589.4 1480.93 Q1588.2 1476.55 1588.2 1470.53 M1594 1476.21 Q1594 1482.42 1595.15 1485.38 Q1595.33 1485.87 1595.73 1486.55 Q1596.16 1487.23 1596.88 1488.13 Q1597.62 1488.99 1598.82 1489.58 Q1600.02 1490.14 1601.41 1490.14 Q1605.64 1490.14 1607.68 1486.03 Q1608.76 1483.74 1608.76 1477.54 Q1608.76 1471.21 1607.62 1468.89 Q1605.68 1464.97 1601.72 1464.97 Q1599.07 1464.97 1597.21 1466.79 Q1595.39 1468.61 1594.68 1471.05 Q1594 1473.49 1594 1476.21 Z" fill="#808080" fill-rule="evenodd" fill-opacity="1" /><path clip-path="url(#clip530)" d="M 0 0 M1616.92 1470.28 Q1616.92 1460.99 1619.26 1455.92 Q1622.54 1448.39 1630.26 1448.39 Q1631.89 1448.39 1633.59 1448.85 Q1635.32 1449.28 1637.48 1450.98 Q1639.67 1452.68 1641 1455.46 Q1643.53 1460.83 1643.53 1470.28 Q1643.53 1479.51 1641.19 1484.55 Q1637.76 1491.9 1630.19 1491.9 Q1627.35 1491.9 1624.45 1490.44 Q1621.58 1488.99 1619.76 1485.5 Q1616.92 1480.29 1616.92 1470.28 M1622.17 1469.51 Q1622.17 1479.05 1622.84 1482.85 Q1623.62 1486.95 1625.72 1488.75 Q1627.85 1490.51 1630.19 1490.51 Q1632.73 1490.51 1634.83 1488.62 Q1636.96 1486.71 1637.6 1482.6 Q1638.32 1478.56 1638.28 1469.51 Q1638.28 1460.71 1637.67 1457.19 Q1636.83 1453.08 1634.61 1451.44 Q1632.42 1449.78 1630.19 1449.78 Q1629.36 1449.78 1628.46 1450.02 Q1627.6 1450.27 1626.33 1450.98 Q1625.07 1451.69 1624.08 1453.45 Q1623.12 1455.21 1622.66 1457.87 Q1622.17 1461.29 1622.17 1469.51 Z" fill="#808080" fill-rule="evenodd" fill-opacity="1" /><path clip-path="url(#clip530)" d="M 0 0 M2038.9 1480.96 Q2038.9 1473.89 2048 1469.32 Q2044.08 1466.67 2043.37 1465.9 Q2040.59 1462.81 2040.59 1458.95 Q2040.59 1454.53 2043.93 1451.47 Q2047.29 1448.39 2052.05 1448.39 Q2056.59 1448.39 2060.02 1451.01 Q2063.44 1453.64 2063.44 1457.81 Q2063.44 1463.67 2055.79 1467.62 Q2060.85 1470.77 2062.05 1472.1 Q2065.14 1475.53 2065.14 1479.88 Q2065.14 1484.95 2061.25 1488.44 Q2057.36 1491.9 2051.99 1491.9 Q2046.74 1491.9 2042.82 1488.84 Q2038.9 1485.78 2038.9 1480.96 M2042.05 1480.96 Q2042.05 1484.89 2044.98 1487.51 Q2047.94 1490.14 2052.05 1490.14 Q2056.03 1490.14 2059 1487.85 Q2061.99 1485.57 2061.99 1482.17 Q2061.99 1480.84 2061.53 1479.7 Q2061.1 1478.56 2060.2 1477.66 Q2059.34 1476.73 2058.78 1476.33 Q2058.26 1475.9 2057.24 1475.19 L2049.46 1470.28 Q2042.05 1474.39 2042.05 1480.96 M2043.37 1456.48 Q2043.37 1459.5 2046.55 1461.6 L2054.4 1466.67 Q2060.67 1462.99 2060.67 1457.81 Q2060.67 1454.44 2058.1 1452.22 Q2055.54 1449.96 2051.99 1449.96 Q2048.5 1449.96 2045.94 1451.81 Q2043.37 1453.64 2043.37 1456.48 Z" fill="#808080" fill-rule="evenodd" fill-opacity="1" /><path clip-path="url(#clip530)" d="M 0 0 M2067.61 1470.28 Q2067.61 1460.99 2069.96 1455.92 Q2073.23 1448.39 2080.95 1448.39 Q2082.59 1448.39 2084.29 1448.85 Q2086.02 1449.28 2088.18 1450.98 Q2090.37 1452.68 2091.7 1455.46 Q2094.23 1460.83 2094.23 1470.28 Q2094.23 1479.51 2091.88 1484.55 Q2088.46 1491.9 2080.89 1491.9 Q2078.05 1491.9 2075.15 1490.44 Q2072.28 1488.99 2070.45 1485.5 Q2067.61 1480.29 2067.61 1470.28 M2072.86 1469.51 Q2072.86 1479.05 2073.54 1482.85 Q2074.31 1486.95 2076.41 1488.75 Q2078.54 1490.51 2080.89 1490.51 Q2083.42 1490.51 2085.52 1488.62 Q2087.65 1486.71 2088.3 1482.6 Q2089.01 1478.56 2088.98 1469.51 Q2088.98 1460.71 2088.36 1457.19 Q2087.53 1453.08 2085.31 1451.44 Q2083.11 1449.78 2080.89 1449.78 Q2080.06 1449.78 2079.16 1450.02 Q2078.3 1450.27 2077.03 1450.98 Q2075.77 1451.69 2074.78 1453.45 Q2073.82 1455.21 2073.36 1457.87 Q2072.86 1461.29 2072.86 1469.51 Z" fill="#808080" fill-rule="evenodd" fill-opacity="1" /><path clip-path="url(#clip530)" d="M 0 0 M1296.86 1522.68 Q1296.86 1523.6 1296.47 1525.35 Q1295.24 1530.31 1290.64 1533.72 Q1289.86 1534.35 1288.49 1535.16 Q1290.15 1536.25 1291.59 1538.25 Q1293.73 1541.55 1293.73 1546.01 Q1293.73 1548.09 1293.17 1550.62 Q1291.59 1556.48 1286.03 1560.7 Q1280.45 1564.81 1273.81 1564.81 Q1270.22 1564.81 1267.77 1562.91 Q1265.34 1560.98 1264.39 1557.75 L1259.51 1577.46 Q1259.4 1577.95 1258.77 1577.95 L1258.42 1577.95 Q1257.68 1577.95 1257.68 1577.11 L1268.78 1532.84 Q1269.52 1529.85 1270.72 1527.04 Q1271.91 1524.23 1273.56 1521.7 Q1275.25 1519.17 1277.18 1517.31 Q1279.11 1515.41 1281.5 1514.32 Q1283.89 1513.2 1286.42 1513.2 Q1291.73 1513.2 1294.75 1516.82 Q1296.86 1519.38 1296.86 1522.68 M1292.82 1521.42 Q1292.82 1519.24 1291.94 1517.73 Q1290.15 1514.85 1286.35 1514.85 Q1284.07 1514.85 1281.89 1515.9 Q1279.75 1516.92 1278.02 1518.68 Q1276.3 1520.44 1274.83 1522.83 Q1273.35 1525.21 1272.26 1527.81 Q1271.21 1530.38 1270.51 1533.19 L1266.18 1550.62 Q1265.76 1552.48 1265.76 1554.13 Q1265.76 1558.06 1267.94 1560.63 Q1270.12 1563.19 1273.88 1563.19 Q1278.87 1563.19 1283.15 1559.47 Q1286.88 1556.13 1288.42 1550.26 Q1289.3 1546.58 1289.3 1544.01 Q1289.3 1541.2 1288.28 1539.02 Q1287.55 1537.27 1286.11 1536.21 Q1283.44 1537.16 1280.73 1537.16 Q1279.43 1537.16 1278.73 1537.12 Q1278.06 1537.09 1277.08 1536.95 Q1276.13 1536.81 1275.67 1536.42 Q1275.25 1536.04 1275.25 1535.44 Q1275.25 1535.09 1275.32 1534.95 Q1275.46 1534.38 1275.92 1534 Q1276.37 1533.61 1276.9 1533.44 Q1277.43 1533.22 1278.31 1533.12 Q1279.22 1533.01 1279.82 1533.01 Q1280.41 1532.98 1281.43 1532.98 Q1283.82 1532.98 1286.25 1533.93 Q1287.16 1533.44 1288.14 1532.56 Q1291.27 1529.64 1292.32 1525 Q1292.82 1523.28 1292.82 1521.42 M1283.96 1535.02 Q1282.49 1534.63 1281.36 1534.63 Q1277.25 1534.63 1277.04 1535.3 Q1277.04 1535.37 1277.18 1535.44 Q1277.32 1535.47 1277.64 1535.51 Q1277.99 1535.51 1278.27 1535.54 Q1278.59 1535.58 1279.11 1535.58 Q1279.64 1535.58 1279.92 1535.58 Q1280.24 1535.58 1280.8 1535.58 Q1282.21 1535.58 1283.96 1535.02 Z" fill="#000000" fill-rule="evenodd" fill-opacity="1" /><polyline clip-path="url(#clip533)" style="stroke:#222255; stroke-width:4; stroke-opacity:0.1; fill:none" stroke-dasharray="16, 10" points="
  202.93,1380.63 2352.76,1380.63 
  "/>
<polyline clip-path="url(#clip533)" style="stroke:#222255; stroke-width:4; stroke-opacity:0.1; fill:none" stroke-dasharray="16, 10" points="
  202.93,1151.27 2352.76,1151.27 
  "/>
<polyline clip-path="url(#clip533)" style="stroke:#222255; stroke-width:4; stroke-opacity:0.1; fill:none" stroke-dasharray="16, 10" points="
  202.93,921.909 2352.76,921.909 
  "/>
<polyline clip-path="url(#clip533)" style="stroke:#222255; stroke-width:4; stroke-opacity:0.1; fill:none" stroke-dasharray="16, 10" points="
  202.93,692.548 2352.76,692.548 
  "/>
<polyline clip-path="url(#clip533)" style="stroke:#222255; stroke-width:4; stroke-opacity:0.1; fill:none" stroke-dasharray="16, 10" points="
  202.93,463.188 2352.76,463.188 
  "/>
<polyline clip-path="url(#clip533)" style="stroke:#222255; stroke-width:4; stroke-opacity:0.1; fill:none" stroke-dasharray="16, 10" points="
  202.93,233.827 2352.76,233.827 
  "/>
<polyline clip-path="url(#clip533)" style="stroke:#222255; stroke-width:2; stroke-opacity:0.05; fill:none" points="
  202.93,1334.76 2352.76,1334.76 
  "/>
<polyline clip-path="url(#clip533)" style="stroke:#222255; stroke-width:2; stroke-opacity:0.05; fill:none" points="
  202.93,1288.89 2352.76,1288.89 
  "/>
<polyline clip-path="url(#clip533)" style="stroke:#222255; stroke-width:2; stroke-opacity:0.05; fill:none" points="
  202.93,1243.01 2352.76,1243.01 
  "/>
<polyline clip-path="url(#clip533)" style="stroke:#222255; stroke-width:2; stroke-opacity:0.05; fill:none" points="
  202.93,1197.14 2352.76,1197.14 
  "/>
<polyline clip-path="url(#clip533)" style="stroke:#222255; stroke-width:2; stroke-opacity:0.05; fill:none" points="
  202.93,1105.4 2352.76,1105.4 
  "/>
<polyline clip-path="url(#clip533)" style="stroke:#222255; stroke-width:2; stroke-opacity:0.05; fill:none" points="
  202.93,1059.53 2352.76,1059.53 
  "/>
<polyline clip-path="url(#clip533)" style="stroke:#222255; stroke-width:2; stroke-opacity:0.05; fill:none" points="
  202.93,1013.65 2352.76,1013.65 
  "/>
<polyline clip-path="url(#clip533)" style="stroke:#222255; stroke-width:2; stroke-opacity:0.05; fill:none" points="
  202.93,967.781 2352.76,967.781 
  "/>
<polyline clip-path="url(#clip533)" style="stroke:#222255; stroke-width:2; stroke-opacity:0.05; fill:none" points="
  202.93,876.037 2352.76,876.037 
  "/>
<polyline clip-path="url(#clip533)" style="stroke:#222255; stroke-width:2; stroke-opacity:0.05; fill:none" points="
  202.93,830.165 2352.76,830.165 
  "/>
<polyline clip-path="url(#clip533)" style="stroke:#222255; stroke-width:2; stroke-opacity:0.05; fill:none" points="
  202.93,784.292 2352.76,784.292 
  "/>
<polyline clip-path="url(#clip533)" style="stroke:#222255; stroke-width:2; stroke-opacity:0.05; fill:none" points="
  202.93,738.42 2352.76,738.42 
  "/>
<polyline clip-path="url(#clip533)" style="stroke:#222255; stroke-width:2; stroke-opacity:0.05; fill:none" points="
  202.93,646.676 2352.76,646.676 
  "/>
<polyline clip-path="url(#clip533)" style="stroke:#222255; stroke-width:2; stroke-opacity:0.05; fill:none" points="
  202.93,600.804 2352.76,600.804 
  "/>
<polyline clip-path="url(#clip533)" style="stroke:#222255; stroke-width:2; stroke-opacity:0.05; fill:none" points="
  202.93,554.932 2352.76,554.932 
  "/>
<polyline clip-path="url(#clip533)" style="stroke:#222255; stroke-width:2; stroke-opacity:0.05; fill:none" points="
  202.93,509.06 2352.76,509.06 
  "/>
<polyline clip-path="url(#clip533)" style="stroke:#222255; stroke-width:2; stroke-opacity:0.05; fill:none" points="
  202.93,417.316 2352.76,417.316 
  "/>
<polyline clip-path="url(#clip533)" style="stroke:#222255; stroke-width:2; stroke-opacity:0.05; fill:none" points="
  202.93,371.444 2352.76,371.444 
  "/>
<polyline clip-path="url(#clip533)" style="stroke:#222255; stroke-width:2; stroke-opacity:0.05; fill:none" points="
  202.93,325.572 2352.76,325.572 
  "/>
<polyline clip-path="url(#clip533)" style="stroke:#222255; stroke-width:2; stroke-opacity:0.05; fill:none" points="
  202.93,279.7 2352.76,279.7 
  "/>
<polyline clip-path="url(#clip533)" style="stroke:#222255; stroke-width:2; stroke-opacity:0.05; fill:none" points="
  202.93,187.955 2352.76,187.955 
  "/>
<polyline clip-path="url(#clip533)" style="stroke:#222255; stroke-width:2; stroke-opacity:0.05; fill:none" points="
  202.93,142.083 2352.76,142.083 
  "/>
<polyline clip-path="url(#clip533)" style="stroke:#222255; stroke-width:2; stroke-opacity:0.05; fill:none" points="
  202.93,96.2112 2352.76,96.2112 
  "/>
<polyline clip-path="url(#clip533)" style="stroke:#222255; stroke-width:2; stroke-opacity:0.05; fill:none" points="
  202.93,50.3391 2352.76,50.3391 
  "/>
<polyline clip-path="url(#clip530)" style="stroke:#000000; stroke-width:4; stroke-opacity:1; fill:none" points="
  202.93,1419.47 202.93,47.2441 
  "/>
<polyline clip-path="url(#clip530)" style="stroke:#000000; stroke-width:4; stroke-opacity:1; fill:none" points="
  2352.76,1419.47 2352.76,47.2441 
  "/>
<polyline clip-path="url(#clip530)" style="stroke:#000000; stroke-width:4; stroke-opacity:1; fill:none" points="
  202.93,1380.63 228.728,1380.63 
  "/>
<polyline clip-path="url(#clip530)" style="stroke:#000000; stroke-width:4; stroke-opacity:1; fill:none" points="
  202.93,1151.27 228.728,1151.27 
  "/>
<polyline clip-path="url(#clip530)" style="stroke:#000000; stroke-width:4; stroke-opacity:1; fill:none" points="
  202.93,921.909 228.728,921.909 
  "/>
<polyline clip-path="url(#clip530)" style="stroke:#000000; stroke-width:4; stroke-opacity:1; fill:none" points="
  202.93,692.548 228.728,692.548 
  "/>
<polyline clip-path="url(#clip530)" style="stroke:#000000; stroke-width:4; stroke-opacity:1; fill:none" points="
  202.93,463.188 228.728,463.188 
  "/>
<polyline clip-path="url(#clip530)" style="stroke:#000000; stroke-width:4; stroke-opacity:1; fill:none" points="
  202.93,233.827 228.728,233.827 
  "/>
<polyline clip-path="url(#clip530)" style="stroke:#000000; stroke-width:4; stroke-opacity:1; fill:none" points="
  202.93,1334.76 215.829,1334.76 
  "/>
<polyline clip-path="url(#clip530)" style="stroke:#000000; stroke-width:4; stroke-opacity:1; fill:none" points="
  202.93,1288.89 215.829,1288.89 
  "/>
<polyline clip-path="url(#clip530)" style="stroke:#000000; stroke-width:4; stroke-opacity:1; fill:none" points="
  202.93,1243.01 215.829,1243.01 
  "/>
<polyline clip-path="url(#clip530)" style="stroke:#000000; stroke-width:4; stroke-opacity:1; fill:none" points="
  202.93,1197.14 215.829,1197.14 
  "/>
<polyline clip-path="url(#clip530)" style="stroke:#000000; stroke-width:4; stroke-opacity:1; fill:none" points="
  202.93,1105.4 215.829,1105.4 
  "/>
<polyline clip-path="url(#clip530)" style="stroke:#000000; stroke-width:4; stroke-opacity:1; fill:none" points="
  202.93,1059.53 215.829,1059.53 
  "/>
<polyline clip-path="url(#clip530)" style="stroke:#000000; stroke-width:4; stroke-opacity:1; fill:none" points="
  202.93,1013.65 215.829,1013.65 
  "/>
<polyline clip-path="url(#clip530)" style="stroke:#000000; stroke-width:4; stroke-opacity:1; fill:none" points="
  202.93,967.781 215.829,967.781 
  "/>
<polyline clip-path="url(#clip530)" style="stroke:#000000; stroke-width:4; stroke-opacity:1; fill:none" points="
  202.93,876.037 215.829,876.037 
  "/>
<polyline clip-path="url(#clip530)" style="stroke:#000000; stroke-width:4; stroke-opacity:1; fill:none" points="
  202.93,830.165 215.829,830.165 
  "/>
<polyline clip-path="url(#clip530)" style="stroke:#000000; stroke-width:4; stroke-opacity:1; fill:none" points="
  202.93,784.292 215.829,784.292 
  "/>
<polyline clip-path="url(#clip530)" style="stroke:#000000; stroke-width:4; stroke-opacity:1; fill:none" points="
  202.93,738.42 215.829,738.42 
  "/>
<polyline clip-path="url(#clip530)" style="stroke:#000000; stroke-width:4; stroke-opacity:1; fill:none" points="
  202.93,646.676 215.829,646.676 
  "/>
<polyline clip-path="url(#clip530)" style="stroke:#000000; stroke-width:4; stroke-opacity:1; fill:none" points="
  202.93,600.804 215.829,600.804 
  "/>
<polyline clip-path="url(#clip530)" style="stroke:#000000; stroke-width:4; stroke-opacity:1; fill:none" points="
  202.93,554.932 215.829,554.932 
  "/>
<polyline clip-path="url(#clip530)" style="stroke:#000000; stroke-width:4; stroke-opacity:1; fill:none" points="
  202.93,509.06 215.829,509.06 
  "/>
<polyline clip-path="url(#clip530)" style="stroke:#000000; stroke-width:4; stroke-opacity:1; fill:none" points="
  202.93,417.316 215.829,417.316 
  "/>
<polyline clip-path="url(#clip530)" style="stroke:#000000; stroke-width:4; stroke-opacity:1; fill:none" points="
  202.93,371.444 215.829,371.444 
  "/>
<polyline clip-path="url(#clip530)" style="stroke:#000000; stroke-width:4; stroke-opacity:1; fill:none" points="
  202.93,325.572 215.829,325.572 
  "/>
<polyline clip-path="url(#clip530)" style="stroke:#000000; stroke-width:4; stroke-opacity:1; fill:none" points="
  202.93,279.7 215.829,279.7 
  "/>
<polyline clip-path="url(#clip530)" style="stroke:#000000; stroke-width:4; stroke-opacity:1; fill:none" points="
  202.93,187.955 215.829,187.955 
  "/>
<polyline clip-path="url(#clip530)" style="stroke:#000000; stroke-width:4; stroke-opacity:1; fill:none" points="
  202.93,142.083 215.829,142.083 
  "/>
<polyline clip-path="url(#clip530)" style="stroke:#000000; stroke-width:4; stroke-opacity:1; fill:none" points="
  202.93,96.2112 215.829,96.2112 
  "/>
<polyline clip-path="url(#clip530)" style="stroke:#000000; stroke-width:4; stroke-opacity:1; fill:none" points="
  202.93,50.3391 215.829,50.3391 
  "/>
<path clip-path="url(#clip530)" d="M 0 0 M140.312 1382 Q140.312 1372.71 142.659 1367.64 Q145.932 1360.11 153.652 1360.11 Q155.288 1360.11 156.987 1360.57 Q158.716 1361.01 160.877 1362.7 Q163.07 1364.4 164.398 1367.18 Q166.93 1372.55 166.93 1382 Q166.93 1391.24 164.583 1396.27 Q161.155 1403.62 153.59 1403.62 Q150.749 1403.62 147.846 1402.17 Q144.975 1400.72 143.153 1397.23 Q140.312 1392.01 140.312 1382 M145.561 1381.23 Q145.561 1390.77 146.241 1394.57 Q147.013 1398.68 149.113 1400.47 Q151.243 1402.23 153.59 1402.23 Q156.122 1402.23 158.222 1400.35 Q160.353 1398.43 161.001 1394.32 Q161.711 1390.28 161.68 1381.23 Q161.68 1372.43 161.063 1368.91 Q160.229 1364.8 158.006 1363.17 Q155.813 1361.5 153.59 1361.5 Q152.756 1361.5 151.861 1361.75 Q150.996 1361.99 149.73 1362.7 Q148.464 1363.41 147.476 1365.17 Q146.519 1366.93 146.055 1369.59 Q145.561 1373.02 145.561 1381.23 Z" fill="#808080" fill-rule="evenodd" fill-opacity="1" /><path clip-path="url(#clip530)" d="M 0 0 M116.967 1136.77 L116.967 1134.8 Q124.564 1134.8 128.485 1130.75 Q129.566 1130.75 129.751 1131 Q129.937 1131.24 129.937 1132.39 L129.937 1167.87 Q129.937 1169.75 130.863 1170.34 Q131.789 1170.92 135.834 1170.92 L137.842 1170.92 L137.842 1172.87 Q135.618 1172.68 127.59 1172.68 Q119.561 1172.68 117.369 1172.87 L117.369 1170.92 L119.376 1170.92 Q123.359 1170.92 124.317 1170.37 Q125.274 1169.78 125.274 1167.87 L125.274 1135.1 Q121.97 1136.77 116.967 1136.77 Z" fill="#808080" fill-rule="evenodd" fill-opacity="1" /><path clip-path="url(#clip530)" d="M 0 0 M140.312 1152.64 Q140.312 1143.35 142.659 1138.28 Q145.932 1130.75 153.652 1130.75 Q155.288 1130.75 156.987 1131.21 Q158.716 1131.65 160.877 1133.34 Q163.07 1135.04 164.398 1137.82 Q166.93 1143.19 166.93 1152.64 Q166.93 1161.88 164.583 1166.91 Q161.155 1174.26 153.59 1174.26 Q150.749 1174.26 147.846 1172.81 Q144.975 1171.36 143.153 1167.87 Q140.312 1162.65 140.312 1152.64 M145.561 1151.87 Q145.561 1161.41 146.241 1165.21 Q147.013 1169.32 149.113 1171.11 Q151.243 1172.87 153.59 1172.87 Q156.122 1172.87 158.222 1170.99 Q160.353 1169.07 161.001 1164.96 Q161.711 1160.92 161.68 1151.87 Q161.68 1143.07 161.063 1139.55 Q160.229 1135.44 158.006 1133.81 Q155.813 1132.14 153.59 1132.14 Q152.756 1132.14 151.861 1132.39 Q150.996 1132.63 149.73 1133.34 Q148.464 1134.05 147.476 1135.81 Q146.519 1137.57 146.055 1140.23 Q145.561 1143.66 145.561 1151.87 Z" fill="#808080" fill-rule="evenodd" fill-opacity="1" /><path clip-path="url(#clip530)" d="M 0 0 M112.582 943.509 Q112.582 942.366 112.675 942.027 Q112.799 941.687 113.293 941.162 L125.428 927.637 Q132.067 920.164 132.067 913.649 Q132.067 909.418 129.844 906.392 Q127.651 903.366 123.606 903.366 Q120.827 903.366 118.48 905.064 Q116.134 906.763 115.053 909.789 Q115.238 909.727 115.886 909.727 Q117.461 909.727 118.326 910.715 Q119.221 911.703 119.221 913.031 Q119.221 914.729 118.11 915.563 Q117.029 916.366 115.948 916.366 Q115.516 916.366 114.929 916.273 Q114.373 916.181 113.478 915.316 Q112.582 914.421 112.582 912.846 Q112.582 908.43 115.917 904.91 Q119.283 901.39 124.409 901.39 Q130.214 901.39 134.013 904.848 Q137.842 908.276 137.842 913.649 Q137.842 915.532 137.255 917.261 Q136.699 918.96 135.927 920.288 Q135.186 921.615 133.148 923.746 Q131.11 925.877 129.473 927.39 Q127.837 928.903 124.162 932.114 L117.461 938.63 L128.856 938.63 Q134.414 938.63 134.846 938.136 Q135.464 937.24 136.236 932.516 L137.842 932.516 L136.051 943.509 L112.582 943.509 Z" fill="#808080" fill-rule="evenodd" fill-opacity="1" /><path clip-path="url(#clip530)" d="M 0 0 M140.312 923.283 Q140.312 913.988 142.659 908.924 Q145.932 901.39 153.652 901.39 Q155.288 901.39 156.987 901.853 Q158.716 902.285 160.877 903.983 Q163.07 905.682 164.398 908.461 Q166.93 913.834 166.93 923.283 Q166.93 932.516 164.583 937.549 Q161.155 944.898 153.59 944.898 Q150.749 944.898 147.846 943.447 Q144.975 941.996 143.153 938.506 Q140.312 933.288 140.312 923.283 M145.561 922.511 Q145.561 932.053 146.241 935.851 Q147.013 939.958 149.113 941.749 Q151.243 943.509 153.59 943.509 Q156.122 943.509 158.222 941.625 Q160.353 939.711 161.001 935.604 Q161.711 931.559 161.68 922.511 Q161.68 913.71 161.063 910.19 Q160.229 906.083 158.006 904.447 Q155.813 902.779 153.59 902.779 Q152.756 902.779 151.861 903.026 Q150.996 903.273 149.73 903.983 Q148.464 904.694 147.476 906.454 Q146.519 908.214 146.055 910.869 Q145.561 914.297 145.561 922.511 Z" fill="#808080" fill-rule="evenodd" fill-opacity="1" /><path clip-path="url(#clip530)" d="M 0 0 M111.594 705.626 Q111.594 703.742 112.675 702.847 Q113.756 701.951 115.145 701.951 Q116.597 701.951 117.616 702.908 Q118.666 703.835 118.666 705.471 Q118.666 707.231 117.43 708.22 Q116.226 709.208 114.497 708.961 Q116.01 711.493 118.789 712.635 Q121.599 713.778 124.193 713.778 Q126.91 713.778 129.103 711.431 Q131.326 709.084 131.326 703.341 Q131.326 698.462 129.412 695.652 Q127.528 692.842 123.792 692.842 L121.012 692.842 Q120.055 692.842 119.777 692.749 Q119.499 692.656 119.499 692.131 Q119.499 691.514 120.457 691.39 Q121.414 691.39 122.927 691.205 Q126.602 691.082 128.547 687.901 Q130.307 684.937 130.307 680.706 Q130.307 676.846 128.454 675.241 Q126.632 673.604 124.255 673.604 Q122.031 673.604 119.592 674.53 Q117.153 675.457 115.825 677.526 Q119.746 677.526 119.746 680.706 Q119.746 682.096 118.851 683.022 Q117.986 683.918 116.535 683.918 Q115.145 683.918 114.219 683.053 Q113.293 682.157 113.293 680.644 Q113.293 677.032 116.504 674.53 Q119.746 672.029 124.502 672.029 Q129.195 672.029 132.654 674.499 Q136.143 676.97 136.143 680.768 Q136.143 684.504 133.673 687.561 Q131.203 690.618 127.281 691.884 Q132.098 692.842 134.97 696.115 Q137.842 699.357 137.842 703.341 Q137.842 708.281 133.951 711.925 Q130.06 715.538 124.378 715.538 Q119.129 715.538 115.362 712.697 Q111.594 709.856 111.594 705.626 Z" fill="#808080" fill-rule="evenodd" fill-opacity="1" /><path clip-path="url(#clip530)" d="M 0 0 M140.312 693.922 Q140.312 684.628 142.659 679.564 Q145.932 672.029 153.652 672.029 Q155.288 672.029 156.987 672.492 Q158.716 672.925 160.877 674.623 Q163.07 676.321 164.398 679.1 Q166.93 684.473 166.93 693.922 Q166.93 703.155 164.583 708.189 Q161.155 715.538 153.59 715.538 Q150.749 715.538 147.846 714.087 Q144.975 712.635 143.153 709.146 Q140.312 703.927 140.312 693.922 M145.561 693.15 Q145.561 702.692 146.241 706.49 Q147.013 710.597 149.113 712.388 Q151.243 714.148 153.59 714.148 Q156.122 714.148 158.222 712.265 Q160.353 710.35 161.001 706.243 Q161.711 702.198 161.68 693.15 Q161.68 684.35 161.063 680.83 Q160.229 676.723 158.006 675.086 Q155.813 673.419 153.59 673.419 Q152.756 673.419 151.861 673.666 Q150.996 673.913 149.73 674.623 Q148.464 675.333 147.476 677.093 Q146.519 678.853 146.055 681.509 Q145.561 684.937 145.561 693.15 Z" fill="#808080" fill-rule="evenodd" fill-opacity="1" /><path clip-path="url(#clip530)" d="M 0 0 M109.803 474.351 L109.803 472.405 L129.226 442.73 Q129.72 441.958 130.492 441.989 Q131.203 441.989 131.357 442.267 Q131.511 442.545 131.511 443.626 L131.511 472.405 L137.842 472.405 L137.842 474.351 L131.511 474.351 L131.511 479.847 Q131.511 481.669 132.252 482.256 Q133.024 482.843 136.298 482.843 L137.625 482.843 L137.625 484.788 Q135.032 484.603 129.041 484.603 Q123.081 484.603 120.487 484.788 L120.487 482.843 L121.815 482.843 Q125.088 482.843 125.86 482.287 Q126.632 481.7 126.632 479.847 L126.632 474.351 L109.803 474.351 M111.594 472.405 L127.003 472.405 L127.003 448.814 L111.594 472.405 Z" fill="#808080" fill-rule="evenodd" fill-opacity="1" /><path clip-path="url(#clip530)" d="M 0 0 M140.312 464.562 Q140.312 455.267 142.659 450.203 Q145.932 442.669 153.652 442.669 Q155.288 442.669 156.987 443.132 Q158.716 443.564 160.877 445.263 Q163.07 446.961 164.398 449.74 Q166.93 455.113 166.93 464.562 Q166.93 473.795 164.583 478.828 Q161.155 486.177 153.59 486.177 Q150.749 486.177 147.846 484.726 Q144.975 483.275 143.153 479.785 Q140.312 474.567 140.312 464.562 M145.561 463.79 Q145.561 473.332 146.241 477.13 Q147.013 481.237 149.113 483.028 Q151.243 484.788 153.59 484.788 Q156.122 484.788 158.222 482.904 Q160.353 480.99 161.001 476.883 Q161.711 472.838 161.68 463.79 Q161.68 454.989 161.063 451.469 Q160.229 447.362 158.006 445.726 Q155.813 444.058 153.59 444.058 Q152.756 444.058 151.861 444.305 Q150.996 444.552 149.73 445.263 Q148.464 445.973 147.476 447.733 Q146.519 449.493 146.055 452.149 Q145.561 455.576 145.561 463.79 Z" fill="#808080" fill-rule="evenodd" fill-opacity="1" /><path clip-path="url(#clip530)" d="M 0 0 M112.582 245.237 Q112.582 243.354 113.601 242.643 Q114.62 241.902 115.701 241.902 Q117.153 241.902 117.986 242.829 Q118.851 243.724 118.851 244.99 Q118.851 246.256 117.986 247.183 Q117.153 248.078 115.701 248.078 Q114.991 248.078 114.62 247.955 Q115.454 250.857 117.986 252.957 Q120.549 255.057 123.915 255.057 Q128.146 255.057 130.678 250.95 Q132.191 248.294 132.191 242.273 Q132.191 236.962 131.048 234.306 Q129.288 230.261 125.675 230.261 Q120.549 230.261 117.523 234.677 Q117.153 235.232 116.72 235.263 Q116.103 235.263 115.948 234.924 Q115.825 234.553 115.825 233.596 L115.825 214.883 Q115.825 213.37 116.442 213.37 Q116.689 213.37 117.214 213.555 Q121.198 215.315 125.613 215.346 Q130.153 215.346 134.229 213.494 Q134.538 213.308 134.723 213.308 Q135.34 213.308 135.371 214.018 Q135.371 214.265 134.846 215.007 Q134.352 215.717 133.271 216.674 Q132.191 217.6 130.801 218.496 Q129.412 219.391 127.374 220.009 Q125.366 220.596 123.143 220.596 Q120.487 220.596 117.77 219.762 L117.77 232.083 Q121.043 228.871 125.799 228.871 Q130.863 228.871 134.352 232.947 Q137.842 237.023 137.842 242.705 Q137.842 248.665 133.704 252.741 Q129.597 256.817 124.039 256.817 Q118.974 256.817 115.763 253.204 Q112.582 249.591 112.582 245.237 Z" fill="#808080" fill-rule="evenodd" fill-opacity="1" /><path clip-path="url(#clip530)" d="M 0 0 M140.312 235.202 Q140.312 225.907 142.659 220.843 Q145.932 213.308 153.652 213.308 Q155.288 213.308 156.987 213.771 Q158.716 214.204 160.877 215.902 Q163.07 217.6 164.398 220.38 Q166.93 225.753 166.93 235.202 Q166.93 244.434 164.583 249.468 Q161.155 256.817 153.59 256.817 Q150.749 256.817 147.846 255.366 Q144.975 253.914 143.153 250.425 Q140.312 245.206 140.312 235.202 M145.561 234.43 Q145.561 243.971 146.241 247.769 Q147.013 251.876 149.113 253.667 Q151.243 255.427 153.59 255.427 Q156.122 255.427 158.222 253.544 Q160.353 251.629 161.001 247.522 Q161.711 243.477 161.68 234.43 Q161.68 225.629 161.063 222.109 Q160.229 218.002 158.006 216.365 Q155.813 214.698 153.59 214.698 Q152.756 214.698 151.861 214.945 Q150.996 215.192 149.73 215.902 Q148.464 216.612 147.476 218.372 Q146.519 220.133 146.055 222.788 Q145.561 226.216 145.561 234.43 Z" fill="#808080" fill-rule="evenodd" fill-opacity="1" /><path clip-path="url(#clip530)" d="M 0 0 M29.7537 775.362 Q35.6561 775.362 42.2964 777.259 Q48.9015 779.121 54.2419 782.073 Q59.547 785.024 63.0604 788.889 Q66.5386 792.753 66.5386 796.442 Q66.5386 798.796 65.2387 800.553 Q63.9036 802.275 61.6902 803.223 Q59.4416 804.172 56.9823 804.629 Q54.4878 805.085 51.7825 805.085 Q47.7421 805.085 43.3504 804.207 Q38.9236 803.329 34.9183 801.853 Q30.878 800.377 27.2241 798.304 Q23.535 796.232 20.8649 793.948 Q18.1596 791.629 16.5786 789.029 Q14.9975 786.429 14.9975 784.005 Q14.9975 782.248 15.7705 780.843 Q16.5083 779.403 17.8082 778.489 Q19.0731 777.576 20.5838 776.943 Q22.0945 776.276 23.8512 775.959 Q25.5728 775.643 27.0133 775.503 Q28.4186 775.362 29.7537 775.362 M25.2917 780.105 Q23.4999 780.105 22.1648 780.246 Q20.7946 780.386 19.4244 780.773 Q18.0542 781.159 17.3164 782.002 Q16.5786 782.811 16.5786 784.075 Q16.5786 787.764 24.1323 791.91 Q26.4863 793.245 29.6834 794.44 Q32.8806 795.634 34.3913 796.056 Q35.9021 796.478 39.6262 797.461 L39.6262 782.424 Q30.0348 780.105 25.2917 780.105 M41.9099 783.056 L41.9099 798.023 Q50.6934 800.342 56.1742 800.342 Q60.9524 800.342 62.955 799.358 Q64.9225 798.34 64.9225 796.442 Q64.9225 794.264 62.7442 792.226 Q60.5308 790.189 56.5255 788.116 Q51.3258 785.375 41.9099 783.056 Z" fill="#000000" fill-rule="evenodd" fill-opacity="1" /><path clip-path="url(#clip530)" d="M 0 0 M72.499 726.715 Q72.6958 726.715 73.4582 726.937 Q74.2206 727.158 75.4011 727.699 Q76.5816 728.216 77.6637 728.953 Q78.7212 729.667 79.5082 730.847 Q80.2706 732.003 80.2706 733.331 Q80.2706 735.102 79.0901 736.282 Q77.9096 737.463 76.1389 737.463 Q75.1797 737.463 73.3598 736.799 Q65.0472 733.675 62.0714 733.675 Q58.5545 733.675 58.5545 736.405 Q58.5545 737.955 59.1939 739.356 Q59.8333 740.758 60.7187 741.668 Q61.6041 742.578 62.6124 743.291 Q63.6207 744.005 64.2848 744.324 Q64.9488 744.62 65.2439 744.693 L77.3931 747.718 Q78.4261 747.964 78.9179 748.136 Q79.4098 748.309 79.8279 748.776 Q80.2706 749.243 80.2706 749.981 Q80.2706 750.596 79.9017 751.038 Q79.5328 751.457 78.8934 751.457 Q78.795 751.457 78.2785 751.334 Q77.762 751.211 77.0488 751.038 Q76.3356 750.866 75.9175 750.792 Q72.5728 749.907 72.1055 749.784 L66.2523 748.382 Q63.3502 747.62 62.0714 747.62 Q58.5545 747.62 58.5545 750.35 Q58.5545 751.702 59.0709 752.981 Q59.5628 754.236 60.2514 755.096 Q60.94 755.957 61.8992 756.744 Q62.8338 757.507 63.4732 757.9 Q64.088 758.269 64.7029 758.564 L67.2114 759.203 Q67.9 759.351 70.5807 760.064 L75.1305 761.171 Q78.5244 761.958 78.8442 762.13 Q79.5328 762.376 79.9017 762.917 Q80.2706 763.458 80.2706 763.999 Q80.2706 764.614 79.9017 765.032 Q79.5328 765.45 78.8934 765.45 Q78.795 765.45 78.4261 765.376 Q78.0572 765.303 77.5407 765.18 Q77.0242 765.057 76.7291 765.008 L65.0964 762.081 Q62.9813 761.54 62.3173 761.417 Q61.6287 761.269 60.8663 761.269 Q58.5545 761.269 58.5545 762.843 Q58.5545 764.122 60.0793 764.958 Q61.6041 765.795 64.5553 766.508 Q65.3669 766.729 65.539 766.877 Q65.7112 767 65.7112 767.369 Q65.6866 767.983 65.1947 767.983 Q65.0718 767.983 64.2848 767.787 Q63.4978 767.59 62.3173 767.221 Q61.1122 766.827 60.3252 766.409 Q59.8087 766.163 59.4644 765.942 Q59.1201 765.721 58.5791 765.278 Q58.038 764.835 57.7429 764.171 Q57.4478 763.507 57.4478 762.696 Q57.4478 760.9 58.6037 759.572 Q59.7596 758.22 61.8254 758.048 Q57.4478 754.777 57.4478 750.202 Q57.4478 747.62 58.7512 746.071 Q60.0055 744.62 62.3173 744.447 Q57.4478 741.053 57.4478 736.233 Q57.4478 733.454 58.8988 731.954 Q60.3252 730.454 62.8338 730.454 Q64.1372 730.454 66.6212 731.118 Q69.0805 731.782 70.3102 732.224 Q71.5399 732.667 73.9009 733.528 Q76.1635 734.438 77.4915 734.438 Q78.3523 734.438 78.7458 734.143 Q79.1393 733.848 79.1393 733.208 Q79.1393 732.224 78.5736 731.364 Q77.9834 730.503 77.0242 729.888 Q76.0405 729.249 75.0568 728.83 Q74.0484 728.412 72.9171 728.093 Q72.3023 727.896 72.1547 727.798 Q72.0072 727.675 72.0072 727.33 Q72.0072 726.715 72.499 726.715 Z" fill="#000000" fill-rule="evenodd" fill-opacity="1" /><path clip-path="url(#clip530)" d="M 0 0 M72.499 701.128 Q75.6716 701.792 77.4915 702.653 Q80.2706 704.03 80.2706 706.366 Q80.2706 708.137 79.1885 709.391 Q78.1064 710.646 76.4832 710.941 Q80.2706 714.162 80.2706 717.507 Q80.2706 720.458 78.0326 722.328 Q75.77 724.197 72.2039 724.197 Q68.6132 724.197 65.1701 722.426 Q61.727 720.631 59.5874 717.802 Q57.4478 714.974 57.4478 712.072 Q57.4478 708.998 60.6695 707.424 Q59.7841 707.301 59.1201 706.735 Q58.4561 706.17 58.4561 705.309 Q58.4561 704.645 58.825 704.251 Q59.1693 703.858 59.8087 703.858 Q60.1285 703.858 61.5303 704.202 L68.5641 706.022 L73.1139 707.129 Q74.7862 707.547 75.4011 707.67 Q76.0159 707.768 76.8275 707.768 Q79.1393 707.768 79.1393 706.268 Q79.1393 705.53 78.672 704.94 Q78.2047 704.35 77.221 703.882 Q76.2372 703.415 75.3273 703.12 Q74.3927 702.825 72.9171 702.431 Q72.3269 702.308 72.1793 702.21 Q72.0072 702.087 72.0072 701.743 Q72.0072 701.128 72.499 701.128 M62.9813 708.039 Q62.76 708.039 62.1451 708.211 Q61.5303 708.383 60.6695 708.776 Q59.8087 709.17 59.1939 710.031 Q58.5545 710.867 58.5545 711.998 Q58.5545 713.523 59.8579 715.122 Q61.1614 716.696 63.3748 717.852 Q65.1455 718.737 68.8592 719.696 Q72.5728 720.631 74.4173 720.631 Q75.5486 720.631 76.557 720.385 Q77.5407 720.114 78.3523 719.352 Q79.1393 718.589 79.1393 717.409 Q79.1393 714.531 75.5732 711.703 Q74.9584 711.162 74.7124 711.039 Q74.4419 710.892 73.7041 710.695 L63.8421 708.186 Q63.1043 708.039 62.9813 708.039 Z" fill="#000000" fill-rule="evenodd" fill-opacity="1" /><path clip-path="url(#clip530)" d="M 0 0 M60.7679 672.737 Q62.1451 672.737 62.9321 673.598 Q63.6945 674.458 63.6945 675.442 Q63.6945 676.377 63.1535 676.869 Q62.6124 677.36 61.9238 677.36 Q60.9892 677.36 60.1776 676.672 Q59.3661 675.983 59.1939 674.95 Q58.5545 675.959 58.5545 677.459 Q58.5545 678.443 59.0709 679.303 Q59.5874 680.14 60.2514 680.656 Q60.9155 681.148 61.8746 681.591 Q62.8092 682.009 63.3748 682.181 Q63.9159 682.328 64.5061 682.451 L71.3923 684.173 Q74.6633 685.009 75.8192 685.009 Q77.2456 685.009 78.2047 684.32 Q79.1393 683.632 79.1393 682.255 Q79.1393 681.714 78.9917 681.099 Q78.8196 680.484 78.3769 679.697 Q77.9096 678.885 77.221 678.172 Q76.5078 677.434 75.3027 676.721 Q74.0976 676.008 72.5482 675.541 Q72.0072 675.393 72.0072 674.901 Q72.0072 674.286 72.499 674.286 Q72.9171 674.286 73.8025 674.631 Q74.6633 674.95 75.7946 675.664 Q76.9013 676.352 77.9096 677.262 Q78.8934 678.172 79.582 679.525 Q80.2706 680.877 80.2706 682.353 Q80.2706 684.468 79.1393 685.87 Q78.008 687.272 76.434 687.788 Q76.6553 687.911 76.9505 688.083 Q77.2456 688.255 77.9096 688.772 Q78.549 689.264 79.0409 689.829 Q79.5082 690.395 79.8771 691.28 Q80.2706 692.141 80.2706 693.076 Q80.2706 694.256 79.9263 695.314 Q79.582 696.347 78.795 697.085 Q78.008 697.822 76.9259 697.822 Q75.7208 697.822 74.8846 697.011 Q74.0238 696.175 74.0238 695.043 Q74.0238 694.33 74.4419 693.764 Q74.86 693.174 75.77 693.174 Q76.7783 693.174 77.5407 693.863 Q78.3031 694.551 78.4999 695.535 Q79.1393 694.527 79.1393 693.027 Q79.1393 691.403 77.7129 690.125 Q76.2864 688.846 73.9009 688.231 Q68.1706 686.706 65.6128 686.116 Q63.0305 685.526 61.9238 685.526 Q60.8909 685.526 60.1776 685.796 Q59.4644 686.067 59.1447 686.534 Q58.8004 686.977 58.6774 687.395 Q58.5545 687.788 58.5545 688.231 Q58.5545 688.969 58.8496 689.805 Q59.1447 690.616 59.8333 691.6 Q60.4974 692.559 61.8746 693.469 Q63.2518 694.379 65.1455 694.994 Q65.7112 695.117 65.7112 695.658 Q65.6866 696.248 65.1947 696.248 Q64.7766 696.248 63.9159 695.929 Q63.0305 695.584 61.9238 694.896 Q60.8171 694.182 59.8333 693.273 Q58.825 692.338 58.1364 690.985 Q57.4478 689.608 57.4478 688.132 Q57.4478 687.468 57.5953 686.829 Q57.7183 686.165 58.0872 685.378 Q58.4561 684.566 59.2677 683.853 Q60.0793 683.14 61.2598 682.697 Q60.6941 682.402 60.1531 682.009 Q59.612 681.591 58.948 680.951 Q58.2593 680.287 57.8659 679.377 Q57.4478 678.443 57.4478 677.41 Q57.4478 676.401 57.7183 675.418 Q57.9642 674.434 58.7758 673.598 Q59.5628 672.737 60.7679 672.737 Z" fill="#000000" fill-rule="evenodd" fill-opacity="1" /><polyline clip-path="url(#clip533)" style="stroke:#4477aa; stroke-width:4.8; stroke-opacity:1; fill:none" points="
  263.774,1380.63 283.58,1362.3 466.719,1193 576.778,1091.59 669.832,1006.19 770.914,913.934 864.103,829.501 964.011,739.847 1079.76,637.453 1182.63,548.233 
  1272.84,471.826 1371.19,391.119 1470.12,313.641 1579.5,234.172 1683.58,167.622 1737.69,138.134 1791.79,113.546 1837.34,97.8397 1882.89,88.1766 1910.69,86.0806 
  1938.49,87.5946 1966.3,93.5158 1994.1,104.881 2020.24,121.742 2046.37,146.113 2072.51,179.976 2098.65,225.976 2119.58,273.923 2140.52,334.235 2150.99,369.9 
  2161.45,409.77 2171.92,454.282 2182.39,503.89 2192.86,559.054 2203.33,620.208 2213.8,687.729 2224.26,761.886 2234.73,842.774 2245.2,930.246 2255.67,1023.85 
  2266.14,1122.75 2272.58,1185.78 2279.02,1250.03 2285.47,1315.11 2291.91,1380.63 
  "/>
</svg>
